<svg xmlns="http://www.w3.org/2000/svg" xmlns:xlink="http://www.w3.org/1999/xlink" version="1.1" data-diagram-type="SEQUENCE" style="width:1116px;height:509px;background:#FFFFFF;" width="1116px" height="509px" viewBox="0 0 1116 509" zoomAndPan="magnify" preserveAspectRatio="none" contentStyleType="text/css"><?plantuml 1.2026.7beta8?><defs/><g font-family="sans-serif" lengthAdjust="spacing"><g class="title" data-source-line="1"><text x="275.698" y="27.995" fill="#000" font-size="14" textLength="563.151" font-weight="700">Diagrama de Secuencia - Consultar Alumno (Vue 3 + Express + Prisma)</text></g><g><title>Secretaria</title><rect x="48.079" y="139.891" width="8" height="266.195" fill="#000" fill-opacity="0"/><line x1="51.579" y1="139.891" x2="51.579" y2="406.086" style="stroke:#181818;stroke-width:0.5;stroke-dasharray:5,5;"/></g><g><title>Frontend</title><rect x="286.843" y="139.891" width="8" height="266.195" fill="#000" fill-opacity="0"/><line x1="290.343" y1="139.891" x2="290.343" y2="406.086" style="stroke:#181818;stroke-width:0.5;stroke-dasharray:5,5;"/></g><g><title></title><rect x="285.343" y="169.023" width="10" height="219.063" fill="#FFF" style="stroke:#181818;stroke-width:1;"/></g><g><title>AlumnoController</title><rect x="569.388" y="139.891" width="8" height="266.195" fill="#000" fill-opacity="0"/><line x1="572.888" y1="139.891" x2="572.888" y2="406.086" style="stroke:#181818;stroke-width:0.5;stroke-dasharray:5,5;"/></g><g><title></title><rect x="567.888" y="198.156" width="10" height="145.664" fill="#FFF" style="stroke:#181818;stroke-width:1;"/></g><g><title>AlumnoService</title><rect x="769.774" y="139.891" width="8" height="266.195" fill="#000" fill-opacity="0"/><line x1="773.274" y1="139.891" x2="773.274" y2="406.086" style="stroke:#181818;stroke-width:0.5;stroke-dasharray:5,5;"/></g><g><title></title><rect x="768.274" y="227.289" width="10" height="87.398" fill="#FFF" style="stroke:#181818;stroke-width:1;"/></g><g><title>Base de Datos</title><rect x="1048.447" y="139.891" width="8" height="266.195" fill="#000" fill-opacity="0"/><line x1="1051.947" y1="139.891" x2="1051.947" y2="406.086" style="stroke:#181818;stroke-width:0.5;stroke-dasharray:5,5;"/></g><g><title></title><rect x="1046.947" y="256.422" width="10" height="29.133" fill="#FFF" style="stroke:#181818;stroke-width:1;"/></g><text x="12.649" y="120.292" fill="#000" font-size="14" textLength="71.859">Secretaria</text><text x="10" y="136.589" fill="#000" font-size="14" textLength="77.157">Academica</text><ellipse cx="51.579" cy="55.797" rx="8" ry="8" fill="#E2E2F0" style="stroke:#181818;stroke-width:0.5;"/><path d="M51.579,63.797 L51.579,90.797 M38.579,71.797 L64.579,71.797 M51.579,90.797 L38.579,105.797 M51.579,90.797 L64.579,105.797" style="stroke:#181818;stroke-width:0.5;" fill="none"/><rect x="251.789" y="92.297" width="77.109" height="46.594" fill="#E2E2F0" style="stroke:#181818;stroke-width:0.5;" rx="2.5" ry="2.5"/><text x="258.789" y="112.292" fill="#000" font-size="14" textLength="63.109">Frontend</text><text x="264.671" y="128.589" fill="#000" font-size="14" textLength="51.345">(Vue 3)</text><rect x="504.593" y="108.594" width="136.589" height="30.297" fill="#E2E2F0" style="stroke:#181818;stroke-width:0.5;" rx="2.5" ry="2.5"/><text x="511.593" y="128.589" fill="#000" font-size="14" textLength="122.589">AlumnoController</text><rect x="713.696" y="108.594" width="119.157" height="30.297" fill="#E2E2F0" style="stroke:#181818;stroke-width:0.5;" rx="2.5" ry="2.5"/><text x="720.696" y="128.589" fill="#000" font-size="14" textLength="105.157">AlumnoService</text><text x="998.347" y="120.292" fill="#000" font-size="14" textLength="101.199">Base de Datos</text><text x="1003.108" y="136.589" fill="#000" font-size="14" textLength="91.677">(PostgreSQL)</text><path d="M1033.947,71.297 C1033.947,61.297 1051.947,61.297 1051.947,61.297 C1051.947,61.297 1069.947,61.297 1069.947,71.297 L1069.947,97.297 C1069.947,107.297 1051.947,107.297 1051.947,107.297 C1051.947,107.297 1033.947,107.297 1033.947,97.297 L1033.947,71.297" style="stroke:#181818;stroke-width:0.5;" fill="#E2E2F0"/><path d="M1033.947,71.297 C1033.947,81.297 1051.947,81.297 1051.947,81.297 C1051.947,81.297 1069.947,81.297 1069.947,71.297" style="stroke:#181818;stroke-width:0.5;" fill="none"/><text x="12.649" y="419.081" fill="#000" font-size="14" textLength="71.859">Secretaria</text><text x="10" y="435.378" fill="#000" font-size="14" textLength="77.157">Academica</text><ellipse cx="51.579" cy="447.18" rx="8" ry="8" fill="#E2E2F0" style="stroke:#181818;stroke-width:0.5;"/><path d="M51.579,455.18 L51.579,482.18 M38.579,463.18 L64.579,463.18 M51.579,482.18 L38.579,497.18 M51.579,482.18 L64.579,497.18" style="stroke:#181818;stroke-width:0.5;" fill="none"/><rect x="251.789" y="406.086" width="77.109" height="46.594" fill="#E2E2F0" style="stroke:#181818;stroke-width:0.5;" rx="2.5" ry="2.5"/><text x="258.789" y="426.081" fill="#000" font-size="14" textLength="63.109">Frontend</text><text x="264.671" y="442.378" fill="#000" font-size="14" textLength="51.345">(Vue 3)</text><rect x="504.593" y="406.086" width="136.589" height="30.297" fill="#E2E2F0" style="stroke:#181818;stroke-width:0.5;" rx="2.5" ry="2.5"/><text x="511.593" y="426.081" fill="#000" font-size="14" textLength="122.589">AlumnoController</text><rect x="713.696" y="406.086" width="119.157" height="30.297" fill="#E2E2F0" style="stroke:#181818;stroke-width:0.5;" rx="2.5" ry="2.5"/><text x="720.696" y="426.081" fill="#000" font-size="14" textLength="105.157">AlumnoService</text><text x="998.347" y="419.081" fill="#000" font-size="14" textLength="101.199">Base de Datos</text><text x="1003.108" y="435.378" fill="#000" font-size="14" textLength="91.677">(PostgreSQL)</text><path d="M1033.947,448.68 C1033.947,438.68 1051.947,438.68 1051.947,438.68 C1051.947,438.68 1069.947,438.68 1069.947,448.68 L1069.947,474.68 C1069.947,484.68 1051.947,484.68 1051.947,484.68 C1051.947,484.68 1033.947,484.68 1033.947,474.68 L1033.947,448.68" style="stroke:#181818;stroke-width:0.5;" fill="#E2E2F0"/><path d="M1033.947,448.68 C1033.947,458.68 1051.947,458.68 1051.947,458.68 C1051.947,458.68 1069.947,458.68 1069.947,448.68" style="stroke:#181818;stroke-width:0.5;" fill="none"/><polygon points="273.343,165.023,283.343,169.023,273.343,173.023,277.343,169.023" fill="#181818" style="stroke:#181818;stroke-width:1;stroke-linejoin:miter;stroke-miterlimit:10;"/><line x1="51.579" y1="169.023" x2="279.343" y2="169.023" style="stroke:#181818;stroke-width:1;"/><text x="58.579" y="163.958" fill="#000" font-size="13" textLength="209.149">selecciona un alumno de la lista</text><polygon points="555.888,194.156,565.888,198.156,555.888,202.156,559.888,198.156" fill="#181818" style="stroke:#181818;stroke-width:1;stroke-linejoin:miter;stroke-miterlimit:10;"/><line x1="295.343" y1="198.156" x2="561.888" y2="198.156" style="stroke:#181818;stroke-width:1;"/><text x="302.343" y="193.09" fill="#000" font-size="13" textLength="253.544">GET /api/secretaria/alumnos/:alumnoId</text><polygon points="756.274,223.289,766.274,227.289,756.274,231.289,760.274,227.289" fill="#181818" style="stroke:#181818;stroke-width:1;stroke-linejoin:miter;stroke-miterlimit:10;"/><line x1="577.888" y1="227.289" x2="762.274" y2="227.289" style="stroke:#181818;stroke-width:1;"/><text x="584.888" y="222.223" fill="#000" font-size="13" textLength="171.387">obtenerAlumno(alumnoId)</text><polygon points="1034.947,252.422,1044.947,256.422,1034.947,260.422,1038.947,256.422" fill="#181818" style="stroke:#181818;stroke-width:1;stroke-linejoin:miter;stroke-miterlimit:10;"/><line x1="778.274" y1="256.422" x2="1040.947" y2="256.422" style="stroke:#181818;stroke-width:1;"/><text x="785.274" y="251.356" fill="#000" font-size="13" textLength="249.672">SELECT * FROM Alumno WHERE id = ?</text><polygon points="789.274,281.555,779.274,285.555,789.274,289.555,785.274,285.555" fill="#181818" style="stroke:#181818;stroke-width:1;stroke-linejoin:miter;stroke-miterlimit:10;"/><line x1="783.274" y1="285.555" x2="1045.947" y2="285.555" style="stroke:#181818;stroke-width:1;stroke-dasharray:2,2;"/><text x="795.274" y="280.489" fill="#000" font-size="13" textLength="49.601">Alumno</text><polygon points="588.888,310.688,578.888,314.688,588.888,318.688,584.888,314.688" fill="#181818" style="stroke:#181818;stroke-width:1;stroke-linejoin:miter;stroke-miterlimit:10;"/><line x1="582.888" y1="314.688" x2="767.274" y2="314.688" style="stroke:#181818;stroke-width:1;stroke-dasharray:2,2;"/><text x="594.888" y="309.622" fill="#000" font-size="13" textLength="49.601">Alumno</text><polygon points="306.343,339.82,296.343,343.82,306.343,347.82,302.343,343.82" fill="#181818" style="stroke:#181818;stroke-width:1;stroke-linejoin:miter;stroke-miterlimit:10;"/><line x1="300.343" y1="343.82" x2="566.888" y2="343.82" style="stroke:#181818;stroke-width:1;stroke-dasharray:2,2;"/><text x="312.343" y="338.754" fill="#000" font-size="13" textLength="125.315">200 OK { alumno }</text><polygon points="62.579,384.086,52.579,388.086,62.579,392.086,58.579,388.086" fill="#181818" style="stroke:#181818;stroke-width:1;stroke-linejoin:miter;stroke-miterlimit:10;"/><line x1="56.579" y1="388.086" x2="284.343" y2="388.086" style="stroke:#181818;stroke-width:1;stroke-dasharray:2,2;"/><text x="68.579" y="367.887" fill="#000" font-size="13" textLength="166.556">muestra ficha del alumno</text><text x="68.579" y="383.02" fill="#000" font-size="13" textLength="209.765">(nombre, dni, email, matrículas)</text><?plantuml-src RPB1RjD048Rl-nI_SceWKIguHGBKD2uWYbgQ2YwzJDP36Mcz6-skAoJ48_4Kl1YJEFOwmCKQs_D_yy-_coKxnbheCL93g1aRjYrxAuGvBeDFhSiKSU7QnWUSVMuPB_4SrVTTv9IqkesI6feQGpQ7Y8dg8wj4wC5VMAgv4KiJK4BvOtOKirZPaS-ONCNWC_lwmNVuwQ6x_thQs_bGNpa6vpWUMilh_vet79_4yj72eJOrPTfIOanM-wUklQOSaZgu3Ia_Hjvykkvih5V65EEOlnwCOOd4ZgsLu0cj1tKPASmHdAHC-qpaYJANRSmWLrGnhh2trJqMj9D56iOjEcHQBBlYVLs8ewNDYAFKuvAA35kTnB7BuQndJ0kapyFq6fMlLwhSLDVLvJsUuUhkvcD_-b_ULNSLfCOhl2aCJKWbyvF1dS3KFEugG_vU_T_smTXujTFmNvoVu-O3VlIv_nphn-cKn0yUXxDSecavvKZuAlRR_lAx8qllWG_DDl8CjPSPk25nCpIKu-zVjdMKfkDX_O0_?></g></svg>