<svg xmlns="http://www.w3.org/2000/svg" xmlns:xlink="http://www.w3.org/1999/xlink" version="1.1" data-diagram-type="DESCRIPTION" style="width:1146px;height:432px;background:#FFFFFF;" width="1146px" height="432px" viewBox="0 0 1146 432" zoomAndPan="magnify" preserveAspectRatio="none" contentStyleType="text/css"><?plantuml 1.2026.7beta8?><defs/><g font-family="sans-serif" lengthAdjust="spacing"><!--cluster exportarHistorialAsistencias--><g class="cluster" data-qualified-name="exportarHistorialAsistencias" id="ent0002" data-source-line="5"><path d="M281.72,6 L520.071,6 A3.75,3.75 0 0 1 522.571,8.5 L529.571,28.297 L1128.72,28.297 A2.5,2.5 0 0 1 1131.22,30.797 L1131.22,414.69 A2.5,2.5 0 0 1 1128.72,417.19 L281.72,417.19 A2.5,2.5 0 0 1 279.22,414.69 L279.22,8.5 A2.5,2.5 0 0 1 281.72,6" style="stroke:#000;stroke-width:1.5;" fill="none"/><line x1="279.22" y1="28.297" x2="529.571" y2="28.297" style="stroke:#000;stroke-width:1.5;"/><text x="283.22" y="20.995" fill="#000" font-size="14" textLength="237.351" font-weight="700">exportarHistorialAsistencias()</text></g><!--entity ExportarHistorialAsistenciasView--><g class="entity" data-qualified-name="exportarHistorialAsistencias.ExportarHistorialAsistenciasView" id="ent0003" data-source-line="6"><rect x="394.19" y="41" width="250.063" height="36.297" fill="#629EF9" style="stroke:#181818;stroke-width:0.5;" rx="2.5" ry="2.5"/><text x="404.19" y="63.995" fill="#000" font-size="14" textLength="230.063">ExportarHistorialAsistenciasView</text></g><!--entity AsistenciaController--><g class="entity" data-qualified-name="exportarHistorialAsistencias.AsistenciaController" id="ent0004" data-source-line="7"><rect x="469.03" y="154.3" width="160.369" height="36.297" fill="#B5BD68" style="stroke:#181818;stroke-width:0.5;" rx="2.5" ry="2.5"/><text x="479.03" y="177.295" fill="#000" font-size="14" textLength="140.369">AsistenciaController</text></g><!--entity AsistenciaRepository--><g class="entity" data-qualified-name="exportarHistorialAsistencias.AsistenciaRepository" id="ent0005" data-source-line="8"><rect x="466.08" y="267.6" width="166.269" height="36.297" fill="#F2AC4E" style="stroke:#181818;stroke-width:0.5;" rx="2.5" ry="2.5"/><text x="476.08" y="290.595" fill="#000" font-size="14" textLength="146.269">AsistenciaRepository</text></g><!--entity Asistencia--><g class="entity" data-qualified-name="exportarHistorialAsistencias.Asistencia" id="ent0006" data-source-line="9"><rect x="503.62" y="364.89" width="91.196" height="36.297" fill="#F2AC4E" style="stroke:#181818;stroke-width:0.5;" rx="2.5" ry="2.5"/><text x="513.62" y="387.885" fill="#000" font-size="14" textLength="71.196">Asistencia</text></g><!--entity AsistenciasAbierto--><g class="entity" data-qualified-name="AsistenciasAbierto" id="ent0001" data-source-line="3"><rect x="7" y="41" width="158.435" height="36.297" fill="#CDEBA5" style="stroke:#181818;stroke-width:0.5;" rx="2.5" ry="2.5"/><text x="17" y="63.995" fill="#000" font-size="14" textLength="138.435">:Asistencias Abierto</text></g><!--link AsistenciasAbierto to ExportarHistorialAsistenciasView--><g class="link" data-entity-1="ent0001" data-entity-2="ent0003" id="lnk7" data-source-line="12" data-link-type="dependency"><path d="M165.89,59.15 C229.64,59.15 315.21,59.15 388.69,59.15" style="stroke:#181818;stroke-width:1;" fill="none" id="AsistenciasAbierto-to-ExportarHistorialAsistenciasView"/><polygon points="393.69,59.15,384.69,55.15,388.69,59.15,384.69,63.15,393.69,59.15" fill="#181818" style="stroke:#181818;stroke-width:1;stroke-linejoin:miter;stroke-miterlimit:10;"/><text x="183.81" y="52.217" fill="#000" font-size="13" textLength="192.423">exportarHistorialAsistencias()</text></g><!--link ExportarHistorialAsistenciasView to AsistenciaController--><g class="link" data-entity-1="ent0003" data-entity-2="ent0004" id="lnk8" data-source-line="13" data-link-type="dependency"><path d="M447.45,77.77 C392.92,91.17 327.22,107.3 327.22,107.3 C327.22,107.3 327.22,124.3 327.22,124.3 C327.22,124.3 400.329,139.832 463.869,153.322" style="stroke:#181818;stroke-width:1;" fill="none" id="ExportarHistorialAsistenciasView-to-AsistenciaController"/><polygon points="468.76,154.36,460.787,148.578,463.869,153.322,459.126,156.404,468.76,154.36" fill="#181818" style="stroke:#181818;stroke-width:1;stroke-linejoin:miter;stroke-miterlimit:10;"/><text x="328.22" y="120.367" fill="#000" font-size="13" textLength="348.702">cargarAsistencias(asignaturaId, fechaInicio, fechaFin)</text></g><!--link ExportarHistorialAsistenciasView to AsistenciaController--><g class="link" data-entity-1="ent0003" data-entity-2="ent0004" id="lnk11" data-source-line="16" data-link-type="dependency"><path d="M579.54,77.71 C625.6,91.11 681.22,107.3 681.22,107.3 C681.22,107.3 681.22,124.3 681.22,124.3 C681.22,124.3 640.609,138.809 603.079,152.209" style="stroke:#181818;stroke-width:1;" fill="none" id="ExportarHistorialAsistenciasView-to-AsistenciaController-1"/><polygon points="598.37,153.89,608.191,154.631,603.079,152.209,605.501,147.097,598.37,153.89" fill="#181818" style="stroke:#181818;stroke-width:1;stroke-linejoin:miter;stroke-miterlimit:10;"/><text x="682.22" y="120.367" fill="#000" font-size="13" textLength="393.644">generarArchivo(asignaturaId, fechaInicio, fechaFin, formato)</text></g><!--link AsistenciaController to AsistenciaRepository--><g class="link" data-entity-1="ent0004" data-entity-2="ent0005" id="lnk9" data-source-line="14" data-link-type="dependency"><path d="M549.22,190.84 C549.22,211.62 549.22,241.21 549.22,262.11" style="stroke:#181818;stroke-width:1;" fill="none" id="AsistenciaController-to-AsistenciaRepository"/><polygon points="549.22,267.11,553.22,258.11,549.22,262.11,545.22,258.11,549.22,267.11" fill="#181818" style="stroke:#181818;stroke-width:1;stroke-linejoin:miter;stroke-miterlimit:10;"/><text x="550.22" y="233.667" fill="#000" font-size="13" textLength="345.471">findByAsignatura(asignaturaId, fechaInicio, fechaFin)</text></g><!--link AsistenciaRepository to Asistencia--><g class="link" data-entity-1="ent0005" data-entity-2="ent0006" id="lnk10" data-source-line="15" data-link-type="association"><path d="M549.22,304.22 C549.22,321.42 549.22,347.52 549.22,364.67" style="stroke:#181818;stroke-width:1;" fill="none" id="AsistenciaRepository-Asistencia"/></g><?plantuml-src fL1DJuD04BtlhvZWHHAvDBQn74meGkpLW_TXcT99wIuPrWzY_EzkaqQmDb3ZPWypapVllNdjZas3WdkesP3h6eB6rjsXKKf8EpHLJN2LFcIhP0v1dBJSEZAQiOMaO19d0pZK_VmuLgf1lSEAWDuRAmxbqKEiCDP34l-3CS1r6C270ly6TXQpPPOl8HlPUsPwErqhvaMvk1juJQrnOkkQv1IQpvBqDXj0dwYnBNkPRXAgFfNwdGT44jrFMevXF0mrHG1HwMNEdHY3HgbGXdpOScNGlGYkonlOaDxYsh1cUsnoDg4wHmRH3vK-dHWsRCfLbtmp_rMav_8YmrZ_Stf5XiJVBdhBh_OIIxwoiaTdmoy0?></g></svg>