<svg xmlns="http://www.w3.org/2000/svg" xmlns:xlink="http://www.w3.org/1999/xlink" version="1.1" data-diagram-type="DESCRIPTION" style="width:1305px;height:432px;background:#FFFFFF;" width="1305px" height="432px" viewBox="0 0 1305 432" zoomAndPan="magnify" preserveAspectRatio="none" contentStyleType="text/css"><?plantuml 1.2026.7beta3?><defs/><g><!--cluster exportarHistorialAsistencias--><g class="cluster" data-qualified-name="exportarHistorialAsistencias" id="ent0002" data-source-line="5"><path d="M277.99,6 L516.3406,6 A3.75,3.75 0 0 1 518.8406,8.5 L525.8406,28.2969 L1287.99,28.2969 A2.5,2.5 0 0 1 1290.49,30.7969 L1290.49,414.69 A2.5,2.5 0 0 1 1287.99,417.19 L277.99,417.19 A2.5,2.5 0 0 1 275.49,414.69 L275.49,8.5 A2.5,2.5 0 0 1 277.99,6" style="stroke:#000000;stroke-width:1.5;" fill="none"/><line x1="275.49" y1="28.2969" x2="525.8406" y2="28.2969" style="stroke:#000000;stroke-width:1.5;"/><text x="279.49" y="20.9951" fill="#000000" font-size="14" lengthAdjust="spacing" textLength="237.3506" font-weight="700" font-family="sans-serif">exportarHistorialAsistencias()</text></g><!--entity ExportarHistorialAsistenciasView--><g class="entity" data-qualified-name="exportarHistorialAsistencias.ExportarHistorialAsistenciasView" id="ent0003" data-source-line="6"><rect x="553.46" y="41" width="250.0635" height="36.2969" fill="#629EF9" style="stroke:#181818;stroke-width:0.5;" rx="2.5" ry="2.5"/><text x="563.46" y="63.9951" fill="#000000" font-size="14" lengthAdjust="spacing" textLength="230.0635" font-family="sans-serif">ExportarHistorialAsistenciasView</text></g><!--entity AsistenciaController--><g class="entity" data-qualified-name="exportarHistorialAsistencias.AsistenciaController" id="ent0004" data-source-line="7"><rect x="598.31" y="154.3" width="160.3691" height="36.2969" fill="#B5BD68" style="stroke:#181818;stroke-width:0.5;" rx="2.5" ry="2.5"/><text x="608.31" y="177.2951" fill="#000000" font-size="14" lengthAdjust="spacing" textLength="140.3691" font-family="sans-serif">AsistenciaController</text></g><!--entity AsistenciaRepository--><g class="entity" data-qualified-name="exportarHistorialAsistencias.AsistenciaRepository" id="ent0005" data-source-line="8"><rect x="440.36" y="267.6" width="166.2686" height="36.2969" fill="#F2AC4E" style="stroke:#181818;stroke-width:0.5;" rx="2.5" ry="2.5"/><text x="450.36" y="290.5951" fill="#000000" font-size="14" lengthAdjust="spacing" textLength="146.2686" font-family="sans-serif">AsistenciaRepository</text></g><!--entity SesionClaseRepository--><g class="entity" data-qualified-name="exportarHistorialAsistencias.SesionClaseRepository" id="ent0006" data-source-line="9"><rect x="776.82" y="267.6" width="179.3457" height="36.2969" fill="#F2AC4E" style="stroke:#181818;stroke-width:0.5;" rx="2.5" ry="2.5"/><text x="786.82" y="290.5951" fill="#000000" font-size="14" lengthAdjust="spacing" textLength="159.3457" font-family="sans-serif">SesionClaseRepository</text></g><!--entity Asistencia--><g class="entity" data-qualified-name="exportarHistorialAsistencias.Asistencia" id="ent0007" data-source-line="10"><rect x="477.89" y="364.89" width="91.1963" height="36.2969" fill="#F2AC4E" style="stroke:#181818;stroke-width:0.5;" rx="2.5" ry="2.5"/><text x="487.89" y="387.8851" fill="#000000" font-size="14" lengthAdjust="spacing" textLength="71.1963" font-family="sans-serif">Asistencia</text></g><!--entity SesionDeClase--><g class="entity" data-qualified-name="exportarHistorialAsistencias.SesionDeClase" id="ent0008" data-source-line="11"><rect x="804.66" y="364.89" width="123.667" height="36.2969" fill="#F2AC4E" style="stroke:#181818;stroke-width:0.5;" rx="2.5" ry="2.5"/><text x="814.66" y="387.8851" fill="#000000" font-size="14" lengthAdjust="spacing" textLength="103.667" font-family="sans-serif">SesionDeClase</text></g><!--entity CerrarSesionClase--><g class="entity" data-qualified-name="CerrarSesionClase" id="ent0001" data-source-line="3"><rect x="7" y="41" width="250.9795" height="36.2969" fill="#CDEBA5" style="stroke:#181818;stroke-width:0.5;" rx="2.5" ry="2.5"/><text x="17" y="63.9951" fill="#000000" font-size="14" lengthAdjust="spacing" textLength="230.9795" font-family="sans-serif">:Collaboration CerrarSesionClase</text></g><!--link CerrarSesionClase to ExportarHistorialAsistenciasView--><g class="link" data-entity-1="ent0001" data-entity-2="ent0003" id="lnk9" data-source-line="14" data-link-type="dependency"><path d="M258.44,59.15 C346.94,59.15 459.82,59.15 548.17,59.15" style="stroke:#181818;stroke-width:1;" fill="none" id="CerrarSesionClase-to-ExportarHistorialAsistenciasView"/><polygon points="553.17,59.15,544.17,55.15,548.17,59.15,544.17,63.15,553.17,59.15" fill="#181818" style="stroke:#181818;stroke-width:1;stroke-linejoin:miter;stroke-miterlimit:10;"/><text x="276.22" y="52.2169" fill="#000000" font-size="13" lengthAdjust="spacing" textLength="259.562" font-family="sans-serif">«include» exportarHistorialAsistencias()</text></g><!--link ExportarHistorialAsistenciasView to AsistenciaController--><g class="link" data-entity-1="ent0003" data-entity-2="ent0004" id="lnk10" data-source-line="16" data-link-type="dependency"><path d="M553.33,76.77 C451.12,90.35 323.49,107.3 323.49,107.3 C323.49,107.3 323.49,124.3 323.49,124.3 C323.49,124.3 488.2335,146.1818 592.9735,160.0918" style="stroke:#181818;stroke-width:1;" fill="none" id="ExportarHistorialAsistenciasView-to-AsistenciaController"/><polygon points="597.93,160.75,589.5349,155.6,592.9735,160.0918,588.4817,163.5303,597.93,160.75" fill="#181818" style="stroke:#181818;stroke-width:1;stroke-linejoin:miter;stroke-miterlimit:10;"/><text x="324.49" y="120.3669" fill="#000000" font-size="13" lengthAdjust="spacing" textLength="310.6099" font-family="sans-serif">obtenerAsistencias(sesionId) : List&lt;Asistencia></text></g><!--link ExportarHistorialAsistenciasView to AsistenciaController--><g class="link" data-entity-1="ent0003" data-entity-2="ent0004" id="lnk13" data-source-line="22" data-link-type="dependency"><path d="M677.37,77.71 C676.52,91.11 675.49,107.3 675.49,107.3 C675.49,107.3 675.49,124.3 675.49,124.3 C675.49,124.3 676.2035,135.5 677.0535,148.9" style="stroke:#181818;stroke-width:1;" fill="none" id="ExportarHistorialAsistenciasView-to-AsistenciaController-1"/><polygon points="677.37,153.89,680.7922,144.6548,677.0535,148.9,672.8083,145.1613,677.37,153.89" fill="#181818" style="stroke:#181818;stroke-width:1;stroke-linejoin:miter;stroke-miterlimit:10;"/><text x="676.49" y="120.3669" fill="#000000" font-size="13" lengthAdjust="spacing" textLength="266.1953" font-family="sans-serif">obtenerSesion(sesionId) : SesionDeClase</text></g><!--link ExportarHistorialAsistenciasView to AsistenciaController--><g class="link" data-entity-1="ent0003" data-entity-2="ent0004" id="lnk16" data-source-line="28" data-link-type="dependency"><path d="M779.04,77.77 C855.44,91.17 947.49,107.3 947.49,107.3 C947.49,107.3 947.49,124.3 947.49,124.3 C947.49,124.3 843.0249,142.6064 763.7549,156.5064" style="stroke:#181818;stroke-width:1;" fill="none" id="ExportarHistorialAsistenciasView-to-AsistenciaController-2"/><polygon points="758.83,157.37,768.3856,159.7555,763.7549,156.5064,767.0039,151.8757,758.83,157.37" fill="#181818" style="stroke:#181818;stroke-width:1;stroke-linejoin:miter;stroke-miterlimit:10;"/><text x="948.49" y="120.3669" fill="#000000" font-size="13" lengthAdjust="spacing" textLength="286.6792" font-family="sans-serif">generarInforme(sesionId, formato) : Archivo</text></g><!--link AsistenciaController to AsistenciaRepository--><g class="link" data-entity-1="ent0004" data-entity-2="ent0005" id="lnk11" data-source-line="18" data-link-type="dependency"><path d="M619.66,191 C574.73,204.41 520.49,220.6 520.49,220.6 C520.49,220.6 520.49,237.6 520.49,237.6 C520.49,237.6 521.2037,248.79 522.0537,262.2" style="stroke:#181818;stroke-width:1;" fill="none" id="AsistenciaController-to-AsistenciaRepository"/><polygon points="522.37,267.19,525.7927,257.955,522.0537,262.2,517.8087,258.4611,522.37,267.19" fill="#181818" style="stroke:#181818;stroke-width:1;stroke-linejoin:miter;stroke-miterlimit:10;"/><text x="521.49" y="233.6669" fill="#000000" font-size="13" lengthAdjust="spacing" textLength="301.6914" font-family="sans-serif">obtenerPorSesion(sesionId) : List&lt;Asistencia></text></g><!--link AsistenciaRepository to Asistencia--><g class="link" data-entity-1="ent0005" data-entity-2="ent0007" id="lnk12" data-source-line="20" data-link-type="association"><path d="M523.49,304.22 C523.49,321.42 523.49,347.52 523.49,364.67" style="stroke:#181818;stroke-width:1;" fill="none" id="AsistenciaRepository-Asistencia"/></g><!--link AsistenciaController to SesionClaseRepository--><g class="link" data-entity-1="ent0004" data-entity-2="ent0006" id="lnk14" data-source-line="24" data-link-type="dependency"><path d="M733.97,191 C776.33,204.41 827.49,220.6 827.49,220.6 C827.49,220.6 841.6944,243.9465 853.2344,262.9465" style="stroke:#181818;stroke-width:1;" fill="none" id="AsistenciaController-to-SesionClaseRepository"/><polygon points="855.83,267.22,854.5767,257.4512,853.2344,262.9465,847.7391,261.6042,855.83,267.22" fill="#181818" style="stroke:#181818;stroke-width:1;stroke-linejoin:miter;stroke-miterlimit:10;"/><text x="837.49" y="233.6669" fill="#000000" font-size="13" lengthAdjust="spacing" textLength="256.5913" font-family="sans-serif">obtenerPorId(sesionId) : SesionDeClase</text></g><!--link SesionClaseRepository to SesionDeClase--><g class="link" data-entity-1="ent0006" data-entity-2="ent0008" id="lnk15" data-source-line="26" data-link-type="association"><path d="M866.49,304.22 C866.49,321.42 866.49,347.52 866.49,364.67" style="stroke:#181818;stroke-width:1;" fill="none" id="SesionClaseRepository-SesionDeClase"/></g><?plantuml-src fP9FQuD04CNl-oa6UscWNa8J6Wc2DOO6UYWjz3xgD5sosPLP-oUKVlUkROacCHg8U736Dx-TzzIkf2wGSGrAQYet1K5XrAOgX63AIjHBHN0HpvBRQ0HU41kbC3MCfJGQOc96VYBhYbYX9G_G7dQ5A31RuPA0FWl39VATjALXYIgoxebq9jsSkxqkmUN0Woy1xcfiDXvEala4aewvPqaV-sFfACt7Dr2hOgDBTkQ8zwNpOHHV9mtf8nN6IdVCveYqORrNMsCxOJFwI_9RY8DumMS_x4qWWEbKwaozvHI6q9sp47qqy7DtPbjy0PZKzOYRHFkxxI8VG03thZsjNuP2j670t-7NEMxv3-O_X9FfDSJHcycVOBVFRSigkr_kkClMtwLfSv5tSLl7AuDxkZCyBgj5a1VwnV2QjijSGLLZQQgj8ivUvRlv0G00?></g></svg>