<svg xmlns="http://www.w3.org/2000/svg" xmlns:xlink="http://www.w3.org/1999/xlink" version="1.1" data-diagram-type="SEQUENCE" style="width:1340px;height:950px;background:#FFFFFF;" width="1340px" height="950px" viewBox="0 0 1340 950" zoomAndPan="magnify" preserveAspectRatio="none" contentStyleType="text/css"><?plantuml 1.2026.7beta8?><defs/><g font-family="sans-serif" lengthAdjust="spacing"><g class="title" data-source-line="1"><text x="368.618" y="27.995" fill="#000" font-size="14" textLength="601.214" font-weight="700">Diagrama de Secuencia - Cerrar Sesión de Clase (Vue 3 + Express + Prisma)</text></g><g><title>Profesor</title><rect x="38.46" y="125.891" width="8" height="734.586" fill="#000" fill-opacity="0"/><line x1="41.96" y1="125.891" x2="41.96" y2="860.477" style="stroke:#181818;stroke-width:0.5;stroke-dasharray:5,5;"/></g><g><title>Frontend</title><rect x="279.402" y="125.891" width="8" height="734.586" fill="#000" fill-opacity="0"/><line x1="282.902" y1="125.891" x2="282.902" y2="860.477" style="stroke:#181818;stroke-width:0.5;stroke-dasharray:5,5;"/></g><g><title></title><rect x="277.902" y="155.023" width="10" height="687.453" fill="#FFF" style="stroke:#181818;stroke-width:1;"/></g><g><title>AcademicController</title><rect x="594.167" y="125.891" width="8" height="734.586" fill="#000" fill-opacity="0"/><line x1="597.667" y1="125.891" x2="597.667" y2="860.477" style="stroke:#181818;stroke-width:0.5;stroke-dasharray:5,5;"/></g><g><title></title><rect x="592.667" y="184.156" width="10" height="160.797" fill="#FFF" style="stroke:#181818;stroke-width:1;"/></g><g><title></title><rect x="592.667" y="637.414" width="10" height="175.93" fill="#FFF" style="stroke:#181818;stroke-width:1;"/></g><g><title>AttendanceController</title><rect x="761.975" y="125.891" width="8" height="734.586" fill="#000" fill-opacity="0"/><line x1="765.475" y1="125.891" x2="765.475" y2="860.477" style="stroke:#181818;stroke-width:0.5;stroke-dasharray:5,5;"/></g><g><title></title><rect x="760.475" y="374.086" width="10" height="160.797" fill="#FFF" style="stroke:#181818;stroke-width:1;"/></g><g><title>AcademicService</title><rect x="921.067" y="125.891" width="8" height="734.586" fill="#000" fill-opacity="0"/><line x1="924.567" y1="125.891" x2="924.567" y2="860.477" style="stroke:#181818;stroke-width:0.5;stroke-dasharray:5,5;"/></g><g><title></title><rect x="919.567" y="213.289" width="10" height="102.531" fill="#FFF" style="stroke:#181818;stroke-width:1;"/></g><g><title></title><rect x="919.567" y="666.547" width="10" height="117.664" fill="#FFF" style="stroke:#181818;stroke-width:1;"/></g><g><title>AttendanceService</title><rect x="1071.443" y="125.891" width="8" height="734.586" fill="#000" fill-opacity="0"/><line x1="1074.943" y1="125.891" x2="1074.943" y2="860.477" style="stroke:#181818;stroke-width:0.5;stroke-dasharray:5,5;"/></g><g><title></title><rect x="1069.943" y="403.219" width="10" height="102.531" fill="#FFF" style="stroke:#181818;stroke-width:1;"/></g><g><title>Base de Datos</title><rect x="1272.35" y="125.891" width="8" height="734.586" fill="#000" fill-opacity="0"/><line x1="1275.85" y1="125.891" x2="1275.85" y2="860.477" style="stroke:#181818;stroke-width:0.5;stroke-dasharray:5,5;"/></g><g><title></title><rect x="1270.85" y="257.555" width="10" height="29.133" fill="#FFF" style="stroke:#181818;stroke-width:1;"/></g><g><title></title><rect x="1270.85" y="447.484" width="10" height="29.133" fill="#FFF" style="stroke:#181818;stroke-width:1;"/></g><g><title></title><rect x="1270.85" y="725.945" width="10" height="29.133" fill="#FFF" style="stroke:#181818;stroke-width:1;"/></g><text x="10" y="122.589" fill="#000" font-size="14" textLength="57.921">Profesor</text><ellipse cx="41.96" cy="58.094" rx="8" ry="8" fill="#E2E2F0" style="stroke:#181818;stroke-width:0.5;"/><path d="M41.96,66.094 L41.96,93.094 M28.96,74.094 L54.96,74.094 M41.96,93.094 L28.96,108.094 M41.96,93.094 L54.96,108.094" style="stroke:#181818;stroke-width:0.5;" fill="none"/><rect x="244.348" y="78.297" width="77.109" height="46.594" fill="#E2E2F0" style="stroke:#181818;stroke-width:0.5;" rx="2.5" ry="2.5"/><text x="251.348" y="98.292" fill="#000" font-size="14" textLength="63.109">Frontend</text><text x="257.23" y="114.589" fill="#000" font-size="14" textLength="51.345">(Vue 3)</text><rect x="521.792" y="94.594" width="151.751" height="30.297" fill="#E2E2F0" style="stroke:#181818;stroke-width:0.5;" rx="2.5" ry="2.5"/><text x="528.792" y="114.589" fill="#000" font-size="14" textLength="137.751">AcademicController</text><rect x="683.543" y="94.594" width="163.864" height="30.297" fill="#E2E2F0" style="stroke:#181818;stroke-width:0.5;" rx="2.5" ry="2.5"/><text x="690.543" y="114.589" fill="#000" font-size="14" textLength="149.864">AttendanceController</text><rect x="857.407" y="94.594" width="134.319" height="30.297" fill="#E2E2F0" style="stroke:#181818;stroke-width:0.5;" rx="2.5" ry="2.5"/><text x="864.407" y="114.589" fill="#000" font-size="14" textLength="120.319">AcademicService</text><rect x="1001.727" y="94.594" width="146.433" height="30.297" fill="#E2E2F0" style="stroke:#181818;stroke-width:0.5;" rx="2.5" ry="2.5"/><text x="1008.727" y="114.589" fill="#000" font-size="14" textLength="132.433">AttendanceService</text><text x="1222.25" y="106.292" fill="#000" font-size="14" textLength="101.199">Base de Datos</text><text x="1227.012" y="122.589" fill="#000" font-size="14" textLength="91.677">(PostgreSQL)</text><path d="M1257.85,57.297 C1257.85,47.297 1275.85,47.297 1275.85,47.297 C1275.85,47.297 1293.85,47.297 1293.85,57.297 L1293.85,83.297 C1293.85,93.297 1275.85,93.297 1275.85,93.297 C1275.85,93.297 1257.85,93.297 1257.85,83.297 L1257.85,57.297" style="stroke:#181818;stroke-width:0.5;" fill="#E2E2F0"/><path d="M1257.85,57.297 C1257.85,67.297 1275.85,67.297 1275.85,67.297 C1275.85,67.297 1293.85,67.297 1293.85,57.297" style="stroke:#181818;stroke-width:0.5;" fill="none"/><text x="10" y="873.472" fill="#000" font-size="14" textLength="57.921">Profesor</text><ellipse cx="41.96" cy="885.273" rx="8" ry="8" fill="#E2E2F0" style="stroke:#181818;stroke-width:0.5;"/><path d="M41.96,893.273 L41.96,920.273 M28.96,901.273 L54.96,901.273 M41.96,920.273 L28.96,935.273 M41.96,920.273 L54.96,935.273" style="stroke:#181818;stroke-width:0.5;" fill="none"/><rect x="244.348" y="860.477" width="77.109" height="46.594" fill="#E2E2F0" style="stroke:#181818;stroke-width:0.5;" rx="2.5" ry="2.5"/><text x="251.348" y="880.472" fill="#000" font-size="14" textLength="63.109">Frontend</text><text x="257.23" y="896.769" fill="#000" font-size="14" textLength="51.345">(Vue 3)</text><rect x="521.792" y="860.477" width="151.751" height="30.297" fill="#E2E2F0" style="stroke:#181818;stroke-width:0.5;" rx="2.5" ry="2.5"/><text x="528.792" y="880.472" fill="#000" font-size="14" textLength="137.751">AcademicController</text><rect x="683.543" y="860.477" width="163.864" height="30.297" fill="#E2E2F0" style="stroke:#181818;stroke-width:0.5;" rx="2.5" ry="2.5"/><text x="690.543" y="880.472" fill="#000" font-size="14" textLength="149.864">AttendanceController</text><rect x="857.407" y="860.477" width="134.319" height="30.297" fill="#E2E2F0" style="stroke:#181818;stroke-width:0.5;" rx="2.5" ry="2.5"/><text x="864.407" y="880.472" fill="#000" font-size="14" textLength="120.319">AcademicService</text><rect x="1001.727" y="860.477" width="146.433" height="30.297" fill="#E2E2F0" style="stroke:#181818;stroke-width:0.5;" rx="2.5" ry="2.5"/><text x="1008.727" y="880.472" fill="#000" font-size="14" textLength="132.433">AttendanceService</text><text x="1222.25" y="873.472" fill="#000" font-size="14" textLength="101.199">Base de Datos</text><text x="1227.012" y="889.769" fill="#000" font-size="14" textLength="91.677">(PostgreSQL)</text><path d="M1257.85,903.07 C1257.85,893.07 1275.85,893.07 1275.85,893.07 C1275.85,893.07 1293.85,893.07 1293.85,903.07 L1293.85,929.07 C1293.85,939.07 1275.85,939.07 1275.85,939.07 C1275.85,939.07 1257.85,939.07 1257.85,929.07 L1257.85,903.07" style="stroke:#181818;stroke-width:0.5;" fill="#E2E2F0"/><path d="M1257.85,903.07 C1257.85,913.07 1275.85,913.07 1275.85,913.07 C1275.85,913.07 1293.85,913.07 1293.85,903.07" style="stroke:#181818;stroke-width:0.5;" fill="none"/><polygon points="265.902,151.023,275.902,155.023,265.902,159.023,269.902,155.023" fill="#181818" style="stroke:#181818;stroke-width:1;stroke-linejoin:miter;stroke-miterlimit:10;"/><line x1="41.96" y1="155.023" x2="271.902" y2="155.023" style="stroke:#181818;stroke-width:1;"/><text x="48.96" y="149.958" fill="#000" font-size="13" textLength="202.243">solicita cerrar sesión (sesionId)</text><polygon points="580.667,180.156,590.667,184.156,580.667,188.156,584.667,184.156" fill="#181818" style="stroke:#181818;stroke-width:1;stroke-linejoin:miter;stroke-miterlimit:10;"/><line x1="287.902" y1="184.156" x2="586.667" y2="184.156" style="stroke:#181818;stroke-width:1;"/><text x="294.902" y="179.09" fill="#000" font-size="13" textLength="243.172">GET /api/academic/sessions/:sesionId</text><polygon points="907.567,209.289,917.567,213.289,907.567,217.289,911.567,213.289" fill="#181818" style="stroke:#181818;stroke-width:1;stroke-linejoin:miter;stroke-miterlimit:10;"/><line x1="602.667" y1="213.289" x2="913.567" y2="213.289" style="stroke:#181818;stroke-width:1;"/><text x="609.667" y="208.223" fill="#000" font-size="13" textLength="134.526">getSession(sesionId)</text><polygon points="1258.85,253.555,1268.85,257.555,1258.85,261.555,1262.85,257.555" fill="#181818" style="stroke:#181818;stroke-width:1;stroke-linejoin:miter;stroke-miterlimit:10;"/><line x1="929.567" y1="257.555" x2="1264.85" y2="257.555" style="stroke:#181818;stroke-width:1;"/><text x="936.567" y="237.356" fill="#000" font-size="13" textLength="202.059">SELECT * FROM SesionDeClase</text><text x="936.567" y="252.489" fill="#000" font-size="13" textLength="90.143">WHERE id = ?</text><polygon points="940.567,282.688,930.567,286.688,940.567,290.688,936.567,286.688" fill="#181818" style="stroke:#181818;stroke-width:1;stroke-linejoin:miter;stroke-miterlimit:10;"/><line x1="934.567" y1="286.688" x2="1269.85" y2="286.688" style="stroke:#181818;stroke-width:1;stroke-dasharray:2,2;"/><text x="946.567" y="281.622" fill="#000" font-size="13" textLength="150.255">sesion : SesionDeClase</text><polygon points="613.667,311.82,603.667,315.82,613.667,319.82,609.667,315.82" fill="#181818" style="stroke:#181818;stroke-width:1;stroke-linejoin:miter;stroke-miterlimit:10;"/><line x1="607.667" y1="315.82" x2="918.567" y2="315.82" style="stroke:#181818;stroke-width:1;stroke-dasharray:2,2;"/><text x="619.667" y="310.754" fill="#000" font-size="13" textLength="150.255">sesion : SesionDeClase</text><polygon points="298.902,340.953,288.902,344.953,298.902,348.953,294.902,344.953" fill="#181818" style="stroke:#181818;stroke-width:1;stroke-linejoin:miter;stroke-miterlimit:10;"/><line x1="292.902" y1="344.953" x2="591.667" y2="344.953" style="stroke:#181818;stroke-width:1;stroke-dasharray:2,2;"/><text x="304.902" y="339.887" fill="#000" font-size="13" textLength="117.99">200 OK { sesion }</text><polygon points="748.475,370.086,758.475,374.086,748.475,378.086,752.475,374.086" fill="#181818" style="stroke:#181818;stroke-width:1;stroke-linejoin:miter;stroke-miterlimit:10;"/><line x1="287.902" y1="374.086" x2="754.475" y2="374.086" style="stroke:#181818;stroke-width:1;"/><text x="294.902" y="369.02" fill="#000" font-size="13" textLength="247.647">GET /api/attendance/session/:sesionId</text><polygon points="1057.943,399.219,1067.943,403.219,1057.943,407.219,1061.943,403.219" fill="#181818" style="stroke:#181818;stroke-width:1;stroke-linejoin:miter;stroke-miterlimit:10;"/><line x1="770.475" y1="403.219" x2="1063.943" y2="403.219" style="stroke:#181818;stroke-width:1;"/><text x="777.475" y="398.153" fill="#000" font-size="13" textLength="226.065">getAttendanceBySession(sesionId)</text><polygon points="1258.85,443.484,1268.85,447.484,1258.85,451.484,1262.85,447.484" fill="#181818" style="stroke:#181818;stroke-width:1;stroke-linejoin:miter;stroke-miterlimit:10;"/><line x1="1079.943" y1="447.484" x2="1264.85" y2="447.484" style="stroke:#181818;stroke-width:1;"/><text x="1086.943" y="427.286" fill="#000" font-size="13" textLength="171.907">SELECT * FROM Asistencia</text><text x="1086.943" y="442.418" fill="#000" font-size="13" textLength="131.714">WHERE sesionId = ?</text><polygon points="1090.943,472.617,1080.943,476.617,1090.943,480.617,1086.943,476.617" fill="#181818" style="stroke:#181818;stroke-width:1;stroke-linejoin:miter;stroke-miterlimit:10;"/><line x1="1084.943" y1="476.617" x2="1269.85" y2="476.617" style="stroke:#181818;stroke-width:1;stroke-dasharray:2,2;"/><text x="1096.943" y="471.551" fill="#000" font-size="13" textLength="160.856">asistencias : Asistencia[]</text><polygon points="781.475,501.75,771.475,505.75,781.475,509.75,777.475,505.75" fill="#181818" style="stroke:#181818;stroke-width:1;stroke-linejoin:miter;stroke-miterlimit:10;"/><line x1="775.475" y1="505.75" x2="1068.943" y2="505.75" style="stroke:#181818;stroke-width:1;stroke-dasharray:2,2;"/><text x="787.475" y="500.684" fill="#000" font-size="13" textLength="160.856">asistencias : Asistencia[]</text><polygon points="298.902,530.883,288.902,534.883,298.902,538.883,294.902,534.883" fill="#181818" style="stroke:#181818;stroke-width:1;stroke-linejoin:miter;stroke-miterlimit:10;"/><line x1="292.902" y1="534.883" x2="759.475" y2="534.883" style="stroke:#181818;stroke-width:1;stroke-dasharray:2,2;"/><text x="304.902" y="529.817" fill="#000" font-size="13" textLength="148.599">200 OK { asistencias }</text><polygon points="52.96,575.148,42.96,579.148,52.96,583.148,48.96,579.148" fill="#181818" style="stroke:#181818;stroke-width:1;stroke-linejoin:miter;stroke-miterlimit:10;"/><line x1="46.96" y1="579.148" x2="276.902" y2="579.148" style="stroke:#181818;stroke-width:1;stroke-dasharray:2,2;"/><text x="58.96" y="558.95" fill="#000" font-size="13" textLength="211.942">muestra resumen de asistencias</text><text x="58.96" y="574.083" fill="#000" font-size="13" textLength="139.204">y hora de finalización</text><polygon points="265.902,604.281,275.902,608.281,265.902,612.281,269.902,608.281" fill="#181818" style="stroke:#181818;stroke-width:1;stroke-linejoin:miter;stroke-miterlimit:10;"/><line x1="41.96" y1="608.281" x2="271.902" y2="608.281" style="stroke:#181818;stroke-width:1;"/><text x="48.96" y="603.215" fill="#000" font-size="13" textLength="164.944">confirma cierre de sesión</text><polygon points="580.667,633.414,590.667,637.414,580.667,641.414,584.667,637.414" fill="#181818" style="stroke:#181818;stroke-width:1;stroke-linejoin:miter;stroke-miterlimit:10;"/><line x1="287.902" y1="637.414" x2="586.667" y2="637.414" style="stroke:#181818;stroke-width:1;"/><text x="294.902" y="632.348" fill="#000" font-size="13" textLength="285.765">PUT /api/academic/sessions/:sesionId/cerrar</text><polygon points="907.567,662.547,917.567,666.547,907.567,670.547,911.567,666.547" fill="#181818" style="stroke:#181818;stroke-width:1;stroke-linejoin:miter;stroke-miterlimit:10;"/><line x1="602.667" y1="666.547" x2="913.567" y2="666.547" style="stroke:#181818;stroke-width:1;"/><text x="609.667" y="661.481" fill="#000" font-size="13" textLength="146.663">closeSession(sesionId)</text><polygon points="1258.85,721.945,1268.85,725.945,1258.85,729.945,1262.85,725.945" fill="#181818" style="stroke:#181818;stroke-width:1;stroke-linejoin:miter;stroke-miterlimit:10;"/><line x1="929.567" y1="725.945" x2="1264.85" y2="725.945" style="stroke:#181818;stroke-width:1;"/><text x="936.567" y="690.614" fill="#000" font-size="13" textLength="152.807">UPDATE SesionDeClase</text><text x="936.567" y="705.747" fill="#000" font-size="13" textLength="153.772">SET estado='CERRADA'</text><text x="936.567" y="720.879" fill="#000" font-size="13" textLength="81.878">WHERE id=?</text><polygon points="940.567,751.078,930.567,755.078,940.567,759.078,936.567,755.078" fill="#181818" style="stroke:#181818;stroke-width:1;stroke-linejoin:miter;stroke-miterlimit:10;"/><line x1="934.567" y1="755.078" x2="1269.85" y2="755.078" style="stroke:#181818;stroke-width:1;stroke-dasharray:2,2;"/><text x="946.567" y="750.012" fill="#000" font-size="13" textLength="202.205">sesionCerrada : SesionDeClase</text><polygon points="613.667,780.211,603.667,784.211,613.667,788.211,609.667,784.211" fill="#181818" style="stroke:#181818;stroke-width:1;stroke-linejoin:miter;stroke-miterlimit:10;"/><line x1="607.667" y1="784.211" x2="918.567" y2="784.211" style="stroke:#181818;stroke-width:1;stroke-dasharray:2,2;"/><text x="619.667" y="779.145" fill="#000" font-size="13" textLength="202.205">sesionCerrada : SesionDeClase</text><polygon points="298.902,809.344,288.902,813.344,298.902,817.344,294.902,813.344" fill="#181818" style="stroke:#181818;stroke-width:1;stroke-linejoin:miter;stroke-miterlimit:10;"/><line x1="292.902" y1="813.344" x2="591.667" y2="813.344" style="stroke:#181818;stroke-width:1;stroke-dasharray:2,2;"/><text x="304.902" y="808.278" fill="#000" font-size="13" textLength="169.939">200 OK { sesionCerrada }</text><polygon points="52.96,838.477,42.96,842.477,52.96,846.477,48.96,842.477" fill="#181818" style="stroke:#181818;stroke-width:1;stroke-linejoin:miter;stroke-miterlimit:10;"/><line x1="46.96" y1="842.477" x2="276.902" y2="842.477" style="stroke:#181818;stroke-width:1;stroke-dasharray:2,2;"/><text x="58.96" y="837.411" fill="#000" font-size="13" textLength="195.628">sesión cerrada correctamente</text><?plantuml-src hPNTRjCm5CVl_HH7lTaAgZh1NQM2sYO3nD1Aqy45vUBWkCLIQbUsEp6cFHMFm8lXVBZvShPEz2PAZkFVEVcVaxyDDmc3WED6uHOXPX0nkcU2SeG1p9XIg6n8yxz_HBewIr0pEF-oP_0QNaBuQwUOrlPkhhZUOfyGf4OgwCsLN3CjLGzGWtiWErI6Kxv3OQ1tgQGmJCGhaVFwsRikMdztGZ5cMqvdTb79964vk1rkR3Cf2WLbpOsU1N_6YAbRJbajNH7hobNRqeoI60t-I5NiJTEh5JL08xLLOIwrsIWMVRxAfGYcX3ZfOF3c80sCGCl49ZO8D6-HBbfqdjv8yI7kfutWjsXOgIWv02oiBPt5lWkNCCGT7sAnEhIy5AY78qSkmHxrYGTRILPeO3Djc8bojA_afj2a2R3CO6enKNWLpfRm0YuNrv-oGPKYODcKhiJNz-4Y11x36DwMRAkgtJhmLfMNadAh91ApwkvsCLroFeth_D2gVlNMlxguWEkFSE_e3pvUjIMrhdlcljRtmxhhlBVnlh-7UDcrdBNsb-7ftMEZqFg1I1le7uU9vjfaNkPcmV4x9y9JAXuesZwLp6_VMtFHhgjRykEmZtxz4JDIpVBW1_j7nV8ErZE2xPvfen2isU-tB3i9AkILk8EVKcN7nveBJFXlfAaTTTeNbMBDbJrmABV-bPbWuM17cDJyvccJ6kQ-U1gleedKx1HkTJCF9ikmQLEH_Vcil1ZByTaiN2mcmUIiDA_niwmhEx5ZFB637K7zVoDpIPxXP_KXTMSWBK1Ksj6Y1kt0cbgj3l0F?></g></svg>