<svg xmlns="http://www.w3.org/2000/svg" xmlns:xlink="http://www.w3.org/1999/xlink" version="1.1" data-diagram-type="SEQUENCE" style="width:1533px;height:820px;background:#FFFFFF;" width="1533px" height="820px" viewBox="0 0 1533 820" zoomAndPan="magnify" preserveAspectRatio="none" contentStyleType="text/css"><?plantuml 1.2026.7beta8?><defs/><g font-family="sans-serif" lengthAdjust="spacing"><g class="title" data-source-line="1"><text x="438.833" y="27.995" fill="#000" font-size="14" textLength="654.22" font-weight="700">Diagrama de Secuencia - Registrar Toma de Asistencia (Vue 3 + Express + Prisma)</text></g><g><title>Profesor</title><rect x="38.46" y="125.891" width="8" height="605.188" fill="#000" fill-opacity="0"/><line x1="41.96" y1="125.891" x2="41.96" y2="731.078" style="stroke:#181818;stroke-width:0.5;stroke-dasharray:5,5;"/></g><g><title>Frontend</title><rect x="393.876" y="125.891" width="8" height="605.188" fill="#000" fill-opacity="0"/><line x1="397.376" y1="125.891" x2="397.376" y2="731.078" style="stroke:#181818;stroke-width:0.5;stroke-dasharray:5,5;"/></g><g><title></title><rect x="392.376" y="155.023" width="10" height="558.055" fill="#FFF" style="stroke:#181818;stroke-width:1;"/></g><g><title>AcademicController</title><rect x="725.875" y="125.891" width="8" height="605.188" fill="#000" fill-opacity="0"/><line x1="729.375" y1="125.891" x2="729.375" y2="731.078" style="stroke:#181818;stroke-width:0.5;stroke-dasharray:5,5;"/></g><g><title></title><rect x="724.375" y="184.156" width="10" height="206.195" fill="#FFF" style="stroke:#181818;stroke-width:1;"/></g><g><title>AttendanceController</title><rect x="893.683" y="125.891" width="8" height="605.188" fill="#000" fill-opacity="0"/><line x1="897.183" y1="125.891" x2="897.183" y2="731.078" style="stroke:#181818;stroke-width:0.5;stroke-dasharray:5,5;"/></g><g><title></title><rect x="892.183" y="508.016" width="10" height="175.93" fill="#FFF" style="stroke:#181818;stroke-width:1;"/></g><g><title>AcademicService</title><rect x="1052.774" y="125.891" width="8" height="605.188" fill="#000" fill-opacity="0"/><line x1="1056.274" y1="125.891" x2="1056.274" y2="731.078" style="stroke:#181818;stroke-width:0.5;stroke-dasharray:5,5;"/></g><g><title></title><rect x="1051.274" y="213.289" width="10" height="147.93" fill="#FFF" style="stroke:#181818;stroke-width:1;"/></g><g><title>AttendanceService</title><rect x="1238.218" y="125.891" width="8" height="605.188" fill="#000" fill-opacity="0"/><line x1="1241.718" y1="125.891" x2="1241.718" y2="731.078" style="stroke:#181818;stroke-width:0.5;stroke-dasharray:5,5;"/></g><g><title></title><rect x="1236.718" y="537.148" width="10" height="117.664" fill="#FFF" style="stroke:#181818;stroke-width:1;"/></g><g><title>Base de Datos</title><rect x="1465.786" y="125.891" width="8" height="605.188" fill="#000" fill-opacity="0"/><line x1="1469.286" y1="125.891" x2="1469.286" y2="731.078" style="stroke:#181818;stroke-width:0.5;stroke-dasharray:5,5;"/></g><g><title></title><rect x="1464.286" y="302.953" width="10" height="29.133" fill="#FFF" style="stroke:#181818;stroke-width:1;"/></g><g><title></title><rect x="1464.286" y="596.547" width="10" height="29.133" fill="#FFF" style="stroke:#181818;stroke-width:1;"/></g><text x="10" y="122.589" fill="#000" font-size="14" textLength="57.921">Profesor</text><ellipse cx="41.96" cy="58.094" rx="8" ry="8" fill="#E2E2F0" style="stroke:#181818;stroke-width:0.5;"/><path d="M41.96,66.094 L41.96,93.094 M28.96,74.094 L54.96,74.094 M41.96,93.094 L28.96,108.094 M41.96,93.094 L54.96,108.094" style="stroke:#181818;stroke-width:0.5;" fill="none"/><rect x="358.821" y="78.297" width="77.109" height="46.594" fill="#E2E2F0" style="stroke:#181818;stroke-width:0.5;" rx="2.5" ry="2.5"/><text x="365.821" y="98.292" fill="#000" font-size="14" textLength="63.109">Frontend</text><text x="371.704" y="114.589" fill="#000" font-size="14" textLength="51.345">(Vue 3)</text><rect x="653.5" y="94.594" width="151.751" height="30.297" fill="#E2E2F0" style="stroke:#181818;stroke-width:0.5;" rx="2.5" ry="2.5"/><text x="660.5" y="114.589" fill="#000" font-size="14" textLength="137.751">AcademicController</text><rect x="815.25" y="94.594" width="163.864" height="30.297" fill="#E2E2F0" style="stroke:#181818;stroke-width:0.5;" rx="2.5" ry="2.5"/><text x="822.25" y="114.589" fill="#000" font-size="14" textLength="149.864">AttendanceController</text><rect x="989.115" y="94.594" width="134.319" height="30.297" fill="#E2E2F0" style="stroke:#181818;stroke-width:0.5;" rx="2.5" ry="2.5"/><text x="996.115" y="114.589" fill="#000" font-size="14" textLength="120.319">AcademicService</text><rect x="1168.502" y="94.594" width="146.433" height="30.297" fill="#E2E2F0" style="stroke:#181818;stroke-width:0.5;" rx="2.5" ry="2.5"/><text x="1175.502" y="114.589" fill="#000" font-size="14" textLength="132.433">AttendanceService</text><text x="1415.686" y="106.292" fill="#000" font-size="14" textLength="101.199">Base de Datos</text><text x="1420.447" y="122.589" fill="#000" font-size="14" textLength="91.677">(PostgreSQL)</text><path d="M1451.286,57.297 C1451.286,47.297 1469.286,47.297 1469.286,47.297 C1469.286,47.297 1487.286,47.297 1487.286,57.297 L1487.286,83.297 C1487.286,93.297 1469.286,93.297 1469.286,93.297 C1469.286,93.297 1451.286,93.297 1451.286,83.297 L1451.286,57.297" style="stroke:#181818;stroke-width:0.5;" fill="#E2E2F0"/><path d="M1451.286,57.297 C1451.286,67.297 1469.286,67.297 1469.286,67.297 C1469.286,67.297 1487.286,67.297 1487.286,57.297" style="stroke:#181818;stroke-width:0.5;" fill="none"/><text x="10" y="744.073" fill="#000" font-size="14" textLength="57.921">Profesor</text><ellipse cx="41.96" cy="755.875" rx="8" ry="8" fill="#E2E2F0" style="stroke:#181818;stroke-width:0.5;"/><path d="M41.96,763.875 L41.96,790.875 M28.96,771.875 L54.96,771.875 M41.96,790.875 L28.96,805.875 M41.96,790.875 L54.96,805.875" style="stroke:#181818;stroke-width:0.5;" fill="none"/><rect x="358.821" y="731.078" width="77.109" height="46.594" fill="#E2E2F0" style="stroke:#181818;stroke-width:0.5;" rx="2.5" ry="2.5"/><text x="365.821" y="751.073" fill="#000" font-size="14" textLength="63.109">Frontend</text><text x="371.704" y="767.37" fill="#000" font-size="14" textLength="51.345">(Vue 3)</text><rect x="653.5" y="731.078" width="151.751" height="30.297" fill="#E2E2F0" style="stroke:#181818;stroke-width:0.5;" rx="2.5" ry="2.5"/><text x="660.5" y="751.073" fill="#000" font-size="14" textLength="137.751">AcademicController</text><rect x="815.25" y="731.078" width="163.864" height="30.297" fill="#E2E2F0" style="stroke:#181818;stroke-width:0.5;" rx="2.5" ry="2.5"/><text x="822.25" y="751.073" fill="#000" font-size="14" textLength="149.864">AttendanceController</text><rect x="989.115" y="731.078" width="134.319" height="30.297" fill="#E2E2F0" style="stroke:#181818;stroke-width:0.5;" rx="2.5" ry="2.5"/><text x="996.115" y="751.073" fill="#000" font-size="14" textLength="120.319">AcademicService</text><rect x="1168.502" y="731.078" width="146.433" height="30.297" fill="#E2E2F0" style="stroke:#181818;stroke-width:0.5;" rx="2.5" ry="2.5"/><text x="1175.502" y="751.073" fill="#000" font-size="14" textLength="132.433">AttendanceService</text><text x="1415.686" y="744.073" fill="#000" font-size="14" textLength="101.199">Base de Datos</text><text x="1420.447" y="760.37" fill="#000" font-size="14" textLength="91.677">(PostgreSQL)</text><path d="M1451.286,773.672 C1451.286,763.672 1469.286,763.672 1469.286,763.672 C1469.286,763.672 1487.286,763.672 1487.286,773.672 L1487.286,799.672 C1487.286,809.672 1469.286,809.672 1469.286,809.672 C1469.286,809.672 1451.286,809.672 1451.286,799.672 L1451.286,773.672" style="stroke:#181818;stroke-width:0.5;" fill="#E2E2F0"/><path d="M1451.286,773.672 C1451.286,783.672 1469.286,783.672 1469.286,783.672 C1469.286,783.672 1487.286,783.672 1487.286,773.672" style="stroke:#181818;stroke-width:0.5;" fill="none"/><polygon points="380.376,151.023,390.376,155.023,380.376,159.023,384.376,155.023" fill="#181818" style="stroke:#181818;stroke-width:1;stroke-linejoin:miter;stroke-miterlimit:10;"/><line x1="41.96" y1="155.023" x2="386.376" y2="155.023" style="stroke:#181818;stroke-width:1;"/><text x="48.96" y="149.958" fill="#000" font-size="13" textLength="304.008">accede a registrar asistencia en sesión abierta</text><polygon points="712.375,180.156,722.375,184.156,712.375,188.156,716.375,184.156" fill="#181818" style="stroke:#181818;stroke-width:1;stroke-linejoin:miter;stroke-miterlimit:10;"/><line x1="402.376" y1="184.156" x2="718.375" y2="184.156" style="stroke:#181818;stroke-width:1;"/><text x="409.376" y="179.09" fill="#000" font-size="13" textLength="302.999">GET /api/academic/sessions/:sesionId/alumnos</text><polygon points="1039.274,209.289,1049.274,213.289,1039.274,217.289,1043.274,213.289" fill="#181818" style="stroke:#181818;stroke-width:1;stroke-linejoin:miter;stroke-miterlimit:10;"/><line x1="734.375" y1="213.289" x2="1045.274" y2="213.289" style="stroke:#181818;stroke-width:1;"/><text x="741.375" y="208.223" fill="#000" font-size="13" textLength="190.899">getSessionAlumnos(sesionId)</text><polygon points="1452.286,298.953,1462.286,302.953,1452.286,306.953,1456.286,302.953" fill="#181818" style="stroke:#181818;stroke-width:1;stroke-linejoin:miter;stroke-miterlimit:10;"/><line x1="1061.274" y1="302.953" x2="1458.286" y2="302.953" style="stroke:#181818;stroke-width:1;"/><text x="1068.274" y="237.356" fill="#000" font-size="13" textLength="155.397">SELECT * FROM Alumno</text><text x="1068.274" y="252.489" fill="#000" font-size="13" textLength="90.981">WHERE id IN (</text><text x="1076.539" y="267.622" fill="#000" font-size="13" textLength="302.434">SELECT alumnoId FROM _AlumnoToAsignatura</text><text x="1076.539" y="282.754" fill="#000" font-size="13" textLength="159.821">WHERE asignaturaId = ?</text><text x="1068.274" y="297.887" fill="#000" font-size="13">)</text><polygon points="1072.274,328.086,1062.274,332.086,1072.274,336.086,1068.274,332.086" fill="#181818" style="stroke:#181818;stroke-width:1;stroke-linejoin:miter;stroke-miterlimit:10;"/><line x1="1066.274" y1="332.086" x2="1463.286" y2="332.086" style="stroke:#181818;stroke-width:1;stroke-dasharray:2,2;"/><text x="1078.274" y="327.02" fill="#000" font-size="13" textLength="127.835">alumnos : Alumno[]</text><polygon points="745.375,357.219,735.375,361.219,745.375,365.219,741.375,361.219" fill="#181818" style="stroke:#181818;stroke-width:1;stroke-linejoin:miter;stroke-miterlimit:10;"/><line x1="739.375" y1="361.219" x2="1050.274" y2="361.219" style="stroke:#181818;stroke-width:1;stroke-dasharray:2,2;"/><text x="751.375" y="356.153" fill="#000" font-size="13" textLength="127.835">alumnos : Alumno[]</text><polygon points="413.376,386.352,403.376,390.352,413.376,394.352,409.376,390.352" fill="#181818" style="stroke:#181818;stroke-width:1;stroke-linejoin:miter;stroke-miterlimit:10;"/><line x1="407.376" y1="390.352" x2="723.375" y2="390.352" style="stroke:#181818;stroke-width:1;stroke-dasharray:2,2;"/><text x="419.376" y="385.286" fill="#000" font-size="13" textLength="132.088">200 OK { alumnos }</text><polygon points="52.96,415.484,42.96,419.484,52.96,423.484,48.96,419.484" fill="#181818" style="stroke:#181818;stroke-width:1;stroke-linejoin:miter;stroke-miterlimit:10;"/><line x1="46.96" y1="419.484" x2="391.376" y2="419.484" style="stroke:#181818;stroke-width:1;stroke-dasharray:2,2;"/><text x="58.96" y="414.418" fill="#000" font-size="13" textLength="270.524">muestra lista de alumnos para pasar lista</text><polygon points="380.376,459.75,390.376,463.75,380.376,467.75,384.376,463.75" fill="#181818" style="stroke:#181818;stroke-width:1;stroke-linejoin:miter;stroke-miterlimit:10;"/><line x1="41.96" y1="463.75" x2="386.376" y2="463.75" style="stroke:#181818;stroke-width:1;"/><text x="48.96" y="443.551" fill="#000" font-size="13" textLength="188.894">marca asistencia por alumno</text><text x="48.96" y="458.684" fill="#000" font-size="13" textLength="326.416">(alumnoId, presente: PRESENTE/AUSENTE/TARDE)</text><polygon points="880.183,504.016,890.183,508.016,880.183,512.016,884.183,508.016" fill="#181818" style="stroke:#181818;stroke-width:1;stroke-linejoin:miter;stroke-miterlimit:10;"/><line x1="402.376" y1="508.016" x2="886.183" y2="508.016" style="stroke:#181818;stroke-width:1;"/><text x="409.376" y="487.817" fill="#000" font-size="13" textLength="187.408">POST /api/attendance/record</text><text x="409.376" y="502.95" fill="#000" font-size="13" textLength="213.23">{ sesionId, alumnoId, presente }</text><polygon points="1224.718,533.148,1234.718,537.148,1224.718,541.148,1228.718,537.148" fill="#181818" style="stroke:#181818;stroke-width:1;stroke-linejoin:miter;stroke-miterlimit:10;"/><line x1="902.183" y1="537.148" x2="1230.718" y2="537.148" style="stroke:#181818;stroke-width:1;"/><text x="909.183" y="532.083" fill="#000" font-size="13" textLength="315.536">recordAttendance(sesionId, alumnoId, presente)</text><polygon points="1452.286,592.547,1462.286,596.547,1452.286,600.547,1456.286,596.547" fill="#181818" style="stroke:#181818;stroke-width:1;stroke-linejoin:miter;stroke-miterlimit:10;"/><line x1="1246.718" y1="596.547" x2="1458.286" y2="596.547" style="stroke:#181818;stroke-width:1;"/><text x="1253.718" y="561.215" fill="#000" font-size="13" textLength="153.105">INSERT INTO Asistencia</text><text x="1253.718" y="576.348" fill="#000" font-size="13" textLength="198.567">(sesionId, alumnoId, presente)</text><text x="1253.718" y="591.481" fill="#000" font-size="13" textLength="169.616">ON CONFLICT DO UPDATE</text><polygon points="1257.718,621.68,1247.718,625.68,1257.718,629.68,1253.718,625.68" fill="#181818" style="stroke:#181818;stroke-width:1;stroke-linejoin:miter;stroke-miterlimit:10;"/><line x1="1251.718" y1="625.68" x2="1463.286" y2="625.68" style="stroke:#181818;stroke-width:1;stroke-dasharray:2,2;"/><text x="1263.718" y="620.614" fill="#000" font-size="13" textLength="143.939">asistencia : Asistencia</text><polygon points="913.183,650.813,903.183,654.813,913.183,658.813,909.183,654.813" fill="#181818" style="stroke:#181818;stroke-width:1;stroke-linejoin:miter;stroke-miterlimit:10;"/><line x1="907.183" y1="654.813" x2="1235.718" y2="654.813" style="stroke:#181818;stroke-width:1;stroke-dasharray:2,2;"/><text x="919.183" y="649.747" fill="#000" font-size="13" textLength="143.939">asistencia : Asistencia</text><polygon points="413.376,679.945,403.376,683.945,413.376,687.945,409.376,683.945" fill="#181818" style="stroke:#181818;stroke-width:1;stroke-linejoin:miter;stroke-miterlimit:10;"/><line x1="407.376" y1="683.945" x2="891.183" y2="683.945" style="stroke:#181818;stroke-width:1;stroke-dasharray:2,2;"/><text x="419.376" y="678.879" fill="#000" font-size="13" textLength="141.826">200 OK { asistencia }</text><polygon points="52.96,709.078,42.96,713.078,52.96,717.078,48.96,713.078" fill="#181818" style="stroke:#181818;stroke-width:1;stroke-linejoin:miter;stroke-miterlimit:10;"/><line x1="46.96" y1="713.078" x2="391.376" y2="713.078" style="stroke:#181818;stroke-width:1;stroke-dasharray:2,2;"/><text x="58.96" y="708.012" fill="#000" font-size="13" textLength="105.841">lista actualizada</text><?plantuml-src ZLJRRjD047ttLupob40hL_0M2L1QEn1HuX2xy40Gcjf3j5Ao6-rkAaJLh-edy6ECk_4byIRAYoyxC-VidZcpLjWLGIHmgN6DK12ab6z9vWBX4kQq5CPgr90f5nqPNd3X_hSjmLju3V6VZIPZ-6kcXLdZ80Wmjqf3RwRLRp9Azm0DL3_11hKLkTYWjD0RQoKPi5X8XpTuoQrMztD7EHQq5laD1xLQhSW1TvSFocm9XJAdmq9FmC-OaduGEUtHxTQESUsL7Au61LgyHqFGkowVh6o4LXbMOQQCNMfAlzuwAQBh8AYaWyltjJGm1Cnpuae4NVS9c_wG14D6_7kMWFU2jCMoBU81BJNw1ZKSGtU5P9AFSGOXRaI8ksZ8g4OeQS9XYQ_af0XnjLrBPHe2Jqy23toBTASCCox9fevYv63x5S-WIr096XpYC7HqpMXfV1lVPF0AnlFa2pZ4XVp-APx780gOJA6_a52bkODC2fVzowLdYcs_b6Yt6ijSLupr6gU_WmyBsTeUTutPBxtdsud5Nmx-ny-We7Pbzop7cdCQwgX6xGxiM-hDrHKad-6nHdxo0RQxsXY8aMgZ3c6zfTAIi693lbmT5IBF2_B3i5jVOaVjlKQTOzlH6qx1NGFxLQSkeBnzY8k6C9l7QJpDud1qvzxPQ1x5WmENUwQUsMP9MXczJWWrvKhptVG8bGKle4lC8ZKI-UwKmCkvjvV67ewpYVHFKGzyp4s_E_3LL4ocQJpF-9KbhJkTPJr9jf3956wIwVXsmhCI9N0tYqPPxBMzvsIjLWvRh1ttTtTzl6rdO9uKvfnHQ2YU_BZdp8ER0oxUuahynM9lYrNHVm00?></g></svg>