<?xml version="1.0" encoding="us-ascii" standalone="no"?><svg xmlns="http://www.w3.org/2000/svg" xmlns:xlink="http://www.w3.org/1999/xlink" contentStyleType="text/css" height="633px" preserveAspectRatio="none" style="width:481px;height:633px;background:#FFFFFF;" version="1.1" viewBox="0 0 481 633" width="481px" zoomAndPan="magnify"><defs/><g><path d="M50,7 L455,7 A12.5,12.5 0 0 1 467.5,19.5 L467.5,34.6094 L37.5,34.6094 L37.5,19.5 A12.5,12.5 0 0 1 50,7 " fill="#F5F5F5" style="stroke:#F5F5F5;stroke-width:1.0;"/><rect fill="none" height="349.6094" rx="12.5" ry="12.5" style="stroke:#808080;stroke-width:0.5;" width="430" x="37.5" y="7"/><line style="stroke:#808080;stroke-width:0.5;" x1="37.5" x2="467.5" y1="34.6094" y2="34.6094"/><text fill="#000000" font-family="sans-serif" font-size="14" lengthAdjust="spacing" textLength="180" x="162.5" y="26.5332">consultarSolicitudDispensa()</text><g id="consultarSolicitud.Paso1"><rect fill="#F5F5F5" height="50" rx="12.5" ry="12.5" style="stroke:#808080;stroke-width:0.5;" width="50" x="49.5" y="153.6094"/><line style="stroke:#808080;stroke-width:0.5;" x1="49.5" x2="99.5" y1="181.2188" y2="181.2188"/><text fill="#000000" font-family="sans-serif" font-size="14" lengthAdjust="spacing" textLength="4" x="72.5" y="173.1426">&#160;</text></g><ellipse cx="74.5" cy="55.6094" fill="#222222" rx="10" ry="10" style="stroke:#222222;stroke-width:1.0;"/><ellipse cx="74.5" cy="335.6094" fill="none" rx="11" ry="11" style="stroke:#222222;stroke-width:1.0;"/><ellipse cx="74.5" cy="335.6094" fill="#222222" rx="6" ry="6" style="stroke:#222222;stroke-width:1.0;"/><!--link *start*consultarSolicitud to Paso1--><g id="link_*start*consultarSolicitud_Paso1"><path d="M74.5,65.6994 C74.5,84.1694 74.5,120.5894 74.5,147.5794 " fill="none" id="*start*consultarSolicitud-to-Paso1" style="stroke:#008000;stroke-width:1.0;"/><polygon fill="#008000" points="74.5,153.5794,78.5,144.5794,74.5,148.5794,70.5,144.5794,74.5,153.5794" style="stroke:#008000;stroke-width:1.0;"/><path d="M79.5,88.6094 L79.5,130.6094 L458.5,130.6094 L458.5,98.6094 L448.5,88.6094 L79.5,88.6094 " fill="#FFFFE0" style="stroke:#808080;stroke-width:0.5;"/><path d="M448.5,88.6094 L448.5,98.6094 L458.5,98.6094 L448.5,88.6094 " fill="#FFFFE0" style="stroke:#808080;stroke-width:0.5;"/><text fill="#000000" font-family="sans-serif" font-size="13" font-weight="bold" lengthAdjust="spacing" textLength="113" x="85.5" y="107.1045">Director de Grado</text><text fill="#000000" font-family="sans-serif" font-size="13" lengthAdjust="spacing" textLength="241" x="202.5" y="107.1045">solicita consultar una dispensa espec&#237;fica</text><text fill="#000000" font-family="sans-serif" font-size="13" font-weight="bold" lengthAdjust="spacing" textLength="51" x="85.5" y="123.4561">Sistema</text><text fill="#000000" font-family="sans-serif" font-size="13" lengthAdjust="spacing" textLength="271" x="140.5" y="123.4561">muestra la informaci&#243;n detallada de la solicitud</text></g><!--link Paso1 to *end*consultarSolicitud--><g id="link_Paso1_*end*consultarSolicitud"><path d="M74.5,203.8294 C74.5,238.3994 74.5,294.3794 74.5,318.5594 " fill="none" id="Paso1-to-*end*consultarSolicitud" style="stroke:#008000;stroke-width:1.0;"/><polygon fill="#008000" points="74.5,324.5594,78.5,315.5594,74.5,319.5594,70.5,315.5594,74.5,324.5594" style="stroke:#008000;stroke-width:1.0;"/><path d="M79.5,226.6094 L79.5,301.6094 L404.5,301.6094 L404.5,236.6094 L394.5,226.6094 L79.5,226.6094 " fill="#FFFFE0" style="stroke:#808080;stroke-width:0.5;"/><path d="M394.5,226.6094 L394.5,236.6094 L404.5,236.6094 L394.5,226.6094 " fill="#FFFFE0" style="stroke:#808080;stroke-width:0.5;"/><text fill="#000000" font-family="sans-serif" font-size="13" font-weight="bold" lengthAdjust="spacing" textLength="113" x="85.5" y="245.1045">Director de Grado</text><text fill="#000000" font-family="sans-serif" font-size="13" lengthAdjust="spacing" textLength="187" x="202.5" y="245.1045">revisa los detalles de la solicitud</text><text fill="#000000" font-family="sans-serif" font-size="13" font-weight="bold" lengthAdjust="spacing" textLength="51" x="85.5" y="261.4561">Sistema</text><text fill="#000000" font-family="sans-serif" font-size="13" lengthAdjust="spacing" textLength="204" x="140.5" y="261.4561">mantiene la informaci&#243;n en pantalla</text><text fill="#000000" font-family="sans-serif" font-size="13" lengthAdjust="spacing" textLength="205" x="85.5" y="277.8076">&#8226; Permite solicitar editar la solicitud</text><text fill="#000000" font-family="sans-serif" font-size="13" lengthAdjust="spacing" textLength="197" x="85.5" y="294.1592">&#8226; Permite cerrar y volver al m&#243;dulo</text></g><g id="SOLICITUD_DISPENSA_ABIERTA"><rect fill="#F5F5F5" height="50" rx="12.5" ry="12.5" style="stroke:#808080;stroke-width:0.5;" width="233" x="7" y="577"/><line style="stroke:#808080;stroke-width:0.5;" x1="7" x2="240" y1="604.6094" y2="604.6094"/><text fill="#000000" font-family="sans-serif" font-size="14" lengthAdjust="spacing" textLength="213" x="17" y="596.5332">SOLICITUD_DISPENSA_ABIERTA</text></g><g id="DISPENSAS_ABIERTO"><rect fill="#F5F5F5" height="50" rx="12.5" ry="12.5" style="stroke:#808080;stroke-width:0.5;" width="164" x="300.5" y="577"/><line style="stroke:#808080;stroke-width:0.5;" x1="300.5" x2="464.5" y1="604.6094" y2="604.6094"/><text fill="#000000" font-family="sans-serif" font-size="14" lengthAdjust="spacing" textLength="144" x="310.5" y="596.5332">DISPENSAS_ABIERTO</text></g><!--link consultarSolicitud to SOLICITUD_DISPENSA_ABIERTA--><g id="link_consultarSolicitud_SOLICITUD_DISPENSA_ABIERTA"><path d="M173.97,357.09 C151.27,407.39 132.5,449 132.5,449 C132.5,449 127.8136,528.0704 125.2836,570.9304 " fill="none" id="consultarSolicitud-to-SOLICITUD_DISPENSA_ABIERTA" style="stroke:#008000;stroke-width:1.0;"/><polygon fill="#008000" points="124.93,576.92,129.4534,568.1713,125.2246,571.9287,121.4673,567.6999,124.93,576.92" style="stroke:#008000;stroke-width:1.0;"/><path d="M137.5,454 L137.5,480 L302.5,480 L302.5,464 L292.5,454 L137.5,454 " fill="#FFFFE0" style="stroke:#808080;stroke-width:0.5;"/><path d="M292.5,454 L292.5,464 L302.5,464 L292.5,454 " fill="#FFFFE0" style="stroke:#808080;stroke-width:0.5;"/><text fill="#000000" font-family="sans-serif" font-size="13" lengthAdjust="spacing" textLength="144" x="143.5" y="472.4951">editarSolicitudDispensa()</text></g><!--link consultarSolicitud to DISPENSAS_ABIERTO--><g id="link_consultarSolicitud_DISPENSAS_ABIERTO"><path d="M306.69,357.24 C332.96,441.7 359.8571,528.211 373.1671,570.981 " fill="none" id="consultarSolicitud-to-DISPENSAS_ABIERTO" style="stroke:#008000;stroke-width:1.0;"/><polygon fill="#008000" points="374.95,576.71,376.095,566.9279,373.4643,571.9358,368.4564,569.3051,374.95,576.71" style="stroke:#008000;stroke-width:1.0;"/><path d="M351.5,454 L351.5,480 L466.5,480 L466.5,464 L456.5,454 L351.5,454 " fill="#FFFFE0" style="stroke:#808080;stroke-width:0.5;"/><path d="M456.5,454 L456.5,464 L466.5,464 L456.5,454 " fill="#FFFFE0" style="stroke:#808080;stroke-width:0.5;"/><text fill="#000000" font-family="sans-serif" font-size="13" lengthAdjust="spacing" textLength="94" x="357.5" y="472.4951">abrirDispensas()</text></g><!--SRC=[bLF1Qjj04BthAuRaaXPCaqDx2WOdJeEX9APAJo64iNRYBbxjYDcLYoY5VallFUKJ_2VzagvMKgn4Qakbmw9vR-VDcncvZRO52kPWMP6Z0juT9-ufA6WtWw3HbdnL41HiglgZXrsnfpFCDclXqgfpDYo1l_xiApA6lxnaiYYIXhKMh7fmwd6OwV3zs_eTq5wcILmTXeEChIkDHqdPw4pxKisrAyWwF7fr0EXWI82lIGBXQJD0f2tHyKaJltrz1vFRmxKGsRl9j8Lgn0P3mBPkpoO604vNqxaModmeJ15S2Ye-VREQWclaS5y0b1P1jTK1XJFR_NpG6UvJfTfvoZ4co4joNX0CWhOFB3bcUlTeWuf7Or1XhHT0r_cAQSYgM6PZ9PR-p4mmzzzMXBOwL6pOjUBaHhM75j1wJPO67iX24R3QHtlpr_SVi2J9TIYhQvq0gNYCAFNv6Oa4LWLRDbiIG0Fvxb6LXf-tvDlJrgJN7nRdYvjFy_lv8brUNAMp-zdPukBZpImkmv_XBa4NJrlWEjuRH9DaPFtsuvY4WVn5Ayv8wb-hDwcc9IFRdkn7_q_HOQ6ZMhWIBPs2wqly1W00]--></g></svg>