<svg xmlns="http://www.w3.org/2000/svg" xmlns:xlink="http://www.w3.org/1999/xlink" version="1.1" data-diagram-type="STATE" style="width:518px;height:679px;background:#FFFFFF;" width="518px" height="679px" viewBox="0 0 518 679" zoomAndPan="magnify" preserveAspectRatio="none" contentStyleType="text/css"><?plantuml 1.2026.7beta8?><defs/><g font-family="sans-serif" lengthAdjust="spacing"><g class="entity" data-qualified-name="consultarSolicitud" id="ent0001" data-source-line="9"><path d="M24.18,7 L491.18,7 A12.5,12.5 0 0 1 503.68,19.5 L503.68,33.297 L11.68,33.297 L11.68,19.5 A12.5,12.5 0 0 1 24.18,7" fill="#F5F5F5"/><path d="M11.68,33.297 L503.68,33.297 L503.68,383.797 A12.5,12.5 0 0 1 491.18,396.297 L24.18,396.297 A12.5,12.5 0 0 1 11.68,383.797 L11.68,33.297" fill="#F5F5F5"/><rect x="11.68" y="7" width="492" height="389.297" fill="none" style="stroke:#808080;stroke-width:0.5;" rx="12.5" ry="12.5"/><line x1="11.68" y1="33.297" x2="503.68" y2="33.297" style="stroke:#808080;stroke-width:0.5;"/><text x="157.571" y="24.995" fill="#000" font-size="14" textLength="200.218">consultarSolicitudDispensa()</text><g class="entity" data-qualified-name="consultarSolicitud.Paso1" id="ent0002" data-source-line="11"><rect x="23.68" y="195.297" width="50" height="50" fill="#F5F5F5" style="stroke:#808080;stroke-width:0.5;" rx="12.5" ry="12.5"/><line x1="23.68" y1="221.594" x2="73.68" y2="221.594" style="stroke:#808080;stroke-width:0.5;"/><text x="46.455" y="213.292" fill="#000" font-size="14"> </text></g><g class="start_entity" data-qualified-name="consultarSolicitud..start.consultarSolicitud" id="ent0005" data-source-line="13"><ellipse cx="48.68" cy="54.297" rx="10" ry="10" fill="#222" style="stroke:#222;stroke-width:1;"/></g><g class="end_entity" data-qualified-name="consultarSolicitud..end.consultarSolicitud" id="ent0007" data-source-line="22"><ellipse cx="48.68" cy="372.297" rx="11" ry="11" fill="none" style="stroke:#222;stroke-width:1;"/><ellipse cx="48.68" cy="372.297" rx="6" ry="6" fill="#222" style="stroke:#222;stroke-width:1;"/></g><!--link *start*consultarSolicitud to Paso1--><g class="link" data-entity-1="ent0005" data-entity-2="ent0002" id="lnk6" data-source-line="13" data-link-type="dependency"><path d="M48.68,64.587 C48.68,89.457 48.68,153.157 48.68,190.087" style="stroke:#008000;stroke-width:1;" fill="none" id="*start*consultarSolicitud-to-Paso1"/><polygon points="48.68,195.087,52.68,186.087,48.68,190.087,44.68,186.087,48.68,195.087" fill="#008000" style="stroke:#008000;stroke-width:1;stroke-linejoin:miter;stroke-miterlimit:10;"/><path d="M53.68,87.297 L53.68,172.297 L479.68,172.297 L479.68,97.297 L469.68,87.297 L53.68,87.297" style="stroke:#808080;stroke-width:0.5;" fill="#FFFFE0"/><path d="M469.68,87.297 L469.68,97.297 L479.68,97.297 L469.68,87.297" style="stroke:#808080;stroke-width:0.5;" fill="#FFFFE0"/><text x="59.68" y="104.364" fill="#000" font-size="13" textLength="131.003" font-weight="700">Director de Grado</text><text x="194.815" y="104.364" fill="#000" font-size="13" textLength="270.067">solicita consultar una dispensa específica</text><text x="59.68" y="119.497" fill="#000" font-size="13" textLength="58.906" font-weight="700">Sistema</text><text x="122.719" y="119.497" fill="#000" font-size="13" textLength="314.99">muestra la información detallada de la solicitud:</text><text x="59.68" y="134.629" fill="#000" font-size="13" textLength="326.174">• Estado de la Dispensa, Asignatura y Tipo/Motivo</text><text x="59.68" y="149.762" fill="#000" font-size="13" textLength="282.033">• Día, Franja horaria y Asignatura solapada</text><text x="59.68" y="164.895" fill="#000" font-size="13" textLength="184.933">• Justificación / Comentarios</text></g><!--link Paso1 to *end*consultarSolicitud--><g class="link" data-entity-1="ent0002" data-entity-2="ent0007" id="lnk8" data-source-line="22" data-link-type="dependency"><path d="M48.68,245.727 C48.68,279.107 48.68,332.477 48.68,356.017" style="stroke:#008000;stroke-width:1;" fill="none" id="Paso1-to-*end*consultarSolicitud"/><polygon points="48.68,361.017,52.68,352.017,48.68,356.017,44.68,352.017,48.68,361.017" fill="#008000" style="stroke:#008000;stroke-width:1;stroke-linejoin:miter;stroke-miterlimit:10;"/><path d="M53.68,268.297 L53.68,338.297 L420.68,338.297 L420.68,278.297 L410.68,268.297 L53.68,268.297" style="stroke:#808080;stroke-width:0.5;" fill="#FFFFE0"/><path d="M410.68,268.297 L410.68,278.297 L420.68,278.297 L410.68,268.297" style="stroke:#808080;stroke-width:0.5;" fill="#FFFFE0"/><text x="59.68" y="285.364" fill="#000" font-size="13" textLength="131.003" font-weight="700">Director de Grado</text><text x="194.815" y="285.364" fill="#000" font-size="13" textLength="211.821">revisa los detalles de la solicitud</text><text x="59.68" y="300.497" fill="#000" font-size="13" textLength="58.906" font-weight="700">Sistema</text><text x="122.719" y="300.497" fill="#000" font-size="13" textLength="236.177">mantiene la información en pantalla</text><text x="59.68" y="315.629" fill="#000" font-size="13" textLength="234.146">• Permite solicitar editar la solicitud</text><text x="59.68" y="330.762" fill="#000" font-size="13" textLength="230.401">• Permite cerrar y volver al módulo</text></g></g><g class="entity" data-qualified-name="SOLICITUD_DISPENSA_ABIERTA" id="ent0003" data-source-line="31"><rect x="7" y="615.3" width="239.352" height="50" fill="#F5F5F5" style="stroke:#808080;stroke-width:0.5;" rx="12.5" ry="12.5"/><line x1="7" y1="641.597" x2="246.352" y2="641.597" style="stroke:#808080;stroke-width:0.5;"/><text x="17" y="633.295" fill="#000" font-size="14" textLength="219.352">SOLICITUD_DISPENSA_ABIERTA</text></g><g class="entity" data-qualified-name="DISPENSAS_ABIERTO" id="ent0004" data-source-line="32"><rect x="305.99" y="615.3" width="167.362" height="50" fill="#F5F5F5" style="stroke:#808080;stroke-width:0.5;" rx="12.5" ry="12.5"/><line x1="305.99" y1="641.597" x2="473.352" y2="641.597" style="stroke:#808080;stroke-width:0.5;"/><text x="315.99" y="633.295" fill="#000" font-size="14" textLength="147.362">DISPENSAS_ABIERTO</text></g><!--link consultarSolicitud to SOLICITUD_DISPENSA_ABIERTA--><g class="link" data-entity-1="ent0001" data-entity-2="ent0003" id="lnk9" data-source-line="34" data-link-type="dependency"><path d="M164.59,396.74 C140.24,447.5 120.68,488.3 120.68,488.3 C120.68,488.3 120.68,523.3 120.68,523.3 C120.68,523.3 123.402,575.977 125.162,609.987" style="stroke:#008000;stroke-width:1;" fill="none" id="consultarSolicitud-to-SOLICITUD_DISPENSA_ABIERTA"/><polygon points="125.42,614.98,128.95,605.785,125.162,609.987,120.96,606.199,125.42,614.98" fill="#008000" style="stroke:#008000;stroke-width:1;stroke-linejoin:miter;stroke-miterlimit:10;"/><path d="M125.68,493.3 L125.68,518.3 L309.68,518.3 L309.68,503.3 L299.68,493.3 L125.68,493.3" style="stroke:#808080;stroke-width:0.5;" fill="#FFFFE0"/><path d="M299.68,493.3 L299.68,503.3 L309.68,503.3 L299.68,493.3" style="stroke:#808080;stroke-width:0.5;" fill="#FFFFE0"/><text x="131.68" y="510.367" fill="#000" font-size="13" textLength="163.814">editarSolicitudDispensa()</text></g><!--link consultarSolicitud to DISPENSAS_ABIERTO--><g class="link" data-entity-1="ent0001" data-entity-2="ent0004" id="lnk10" data-source-line="39" data-link-type="dependency"><path d="M316.34,396.71 C342.16,482.13 368.053,567.774 380.833,610.054" style="stroke:#00F;stroke-width:1;" fill="none" id="consultarSolicitud-to-DISPENSAS_ABIERTO"/><polygon points="382.28,614.84,383.505,605.068,380.833,610.054,375.847,607.382,382.28,614.84" fill="#00F" style="stroke:#00F;stroke-width:1;stroke-linejoin:miter;stroke-miterlimit:10;"/><path d="M358.68,493.3 L358.68,518.3 L486.68,518.3 L486.68,503.3 L476.68,493.3 L358.68,493.3" style="stroke:#808080;stroke-width:0.5;" fill="#FFFFE0"/><path d="M476.68,493.3 L476.68,503.3 L486.68,503.3 L476.68,493.3" style="stroke:#808080;stroke-width:0.5;" fill="#FFFFE0"/><text x="364.68" y="510.367" fill="#000" font-size="13" textLength="107.06">abrirDispensas()</text></g><?plantuml-src bLFDRjD04BxxAKRj1H1Hu007L4LAanG5GLlXSAggQkATfalMEzRiEYX2I3mBzvxw27aJdeJrNsBY10bRyihpVJlVp3UxRgbjXe8fM5RaA8EthoAt3GhQPITej2M_pWWoDklYfuLTigTpJ9OBuTog4HkMm5yy-3KPmz_scIoAf68j1DSjEFROpNHwyQPuExJzD94hmd2Ii7MvyIWn6vredwknTXbPXy-Udm0ww1BWUnH1UEeCKDAkqV7hAdxpuXPwDwSB8RAtlK45GGdPq16mBVnPbW60i_bWh8KI7ofJ1Ey55P_rvmDmbHxkAe3S8gYwFA2m9fl7UvtWBbMidQSKomHfJiuBWa7GzfubnKHldcnGyMWCAYpq0kYQnjxLUNx__0MJq9tYcj5OyXA6JYyi-ZoaNSDCPzp_n5wlkBLpl7aCn8jmBhuYFB2Ww8BSsXa4CGlwhKqVSkTrqKfLOXz6d98DFMjs9OsigjmBJxJzLDQspGxc_xVJGYiT33NiQc_8xLjpn66qNfEbZiLa8GjOONEhoMkIL8UociaAa2gN0qfjVa8IN0mUhjYiI00Df9idbHl-ovhen_PKnrSVfwFfxCluRZoDhoUNyV1kU3wTV9uDoyDw76uIDF6u1gxAVPre51su7hjnzC90_g5LpaYAgz-QL6N9WTiORViy8ZetELMQtJeFIk5Sj3G2hgNm1m00?></g></svg>