<svg xmlns="http://www.w3.org/2000/svg" xmlns:xlink="http://www.w3.org/1999/xlink" version="1.1" data-diagram-type="STATE" style="width:509px;height:619px;background:#FFFFFF;" width="509px" height="619px" viewBox="0 0 509 619" zoomAndPan="magnify" preserveAspectRatio="none" contentStyleType="text/css"><?plantuml 1.2026.7beta8?><defs/><g font-family="sans-serif" lengthAdjust="spacing"><g class="entity" data-qualified-name="editarSolicitud" id="ent0001" data-source-line="9"><path d="M19.5,7 L481.5,7 A12.5,12.5 0 0 1 494,19.5 L494,33.297 L7,33.297 L7,19.5 A12.5,12.5 0 0 1 19.5,7" fill="#F5F5F5"/><path d="M7,33.297 L494,33.297 L494,323.797 A12.5,12.5 0 0 1 481.5,336.297 L19.5,336.297 A12.5,12.5 0 0 1 7,323.797 L7,33.297" fill="#F5F5F5"/><rect x="7" y="7" width="487" height="329.297" fill="none" style="stroke:#808080;stroke-width:0.5;" rx="12.5" ry="12.5"/><line x1="7" y1="33.297" x2="494" y2="33.297" style="stroke:#808080;stroke-width:0.5;"/><text x="162.292" y="24.995" fill="#000" font-size="14" textLength="176.415">editarSolicitudDispensa()</text><g class="entity" data-qualified-name="editarSolicitud.Paso1" id="ent0002" data-source-line="11"><rect x="19" y="150.297" width="50" height="50" fill="#F5F5F5" style="stroke:#808080;stroke-width:0.5;" rx="12.5" ry="12.5"/><line x1="19" y1="176.594" x2="69" y2="176.594" style="stroke:#808080;stroke-width:0.5;"/><text x="41.775" y="168.292" fill="#000" font-size="14"> </text></g><g class="start_entity" data-qualified-name="editarSolicitud..start.editarSolicitud" id="ent0004" data-source-line="13"><ellipse cx="44" cy="54.297" rx="10" ry="10" fill="#222" style="stroke:#222;stroke-width:1;"/></g><g class="end_entity" data-qualified-name="editarSolicitud..end.editarSolicitud" id="ent0006" data-source-line="19"><ellipse cx="44" cy="312.297" rx="11" ry="11" fill="none" style="stroke:#222;stroke-width:1;"/><ellipse cx="44" cy="312.297" rx="6" ry="6" fill="#222" style="stroke:#222;stroke-width:1;"/></g><!--link *start*editarSolicitud to Paso1--><g class="link" data-entity-1="ent0004" data-entity-2="ent0002" id="lnk5" data-source-line="13" data-link-type="dependency"><path d="M44,64.637 C44,82.827 44,118.537 44,144.907" style="stroke:#008000;stroke-width:1;" fill="none" id="*start*editarSolicitud-to-Paso1"/><polygon points="44,149.907,48,140.907,44,144.907,40,140.907,44,149.907" fill="#008000" style="stroke:#008000;stroke-width:1;stroke-linejoin:miter;stroke-miterlimit:10;"/><path d="M49,87.297 L49,127.297 L417,127.297 L417,97.297 L407,87.297 L49,87.297" style="stroke:#808080;stroke-width:0.5;" fill="#FFFFE0"/><path d="M407,87.297 L407,97.297 L417,97.297 L407,87.297" style="stroke:#808080;stroke-width:0.5;" fill="#FFFFE0"/><text x="55" y="104.364" fill="#000" font-size="13" textLength="131.003" font-weight="700">Director de Grado</text><text x="190.135" y="104.364" fill="#000" font-size="13" textLength="165.883">solicita editar la dispensa</text><text x="55" y="119.497" fill="#000" font-size="13" textLength="58.906" font-weight="700">Sistema</text><text x="118.039" y="119.497" fill="#000" font-size="13" textLength="284.546">habilita el formulario con los datos actuales</text></g><!--link Paso1 to *end*editarSolicitud--><g class="link" data-entity-1="ent0002" data-entity-2="ent0006" id="lnk7" data-source-line="19" data-link-type="dependency"><path d="M44,200.747 C44,230.527 44,274.507 44,295.837" style="stroke:#008000;stroke-width:1;" fill="none" id="Paso1-to-*end*editarSolicitud"/><polygon points="44,300.837,48,291.837,44,295.837,40,291.837,44,300.837" fill="#008000" style="stroke:#008000;stroke-width:1;stroke-linejoin:miter;stroke-miterlimit:10;"/><path d="M49,223.297 L49,278.297 L470,278.297 L470,233.297 L460,223.297 L49,223.297" style="stroke:#808080;stroke-width:0.5;" fill="#FFFFE0"/><path d="M460,223.297 L460,233.297 L470,233.297 L460,223.297" style="stroke:#808080;stroke-width:0.5;" fill="#FFFFE0"/><text x="55" y="240.364" fill="#000" font-size="13" textLength="131.003" font-weight="700">Director de Grado</text><text x="190.135" y="240.364" fill="#000" font-size="13" textLength="188.741">modifica campos permitidos:</text><text x="55" y="255.497" fill="#000" font-size="13" textLength="342.786">• Estado de la Dispensa y Observaciones/Resolución</text><text x="55" y="270.629" fill="#000" font-size="13" textLength="58.906" font-weight="700">Sistema</text><text x="118.039" y="270.629" fill="#000" font-size="13" textLength="337.353">valida, registra los cambios y muestra confirmación</text></g></g><g class="entity" data-qualified-name="DISPENSAS_ABIERTO" id="ent0003" data-source-line="27"><rect x="166.82" y="555.3" width="167.362" height="50" fill="#F5F5F5" style="stroke:#808080;stroke-width:0.5;" rx="12.5" ry="12.5"/><line x1="166.82" y1="581.597" x2="334.182" y2="581.597" style="stroke:#808080;stroke-width:0.5;"/><text x="176.82" y="573.295" fill="#000" font-size="14" textLength="147.362">DISPENSAS_ABIERTO</text></g><!--link editarSolicitud to DISPENSAS_ABIERTO--><g class="link" data-entity-1="ent0001" data-entity-2="ent0003" id="lnk8" data-source-line="29" data-link-type="dependency"><path d="M250.5,336.59 C250.5,419.74 250.5,507.03 250.5,549.92" style="stroke:#00F;stroke-width:1;" fill="none" id="editarSolicitud-to-DISPENSAS_ABIERTO"/><polygon points="250.5,554.92,254.5,545.92,250.5,549.92,246.5,545.92,250.5,554.92" fill="#00F" style="stroke:#00F;stroke-width:1;stroke-linejoin:miter;stroke-miterlimit:10;"/><path d="M255.5,433.3 L255.5,458.3 L383.5,458.3 L383.5,443.3 L373.5,433.3 L255.5,433.3" style="stroke:#808080;stroke-width:0.5;" fill="#FFFFE0"/><path d="M373.5,433.3 L373.5,443.3 L383.5,443.3 L373.5,433.3" style="stroke:#808080;stroke-width:0.5;" fill="#FFFFE0"/><text x="261.5" y="450.367" fill="#000" font-size="13" textLength="107.06">abrirDispensas()</text></g><?plantuml-src bLB1Jjj04BtxAqPmWQeHz40F5Oe4JOgu0CAzeQWQUoTcbFMEDRkcib2bVaj_eP_GF-cNi5ud8Ogvi9RMyfjvC_EUnw_ODQXOWnD3dXhuV9hvBQZeLYFGigFGDGIDsAx_s8dTIA1BB5ULIklCLx6YCRzw31rPAp_tCqKDwP1LANOxuJpWkDBXjxF-6QNjbyby3yC16GwekLWkERHcnhuXv_7e-03GmruKdhCCubbp8UNSePTF0_xmOG6JXyDAYTnYCXr2a48kQW5nlJEh102S5zCPAvKXpcG8hXIDd9yKK_13Frot1ujWrdEzKdFsWMfCX4Sis2Q2XQLetLfK5YZxVkB1O8Wtbg55IpwL86U6aUB9jjSmxww2gEZTuzTYUCabGebr4nitf3K7DkA_hAd_V_-1UJJHIC-CyZQsGmUtXITzmfB5aJ-vfsX6M_A_l-vjwKzesU17KAeYgfW4nyO5ntS7TKi9ZLOiMMjyhRHn8FkrtONPTNutlyalyXyNbzVp---twV-Eq2pRNuleM65RMamcqR9nVZ9F-nNViH0BPTtezaV7sMQW5m00?></g></svg>