<?plantuml 1.2026.1beta5?><svg xmlns="http://www.w3.org/2000/svg" xmlns:xlink="http://www.w3.org/1999/xlink" contentStyleType="text/css" data-diagram-type="STATE" height="880px" preserveAspectRatio="none" style="width:880px;height:880px;background:#FFFFFF;" version="1.1" viewBox="0 0 880 880" width="880px" zoomAndPan="magnify"><title>Editar Solicitud de Dispensa (Perspectiva RUP Final)</title><defs/><g><g class="title" data-source-line="1"><text fill="#000000" font-family="sans-serif" font-size="14" font-weight="bold" lengthAdjust="spacing" textLength="413.9365" x="223.2094" y="22.9951">Editar Solicitud de Dispensa (Perspectiva RUP Final)</text></g><rect fill="#FFFFFF" height="40" rx="12.5" ry="12.5" style="stroke:#000000;stroke-width:0.5;" width="229.3516" x="322.5" y="123.2969"/><text fill="#000000" font-family="sans-serif" font-size="14" lengthAdjust="spacing" textLength="219.3516" x="327.5" y="148.1436">SOLICITUD_DISPENSA_ABIERTA</text><rect fill="#FFFFFF" height="40" rx="12.5" ry="12.5" style="stroke:#000000;stroke-width:0.5;" width="229.3516" x="322.5" y="752.9669"/><text fill="#000000" font-family="sans-serif" font-size="14" lengthAdjust="spacing" textLength="219.3516" x="327.5" y="777.8136">SOLICITUD_DISPENSA_ABIERTA</text><path d="M19.5,223.2969 L854.8552,223.2969 A12.5,12.5 0 0 1 867.3552,235.7969 L867.3552,249.5938 L7,249.5938 L7,235.7969 A12.5,12.5 0 0 1 19.5,223.2969" fill="#FFFFFF"/><rect fill="none" height="469.6669" rx="12.5" ry="12.5" style="stroke:#000000;stroke-width:0.5;" width="860.3552" x="7" y="223.2969"/><line style="stroke:#000000;stroke-width:0.5;" x1="7" x2="867.3552" y1="249.5938" y2="249.5938"/><text fill="#000000" font-family="sans-serif" font-size="14" lengthAdjust="spacing" textLength="210.9502" x="331.7025" y="241.292">EDITAR_SOLICITUD_DISPENSA</text><rect fill="#FFFFFF" height="40" rx="12.5" ry="12.5" style="stroke:#000000;stroke-width:0.5;" width="155.6055" x="383.5" y="316.7238"/><text fill="#000000" font-family="sans-serif" font-size="14" lengthAdjust="spacing" textLength="145.6055" x="388.5" y="341.5704">Revisi&#243;n de Solicitud</text><rect fill="#FFFFFF" height="40" rx="12.5" ry="12.5" style="stroke:#000000;stroke-width:0.5;" width="229.4951" x="346.55" y="423.2538"/><text fill="#000000" font-family="sans-serif" font-size="14" lengthAdjust="spacing" textLength="219.4951" x="351.55" y="448.1004">Modificaci&#243;n de Estado y Datos</text><rect fill="#FFFFFF" height="40" rx="12.5" ry="12.5" style="stroke:#000000;stroke-width:0.5;" width="132.3564" x="348.12" y="552.4938"/><text fill="#000000" font-family="sans-serif" font-size="14" lengthAdjust="spacing" textLength="122.3564" x="353.12" y="577.3404">Guardar Cambios</text><ellipse cx="461.3" cy="270.5938" fill="#222222" rx="10" ry="10" style="stroke:#222222;stroke-width:1;"/><ellipse cx="461.3" cy="662.3238" fill="none" rx="11" ry="11" style="stroke:#222222;stroke-width:1;"/><ellipse cx="461.3" cy="662.3238" fill="#222222" rx="6" ry="6" style="stroke:#222222;stroke-width:1;"/><g class="entity" data-qualified-name="EDITAR_SOLICITUD_DISPENSA.GMN2" data-source-line="29" id="ent0003"><path d="M44.83,316.5938 L44.83,356.8594 A0,0 0 0 0 44.83,356.8594 L365.7695,356.8594 A0,0 0 0 0 365.7695,356.8594 L365.7695,341.3238 L383.11,337.3238 L365.7695,333.3238 L365.7695,326.5938 L355.7695,316.5938 L44.83,316.5938 A0,0 0 0 0 44.83,316.5938" fill="#FFFFE0" style="stroke:#000000;stroke-width:0.5;"/><path d="M355.7695,316.5938 L355.7695,326.5938 L365.7695,326.5938 L355.7695,316.5938" fill="#FFFFE0" style="stroke:#000000;stroke-width:0.5;"/><text fill="#000000" font-family="sans-serif" font-size="13" lengthAdjust="spacing" textLength="116.6128" x="50.83" y="333.6606">Director de Grado</text><text fill="#000000" font-family="sans-serif" font-size="13" font-weight="bold" lengthAdjust="spacing" textLength="52.73" x="171.5751" y="333.6606">solicita</text><text fill="#000000" font-family="sans-serif" font-size="13" lengthAdjust="spacing" textLength="100.8325" x="228.4374" y="333.6606">editar solicitud.</text><text fill="#000000" font-family="sans-serif" font-size="13" lengthAdjust="spacing" textLength="52.3618" x="50.83" y="348.7935">Sistema</text><text fill="#000000" font-family="sans-serif" font-size="13" font-weight="bold" lengthAdjust="spacing" textLength="57.5669" x="107.3241" y="348.7935">permite</text><text fill="#000000" font-family="sans-serif" font-size="13" lengthAdjust="spacing" textLength="72.5537" x="169.0234" y="348.7935">el acceso y</text><text fill="#000000" font-family="sans-serif" font-size="13" font-weight="bold" lengthAdjust="spacing" textLength="60.7534" x="245.7094" y="348.7935">muestra</text><text fill="#000000" font-family="sans-serif" font-size="13" lengthAdjust="spacing" textLength="40.1743" x="310.5951" y="348.7935">datos.</text></g><g class="entity" data-qualified-name="EDITAR_SOLICITUD_DISPENSA.GMN5" data-source-line="40" id="ent0006"><path d="M594.24,392.8638 L594.24,439.3238 L576.38,443.3238 L594.24,447.3238 L594.24,493.6606 A0,0 0 0 0 594.24,493.6606 L858.3552,493.6606 A0,0 0 0 0 858.3552,493.6606 L858.3552,402.8638 L848.3552,392.8638 L594.24,392.8638 A0,0 0 0 0 594.24,392.8638" fill="#FFFFE0" style="stroke:#000000;stroke-width:0.5;"/><path d="M848.3552,392.8638 L848.3552,402.8638 L858.3552,402.8638 L848.3552,392.8638" fill="#FFFFE0" style="stroke:#000000;stroke-width:0.5;"/><text fill="#000000" font-family="sans-serif" font-size="13" lengthAdjust="spacing" textLength="116.6128" x="600.24" y="409.9306">Director de Grado</text><text fill="#000000" font-family="sans-serif" font-size="13" font-weight="bold" lengthAdjust="spacing" textLength="52.73" x="720.9851" y="409.9306">solicita</text><text fill="#000000" font-family="sans-serif" font-size="13" lengthAdjust="spacing" textLength="65.5078" x="777.8474" y="409.9306">modificar:</text><text fill="#000000" font-family="sans-serif" font-size="13" lengthAdjust="spacing" textLength="187.2368" x="600.24" y="425.0635">&#8226; Estado (Aprobar/Rechazar)</text><text fill="#000000" font-family="sans-serif" font-size="13" lengthAdjust="spacing" textLength="168.9746" x="600.24" y="440.1963">&#8226; Observaciones o motivo</text><text fill="#000000" font-family="sans-serif" font-size="13" lengthAdjust="spacing" textLength="165.7817" x="600.24" y="455.3291">&#8226; Otros campos editables</text><text fill="#000000" font-family="sans-serif" font-size="13" lengthAdjust="spacing" textLength="52.3618" x="600.24" y="470.4619">Sistema</text><text fill="#000000" font-family="sans-serif" font-size="13" font-weight="bold" lengthAdjust="spacing" textLength="57.5669" x="656.7341" y="470.4619">permite</text><text fill="#000000" font-family="sans-serif" font-size="13" lengthAdjust="spacing" textLength="74.3501" x="718.4334" y="470.4619">la edici&#243;n y</text><text fill="#000000" font-family="sans-serif" font-size="13" font-weight="bold" lengthAdjust="spacing" textLength="44.2368" x="600.24" y="485.5947">valida</text><text fill="#000000" font-family="sans-serif" font-size="13" lengthAdjust="spacing" textLength="165.5786" x="648.6091" y="485.5947">los cambios introducidos.</text></g><g class="entity" data-qualified-name="EDITAR_SOLICITUD_DISPENSA.GMN8" data-source-line="52" id="ent0009"><path d="M18,529.6538 L18,615.3178 A0,0 0 0 0 18,615.3178 L330.605,615.3178 A0,0 0 0 0 330.605,615.3178 L330.605,577.3238 L347.69,573.3238 L330.605,569.3238 L330.605,539.6538 L320.605,529.6538 L18,529.6538 A0,0 0 0 0 18,529.6538" fill="#FFFFE0" style="stroke:#000000;stroke-width:0.5;"/><path d="M320.605,529.6538 L320.605,539.6538 L330.605,539.6538 L320.605,529.6538" fill="#FFFFE0" style="stroke:#000000;stroke-width:0.5;"/><text fill="#000000" font-family="sans-serif" font-size="13" lengthAdjust="spacing" textLength="69.8306" x="24" y="546.7206">GUARDAR:</text><text fill="#000000" font-family="sans-serif" font-size="13" lengthAdjust="spacing" textLength="116.6128" x="24" y="561.8535">Director de Grado</text><text fill="#000000" font-family="sans-serif" font-size="13" font-weight="bold" lengthAdjust="spacing" textLength="52.73" x="144.7451" y="561.8535">solicita</text><text fill="#000000" font-family="sans-serif" font-size="13" lengthAdjust="spacing" textLength="113.9976" x="201.6074" y="561.8535">guardar cambios.</text><text fill="#000000" font-family="sans-serif" font-size="13" lengthAdjust="spacing" textLength="52.3618" x="24" y="576.9863">Sistema</text><text fill="#000000" font-family="sans-serif" font-size="13" font-weight="bold" lengthAdjust="spacing" textLength="57.5669" x="80.4941" y="576.9863">permite</text><text fill="#000000" font-family="sans-serif" font-size="13" lengthAdjust="spacing" textLength="127.188" x="142.1934" y="576.9863">registrar y guardar.</text><text fill="#000000" font-family="sans-serif" font-size="13" lengthAdjust="spacing" textLength="4.1323" x="24" y="592.1191">&#160;</text><text fill="#000000" font-family="sans-serif" font-size="13" lengthAdjust="spacing" textLength="176.9092" x="24" y="607.2519">guardarSolicitudDispensa()</text></g><!--link *start*EDITAR_SOLICITUD_DISPENSA to RevisarSolicitud--><g class="link" data-entity-1="ent0005" data-entity-2="ent0005" data-link-type="dependency" data-source-line="25" id="lnk6"><path d="M461.3,280.9238 C461.3,290.3738 461.3,298.6138 461.3,310.3438" fill="none" id="*start*EDITAR_SOLICITUD_DISPENSA-to-RevisarSolicitud" style="stroke:#008000;stroke-width:1;"/><polygon fill="#008000" points="461.3,316.3438,465.3,307.3438,461.3,311.3438,457.3,307.3438,461.3,316.3438" style="stroke:#008000;stroke-width:1;"/></g><!--link RevisarSolicitud to ModificarEstadoYDatos--><g class="link" data-entity-1="ent0005" data-entity-2="ent0006" data-link-type="dependency" data-source-line="33" id="lnk7"><path d="M461.3,356.7638 C461.3,375.6938 461.3,397.9338 461.3,416.9438" fill="none" id="RevisarSolicitud-to-ModificarEstadoYDatos" style="stroke:#008000;stroke-width:1;"/><polygon fill="#008000" points="461.3,422.9438,465.3,413.9438,461.3,417.9438,457.3,413.9438,461.3,422.9438" style="stroke:#008000;stroke-width:1;"/><path d="M466.3,359.8538 L466.3,384.8538 L651.3,384.8538 L651.3,369.8538 L641.3,359.8538 L466.3,359.8538" fill="#FFFFE0" style="stroke:#000000;stroke-width:0.5;"/><path d="M641.3,359.8538 L641.3,369.8538 L651.3,369.8538 L641.3,359.8538" fill="#FFFFE0" style="stroke:#000000;stroke-width:0.5;"/><text fill="#000000" font-family="sans-serif" font-size="13" lengthAdjust="spacing" textLength="164.8486" x="472.3" y="376.9206">modificarDatosSolicitud()</text></g><!--link ModificarEstadoYDatos to GuardarCambios--><g class="link" data-entity-1="ent0006" data-entity-2="ent0007" data-link-type="dependency" data-source-line="48" id="lnk8"><path d="M414.3,463.7338 C414.3,487.9338 414.3,521.9538 414.3,546.1038" fill="none" id="ModificarEstadoYDatos-to-GuardarCambios" style="stroke:#008000;stroke-width:1;"/><polygon fill="#008000" points="414.3,552.1038,418.3,543.1038,414.3,547.1038,410.3,543.1038,414.3,552.1038" style="stroke:#008000;stroke-width:1;"/></g><!--link GuardarCambios to *end*EDITAR_SOLICITUD_DISPENSA--><g class="link" data-entity-1="ent0007" data-entity-2="ent0009" data-link-type="dependency" data-source-line="59" id="lnk10"><path d="M461.3,592.8738 C461.3,610.8838 461.3,630.4938 461.3,645.0538" fill="none" id="GuardarCambios-to-*end*EDITAR_SOLICITUD_DISPENSA" style="stroke:#008000;stroke-width:1;"/><polygon fill="#008000" points="461.3,651.0538,465.3,642.0538,461.3,646.0538,457.3,642.0538,461.3,651.0538" style="stroke:#008000;stroke-width:1;"/><path d="M193.3,626.9638 L193.3,681.9638 L456.3,681.9638 L456.3,636.9638 L446.3,626.9638 L193.3,626.9638" fill="#FFFFE0" style="stroke:#000000;stroke-width:0.5;"/><path d="M446.3,626.9638 L446.3,636.9638 L456.3,636.9638 L446.3,626.9638" fill="#FFFFE0" style="stroke:#000000;stroke-width:0.5;"/><text fill="#000000" font-family="sans-serif" font-size="13" lengthAdjust="spacing" textLength="52.3618" x="199.3" y="644.0306">Sistema</text><text fill="#000000" font-family="sans-serif" font-size="13" font-weight="bold" lengthAdjust="spacing" textLength="65.9712" x="255.7941" y="644.0306">actualiza</text><text fill="#000000" font-family="sans-serif" font-size="13" lengthAdjust="spacing" textLength="115.9146" x="325.8977" y="644.0306">el estado y datos,</text><text fill="#000000" font-family="sans-serif" font-size="13" font-weight="bold" lengthAdjust="spacing" textLength="58.1255" x="199.3" y="659.1635">registra</text><text fill="#000000" font-family="sans-serif" font-size="13" lengthAdjust="spacing" textLength="147.0054" x="261.5578" y="659.1635">fecha y responsable, y</text><text fill="#000000" font-family="sans-serif" font-size="13" font-weight="bold" lengthAdjust="spacing" textLength="55.4468" x="199.3" y="674.2963">notifica</text><text fill="#000000" font-family="sans-serif" font-size="13" lengthAdjust="spacing" textLength="68.5166" x="258.8791" y="674.2963">al alumno.</text></g><!--link ModificarEstadoYDatos to *end*EDITAR_SOLICITUD_DISPENSA--><g class="link" data-entity-1="ent0006" data-entity-2="ent0009" data-link-type="dependency" data-source-line="66" id="lnk11"><path d="M528.27,463.4738 C528.27,517.7038 528.27,662.3238 528.27,662.3238 C528.27,662.3238 497.77,662.3238 478.66,662.3238" fill="none" id="ModificarEstadoYDatos-to-*end*EDITAR_SOLICITUD_DISPENSA" style="stroke:#FF0000;stroke-width:1;"/><polygon fill="#FF0000" points="472.66,662.3238,481.66,666.3238,477.66,662.3238,481.66,658.3238,472.66,662.3238" style="stroke:#FF0000;stroke-width:1;"/><path d="M533.27,500.7038 L533.27,585.7038 L796.27,585.7038 L796.27,510.7038 L786.27,500.7038 L533.27,500.7038" fill="#FFFFE0" style="stroke:#000000;stroke-width:0.5;"/><path d="M786.27,500.7038 L786.27,510.7038 L796.27,510.7038 L786.27,500.7038" fill="#FFFFE0" style="stroke:#000000;stroke-width:0.5;"/><text fill="#000000" font-family="sans-serif" font-size="13" lengthAdjust="spacing" textLength="74.5342" x="539.27" y="517.7706">CANCELAR:</text><text fill="#000000" font-family="sans-serif" font-size="13" lengthAdjust="spacing" textLength="116.6128" x="539.27" y="532.9035">Director de Grado</text><text fill="#000000" font-family="sans-serif" font-size="13" font-weight="bold" lengthAdjust="spacing" textLength="52.73" x="660.0151" y="532.9035">solicita</text><text fill="#000000" font-family="sans-serif" font-size="13" lengthAdjust="spacing" textLength="31.4399" x="716.8774" y="532.9035">salir.</text><text fill="#000000" font-family="sans-serif" font-size="13" lengthAdjust="spacing" textLength="52.3618" x="539.27" y="548.0363">Sistema</text><text fill="#000000" font-family="sans-serif" font-size="13" font-weight="bold" lengthAdjust="spacing" textLength="57.5669" x="595.7641" y="548.0363">permite</text><text fill="#000000" font-family="sans-serif" font-size="13" lengthAdjust="spacing" textLength="124.522" x="657.4634" y="548.0363">descartar cambios.</text><text fill="#000000" font-family="sans-serif" font-size="13" lengthAdjust="spacing" textLength="4.1323" x="539.27" y="563.1691">&#160;</text><text fill="#000000" font-family="sans-serif" font-size="13" lengthAdjust="spacing" textLength="164.6899" x="539.27" y="578.3019">cerrarSolicitudDispensa()</text></g><ellipse cx="437.18" cy="53.2969" fill="#222222" rx="10" ry="10" style="stroke:#222222;stroke-width:1;"/><ellipse cx="437.18" cy="863.9669" fill="none" rx="11" ry="11" style="stroke:#222222;stroke-width:1;"/><ellipse cx="437.18" cy="863.9669" fill="#222222" rx="6" ry="6" style="stroke:#222222;stroke-width:1;"/><!--link *start* to startState--><g class="link" data-entity-1="ent0002" data-entity-2="ent0002" data-link-type="dependency" data-source-line="17" id="lnk3"><path d="M437.18,63.6269 C437.18,78.0269 437.18,98.4669 437.18,116.9169" fill="none" id="*start*-to-startState" style="stroke:#008000;stroke-width:1;"/><polygon fill="#008000" points="437.18,122.9169,441.18,113.9169,437.18,117.9169,433.18,113.9169,437.18,122.9169" style="stroke:#008000;stroke-width:1;"/></g><!--link startState to EDITAR_SOLICITUD_DISPENSA--><g class="link" data-entity-1="ent0002" data-entity-2="ent0004" data-link-type="dependency" data-source-line="19" id="lnk4"><path d="M437.18,163.4769 C437.18,177.7869 437.18,192.7169 437.18,216.9269" fill="none" id="startState-to-EDITAR_SOLICITUD_DISPENSA" style="stroke:#008000;stroke-width:1;"/><polygon fill="#008000" points="437.18,222.9269,441.18,213.9269,437.18,217.9269,433.18,213.9269,437.18,222.9269" style="stroke:#008000;stroke-width:1;"/><path d="M248.18,163.1969 L248.18,188.1969 L432.18,188.1969 L432.18,173.1969 L422.18,163.1969 L248.18,163.1969" fill="#FFFFE0" style="stroke:#000000;stroke-width:0.5;"/><path d="M422.18,163.1969 L422.18,173.1969 L432.18,173.1969 L422.18,163.1969" fill="#FFFFE0" style="stroke:#000000;stroke-width:0.5;"/><text fill="#000000" font-family="sans-serif" font-size="13" lengthAdjust="spacing" textLength="163.814" x="254.18" y="180.2638">editarSolicitudDispensa()</text></g><!--link EDITAR_SOLICITUD_DISPENSA to endState--><g class="link" data-entity-1="ent0004" data-entity-2="ent0003" data-link-type="dependency" data-source-line="76" id="lnk12"><path d="M437.18,693.1169 C437.18,717.2469 437.18,732.1269 437.18,746.4869" fill="none" id="EDITAR_SOLICITUD_DISPENSA-to-endState" style="stroke:#008000;stroke-width:1;"/><polygon fill="#008000" points="437.18,752.4869,441.18,743.4869,437.18,747.4869,433.18,743.4869,437.18,752.4869" style="stroke:#008000;stroke-width:1;"/></g><!--link endState to *end*--><g class="link" data-entity-1="ent0003" data-entity-2="ent0013" data-link-type="dependency" data-source-line="78" id="lnk14"><path d="M437.18,793.1669 C437.18,811.4869 437.18,831.8469 437.18,846.6869" fill="none" id="endState-to-*end*" style="stroke:#008000;stroke-width:1;"/><polygon fill="#008000" points="437.18,852.6869,441.18,843.6869,437.18,847.6869,433.18,843.6869,437.18,852.6869" style="stroke:#008000;stroke-width:1;"/></g><?plantuml-src bLNTJjim5BxFKrZi1YOOzwYg59eELMA0KhYO4AgS-BIrSEBes2agqwGzorvXZx0tsPFisFaXRLCLSj56yNT-lkyxjgsq2jXOICkHJRMIgRIbO09O94q1kU7i-0wGNbChLvp53tVigyovEWa2yoppWYFFs8-0qJErtC8bJvyNgCjSZBJIo5wMqa9dMQC0h9OIHLY_TADt0vLSBEqQbD8lRvZUw11HlrGV5mYG-uzAvc3N1J2DTgc3dq6mbCGAiiAkYPv9KHPMwfnekBxOqVJsUZAQt3z4isWolHlVJCDPU3aPn_VX4UE64Ggjfy060oCKGWfo1SFXE-CX5xtHmUFd9tRs-Cbt_dGsx1JohJL5kv1nDBaFuzbknI0daPZE7VjA6_3EjiOsfXwV1DGGS_16WBr9QtUt-unX9KqdjGVvdreG3v1__-HkcbgO5sCxTbiKbyLJKJ2tJC_xYxadaXHboNcgSOLSQ3P8XgQ2yS5vCgmLOAO9_TB6JgMna74NKG1cDATLW68yJS5ejdPBMGd6OfLBSAjDbQ2LhwMzGwghrZSjv5oc7CUaZj3V8vVfZMVNClTa3TpZsfHaMt_jMlAcIjh8NbKZ8ZwFrxwtaxq6eDk5pe7z1DvdGyleeWtwz-jtq-1nMA1EE9x7a2xvAyUJ3THjOW1NH4ldO9YcP7GOwKs8HQAHygoWF-zvei0SybfnXwtaMhTW0gsuagBgN5Lv4qd_CgSoeaobs3y7_G9tX-6gv2WuZggaEoxMownUzwvjXXpSBpqLt7Fr4CPH65zymBT5tKojmC7TWx2GRhyW3LqT-nRJljGhVUTIlwXR_Bjgqi6qVoDrkkIfBSdLLzxiScWsXz_Mfrtx6nOUEdSpIJ04KsXgaWRhT7DQgBIttCCvdH-gp7BzuG5140S9ZSARqVZwOnuQeeq7dNEN8bqtVLwtBoaWliCskcttNoTTxvfRCGZQ-t7Bsly0?></g></svg>