<svg xmlns="http://www.w3.org/2000/svg" xmlns:xlink="http://www.w3.org/1999/xlink" version="1.1" data-diagram-type="SEQUENCE" style="width:1431px;height:1010px;background:#FFFFFF;" width="1431px" height="1010px" viewBox="0 0 1431 1010" zoomAndPan="magnify" preserveAspectRatio="none" contentStyleType="text/css"><?plantuml 1.2026.7beta8?><defs/><g font-family="sans-serif" lengthAdjust="spacing"><g class="title" data-source-line="1"><text x="415.156" y="27.995" fill="#000" font-size="14" textLength="598.712" font-weight="700">Diagrama de Secuencia - Editar Sesión de Clase (Vue 3 + Express + Prisma)</text></g><g><title>Profesor</title><rect x="38.46" y="125.891" width="8" height="795.117" fill="#000" fill-opacity="0"/><line x1="41.96" y1="125.891" x2="41.96" y2="921.008" style="stroke:#181818;stroke-width:0.5;stroke-dasharray:5,5;"/></g><g><title>Frontend</title><rect x="319.52" y="125.891" width="8" height="795.117" fill="#000" fill-opacity="0"/><line x1="323.02" y1="125.891" x2="323.02" y2="921.008" style="stroke:#181818;stroke-width:0.5;stroke-dasharray:5,5;"/></g><g><title></title><rect x="318.02" y="155.023" width="10" height="747.984" fill="#FFF" style="stroke:#181818;stroke-width:1;"/></g><g><title>AcademicController</title><rect x="680.045" y="125.891" width="8" height="795.117" fill="#000" fill-opacity="0"/><line x1="683.545" y1="125.891" x2="683.545" y2="921.008" style="stroke:#181818;stroke-width:0.5;stroke-dasharray:5,5;"/></g><g><title></title><rect x="678.545" y="184.156" width="10" height="160.797" fill="#FFF" style="stroke:#181818;stroke-width:1;"/></g><g><title></title><rect x="678.545" y="374.086" width="10" height="175.93" fill="#FFF" style="stroke:#181818;stroke-width:1;"/></g><g><title></title><rect x="678.545" y="682.813" width="10" height="191.063" fill="#FFF" style="stroke:#181818;stroke-width:1;"/></g><g><title>AcademicService</title><rect x="1103.095" y="125.891" width="8" height="795.117" fill="#000" fill-opacity="0"/><line x1="1106.595" y1="125.891" x2="1106.595" y2="921.008" style="stroke:#181818;stroke-width:0.5;stroke-dasharray:5,5;"/></g><g><title></title><rect x="1101.595" y="213.289" width="10" height="102.531" fill="#FFF" style="stroke:#181818;stroke-width:1;"/></g><g><title></title><rect x="1101.595" y="403.219" width="10" height="117.664" fill="#FFF" style="stroke:#181818;stroke-width:1;"/></g><g><title></title><rect x="1101.595" y="711.945" width="10" height="132.797" fill="#FFF" style="stroke:#181818;stroke-width:1;"/></g><g><title>Base de Datos</title><rect x="1362.925" y="125.891" width="8" height="795.117" fill="#000" fill-opacity="0"/><line x1="1366.425" y1="125.891" x2="1366.425" y2="921.008" style="stroke:#181818;stroke-width:0.5;stroke-dasharray:5,5;"/></g><g><title></title><rect x="1361.425" y="257.555" width="10" height="29.133" fill="#FFF" style="stroke:#181818;stroke-width:1;"/></g><g><title></title><rect x="1361.425" y="462.617" width="10" height="29.133" fill="#FFF" style="stroke:#181818;stroke-width:1;"/></g><g><title></title><rect x="1361.425" y="786.477" width="10" height="29.133" fill="#FFF" style="stroke:#181818;stroke-width:1;"/></g><text x="10" y="122.589" fill="#000" font-size="14" textLength="57.921">Profesor</text><ellipse cx="41.96" cy="58.094" rx="8" ry="8" fill="#E2E2F0" style="stroke:#181818;stroke-width:0.5;"/><path d="M41.96,66.094 L41.96,93.094 M28.96,74.094 L54.96,74.094 M41.96,93.094 L28.96,108.094 M41.96,93.094 L54.96,108.094" style="stroke:#181818;stroke-width:0.5;" fill="none"/><rect x="284.465" y="78.297" width="77.109" height="46.594" fill="#E2E2F0" style="stroke:#181818;stroke-width:0.5;" rx="2.5" ry="2.5"/><text x="291.465" y="98.292" fill="#000" font-size="14" textLength="63.109">Frontend</text><text x="297.347" y="114.589" fill="#000" font-size="14" textLength="51.345">(Vue 3)</text><rect x="607.669" y="94.594" width="151.751" height="30.297" fill="#E2E2F0" style="stroke:#181818;stroke-width:0.5;" rx="2.5" ry="2.5"/><text x="614.669" y="114.589" fill="#000" font-size="14" textLength="137.751">AcademicController</text><rect x="1039.435" y="94.594" width="134.319" height="30.297" fill="#E2E2F0" style="stroke:#181818;stroke-width:0.5;" rx="2.5" ry="2.5"/><text x="1046.435" y="114.589" fill="#000" font-size="14" textLength="120.319">AcademicService</text><text x="1312.826" y="106.292" fill="#000" font-size="14" textLength="101.199">Base de Datos</text><text x="1317.587" y="122.589" fill="#000" font-size="14" textLength="91.677">(PostgreSQL)</text><path d="M1348.425,57.297 C1348.425,47.297 1366.425,47.297 1366.425,47.297 C1366.425,47.297 1384.425,47.297 1384.425,57.297 L1384.425,83.297 C1384.425,93.297 1366.425,93.297 1366.425,93.297 C1366.425,93.297 1348.425,93.297 1348.425,83.297 L1348.425,57.297" style="stroke:#181818;stroke-width:0.5;" fill="#E2E2F0"/><path d="M1348.425,57.297 C1348.425,67.297 1366.425,67.297 1366.425,67.297 C1366.425,67.297 1384.425,67.297 1384.425,57.297" style="stroke:#181818;stroke-width:0.5;" fill="none"/><text x="10" y="934.003" fill="#000" font-size="14" textLength="57.921">Profesor</text><ellipse cx="41.96" cy="945.805" rx="8" ry="8" fill="#E2E2F0" style="stroke:#181818;stroke-width:0.5;"/><path d="M41.96,953.805 L41.96,980.805 M28.96,961.805 L54.96,961.805 M41.96,980.805 L28.96,995.805 M41.96,980.805 L54.96,995.805" style="stroke:#181818;stroke-width:0.5;" fill="none"/><rect x="284.465" y="921.008" width="77.109" height="46.594" fill="#E2E2F0" style="stroke:#181818;stroke-width:0.5;" rx="2.5" ry="2.5"/><text x="291.465" y="941.003" fill="#000" font-size="14" textLength="63.109">Frontend</text><text x="297.347" y="957.3" fill="#000" font-size="14" textLength="51.345">(Vue 3)</text><rect x="607.669" y="921.008" width="151.751" height="30.297" fill="#E2E2F0" style="stroke:#181818;stroke-width:0.5;" rx="2.5" ry="2.5"/><text x="614.669" y="941.003" fill="#000" font-size="14" textLength="137.751">AcademicController</text><rect x="1039.435" y="921.008" width="134.319" height="30.297" fill="#E2E2F0" style="stroke:#181818;stroke-width:0.5;" rx="2.5" ry="2.5"/><text x="1046.435" y="941.003" fill="#000" font-size="14" textLength="120.319">AcademicService</text><text x="1312.826" y="934.003" fill="#000" font-size="14" textLength="101.199">Base de Datos</text><text x="1317.587" y="950.3" fill="#000" font-size="14" textLength="91.677">(PostgreSQL)</text><path d="M1348.425,963.602 C1348.425,953.602 1366.425,953.602 1366.425,953.602 C1366.425,953.602 1384.425,953.602 1384.425,963.602 L1384.425,989.602 C1384.425,999.602 1366.425,999.602 1366.425,999.602 C1366.425,999.602 1348.425,999.602 1348.425,989.602 L1348.425,963.602" style="stroke:#181818;stroke-width:0.5;" fill="#E2E2F0"/><path d="M1348.425,963.602 C1348.425,973.602 1366.425,973.602 1366.425,973.602 C1366.425,973.602 1384.425,973.602 1384.425,963.602" style="stroke:#181818;stroke-width:0.5;" fill="none"/><polygon points="306.02,151.023,316.02,155.023,306.02,159.023,310.02,155.023" fill="#181818" style="stroke:#181818;stroke-width:1;stroke-linejoin:miter;stroke-miterlimit:10;"/><line x1="41.96" y1="155.023" x2="312.02" y2="155.023" style="stroke:#181818;stroke-width:1;"/><text x="48.96" y="149.958" fill="#000" font-size="13" textLength="168.429">selecciona sesión a editar</text><polygon points="666.545,180.156,676.545,184.156,666.545,188.156,670.545,184.156" fill="#181818" style="stroke:#181818;stroke-width:1;stroke-linejoin:miter;stroke-miterlimit:10;"/><line x1="328.02" y1="184.156" x2="672.545" y2="184.156" style="stroke:#181818;stroke-width:1;"/><text x="335.02" y="179.09" fill="#000" font-size="13" textLength="243.172">GET /api/academic/sessions/:sesionId</text><polygon points="1089.595,209.289,1099.595,213.289,1089.595,217.289,1093.595,213.289" fill="#181818" style="stroke:#181818;stroke-width:1;stroke-linejoin:miter;stroke-miterlimit:10;"/><line x1="688.545" y1="213.289" x2="1095.595" y2="213.289" style="stroke:#181818;stroke-width:1;"/><text x="695.545" y="208.223" fill="#000" font-size="13" textLength="134.526">getSession(sesionId)</text><polygon points="1349.425,253.555,1359.425,257.555,1349.425,261.555,1353.425,257.555" fill="#181818" style="stroke:#181818;stroke-width:1;stroke-linejoin:miter;stroke-miterlimit:10;"/><line x1="1111.595" y1="257.555" x2="1355.425" y2="257.555" style="stroke:#181818;stroke-width:1;"/><text x="1118.595" y="237.356" fill="#000" font-size="13" textLength="202.059">SELECT * FROM SesionDeClase</text><text x="1118.595" y="252.489" fill="#000" font-size="13" textLength="90.143">WHERE id = ?</text><polygon points="1122.595,282.688,1112.595,286.688,1122.595,290.688,1118.595,286.688" fill="#181818" style="stroke:#181818;stroke-width:1;stroke-linejoin:miter;stroke-miterlimit:10;"/><line x1="1116.595" y1="286.688" x2="1360.425" y2="286.688" style="stroke:#181818;stroke-width:1;stroke-dasharray:2,2;"/><text x="1128.595" y="281.622" fill="#000" font-size="13" textLength="150.255">sesion : SesionDeClase</text><polygon points="699.545,311.82,689.545,315.82,699.545,319.82,695.545,315.82" fill="#181818" style="stroke:#181818;stroke-width:1;stroke-linejoin:miter;stroke-miterlimit:10;"/><line x1="693.545" y1="315.82" x2="1100.595" y2="315.82" style="stroke:#181818;stroke-width:1;stroke-dasharray:2,2;"/><text x="705.545" y="310.754" fill="#000" font-size="13" textLength="150.255">sesion : SesionDeClase</text><polygon points="339.02,340.953,329.02,344.953,339.02,348.953,335.02,344.953" fill="#181818" style="stroke:#181818;stroke-width:1;stroke-linejoin:miter;stroke-miterlimit:10;"/><line x1="333.02" y1="344.953" x2="677.545" y2="344.953" style="stroke:#181818;stroke-width:1;stroke-dasharray:2,2;"/><text x="345.02" y="339.887" fill="#000" font-size="13" textLength="117.99">200 OK { sesion }</text><polygon points="666.545,370.086,676.545,374.086,666.545,378.086,670.545,374.086" fill="#181818" style="stroke:#181818;stroke-width:1;stroke-linejoin:miter;stroke-miterlimit:10;"/><line x1="328.02" y1="374.086" x2="672.545" y2="374.086" style="stroke:#181818;stroke-width:1;"/><text x="335.02" y="369.02" fill="#000" font-size="13" textLength="331.525">GET /api/academic/teacher/:profesorId/asignaturas</text><polygon points="1089.595,399.219,1099.595,403.219,1089.595,407.219,1093.595,403.219" fill="#181818" style="stroke:#181818;stroke-width:1;stroke-linejoin:miter;stroke-miterlimit:10;"/><line x1="688.545" y1="403.219" x2="1095.595" y2="403.219" style="stroke:#181818;stroke-width:1;"/><text x="695.545" y="398.153" fill="#000" font-size="13" textLength="227.563">getTeacherAsignaturas(profesorId)</text><polygon points="1349.425,458.617,1359.425,462.617,1349.425,466.617,1353.425,462.617" fill="#181818" style="stroke:#181818;stroke-width:1;stroke-linejoin:miter;stroke-miterlimit:10;"/><line x1="1111.595" y1="462.617" x2="1355.425" y2="462.617" style="stroke:#181818;stroke-width:1;"/><text x="1118.595" y="427.286" fill="#000" font-size="13" textLength="176.179">SELECT * FROM Asignatura</text><text x="1118.595" y="442.418" fill="#000" font-size="13" textLength="144.562">WHERE profesorId = ?</text><text x="1118.595" y="457.551" fill="#000" font-size="13" textLength="101.34">INCLUDE Grado</text><polygon points="1122.595,487.75,1112.595,491.75,1122.595,495.75,1118.595,491.75" fill="#181818" style="stroke:#181818;stroke-width:1;stroke-linejoin:miter;stroke-miterlimit:10;"/><line x1="1116.595" y1="491.75" x2="1360.425" y2="491.75" style="stroke:#181818;stroke-width:1;stroke-dasharray:2,2;"/><text x="1128.595" y="486.684" fill="#000" font-size="13" textLength="169.4">asignaturas : Asignatura[]</text><polygon points="699.545,516.883,689.545,520.883,699.545,524.883,695.545,520.883" fill="#181818" style="stroke:#181818;stroke-width:1;stroke-linejoin:miter;stroke-miterlimit:10;"/><line x1="693.545" y1="520.883" x2="1100.595" y2="520.883" style="stroke:#181818;stroke-width:1;stroke-dasharray:2,2;"/><text x="705.545" y="515.817" fill="#000" font-size="13" textLength="169.4">asignaturas : Asignatura[]</text><polygon points="339.02,546.016,329.02,550.016,339.02,554.016,335.02,550.016" fill="#181818" style="stroke:#181818;stroke-width:1;stroke-linejoin:miter;stroke-miterlimit:10;"/><line x1="333.02" y1="550.016" x2="677.545" y2="550.016" style="stroke:#181818;stroke-width:1;stroke-dasharray:2,2;"/><text x="345.02" y="544.95" fill="#000" font-size="13" textLength="152.871">200 OK { asignaturas }</text><polygon points="52.96,590.281,42.96,594.281,52.96,598.281,48.96,594.281" fill="#181818" style="stroke:#181818;stroke-width:1;stroke-linejoin:miter;stroke-miterlimit:10;"/><line x1="46.96" y1="594.281" x2="317.02" y2="594.281" style="stroke:#181818;stroke-width:1;stroke-dasharray:2,2;"/><text x="58.96" y="574.083" fill="#000" font-size="13" textLength="252.059">muestra formulario con datos actuales</text><text x="58.96" y="589.215" fill="#000" font-size="13" textLength="217.09">y lista de asignaturas disponibles</text><polygon points="306.02,634.547,316.02,638.547,306.02,642.547,310.02,638.547" fill="#181818" style="stroke:#181818;stroke-width:1;stroke-linejoin:miter;stroke-miterlimit:10;"/><line x1="41.96" y1="638.547" x2="312.02" y2="638.547" style="stroke:#181818;stroke-width:1;"/><text x="48.96" y="618.348" fill="#000" font-size="13" textLength="116.003">confirma cambios</text><text x="48.96" y="633.481" fill="#000" font-size="13" textLength="236.945">(asignaturaId, fecha, aula, duracion)</text><polygon points="666.545,678.813,676.545,682.813,666.545,686.813,670.545,682.813" fill="#181818" style="stroke:#181818;stroke-width:1;stroke-linejoin:miter;stroke-miterlimit:10;"/><line x1="328.02" y1="682.813" x2="672.545" y2="682.813" style="stroke:#181818;stroke-width:1;"/><text x="335.02" y="662.614" fill="#000" font-size="13" textLength="242.239">PUT /api/academic/sessions/:sesionId</text><text x="335.02" y="677.747" fill="#000" font-size="13" textLength="251.608">{ asignaturaId, fecha, aula, duracion }</text><polygon points="1089.595,707.945,1099.595,711.945,1089.595,715.945,1093.595,711.945" fill="#181818" style="stroke:#181818;stroke-width:1;stroke-linejoin:miter;stroke-miterlimit:10;"/><line x1="688.545" y1="711.945" x2="1095.595" y2="711.945" style="stroke:#181818;stroke-width:1;"/><text x="695.545" y="706.879" fill="#000" font-size="13" textLength="394.05">updateSession(sesionId, asignaturaId, fecha, aula, duracion)</text><polygon points="1349.425,782.477,1359.425,786.477,1349.425,790.477,1353.425,786.477" fill="#181818" style="stroke:#181818;stroke-width:1;stroke-linejoin:miter;stroke-miterlimit:10;"/><line x1="1111.595" y1="786.477" x2="1355.425" y2="786.477" style="stroke:#181818;stroke-width:1;"/><text x="1118.595" y="736.012" fill="#000" font-size="13" textLength="152.807">UPDATE SesionDeClase</text><text x="1118.595" y="751.145" fill="#000" font-size="13" textLength="193.991">SET asignaturaId=?, fecha=?,</text><text x="1118.595" y="766.278" fill="#000" font-size="13" textLength="128.388">aula=?, duracion=?</text><text x="1118.595" y="781.411" fill="#000" font-size="13" textLength="81.878">WHERE id=?</text><polygon points="1122.595,811.609,1112.595,815.609,1122.595,819.609,1118.595,815.609" fill="#181818" style="stroke:#181818;stroke-width:1;stroke-linejoin:miter;stroke-miterlimit:10;"/><line x1="1116.595" y1="815.609" x2="1360.425" y2="815.609" style="stroke:#181818;stroke-width:1;stroke-dasharray:2,2;"/><text x="1128.595" y="810.543" fill="#000" font-size="13" textLength="225.831">sesionActualizada : SesionDeClase</text><polygon points="699.545,840.742,689.545,844.742,699.545,848.742,695.545,844.742" fill="#181818" style="stroke:#181818;stroke-width:1;stroke-linejoin:miter;stroke-miterlimit:10;"/><line x1="693.545" y1="844.742" x2="1100.595" y2="844.742" style="stroke:#181818;stroke-width:1;stroke-dasharray:2,2;"/><text x="705.545" y="839.676" fill="#000" font-size="13" textLength="225.831">sesionActualizada : SesionDeClase</text><polygon points="339.02,869.875,329.02,873.875,339.02,877.875,335.02,873.875" fill="#181818" style="stroke:#181818;stroke-width:1;stroke-linejoin:miter;stroke-miterlimit:10;"/><line x1="333.02" y1="873.875" x2="677.545" y2="873.875" style="stroke:#181818;stroke-width:1;stroke-dasharray:2,2;"/><text x="345.02" y="868.809" fill="#000" font-size="13" textLength="193.565">200 OK { sesionActualizada }</text><polygon points="52.96,899.008,42.96,903.008,52.96,907.008,48.96,903.008" fill="#181818" style="stroke:#181818;stroke-width:1;stroke-linejoin:miter;stroke-miterlimit:10;"/><line x1="46.96" y1="903.008" x2="317.02" y2="903.008" style="stroke:#181818;stroke-width:1;stroke-dasharray:2,2;"/><text x="58.96" y="897.942" fill="#000" font-size="13" textLength="251.202">muestra sesión con cambios aplicados</text><?plantuml-src fPN1Rjf048RlVeeH9sY9YDeR4eq8Tb9Ksj10saFfOV0EP2MpQ-skepPLdwgFq1VhsCRi9ce2j1UqNkzyipF_-CT9bn744jS6DmY2O4PfGIgL22UG2EdGy9QLlt-fykqeGqlG_bGGl8QNa7pB3LdBgwcHTeETACBKQGEjgT4hijgq02qq3r6EnibKvgWSj2wCLewKMAYQrwdEDhiFpmvJ5BIHwOXV6frbL8Fzuz-FpyZSoPIgizjr9D3XigoYTLx-Sb4nEctv5bDjtThGxEEalafy7aNDrU7apUvgq0TB6QMfr0fvMNS7WQfsbHsGT-Z8bnBj8fdYxyoSosGEFSnb3xStxZ7ECjVs-YLOgx7mmA3SAC0mT5iS4zVaPZMYtG0wdj0q8Me2E3O-vx1PCab6StW15zTNxol5jOgfadkXFhzDhXEG0WPmvbdS7WuzUP2zJbdoGa8aA8pooH-tOt_uhe2m_eVQl3ezXQjtyAEX_GpZmnOUeOfZmYsPNZ_VpiDOzD3AjK9N6BH7IpIlUKEFQ7loyNfvJYEMfvMYBTJumsXo4oTmQL3evpKCwk8dZ_xozM0T3qCSesL8F41Gfko-t3vi2hBE8AoqsHGP6gaXvS4GvNSFJ2em8pQ0xv19woeN3DC9QNEjv9BFFEa7Z5j9mmwQucOfApVnYB7emehIM-m2Slek2DuipQFpp0nER_OxmqA5ZNao3JVigFaiSkuCFNQHBXnKqVxHlPd6mtdos6Dc_Cs52GPdsnIyMAWoIxdJv1cSULSQ7EH9mqfcUOy2_zEU3YGTxrGX-9zdlFaxAWTyEuo0UIPvYhGDeGte3m00?></g></svg>