<svg xmlns="http://www.w3.org/2000/svg" xmlns:xlink="http://www.w3.org/1999/xlink" version="1.1" data-diagram-type="STATE" style="width:498px;height:755px;background:#FFFFFF;" width="498px" height="755px" viewBox="0 0 498 755" zoomAndPan="magnify" preserveAspectRatio="none" contentStyleType="text/css"><?plantuml 1.2026.7beta8?><defs/><g font-family="sans-serif" lengthAdjust="spacing"><g class="entity" data-qualified-name="abrirAlumnos" id="ent0001" data-source-line="9"><path d="M56.93,7 L423.93,7 A12.5,12.5 0 0 1 436.43,19.5 L436.43,33.297 L44.43,33.297 L44.43,19.5 A12.5,12.5 0 0 1 56.93,7" fill="#F5F5F5"/><path d="M44.43,33.297 L436.43,33.297 L436.43,459.797 A12.5,12.5 0 0 1 423.93,472.297 L56.93,472.297 A12.5,12.5 0 0 1 44.43,459.797 L44.43,33.297" fill="#F5F5F5"/><rect x="44.43" y="7" width="392" height="465.297" fill="none" style="stroke:#808080;stroke-width:0.5;" rx="12.5" ry="12.5"/><line x1="44.43" y1="33.297" x2="436.43" y2="33.297" style="stroke:#808080;stroke-width:0.5;"/><text x="188.18" y="24.995" fill="#000" font-size="14" textLength="104.501">abrirAlumnos()</text><g class="entity" data-qualified-name="abrirAlumnos.Paso1" id="ent0002" data-source-line="11"><rect x="56.43" y="135.297" width="50" height="50" fill="#F5F5F5" style="stroke:#808080;stroke-width:0.5;" rx="12.5" ry="12.5"/><line x1="56.43" y1="161.594" x2="106.43" y2="161.594" style="stroke:#808080;stroke-width:0.5;"/><text x="79.205" y="153.292" fill="#000" font-size="14"> </text></g><g class="entity" data-qualified-name="abrirAlumnos.Paso2" id="ent0003" data-source-line="12"><rect x="56.43" y="271.297" width="50" height="50" fill="#F5F5F5" style="stroke:#808080;stroke-width:0.5;" rx="12.5" ry="12.5"/><line x1="56.43" y1="297.594" x2="106.43" y2="297.594" style="stroke:#808080;stroke-width:0.5;"/><text x="79.205" y="289.292" fill="#000" font-size="14"> </text></g><g class="start_entity" data-qualified-name="abrirAlumnos..start.abrirAlumnos" id="ent0006" data-source-line="14"><ellipse cx="81.43" cy="54.297" rx="10" ry="10" fill="#222" style="stroke:#222;stroke-width:1;"/></g><g class="end_entity" data-qualified-name="abrirAlumnos..end.abrirAlumnos" id="ent0010" data-source-line="31"><ellipse cx="81.43" cy="448.297" rx="11" ry="11" fill="none" style="stroke:#222;stroke-width:1;"/><ellipse cx="81.43" cy="448.297" rx="6" ry="6" fill="#222" style="stroke:#222;stroke-width:1;"/></g><!--link *start*abrirAlumnos to Paso1--><g class="link" data-entity-1="ent0006" data-entity-2="ent0002" id="lnk7" data-source-line="14" data-link-type="dependency"><path d="M81.43,64.527 C81.43,80.237 81.43,107.657 81.43,130.167" style="stroke:#008000;stroke-width:1;" fill="none" id="*start*abrirAlumnos-to-Paso1"/><polygon points="81.43,135.167,85.43,126.167,81.43,130.167,77.43,126.167,81.43,135.167" fill="#008000" style="stroke:#008000;stroke-width:1;stroke-linejoin:miter;stroke-miterlimit:10;"/><path d="M86.43,87.297 L86.43,112.297 L326.43,112.297 L326.43,97.297 L316.43,87.297 L86.43,87.297" style="stroke:#808080;stroke-width:0.5;" fill="#FFFFE0"/><path d="M316.43,87.297 L316.43,97.297 L326.43,97.297 L316.43,87.297" style="stroke:#808080;stroke-width:0.5;" fill="#FFFFE0"/><text x="92.43" y="104.364" fill="#000" font-size="13" textLength="75.74" font-weight="700">Secretaría</text><text x="172.303" y="104.364" fill="#000" font-size="13" textLength="140.004">solicita abrir alumnos</text></g><!--link Paso1 to Paso2--><g class="link" data-entity-1="ent0002" data-entity-2="ent0003" id="lnk8" data-source-line="19" data-link-type="dependency"><path d="M81.43,185.567 C81.43,209.847 81.43,241.987 81.43,266.207" style="stroke:#008000;stroke-width:1;" fill="none" id="Paso1-to-Paso2"/><polygon points="81.43,271.207,85.43,262.207,81.43,266.207,77.43,262.207,81.43,271.207" fill="#008000" style="stroke:#008000;stroke-width:1;stroke-linejoin:miter;stroke-miterlimit:10;"/><path d="M86.43,208.297 L86.43,248.297 L387.43,248.297 L387.43,218.297 L377.43,208.297 L86.43,208.297" style="stroke:#808080;stroke-width:0.5;" fill="#FFFFE0"/><path d="M377.43,208.297 L377.43,218.297 L387.43,218.297 L377.43,208.297" style="stroke:#808080;stroke-width:0.5;" fill="#FFFFE0"/><text x="92.43" y="225.364" fill="#000" font-size="13" textLength="58.906" font-weight="700">Sistema</text><text x="155.469" y="225.364" fill="#000" font-size="13" textLength="217.395">permite mostrar lista de alumnos</text><text x="92.43" y="240.497" fill="#000" font-size="13" textLength="247.857">• Nombre, documento, correo, estado</text></g><!--link Paso2 to Paso2--><g class="link" data-entity-1="ent0003" data-entity-2="ent0003" id="lnk9" data-source-line="25" data-link-type="dependency"><path d="M106.61,283.597 C116.34,283.037 124.43,287.267 124.43,296.297 C124.43,305.327 121.332,309.844 111.602,309.284" style="stroke:#008000;stroke-width:1;" fill="none" id="Paso2-to-Paso2"/><polygon points="106.61,308.997,115.365,313.507,111.602,309.284,115.825,305.521,106.61,308.997" fill="#008000" style="stroke:#008000;stroke-width:1;stroke-linejoin:miter;stroke-miterlimit:10;"/><path d="M129.43,276.297 L129.43,316.297 L401.43,316.297 L401.43,286.297 L391.43,276.297 L129.43,276.297" style="stroke:#808080;stroke-width:0.5;" fill="#FFFFE0"/><path d="M391.43,276.297 L391.43,286.297 L401.43,286.297 L391.43,276.297" style="stroke:#808080;stroke-width:0.5;" fill="#FFFFE0"/><text x="135.43" y="293.364" fill="#000" font-size="13" textLength="75.74" font-weight="700">Secretaría</text><text x="215.303" y="293.364" fill="#000" font-size="13" textLength="116.651">solicita filtrar lista</text><text x="135.43" y="308.497" fill="#000" font-size="13" textLength="58.906" font-weight="700">Sistema</text><text x="198.469" y="308.497" fill="#000" font-size="13" textLength="187.992">permite mostrar lista filtrada</text></g><!--link Paso2 to *end*abrirAlumnos--><g class="link" data-entity-1="ent0003" data-entity-2="ent0010" id="lnk11" data-source-line="31" data-link-type="dependency"><path d="M81.43,321.727 C81.43,355.107 81.43,408.477 81.43,432.017" style="stroke:#008000;stroke-width:1;" fill="none" id="Paso2-to-*end*abrirAlumnos"/><polygon points="81.43,437.017,85.43,428.017,81.43,432.017,77.43,428.017,81.43,437.017" fill="#008000" style="stroke:#008000;stroke-width:1;stroke-linejoin:miter;stroke-miterlimit:10;"/><path d="M86.43,344.297 L86.43,414.297 L412.43,414.297 L412.43,354.297 L402.43,344.297 L86.43,344.297" style="stroke:#808080;stroke-width:0.5;" fill="#FFFFE0"/><path d="M402.43,344.297 L402.43,354.297 L412.43,354.297 L402.43,344.297" style="stroke:#808080;stroke-width:0.5;" fill="#FFFFE0"/><text x="92.43" y="361.364" fill="#000" font-size="13" textLength="75.74" font-weight="700">Secretaría</text><text x="172.303" y="361.364" fill="#000" font-size="13" textLength="166.251">revisa la lista de alumnos</text><text x="92.43" y="376.497" fill="#000" font-size="13" textLength="58.906" font-weight="700">Sistema</text><text x="155.469" y="376.497" fill="#000" font-size="13" textLength="242.76">permite mantener la lista en pantalla</text><text x="92.43" y="391.629" fill="#000" font-size="13" textLength="234.914">• Permite solicitar consultar alumno</text><text x="92.43" y="406.762" fill="#000" font-size="13" textLength="237.548">• Permite solicitar importar alumnos</text></g></g><g class="entity" data-qualified-name="ALUMNO_DETALLE_ABIERTO" id="ent0004" data-source-line="40"><rect x="7" y="691.3" width="218.851" height="50" fill="#F5F5F5" style="stroke:#808080;stroke-width:0.5;" rx="12.5" ry="12.5"/><line x1="7" y1="717.597" x2="225.851" y2="717.597" style="stroke:#808080;stroke-width:0.5;"/><text x="17" y="709.295" fill="#000" font-size="14" textLength="198.851">ALUMNO_DETALLE_ABIERTO</text></g><g class="entity" data-qualified-name="ALUMNOS_ABIERTO" id="ent0005" data-source-line="41"><rect x="286.16" y="691.3" width="158.537" height="50" fill="#F5F5F5" style="stroke:#808080;stroke-width:0.5;" rx="12.5" ry="12.5"/><line x1="286.16" y1="717.597" x2="444.697" y2="717.597" style="stroke:#808080;stroke-width:0.5;"/><text x="296.16" y="709.295" fill="#000" font-size="14" textLength="138.537">ALUMNOS_ABIERTO</text></g><!--link abrirAlumnos to ALUMNOS_ABIERTO--><g class="link" data-entity-1="ent0001" data-entity-2="ent0005" id="lnk12" data-source-line="43" data-link-type="dependency"><path d="M301.55,472.76 C324.71,560.69 346.847,644.745 357.777,686.265" style="stroke:#008000;stroke-width:1;" fill="none" id="abrirAlumnos-to-ALUMNOS_ABIERTO"/><polygon points="359.05,691.1,360.627,681.378,357.777,686.265,352.891,683.415,359.05,691.1" fill="#008000" style="stroke:#008000;stroke-width:1;stroke-linejoin:miter;stroke-miterlimit:10;"/><path d="M340.43,569.3 L340.43,594.3 L483.43,594.3 L483.43,579.3 L473.43,569.3 L340.43,569.3" style="stroke:#808080;stroke-width:0.5;" fill="#FFFFE0"/><path d="M473.43,569.3 L473.43,579.3 L483.43,579.3 L473.43,569.3" style="stroke:#808080;stroke-width:0.5;" fill="#FFFFE0"/><text x="346.43" y="586.367" fill="#000" font-size="13" textLength="122.751">importarAlumnos()</text></g><!--link abrirAlumnos to ALUMNO_DETALLE_ABIERTO--><g class="link" data-entity-1="ent0001" data-entity-2="ent0004" id="lnk13" data-source-line="48" data-link-type="dependency"><path d="M168.1,472.42 C151.91,524.3 139.43,564.3 139.43,564.3 C139.43,564.3 127.373,643.417 120.873,686.097" style="stroke:#008000;stroke-width:1;" fill="none" id="abrirAlumnos-to-ALUMNO_DETALLE_ABIERTO"/><polygon points="120.12,691.04,125.429,682.745,120.873,686.097,117.521,681.54,120.12,691.04" fill="#008000" style="stroke:#008000;stroke-width:1;stroke-linejoin:miter;stroke-miterlimit:10;"/><path d="M144.43,569.3 L144.43,594.3 L285.43,594.3 L285.43,579.3 L275.43,569.3 L144.43,569.3" style="stroke:#808080;stroke-width:0.5;" fill="#FFFFE0"/><path d="M275.43,569.3 L275.43,579.3 L285.43,579.3 L275.43,569.3" style="stroke:#808080;stroke-width:0.5;" fill="#FFFFE0"/><text x="150.43" y="586.367" fill="#000" font-size="13" textLength="120.117">consultarAlumno()</text></g><?plantuml-src bLJRQXin47tNLmp9IrDYqXhQfs1m4WSAZctgv2c4CDwTEC9QpJAIMqm9v5lwtg_8d_HBgbqbwrtV6cjXBqTdPiuSIUjcskOec87bb1pbyFMJSXKeQ6TheD6M_28doDaiYe_Qt80zdM4ocmhFRNhEXYNmfuz-GSRmprKcIqeIMLF1HMrwx74zq-7bb-9QewscKQw0uG0degLhvfbbz-7e0D117O9VIa4Ohsme2IDq_7apt8xqsuztqBezd0gHlMjrOWIKKpOq1MmBYsOb070wwOmf4V8eBt_mz6JI0ST69zfZ50COrPHyicbC4eQgRh72QitshfBQUSfYkPmaqu6KiVE2nNg4pY2bHc60ly-_mw9a4w5ZI3cPPsGz7qF28XIU589IReXi2cpl9t2R9m_QB5Nkqr0CJF7T4iCwxY5Gw8Ts20Qt-RTD95fFbcGPIHRo0A8nMBD-zCf_CqA2yzRDJV4M2-qawondMNARkqazLKUYsx-v6WplBthNtNw_Tzyz-zRxVZqij_ZcgMRWU4D4XIdLE5rBhrl1xLLkwReKluQQzszTL6TMLItyF_UQyeqbAbTZgbg9Vm00?></g></svg>