<svg xmlns="http://www.w3.org/2000/svg" xmlns:xlink="http://www.w3.org/1999/xlink" version="1.1" data-diagram-type="STATE" style="width:756px;height:770px;background:#FFFFFF;" width="756px" height="770px" viewBox="0 0 756 770" zoomAndPan="magnify" preserveAspectRatio="none" contentStyleType="text/css"><?plantuml 1.2026.7beta8?><defs/><g font-family="sans-serif" lengthAdjust="spacing"><g class="entity" data-qualified-name="abrirMatriculas" id="ent0001" data-source-line="9"><path d="M209.84,7 L587.84,7 A12.5,12.5 0 0 1 600.34,19.5 L600.34,33.297 L197.34,33.297 L197.34,19.5 A12.5,12.5 0 0 1 209.84,7" fill="#F5F5F5"/><path d="M197.34,33.297 L600.34,33.297 L600.34,474.797 A12.5,12.5 0 0 1 587.84,487.297 L209.84,487.297 A12.5,12.5 0 0 1 197.34,474.797 L197.34,33.297" fill="#F5F5F5"/><rect x="197.34" y="7" width="403" height="480.297" fill="none" style="stroke:#808080;stroke-width:0.5;" rx="12.5" ry="12.5"/><line x1="197.34" y1="33.297" x2="600.34" y2="33.297" style="stroke:#808080;stroke-width:0.5;"/><text x="340.882" y="24.995" fill="#000" font-size="14" textLength="115.917">abrirMatriculas()</text><g class="entity" data-qualified-name="abrirMatriculas.Paso1" id="ent0002" data-source-line="11"><rect x="209.34" y="135.297" width="50" height="50" fill="#F5F5F5" style="stroke:#808080;stroke-width:0.5;" rx="12.5" ry="12.5"/><line x1="209.34" y1="161.594" x2="259.34" y2="161.594" style="stroke:#808080;stroke-width:0.5;"/><text x="232.115" y="153.292" fill="#000" font-size="14"> </text></g><g class="entity" data-qualified-name="abrirMatriculas.Paso2" id="ent0003" data-source-line="12"><rect x="209.34" y="271.297" width="50" height="50" fill="#F5F5F5" style="stroke:#808080;stroke-width:0.5;" rx="12.5" ry="12.5"/><line x1="209.34" y1="297.594" x2="259.34" y2="297.594" style="stroke:#808080;stroke-width:0.5;"/><text x="232.115" y="289.292" fill="#000" font-size="14"> </text></g><g class="start_entity" data-qualified-name="abrirMatriculas..start.abrirMatriculas" id="ent0006" data-source-line="14"><ellipse cx="234.34" cy="54.297" rx="10" ry="10" fill="#222" style="stroke:#222;stroke-width:1;"/></g><g class="end_entity" data-qualified-name="abrirMatriculas..end.abrirMatriculas" id="ent0010" data-source-line="31"><ellipse cx="234.34" cy="463.297" rx="11" ry="11" fill="none" style="stroke:#222;stroke-width:1;"/><ellipse cx="234.34" cy="463.297" rx="6" ry="6" fill="#222" style="stroke:#222;stroke-width:1;"/></g><!--link *start*abrirMatriculas to Paso1--><g class="link" data-entity-1="ent0006" data-entity-2="ent0002" id="lnk7" data-source-line="14" data-link-type="dependency"><path d="M234.34,64.527 C234.34,80.237 234.34,107.657 234.34,130.167" style="stroke:#008000;stroke-width:1;" fill="none" id="*start*abrirMatriculas-to-Paso1"/><polygon points="234.34,135.167,238.34,126.167,234.34,130.167,230.34,126.167,234.34,135.167" fill="#008000" style="stroke:#008000;stroke-width:1;stroke-linejoin:miter;stroke-miterlimit:10;"/><path d="M239.34,87.297 L239.34,112.297 L492.34,112.297 L492.34,97.297 L482.34,87.297 L239.34,87.297" style="stroke:#808080;stroke-width:0.5;" fill="#FFFFE0"/><path d="M482.34,87.297 L482.34,97.297 L492.34,97.297 L482.34,87.297" style="stroke:#808080;stroke-width:0.5;" fill="#FFFFE0"/><text x="245.34" y="104.364" fill="#000" font-size="13" textLength="75.74" font-weight="700">Secretaría</text><text x="325.213" y="104.364" fill="#000" font-size="13" textLength="152.979">solicita abrir matrículas</text></g><!--link Paso1 to Paso2--><g class="link" data-entity-1="ent0002" data-entity-2="ent0003" id="lnk8" data-source-line="19" data-link-type="dependency"><path d="M234.34,185.567 C234.34,209.847 234.34,241.987 234.34,266.207" style="stroke:#008000;stroke-width:1;" fill="none" id="Paso1-to-Paso2"/><polygon points="234.34,271.207,238.34,262.207,234.34,266.207,230.34,262.207,234.34,271.207" fill="#008000" style="stroke:#008000;stroke-width:1;stroke-linejoin:miter;stroke-miterlimit:10;"/><path d="M239.34,208.297 L239.34,248.297 L553.34,248.297 L553.34,218.297 L543.34,208.297 L239.34,208.297" style="stroke:#808080;stroke-width:0.5;" fill="#FFFFE0"/><path d="M543.34,208.297 L543.34,218.297 L553.34,218.297 L543.34,208.297" style="stroke:#808080;stroke-width:0.5;" fill="#FFFFE0"/><text x="245.34" y="225.364" fill="#000" font-size="13" textLength="58.906" font-weight="700">Sistema</text><text x="308.379" y="225.364" fill="#000" font-size="13" textLength="230.369">permite mostrar lista de matrículas</text><text x="245.34" y="240.497" fill="#000" font-size="13" textLength="249.057">• Alumno, asignatura, periodo, estado</text></g><!--link Paso2 to Paso2--><g class="link" data-entity-1="ent0003" data-entity-2="ent0003" id="lnk9" data-source-line="25" data-link-type="dependency"><path d="M259.52,283.597 C269.25,283.037 277.34,287.267 277.34,296.297 C277.34,305.327 274.242,309.844 264.512,309.284" style="stroke:#008000;stroke-width:1;" fill="none" id="Paso2-to-Paso2"/><polygon points="259.52,308.997,268.275,313.507,264.512,309.284,268.735,305.521,259.52,308.997" fill="#008000" style="stroke:#008000;stroke-width:1;stroke-linejoin:miter;stroke-miterlimit:10;"/><path d="M282.34,276.297 L282.34,316.297 L554.34,316.297 L554.34,286.297 L544.34,276.297 L282.34,276.297" style="stroke:#808080;stroke-width:0.5;" fill="#FFFFE0"/><path d="M544.34,276.297 L544.34,286.297 L554.34,286.297 L544.34,276.297" style="stroke:#808080;stroke-width:0.5;" fill="#FFFFE0"/><text x="288.34" y="293.364" fill="#000" font-size="13" textLength="75.74" font-weight="700">Secretaría</text><text x="368.213" y="293.364" fill="#000" font-size="13" textLength="116.651">solicita filtrar lista</text><text x="288.34" y="308.497" fill="#000" font-size="13" textLength="58.906" font-weight="700">Sistema</text><text x="351.379" y="308.497" fill="#000" font-size="13" textLength="187.992">permite mostrar lista filtrada</text></g><!--link Paso2 to *end*abrirMatriculas--><g class="link" data-entity-1="ent0003" data-entity-2="ent0010" id="lnk11" data-source-line="31" data-link-type="dependency"><path d="M234.34,321.647 C234.34,358.397 234.34,421.477 234.34,447.147" style="stroke:#008000;stroke-width:1;" fill="none" id="Paso2-to-*end*abrirMatriculas"/><polygon points="234.34,452.147,238.34,443.147,234.34,447.147,230.34,443.147,234.34,452.147" fill="#008000" style="stroke:#008000;stroke-width:1;stroke-linejoin:miter;stroke-miterlimit:10;"/><path d="M239.34,344.297 L239.34,429.297 L576.34,429.297 L576.34,354.297 L566.34,344.297 L239.34,344.297" style="stroke:#808080;stroke-width:0.5;" fill="#FFFFE0"/><path d="M566.34,344.297 L566.34,354.297 L576.34,354.297 L566.34,344.297" style="stroke:#808080;stroke-width:0.5;" fill="#FFFFE0"/><text x="245.34" y="361.364" fill="#000" font-size="13" textLength="75.74" font-weight="700">Secretaría</text><text x="325.213" y="361.364" fill="#000" font-size="13" textLength="179.226">revisa la lista de matrículas</text><text x="245.34" y="376.497" fill="#000" font-size="13" textLength="58.906" font-weight="700">Sistema</text><text x="308.379" y="376.497" fill="#000" font-size="13" textLength="242.76">permite mantener la lista en pantalla</text><text x="245.34" y="391.629" fill="#000" font-size="13" textLength="316.938">• Permite solicitar consultar detalle de matrícula</text><text x="245.34" y="406.762" fill="#000" font-size="13" textLength="250.523">• Permite solicitar importar matrículas</text><text x="245.34" y="421.895" fill="#000" font-size="13" textLength="269.325">• Permite solicitar cerrar ciclo académico</text></g></g><g class="entity" data-qualified-name="MATRICULA_DETALLE_ABIERTA" id="ent0004" data-source-line="41"><rect x="7" y="706.3" width="237.677" height="50" fill="#F5F5F5" style="stroke:#808080;stroke-width:0.5;" rx="12.5" ry="12.5"/><line x1="7" y1="732.597" x2="244.677" y2="732.597" style="stroke:#808080;stroke-width:0.5;"/><text x="17" y="724.295" fill="#000" font-size="14" textLength="217.677">MATRICULA_DETALLE_ABIERTA</text></g><g class="entity" data-qualified-name="MATRICULAS_ABIERTO" id="ent0005" data-source-line="42"><rect x="424.44" y="706.3" width="178.806" height="50" fill="#F5F5F5" style="stroke:#808080;stroke-width:0.5;" rx="12.5" ry="12.5"/><line x1="424.44" y1="732.597" x2="603.246" y2="732.597" style="stroke:#808080;stroke-width:0.5;"/><text x="434.44" y="724.295" fill="#000" font-size="14" textLength="158.806">MATRICULAS_ABIERTO</text></g><!--link abrirMatriculas to MATRICULAS_ABIERTO--><g class="link" data-entity-1="ent0001" data-entity-2="ent0005" id="lnk12" data-source-line="44" data-link-type="dependency"><path d="M391.61,487.5 C390.04,539.5 388.84,579.3 388.84,579.3 C388.84,579.3 388.84,614.3 388.84,614.3 C388.84,614.3 447.315,668.569 483.965,702.579" style="stroke:#008000;stroke-width:1;" fill="none" id="abrirMatriculas-to-MATRICULAS_ABIERTO"/><polygon points="487.63,705.98,483.754,696.926,483.965,702.579,478.312,702.79,487.63,705.98" fill="#008000" style="stroke:#008000;stroke-width:1;stroke-linejoin:miter;stroke-miterlimit:10;"/><path d="M393.84,584.3 L393.84,609.3 L547.84,609.3 L547.84,594.3 L537.84,584.3 L393.84,584.3" style="stroke:#808080;stroke-width:0.5;" fill="#FFFFE0"/><path d="M537.84,584.3 L537.84,594.3 L547.84,594.3 L537.84,584.3" style="stroke:#808080;stroke-width:0.5;" fill="#FFFFE0"/><text x="399.84" y="601.367" fill="#000" font-size="13" textLength="133.352">importarMatriculas()</text></g><!--link abrirMatriculas to MATRICULAS_ABIERTO--><g class="link" data-entity-1="ent0001" data-entity-2="ent0005" id="lnk13" data-source-line="49" data-link-type="dependency"><path d="M518.1,487.5 C544.01,539.5 563.84,579.3 563.84,579.3 C563.84,579.3 563.84,614.3 563.84,614.3 C563.84,614.3 540.959,667.378 526.299,701.388" style="stroke:#008000;stroke-width:1;" fill="none" id="abrirMatriculas-to-MATRICULAS_ABIERTO-1"/><polygon points="524.32,705.98,531.556,699.298,526.299,701.388,524.209,696.132,524.32,705.98" fill="#008000" style="stroke:#008000;stroke-width:1;stroke-linejoin:miter;stroke-miterlimit:10;"/><path d="M568.84,584.3 L568.84,609.3 L741.84,609.3 L741.84,594.3 L731.84,584.3 L568.84,584.3" style="stroke:#808080;stroke-width:0.5;" fill="#FFFFE0"/><path d="M731.84,584.3 L731.84,594.3 L741.84,594.3 L731.84,584.3" style="stroke:#808080;stroke-width:0.5;" fill="#FFFFE0"/><text x="574.84" y="601.367" fill="#000" font-size="13" textLength="152.325">cerrarCicloAcademico()</text></g><!--link abrirMatriculas to MATRICULA_DETALLE_ABIERTA--><g class="link" data-entity-1="ent0001" data-entity-2="ent0004" id="lnk14" data-source-line="54" data-link-type="dependency"><path d="M230.43,487.5 C193.84,539.5 165.84,579.3 165.84,579.3 C165.84,579.3 144.85,658.527 133.55,701.207" style="stroke:#008000;stroke-width:1;" fill="none" id="abrirMatriculas-to-MATRICULA_DETALLE_ABIERTA"/><polygon points="132.27,706.04,138.44,698.364,133.55,701.207,130.707,696.316,132.27,706.04" fill="#008000" style="stroke:#008000;stroke-width:1;stroke-linejoin:miter;stroke-miterlimit:10;"/><path d="M170.84,584.3 L170.84,609.3 L368.84,609.3 L368.84,594.3 L358.84,584.3 L170.84,584.3" style="stroke:#808080;stroke-width:0.5;" fill="#FFFFE0"/><path d="M358.84,584.3 L358.84,594.3 L368.84,594.3 L358.84,584.3" style="stroke:#808080;stroke-width:0.5;" fill="#FFFFE0"/><text x="176.84" y="601.367" fill="#000" font-size="13" textLength="177.011">consultarDetalleMatricula()</text></g><?plantuml-src hLJ1Qjj04BthAuRaqfQOjeRs50oAuqB0QKFida88OsdYBbxjYjbLYoc5VajlFUGh_2VzakvgRLcMP5ENo62acNdpthpHoYo4of4n0wLJCfJ3-pUHgOACQj4AIg78BdE2NCkbVwZbFcfB5vWivgmBbGwrrEpgvr_iagJKtvgLcbFYK3LdNDRI4uljJgSVtlbVgwpP9Z8-32SuOy7NQ5aaXKJpukK9e8565Bv74RXhZO6ovWQDVjiTxeVokrVtqBixdJEHkkyD0WBAb7AZWLRUg4KP03YV3IQKC5darHEUlvuDm6Wf4c4nw87C2LezbOfA3AaqD79NLFq5bYPl_n2jC9QoG9aJPy8LPTfOHhyPDnsar287-FFp5yIoo9G-SuEBkK9RC9xv5aAdBaWEckeTgRio-yV9tEVEev1RhSUC5O0f_hD4jz4Z139z5GP1uY4Nzmb5PKaHRz6a87T1b19h2xXPrs_CO4YqCeNqTodvQjhbFOWLMQxPttHlkuECsDkPY4Hgm0JJrUzC98sT_wXEstKylRqQVXx73vUZQJmUZnxYYwlHxJGkZyxUR0i-MMS-xUAgS1GrJ_1sYpstnmv4kLBstw7QOZT-r3yGKJNNCv443uVUmjWvIDx0_w5fkTRDjdazBiFRKVMjKVu5?></g></svg>