<svg xmlns="http://www.w3.org/2000/svg" xmlns:xlink="http://www.w3.org/1999/xlink" version="1.1" data-diagram-type="STATE" style="width:692px;height:770px;background:#FFFFFF;" width="692px" height="770px" viewBox="0 0 692 770" zoomAndPan="magnify" preserveAspectRatio="none" contentStyleType="text/css"><?plantuml 1.2026.7beta8?><defs/><g font-family="sans-serif" lengthAdjust="spacing"><g class="entity" data-qualified-name="abrirDispensas" id="ent0001" data-source-line="9"><path d="M52,7 L490,7 A12.5,12.5 0 0 1 502.5,19.5 L502.5,33.297 L39.5,33.297 L39.5,19.5 A12.5,12.5 0 0 1 52,7" fill="#F5F5F5"/><path d="M39.5,33.297 L502.5,33.297 L502.5,474.797 A12.5,12.5 0 0 1 490,487.297 L52,487.297 A12.5,12.5 0 0 1 39.5,474.797 L39.5,33.297" fill="#F5F5F5"/><rect x="39.5" y="7" width="463" height="480.297" fill="none" style="stroke:#808080;stroke-width:0.5;" rx="12.5" ry="12.5"/><line x1="39.5" y1="33.297" x2="502.5" y2="33.297" style="stroke:#808080;stroke-width:0.5;"/><text x="213.353" y="24.995" fill="#000" font-size="14" textLength="115.295">abrirDispensas()</text><g class="entity" data-qualified-name="abrirDispensas.Paso1" id="ent0002" data-source-line="11"><rect x="51.5" y="135.297" width="50" height="50" fill="#F5F5F5" style="stroke:#808080;stroke-width:0.5;" rx="12.5" ry="12.5"/><line x1="51.5" y1="161.594" x2="101.5" y2="161.594" style="stroke:#808080;stroke-width:0.5;"/><text x="74.275" y="153.292" fill="#000" font-size="14"> </text></g><g class="entity" data-qualified-name="abrirDispensas.Paso2" id="ent0003" data-source-line="12"><rect x="51.5" y="271.297" width="50" height="50" fill="#F5F5F5" style="stroke:#808080;stroke-width:0.5;" rx="12.5" ry="12.5"/><line x1="51.5" y1="297.594" x2="101.5" y2="297.594" style="stroke:#808080;stroke-width:0.5;"/><text x="74.275" y="289.292" fill="#000" font-size="14"> </text></g><g class="start_entity" data-qualified-name="abrirDispensas..start.abrirDispensas" id="ent0005" data-source-line="14"><ellipse cx="76.5" cy="54.297" rx="10" ry="10" fill="#222" style="stroke:#222;stroke-width:1;"/></g><g class="end_entity" data-qualified-name="abrirDispensas..end.abrirDispensas" id="ent0009" data-source-line="31"><ellipse cx="76.5" cy="463.297" rx="11" ry="11" fill="none" style="stroke:#222;stroke-width:1;"/><ellipse cx="76.5" cy="463.297" rx="6" ry="6" fill="#222" style="stroke:#222;stroke-width:1;"/></g><!--link *start*abrirDispensas to Paso1--><g class="link" data-entity-1="ent0005" data-entity-2="ent0002" id="lnk6" data-source-line="14" data-link-type="dependency"><path d="M76.5,64.527 C76.5,80.237 76.5,107.657 76.5,130.167" style="stroke:#008000;stroke-width:1;" fill="none" id="*start*abrirDispensas-to-Paso1"/><polygon points="76.5,135.167,80.5,126.167,76.5,130.167,72.5,126.167,76.5,135.167" fill="#008000" style="stroke:#008000;stroke-width:1;stroke-linejoin:miter;stroke-miterlimit:10;"/><path d="M81.5,87.297 L81.5,112.297 L331.5,112.297 L331.5,97.297 L321.5,87.297 L81.5,87.297" style="stroke:#808080;stroke-width:0.5;" fill="#FFFFE0"/><path d="M321.5,87.297 L321.5,97.297 L331.5,97.297 L321.5,87.297" style="stroke:#808080;stroke-width:0.5;" fill="#FFFFE0"/><text x="87.5" y="104.364" fill="#000" font-size="13" textLength="75.74" font-weight="700">Secretaría</text><text x="167.373" y="104.364" fill="#000" font-size="13" textLength="149.195">solicita abrir dispensas</text></g><!--link Paso1 to Paso2--><g class="link" data-entity-1="ent0002" data-entity-2="ent0003" id="lnk7" data-source-line="19" data-link-type="dependency"><path d="M76.5,185.567 C76.5,209.847 76.5,241.987 76.5,266.207" style="stroke:#008000;stroke-width:1;" fill="none" id="Paso1-to-Paso2"/><polygon points="76.5,271.207,80.5,262.207,76.5,266.207,72.5,262.207,76.5,271.207" fill="#008000" style="stroke:#008000;stroke-width:1;stroke-linejoin:miter;stroke-miterlimit:10;"/><path d="M81.5,208.297 L81.5,248.297 L478.5,248.297 L478.5,218.297 L468.5,208.297 L81.5,208.297" style="stroke:#808080;stroke-width:0.5;" fill="#FFFFE0"/><path d="M468.5,208.297 L468.5,218.297 L478.5,218.297 L468.5,208.297" style="stroke:#808080;stroke-width:0.5;" fill="#FFFFE0"/><text x="87.5" y="225.364" fill="#000" font-size="13" textLength="58.906" font-weight="700">Sistema</text><text x="150.539" y="225.364" fill="#000" font-size="13" textLength="313.396">permite mostrar lista de solicitudes de dispensa</text><text x="87.5" y="240.497" fill="#000" font-size="13" textLength="368.767">• Asignatura, periodo, horario y estado de cada solicitud</text></g><!--link Paso2 to Paso2--><g class="link" data-entity-1="ent0003" data-entity-2="ent0003" id="lnk8" data-source-line="25" data-link-type="dependency"><path d="M101.68,283.597 C111.41,283.037 119.5,287.267 119.5,296.297 C119.5,305.327 116.402,309.844 106.672,309.284" style="stroke:#008000;stroke-width:1;" fill="none" id="Paso2-to-Paso2"/><polygon points="101.68,308.997,110.435,313.507,106.672,309.284,110.895,305.521,101.68,308.997" fill="#008000" style="stroke:#008000;stroke-width:1;stroke-linejoin:miter;stroke-miterlimit:10;"/><path d="M124.5,276.297 L124.5,316.297 L396.5,316.297 L396.5,286.297 L386.5,276.297 L124.5,276.297" style="stroke:#808080;stroke-width:0.5;" fill="#FFFFE0"/><path d="M386.5,276.297 L386.5,286.297 L396.5,286.297 L386.5,276.297" style="stroke:#808080;stroke-width:0.5;" fill="#FFFFE0"/><text x="130.5" y="293.364" fill="#000" font-size="13" textLength="75.74" font-weight="700">Secretaría</text><text x="210.373" y="293.364" fill="#000" font-size="13" textLength="116.651">solicita filtrar lista</text><text x="130.5" y="308.497" fill="#000" font-size="13" textLength="58.906" font-weight="700">Sistema</text><text x="193.539" y="308.497" fill="#000" font-size="13" textLength="187.992">permite mostrar lista filtrada</text></g><!--link Paso2 to *end*abrirDispensas--><g class="link" data-entity-1="ent0003" data-entity-2="ent0009" id="lnk10" data-source-line="31" data-link-type="dependency"><path d="M76.5,321.647 C76.5,358.397 76.5,421.477 76.5,447.147" style="stroke:#008000;stroke-width:1;" fill="none" id="Paso2-to-*end*abrirDispensas"/><polygon points="76.5,452.147,80.5,443.147,76.5,447.147,72.5,443.147,76.5,452.147" fill="#008000" style="stroke:#008000;stroke-width:1;stroke-linejoin:miter;stroke-miterlimit:10;"/><path d="M81.5,344.297 L81.5,429.297 L407.5,429.297 L407.5,354.297 L397.5,344.297 L81.5,344.297" style="stroke:#808080;stroke-width:0.5;" fill="#FFFFE0"/><path d="M397.5,344.297 L397.5,354.297 L407.5,354.297 L397.5,344.297" style="stroke:#808080;stroke-width:0.5;" fill="#FFFFE0"/><text x="87.5" y="361.364" fill="#000" font-size="13" textLength="75.74" font-weight="700">Secretaría</text><text x="167.373" y="361.364" fill="#000" font-size="13" textLength="179.874">revisa la lista de solicitudes</text><text x="87.5" y="376.497" fill="#000" font-size="13" textLength="58.906" font-weight="700">Sistema</text><text x="150.539" y="376.497" fill="#000" font-size="13" textLength="242.76">permite mantener la lista en pantalla</text><text x="87.5" y="391.629" fill="#000" font-size="13" textLength="213.967">• Permite solicitar crear solicitud</text><text x="87.5" y="406.762" fill="#000" font-size="13" textLength="240.538">• Permite solicitar consultar solicitud</text><text x="87.5" y="421.895" fill="#000" font-size="13" textLength="218.436">• Permite solicitar editar solicitud</text></g></g><g class="entity" data-qualified-name="SOLICITUD_DISPENSA_ABIERTA" id="ent0004" data-source-line="41"><rect x="151.32" y="706.3" width="239.352" height="50" fill="#F5F5F5" style="stroke:#808080;stroke-width:0.5;" rx="12.5" ry="12.5"/><line x1="151.32" y1="732.597" x2="390.672" y2="732.597" style="stroke:#808080;stroke-width:0.5;"/><text x="161.32" y="724.295" fill="#000" font-size="14" textLength="219.352">SOLICITUD_DISPENSA_ABIERTA</text></g><!--link abrirDispensas to SOLICITUD_DISPENSA_ABIERTA--><g class="link" data-entity-1="ent0001" data-entity-2="ent0004" id="lnk11" data-source-line="43" data-link-type="dependency"><path d="M79.47,487.5 C37.85,539.5 6,579.3 6,579.3 C6,579.3 6,614.3 6,614.3 C6,614.3 132.8,669.805 210.54,703.835" style="stroke:#008000;stroke-width:1;" fill="none" id="abrirDispensas-to-SOLICITUD_DISPENSA_ABIERTA"/><polygon points="215.12,705.84,208.479,698.567,210.54,703.835,205.271,705.895,215.12,705.84" fill="#008000" style="stroke:#008000;stroke-width:1;stroke-linejoin:miter;stroke-miterlimit:10;"/><path d="M11,584.3 L11,609.3 L191,609.3 L191,594.3 L181,584.3 L11,584.3" style="stroke:#808080;stroke-width:0.5;" fill="#FFFFE0"/><path d="M181,584.3 L181,594.3 L191,594.3 L181,584.3" style="stroke:#808080;stroke-width:0.5;" fill="#FFFFE0"/><text x="17" y="601.367" fill="#000" font-size="13" textLength="159.345">crearSolicitudDispensa()</text></g><!--link abrirDispensas to SOLICITUD_DISPENSA_ABIERTA--><g class="link" data-entity-1="ent0001" data-entity-2="ent0004" id="lnk12" data-source-line="48" data-link-type="dependency"><path d="M263.77,487.5 C262.2,539.5 261,579.3 261,579.3 C261,579.3 261,614.3 261,614.3 C261,614.3 265.541,666.988 268.471,700.998" style="stroke:#008000;stroke-width:1;" fill="none" id="abrirDispensas-to-SOLICITUD_DISPENSA_ABIERTA-1"/><polygon points="268.9,705.98,272.113,696.67,268.471,700.998,264.142,697.357,268.9,705.98" fill="#008000" style="stroke:#008000;stroke-width:1;stroke-linejoin:miter;stroke-miterlimit:10;"/><path d="M266,584.3 L266,609.3 L472,609.3 L472,594.3 L462,584.3 L266,584.3" style="stroke:#808080;stroke-width:0.5;" fill="#FFFFE0"/><path d="M462,584.3 L462,594.3 L472,594.3 L462,584.3" style="stroke:#808080;stroke-width:0.5;" fill="#FFFFE0"/><text x="272" y="601.367" fill="#000" font-size="13" textLength="185.917">consultarSolicitudDispensa()</text></g><!--link abrirDispensas to SOLICITUD_DISPENSA_ABIERTA--><g class="link" data-entity-1="ent0001" data-entity-2="ent0004" id="lnk13" data-source-line="53" data-link-type="dependency"><path d="M427.84,487.5 C461.92,539.5 488,579.3 488,579.3 C488,579.3 488,614.3 488,614.3 C488,614.3 384.83,669.453 321.16,703.483" style="stroke:#008000;stroke-width:1;" fill="none" id="abrirDispensas-to-SOLICITUD_DISPENSA_ABIERTA-2"/><polygon points="316.75,705.84,326.573,705.125,321.16,703.483,322.802,698.07,316.75,705.84" fill="#008000" style="stroke:#008000;stroke-width:1;stroke-linejoin:miter;stroke-miterlimit:10;"/><path d="M493,584.3 L493,609.3 L677,609.3 L677,594.3 L667,584.3 L493,584.3" style="stroke:#808080;stroke-width:0.5;" fill="#FFFFE0"/><path d="M667,584.3 L667,594.3 L677,594.3 L667,584.3" style="stroke:#808080;stroke-width:0.5;" fill="#FFFFE0"/><text x="499" y="601.367" fill="#000" font-size="13" textLength="163.814">editarSolicitudDispensa()</text></g><?plantuml-src lLJRQXin47tVhnYIbwJ4j3MqJy7Wn2aOIcgwwLC8OMnDDyAoPXd9BKifz5lwtg_ed-HBAgsywrlinb2g1O56PywSEOFMJRKjKN06bXKvAk7jgyorGK4xtGeQRSbN9K79feg7bRjhzdI1asaXFBVgaWrBm1SFlY9Z-EicaaMH95GXMArSvnwtcOxVlOdV5coJ9dCn34Su5Yq3xKgo3jt9wH6WW_KWVCio26kH0JLaX8vVFntk9lZjYplet1uNGcJlEhsK0VML3Oq1ssZJj0u0d8zxEKs4FChlNtZ-Sjm3nqPFjCSa1rIZfyuWgn9DM5cxfHgRLRlxYchdQPOAbYGp7K0pTbumJYNq1eeQ9VCm_dXib2nO7d_yXBxJXKK_5poBD9eLdy431nRDK0458iKnTu8AbtnhhQotqJsiZLtUVTPcsSiXRQT4XS-M6EPzW42XBzeX67pIvRy8HUl9aYopoK8PWcZCwb162tnZXa3G4FPr-tTYsRgvyS_6azBRuDQux-sBop-y7ruERpuDxWV3V7HrdVVl-nV3guyt_Ve5xRxEiertkNI_4_pVarYFHE8_PcKmjHTvexPXFJdDMit_k5xZvt-icMQoh-0V?></g></svg>