<?xml version="1.0" encoding="us-ascii" standalone="no"?><svg xmlns="http://www.w3.org/2000/svg" xmlns:xlink="http://www.w3.org/1999/xlink" contentStyleType="text/css" height="739px" preserveAspectRatio="none" style="width:513px;height:739px;background:#FFFFFF;" version="1.1" viewBox="0 0 513 739" width="513px" zoomAndPan="magnify"><defs/><g><path d="M19.5,7 L365.5,7 A12.5,12.5 0 0 1 378,19.5 L378,34.6094 L7,34.6094 L7,19.5 A12.5,12.5 0 0 1 19.5,7 " fill="#F5F5F5" style="stroke:#F5F5F5;stroke-width:1.0;"/><rect fill="none" height="455.6094" rx="12.5" ry="12.5" style="stroke:#808080;stroke-width:0.5;" width="371" x="7" y="7"/><line style="stroke:#808080;stroke-width:0.5;" x1="7" x2="378" y1="34.6094" y2="34.6094"/><text fill="#000000" font-family="sans-serif" font-size="14" lengthAdjust="spacing" textLength="148" x="118.5" y="26.5332">cerrarCicloAcademico()</text><g id="cerrarCicloAcademico.Paso1"><rect fill="#F5F5F5" height="50" rx="12.5" ry="12.5" style="stroke:#808080;stroke-width:0.5;" width="50" x="19" y="137.6094"/><line style="stroke:#808080;stroke-width:0.5;" x1="19" x2="69" y1="165.2188" y2="165.2188"/><text fill="#000000" font-family="sans-serif" font-size="14" lengthAdjust="spacing" textLength="4" x="42" y="157.1426">&#160;</text></g><g id="cerrarCicloAcademico.Paso2"><rect fill="#F5F5F5" height="50" rx="12.5" ry="12.5" style="stroke:#808080;stroke-width:0.5;" width="50" x="19" y="275.6094"/><line style="stroke:#808080;stroke-width:0.5;" x1="19" x2="69" y1="303.2188" y2="303.2188"/><text fill="#000000" font-family="sans-serif" font-size="14" lengthAdjust="spacing" textLength="4" x="42" y="295.1426">&#160;</text></g><ellipse cx="44" cy="55.6094" fill="#222222" rx="10" ry="10" style="stroke:#222222;stroke-width:1.0;"/><ellipse cx="44" cy="441.6094" fill="none" rx="11" ry="11" style="stroke:#222222;stroke-width:1.0;"/><ellipse cx="44" cy="441.6094" fill="#222222" rx="6" ry="6" style="stroke:#222222;stroke-width:1.0;"/><!--link *start*cerrarCicloAcademico to Paso1--><g id="link_*start*cerrarCicloAcademico_Paso1"><path d="M44,65.9294 C44,81.7894 44,108.5194 44,131.2494 " fill="none" id="*start*cerrarCicloAcademico-to-Paso1" style="stroke:#008000;stroke-width:1.0;"/><polygon fill="#008000" points="44,137.2494,48,128.2494,44,132.2494,40,128.2494,44,137.2494" style="stroke:#008000;stroke-width:1.0;"/><path d="M49,88.6094 L49,114.6094 L369,114.6094 L369,98.6094 L359,88.6094 L49,88.6094 " fill="#FFFFE0" style="stroke:#808080;stroke-width:0.5;"/><path d="M359,88.6094 L359,98.6094 L369,98.6094 L359,88.6094 " fill="#FFFFE0" style="stroke:#808080;stroke-width:0.5;"/><text fill="#000000" font-family="sans-serif" font-size="13" font-weight="bold" lengthAdjust="spacing" textLength="66" x="55" y="107.1045">Secretar&#237;a</text><text fill="#000000" font-family="sans-serif" font-size="13" lengthAdjust="spacing" textLength="229" x="125" y="107.1045">solicita cerrar el ciclo acad&#233;mico actual</text></g><!--link Paso1 to Paso2--><g id="link_Paso1_Paso2"><path d="M44,187.6094 C44,212.3194 44,244.6094 44,269.3894 " fill="none" id="Paso1-to-Paso2" style="stroke:#008000;stroke-width:1.0;"/><polygon fill="#008000" points="44,275.3894,48,266.3894,44,270.3894,40,266.3894,44,275.3894" style="stroke:#008000;stroke-width:1.0;"/><path d="M49,210.6094 L49,252.6094 L354,252.6094 L354,220.6094 L344,210.6094 L49,210.6094 " fill="#FFFFE0" style="stroke:#808080;stroke-width:0.5;"/><path d="M344,210.6094 L344,220.6094 L354,220.6094 L344,210.6094 " fill="#FFFFE0" style="stroke:#808080;stroke-width:0.5;"/><text fill="#000000" font-family="sans-serif" font-size="13" font-weight="bold" lengthAdjust="spacing" textLength="51" x="55" y="229.1045">Sistema</text><text fill="#000000" font-family="sans-serif" font-size="13" lengthAdjust="spacing" textLength="207" x="110" y="229.1045">permite acceder al m&#243;dulo de cierre</text><text fill="#000000" font-family="sans-serif" font-size="13" lengthAdjust="spacing" textLength="284" x="55" y="245.4561">&#8226; Muestra informaci&#243;n del ciclo para confirmaci&#243;n</text></g><!--link Paso2 to *end*cerrarCicloAcademico--><g id="link_Paso2_*end*cerrarCicloAcademico"><path d="M44,325.8194 C44,356.6194 44,402.4494 44,424.3494 " fill="none" id="Paso2-to-*end*cerrarCicloAcademico" style="stroke:#008000;stroke-width:1.0;"/><polygon fill="#008000" points="44,430.3494,48,421.3494,44,425.3494,40,421.3494,44,430.3494" style="stroke:#008000;stroke-width:1.0;"/><path d="M49,348.6094 L49,407.6094 L286,407.6094 L286,358.6094 L276,348.6094 L49,348.6094 " fill="#FFFFE0" style="stroke:#808080;stroke-width:0.5;"/><path d="M276,348.6094 L276,358.6094 L286,358.6094 L276,348.6094 " fill="#FFFFE0" style="stroke:#808080;stroke-width:0.5;"/><text fill="#000000" font-family="sans-serif" font-size="13" font-weight="bold" lengthAdjust="spacing" textLength="66" x="55" y="367.1045">Secretar&#237;a</text><text fill="#000000" font-family="sans-serif" font-size="13" lengthAdjust="spacing" textLength="117" x="125" y="367.1045">revisa la informaci&#243;n</text><text fill="#000000" font-family="sans-serif" font-size="13" lengthAdjust="spacing" textLength="196" x="55" y="383.4561">&#8226; Permite solicitar confirmar cierre</text><text fill="#000000" font-family="sans-serif" font-size="13" lengthAdjust="spacing" textLength="216" x="55" y="399.8076">&#8226; Permite solicitar cancelar operaci&#243;n</text></g><g id="MATRICULAS_ABIERTO"><rect fill="#F5F5F5" height="50" rx="12.5" ry="12.5" style="stroke:#808080;stroke-width:0.5;" width="175" x="105" y="683"/><line style="stroke:#808080;stroke-width:0.5;" x1="105" x2="280" y1="710.6094" y2="710.6094"/><text fill="#000000" font-family="sans-serif" font-size="14" lengthAdjust="spacing" textLength="155" x="115" y="702.5332">MATRICULAS_ABIERTO</text></g><!--link cerrarCicloAcademico to MATRICULAS_ABIERTO--><g id="link_cerrarCicloAcademico_MATRICULAS_ABIERTO"><path d="M87.82,463.16 C63.97,514.91 45.5,555 45.5,555 C45.5,555 45.5,591 45.5,591 C45.5,591 114.2694,645.2738 157.3294,679.2438 " fill="none" id="cerrarCicloAcademico-to-MATRICULAS_ABIERTO" style="stroke:#008000;stroke-width:1.0;"/><polygon fill="#008000" points="162.04,682.96,157.4515,674.2453,158.1145,679.8632,152.4966,680.5261,162.04,682.96" style="stroke:#008000;stroke-width:1.0;"/><path d="M50.5,560 L50.5,586 L250.5,586 L250.5,570 L240.5,560 L50.5,560 " fill="#FFFFE0" style="stroke:#808080;stroke-width:0.5;"/><path d="M240.5,560 L240.5,570 L250.5,570 L240.5,560 " fill="#FFFFE0" style="stroke:#808080;stroke-width:0.5;"/><text fill="#000000" font-family="sans-serif" font-size="13" lengthAdjust="spacing" textLength="179" x="56.5" y="578.4951">abrirMatriculas() - ciclo cerrado</text></g><!--link cerrarCicloAcademico to MATRICULAS_ABIERTO--><g id="link_cerrarCicloAcademico_MATRICULAS_ABIERTO"><path d="M245.2,463.16 C257.2,514.91 266.5,555 266.5,555 C266.5,555 266.5,591 266.5,591 C266.5,591 232.7379,643.9323 211.0579,677.9023 " fill="none" id="cerrarCicloAcademico-to-MATRICULAS_ABIERTO-1" style="stroke:#0000FF;stroke-width:1.0;"/><polygon fill="#0000FF" points="207.83,682.96,216.0437,677.5253,210.5199,678.7452,209.3,673.2215,207.83,682.96" style="stroke:#0000FF;stroke-width:1.0;"/><path d="M271.5,560 L271.5,586 L506.5,586 L506.5,570 L496.5,560 L271.5,560 " fill="#FFFFE0" style="stroke:#808080;stroke-width:0.5;"/><path d="M496.5,560 L496.5,570 L506.5,570 L496.5,560 " fill="#FFFFE0" style="stroke:#808080;stroke-width:0.5;"/><text fill="#000000" font-family="sans-serif" font-size="13" lengthAdjust="spacing" textLength="214" x="277.5" y="578.4951">abrirMatriculas() - cancelar operaci&#243;n</text></g><!--SRC=[hLF1Qjj04BthAuRuuWHCMqDp2WR7D62ecn0d9nF2U3Ln5gzsnEmgnPH2lgMt7dhA9_XFyYLPhML7iPH2eT95UlDctfkdbLjgcwDW1fPJSfJ3ySV4xK11kso0HblogvmWPxCgNsgrR-pf5DLo8LpOTCI69V0Nztv5nl3tVIPBIh9XBGHNjVBKOtDIv-npUJTe-sCILy9me4W4PQILuQ72b3Ajk7ju0EYWhGG_aWJ2LNL395wWuq_jS7z3dntTG6_MMGYHlUaDQXqsx0XioyIM4G0ucG-cf8GyoleFddoO3y2nqKfxh3m16L2bBy1WRFqxEaFb2pHn1jaq3jw8Hx66VFzlyjfvoZRIEKcc0mcLeX0Xe85i_PGMGJobu28Oeghp-V4NJ0foNX2qlMF9KEdramt4hT_oau1YUwUtnNSCzzyO3ldzGrf23zeXcBSkQYOlgfssiShEaZGtQY6ZLMJ20uTmshRukJjUa-7LvNXq_NKulHsUZhzSNft7ez64awJrkBs6q0injBJ5HAJyVMgvu5oqJD2BLeL1rps4NfL_54avUGtyFTcvAUW_gBP4jTL-0G00]--></g></svg>