<svg xmlns="http://www.w3.org/2000/svg" xmlns:xlink="http://www.w3.org/1999/xlink" version="1.1" data-diagram-type="STATE" style="width:461px;height:785px;background:#FFFFFF;" width="461px" height="785px" viewBox="0 0 461 785" zoomAndPan="magnify" preserveAspectRatio="none" contentStyleType="text/css"><?plantuml 1.2026.7beta8?><defs/><g font-family="sans-serif" lengthAdjust="spacing"><g class="entity" data-qualified-name="cerrarCicloAcademico" id="ent0001" data-source-line="9"><path d="M19.5,7 L433.5,7 A12.5,12.5 0 0 1 446,19.5 L446,33.297 L7,33.297 L7,19.5 A12.5,12.5 0 0 1 19.5,7" fill="#F5F5F5"/><path d="M7,33.297 L446,33.297 L446,489.797 A12.5,12.5 0 0 1 433.5,502.297 L19.5,502.297 A12.5,12.5 0 0 1 7,489.797 L7,33.297" fill="#F5F5F5"/><rect x="7" y="7" width="439" height="495.297" fill="none" style="stroke:#808080;stroke-width:0.5;" rx="12.5" ry="12.5"/><line x1="7" y1="33.297" x2="446" y2="33.297" style="stroke:#808080;stroke-width:0.5;"/><text x="144.479" y="24.995" fill="#000" font-size="14" textLength="164.042">cerrarCicloAcademico()</text><g class="entity" data-qualified-name="cerrarCicloAcademico.Paso1" id="ent0002" data-source-line="11"><rect x="19" y="135.297" width="50" height="50" fill="#F5F5F5" style="stroke:#808080;stroke-width:0.5;" rx="12.5" ry="12.5"/><line x1="19" y1="161.594" x2="69" y2="161.594" style="stroke:#808080;stroke-width:0.5;"/><text x="41.775" y="153.292" fill="#000" font-size="14"> </text></g><g class="entity" data-qualified-name="cerrarCicloAcademico.Paso2" id="ent0003" data-source-line="12"><rect x="19" y="316.297" width="50" height="50" fill="#F5F5F5" style="stroke:#808080;stroke-width:0.5;" rx="12.5" ry="12.5"/><line x1="19" y1="342.594" x2="69" y2="342.594" style="stroke:#808080;stroke-width:0.5;"/><text x="41.775" y="334.292" fill="#000" font-size="14"> </text></g><g class="start_entity" data-qualified-name="cerrarCicloAcademico..start.cerrarCicloAcademico" id="ent0005" data-source-line="14"><ellipse cx="44" cy="54.297" rx="10" ry="10" fill="#222" style="stroke:#222;stroke-width:1;"/></g><g class="end_entity" data-qualified-name="cerrarCicloAcademico..end.cerrarCicloAcademico" id="ent0008" data-source-line="28"><ellipse cx="44" cy="478.297" rx="11" ry="11" fill="none" style="stroke:#222;stroke-width:1;"/><ellipse cx="44" cy="478.297" rx="6" ry="6" fill="#222" style="stroke:#222;stroke-width:1;"/></g><!--link *start*cerrarCicloAcademico to Paso1--><g class="link" data-entity-1="ent0005" data-entity-2="ent0002" id="lnk6" data-source-line="14" data-link-type="dependency"><path d="M44,64.527 C44,80.237 44,107.657 44,130.167" style="stroke:#008000;stroke-width:1;" fill="none" id="*start*cerrarCicloAcademico-to-Paso1"/><polygon points="44,135.167,48,126.167,44,130.167,40,126.167,44,135.167" fill="#008000" style="stroke:#008000;stroke-width:1;stroke-linejoin:miter;stroke-miterlimit:10;"/><path d="M49,87.297 L49,112.297 L407,112.297 L407,97.297 L397,87.297 L49,87.297" style="stroke:#808080;stroke-width:0.5;" fill="#FFFFE0"/><path d="M397,87.297 L397,97.297 L407,97.297 L397,87.297" style="stroke:#808080;stroke-width:0.5;" fill="#FFFFE0"/><text x="55" y="104.364" fill="#000" font-size="13" textLength="75.74" font-weight="700">Secretaría</text><text x="134.873" y="104.364" fill="#000" font-size="13" textLength="257.397">solicita cerrar el ciclo académico actual</text></g><!--link Paso1 to Paso2--><g class="link" data-entity-1="ent0002" data-entity-2="ent0003" id="lnk7" data-source-line="19" data-link-type="dependency"><path d="M44,185.437 C44,219.597 44,276.697 44,310.967" style="stroke:#008000;stroke-width:1;" fill="none" id="Paso1-to-Paso2"/><polygon points="44,315.967,48,306.967,44,310.967,40,306.967,44,315.967" fill="#008000" style="stroke:#008000;stroke-width:1;stroke-linejoin:miter;stroke-miterlimit:10;"/><path d="M49,208.297 L49,293.297 L422,293.297 L422,218.297 L412,208.297 L49,208.297" style="stroke:#808080;stroke-width:0.5;" fill="#FFFFE0"/><path d="M412,208.297 L412,218.297 L422,218.297 L412,208.297" style="stroke:#808080;stroke-width:0.5;" fill="#FFFFE0"/><text x="55" y="225.364" fill="#000" font-size="13" textLength="58.906" font-weight="700">Sistema</text><text x="118.039" y="225.364" fill="#000" font-size="13" textLength="237.428">permite acceder al módulo de cierre</text><text x="55" y="240.497" fill="#000" font-size="13" textLength="273.978">y muestra información para confirmación:</text><text x="55" y="255.629" fill="#000" font-size="13" textLength="203.868">• Ciclo Actual y Estado General</text><text x="55" y="270.762" fill="#000" font-size="13" textLength="352.822">• Verificación de actas cerradas y dispensas resueltas</text><text x="55" y="285.895" fill="#000" font-size="13" textLength="302.701">• Verificación de copia de seguridad generada</text></g><!--link Paso2 to *end*cerrarCicloAcademico--><g class="link" data-entity-1="ent0003" data-entity-2="ent0008" id="lnk9" data-source-line="28" data-link-type="dependency"><path d="M44,366.747 C44,396.527 44,440.507 44,461.837" style="stroke:#008000;stroke-width:1;" fill="none" id="Paso2-to-*end*cerrarCicloAcademico"/><polygon points="44,466.837,48,457.837,44,461.837,40,457.837,44,466.837" fill="#008000" style="stroke:#008000;stroke-width:1;stroke-linejoin:miter;stroke-miterlimit:10;"/><path d="M49,389.297 L49,444.297 L315,444.297 L315,399.297 L305,389.297 L49,389.297" style="stroke:#808080;stroke-width:0.5;" fill="#FFFFE0"/><path d="M305,389.297 L305,399.297 L315,399.297 L305,389.297" style="stroke:#808080;stroke-width:0.5;" fill="#FFFFE0"/><text x="55" y="406.364" fill="#000" font-size="13" textLength="75.74" font-weight="700">Secretaría</text><text x="134.873" y="406.364" fill="#000" font-size="13" textLength="136.538">revisa la información</text><text x="55" y="421.497" fill="#000" font-size="13" textLength="226.161">• Permite solicitar confirmar cierre</text><text x="55" y="436.629" fill="#000" font-size="13" textLength="245.756">• Permite solicitar cancelar operación</text></g></g><g class="entity" data-qualified-name="MATRICULAS_ABIERTO" id="ent0004" data-source-line="36"><rect x="137.1" y="721.3" width="178.806" height="50" fill="#F5F5F5" style="stroke:#808080;stroke-width:0.5;" rx="12.5" ry="12.5"/><line x1="137.1" y1="747.597" x2="315.906" y2="747.597" style="stroke:#808080;stroke-width:0.5;"/><text x="147.1" y="739.295" fill="#000" font-size="14" textLength="158.806">MATRICULAS_ABIERTO</text></g><!--link cerrarCicloAcademico to MATRICULAS_ABIERTO--><g class="link" data-entity-1="ent0001" data-entity-2="ent0004" id="lnk10" data-source-line="38" data-link-type="dependency"><path d="M145.54,502.66 C128.47,554.74 115.5,594.3 115.5,594.3 C115.5,594.3 115.5,629.3 115.5,629.3 C115.5,629.3 167.223,683.358 199.773,717.368" style="stroke:#008000;stroke-width:1;" fill="none" id="cerrarCicloAcademico-to-MATRICULAS_ABIERTO"/><polygon points="203.23,720.98,199.897,711.712,199.773,717.368,194.117,717.244,203.23,720.98" fill="#008000" style="stroke:#008000;stroke-width:1;stroke-linejoin:miter;stroke-miterlimit:10;"/><path d="M120.5,599.3 L120.5,624.3 L248.5,624.3 L248.5,609.3 L238.5,599.3 L120.5,599.3" style="stroke:#808080;stroke-width:0.5;" fill="#FFFFE0"/><path d="M238.5,599.3 L238.5,609.3 L248.5,609.3 L238.5,599.3" style="stroke:#808080;stroke-width:0.5;" fill="#FFFFE0"/><text x="126.5" y="616.367" fill="#000" font-size="13" textLength="107.637">abrirMatriculas()</text></g><!--link cerrarCicloAcademico to MATRICULAS_ABIERTO--><g class="link" data-entity-1="ent0001" data-entity-2="ent0004" id="lnk11" data-source-line="43" data-link-type="dependency"><path d="M254.22,502.66 C260.06,554.74 264.5,594.3 264.5,594.3 C264.5,594.3 264.5,629.3 264.5,629.3 C264.5,629.3 247.166,682.218 236.026,716.228" style="stroke:#00F;stroke-width:1;" fill="none" id="cerrarCicloAcademico-to-MATRICULAS_ABIERTO-1"/><polygon points="234.47,720.98,241.073,713.672,236.026,716.228,233.47,711.182,234.47,720.98" fill="#00F" style="stroke:#00F;stroke-width:1;stroke-linejoin:miter;stroke-miterlimit:10;"/><path d="M269.5,599.3 L269.5,624.3 L414.5,624.3 L414.5,609.3 L404.5,599.3 L269.5,599.3" style="stroke:#808080;stroke-width:0.5;" fill="#FFFFE0"/><path d="M404.5,599.3 L404.5,609.3 L414.5,609.3 L404.5,599.3" style="stroke:#808080;stroke-width:0.5;" fill="#FFFFE0"/><text x="275.5" y="616.367" fill="#000" font-size="13" textLength="124.021">cancelar operación</text></g><?plantuml-src bLFDQjj04BxhAORaaXHCMqDxAC6WcBG4cZR4QIyXbF7kM5sysXMpgnPH2dsMtdBeAO_WD-cJT7Sjgt9a1u8GZERd-xxzHkkMobJ8M8AnaXnLyFf5vheaeraEabePyar5K5dTn8zUxOFrT8fYMR2jZPnQRJdq5rzzGrhRxmyxBKlYTLV1sFJACuz3fCEth-8pQ7i8axcOXWD1pCXJ9RJD1KegbR17nmU03dQLu4S60F655W1IxoKw-t9tUjnDt3oxXT7DOS54vdOqwGsPS5Am9lgsJ0c0a_baHeB98w_-uCdp-GISrKeeZwqo80qYgWCCybPtIHyANwDE66Ha0kxu4zz0mVWn1SfvAjVi5N6fGXCAGS5BG0tbwbxMWLzI418qKJlPG5cJyuoWpC9oYKAjxWt4VO2mPg4sgJVjmDzVlo4P3NdI7n3EWf7ImZionEs1rdsVYTL2YHPJHa5-ioqPWWQaSXKP5s8cLvCEvSVcXQqKni1HKREIAA58h1Bt-pZUyZ5izWbxPFgc78BUjgSdyRArUhDmxbpZRQFtDACHf4DWmyvwuDr1VdQ__qL-VNK-_VG-dtt9Jy_Fhgu_flzscCwodTVXlmcZOCEEiUG8n-lTymNdhFW2FIjHQtH7nradRI_DNDVqD9PTDcnu_W40?></g></svg>