<svg xmlns="http://www.w3.org/2000/svg" xmlns:xlink="http://www.w3.org/1999/xlink" version="1.1" data-diagram-type="STATE" style="width:505px;height:770px;background:#FFFFFF;" width="505px" height="770px" viewBox="0 0 505 770" zoomAndPan="magnify" preserveAspectRatio="none" contentStyleType="text/css"><?plantuml 1.2026.7beta8?><defs/><g font-family="sans-serif" lengthAdjust="spacing"><g class="entity" data-qualified-name="consultarSolicitudDispensa" id="ent0001" data-source-line="9"><path d="M59.68,7 L455.68,7 A12.5,12.5 0 0 1 468.18,19.5 L468.18,33.297 L47.18,33.297 L47.18,19.5 A12.5,12.5 0 0 1 59.68,7" fill="#F5F5F5"/><path d="M47.18,33.297 L468.18,33.297 L468.18,474.797 A12.5,12.5 0 0 1 455.68,487.297 L59.68,487.297 A12.5,12.5 0 0 1 47.18,474.797 L47.18,33.297" fill="#F5F5F5"/><rect x="47.18" y="7" width="421" height="480.297" fill="none" style="stroke:#808080;stroke-width:0.5;" rx="12.5" ry="12.5"/><line x1="47.18" y1="33.297" x2="468.18" y2="33.297" style="stroke:#808080;stroke-width:0.5;"/><text x="157.571" y="24.995" fill="#000" font-size="14" textLength="200.218">consultarSolicitudDispensa()</text><g class="entity" data-qualified-name="consultarSolicitudDispensa.Paso1" id="ent0002" data-source-line="11"><rect x="59.18" y="135.297" width="50" height="50" fill="#F5F5F5" style="stroke:#808080;stroke-width:0.5;" rx="12.5" ry="12.5"/><line x1="59.18" y1="161.594" x2="109.18" y2="161.594" style="stroke:#808080;stroke-width:0.5;"/><text x="81.955" y="153.292" fill="#000" font-size="14"> </text></g><g class="entity" data-qualified-name="consultarSolicitudDispensa.Paso2" id="ent0003" data-source-line="12"><rect x="59.18" y="301.297" width="50" height="50" fill="#F5F5F5" style="stroke:#808080;stroke-width:0.5;" rx="12.5" ry="12.5"/><line x1="59.18" y1="327.594" x2="109.18" y2="327.594" style="stroke:#808080;stroke-width:0.5;"/><text x="81.955" y="319.292" fill="#000" font-size="14"> </text></g><g class="start_entity" data-qualified-name="consultarSolicitudDispensa..start.consultarSolicitudDispensa" id="ent0006" data-source-line="14"><ellipse cx="84.18" cy="54.297" rx="10" ry="10" fill="#222" style="stroke:#222;stroke-width:1;"/></g><g class="end_entity" data-qualified-name="consultarSolicitudDispensa..end.consultarSolicitudDispensa" id="ent0009" data-source-line="27"><ellipse cx="84.18" cy="463.297" rx="11" ry="11" fill="none" style="stroke:#222;stroke-width:1;"/><ellipse cx="84.18" cy="463.297" rx="6" ry="6" fill="#222" style="stroke:#222;stroke-width:1;"/></g><!--link *start*consultarSolicitudDispensa to Paso1--><g class="link" data-entity-1="ent0006" data-entity-2="ent0002" id="lnk7" data-source-line="14" data-link-type="dependency"><path d="M84.18,64.527 C84.18,80.237 84.18,107.657 84.18,130.167" style="stroke:#008000;stroke-width:1;" fill="none" id="*start*consultarSolicitudDispensa-to-Paso1"/><polygon points="84.18,135.167,88.18,126.167,84.18,130.167,80.18,126.167,84.18,135.167" fill="#008000" style="stroke:#008000;stroke-width:1;stroke-linejoin:miter;stroke-miterlimit:10;"/><path d="M89.18,87.297 L89.18,112.297 L431.18,112.297 L431.18,97.297 L421.18,87.297 L89.18,87.297" style="stroke:#808080;stroke-width:0.5;" fill="#FFFFE0"/><path d="M421.18,87.297 L421.18,97.297 L431.18,97.297 L421.18,87.297" style="stroke:#808080;stroke-width:0.5;" fill="#FFFFE0"/><text x="95.18" y="104.364" fill="#000" font-size="13" textLength="75.74" font-weight="700">Secretaría</text><text x="175.053" y="104.364" fill="#000" font-size="13" textLength="241.858">solicita mostrar solicitud de dispensa</text></g><!--link Paso1 to Paso2--><g class="link" data-entity-1="ent0002" data-entity-2="ent0003" id="lnk8" data-source-line="19" data-link-type="dependency"><path d="M84.18,185.497 C84.18,216.507 84.18,264.947 84.18,295.997" style="stroke:#008000;stroke-width:1;" fill="none" id="Paso1-to-Paso2"/><polygon points="84.18,300.997,88.18,291.997,84.18,295.997,80.18,291.997,84.18,300.997" fill="#008000" style="stroke:#008000;stroke-width:1;stroke-linejoin:miter;stroke-miterlimit:10;"/><path d="M89.18,208.297 L89.18,278.297 L444.18,278.297 L444.18,218.297 L434.18,208.297 L89.18,208.297" style="stroke:#808080;stroke-width:0.5;" fill="#FFFFE0"/><path d="M434.18,208.297 L434.18,218.297 L444.18,218.297 L434.18,208.297" style="stroke:#808080;stroke-width:0.5;" fill="#FFFFE0"/><text x="95.18" y="225.364" fill="#000" font-size="13" textLength="58.906" font-weight="700">Sistema</text><text x="158.219" y="225.364" fill="#000" font-size="13" textLength="215.63">muestra los datos de la solicitud:</text><text x="95.18" y="240.497" fill="#000" font-size="13" textLength="326.174">• Estado de la Dispensa, Asignatura y Tipo/Motivo</text><text x="95.18" y="255.629" fill="#000" font-size="13" textLength="310.362">• Día(s) de la semana y Franja horaria afectada</text><text x="95.18" y="270.762" fill="#000" font-size="13" textLength="334.147">• Asignatura solapada y Justificación / Comentarios</text></g><!--link Paso2 to *end*consultarSolicitudDispensa--><g class="link" data-entity-1="ent0003" data-entity-2="ent0009" id="lnk10" data-source-line="27" data-link-type="dependency"><path d="M84.18,351.747 C84.18,381.527 84.18,425.507 84.18,446.837" style="stroke:#008000;stroke-width:1;" fill="none" id="Paso2-to-*end*consultarSolicitudDispensa"/><polygon points="84.18,451.837,88.18,442.837,84.18,446.837,80.18,442.837,84.18,451.837" fill="#008000" style="stroke:#008000;stroke-width:1;stroke-linejoin:miter;stroke-miterlimit:10;"/><path d="M89.18,374.297 L89.18,429.297 L420.18,429.297 L420.18,384.297 L410.18,374.297 L89.18,374.297" style="stroke:#808080;stroke-width:0.5;" fill="#FFFFE0"/><path d="M410.18,374.297 L410.18,384.297 L420.18,384.297 L410.18,374.297" style="stroke:#808080;stroke-width:0.5;" fill="#FFFFE0"/><text x="95.18" y="391.364" fill="#000" font-size="13" textLength="75.74" font-weight="700">Secretaría</text><text x="175.053" y="391.364" fill="#000" font-size="13" textLength="231.061">revisa la información de la solicitud</text><text x="95.18" y="406.497" fill="#000" font-size="13" textLength="218.436">• Permite solicitar editar solicitud</text><text x="95.18" y="421.629" fill="#000" font-size="13" textLength="239.865">• Permite solicitar regresar al listado</text></g></g><g class="entity" data-qualified-name="SOLICITUD_DISPENSA_ABIERTA" id="ent0004" data-source-line="35"><rect x="7" y="706.3" width="239.352" height="50" fill="#F5F5F5" style="stroke:#808080;stroke-width:0.5;" rx="12.5" ry="12.5"/><line x1="7" y1="732.597" x2="246.352" y2="732.597" style="stroke:#808080;stroke-width:0.5;"/><text x="17" y="724.295" fill="#000" font-size="14" textLength="219.352">SOLICITUD_DISPENSA_ABIERTA</text></g><g class="entity" data-qualified-name="DISPENSAS_ABIERTO" id="ent0005" data-source-line="36"><rect x="305.99" y="706.3" width="167.362" height="50" fill="#F5F5F5" style="stroke:#808080;stroke-width:0.5;" rx="12.5" ry="12.5"/><line x1="305.99" y1="732.597" x2="473.352" y2="732.597" style="stroke:#808080;stroke-width:0.5;"/><text x="315.99" y="724.295" fill="#000" font-size="14" textLength="147.362">DISPENSAS_ABIERTO</text></g><!--link consultarSolicitudDispensa to SOLICITUD_DISPENSA_ABIERTA--><g class="link" data-entity-1="ent0001" data-entity-2="ent0004" id="lnk11" data-source-line="38" data-link-type="dependency"><path d="M158.66,487.5 C137.14,539.5 120.68,579.3 120.68,579.3 C120.68,579.3 120.68,614.3 120.68,614.3 C120.68,614.3 123.402,666.977 125.162,700.987" style="stroke:#008000;stroke-width:1;" fill="none" id="consultarSolicitudDispensa-to-SOLICITUD_DISPENSA_ABIERTA"/><polygon points="125.42,705.98,128.95,696.785,125.162,700.987,120.96,697.199,125.42,705.98" fill="#008000" style="stroke:#008000;stroke-width:1;stroke-linejoin:miter;stroke-miterlimit:10;"/><path d="M125.68,584.3 L125.68,609.3 L309.68,609.3 L309.68,594.3 L299.68,584.3 L125.68,584.3" style="stroke:#808080;stroke-width:0.5;" fill="#FFFFE0"/><path d="M299.68,584.3 L299.68,594.3 L309.68,594.3 L299.68,584.3" style="stroke:#808080;stroke-width:0.5;" fill="#FFFFE0"/><text x="131.68" y="601.367" fill="#000" font-size="13" textLength="163.814">editarSolicitudDispensa()</text></g><!--link consultarSolicitudDispensa to DISPENSAS_ABIERTO--><g class="link" data-entity-1="ent0001" data-entity-2="ent0005" id="lnk12" data-source-line="43" data-link-type="dependency"><path d="M323.19,487.46 C347.35,575.7 370.269,659.438 381.659,701.008" style="stroke:#00F;stroke-width:1;" fill="none" id="consultarSolicitudDispensa-to-DISPENSAS_ABIERTO"/><polygon points="382.98,705.83,384.46,696.093,381.659,701.008,376.744,698.207,382.98,705.83" fill="#00F" style="stroke:#00F;stroke-width:1;stroke-linejoin:miter;stroke-miterlimit:10;"/><path d="M362.68,584.3 L362.68,609.3 L490.68,609.3 L490.68,594.3 L480.68,584.3 L362.68,584.3" style="stroke:#808080;stroke-width:0.5;" fill="#FFFFE0"/><path d="M480.68,584.3 L480.68,594.3 L490.68,594.3 L480.68,584.3" style="stroke:#808080;stroke-width:0.5;" fill="#FFFFE0"/><text x="368.68" y="601.367" fill="#000" font-size="13" textLength="107.06">abrirDispensas()</text></g><?plantuml-src bLJRRjD047ttLupQbnOH1IB10weYfKag1K4RuV1KLTN4dgHBrZlMxheeGaZz5jvvuXFw9tm9OyTstJW98CktkPnpvkpQRgLCYXOJC1oJenJUlWfS7RHeLgsWLeRyEYL8MQ_pbqRkaZsTOxHQMivCF6JDLkgNTtvDMlFNxKgsCTbDrTBYkf4EFRQHZY_Uv4UhR1icS7aOZY8sBjCURSXQHSfdyKYvb8p3azCZG0Vx2-1R003v2IKO51rJTFnwTxXNTro_k87EzV7I4fcRJh_HP6HgO9Dxk2e206VpVaYH9L7n-1FFklC-k8qQX8ITjsYhG1P3J12N4ej-Cd41MdCNN2tstY5svJmb6-OaevmHD3k8qUTN0erF0jwLVRyVVi1OB8YvhAYCUma3fvO6VIOmQvYfbBiVsQjxRdIEPD8JTrg12xl9Yozaltr1k6EPMI7WWY9Xm4PZ0riaOIfPwNkVEQyMAi98FVuoq8KX9sJ4KCLklqkzPox9clt72bcwLx99HBmo2xP9oRnbLaFub6oY1BbQMWiK5xT_AxOaGfqye1PbXU_F1_jUR_hmwiDaE9bz7jsE9k5qV1aERWVda_6dsQ3OgVlJ5K0L3yl4LT7NYWR1WQ_doTcEU7k0ix3Rvd-8XkaRQtPyj44zxr_8vpgZ3NTRzqvAd5jbAmJNOFe3?></g></svg>