<svg xmlns="http://www.w3.org/2000/svg" xmlns:xlink="http://www.w3.org/1999/xlink" contentStyleType="text/css" data-diagram-type="STATE" height="1122px" preserveAspectRatio="none" style="width:722px;height:1122px;background:#FFFFFF;" version="1.1" viewBox="0 0 722 1122" width="722px" zoomAndPan="magnify"><title>Consultar Lista Alumnos</title><defs/><g><g class="title" data-source-line="1"><text fill="#000000" font-family="sans-serif" font-size="14" font-weight="bold" lengthAdjust="spacing" textLength="192.0488" x="255.0813" y="32.9951">Consultar Lista Alumnos</text></g><g id="LISTAS_ABIERTO_INICIAL"><rect fill="#F1F1F1" height="76.2969" rx="12.5" ry="12.5" style="stroke:#181818;stroke-width:0.5;" width="156.2861" x="393" y="183.2969"/><line style="stroke:#181818;stroke-width:0.5;" x1="393" x2="549.2861" y1="229.5938" y2="229.5938"/><text fill="#000000" font-family="sans-serif" font-size="14" lengthAdjust="spacing" textLength="116.2861" x="413" y="211.292">LISTAS_ABIERTO</text></g><path d="M245,359.2969 L696.7114,359.2969 A12.5,12.5 0 0 1 709.2114,371.7969 L709.2114,405.5938 L232.5,405.5938 L232.5,371.7969 A12.5,12.5 0 0 1 245,359.2969" fill="#F1F1F1"/><rect fill="none" height="257.2969" rx="12.5" ry="12.5" style="stroke:#181818;stroke-width:0.5;" width="476.7114" x="232.5" y="359.2969"/><line style="stroke:#181818;stroke-width:0.5;" x1="232.5" x2="709.2114" y1="405.5938" y2="405.5938"/><text fill="#000000" font-family="sans-serif" font-size="14" lengthAdjust="spacing" textLength="169.7021" x="386.0046" y="387.292">consultarListaAlumnos()</text><g id="CONSULTAR_LISTA_COMP.MostrarLista"><rect fill="#F1F1F1" height="76.2969" rx="12.5" ry="12.5" style="stroke:#181818;stroke-width:0.5;" width="190.3975" x="244.5" y="472.5938"/><line style="stroke:#181818;stroke-width:0.5;" x1="244.5" x2="434.8975" y1="518.8906" y2="518.8906"/><text fill="#000000" font-family="sans-serif" font-size="14" lengthAdjust="spacing" textLength="150.3975" x="264.5" y="500.5889">Visualizaci&#243;n de Lista</text></g><ellipse cx="339.5" cy="426.5938" fill="#222222" rx="10" ry="10" style="stroke:#222222;stroke-width:1;"/><ellipse cx="339.5" cy="595.5938" fill="none" rx="11" ry="11" style="stroke:#222222;stroke-width:1;"/><ellipse cx="339.5" cy="595.5938" fill="#222222" rx="6" ry="6" style="stroke:#222222;stroke-width:1;"/><g class="entity" data-entity="GMN2" data-source-line="35" data-uid="ent0003" id="entity_GMN2"><path d="M452.5,480.5938 L452.5,506.5938 L434.53,510.5938 L452.5,514.5938 L452.5,540.8594 A0,0 0 0 0 452.5,540.8594 L700.2114,540.8594 A0,0 0 0 0 700.2114,540.8594 L700.2114,490.5938 L690.2114,480.5938 L452.5,480.5938 A0,0 0 0 0 452.5,480.5938" fill="#FEFFDD" style="stroke:#181818;stroke-width:0.5;"/><path d="M690.2114,480.5938 L690.2114,490.5938 L700.2114,490.5938 L690.2114,480.5938" fill="#FEFFDD" style="stroke:#181818;stroke-width:0.5;"/><text fill="#000000" font-family="sans-serif" font-size="13" font-weight="bold" lengthAdjust="spacing" textLength="124.1855" x="468.5" y="507.6606">Sistema muestra</text><text fill="#000000" font-family="sans-serif" font-size="13" lengthAdjust="spacing" textLength="206.7114" x="468.5" y="522.7935">la lista solicitada por el usuario.</text></g><!--link *start*CONSULTAR_LISTA_COMP to MostrarLista--><g class="link" data-entity-1=".start.CONSULTAR_LISTA_COMP" data-entity-2="MostrarLista" data-source-line="31" data-uid="lnk6" id="link_.start.CONSULTAR_LISTA_COMP_MostrarLista"><path d="M339.5,436.8938 C339.5,445.8338 339.5,453.3438 339.5,466.3738" fill="none" id="*start*CONSULTAR_LISTA_COMP-to-MostrarLista" style="stroke:#008000;stroke-width:1;"/><polygon fill="#008000" points="339.5,472.3738,343.5,463.3738,339.5,467.3738,335.5,463.3738,339.5,472.3738" style="stroke:#008000;stroke-width:1;"/></g><!--link MostrarLista to *end*CONSULTAR_LISTA_COMP--><g class="link" data-entity-1="MostrarLista" data-entity-2=".end.CONSULTAR_LISTA_COMP" data-source-line="40" data-uid="lnk8" id="link_MostrarLista_.end.CONSULTAR_LISTA_COMP"><path d="M339.5,548.6138 C339.5,561.7038 339.5,569.3538 339.5,578.5538" fill="none" id="MostrarLista-to-*end*CONSULTAR_LISTA_COMP" style="stroke:#008000;stroke-width:1;"/><polygon fill="#008000" points="339.5,584.5538,343.5,575.5538,339.5,579.5538,335.5,575.5538,339.5,584.5538" style="stroke:#008000;stroke-width:1;"/></g><g id="LISTA_ABIERTA_FINAL"><rect fill="#F1F1F1" height="76.2969" rx="12.5" ry="12.5" style="stroke:#181818;stroke-width:0.5;" width="145.957" x="273" y="918.2969"/><line style="stroke:#181818;stroke-width:0.5;" x1="273" x2="418.957" y1="964.5938" y2="964.5938"/><text fill="#000000" font-family="sans-serif" font-size="14" lengthAdjust="spacing" textLength="105.957" x="293" y="946.292">LISTA_ABIERTA</text></g><g id="LISTAS_ABIERTO_RETORNO"><rect fill="#F1F1F1" height="76.2969" rx="12.5" ry="12.5" style="stroke:#181818;stroke-width:0.5;" width="156.2861" x="519" y="918.2969"/><line style="stroke:#181818;stroke-width:0.5;" x1="519" x2="675.2861" y1="964.5938" y2="964.5938"/><text fill="#000000" font-family="sans-serif" font-size="14" lengthAdjust="spacing" textLength="116.2861" x="539" y="946.292">LISTAS_ABIERTO</text></g><ellipse cx="471" cy="73.2969" fill="#222222" rx="10" ry="10" style="stroke:#222222;stroke-width:1;"/><ellipse cx="471" cy="1105.2969" fill="none" rx="11" ry="11" style="stroke:#222222;stroke-width:1;"/><ellipse cx="471" cy="1105.2969" fill="#222222" rx="6" ry="6" style="stroke:#222222;stroke-width:1;"/><!--link *start* to LISTAS_ABIERTO_INICIAL--><g class="link" data-entity-1=".start." data-entity-2="LISTAS_ABIERTO_INICIAL" data-source-line="16" data-uid="lnk3" id="link_.start._LISTAS_ABIERTO_INICIAL"><path d="M471,83.4669 C471,103.6469 471,143.6769 471,176.9969" fill="none" id="*start*-to-LISTAS_ABIERTO_INICIAL" style="stroke:#008000;stroke-width:1;"/><polygon fill="#008000" points="471,182.9969,475,173.9969,471,177.9969,467,173.9969,471,182.9969" style="stroke:#008000;stroke-width:1;"/></g><!--link LISTAS_ABIERTO_INICIAL to CONSULTAR_LISTA_COMP--><g class="link" data-entity-1="LISTAS_ABIERTO_INICIAL" data-entity-2="CONSULTAR_LISTA_COMP" data-source-line="19" data-uid="lnk4" id="link_LISTAS_ABIERTO_INICIAL_CONSULTAR_LISTA_COMP"><path d="M471,259.4769 C471,285.8869 471,316.6969 471,353.0569" fill="none" id="LISTAS_ABIERTO_INICIAL-to-CONSULTAR_LISTA_COMP" style="stroke:#008000;stroke-width:1;"/><polygon fill="#008000" points="471,359.0569,475,350.0569,471,354.0569,467,350.0569,471,359.0569" style="stroke:#008000;stroke-width:1;"/><path d="M6,229.2669 L6,304.2669 L287,304.2669 L287,239.2669 L277,229.2669 L6,229.2669" fill="#FEFFDD" style="stroke:#181818;stroke-width:0.5;"/><path d="M277,229.2669 L277,239.2669 L287,239.2669 L277,229.2669" fill="#FEFFDD" style="stroke:#181818;stroke-width:0.5;"/><text fill="#000000" font-family="sans-serif" font-size="13" font-weight="bold" lengthAdjust="spacing" textLength="113.3755" x="22" y="256.3338">Usuario solicita</text><text fill="#000000" font-family="sans-serif" font-size="13" lengthAdjust="spacing" textLength="161.7637" x="22" y="271.4666">Consultar Lista Alumnos.</text><text fill="#000000" font-family="sans-serif" font-size="13" font-weight="bold" lengthAdjust="spacing" textLength="120.999" x="22" y="286.5994">Sistema permite</text><text fill="#000000" font-family="sans-serif" font-size="13" lengthAdjust="spacing" textLength="114.9878" x="147.1313" y="286.5994">acceder a la lista.</text><text fill="#000000" font-family="sans-serif" font-size="13" lengthAdjust="spacing" textLength="157.5806" x="303.1191" y="271.4666">consultarListaAlumnos()</text></g><!--link CONSULTAR_LISTA_COMP to LISTA_ABIERTA_FINAL--><g class="link" data-entity-1="CONSULTAR_LISTA_COMP" data-entity-2="LISTA_ABIERTA_FINAL" data-source-line="44" data-uid="lnk9" id="link_CONSULTAR_LISTA_COMP_LISTA_ABIERTA_FINAL"><path d="M346,616.4369 C346,718.0169 346,847.1169 346,912.1369" fill="none" id="CONSULTAR_LISTA_COMP-to-LISTA_ABIERTA_FINAL" style="stroke:#008000;stroke-width:1;"/><polygon fill="#008000" points="346,918.1369,350,909.1369,346,913.1369,342,909.1369,346,918.1369" style="stroke:#008000;stroke-width:1;"/><path d="M106,687.2869 L106,762.2869 L341,762.2869 L341,697.2869 L331,687.2869 L106,687.2869" fill="#FEFFDD" style="stroke:#181818;stroke-width:0.5;"/><path d="M331,687.2869 L331,697.2869 L341,697.2869 L331,687.2869" fill="#FEFFDD" style="stroke:#181818;stroke-width:0.5;"/><text fill="#000000" font-family="sans-serif" font-size="13" font-weight="bold" lengthAdjust="spacing" textLength="120.999" x="122" y="714.3538">Sistema permite</text><text fill="#000000" font-family="sans-serif" font-size="13" lengthAdjust="spacing" textLength="194.4795" x="122" y="729.4866">mantener la lista abierta para</text><text fill="#000000" font-family="sans-serif" font-size="13" lengthAdjust="spacing" textLength="154.9971" x="122" y="744.6194">operaciones detalladas.</text></g><!--link CONSULTAR_LISTA_COMP to LISTAS_ABIERTO_RETORNO--><g class="link" data-entity-1="CONSULTAR_LISTA_COMP" data-entity-2="LISTAS_ABIERTO_RETORNO" data-source-line="53" data-uid="lnk10" id="link_CONSULTAR_LISTA_COMP_LISTAS_ABIERTO_RETORNO"><path d="M597,616.4369 C597,718.0169 597,847.1169 597,912.1369" fill="none" id="CONSULTAR_LISTA_COMP-to-LISTAS_ABIERTO_RETORNO" style="stroke:#FF0000;stroke-width:1;"/><polygon fill="#FF0000" points="597,918.1369,601,909.1369,597,913.1369,593,909.1369,597,918.1369" style="stroke:#FF0000;stroke-width:1;"/><text fill="#000000" font-family="sans-serif" font-size="13" lengthAdjust="spacing" textLength="79.9805" x="173" y="814.4866">cerrarLista()</text><path d="M268.9805,772.2869 L268.9805,847.2869 L591.9805,847.2869 L591.9805,782.2869 L581.9805,772.2869 L268.9805,772.2869" fill="#FEFFDD" style="stroke:#181818;stroke-width:0.5;"/><path d="M581.9805,772.2869 L581.9805,782.2869 L591.9805,782.2869 L581.9805,772.2869" fill="#FEFFDD" style="stroke:#181818;stroke-width:0.5;"/><text fill="#000000" font-family="sans-serif" font-size="13" font-weight="bold" lengthAdjust="spacing" textLength="63.7114" x="284.9805" y="799.3538">CERRAR:</text><text fill="#000000" font-family="sans-serif" font-size="13" font-weight="bold" lengthAdjust="spacing" textLength="113.3755" x="284.9805" y="814.4866">Usuario solicita</text><text fill="#000000" font-family="sans-serif" font-size="13" lengthAdjust="spacing" textLength="98.7251" x="402.4883" y="814.4866">salir de la lista.</text><text fill="#000000" font-family="sans-serif" font-size="13" font-weight="bold" lengthAdjust="spacing" textLength="120.999" x="284.9805" y="829.6194">Sistema permite</text><text fill="#000000" font-family="sans-serif" font-size="13" lengthAdjust="spacing" textLength="157.0981" x="410.1118" y="829.6194">volver al men&#250; anterior.</text></g><!--link LISTA_ABIERTA_FINAL to *end*--><g class="link" data-entity-1="LISTA_ABIERTA_FINAL" data-entity-2=".end." data-source-line="61" data-uid="lnk12" id="link_LISTA_ABIERTA_FINAL_.end."><path d="M419.03,969.2969 C444.73,969.2969 467.33,969.2969 467.33,969.2969 C467.33,969.2969 467.33,1056.5669 467.33,1088.6269" fill="none" id="LISTA_ABIERTA_FINAL-to-*end*" style="stroke:#0000FF;stroke-width:1;"/><polygon fill="#0000FF" points="467.33,1094.6269,471.33,1085.6269,467.33,1089.6269,463.33,1085.6269,467.33,1094.6269" style="stroke:#0000FF;stroke-width:1;"/></g><!--link LISTAS_ABIERTO_RETORNO to *end*--><g class="link" data-entity-1="LISTAS_ABIERTO_RETORNO" data-entity-2=".end." data-source-line="62" data-uid="lnk13" id="link_LISTAS_ABIERTO_RETORNO_.end."><path d="M518.83,944.2969 C494.86,944.2969 474.67,944.2969 474.67,944.2969 C474.67,944.2969 474.67,1052.9169 474.67,1088.7369" fill="none" id="LISTAS_ABIERTO_RETORNO-to-*end*" style="stroke:#0000FF;stroke-width:1;"/><polygon fill="#0000FF" points="474.67,1094.7369,478.67,1085.7369,474.67,1089.7369,470.67,1085.7369,474.67,1094.7369" style="stroke:#0000FF;stroke-width:1;"/></g><!--SRC=[VPNDRjf04CVlVeeHFHGgaOyUKOJa0gai4OWCz195QB4doIRhNRgxZlgXFa3FVPJUUkN5EhksmKvm408nk__v-CsCiTmAX96I9XUMQPXoOnc48i-aCa7m7lhzFepciyleyoeEHz7kpmp64vWibj5qxWu3yyJbbccMWLGf6jp2-TbPpQgPV7fj5LoY_Rv5KDe-gDh1DKjJBk_fUXLzFBcCPb4zT3YUBuhObbc4QKIcnJhy54tYvNpjBuTJO0OwpQDEAQ1w5glfCepN_dmzcbzT0tX1Kf7m84eEtLwd7gfq5wufBufJAXj7dUEfnPFbF9xDZwP6rKQI9rm5DnzkeN_pxbuZojl-iAK-9vX8grdA1h0oETDSWL62N507ztK4BNJg0Oxo640BYq0ggapWdGKbNIEV0iVWOZDycSN5wMReprhcwwGIBiYA6OCjwenRT3fWIO8fQc0WwEra9m7A55nqNpjPKaMkissEnge1VE4KN_0VBE6xl_AjNl_qWOiBLyeGnA96tvYc6qYnIBhZDVwZwXHmQL5BvOqlkrRtMvVE5CKfX8NTuzJy_e5uthsMlK2KkMBr0QrxLO3su5D2gJIWWBneIK5wZw-MpYMNZJ8QEEhrK7t1BmT-4KwZSGZd0zZz_iQjEgNkMYxpabTtWV0rHqe1PNDVUi7HPXo2zAjXRsvO-y0TcHj_b36gIDBmxCcm3KTDt-uXuwyeqb36IgAX5bic154ppH4hA_quW16fDPx6Q1M1Wcv2Fqj8FRguCYnJ1hHwL3u24KrvGkEU5Bg4oGH52IXHcN9ig3luYDbMg5Ok6jCQbTVF4ThHGoBLPfQZr2GrciHn60_sX5gs5GnDldOpVrYwDtRqMObdjw82CfIxV-2maqlTnEX6BALgxqHEVBhq9q7-MROXOWdBE3q8Q5eDtmWqlU3O4vP8R4IErHIsm6ZU-Wy0]--></g></svg>