<?plantuml 1.2026.2beta1?><svg xmlns="http://www.w3.org/2000/svg" xmlns:xlink="http://www.w3.org/1999/xlink" contentStyleType="text/css" data-diagram-type="STATE" height="1123px" preserveAspectRatio="none" style="width:880px;height:1123px;background:#FFFFFF;" version="1.1" viewBox="0 0 880 1123" width="880px" zoomAndPan="magnify"><title>Ver detalle de matr&#237;cula</title><defs/><g><g class="title" data-source-line="1"><text fill="#000000" font-family="sans-serif" font-size="14" font-weight="bold" lengthAdjust="spacing" textLength="191.0645" x="334.2418" y="32.9951">Ver detalle de matr&#237;cula</text></g><g><rect fill="#F1F1F1" height="76.2969" rx="12.5" ry="12.5" style="stroke:#181818;stroke-width:0.5;" width="198.8057" x="471.6" y="183.2969"/><line style="stroke:#181818;stroke-width:0.5;" x1="471.6" x2="670.4057" y1="229.5938" y2="229.5938"/><text fill="#000000" font-family="sans-serif" font-size="14" lengthAdjust="spacing" textLength="158.8057" x="491.6" y="211.292">MATRICULAS_ABIERTO</text></g><path d="M287.95,359.5969 L854.0481,359.5969 A12.5,12.5 0 0 1 866.5481,372.0969 L866.5481,405.8938 L275.45,405.8938 L275.45,372.0969 A12.5,12.5 0 0 1 287.95,359.5969" fill="#F1F1F1"/><rect fill="none" height="257.5969" rx="12.5" ry="12.5" style="stroke:#181818;stroke-width:0.5;" width="591.0981" x="275.45" y="359.5969"/><line style="stroke:#181818;stroke-width:0.5;" x1="275.45" x2="866.5481" y1="405.8938" y2="405.8938"/><text fill="#000000" font-family="sans-serif" font-size="14" lengthAdjust="spacing" textLength="148.4766" x="496.7608" y="387.592">MATRICULA_ABIERTA</text><g><rect fill="#F1F1F1" height="76.2969" rx="12.5" ry="12.5" style="stroke:#181818;stroke-width:0.5;" width="211.0898" x="287.45" y="472.8938"/><line style="stroke:#181818;stroke-width:0.5;" x1="287.45" x2="498.5398" y1="519.1906" y2="519.1906"/><text fill="#000000" font-family="sans-serif" font-size="14" lengthAdjust="spacing" textLength="171.0898" x="307.45" y="500.8889">Visualizaci&#243;n del Detalle</text></g><ellipse cx="392.99" cy="426.8938" fill="#222222" rx="10" ry="10" style="stroke:#222222;stroke-width:1;"/><ellipse cx="392.99" cy="596.1938" fill="none" rx="11" ry="11" style="stroke:#222222;stroke-width:1;"/><ellipse cx="392.99" cy="596.1938" fill="#222222" rx="6" ry="6" style="stroke:#222222;stroke-width:1;"/><g class="entity" data-qualified-name="MATRICULA_ABIERTA_COMP.GMN2" data-source-line="33" id="ent0003"><path d="M516.45,480.9138 L516.45,507.1938 L498.72,511.1938 L516.45,515.1938 L516.45,541.1794 A0,0 0 0 0 516.45,541.1794 L857.5481,541.1794 A0,0 0 0 0 857.5481,541.1794 L857.5481,490.9138 L847.5481,480.9138 L516.45,480.9138 A0,0 0 0 0 516.45,480.9138" fill="#FEFFDD" style="stroke:#181818;stroke-width:0.5;"/><path d="M847.5481,480.9138 L847.5481,490.9138 L857.5481,490.9138 L847.5481,480.9138" fill="#FEFFDD" style="stroke:#181818;stroke-width:0.5;"/><text fill="#000000" font-family="sans-serif" font-size="13" font-weight="bold" lengthAdjust="spacing" textLength="128.7622" x="532.45" y="507.9806">Sistema presenta</text><text fill="#000000" font-family="sans-serif" font-size="13" lengthAdjust="spacing" textLength="167.2036" x="665.3445" y="507.9806">todos los datos asociados</text><text fill="#000000" font-family="sans-serif" font-size="13" lengthAdjust="spacing" textLength="294.3535" x="532.45" y="523.1135">a la matr&#237;cula seleccionada para su consulta.</text></g><!--link *start*MATRICULA_ABIERTA_COMP to VisualizacionDetalle--><g class="link" data-entity-1="ent0005" data-entity-2="ent0005" data-link-type="dependency" data-source-line="29" id="lnk6"><path d="M392.99,437.2138 C392.99,446.1638 392.99,453.7038 392.99,466.7538" fill="none" id="*start*MATRICULA_ABIERTA_COMP-to-VisualizacionDetalle" style="stroke:#008000;stroke-width:1;"/><polygon fill="#008000" points="392.99,472.7538,396.99,463.7538,392.99,467.7538,388.99,463.7538,392.99,472.7538" style="stroke:#008000;stroke-width:1;"/></g><!--link VisualizacionDetalle to *end*MATRICULA_ABIERTA_COMP--><g class="link" data-entity-1="ent0005" data-entity-2="ent0007" data-link-type="dependency" data-source-line="38" id="lnk8"><path d="M392.99,549.6338 C392.99,562.4838 392.99,569.8238 392.99,578.9038" fill="none" id="VisualizacionDetalle-to-*end*MATRICULA_ABIERTA_COMP" style="stroke:#008000;stroke-width:1;"/><polygon fill="#008000" points="392.99,584.9038,396.99,575.9038,392.99,579.9038,388.99,575.9038,392.99,584.9038" style="stroke:#008000;stroke-width:1;"/></g><g><rect fill="#F1F1F1" height="76.2969" rx="12.5" ry="12.5" style="stroke:#181818;stroke-width:0.5;" width="198.8057" x="471.6" y="919.1869"/><line style="stroke:#181818;stroke-width:0.5;" x1="471.6" x2="670.4057" y1="965.4838" y2="965.4838"/><text fill="#000000" font-family="sans-serif" font-size="14" lengthAdjust="spacing" textLength="158.8057" x="491.6" y="947.182">MATRICULAS_ABIERTO</text></g><ellipse cx="571" cy="73.2969" fill="#222222" rx="10" ry="10" style="stroke:#222222;stroke-width:1;"/><ellipse cx="571" cy="1106.4869" fill="none" rx="11" ry="11" style="stroke:#222222;stroke-width:1;"/><ellipse cx="571" cy="1106.4869" fill="#222222" rx="6" ry="6" style="stroke:#222222;stroke-width:1;"/><!--link *start* to MATRICULAS_ABIERTO_INICIAL--><g class="link" data-entity-1="ent0002" data-entity-2="ent0002" data-link-type="dependency" data-source-line="15" id="lnk3"><path d="M571,83.4769 C571,103.6769 571,143.7469 571,177.1069" fill="none" id="*start*-to-MATRICULAS_ABIERTO_INICIAL" style="stroke:#008000;stroke-width:1;"/><polygon fill="#008000" points="571,183.1069,575,174.1069,571,178.1069,567,174.1069,571,183.1069" style="stroke:#008000;stroke-width:1;"/></g><!--link MATRICULAS_ABIERTO_INICIAL to MATRICULA_ABIERTA_COMP--><g class="link" data-entity-1="ent0002" data-entity-2="ent0003" data-link-type="dependency" data-source-line="18" id="lnk4"><path d="M571,259.9769 C571,286.3969 571,317.1169 571,353.3869" fill="none" id="MATRICULAS_ABIERTO_INICIAL-to-MATRICULA_ABIERTA_COMP" style="stroke:#008000;stroke-width:1;"/><polygon fill="#008000" points="571,359.3869,575,350.3869,571,354.3869,567,350.3869,571,359.3869" style="stroke:#008000;stroke-width:1;"/><path d="M6,244.6769 L6,304.6769 L406,304.6769 L406,254.6769 L396,244.6769 L6,244.6769" fill="#FEFFDD" style="stroke:#181818;stroke-width:0.5;"/><path d="M396,244.6769 L396,254.6769 L406,254.6769 L396,244.6769" fill="#FEFFDD" style="stroke:#181818;stroke-width:0.5;"/><text fill="#000000" font-family="sans-serif" font-size="13" font-weight="bold" lengthAdjust="spacing" textLength="113.3755" x="22" y="271.7438">Usuario solicita</text><text fill="#000000" font-family="sans-serif" font-size="13" lengthAdjust="spacing" textLength="172.2817" x="139.5078" y="271.7438">seleccionar una matr&#237;cula.</text><text fill="#000000" font-family="sans-serif" font-size="13" font-weight="bold" lengthAdjust="spacing" textLength="120.999" x="22" y="286.8766">Sistema permite</text><text fill="#000000" font-family="sans-serif" font-size="13" lengthAdjust="spacing" textLength="234.3936" x="147.1313" y="286.8766">abrir la vista detallada de la misma.</text><text fill="#000000" font-family="sans-serif" font-size="13" lengthAdjust="spacing" textLength="137.6743" x="422.5249" y="279.3102">verDetalleMatricula()</text></g><!--link MATRICULA_ABIERTA_COMP to MATRICULAS_ABIERTO_FINAL--><g class="link" data-entity-1="ent0003" data-entity-2="ent0004" data-link-type="dependency" data-source-line="45" id="lnk9"><path d="M571,617.4669 C571,718.9969 571,847.8369 571,912.9369" fill="none" id="MATRICULA_ABIERTA_COMP-to-MATRICULAS_ABIERTO_FINAL" style="stroke:#FF0000;stroke-width:1;"/><polygon fill="#FF0000" points="571,918.9369,575,909.9369,571,913.9369,567,909.9369,571,918.9369" style="stroke:#FF0000;stroke-width:1;"/><text fill="#000000" font-family="sans-serif" font-size="13" lengthAdjust="spacing" textLength="155.7842" x="46" y="730.3966">cerrarDetalleMatricula()</text><path d="M217.7842,688.1969 L217.7842,763.1969 L565.7842,763.1969 L565.7842,698.1969 L555.7842,688.1969 L217.7842,688.1969" fill="#FEFFDD" style="stroke:#181818;stroke-width:0.5;"/><path d="M555.7842,688.1969 L555.7842,698.1969 L565.7842,698.1969 L555.7842,688.1969" fill="#FEFFDD" style="stroke:#181818;stroke-width:0.5;"/><text fill="#000000" font-family="sans-serif" font-size="13" font-weight="bold" lengthAdjust="spacing" textLength="63.7114" x="233.7842" y="715.2638">CERRAR:</text><text fill="#000000" font-family="sans-serif" font-size="13" font-weight="bold" lengthAdjust="spacing" textLength="113.3755" x="233.7842" y="730.3966">Usuario solicita</text><text fill="#000000" font-family="sans-serif" font-size="13" lengthAdjust="spacing" textLength="167.6606" x="351.292" y="730.3966">salir de la vista detallada.</text><text fill="#000000" font-family="sans-serif" font-size="13" font-weight="bold" lengthAdjust="spacing" textLength="120.999" x="233.7842" y="745.5294">Sistema permite</text><text fill="#000000" font-family="sans-serif" font-size="13" lengthAdjust="spacing" textLength="182.4316" x="358.9155" y="745.5294">regresar al listado principal.</text></g><!--link MATRICULAS_ABIERTO_FINAL to *end*--><g class="link" data-entity-1="ent0004" data-entity-2="ent0010" data-link-type="dependency" data-source-line="53" id="lnk11"><path d="M571,995.7469 C571,1028.7169 571,1068.1369 571,1089.0669" fill="none" id="MATRICULAS_ABIERTO_FINAL-to-*end*" style="stroke:#0000FF;stroke-width:1;"/><polygon fill="#0000FF" points="571,1095.0669,575,1086.0669,571,1090.0669,567,1086.0669,571,1095.0669" style="stroke:#0000FF;stroke-width:1;"/></g><?plantuml-src VLJRRjf047ttLuoSXoHLID9N526vN2fB12e8UOcYQB27iCbwrrgl8wLLlw9VqOS-zHFuiSwk3JK4G0AizSxbd3DdhB2Iu9uCf6HHydDAaA4rgpz9AJ48Jg7LQa5tF1h4NsUJg1klVesWruV-z2uUZk4iJbU_bHK90agW5yfogSzTJ52y2fMZmGoKJgcW73vVNpTE3QhNZwTIABBlEO4sTgaRBxvXcWhrpDVNJVNwWtWKDpkAUkEfwnMYOHnDgouiMeBRw6uITsV3QFeKVOdxaxlnam-DXW201OGVBuIxeVMBwAaxllq6rMShT7qXF5oK6_Ob3nTbR0DPlcWGIYG2PV3mwH5Q3oVFXaWzjZf7eBZOlh86qqeCxYBLJizQsk082tihR2DkmnkPNfNgbYT4k04vEm-KPgoI5XQqSlAz1WxVpRmpAqeqGaEX9KEnU7Crxq11af94Q8K6IeMDMRjSnqr5OIb3oCbamf8FmxaH1YJ26x_46f43ol3uD1D5nWb8fU3QyKnKyBiwoqkcGhVXNd13Kdp7HAp-AewK6sQEIlt3DrPTQUJGgYR3QxadUVqwTE4-nId4JbIdhIMZj3_SrNTVXKQ6aMRuXPuRZniJAzv4YccT4k6CsTQEfMOtfDmq42HOw7EVo8jcnFEILLiSh0cxYXZsiQgLj3hL1KZ-fcZvbtFpmFBP9XAzD1k16zgpSCxLK9IGQ5MKqjRoRnJyZtWWr1PXUoLeCiYC1Z_NIsBAgw1Nxm9d3nuwJuCRdBBw2ztwMujrmQUSFcEO19xB9RuppsjP8UoICMX2q1oe9NiYlEJCim8pHmV2Wa4k4On-OJLE3ANd5LQXKbwJ1WnPpLYk4i69wC8JuFXr1VaPQBD7BuFWm4WoN4xyoA0wXzTC6nBVwY7Frl9lcxRRdqoYITifVDp7B86ftRVZoQD6DiGw5Km3RoWfAe_cHgX4v2Yt7Sp2xpXguJPZS10mipAN9TKpy0y0?></g></svg>