<?xml version="1.0" encoding="us-ascii" standalone="no"?><svg xmlns="http://www.w3.org/2000/svg" xmlns:xlink="http://www.w3.org/1999/xlink" contentStyleType="text/css" height="723px" preserveAspectRatio="none" style="width:368px;height:723px;background:#FFFFFF;" version="1.1" viewBox="0 0 368 723" width="368px" zoomAndPan="magnify"><defs/><g><path d="M19.5,7 L342.5,7 A12.5,12.5 0 0 1 355,19.5 L355,34.6094 L7,34.6094 L7,19.5 A12.5,12.5 0 0 1 19.5,7 " fill="#F5F5F5" style="stroke:#F5F5F5;stroke-width:1.0;"/><rect fill="none" height="439.6094" rx="12.5" ry="12.5" style="stroke:#808080;stroke-width:0.5;" width="348" x="7" y="7"/><line style="stroke:#808080;stroke-width:0.5;" x1="7" x2="355" y1="34.6094" y2="34.6094"/><text fill="#000000" font-family="sans-serif" font-size="14" lengthAdjust="spacing" textLength="169" x="96.5" y="26.5332">consultarDetalleMatricula()</text><g id="consultarDetalleMatricula.Paso1"><rect fill="#F5F5F5" height="50" rx="12.5" ry="12.5" style="stroke:#808080;stroke-width:0.5;" width="50" x="19" y="137.6094"/><line style="stroke:#808080;stroke-width:0.5;" x1="19" x2="69" y1="165.2188" y2="165.2188"/><text fill="#000000" font-family="sans-serif" font-size="14" lengthAdjust="spacing" textLength="4" x="42" y="157.1426">&#160;</text></g><g id="consultarDetalleMatricula.Paso2"><rect fill="#F5F5F5" height="50" rx="12.5" ry="12.5" style="stroke:#808080;stroke-width:0.5;" width="50" x="19" y="259.6094"/><line style="stroke:#808080;stroke-width:0.5;" x1="19" x2="69" y1="287.2188" y2="287.2188"/><text fill="#000000" font-family="sans-serif" font-size="14" lengthAdjust="spacing" textLength="4" x="42" y="279.1426">&#160;</text></g><ellipse cx="44" cy="55.6094" fill="#222222" rx="10" ry="10" style="stroke:#222222;stroke-width:1.0;"/><ellipse cx="44" cy="425.6094" fill="none" rx="11" ry="11" style="stroke:#222222;stroke-width:1.0;"/><ellipse cx="44" cy="425.6094" fill="#222222" rx="6" ry="6" style="stroke:#222222;stroke-width:1.0;"/><!--link *start*consultarDetalleMatricula to Paso1--><g id="link_*start*consultarDetalleMatricula_Paso1"><path d="M44,65.9294 C44,81.7894 44,108.5194 44,131.2494 " fill="none" id="*start*consultarDetalleMatricula-to-Paso1" style="stroke:#008000;stroke-width:1.0;"/><polygon fill="#008000" points="44,137.2494,48,128.2494,44,132.2494,40,128.2494,44,137.2494" style="stroke:#008000;stroke-width:1.0;"/><path d="M49,88.6094 L49,114.6094 L346,114.6094 L346,98.6094 L336,88.6094 L49,88.6094 " fill="#FFFFE0" style="stroke:#808080;stroke-width:0.5;"/><path d="M336,88.6094 L336,98.6094 L346,98.6094 L336,88.6094 " fill="#FFFFE0" style="stroke:#808080;stroke-width:0.5;"/><text fill="#000000" font-family="sans-serif" font-size="13" font-weight="bold" lengthAdjust="spacing" textLength="66" x="55" y="107.1045">Secretar&#237;a</text><text fill="#000000" font-family="sans-serif" font-size="13" lengthAdjust="spacing" textLength="206" x="125" y="107.1045">solicita mostrar detalle de matr&#237;cula</text></g><!--link Paso1 to Paso2--><g id="link_Paso1_Paso2"><path d="M44,187.8894 C44,208.7094 44,232.5494 44,253.3594 " fill="none" id="Paso1-to-Paso2" style="stroke:#008000;stroke-width:1.0;"/><polygon fill="#008000" points="44,259.3594,48,250.3594,44,254.3594,40,250.3594,44,259.3594" style="stroke:#008000;stroke-width:1.0;"/><path d="M49,210.6094 L49,236.6094 L297,236.6094 L297,220.6094 L287,210.6094 L49,210.6094 " fill="#FFFFE0" style="stroke:#808080;stroke-width:0.5;"/><path d="M287,210.6094 L287,220.6094 L297,220.6094 L287,210.6094 " fill="#FFFFE0" style="stroke:#808080;stroke-width:0.5;"/><text fill="#000000" font-family="sans-serif" font-size="13" font-weight="bold" lengthAdjust="spacing" textLength="51" x="55" y="229.1045">Sistema</text><text fill="#000000" font-family="sans-serif" font-size="13" lengthAdjust="spacing" textLength="172" x="110" y="229.1045">muestra datos de la matr&#237;cula</text></g><!--link Paso2 to *end*consultarDetalleMatricula--><g id="link_Paso2_*end*consultarDetalleMatricula"><path d="M44,309.8194 C44,340.6194 44,386.4494 44,408.3494 " fill="none" id="Paso2-to-*end*consultarDetalleMatricula" style="stroke:#008000;stroke-width:1.0;"/><polygon fill="#008000" points="44,414.3494,48,405.3494,44,409.3494,40,405.3494,44,414.3494" style="stroke:#008000;stroke-width:1.0;"/><path d="M49,332.6094 L49,391.6094 L346,391.6094 L346,342.6094 L336,332.6094 L49,332.6094 " fill="#FFFFE0" style="stroke:#808080;stroke-width:0.5;"/><path d="M336,332.6094 L336,342.6094 L346,342.6094 L336,332.6094 " fill="#FFFFE0" style="stroke:#808080;stroke-width:0.5;"/><text fill="#000000" font-family="sans-serif" font-size="13" font-weight="bold" lengthAdjust="spacing" textLength="66" x="55" y="351.1045">Secretar&#237;a</text><text fill="#000000" font-family="sans-serif" font-size="13" lengthAdjust="spacing" textLength="206" x="125" y="351.1045">revisa la informaci&#243;n de la matr&#237;cula</text><text fill="#000000" font-family="sans-serif" font-size="13" lengthAdjust="spacing" textLength="210" x="55" y="367.4561">&#8226; Permite solicitar regresar al listado</text><text fill="#000000" font-family="sans-serif" font-size="13" lengthAdjust="spacing" textLength="216" x="55" y="383.8076">&#8226; Permite solicitar cancelar operaci&#243;n</text></g><g id="MATRICULAS_ABIERTO"><rect fill="#F5F5F5" height="50" rx="12.5" ry="12.5" style="stroke:#808080;stroke-width:0.5;" width="175" x="93.5" y="667"/><line style="stroke:#808080;stroke-width:0.5;" x1="93.5" x2="268.5" y1="694.6094" y2="694.6094"/><text fill="#000000" font-family="sans-serif" font-size="14" lengthAdjust="spacing" textLength="155" x="103.5" y="686.5332">MATRICULAS_ABIERTO</text></g><!--link consultarDetalleMatricula to MATRICULAS_ABIERTO--><g id="link_consultarDetalleMatricula_MATRICULAS_ABIERTO"><path d="M107.64,447.37 C90.43,498.83 77,539 77,539 C77,539 77,575 77,575 C77,575 124.9844,628.5229 155.4444,662.4929 " fill="none" id="consultarDetalleMatricula-to-MATRICULAS_ABIERTO" style="stroke:#008000;stroke-width:1.0;"/><polygon fill="#008000" points="159.45,666.96,156.4197,657.5889,156.112,663.2374,150.4635,662.9297,159.45,666.96" style="stroke:#008000;stroke-width:1.0;"/><path d="M82,544 L82,570 L196,570 L196,554 L186,544 L82,544 " fill="#FFFFE0" style="stroke:#808080;stroke-width:0.5;"/><path d="M186,544 L186,554 L196,554 L186,544 " fill="#FFFFE0" style="stroke:#808080;stroke-width:0.5;"/><text fill="#000000" font-family="sans-serif" font-size="13" lengthAdjust="spacing" textLength="93" x="88" y="562.4951">abrirMatriculas()</text></g><!--link consultarDetalleMatricula to MATRICULAS_ABIERTO--><g id="link_consultarDetalleMatricula_MATRICULAS_ABIERTO"><path d="M202.87,447.37 C208,498.83 212,539 212,539 C212,539 212,575 212,575 C212,575 198.0494,627.1935 188.9694,661.1635 " fill="none" id="consultarDetalleMatricula-to-MATRICULAS_ABIERTO-1" style="stroke:#0000FF;stroke-width:1.0;"/><polygon fill="#0000FF" points="187.42,666.96,193.6084,659.2982,188.7111,662.1296,185.8797,657.2323,187.42,666.96" style="stroke:#0000FF;stroke-width:1.0;"/><path d="M217,544 L217,570 L347,570 L347,554 L337,544 L217,544 " fill="#FFFFE0" style="stroke:#808080;stroke-width:0.5;"/><path d="M337,544 L337,554 L347,554 L337,544 " fill="#FFFFE0" style="stroke:#808080;stroke-width:0.5;"/><text fill="#000000" font-family="sans-serif" font-size="13" lengthAdjust="spacing" textLength="109" x="223" y="562.4951">cancelar operaci&#243;n</text></g><!--SRC=[bPFFIiD04CRlUOgXNgfGr8AUf53_GS4_fTLJAJ9DnhfqinDcDqeHmMVntfEFq3VnITnDj5PJAoQ7R6Q__NuxNpPseao6WYaOJiXI1lixaLqK1SsaKjJAa9jc11dhQNXPchjWHuSOJyR2kKcEMBDu_VZEJKbhVlYfP4b8IjLOSBeqtNTOTTeutGjtHVRJ9hAX3BMOZSsrGpacXrhJEJfHSQwnlba3jF3hF3n64VZhmmSATHSjxwukDqlvO6i8ZS76M8ZCiD5QMc5yjy0cP3Sf2W07erQVOl5acS_mO7lK0ijQnSeXf6oTe41Ixii_8VLxcy_2vehrP9B2j0GNe0gwkGwjhAEqnAOv1HmawDW6bW_WJrpp6yvt_ey-XUwLnO1HvfObnLZDNyrgCi3RymjqILBbhJyJ4k_XuTOFK7kQ_o89hzN7Q6BIVi0PIGdytjdJujYSjwzwdQFhitR_fdtOEUbTNHOVkbgEejzFq5Sw3P_FYhL5L1B-ZQN0S2HA5YQslXbz9R-MDT8v_G-rAf1Fs3i0]--></g></svg>