<?xml version="1.0" encoding="us-ascii" standalone="no"?><svg xmlns="http://www.w3.org/2000/svg" xmlns:xlink="http://www.w3.org/1999/xlink" contentStyleType="text/css" height="723px" preserveAspectRatio="none" style="width:346px;height:723px;background:#FFFFFF;" version="1.1" viewBox="0 0 346 723" width="346px" zoomAndPan="magnify"><defs/><g><path d="M19.5,7 L320.5,7 A12.5,12.5 0 0 1 333,19.5 L333,34.6094 L7,34.6094 L7,19.5 A12.5,12.5 0 0 1 19.5,7 " fill="#F5F5F5" style="stroke:#F5F5F5;stroke-width:1.0;"/><rect fill="none" height="439.6094" rx="12.5" ry="12.5" style="stroke:#808080;stroke-width:0.5;" width="326" x="7" y="7"/><line style="stroke:#808080;stroke-width:0.5;" x1="7" x2="333" y1="34.6094" y2="34.6094"/><text fill="#000000" font-family="sans-serif" font-size="14" lengthAdjust="spacing" textLength="115" x="112.5" y="26.5332">consultarAlumno()</text><g id="consultarAlumno.Paso1"><rect fill="#F5F5F5" height="50" rx="12.5" ry="12.5" style="stroke:#808080;stroke-width:0.5;" width="50" x="19" y="137.6094"/><line style="stroke:#808080;stroke-width:0.5;" x1="19" x2="69" y1="165.2188" y2="165.2188"/><text fill="#000000" font-family="sans-serif" font-size="14" lengthAdjust="spacing" textLength="4" x="42" y="157.1426">&#160;</text></g><g id="consultarAlumno.Paso2"><rect fill="#F5F5F5" height="50" rx="12.5" ry="12.5" style="stroke:#808080;stroke-width:0.5;" width="50" x="19" y="259.6094"/><line style="stroke:#808080;stroke-width:0.5;" x1="19" x2="69" y1="287.2188" y2="287.2188"/><text fill="#000000" font-family="sans-serif" font-size="14" lengthAdjust="spacing" textLength="4" x="42" y="279.1426">&#160;</text></g><ellipse cx="44" cy="55.6094" fill="#222222" rx="10" ry="10" style="stroke:#222222;stroke-width:1.0;"/><ellipse cx="44" cy="425.6094" fill="none" rx="11" ry="11" style="stroke:#222222;stroke-width:1.0;"/><ellipse cx="44" cy="425.6094" fill="#222222" rx="6" ry="6" style="stroke:#222222;stroke-width:1.0;"/><!--link *start*consultarAlumno to Paso1--><g id="link_*start*consultarAlumno_Paso1"><path d="M44,65.9294 C44,81.7894 44,108.5194 44,131.2494 " fill="none" id="*start*consultarAlumno-to-Paso1" style="stroke:#008000;stroke-width:1.0;"/><polygon fill="#008000" points="44,137.2494,48,128.2494,44,132.2494,40,128.2494,44,137.2494" style="stroke:#008000;stroke-width:1.0;"/><path d="M49,88.6094 L49,114.6094 L275,114.6094 L275,98.6094 L265,88.6094 L49,88.6094 " fill="#FFFFE0" style="stroke:#808080;stroke-width:0.5;"/><path d="M265,88.6094 L265,98.6094 L275,98.6094 L265,88.6094 " fill="#FFFFE0" style="stroke:#808080;stroke-width:0.5;"/><text fill="#000000" font-family="sans-serif" font-size="13" font-weight="bold" lengthAdjust="spacing" textLength="66" x="55" y="107.1045">Secretar&#237;a</text><text fill="#000000" font-family="sans-serif" font-size="13" lengthAdjust="spacing" textLength="135" x="125" y="107.1045">solicita mostrar alumno</text></g><!--link Paso1 to Paso2--><g id="link_Paso1_Paso2"><path d="M44,187.8894 C44,208.7094 44,232.5494 44,253.3594 " fill="none" id="Paso1-to-Paso2" style="stroke:#008000;stroke-width:1.0;"/><polygon fill="#008000" points="44,259.3594,48,250.3594,44,254.3594,40,250.3594,44,259.3594" style="stroke:#008000;stroke-width:1.0;"/><path d="M49,210.6094 L49,236.6094 L275,236.6094 L275,220.6094 L265,210.6094 L49,210.6094 " fill="#FFFFE0" style="stroke:#808080;stroke-width:0.5;"/><path d="M265,210.6094 L265,220.6094 L275,220.6094 L265,210.6094 " fill="#FFFFE0" style="stroke:#808080;stroke-width:0.5;"/><text fill="#000000" font-family="sans-serif" font-size="13" font-weight="bold" lengthAdjust="spacing" textLength="51" x="55" y="229.1045">Sistema</text><text fill="#000000" font-family="sans-serif" font-size="13" lengthAdjust="spacing" textLength="150" x="110" y="229.1045">muestra datos del alumno</text></g><!--link Paso2 to *end*consultarAlumno--><g id="link_Paso2_*end*consultarAlumno"><path d="M44,309.8194 C44,340.6194 44,386.4494 44,408.3494 " fill="none" id="Paso2-to-*end*consultarAlumno" style="stroke:#008000;stroke-width:1.0;"/><polygon fill="#008000" points="44,414.3494,48,405.3494,44,409.3494,40,405.3494,44,414.3494" style="stroke:#008000;stroke-width:1.0;"/><path d="M49,332.6094 L49,391.6094 L324,391.6094 L324,342.6094 L314,332.6094 L49,332.6094 " fill="#FFFFE0" style="stroke:#808080;stroke-width:0.5;"/><path d="M314,332.6094 L314,342.6094 L324,342.6094 L314,332.6094 " fill="#FFFFE0" style="stroke:#808080;stroke-width:0.5;"/><text fill="#000000" font-family="sans-serif" font-size="13" font-weight="bold" lengthAdjust="spacing" textLength="66" x="55" y="351.1045">Secretar&#237;a</text><text fill="#000000" font-family="sans-serif" font-size="13" lengthAdjust="spacing" textLength="184" x="125" y="351.1045">revisa la informaci&#243;n del alumno</text><text fill="#000000" font-family="sans-serif" font-size="13" lengthAdjust="spacing" textLength="210" x="55" y="367.4561">&#8226; Permite solicitar regresar al listado</text><text fill="#000000" font-family="sans-serif" font-size="13" lengthAdjust="spacing" textLength="216" x="55" y="383.8076">&#8226; Permite solicitar cancelar operaci&#243;n</text></g><g id="ALUMNOS_ABIERTO"><rect fill="#F5F5F5" height="50" rx="12.5" ry="12.5" style="stroke:#808080;stroke-width:0.5;" width="154" x="93" y="667"/><line style="stroke:#808080;stroke-width:0.5;" x1="93" x2="247" y1="694.6094" y2="694.6094"/><text fill="#000000" font-family="sans-serif" font-size="14" lengthAdjust="spacing" textLength="134" x="103" y="686.5332">ALUMNOS_ABIERTO</text></g><!--link consultarAlumno to ALUMNOS_ABIERTO--><g id="link_consultarAlumno_ALUMNOS_ABIERTO"><path d="M99.46,447.37 C82.92,498.83 70,539 70,539 C70,539 70,575 70,575 C70,575 116.0719,628.4459 145.3619,662.4159 " fill="none" id="consultarAlumno-to-ALUMNOS_ABIERTO" style="stroke:#008000;stroke-width:1.0;"/><polygon fill="#008000" points="149.28,666.96,146.4323,657.5318,146.0149,663.1733,140.3735,662.7559,149.28,666.96" style="stroke:#008000;stroke-width:1.0;"/><path d="M75,544 L75,570 L180,570 L180,554 L170,544 L75,544 " fill="#FFFFE0" style="stroke:#808080;stroke-width:0.5;"/><path d="M170,544 L170,554 L180,554 L170,544 " fill="#FFFFE0" style="stroke:#808080;stroke-width:0.5;"/><text fill="#000000" font-family="sans-serif" font-size="13" lengthAdjust="spacing" textLength="84" x="81" y="562.4951">abrirAlumnos()</text></g><!--link consultarAlumno to ALUMNOS_ABIERTO--><g id="link_consultarAlumno_ALUMNOS_ABIERTO"><path d="M188.34,447.37 C192.64,498.83 196,539 196,539 C196,539 196,575 196,575 C196,575 184.3116,627.1351 176.7016,661.1051 " fill="none" id="consultarAlumno-to-ALUMNOS_ABIERTO-1" style="stroke:#0000FF;stroke-width:1.0;"/><polygon fill="#0000FF" points="175.39,666.96,181.2607,659.0521,176.483,662.0809,173.4542,657.3033,175.39,666.96" style="stroke:#0000FF;stroke-width:1.0;"/><path d="M201,544 L201,570 L331,570 L331,554 L321,544 L201,544 " fill="#FFFFE0" style="stroke:#808080;stroke-width:0.5;"/><path d="M321,544 L321,554 L331,554 L321,544 " fill="#FFFFE0" style="stroke:#808080;stroke-width:0.5;"/><text fill="#000000" font-family="sans-serif" font-size="13" lengthAdjust="spacing" textLength="109" x="207" y="562.4951">cancelar operaci&#243;n</text></g><!--SRC=[bLBDIiD04BxdAORsOeMY5lHK2gqe2DeMgoSHcIPZNRhP2RCRfOZWitZtv2FqJNmIDnkrRLeAJIx9jzzFvilOgJ8P2gPWE25B6PmSHlOV53JJDL0hGswM4MIiPyNBqbcV7VKmdaw4SvESicRn_CcJcv7M_59biYGa9MiYE5iw7ZbSTwgV7nVt6grg4za2XbhCnkRQeNHrdXhUQzG0BLHGU8qYyDUl1W9dY9QFDiEjadwtVm_Dk_f4YCnzixEaC7uoO5FqD0q0G7lS6L4iv4FddzW-67V0ibQnSWWfMoSeWE5hWe1C4bpAfE2ybjNQbgMiexJCINCg_251nnOIqjk3MYj1ViWTHX9wLXP18oZpo99YhEPVffe9yFt-0KEIL7dJlnh4gtsi3KNu75zxifqVeub9-mVEICgerPdU_lUWUtbxrH-C7hgzYxFhcq7ubHKiYgfhiUYXwPkeqaCZKcpsKYyu5lKhjtkDQD7k1k-npca7wqtJ_ld_0000]--></g></svg>