<svg xmlns="http://www.w3.org/2000/svg" xmlns:xlink="http://www.w3.org/1999/xlink" contentStyleType="text/css" data-diagram-type="STATE" height="1122px" preserveAspectRatio="none" style="width:930px;height:1122px;background:#FFFFFF;" version="1.1" viewBox="0 0 930 1122" width="930px" zoomAndPan="magnify"><title>Consultar Solicitud Dispensa</title><defs/><g><g class="title" data-source-line="1"><text fill="#000000" font-family="sans-serif" font-size="14" font-weight="bold" lengthAdjust="spacing" textLength="226.8438" x="341.7559" y="32.9951">Consultar Solicitud Dispensa</text></g><g id="DISPENSA_ABIERTO_INICIAL"><rect fill="#F1F1F1" height="76.2969" rx="12.5" ry="12.5" style="stroke:#181818;stroke-width:0.5;" width="178.4756" x="556.5" y="183.2969"/><line style="stroke:#181818;stroke-width:0.5;" x1="556.5" x2="734.9756" y1="229.5938" y2="229.5938"/><text fill="#000000" font-family="sans-serif" font-size="14" lengthAdjust="spacing" textLength="138.4756" x="576.5" y="211.292">DISPENSA_ABIERTO</text></g><path d="M386.5,359.2969 L904.8555,359.2969 A12.5,12.5 0 0 1 917.3555,371.7969 L917.3555,405.5938 L374,405.5938 L374,371.7969 A12.5,12.5 0 0 1 386.5,359.2969" fill="#F1F1F1"/><rect fill="none" height="257.2969" rx="12.5" ry="12.5" style="stroke:#181818;stroke-width:0.5;" width="543.3555" x="374" y="359.2969"/><line style="stroke:#181818;stroke-width:0.5;" x1="374" x2="917.3555" y1="405.5938" y2="405.5938"/><text fill="#000000" font-family="sans-serif" font-size="14" lengthAdjust="spacing" textLength="200.2178" x="545.5688" y="387.292">consultarSolicitudDispensa()</text><g id="CONSULTAR_DISPENSA_COMP.MostrarSolicitud"><rect fill="#F1F1F1" height="76.2969" rx="12.5" ry="12.5" style="stroke:#181818;stroke-width:0.5;" width="241.6738" x="386" y="472.5938"/><line style="stroke:#181818;stroke-width:0.5;" x1="386" x2="627.6738" y1="518.8906" y2="518.8906"/><text fill="#000000" font-family="sans-serif" font-size="14" lengthAdjust="spacing" textLength="201.6738" x="406" y="500.5889">Visualizaci&#243;n (Modo Lectura)</text></g><ellipse cx="507" cy="426.5938" fill="#222222" rx="10" ry="10" style="stroke:#222222;stroke-width:1;"/><ellipse cx="507" cy="595.5938" fill="none" rx="11" ry="11" style="stroke:#222222;stroke-width:1;"/><ellipse cx="507" cy="595.5938" fill="#222222" rx="6" ry="6" style="stroke:#222222;stroke-width:1;"/><g class="entity" data-entity="GMN2" data-source-line="35" data-uid="ent0003" id="entity_GMN2"><path d="M646,473.0938 L646,506.5938 L628.18,510.5938 L646,514.5938 L646,548.4922 A0,0 0 0 0 646,548.4922 L908.3555,548.4922 A0,0 0 0 0 908.3555,548.4922 L908.3555,483.0938 L898.3555,473.0938 L646,473.0938 A0,0 0 0 0 646,473.0938" fill="#FEFFDD" style="stroke:#181818;stroke-width:0.5;"/><path d="M898.3555,473.0938 L898.3555,483.0938 L908.3555,483.0938 L898.3555,473.0938" fill="#FEFFDD" style="stroke:#181818;stroke-width:0.5;"/><text fill="#000000" font-family="sans-serif" font-size="13" font-weight="bold" lengthAdjust="spacing" textLength="128.7622" x="662" y="500.1606">Sistema presenta</text><text fill="#000000" font-family="sans-serif" font-size="13" lengthAdjust="spacing" textLength="168.0986" x="662" y="515.2935">la solicitud de la dispensa</text><text fill="#000000" font-family="sans-serif" font-size="13" lengthAdjust="spacing" textLength="221.3555" x="662" y="530.4263">exclusivamente en modo Lectura.</text></g><!--link *start*CONSULTAR_DISPENSA_COMP to MostrarSolicitud--><g class="link" data-entity-1=".start.CONSULTAR_DISPENSA_COMP" data-entity-2="MostrarSolicitud" data-source-line="31" data-uid="lnk6" id="link_.start.CONSULTAR_DISPENSA_COMP_MostrarSolicitud"><path d="M507,436.8938 C507,445.8338 507,453.3438 507,466.3738" fill="none" id="*start*CONSULTAR_DISPENSA_COMP-to-MostrarSolicitud" style="stroke:#008000;stroke-width:1;"/><polygon fill="#008000" points="507,472.3738,511,463.3738,507,467.3738,503,463.3738,507,472.3738" style="stroke:#008000;stroke-width:1;"/></g><!--link MostrarSolicitud to *end*CONSULTAR_DISPENSA_COMP--><g class="link" data-entity-1="MostrarSolicitud" data-entity-2=".end.CONSULTAR_DISPENSA_COMP" data-source-line="41" data-uid="lnk8" id="link_MostrarSolicitud_.end.CONSULTAR_DISPENSA_COMP"><path d="M507,548.6138 C507,561.7038 507,569.3538 507,578.5538" fill="none" id="MostrarSolicitud-to-*end*CONSULTAR_DISPENSA_COMP" style="stroke:#008000;stroke-width:1;"/><polygon fill="#008000" points="507,584.5538,511,575.5538,507,579.5538,503,575.5538,507,584.5538" style="stroke:#008000;stroke-width:1;"/></g><g id="SOLICITUD_DISPENSA_EDITAR"><rect fill="#F1F1F1" height="76.2969" rx="12.5" ry="12.5" style="stroke:#181818;stroke-width:0.5;" width="259.3516" x="355" y="918.2969"/><line style="stroke:#181818;stroke-width:0.5;" x1="355" x2="614.3516" y1="964.5938" y2="964.5938"/><text fill="#000000" font-family="sans-serif" font-size="14" lengthAdjust="spacing" textLength="219.3516" x="375" y="946.292">SOLICITUD_DISPENSA_ABIERTA</text></g><g id="DISPENSAS_ABIERTO_FINAL"><rect fill="#F1F1F1" height="76.2969" rx="12.5" ry="12.5" style="stroke:#181818;stroke-width:0.5;" width="187.3623" x="714" y="918.2969"/><line style="stroke:#181818;stroke-width:0.5;" x1="714" x2="901.3623" y1="964.5938" y2="964.5938"/><text fill="#000000" font-family="sans-serif" font-size="14" lengthAdjust="spacing" textLength="147.3623" x="734" y="946.292">DISPENSAS_ABIERTO</text></g><ellipse cx="645.5" cy="73.2969" fill="#222222" rx="10" ry="10" style="stroke:#222222;stroke-width:1;"/><ellipse cx="645.5" cy="1105.2969" fill="none" rx="11" ry="11" style="stroke:#222222;stroke-width:1;"/><ellipse cx="645.5" cy="1105.2969" fill="#222222" rx="6" ry="6" style="stroke:#222222;stroke-width:1;"/><!--link *start* to DISPENSA_ABIERTO_INICIAL--><g class="link" data-entity-1=".start." data-entity-2="DISPENSA_ABIERTO_INICIAL" data-source-line="16" data-uid="lnk3" id="link_.start._DISPENSA_ABIERTO_INICIAL"><path d="M645.5,83.4669 C645.5,103.6469 645.5,143.6769 645.5,176.9969" fill="none" id="*start*-to-DISPENSA_ABIERTO_INICIAL" style="stroke:#008000;stroke-width:1;"/><polygon fill="#008000" points="645.5,182.9969,649.5,173.9969,645.5,177.9969,641.5,173.9969,645.5,182.9969" style="stroke:#008000;stroke-width:1;"/></g><!--link DISPENSA_ABIERTO_INICIAL to CONSULTAR_DISPENSA_COMP--><g class="link" data-entity-1="DISPENSA_ABIERTO_INICIAL" data-entity-2="CONSULTAR_DISPENSA_COMP" data-source-line="19" data-uid="lnk4" id="link_DISPENSA_ABIERTO_INICIAL_CONSULTAR_DISPENSA_COMP"><path d="M645.5,259.4769 C645.5,285.8869 645.5,316.6969 645.5,353.0569" fill="none" id="DISPENSA_ABIERTO_INICIAL-to-CONSULTAR_DISPENSA_COMP" style="stroke:#008000;stroke-width:1;"/><polygon fill="#008000" points="645.5,359.0569,649.5,350.0569,645.5,354.0569,641.5,350.0569,645.5,359.0569" style="stroke:#008000;stroke-width:1;"/><path d="M167.5,229.2669 L167.5,304.2669 L432.5,304.2669 L432.5,239.2669 L422.5,229.2669 L167.5,229.2669" fill="#FEFFDD" style="stroke:#181818;stroke-width:0.5;"/><path d="M422.5,229.2669 L422.5,239.2669 L432.5,239.2669 L422.5,229.2669" fill="#FEFFDD" style="stroke:#181818;stroke-width:0.5;"/><text fill="#000000" font-family="sans-serif" font-size="13" font-weight="bold" lengthAdjust="spacing" textLength="113.3755" x="183.5" y="256.3338">Usuario solicita</text><text fill="#000000" font-family="sans-serif" font-size="13" lengthAdjust="spacing" textLength="222.6567" x="183.5" y="271.4666">Consultar una solicitud espec&#237;fica.</text><text fill="#000000" font-family="sans-serif" font-size="13" font-weight="bold" lengthAdjust="spacing" textLength="120.999" x="183.5" y="286.5994">Sistema permite</text><text fill="#000000" font-family="sans-serif" font-size="13" lengthAdjust="spacing" textLength="99.0615" x="308.6313" y="286.5994">abrir el detalle.</text><text fill="#000000" font-family="sans-serif" font-size="13" lengthAdjust="spacing" textLength="185.9165" x="448.6929" y="271.4666">consultarSolicitudDispensa()</text></g><!--link CONSULTAR_DISPENSA_COMP to SOLICITUD_DISPENSA_EDITAR--><g class="link" data-entity-1="CONSULTAR_DISPENSA_COMP" data-entity-2="SOLICITUD_DISPENSA_EDITAR" data-source-line="45" data-uid="lnk9" id="link_CONSULTAR_DISPENSA_COMP_SOLICITUD_DISPENSA_EDITAR"><path d="M494,616.4369 C494,718.0169 494,847.1169 494,912.1369" fill="none" id="CONSULTAR_DISPENSA_COMP-to-SOLICITUD_DISPENSA_EDITAR" style="stroke:#008000;stroke-width:1;"/><polygon fill="#008000" points="494,918.1369,498,909.1369,494,913.1369,490,909.1369,494,918.1369" style="stroke:#008000;stroke-width:1;"/><path d="M6,687.2869 L6,762.2869 L303,762.2869 L303,697.2869 L293,687.2869 L6,687.2869" fill="#FEFFDD" style="stroke:#181818;stroke-width:0.5;"/><path d="M293,687.2869 L293,697.2869 L303,697.2869 L293,687.2869" fill="#FEFFDD" style="stroke:#181818;stroke-width:0.5;"/><text fill="#000000" font-family="sans-serif" font-size="13" font-weight="bold" lengthAdjust="spacing" textLength="58.646" x="22" y="714.3538">EDITAR:</text><text fill="#000000" font-family="sans-serif" font-size="13" font-weight="bold" lengthAdjust="spacing" textLength="113.3755" x="22" y="729.4866">Usuario solicita</text><text fill="#000000" font-family="sans-serif" font-size="13" lengthAdjust="spacing" textLength="139.4009" x="139.5078" y="729.4866">modificar la solicitud.</text><text fill="#000000" font-family="sans-serif" font-size="13" font-weight="bold" lengthAdjust="spacing" textLength="120.999" x="22" y="744.6194">Sistema permite</text><text fill="#000000" font-family="sans-serif" font-size="13" lengthAdjust="spacing" textLength="107.6436" x="147.1313" y="744.6194">el modo edici&#243;n.</text><text fill="#000000" font-family="sans-serif" font-size="13" lengthAdjust="spacing" textLength="163.814" x="319.9087" y="729.4866">editarSolicitudDispensa()</text></g><!--link CONSULTAR_DISPENSA_COMP to DISPENSAS_ABIERTO_FINAL--><g class="link" data-entity-1="CONSULTAR_DISPENSA_COMP" data-entity-2="DISPENSAS_ABIERTO_FINAL" data-source-line="54" data-uid="lnk10" id="link_CONSULTAR_DISPENSA_COMP_DISPENSAS_ABIERTO_FINAL"><path d="M807.5,616.4369 C807.5,718.0169 807.5,847.1169 807.5,912.1369" fill="none" id="CONSULTAR_DISPENSA_COMP-to-DISPENSAS_ABIERTO_FINAL" style="stroke:#FF0000;stroke-width:1;"/><polygon fill="#FF0000" points="807.5,918.1369,811.5,909.1369,807.5,913.1369,803.5,909.1369,807.5,918.1369" style="stroke:#FF0000;stroke-width:1;"/><text fill="#000000" font-family="sans-serif" font-size="13" lengthAdjust="spacing" textLength="167.2163" x="346.5" y="814.4866">Guardar/Cerrar solicitud()</text><path d="M529.7163,772.2869 L529.7163,847.2869 L802.7163,847.2869 L802.7163,782.2869 L792.7163,772.2869 L529.7163,772.2869" fill="#FEFFDD" style="stroke:#181818;stroke-width:0.5;"/><path d="M792.7163,772.2869 L792.7163,782.2869 L802.7163,782.2869 L792.7163,772.2869" fill="#FEFFDD" style="stroke:#181818;stroke-width:0.5;"/><text fill="#000000" font-family="sans-serif" font-size="13" font-weight="bold" lengthAdjust="spacing" textLength="82.4751" x="545.7163" y="799.3538">FINALIZAR:</text><text fill="#000000" font-family="sans-serif" font-size="13" font-weight="bold" lengthAdjust="spacing" textLength="113.3755" x="545.7163" y="814.4866">Usuario solicita</text><text fill="#000000" font-family="sans-serif" font-size="13" lengthAdjust="spacing" textLength="104.1016" x="663.2241" y="814.4866">salir del detalle.</text><text fill="#000000" font-family="sans-serif" font-size="13" font-weight="bold" lengthAdjust="spacing" textLength="120.999" x="545.7163" y="829.6194">Sistema permite</text><text fill="#000000" font-family="sans-serif" font-size="13" lengthAdjust="spacing" textLength="107.5356" x="670.8477" y="829.6194">volver al listado.</text></g><!--link SOLICITUD_DISPENSA_EDITAR to *end*--><g class="link" data-entity-1="SOLICITUD_DISPENSA_EDITAR" data-entity-2=".end." data-source-line="62" data-uid="lnk12" id="link_SOLICITUD_DISPENSA_EDITAR_.end."><path d="M614.07,969.2969 C630.57,969.2969 641.83,969.2969 641.83,969.2969 C641.83,969.2969 641.83,1056.5669 641.83,1088.6269" fill="none" id="SOLICITUD_DISPENSA_EDITAR-to-*end*" style="stroke:#0000FF;stroke-width:1;"/><polygon fill="#0000FF" points="641.83,1094.6269,645.83,1085.6269,641.83,1089.6269,637.83,1085.6269,641.83,1094.6269" style="stroke:#0000FF;stroke-width:1;"/></g><!--link DISPENSAS_ABIERTO_FINAL to *end*--><g class="link" data-entity-1="DISPENSAS_ABIERTO_FINAL" data-entity-2=".end." data-source-line="63" data-uid="lnk13" id="link_DISPENSAS_ABIERTO_FINAL_.end."><path d="M713.57,944.2969 C679.47,944.2969 649.17,944.2969 649.17,944.2969 C649.17,944.2969 649.17,1052.9169 649.17,1088.7369" fill="none" id="DISPENSAS_ABIERTO_FINAL-to-*end*" style="stroke:#0000FF;stroke-width:1;"/><polygon fill="#0000FF" points="649.17,1094.7369,653.17,1085.7369,649.17,1089.7369,645.17,1085.7369,649.17,1094.7369" style="stroke:#0000FF;stroke-width:1;"/></g><!--SRC=[bPJDRjf04CVlVefHUYYfH3vwH54a5pkH9G8HXXuQHT7Y7P9DbbsqkqPjepv5dwEdFa9UhBCs1fl4jEM0m3iV__dDt-k4amXzhMmk7JEGQYaouN8EaR1BL9O5mNleThlG7mqlailfEEmdBp-74CKGfvDaCFA7WNqIQiaCMu3I72qkuVJafFRKCFNq-gaK2jst9O8sxa7N3guPvqBTKtZLFOelac5IRnr6exJixPX3Y9BqEXwcuLtuAOd7az5T4HuE09Y5WztJWtKM3PLE1vDmVBU9w8-khg7CoYei6oeLbCvXLI4T3QZFP1fjAyHHGXMB2c-SbWh2WntTwKOu3UfbDtIdM-44956aHWSt7swXU_FktY2gs-vvAmAV4Yjd66SzcDgS6Q71bYCns0mPj2AiDsaZreDzj0AbQLQ9SmTQ-Rq_1JGXdCtET_MS7S_EYxEj9tF5gcFo9LBDxENNN6Jig2gI2kjmmM29PY4S-Xh0PaOOG0aS7PCIZm9K7BoEWWVHvvgQB9OvMgTxy5cG4Yc-iqoy_5Q02guqHGmmSxbXV_7BSw6aZBdIbbXlAHIBtAdUgTScB_diugjQBWZbq2XTFDnTz6w7UlfGqqxBP5OyAiWRSVz0wETlf-vIDFG6gzeg_4VMTy3H_-VL3L75uDTCvbQis8BIqIDSrCOijxLPGatpXL2DULyHh0zFC88VVeLfE4YY44vxCA7hnOgIB8EOhtzsmXLJ6Hu6RLlRbkrIuVOtkGV8nVyQkypjRI2sUDqZ4jxCfe5uhxN9r0LON4_QjFQQoySUN58xpinn7mtXXCuOdIR6XnGqjMoXBHZzgC7VkSIVLo9OLlAZBMT5vh4bwvhrrbSaoCSuylC-iWPvoRNjXdkbRpDyXNNjsYRN8ZdvyYzeAzcrEs0FrPMMApJ09BKhReScLczINsekyqSTj9k5Hf_972khjatV3Fi3]--></g></svg>