<svg xmlns="http://www.w3.org/2000/svg" xmlns:xlink="http://www.w3.org/1999/xlink" version="1.1" data-diagram-type="STATE" style="width:402px;height:755px;background:#FFFFFF;" width="402px" height="755px" viewBox="0 0 402 755" zoomAndPan="magnify" preserveAspectRatio="none" contentStyleType="text/css"><?plantuml 1.2026.7beta8?><defs/><g font-family="sans-serif" lengthAdjust="spacing"><g class="entity" data-qualified-name="consultarAlumno" id="ent0001" data-source-line="9"><path d="M19.5,7 L374.5,7 A12.5,12.5 0 0 1 387,19.5 L387,33.297 L7,33.297 L7,19.5 A12.5,12.5 0 0 1 19.5,7" fill="#F5F5F5"/><path d="M7,33.297 L387,33.297 L387,459.797 A12.5,12.5 0 0 1 374.5,472.297 L19.5,472.297 A12.5,12.5 0 0 1 7,459.797 L7,33.297" fill="#F5F5F5"/><rect x="7" y="7" width="380" height="465.297" fill="none" style="stroke:#808080;stroke-width:0.5;" rx="12.5" ry="12.5"/><line x1="7" y1="33.297" x2="387" y2="33.297" style="stroke:#808080;stroke-width:0.5;"/><text x="132.322" y="24.995" fill="#000" font-size="14" textLength="129.356">consultarAlumno()</text><g class="entity" data-qualified-name="consultarAlumno.Paso1" id="ent0002" data-source-line="11"><rect x="19" y="135.297" width="50" height="50" fill="#F5F5F5" style="stroke:#808080;stroke-width:0.5;" rx="12.5" ry="12.5"/><line x1="19" y1="161.594" x2="69" y2="161.594" style="stroke:#808080;stroke-width:0.5;"/><text x="41.775" y="153.292" fill="#000" font-size="14"> </text></g><g class="entity" data-qualified-name="consultarAlumno.Paso2" id="ent0003" data-source-line="12"><rect x="19" y="286.297" width="50" height="50" fill="#F5F5F5" style="stroke:#808080;stroke-width:0.5;" rx="12.5" ry="12.5"/><line x1="19" y1="312.594" x2="69" y2="312.594" style="stroke:#808080;stroke-width:0.5;"/><text x="41.775" y="304.292" fill="#000" font-size="14"> </text></g><g class="start_entity" data-qualified-name="consultarAlumno..start.consultarAlumno" id="ent0005" data-source-line="14"><ellipse cx="44" cy="54.297" rx="10" ry="10" fill="#222" style="stroke:#222;stroke-width:1;"/></g><g class="end_entity" data-qualified-name="consultarAlumno..end.consultarAlumno" id="ent0008" data-source-line="26"><ellipse cx="44" cy="448.297" rx="11" ry="11" fill="none" style="stroke:#222;stroke-width:1;"/><ellipse cx="44" cy="448.297" rx="6" ry="6" fill="#222" style="stroke:#222;stroke-width:1;"/></g><!--link *start*consultarAlumno to Paso1--><g class="link" data-entity-1="ent0005" data-entity-2="ent0002" id="lnk6" data-source-line="14" data-link-type="dependency"><path d="M44,64.527 C44,80.237 44,107.657 44,130.167" style="stroke:#008000;stroke-width:1;" fill="none" id="*start*consultarAlumno-to-Paso1"/><polygon points="44,135.167,48,126.167,44,130.167,40,126.167,44,135.167" fill="#008000" style="stroke:#008000;stroke-width:1;stroke-linejoin:miter;stroke-miterlimit:10;"/><path d="M49,87.297 L49,112.297 L303,112.297 L303,97.297 L293,87.297 L49,87.297" style="stroke:#808080;stroke-width:0.5;" fill="#FFFFE0"/><path d="M293,87.297 L293,97.297 L303,97.297 L293,87.297" style="stroke:#808080;stroke-width:0.5;" fill="#FFFFE0"/><text x="55" y="104.364" fill="#000" font-size="13" textLength="75.74" font-weight="700">Secretaría</text><text x="134.873" y="104.364" fill="#000" font-size="13" textLength="153.854">solicita mostrar alumno</text></g><!--link Paso1 to Paso2--><g class="link" data-entity-1="ent0002" data-entity-2="ent0003" id="lnk7" data-source-line="19" data-link-type="dependency"><path d="M44,185.567 C44,213.277 44,253.337 44,281.037" style="stroke:#008000;stroke-width:1;" fill="none" id="Paso1-to-Paso2"/><polygon points="44,286.037,48,277.037,44,281.037,40,277.037,44,286.037" fill="#008000" style="stroke:#008000;stroke-width:1;stroke-linejoin:miter;stroke-miterlimit:10;"/><path d="M49,208.297 L49,263.297 L331,263.297 L331,218.297 L321,208.297 L49,208.297" style="stroke:#808080;stroke-width:0.5;" fill="#FFFFE0"/><path d="M321,208.297 L321,218.297 L331,218.297 L321,208.297" style="stroke:#808080;stroke-width:0.5;" fill="#FFFFE0"/><text x="55" y="225.364" fill="#000" font-size="13" textLength="58.906" font-weight="700">Sistema</text><text x="118.039" y="225.364" fill="#000" font-size="13" textLength="175.437">muestra datos del alumno:</text><text x="55" y="240.497" fill="#000" font-size="13" textLength="261.384">• Nombres Completos y DNI / Pasaporte</text><text x="55" y="255.629" fill="#000" font-size="13" textLength="204.026">• Correo Institucional y Carrera</text></g><!--link Paso2 to *end*consultarAlumno--><g class="link" data-entity-1="ent0003" data-entity-2="ent0008" id="lnk9" data-source-line="26" data-link-type="dependency"><path d="M44,336.747 C44,366.527 44,410.507 44,431.837" style="stroke:#008000;stroke-width:1;" fill="none" id="Paso2-to-*end*consultarAlumno"/><polygon points="44,436.837,48,427.837,44,431.837,40,427.837,44,436.837" fill="#008000" style="stroke:#008000;stroke-width:1;stroke-linejoin:miter;stroke-miterlimit:10;"/><path d="M49,359.297 L49,414.297 L363,414.297 L363,369.297 L353,359.297 L49,359.297" style="stroke:#808080;stroke-width:0.5;" fill="#FFFFE0"/><path d="M353,359.297 L353,369.297 L363,369.297 L353,359.297" style="stroke:#808080;stroke-width:0.5;" fill="#FFFFE0"/><text x="55" y="376.364" fill="#000" font-size="13" textLength="75.74" font-weight="700">Secretaría</text><text x="134.873" y="376.364" fill="#000" font-size="13" textLength="213.338">revisa la información del alumno</text><text x="55" y="391.497" fill="#000" font-size="13" textLength="239.865">• Permite solicitar regresar al listado</text><text x="55" y="406.629" fill="#000" font-size="13" textLength="245.756">• Permite solicitar cancelar operación</text></g></g><g class="entity" data-qualified-name="ALUMNOS_ABIERTO" id="ent0004" data-source-line="34"><rect x="117.73" y="691.3" width="158.537" height="50" fill="#F5F5F5" style="stroke:#808080;stroke-width:0.5;" rx="12.5" ry="12.5"/><line x1="117.73" y1="717.597" x2="276.267" y2="717.597" style="stroke:#808080;stroke-width:0.5;"/><text x="127.73" y="709.295" fill="#000" font-size="14" textLength="138.537">ALUMNOS_ABIERTO</text></g><!--link consultarAlumno to ALUMNOS_ABIERTO--><g class="link" data-entity-1="ent0001" data-entity-2="ent0004" id="lnk10" data-source-line="36" data-link-type="dependency"><path d="M121.09,472.42 C104.1,524.3 91,564.3 91,564.3 C91,564.3 91,599.3 91,599.3 C91,599.3 140.327,653.279 171.407,687.289" style="stroke:#008000;stroke-width:1;" fill="none" id="consultarAlumno-to-ALUMNOS_ABIERTO"/><polygon points="174.78,690.98,171.661,681.638,171.407,687.289,165.756,687.035,174.78,690.98" fill="#008000" style="stroke:#008000;stroke-width:1;stroke-linejoin:miter;stroke-miterlimit:10;"/><path d="M96,569.3 L96,594.3 L214,594.3 L214,579.3 L204,569.3 L96,569.3" style="stroke:#808080;stroke-width:0.5;" fill="#FFFFE0"/><path d="M204,569.3 L204,579.3 L214,579.3 L204,569.3" style="stroke:#808080;stroke-width:0.5;" fill="#FFFFE0"/><text x="102" y="586.367" fill="#000" font-size="13" textLength="97.037">abrirAlumnos()</text></g><!--link consultarAlumno to ALUMNOS_ABIERTO--><g class="link" data-entity-1="ent0001" data-entity-2="ent0004" id="lnk11" data-source-line="41" data-link-type="dependency"><path d="M220.63,472.42 C225.92,524.3 230,564.3 230,564.3 C230,564.3 230,599.3 230,599.3 C230,599.3 214.957,652.161 205.287,686.171" style="stroke:#00F;stroke-width:1;" fill="none" id="consultarAlumno-to-ALUMNOS_ABIERTO-1"/><polygon points="203.92,690.98,210.229,683.417,205.287,686.171,202.534,681.229,203.92,690.98" fill="#00F" style="stroke:#00F;stroke-width:1;stroke-linejoin:miter;stroke-miterlimit:10;"/><path d="M235,569.3 L235,594.3 L380,594.3 L380,579.3 L370,569.3 L235,569.3" style="stroke:#808080;stroke-width:0.5;" fill="#FFFFE0"/><path d="M370,569.3 L370,579.3 L380,579.3 L370,569.3" style="stroke:#808080;stroke-width:0.5;" fill="#FFFFE0"/><text x="241" y="586.367" fill="#000" font-size="13" textLength="124.021">cancelar operación</text></g><?plantuml-src bLF1Qjmm4BtxAuRaaXIMD0ljeOI5pJQ1XNOJkkqfX3As9nknaiQCv1PJ2lsMtdlA9-HF-YMLj8xhU3U1O0psqvltPfuajrQsGa43bajoLC7RrvdhG46xtWArikIRYg1YtSIVtjg2FPrYiLu9rxQSiMO9_DMjRqXh_ZvaifGa6zPAiEajBprkA-sVludF5cqeaxa8mrx1rjNQeqnrRImV7Eu1EXYWy2C3WFX2MmQ9TecEZtV3uwxYwjKrZAxsLq9ahqUJNf4Dym7RcDOw0G0d-MH9XL2mll-39qVv11nhLIYFODXvGG5CFQK2icLIwSoI-9RT-3axvJoPZPMfALf0YPuTbAHRhtSj_U-lts5JJ2xaOCQcqXHv3RnVpE4eEc75ikccPSzOX1ZcrddbwqAnHHqAPXXWmQTd63-Q8KJuWi24lYc7e16KlM4nMAZxEziRfzVV9ObHGVGXP0dLmTQbc8DFsDVoUNw1jY0TFhWA4oMhnsFzxCxQzCENZukBvTVfwVpiq-UBT5O6M9ODZzx_74OXYI4z9IBnzlHomLnKM-uE3hEkartQkQxf1TAxfdtG_mS0?></g></svg>