<?xml version="1.0" encoding="us-ascii" standalone="no"?><svg xmlns="http://www.w3.org/2000/svg" xmlns:xlink="http://www.w3.org/1999/xlink" contentStyleType="text/css" height="723px" preserveAspectRatio="none" style="width:477px;height:723px;background:#FFFFFF;" version="1.1" viewBox="0 0 477 723" width="477px" zoomAndPan="magnify"><defs/><g><path d="M86.5,7 L418.5,7 A12.5,12.5 0 0 1 431,19.5 L431,34.6094 L74,34.6094 L74,19.5 A12.5,12.5 0 0 1 86.5,7 " fill="#F5F5F5" style="stroke:#F5F5F5;stroke-width:1.0;"/><rect fill="none" height="439.6094" rx="12.5" ry="12.5" style="stroke:#808080;stroke-width:0.5;" width="357" x="74" y="7"/><line style="stroke:#808080;stroke-width:0.5;" x1="74" x2="431" y1="34.6094" y2="34.6094"/><text fill="#000000" font-family="sans-serif" font-size="14" lengthAdjust="spacing" textLength="180" x="162.5" y="26.5332">consultarSolicitudDispensa()</text><g id="consultarSolicitudDispensa.Paso1"><rect fill="#F5F5F5" height="50" rx="12.5" ry="12.5" style="stroke:#808080;stroke-width:0.5;" width="50" x="86" y="137.6094"/><line style="stroke:#808080;stroke-width:0.5;" x1="86" x2="136" y1="165.2188" y2="165.2188"/><text fill="#000000" font-family="sans-serif" font-size="14" lengthAdjust="spacing" textLength="4" x="109" y="157.1426">&#160;</text></g><g id="consultarSolicitudDispensa.Paso2"><rect fill="#F5F5F5" height="50" rx="12.5" ry="12.5" style="stroke:#808080;stroke-width:0.5;" width="50" x="86" y="259.6094"/><line style="stroke:#808080;stroke-width:0.5;" x1="86" x2="136" y1="287.2188" y2="287.2188"/><text fill="#000000" font-family="sans-serif" font-size="14" lengthAdjust="spacing" textLength="4" x="109" y="279.1426">&#160;</text></g><ellipse cx="111" cy="55.6094" fill="#222222" rx="10" ry="10" style="stroke:#222222;stroke-width:1.0;"/><ellipse cx="111" cy="425.6094" fill="none" rx="11" ry="11" style="stroke:#222222;stroke-width:1.0;"/><ellipse cx="111" cy="425.6094" fill="#222222" rx="6" ry="6" style="stroke:#222222;stroke-width:1.0;"/><!--link *start*consultarSolicitudDispensa to Paso1--><g id="link_*start*consultarSolicitudDispensa_Paso1"><path d="M111,65.9294 C111,81.7894 111,108.5194 111,131.2494 " fill="none" id="*start*consultarSolicitudDispensa-to-Paso1" style="stroke:#008000;stroke-width:1.0;"/><polygon fill="#008000" points="111,137.2494,115,128.2494,111,132.2494,107,128.2494,111,137.2494" style="stroke:#008000;stroke-width:1.0;"/><path d="M116,88.6094 L116,114.6094 L422,114.6094 L422,98.6094 L412,88.6094 L116,88.6094 " fill="#FFFFE0" style="stroke:#808080;stroke-width:0.5;"/><path d="M412,88.6094 L412,98.6094 L422,98.6094 L412,88.6094 " fill="#FFFFE0" style="stroke:#808080;stroke-width:0.5;"/><text fill="#000000" font-family="sans-serif" font-size="13" font-weight="bold" lengthAdjust="spacing" textLength="66" x="122" y="107.1045">Secretar&#237;a</text><text fill="#000000" font-family="sans-serif" font-size="13" lengthAdjust="spacing" textLength="215" x="192" y="107.1045">solicita mostrar solicitud de dispensa</text></g><!--link Paso1 to Paso2--><g id="link_Paso1_Paso2"><path d="M111,187.8894 C111,208.7094 111,232.5494 111,253.3594 " fill="none" id="Paso1-to-Paso2" style="stroke:#008000;stroke-width:1.0;"/><polygon fill="#008000" points="111,259.3594,115,250.3594,111,254.3594,107,250.3594,111,259.3594" style="stroke:#008000;stroke-width:1.0;"/><path d="M116,210.6094 L116,236.6094 L359,236.6094 L359,220.6094 L349,210.6094 L116,210.6094 " fill="#FFFFE0" style="stroke:#808080;stroke-width:0.5;"/><path d="M349,210.6094 L349,220.6094 L359,220.6094 L349,210.6094 " fill="#FFFFE0" style="stroke:#808080;stroke-width:0.5;"/><text fill="#000000" font-family="sans-serif" font-size="13" font-weight="bold" lengthAdjust="spacing" textLength="51" x="122" y="229.1045">Sistema</text><text fill="#000000" font-family="sans-serif" font-size="13" lengthAdjust="spacing" textLength="167" x="177" y="229.1045">muestra datos de la solicitud</text></g><!--link Paso2 to *end*consultarSolicitudDispensa--><g id="link_Paso2_*end*consultarSolicitudDispensa"><path d="M111,309.8194 C111,340.6194 111,386.4494 111,408.3494 " fill="none" id="Paso2-to-*end*consultarSolicitudDispensa" style="stroke:#008000;stroke-width:1.0;"/><polygon fill="#008000" points="111,414.3494,115,405.3494,111,409.3494,107,405.3494,111,414.3494" style="stroke:#008000;stroke-width:1.0;"/><path d="M116,332.6094 L116,391.6094 L408,391.6094 L408,342.6094 L398,332.6094 L116,332.6094 " fill="#FFFFE0" style="stroke:#808080;stroke-width:0.5;"/><path d="M398,332.6094 L398,342.6094 L408,342.6094 L398,332.6094 " fill="#FFFFE0" style="stroke:#808080;stroke-width:0.5;"/><text fill="#000000" font-family="sans-serif" font-size="13" font-weight="bold" lengthAdjust="spacing" textLength="66" x="122" y="351.1045">Secretar&#237;a</text><text fill="#000000" font-family="sans-serif" font-size="13" lengthAdjust="spacing" textLength="201" x="192" y="351.1045">revisa la informaci&#243;n de la solicitud</text><text fill="#000000" font-family="sans-serif" font-size="13" lengthAdjust="spacing" textLength="191" x="122" y="367.4561">&#8226; Permite solicitar editar solicitud</text><text fill="#000000" font-family="sans-serif" font-size="13" lengthAdjust="spacing" textLength="210" x="122" y="383.8076">&#8226; Permite solicitar regresar al listado</text></g><g id="SOLICITUD_DISPENSA_ABIERTA"><rect fill="#F5F5F5" height="50" rx="12.5" ry="12.5" style="stroke:#808080;stroke-width:0.5;" width="233" x="7" y="667"/><line style="stroke:#808080;stroke-width:0.5;" x1="7" x2="240" y1="694.6094" y2="694.6094"/><text fill="#000000" font-family="sans-serif" font-size="14" lengthAdjust="spacing" textLength="213" x="17" y="686.5332">SOLICITUD_DISPENSA_ABIERTA</text></g><g id="DISPENSAS_ABIERTO"><rect fill="#F5F5F5" height="50" rx="12.5" ry="12.5" style="stroke:#808080;stroke-width:0.5;" width="164" x="300.5" y="667"/><line style="stroke:#808080;stroke-width:0.5;" x1="300.5" x2="464.5" y1="694.6094" y2="694.6094"/><text fill="#000000" font-family="sans-serif" font-size="14" lengthAdjust="spacing" textLength="144" x="310.5" y="686.5332">DISPENSAS_ABIERTO</text></g><!--link consultarSolicitudDispensa to SOLICITUD_DISPENSA_ABIERTA--><g id="link_consultarSolicitudDispensa_SOLICITUD_DISPENSA_ABIERTA"><path d="M167.85,447.37 C148,498.83 132.5,539 132.5,539 C132.5,539 127.8136,618.0704 125.2836,660.9304 " fill="none" id="consultarSolicitudDispensa-to-SOLICITUD_DISPENSA_ABIERTA" style="stroke:#008000;stroke-width:1.0;"/><polygon fill="#008000" points="124.93,666.92,129.4534,658.1713,125.2246,661.9287,121.4673,657.6999,124.93,666.92" style="stroke:#008000;stroke-width:1.0;"/><path d="M137.5,544 L137.5,570 L302.5,570 L302.5,554 L292.5,544 L137.5,544 " fill="#FFFFE0" style="stroke:#808080;stroke-width:0.5;"/><path d="M292.5,544 L292.5,554 L302.5,554 L292.5,544 " fill="#FFFFE0" style="stroke:#808080;stroke-width:0.5;"/><text fill="#000000" font-family="sans-serif" font-size="13" lengthAdjust="spacing" textLength="144" x="143.5" y="562.4951">editarSolicitudDispensa()</text></g><!--link consultarSolicitudDispensa to DISPENSAS_ABIERTO--><g id="link_consultarSolicitudDispensa_DISPENSAS_ABIERTO"><path d="M314.07,447.3 C338.68,534.95 362.3279,619.1634 374.0879,661.0434 " fill="none" id="consultarSolicitudDispensa-to-DISPENSAS_ABIERTO" style="stroke:#0000FF;stroke-width:1.0;"/><polygon fill="#0000FF" points="375.71,666.82,377.1279,657.0737,374.3583,662.0062,369.4258,659.2365,375.71,666.82" style="stroke:#0000FF;stroke-width:1.0;"/><path d="M355.5,544 L355.5,570 L470.5,570 L470.5,554 L460.5,544 L355.5,544 " fill="#FFFFE0" style="stroke:#808080;stroke-width:0.5;"/><path d="M460.5,544 L460.5,554 L470.5,554 L460.5,544 " fill="#FFFFE0" style="stroke:#808080;stroke-width:0.5;"/><text fill="#000000" font-family="sans-serif" font-size="13" lengthAdjust="spacing" textLength="94" x="361.5" y="562.4951">abrirDispensas()</text></g><!--SRC=[bPF1IiD048RlUOf1BoeKjQ0dARHMeI1QZ9v4P9eTwzBDRfZTA4K4dyMx9n_1D_59t6mQcvgsQ798yi-_yytCRkn4wWmPKz16aAKC3lSY-oCowab3L5AJcsO4cL7JugCMEpUEUfXCncnoBOwDCkpzumSt9QNCqs-dOK5SkiQCqreuTjZCj7bwKDmDs-yqaIras4YCjhbooB5HCf4k5trfCz8MjxOt02siDi1p586_PfaWs8TepVvokLtQRtPkeNMpEMOYVTlgr5PetoyONKnl4WI0er4dfeJ9yp_VyMXtr05Rre6G6kiOkH9o0O90p8eBwqcBaBG41r03tLw7bjPHMcBJd0eS27J65YI5S_8AMdk1vXl_HvjCZzBFs5EalZUSOY8_F_HICC3NwniCYLFfCrVpOI0H7dypC_b2hNz1vIlpcoVCObSlFsSclZWR70-khljt_K4yF3cFktVTtk3aygeRzdfrk4fGwV4iS17MDTGeMdFuvfDj-TckOOPnS_63rOPUZcR9cO_ckxWUFb8vbUnctKkHE6B9LGPR8tq3]--></g></svg>