<svg xmlns="http://www.w3.org/2000/svg" xmlns:xlink="http://www.w3.org/1999/xlink" version="1.1" data-diagram-type="STATE" style="width:439px;height:755px;background:#FFFFFF;" width="439px" height="755px" viewBox="0 0 439 755" zoomAndPan="magnify" preserveAspectRatio="none" contentStyleType="text/css"><?plantuml 1.2026.7beta8?><defs/><g font-family="sans-serif" lengthAdjust="spacing"><g class="entity" data-qualified-name="consultarDetalleMatricula" id="ent0001" data-source-line="9"><path d="M19.5,7 L411.5,7 A12.5,12.5 0 0 1 424,19.5 L424,33.297 L7,33.297 L7,19.5 A12.5,12.5 0 0 1 19.5,7" fill="#F5F5F5"/><path d="M7,33.297 L424,33.297 L424,459.797 A12.5,12.5 0 0 1 411.5,472.297 L19.5,472.297 A12.5,12.5 0 0 1 7,459.797 L7,33.297" fill="#F5F5F5"/><rect x="7" y="7" width="417" height="465.297" fill="none" style="stroke:#808080;stroke-width:0.5;" rx="12.5" ry="12.5"/><line x1="7" y1="33.297" x2="424" y2="33.297" style="stroke:#808080;stroke-width:0.5;"/><text x="120.187" y="24.995" fill="#000" font-size="14" textLength="190.627">consultarDetalleMatricula()</text><g class="entity" data-qualified-name="consultarDetalleMatricula.Paso1" id="ent0002" data-source-line="11"><rect x="19" y="135.297" width="50" height="50" fill="#F5F5F5" style="stroke:#808080;stroke-width:0.5;" rx="12.5" ry="12.5"/><line x1="19" y1="161.594" x2="69" y2="161.594" style="stroke:#808080;stroke-width:0.5;"/><text x="41.775" y="153.292" fill="#000" font-size="14"> </text></g><g class="entity" data-qualified-name="consultarDetalleMatricula.Paso2" id="ent0003" data-source-line="12"><rect x="19" y="286.297" width="50" height="50" fill="#F5F5F5" style="stroke:#808080;stroke-width:0.5;" rx="12.5" ry="12.5"/><line x1="19" y1="312.594" x2="69" y2="312.594" style="stroke:#808080;stroke-width:0.5;"/><text x="41.775" y="304.292" fill="#000" font-size="14"> </text></g><g class="start_entity" data-qualified-name="consultarDetalleMatricula..start.consultarDetalleMatricula" id="ent0005" data-source-line="14"><ellipse cx="44" cy="54.297" rx="10" ry="10" fill="#222" style="stroke:#222;stroke-width:1;"/></g><g class="end_entity" data-qualified-name="consultarDetalleMatricula..end.consultarDetalleMatricula" id="ent0008" data-source-line="26"><ellipse cx="44" cy="448.297" rx="11" ry="11" fill="none" style="stroke:#222;stroke-width:1;"/><ellipse cx="44" cy="448.297" rx="6" ry="6" fill="#222" style="stroke:#222;stroke-width:1;"/></g><!--link *start*consultarDetalleMatricula to Paso1--><g class="link" data-entity-1="ent0005" data-entity-2="ent0002" id="lnk6" data-source-line="14" data-link-type="dependency"><path d="M44,64.527 C44,80.237 44,107.657 44,130.167" style="stroke:#008000;stroke-width:1;" fill="none" id="*start*consultarDetalleMatricula-to-Paso1"/><polygon points="44,135.167,48,126.167,44,130.167,40,126.167,44,135.167" fill="#008000" style="stroke:#008000;stroke-width:1;stroke-linejoin:miter;stroke-miterlimit:10;"/><path d="M49,87.297 L49,112.297 L385,112.297 L385,97.297 L375,87.297 L49,87.297" style="stroke:#808080;stroke-width:0.5;" fill="#FFFFE0"/><path d="M375,87.297 L375,97.297 L385,97.297 L375,87.297" style="stroke:#808080;stroke-width:0.5;" fill="#FFFFE0"/><text x="55" y="104.364" fill="#000" font-size="13" textLength="75.74" font-weight="700">Secretaría</text><text x="134.873" y="104.364" fill="#000" font-size="13" textLength="235.879">solicita mostrar detalle de matrícula</text></g><!--link Paso1 to Paso2--><g class="link" data-entity-1="ent0002" data-entity-2="ent0003" id="lnk7" data-source-line="19" data-link-type="dependency"><path d="M44,185.567 C44,213.277 44,253.337 44,281.037" style="stroke:#008000;stroke-width:1;" fill="none" id="Paso1-to-Paso2"/><polygon points="44,286.037,48,277.037,44,281.037,40,277.037,44,286.037" fill="#008000" style="stroke:#008000;stroke-width:1;stroke-linejoin:miter;stroke-miterlimit:10;"/><path d="M49,208.297 L49,263.297 L400,263.297 L400,218.297 L390,208.297 L49,208.297" style="stroke:#808080;stroke-width:0.5;" fill="#FFFFE0"/><path d="M390,208.297 L390,218.297 L400,218.297 L390,208.297" style="stroke:#808080;stroke-width:0.5;" fill="#FFFFE0"/><text x="55" y="225.364" fill="#000" font-size="13" textLength="58.906" font-weight="700">Sistema</text><text x="118.039" y="225.364" fill="#000" font-size="13" textLength="228.376">muestra las Materias Matriculadas:</text><text x="55" y="240.497" fill="#000" font-size="13" textLength="144.162">• Lista de Asignaturas</text><text x="55" y="255.629" fill="#000" font-size="13" textLength="330.656">• Grupo y Estado (Aprobada/Reprobada/Cursando)</text></g><!--link Paso2 to *end*consultarDetalleMatricula--><g class="link" data-entity-1="ent0003" data-entity-2="ent0008" id="lnk9" data-source-line="26" data-link-type="dependency"><path d="M44,336.747 C44,366.527 44,410.507 44,431.837" style="stroke:#008000;stroke-width:1;" fill="none" id="Paso2-to-*end*consultarDetalleMatricula"/><polygon points="44,436.837,48,427.837,44,431.837,40,427.837,44,436.837" fill="#008000" style="stroke:#008000;stroke-width:1;stroke-linejoin:miter;stroke-miterlimit:10;"/><path d="M49,359.297 L49,414.297 L388,414.297 L388,369.297 L378,359.297 L49,359.297" style="stroke:#808080;stroke-width:0.5;" fill="#FFFFE0"/><path d="M378,359.297 L378,369.297 L388,369.297 L378,359.297" style="stroke:#808080;stroke-width:0.5;" fill="#FFFFE0"/><text x="55" y="376.364" fill="#000" font-size="13" textLength="75.74" font-weight="700">Secretaría</text><text x="134.873" y="376.364" fill="#000" font-size="13" textLength="238.412">revisa la información de la matrícula</text><text x="55" y="391.497" fill="#000" font-size="13" textLength="239.865">• Permite solicitar regresar al listado</text><text x="55" y="406.629" fill="#000" font-size="13" textLength="245.756">• Permite solicitar cancelar operación</text></g></g><g class="entity" data-qualified-name="MATRICULAS_ABIERTO" id="ent0004" data-source-line="34"><rect x="126.1" y="691.3" width="178.806" height="50" fill="#F5F5F5" style="stroke:#808080;stroke-width:0.5;" rx="12.5" ry="12.5"/><line x1="126.1" y1="717.597" x2="304.906" y2="717.597" style="stroke:#808080;stroke-width:0.5;"/><text x="136.1" y="709.295" fill="#000" font-size="14" textLength="158.806">MATRICULAS_ABIERTO</text></g><!--link consultarDetalleMatricula to MATRICULAS_ABIERTO--><g class="link" data-entity-1="ent0001" data-entity-2="ent0004" id="lnk10" data-source-line="36" data-link-type="dependency"><path d="M136.01,472.42 C118.22,524.3 104.5,564.3 104.5,564.3 C104.5,564.3 104.5,599.3 104.5,599.3 C104.5,599.3 156.223,653.358 188.773,687.368" style="stroke:#008000;stroke-width:1;" fill="none" id="consultarDetalleMatricula-to-MATRICULAS_ABIERTO"/><polygon points="192.23,690.98,188.897,681.712,188.773,687.368,183.117,687.244,192.23,690.98" fill="#008000" style="stroke:#008000;stroke-width:1;stroke-linejoin:miter;stroke-miterlimit:10;"/><path d="M109.5,569.3 L109.5,594.3 L237.5,594.3 L237.5,579.3 L227.5,569.3 L109.5,569.3" style="stroke:#808080;stroke-width:0.5;" fill="#FFFFE0"/><path d="M227.5,569.3 L227.5,579.3 L237.5,579.3 L227.5,569.3" style="stroke:#808080;stroke-width:0.5;" fill="#FFFFE0"/><text x="115.5" y="586.367" fill="#000" font-size="13" textLength="107.637">abrirMatriculas()</text></g><!--link consultarDetalleMatricula to MATRICULAS_ABIERTO--><g class="link" data-entity-1="ent0001" data-entity-2="ent0004" id="lnk11" data-source-line="41" data-link-type="dependency"><path d="M242.71,472.42 C248.8,524.3 253.5,564.3 253.5,564.3 C253.5,564.3 253.5,599.3 253.5,599.3 C253.5,599.3 236.166,652.218 225.026,686.228" style="stroke:#00F;stroke-width:1;" fill="none" id="consultarDetalleMatricula-to-MATRICULAS_ABIERTO-1"/><polygon points="223.47,690.98,230.073,683.672,225.026,686.228,222.47,681.182,223.47,690.98" fill="#00F" style="stroke:#00F;stroke-width:1;stroke-linejoin:miter;stroke-miterlimit:10;"/><path d="M258.5,569.3 L258.5,594.3 L403.5,594.3 L403.5,579.3 L393.5,569.3 L258.5,569.3" style="stroke:#808080;stroke-width:0.5;" fill="#FFFFE0"/><path d="M393.5,569.3 L393.5,579.3 L403.5,579.3 L393.5,569.3" style="stroke:#808080;stroke-width:0.5;" fill="#FFFFE0"/><text x="264.5" y="586.367" fill="#000" font-size="13" textLength="124.021">cancelar operación</text></g><?plantuml-src bLFDQjj04BxhAORaOXTCMaDxAC6Wk6a996smqrC8PIHDrSMhNJ6xQX6bq6VfFQSyWj-aJz9PALOLopO48JIQd-_xvjFAhPGfaR40OpDoLCARbv7haencDKXgPSZN9K5fTHrUUhMFrjCPfgkSRMMokTMMfJ__vclIslxOxhIS4RTTEMFTAoyz3f6EtxyErw1j6oPo8Gr7gJMkqXxv7NdKcgxGiqehZQFn4Q23lNNu6G50kE4H2fg1QtJsrUxqj9kuVN47azlZd8dCtMJM6pAoCrWJ75mr2O3JPBQab8MVr_TuUfBCm5cjKkKH2kiy8qFMgfCd5A9mVHyaDlDaiWQquswu1kpJG-pAUIfQvgAYm0XQTX8lY5KRjAPawDu-pltz_GSkPH23fjYftA2l65sl_86hqa8DvzALMHZ59Tj4C4uMj8dc5JiqcHtltsNwP1TnzXa-CdrNBYm3odorN62grWycA9RKbf6jvclYGWdqvWkmO0Yvam2ri3Mh7EnFqQIa9R0bSKluTBbVtU6yYcyM5_FFb_7oItnsSRwu-TISfM4wYlQVq__kJCIV7REDLHp-m9vXcB3Y3iIDnb6dxp1NeYjw7jKkGpPa_m00?></g></svg>