<?xml version="1.0" encoding="us-ascii" standalone="no"?><svg xmlns="http://www.w3.org/2000/svg" xmlns:xlink="http://www.w3.org/1999/xlink" contentStyleType="text/css" height="739px" preserveAspectRatio="none" style="width:492px;height:739px;background:#FFFFFF;" version="1.1" viewBox="0 0 492 739" width="492px" zoomAndPan="magnify"><defs/><g><path d="M91.5,7 L413.5,7 A12.5,12.5 0 0 1 426,19.5 L426,34.6094 L79,34.6094 L79,19.5 A12.5,12.5 0 0 1 91.5,7 " fill="#F5F5F5" style="stroke:#F5F5F5;stroke-width:1.0;"/><rect fill="none" height="455.6094" rx="12.5" ry="12.5" style="stroke:#808080;stroke-width:0.5;" width="347" x="79" y="7"/><line style="stroke:#808080;stroke-width:0.5;" x1="79" x2="426" y1="34.6094" y2="34.6094"/><text fill="#000000" font-family="sans-serif" font-size="14" lengthAdjust="spacing" textLength="155" x="175" y="26.5332">crearSolicitudDispensa()</text><g id="crearSolicitudDispensa.Paso1"><rect fill="#F5F5F5" height="50" rx="12.5" ry="12.5" style="stroke:#808080;stroke-width:0.5;" width="50" x="91" y="137.6094"/><line style="stroke:#808080;stroke-width:0.5;" x1="91" x2="141" y1="165.2188" y2="165.2188"/><text fill="#000000" font-family="sans-serif" font-size="14" lengthAdjust="spacing" textLength="4" x="114" y="157.1426">&#160;</text></g><g id="crearSolicitudDispensa.Paso2"><rect fill="#F5F5F5" height="50" rx="12.5" ry="12.5" style="stroke:#808080;stroke-width:0.5;" width="50" x="91" y="259.6094"/><line style="stroke:#808080;stroke-width:0.5;" x1="91" x2="141" y1="287.2188" y2="287.2188"/><text fill="#000000" font-family="sans-serif" font-size="14" lengthAdjust="spacing" textLength="4" x="114" y="279.1426">&#160;</text></g><ellipse cx="116" cy="55.6094" fill="#222222" rx="10" ry="10" style="stroke:#222222;stroke-width:1.0;"/><ellipse cx="116" cy="441.6094" fill="none" rx="11" ry="11" style="stroke:#222222;stroke-width:1.0;"/><ellipse cx="116" cy="441.6094" fill="#222222" rx="6" ry="6" style="stroke:#222222;stroke-width:1.0;"/><!--link *start*crearSolicitudDispensa to Paso1--><g id="link_*start*crearSolicitudDispensa_Paso1"><path d="M116,65.9294 C116,81.7894 116,108.5194 116,131.2494 " fill="none" id="*start*crearSolicitudDispensa-to-Paso1" style="stroke:#008000;stroke-width:1.0;"/><polygon fill="#008000" points="116,137.2494,120,128.2494,116,132.2494,112,128.2494,116,137.2494" style="stroke:#008000;stroke-width:1.0;"/><path d="M121,88.6094 L121,114.6094 L412,114.6094 L412,98.6094 L402,88.6094 L121,88.6094 " fill="#FFFFE0" style="stroke:#808080;stroke-width:0.5;"/><path d="M402,88.6094 L402,98.6094 L412,98.6094 L402,88.6094 " fill="#FFFFE0" style="stroke:#808080;stroke-width:0.5;"/><text fill="#000000" font-family="sans-serif" font-size="13" font-weight="bold" lengthAdjust="spacing" textLength="66" x="127" y="107.1045">Secretar&#237;a</text><text fill="#000000" font-family="sans-serif" font-size="13" lengthAdjust="spacing" textLength="200" x="197" y="107.1045">solicita crear solicitud de dispensa</text></g><!--link Paso1 to Paso2--><g id="link_Paso1_Paso2"><path d="M116,187.8894 C116,208.7094 116,232.5494 116,253.3594 " fill="none" id="Paso1-to-Paso2" style="stroke:#008000;stroke-width:1.0;"/><polygon fill="#008000" points="116,259.3594,120,250.3594,116,254.3594,112,250.3594,116,259.3594" style="stroke:#008000;stroke-width:1.0;"/><path d="M121,210.6094 L121,236.6094 L417,236.6094 L417,220.6094 L407,210.6094 L121,210.6094 " fill="#FFFFE0" style="stroke:#808080;stroke-width:0.5;"/><path d="M407,210.6094 L407,220.6094 L417,220.6094 L407,210.6094 " fill="#FFFFE0" style="stroke:#808080;stroke-width:0.5;"/><text fill="#000000" font-family="sans-serif" font-size="13" font-weight="bold" lengthAdjust="spacing" textLength="51" x="127" y="229.1045">Sistema</text><text fill="#000000" font-family="sans-serif" font-size="13" lengthAdjust="spacing" textLength="220" x="182" y="229.1045">permite introducir datos de la solicitud</text></g><!--link Paso2 to *end*crearSolicitudDispensa--><g id="link_Paso2_*end*crearSolicitudDispensa"><path d="M116,309.8294 C116,344.3994 116,400.3794 116,424.5594 " fill="none" id="Paso2-to-*end*crearSolicitudDispensa" style="stroke:#008000;stroke-width:1.0;"/><polygon fill="#008000" points="116,430.5594,120,421.5594,116,425.5594,112,421.5594,116,430.5594" style="stroke:#008000;stroke-width:1.0;"/><path d="M121,332.6094 L121,407.6094 L385,407.6094 L385,342.6094 L375,332.6094 L121,332.6094 " fill="#FFFFE0" style="stroke:#808080;stroke-width:0.5;"/><path d="M375,332.6094 L375,342.6094 L385,342.6094 L375,332.6094 " fill="#FFFFE0" style="stroke:#808080;stroke-width:0.5;"/><text fill="#000000" font-family="sans-serif" font-size="13" font-weight="bold" lengthAdjust="spacing" textLength="66" x="127" y="351.1045">Secretar&#237;a</text><text fill="#000000" font-family="sans-serif" font-size="13" lengthAdjust="spacing" textLength="173" x="197" y="351.1045">introduce datos de la solicitud</text><text fill="#000000" font-family="sans-serif" font-size="13" font-weight="bold" lengthAdjust="spacing" textLength="51" x="127" y="367.4561">Sistema</text><text fill="#000000" font-family="sans-serif" font-size="13" lengthAdjust="spacing" textLength="128" x="182" y="367.4561">permite crear solicitud</text><text fill="#000000" font-family="sans-serif" font-size="13" lengthAdjust="spacing" textLength="213" x="127" y="383.8076">&#8226; Permite solicitar confirmar creaci&#243;n</text><text fill="#000000" font-family="sans-serif" font-size="13" lengthAdjust="spacing" textLength="216" x="127" y="400.1592">&#8226; Permite solicitar cancelar operaci&#243;n</text></g><g id="SOLICITUD_DISPENSA_ABIERTA"><rect fill="#F5F5F5" height="50" rx="12.5" ry="12.5" style="stroke:#808080;stroke-width:0.5;" width="233" x="7" y="683"/><line style="stroke:#808080;stroke-width:0.5;" x1="7" x2="240" y1="710.6094" y2="710.6094"/><text fill="#000000" font-family="sans-serif" font-size="14" lengthAdjust="spacing" textLength="213" x="17" y="702.5332">SOLICITUD_DISPENSA_ABIERTA</text></g><g id="DISPENSAS_ABIERTO"><rect fill="#F5F5F5" height="50" rx="12.5" ry="12.5" style="stroke:#808080;stroke-width:0.5;" width="164" x="300.5" y="683"/><line style="stroke:#808080;stroke-width:0.5;" x1="300.5" x2="464.5" y1="710.6094" y2="710.6094"/><text fill="#000000" font-family="sans-serif" font-size="14" lengthAdjust="spacing" textLength="144" x="310.5" y="702.5332">DISPENSAS_ABIERTO</text></g><!--link crearSolicitudDispensa to SOLICITUD_DISPENSA_ABIERTA--><g id="link_crearSolicitudDispensa_SOLICITUD_DISPENSA_ABIERTA"><path d="M167.05,463.16 C147.58,514.91 132.5,555 132.5,555 C132.5,555 127.8136,634.0704 125.2836,676.9304 " fill="none" id="crearSolicitudDispensa-to-SOLICITUD_DISPENSA_ABIERTA" style="stroke:#008000;stroke-width:1.0;"/><polygon fill="#008000" points="124.93,682.92,129.4534,674.1713,125.2246,677.9287,121.4673,673.6999,124.93,682.92" style="stroke:#008000;stroke-width:1.0;"/><path d="M137.5,560 L137.5,586 L302.5,586 L302.5,570 L292.5,560 L137.5,560 " fill="#FFFFE0" style="stroke:#808080;stroke-width:0.5;"/><path d="M292.5,560 L292.5,570 L302.5,570 L292.5,560 " fill="#FFFFE0" style="stroke:#808080;stroke-width:0.5;"/><text fill="#000000" font-family="sans-serif" font-size="13" lengthAdjust="spacing" textLength="144" x="143.5" y="578.4951">editarSolicitudDispensa()</text></g><!--link crearSolicitudDispensa to DISPENSAS_ABIERTO--><g id="link_crearSolicitudDispensa_DISPENSAS_ABIERTO"><path d="M315.22,463.22 C339.56,551.44 362.7434,635.4163 374.2634,677.1463 " fill="none" id="crearSolicitudDispensa-to-DISPENSAS_ABIERTO" style="stroke:#0000FF;stroke-width:1.0;"/><polygon fill="#0000FF" points="375.86,682.93,377.3208,673.1901,374.5295,678.1103,369.6093,675.3189,375.86,682.93" style="stroke:#0000FF;stroke-width:1.0;"/><path d="M355.5,560 L355.5,586 L485.5,586 L485.5,570 L475.5,560 L355.5,560 " fill="#FFFFE0" style="stroke:#808080;stroke-width:0.5;"/><path d="M475.5,560 L475.5,570 L485.5,570 L475.5,560 " fill="#FFFFE0" style="stroke:#808080;stroke-width:0.5;"/><text fill="#000000" font-family="sans-serif" font-size="13" lengthAdjust="spacing" textLength="109" x="361.5" y="578.4951">cancelar operaci&#243;n</text></g><!--SRC=[bPFDIWCn4CVl-nI3lQXGr8AUf51RXOBOujQJYAIRSGsR9iiaYnGHV1Rlddm4tyGdCVlLhjqFSFUIpFndVZEJn4H2nOpO2fJcQ326isFFR8p4L5GpIg7GhcE4MCjrkgduRhJ52nP48Ub4yR6Mcfm-VBPhb5A_x2erSQHS5H9RLzo-PVLClQlJzA_9TjDu9ZN3Na38oDTI1C8cV29CZCgm_OCzO0QQdV3gUU2-8WDaqZap-gJPFCZbzuSFqB_lXOIe7lh3IeHoVO9MwTIYp01mlXpwwF2MqVSdEpzQ3i7aTR2ygdARSE08l2WjYqR5ivGvDiFKm8Cki30MLpaqHbe99nBAakP980WuizgaKCcsHRI01t_0RWB_wBT4OWUnjTwT6HNYd_SFc1UASfm4WLPFWbRfoaK5uljBTUkP2b2wXNQqYdxJ_jlcTlcpw-bukhYRF4wc_lponXyzZYwcbxUBKNOxsjrbWjBk5uvP5bUpUbxBLTsEl-yEe8ENdGcbpx1oCiZJXXjUXxSzwdRmKYQOS-lrDkAQ1bk2VW40]--></g></svg>