<svg xmlns="http://www.w3.org/2000/svg" xmlns:xlink="http://www.w3.org/1999/xlink" version="1.1" data-diagram-type="STATE" style="width:522px;height:785px;background:#FFFFFF;" width="522px" height="785px" viewBox="0 0 522 785" zoomAndPan="magnify" preserveAspectRatio="none" contentStyleType="text/css"><?plantuml 1.2026.7beta8?><defs/><g font-family="sans-serif" lengthAdjust="spacing"><g class="entity" data-qualified-name="crearSolicitudDispensa" id="ent0001" data-source-line="9"><path d="M39.18,7 L476.18,7 A12.5,12.5 0 0 1 488.68,19.5 L488.68,33.297 L26.68,33.297 L26.68,19.5 A12.5,12.5 0 0 1 39.18,7" fill="#F5F5F5"/><path d="M26.68,33.297 L488.68,33.297 L488.68,489.797 A12.5,12.5 0 0 1 476.18,502.297 L39.18,502.297 A12.5,12.5 0 0 1 26.68,489.797 L26.68,33.297" fill="#F5F5F5"/><rect x="26.68" y="7" width="462" height="495.297" fill="none" style="stroke:#808080;stroke-width:0.5;" rx="12.5" ry="12.5"/><line x1="26.68" y1="33.297" x2="488.68" y2="33.297" style="stroke:#808080;stroke-width:0.5;"/><text x="171.879" y="24.995" fill="#000" font-size="14" textLength="171.603">crearSolicitudDispensa()</text><g class="entity" data-qualified-name="crearSolicitudDispensa.Paso1" id="ent0002" data-source-line="11"><rect x="38.68" y="135.297" width="50" height="50" fill="#F5F5F5" style="stroke:#808080;stroke-width:0.5;" rx="12.5" ry="12.5"/><line x1="38.68" y1="161.594" x2="88.68" y2="161.594" style="stroke:#808080;stroke-width:0.5;"/><text x="61.455" y="153.292" fill="#000" font-size="14"> </text></g><g class="entity" data-qualified-name="crearSolicitudDispensa.Paso2" id="ent0003" data-source-line="12"><rect x="38.68" y="301.297" width="50" height="50" fill="#F5F5F5" style="stroke:#808080;stroke-width:0.5;" rx="12.5" ry="12.5"/><line x1="38.68" y1="327.594" x2="88.68" y2="327.594" style="stroke:#808080;stroke-width:0.5;"/><text x="61.455" y="319.292" fill="#000" font-size="14"> </text></g><g class="start_entity" data-qualified-name="crearSolicitudDispensa..start.crearSolicitudDispensa" id="ent0006" data-source-line="14"><ellipse cx="63.68" cy="54.297" rx="10" ry="10" fill="#222" style="stroke:#222;stroke-width:1;"/></g><g class="end_entity" data-qualified-name="crearSolicitudDispensa..end.crearSolicitudDispensa" id="ent0009" data-source-line="27"><ellipse cx="63.68" cy="478.297" rx="11" ry="11" fill="none" style="stroke:#222;stroke-width:1;"/><ellipse cx="63.68" cy="478.297" rx="6" ry="6" fill="#222" style="stroke:#222;stroke-width:1;"/></g><!--link *start*crearSolicitudDispensa to Paso1--><g class="link" data-entity-1="ent0006" data-entity-2="ent0002" id="lnk7" data-source-line="14" data-link-type="dependency"><path d="M63.68,64.527 C63.68,80.237 63.68,107.657 63.68,130.167" style="stroke:#008000;stroke-width:1;" fill="none" id="*start*crearSolicitudDispensa-to-Paso1"/><polygon points="63.68,135.167,67.68,126.167,63.68,130.167,59.68,126.167,63.68,135.167" fill="#008000" style="stroke:#008000;stroke-width:1;stroke-linejoin:miter;stroke-miterlimit:10;"/><path d="M68.68,87.297 L68.68,112.297 L393.68,112.297 L393.68,97.297 L383.68,87.297 L68.68,87.297" style="stroke:#808080;stroke-width:0.5;" fill="#FFFFE0"/><path d="M383.68,87.297 L383.68,97.297 L393.68,97.297 L383.68,87.297" style="stroke:#808080;stroke-width:0.5;" fill="#FFFFE0"/><text x="74.68" y="104.364" fill="#000" font-size="13" textLength="75.74" font-weight="700">Secretaría</text><text x="154.553" y="104.364" fill="#000" font-size="13" textLength="224.517">solicita crear solicitud de dispensa</text></g><!--link Paso1 to Paso2--><g class="link" data-entity-1="ent0002" data-entity-2="ent0003" id="lnk8" data-source-line="19" data-link-type="dependency"><path d="M63.68,185.497 C63.68,216.507 63.68,264.947 63.68,295.997" style="stroke:#008000;stroke-width:1;" fill="none" id="Paso1-to-Paso2"/><polygon points="63.68,300.997,67.68,291.997,63.68,295.997,59.68,291.997,63.68,300.997" fill="#008000" style="stroke:#008000;stroke-width:1;stroke-linejoin:miter;stroke-miterlimit:10;"/><path d="M68.68,208.297 L68.68,278.297 L464.68,278.297 L464.68,218.297 L454.68,208.297 L68.68,208.297" style="stroke:#808080;stroke-width:0.5;" fill="#FFFFE0"/><path d="M454.68,208.297 L454.68,218.297 L464.68,218.297 L454.68,208.297" style="stroke:#808080;stroke-width:0.5;" fill="#FFFFE0"/><text x="74.68" y="225.364" fill="#000" font-size="13" textLength="58.906" font-weight="700">Sistema</text><text x="137.719" y="225.364" fill="#000" font-size="13" textLength="257.017">permite introducir datos de la solicitud:</text><text x="74.68" y="240.497" fill="#000" font-size="13" textLength="318.551">• Alumno Solicitante y Asignatura de la dispensa</text><text x="74.68" y="255.629" fill="#000" font-size="13" textLength="302.459">• Tipo/Motivo, Día(s) y Franja horaria afectada</text><text x="74.68" y="270.762" fill="#000" font-size="13" textLength="375.883">• Asignatura solapada, Justificación y Documento adjunto</text></g><!--link Paso2 to *end*crearSolicitudDispensa--><g class="link" data-entity-1="ent0003" data-entity-2="ent0009" id="lnk10" data-source-line="27" data-link-type="dependency"><path d="M63.68,351.727 C63.68,385.107 63.68,438.477 63.68,462.017" style="stroke:#008000;stroke-width:1;" fill="none" id="Paso2-to-*end*crearSolicitudDispensa"/><polygon points="63.68,467.017,67.68,458.017,63.68,462.017,59.68,458.017,63.68,467.017" fill="#008000" style="stroke:#008000;stroke-width:1;stroke-linejoin:miter;stroke-miterlimit:10;"/><path d="M68.68,374.297 L68.68,444.297 L365.68,444.297 L365.68,384.297 L355.68,374.297 L68.68,374.297" style="stroke:#808080;stroke-width:0.5;" fill="#FFFFE0"/><path d="M355.68,374.297 L355.68,384.297 L365.68,384.297 L355.68,374.297" style="stroke:#808080;stroke-width:0.5;" fill="#FFFFE0"/><text x="74.68" y="391.364" fill="#000" font-size="13" textLength="75.74" font-weight="700">Secretaría</text><text x="154.553" y="391.364" fill="#000" font-size="13" textLength="196.581">introduce datos de la solicitud</text><text x="74.68" y="406.497" fill="#000" font-size="13" textLength="58.906" font-weight="700">Sistema</text><text x="137.719" y="406.497" fill="#000" font-size="13" textLength="147.329">permite crear solicitud</text><text x="74.68" y="421.629" fill="#000" font-size="13" textLength="244.125">• Permite solicitar confirmar creación</text><text x="74.68" y="436.762" fill="#000" font-size="13" textLength="245.756">• Permite solicitar cancelar operación</text></g></g><g class="entity" data-qualified-name="SOLICITUD_DISPENSA_ABIERTA" id="ent0004" data-source-line="36"><rect x="7" y="721.3" width="239.352" height="50" fill="#F5F5F5" style="stroke:#808080;stroke-width:0.5;" rx="12.5" ry="12.5"/><line x1="7" y1="747.597" x2="246.352" y2="747.597" style="stroke:#808080;stroke-width:0.5;"/><text x="17" y="739.295" fill="#000" font-size="14" textLength="219.352">SOLICITUD_DISPENSA_ABIERTA</text></g><g class="entity" data-qualified-name="DISPENSAS_ABIERTO" id="ent0005" data-source-line="37"><rect x="305.99" y="721.3" width="167.362" height="50" fill="#F5F5F5" style="stroke:#808080;stroke-width:0.5;" rx="12.5" ry="12.5"/><line x1="305.99" y1="747.597" x2="473.352" y2="747.597" style="stroke:#808080;stroke-width:0.5;"/><text x="315.99" y="739.295" fill="#000" font-size="14" textLength="147.362">DISPENSAS_ABIERTO</text></g><!--link crearSolicitudDispensa to SOLICITUD_DISPENSA_ABIERTA--><g class="link" data-entity-1="ent0001" data-entity-2="ent0004" id="lnk11" data-source-line="39" data-link-type="dependency"><path d="M157.75,502.66 C136.68,554.74 120.68,594.3 120.68,594.3 C120.68,594.3 120.68,629.3 120.68,629.3 C120.68,629.3 123.402,681.977 125.162,715.987" style="stroke:#008000;stroke-width:1;" fill="none" id="crearSolicitudDispensa-to-SOLICITUD_DISPENSA_ABIERTA"/><polygon points="125.42,720.98,128.95,711.785,125.162,715.987,120.96,712.199,125.42,720.98" fill="#008000" style="stroke:#008000;stroke-width:1;stroke-linejoin:miter;stroke-miterlimit:10;"/><path d="M125.68,599.3 L125.68,624.3 L309.68,624.3 L309.68,609.3 L299.68,599.3 L125.68,599.3" style="stroke:#808080;stroke-width:0.5;" fill="#FFFFE0"/><path d="M299.68,599.3 L299.68,609.3 L309.68,609.3 L299.68,599.3" style="stroke:#808080;stroke-width:0.5;" fill="#FFFFE0"/><text x="131.68" y="616.367" fill="#000" font-size="13" textLength="163.814">editarSolicitudDispensa()</text></g><!--link crearSolicitudDispensa to DISPENSAS_ABIERTO--><g class="link" data-entity-1="ent0001" data-entity-2="ent0005" id="lnk12" data-source-line="44" data-link-type="dependency"><path d="M324.26,502.63 C348.16,591.28 370.649,674.732 381.809,716.132" style="stroke:#00F;stroke-width:1;" fill="none" id="crearSolicitudDispensa-to-DISPENSAS_ABIERTO"/><polygon points="383.11,720.96,384.63,711.229,381.809,716.132,376.905,713.311,383.11,720.96" fill="#00F" style="stroke:#00F;stroke-width:1;stroke-linejoin:miter;stroke-miterlimit:10;"/><path d="M362.68,599.3 L362.68,624.3 L507.68,624.3 L507.68,609.3 L497.68,599.3 L362.68,599.3" style="stroke:#808080;stroke-width:0.5;" fill="#FFFFE0"/><path d="M497.68,599.3 L497.68,609.3 L507.68,609.3 L497.68,599.3" style="stroke:#808080;stroke-width:0.5;" fill="#FFFFE0"/><text x="368.68" y="616.367" fill="#000" font-size="13" textLength="124.021">cancelar operación</text></g><?plantuml-src bLJDQjj04BxhAORaafIOj8RsK891YH9mQHDJkQSGmbWxLZQMTiJkgiMKGf-bzvxw27cJFabNlr4iML2CiJJpVVFDVBDhiv4gGuqfA1PaA8DthptJ1ZMgJI-OI4Lscn5ad6oBbqxkcYsTOxI9DUTAN732sk7Z1xkb9E5lkqZMWdI5YZLkE-dGOh_IuTNRujE3xPRnJ166WqWJwf0J6KcRYq2QZ9J1e-C3G0F3IVZk0K3nXRe8bEW56dup79wsZDjNTp2vFOmraRgRp3eavQO5LeLtcp80SBQQXUIQiAYVVkFPwMe6fke6gzwQrro0811rWoMRb2XBjigbKazxEgOjZQMqqir8fzA1fBAQHHv93G8jcq8tmUS-tjVqlpz_WP_agMAe3KJbw5lmZOmLsbnZJNtHTKLSoenFFx6LN_a40ZVwaJbsr2jtrXuH7bYZbWYufiYYw18xnLr7cBdi2Np8ZPLh6M4ad_ueLoVWA4z9MGOKZxdxtM_Oz8LXRdd_iQh6AXfsQjpddVLsPbpKYEOaQ8XOhQLEYoV7AgSSnwEAA74FxDGw-DQ17-tr26y-pY_coo_1VJ0F5vVNeN_ldyylFo_zycplJpS5cdXO9svANY_gUNlkshFz4xU04Rro9xhu7-biXaGnyC3rzjfPHuHNIKwLRh_VGRaXOnkXVm00?></g></svg>