<svg xmlns="http://www.w3.org/2000/svg" xmlns:xlink="http://www.w3.org/1999/xlink" contentStyleType="text/css" data-diagram-type="STATE" height="1414px" preserveAspectRatio="none" style="width:1501px;height:1414px;background:#FFFFFF;" version="1.1" viewBox="0 0 1501 1414" width="1501px" zoomAndPan="magnify"><title>Editar solicitud de dispensa</title><defs/><g><g class="title" data-source-line="1"><text fill="#000000" font-family="sans-serif" font-size="14" font-weight="bold" lengthAdjust="spacing" textLength="219.3105" x="634.314" y="32.9951">Editar solicitud de dispensa</text></g><g id="SOLICITUD_DISPENSA_ABIERTA_INICIAL"><rect fill="#F1F1F1" height="76.2969" rx="12.5" ry="12.5" style="stroke:#181818;stroke-width:0.5;" width="259.3516" x="722.5" y="203.2969"/><line style="stroke:#181818;stroke-width:0.5;" x1="722.5" x2="981.8516" y1="249.5938" y2="249.5938"/><text fill="#000000" font-family="sans-serif" font-size="14" lengthAdjust="spacing" textLength="219.3516" x="742.5" y="231.292">SOLICITUD_DISPENSA_ABIERTA</text></g><path d="M384.5,399.2969 L1319.1396,399.2969 A12.5,12.5 0 0 1 1331.6396,411.7969 L1331.6396,445.5938 L372,445.5938 L372,411.7969 A12.5,12.5 0 0 1 384.5,399.2969" fill="#F1F1F1"/><rect fill="none" height="399.2969" rx="12.5" ry="12.5" style="stroke:#181818;stroke-width:0.5;" width="959.6396" x="372" y="399.2969"/><line style="stroke:#181818;stroke-width:0.5;" x1="372" x2="1331.6396" y1="445.5938" y2="445.5938"/><text fill="#000000" font-family="sans-serif" font-size="14" lengthAdjust="spacing" textLength="218.4902" x="742.5747" y="427.292">EDICION_SOLICITUD_DISPENSA</text><g id="EDICION_SOLICITUD_COMP.PermitirModificacion"><rect fill="#F1F1F1" height="76.2969" rx="12.5" ry="12.5" style="stroke:#181818;stroke-width:0.5;" width="157.7559" x="896" y="512.5938"/><line style="stroke:#181818;stroke-width:0.5;" x1="896" x2="1053.7559" y1="558.8906" y2="558.8906"/><text fill="#000000" font-family="sans-serif" font-size="14" lengthAdjust="spacing" textLength="117.7559" x="916" y="540.5889">Edici&#243;n de Datos</text></g><g id="EDICION_SOLICITUD_COMP.ValidarModificaciones"><rect fill="#F1F1F1" height="76.2969" rx="12.5" ry="12.5" style="stroke:#181818;stroke-width:0.5;" width="199.4551" x="875.5" y="639.5938"/><line style="stroke:#181818;stroke-width:0.5;" x1="875.5" x2="1074.9551" y1="685.8906" y2="685.8906"/><text fill="#000000" font-family="sans-serif" font-size="14" lengthAdjust="spacing" textLength="159.4551" x="895.5" y="667.5889">Validaci&#243;n de Cambios</text></g><ellipse cx="975" cy="466.5938" fill="#222222" rx="10" ry="10" style="stroke:#222222;stroke-width:1;"/><ellipse cx="975" cy="777.5938" fill="none" rx="11" ry="11" style="stroke:#222222;stroke-width:1;"/><ellipse cx="975" cy="777.5938" fill="#222222" rx="6" ry="6" style="stroke:#222222;stroke-width:1;"/><g class="entity" data-entity="GMN5" data-source-line="36" data-uid="ent0006" id="entity_GMN5"><path d="M1072.5,520.5938 L1072.5,546.5938 L1054.17,550.5938 L1072.5,554.5938 L1072.5,580.8594 A0,0 0 0 0 1072.5,580.8594 L1299.7593,580.8594 A0,0 0 0 0 1299.7593,580.8594 L1299.7593,530.5938 L1289.7593,520.5938 L1072.5,520.5938 A0,0 0 0 0 1072.5,520.5938" fill="#FEFFDD" style="stroke:#181818;stroke-width:0.5;"/><path d="M1289.7593,520.5938 L1289.7593,530.5938 L1299.7593,530.5938 L1289.7593,520.5938" fill="#FEFFDD" style="stroke:#181818;stroke-width:0.5;"/><text fill="#000000" font-family="sans-serif" font-size="13" font-weight="bold" lengthAdjust="spacing" textLength="120.999" x="1088.5" y="547.6606">Sistema permite</text><text fill="#000000" font-family="sans-serif" font-size="13" lengthAdjust="spacing" textLength="61.1279" x="1213.6313" y="547.6606">modificar</text><text fill="#000000" font-family="sans-serif" font-size="13" lengthAdjust="spacing" textLength="157.168" x="1088.5" y="562.7935">los datos de la solicitud.</text></g><g class="entity" data-entity="GMN8" data-source-line="43" data-uid="ent0009" id="entity_GMN8"><path d="M383,647.5938 L383,707.8594 L618.5684,707.8594 L618.5684,657.5938 L608.5684,647.5938 L383,647.5938" fill="#FEFFDD" style="stroke:#181818;stroke-width:0.5;"/><path d="M608.5684,647.5938 L608.5684,657.5938 L618.5684,657.5938 L608.5684,647.5938" fill="#FEFFDD" style="stroke:#181818;stroke-width:1;"/><text fill="#000000" font-family="sans-serif" font-size="13" font-weight="bold" lengthAdjust="spacing" textLength="112.7598" x="399" y="674.6606">Alumno solicita</text><text fill="#000000" font-family="sans-serif" font-size="13" lengthAdjust="spacing" textLength="55.7324" x="515.8921" y="674.6606">registrar</text><text fill="#000000" font-family="sans-serif" font-size="13" lengthAdjust="spacing" textLength="194.5684" x="399" y="689.7935">las modificaciones realizadas.</text></g><g class="entity" data-entity="GMN11" data-source-line="51" data-uid="ent0012" id="entity_GMN11"><path d="M1093,624.5938 L1093,673.5938 L1074.83,677.5938 L1093,681.5938 L1093,730.2578 A0,0 0 0 0 1093,730.2578 L1322.6396,730.2578 A0,0 0 0 0 1322.6396,730.2578 L1322.6396,634.5938 L1312.6396,624.5938 L1093,624.5938 A0,0 0 0 0 1093,624.5938" fill="#FEFFDD" style="stroke:#181818;stroke-width:0.5;"/><path d="M1312.6396,624.5938 L1312.6396,634.5938 L1322.6396,634.5938 L1312.6396,624.5938" fill="#FEFFDD" style="stroke:#181818;stroke-width:0.5;"/><text fill="#000000" font-family="sans-serif" font-size="13" font-weight="bold" lengthAdjust="spacing" textLength="107.6689" x="1109" y="651.6606">Sistema valida</text><text fill="#000000" font-family="sans-serif" font-size="13" lengthAdjust="spacing" textLength="76.8384" x="1220.8013" y="651.6606">los cambios</text><text fill="#000000" font-family="sans-serif" font-size="13" lengthAdjust="spacing" textLength="70.4336" x="1109" y="666.7935">realizados.</text><text fill="#000000" font-family="sans-serif" font-size="13" font-weight="bold" lengthAdjust="spacing" textLength="91.5522" x="1109" y="681.9263">Si hay error:</text><text fill="#000000" font-family="sans-serif" font-size="13" lengthAdjust="spacing" textLength="165.4961" x="1109" y="697.0591">informa inconsistencias y</text><text fill="#000000" font-family="sans-serif" font-size="13" lengthAdjust="spacing" textLength="127.1182" x="1109" y="712.1919">permite correcci&#243;n.</text></g><g class="entity" data-entity="GMN14" data-source-line="62" data-uid="ent0015" id="entity_GMN14"><path d="M637,640.0938 L637,715.4922 A0,0 0 0 0 637,715.4922 L857.2578,715.4922 A0,0 0 0 0 857.2578,715.4922 L857.2578,681.5938 L875.37,677.5938 L857.2578,673.5938 L857.2578,650.0938 L847.2578,640.0938 L637,640.0938 A0,0 0 0 0 637,640.0938" fill="#FEFFDD" style="stroke:#181818;stroke-width:0.5;"/><path d="M847.2578,640.0938 L847.2578,650.0938 L857.2578,650.0938 L847.2578,640.0938" fill="#FEFFDD" style="stroke:#181818;stroke-width:0.5;"/><text fill="#000000" font-family="sans-serif" font-size="13" font-weight="bold" lengthAdjust="spacing" textLength="128.1655" x="653" y="667.1606">Sistema confirma</text><text fill="#000000" font-family="sans-serif" font-size="13" lengthAdjust="spacing" textLength="46.96" x="785.2979" y="667.1606">que los</text><text fill="#000000" font-family="sans-serif" font-size="13" lengthAdjust="spacing" textLength="147.8623" x="653" y="682.2935">datos est&#225;n listos para</text><text fill="#000000" font-family="sans-serif" font-size="13" lengthAdjust="spacing" textLength="97.3794" x="653" y="697.4263">ser guardados.</text></g><!--link *start*EDICION_SOLICITUD_COMP to PermitirModificacion--><g class="link" data-entity-1=".start.EDICION_SOLICITUD_COMP" data-entity-2="PermitirModificacion" data-source-line="33" data-uid="lnk6" id="link_.start.EDICION_SOLICITUD_COMP_PermitirModificacion"><path d="M975,476.8938 C975,485.8338 975,493.3438 975,506.3738" fill="none" id="*start*EDICION_SOLICITUD_COMP-to-PermitirModificacion" style="stroke:#008000;stroke-width:1;"/><polygon fill="#008000" points="975,512.3738,979,503.3738,975,507.3738,971,503.3738,975,512.3738" style="stroke:#008000;stroke-width:1;"/></g><!--link PermitirModificacion to ValidarModificaciones--><g class="link" data-entity-1="PermitirModificacion" data-entity-2="ValidarModificaciones" data-source-line="40" data-uid="lnk7" id="link_PermitirModificacion_ValidarModificaciones"><path d="M948.67,588.6938 C948.67,604.7738 948.67,617.4438 948.67,633.5138" fill="none" id="PermitirModificacion-to-ValidarModificaciones" style="stroke:#008000;stroke-width:1;"/><polygon fill="#008000" points="948.67,639.5138,952.67,630.5138,948.67,634.5138,944.67,630.5138,948.67,639.5138" style="stroke:#008000;stroke-width:1;"/></g><!--link ValidarModificaciones to PermitirModificacion--><g class="link" data-entity-1="ValidarModificaciones" data-entity-2="PermitirModificacion" data-source-line="48" data-uid="lnk8" id="link_ValidarModificaciones_PermitirModificacion"><path d="M1001.33,639.4938 C1001.33,623.4137 1001.33,610.7438 1001.33,594.6738" fill="none" id="ValidarModificaciones-to-PermitirModificacion" style="stroke:#FF0000;stroke-width:1;"/><polygon fill="#FF0000" points="1001.33,588.6738,997.33,597.6738,1001.33,593.6738,1005.33,597.6738,1001.33,588.6738" style="stroke:#FF0000;stroke-width:1;"/></g><!--link ValidarModificaciones to *end*EDICION_SOLICITUD_COMP--><g class="link" data-entity-1="ValidarModificaciones" data-entity-2=".end.EDICION_SOLICITUD_COMP" data-source-line="59" data-uid="lnk10" id="link_ValidarModificaciones_.end.EDICION_SOLICITUD_COMP"><path d="M975,715.6838 C975,733.7938 975,748.1038 975,760.3638" fill="none" id="ValidarModificaciones-to-*end*EDICION_SOLICITUD_COMP" style="stroke:#008000;stroke-width:1;"/><polygon fill="#008000" points="975,766.3638,979,757.3638,975,761.3638,971,757.3638,975,766.3638" style="stroke:#008000;stroke-width:1;"/></g><!--link GMN8 to ValidarModificaciones--><g class="link" data-entity-1="GMN8" data-entity-2="ValidarModificaciones" data-source-line="43" data-uid="lnk10" id="link_GMN8_ValidarModificaciones"><path d="M501,647.5738 C501,639.3238 501,632.5938 501,632.5938 C501,632.5938 885.75,632.5938 885.75,632.5938 C885.75,632.5938 885.75,635.2338 885.75,639.2338" fill="none" id="GMN8-ValidarModificaciones" style="stroke:#181818;stroke-width:1;stroke-dasharray:7,7;"/></g><g id="DISPENSAS_ABIERTO_FINAL"><rect fill="#F1F1F1" height="76.2969" rx="12.5" ry="12.5" style="stroke:#181818;stroke-width:0.5;" width="187.3623" x="587.5" y="1175.2969"/><line style="stroke:#181818;stroke-width:0.5;" x1="587.5" x2="774.8623" y1="1221.5938" y2="1221.5938"/><text fill="#000000" font-family="sans-serif" font-size="14" lengthAdjust="spacing" textLength="147.3623" x="607.5" y="1203.292">DISPENSAS_ABIERTO</text></g><g id="SOLICITUD_DISPENSA_ABIERTA_FINAL"><rect fill="#F1F1F1" height="76.2969" rx="12.5" ry="12.5" style="stroke:#181818;stroke-width:0.5;" width="259.3516" x="894.5" y="1175.2969"/><line style="stroke:#181818;stroke-width:0.5;" x1="894.5" x2="1153.8516" y1="1221.5938" y2="1221.5938"/><text fill="#000000" font-family="sans-serif" font-size="14" lengthAdjust="spacing" textLength="219.3516" x="914.5" y="1203.292">SOLICITUD_DISPENSA_ABIERTA</text></g><ellipse cx="852" cy="73.2969" fill="#222222" rx="10" ry="10" style="stroke:#222222;stroke-width:1;"/><ellipse cx="681" cy="1397.2969" fill="none" rx="11" ry="11" style="stroke:#222222;stroke-width:1;"/><ellipse cx="681" cy="1397.2969" fill="#222222" rx="6" ry="6" style="stroke:#222222;stroke-width:1;"/><g class="entity" data-entity="GMN2" data-source-line="21" data-uid="ent0003" id="entity_GMN2"><path d="M6,553.2969 L6,643.8281 A0,0 0 0 0 6,643.8281 L252.4482,643.8281 A0,0 0 0 0 252.4482,643.8281 L252.4482,603.2969 L371.74,599.2969 L252.4482,595.2969 L252.4482,563.2969 L242.4482,553.2969 L6,553.2969 A0,0 0 0 0 6,553.2969" fill="#FEFFDD" style="stroke:#181818;stroke-width:0.5;"/><path d="M242.4482,553.2969 L242.4482,563.2969 L252.4482,563.2969 L242.4482,553.2969" fill="#FEFFDD" style="stroke:#181818;stroke-width:0.5;"/><text fill="#000000" font-family="sans-serif" font-size="13" font-weight="bold" lengthAdjust="spacing" textLength="112.7598" x="22" y="580.3638">Alumno solicita</text><text fill="#000000" font-family="sans-serif" font-size="13" lengthAdjust="spacing" textLength="66.8472" x="138.8921" y="580.3638">editar una</text><text fill="#000000" font-family="sans-serif" font-size="13" lengthAdjust="spacing" textLength="205.4482" x="22" y="595.4966">solicitud de dispensa existente.</text><text fill="#000000" font-family="sans-serif" font-size="13" font-weight="bold" lengthAdjust="spacing" textLength="120.999" x="22" y="610.6294">Sistema permite</text><text fill="#000000" font-family="sans-serif" font-size="13" lengthAdjust="spacing" textLength="53.7012" x="147.1313" y="610.6294">habilitar</text><text fill="#000000" font-family="sans-serif" font-size="13" lengthAdjust="spacing" textLength="184.1899" x="22" y="625.7622">la edici&#243;n de la informaci&#243;n.</text></g><g class="entity" data-entity="GMN17" data-source-line="73" data-uid="ent0018" id="entity_GMN17"><path d="M248.5,1160.2969 L248.5,1265.9609 A0,0 0 0 0 248.5,1265.9609 L467.4375,1265.9609 A0,0 0 0 0 467.4375,1265.9609 L467.4375,1217.2969 L587.39,1213.2969 L467.4375,1209.2969 L467.4375,1170.2969 L457.4375,1160.2969 L248.5,1160.2969 A0,0 0 0 0 248.5,1160.2969" fill="#FEFFDD" style="stroke:#181818;stroke-width:0.5;"/><path d="M457.4375,1160.2969 L457.4375,1170.2969 L467.4375,1170.2969 L457.4375,1160.2969" fill="#FEFFDD" style="stroke:#181818;stroke-width:0.5;"/><text fill="#000000" font-family="sans-serif" font-size="13" font-weight="bold" lengthAdjust="spacing" textLength="77.3589" x="264.5" y="1187.3638">GUARDAR:</text><text fill="#000000" font-family="sans-serif" font-size="13" font-weight="bold" lengthAdjust="spacing" textLength="112.7598" x="264.5" y="1202.4966">Alumno solicita</text><text fill="#000000" font-family="sans-serif" font-size="13" lengthAdjust="spacing" textLength="55.7324" x="381.3921" y="1202.4966">registrar</text><text fill="#000000" font-family="sans-serif" font-size="13" lengthAdjust="spacing" textLength="151.4043" x="264.5" y="1217.6294">los cambios realizados.</text><text fill="#000000" font-family="sans-serif" font-size="13" font-weight="bold" lengthAdjust="spacing" textLength="120.999" x="264.5" y="1232.7622">Sistema permite</text><text fill="#000000" font-family="sans-serif" font-size="13" lengthAdjust="spacing" textLength="52.8062" x="389.6313" y="1232.7622">persistir</text><text fill="#000000" font-family="sans-serif" font-size="13" lengthAdjust="spacing" textLength="97.1509" x="264.5" y="1247.895">la informaci&#243;n.</text></g><g class="entity" data-entity="GMN20" data-source-line="84" data-uid="ent0021" id="entity_GMN20"><path d="M1273.5,1175.7969 L1273.5,1209.2969 L1153.71,1213.2969 L1273.5,1217.2969 L1273.5,1251.1953 A0,0 0 0 0 1273.5,1251.1953 L1494.9385,1251.1953 A0,0 0 0 0 1494.9385,1251.1953 L1494.9385,1185.7969 L1484.9385,1175.7969 L1273.5,1175.7969 A0,0 0 0 0 1273.5,1175.7969" fill="#FEFFDD" style="stroke:#181818;stroke-width:0.5;"/><path d="M1484.9385,1175.7969 L1484.9385,1185.7969 L1494.9385,1185.7969 L1484.9385,1175.7969" fill="#FEFFDD" style="stroke:#181818;stroke-width:0.5;"/><text fill="#000000" font-family="sans-serif" font-size="13" font-weight="bold" lengthAdjust="spacing" textLength="112.7598" x="1289.5" y="1202.8638">Alumno solicita</text><text fill="#000000" font-family="sans-serif" font-size="13" lengthAdjust="spacing" textLength="63.5464" x="1406.3921" y="1202.8638">mantener</text><text fill="#000000" font-family="sans-serif" font-size="13" lengthAdjust="spacing" textLength="143.1333" x="1289.5" y="1217.9966">la solicitud abierta sin</text><text fill="#000000" font-family="sans-serif" font-size="13" lengthAdjust="spacing" textLength="104.1016" x="1289.5" y="1233.1294">salir del detalle.</text></g><!--link *start* to SOLICITUD_DISPENSA_ABIERTA_INICIAL--><g class="link" data-entity-1=".start." data-entity-2="SOLICITUD_DISPENSA_ABIERTA_INICIAL" data-source-line="15" data-uid="lnk3" id="link_.start._SOLICITUD_DISPENSA_ABIERTA_INICIAL"><path d="M852,83.3069 C852,106.3269 852,158.0869 852,197.0069" fill="none" id="*start*-to-SOLICITUD_DISPENSA_ABIERTA_INICIAL" style="stroke:#008000;stroke-width:1;"/><polygon fill="#008000" points="852,203.0069,856,194.0069,852,198.0069,848,194.0069,852,203.0069" style="stroke:#008000;stroke-width:1;"/></g><!--link SOLICITUD_DISPENSA_ABIERTA_INICIAL to EDICION_SOLICITUD_COMP--><g class="link" data-entity-1="SOLICITUD_DISPENSA_ABIERTA_INICIAL" data-entity-2="EDICION_SOLICITUD_COMP" data-source-line="18" data-uid="lnk4" id="link_SOLICITUD_DISPENSA_ABIERTA_INICIAL_EDICION_SOLICITUD_COMP"><path d="M852,279.5569 C852,309.3669 852,347.2569 852,393.0169" fill="none" id="SOLICITUD_DISPENSA_ABIERTA_INICIAL-to-EDICION_SOLICITUD_COMP" style="stroke:#008000;stroke-width:1;"/><polygon fill="#008000" points="852,399.0169,856,390.0169,852,394.0169,848,390.0169,852,399.0169" style="stroke:#008000;stroke-width:1;"/><text fill="#000000" font-family="sans-serif" font-size="13" lengthAdjust="spacing" textLength="163.814" x="678" y="325.3538">editarSolicitudDispensa()</text></g><!--link EDICION_SOLICITUD_COMP to DISPENSAS_ABIERTO_FINAL--><g class="link" data-entity-1="EDICION_SOLICITUD_COMP" data-entity-2="DISPENSAS_ABIERTO_FINAL" data-source-line="70" data-uid="lnk11" id="link_EDICION_SOLICITUD_COMP_DISPENSAS_ABIERTO_FINAL"><path d="M681,798.3069 C681,933.7569 681,1095.1869 681,1169.1369" fill="none" id="EDICION_SOLICITUD_COMP-to-DISPENSAS_ABIERTO_FINAL" style="stroke:#008000;stroke-width:1;"/><polygon fill="#008000" points="681,1175.1369,685,1166.1369,681,1170.1369,677,1166.1369,681,1175.1369" style="stroke:#008000;stroke-width:1;"/><text fill="#000000" font-family="sans-serif" font-size="13" lengthAdjust="spacing" textLength="176.9092" x="494" y="972.7838">guardarSolicitudDispensa()</text></g><!--link EDICION_SOLICITUD_COMP to SOLICITUD_DISPENSA_ABIERTA_FINAL--><g class="link" data-entity-1="EDICION_SOLICITUD_COMP" data-entity-2="SOLICITUD_DISPENSA_ABIERTA_FINAL" data-source-line="81" data-uid="lnk12" id="link_EDICION_SOLICITUD_COMP_SOLICITUD_DISPENSA_ABIERTA_FINAL"><path d="M1024,798.3069 C1024,933.7569 1024,1095.1869 1024,1169.1369" fill="none" id="EDICION_SOLICITUD_COMP-to-SOLICITUD_DISPENSA_ABIERTA_FINAL" style="stroke:#008000;stroke-width:1;"/><polygon fill="#008000" points="1024,1175.1369,1028,1166.1369,1024,1170.1369,1020,1166.1369,1024,1175.1369" style="stroke:#008000;stroke-width:1;"/></g><!--link DISPENSAS_ABIERTO_FINAL to *end*--><g class="link" data-entity-1="DISPENSAS_ABIERTO_FINAL" data-entity-2=".end." data-source-line="90" data-uid="lnk14" id="link_DISPENSAS_ABIERTO_FINAL_.end."><path d="M681,1251.4169 C681,1293.9469 681,1354.1869 681,1380.2369" fill="none" id="DISPENSAS_ABIERTO_FINAL-to-*end*" style="stroke:#0000FF;stroke-width:1;"/><polygon fill="#0000FF" points="681,1386.2369,685,1377.2369,681,1381.2369,677,1377.2369,681,1386.2369" style="stroke:#0000FF;stroke-width:1;"/></g><!--SRC=[dLLHJjj04FttAKRf1ssbKDfFX93SE21B8ObYqX-4eeqz2LlitNHtWqghdg8du0mzGYxMMNlj66AJj4W8lFjsTjwRDpk6cnIXdt3356YPyfYRTG89GiBr2eLcddS4tMuNUgFXHNWvdVYzSFDx244V-j5rE1ZPJS_Jzroic68P29cWnXLy_7HIMrLCtE-kfboWULmXI6NkP6rZp9A4YoLyFA7GXXc4Q3G8U-7rD9W5OJJk3oD_vdyE-vDhVnOEQSSV0DFGQOTrNA1-G83HSBP5zaPNOwZ_s42xi39W6QZyZjmDezb5EAGqNWJQWNNsCoe3xMFatRo_XUxDcwL25BVTymDKikNi2wDOme2b43CjRRNNMde7I5o_gqN8Ky3SJL5ffi0PwUqxpnEIYAUuC20NBG4yAzpP_DnFrvcGfIVPsOVvkOiCQy5oLADV0RzpRL0OF2v3HNOXOx12bN63UQWxDkUfZPQ3KcPZntppHzXOzCd5GggCvKl77ee4REwUzxgBVdf5OZbcd5_7rPLC-8B754kAmbkrgm9cfExKJdrXAK_OiqEeysF5JdMonx8vjsVpmo-Tq7HvWSnheFZoBYz28wxqRujscSEg2fXA3ObbujIhAbFKO2kV_MhKfPvxemIrv4i3DUDgoJTvIE6IAAbwyYHkzbnkXHJw1_M8RY9m11Vf-gka_Z6e13FyGPBhbPBAqd_ObYb7DnUK-2fC_gLIUzcMfIeIoCdQkiI5JofaoKqwRjLfwed7WiQfFLnjkbQWlx4KEc-kc9DcZnN2cGDYgHJ6hcVQTPjldZIFIJEN6ZnidYXbbsEhNfK_oEl_uuPI7sAnu4GeL-ZR6grA5QvmCMgpUH8qdxJziZEf0cXKi5mpbMmLh5Z-AeTbv0_2m8zeIWwWvqSZEowdaPkLBM_7bc6NEBPDbrDt-G7lQqk8ybMydFgJm9ziQtrGmzGSjUEabkU2_hUkuTLJs_gs7gJCthdfPAWQPz-1ryXdZ0Q9m2hrxSYX-O7Aq0elsboJ5hR_K_erB4tn6REsSXArURf6v-g_]--></g></svg>