<?xml version="1.0" encoding="us-ascii" standalone="no"?><svg xmlns="http://www.w3.org/2000/svg" xmlns:xlink="http://www.w3.org/1999/xlink" contentStyleType="text/css" height="739px" preserveAspectRatio="none" style="width:365px;height:739px;background:#FFFFFF;" version="1.1" viewBox="0 0 365 739" width="365px" zoomAndPan="magnify"><defs/><g><path d="M19.5,7 L339.5,7 A12.5,12.5 0 0 1 352,19.5 L352,34.6094 L7,34.6094 L7,19.5 A12.5,12.5 0 0 1 19.5,7 " fill="#F5F5F5" style="stroke:#F5F5F5;stroke-width:1.0;"/><rect fill="none" height="455.6094" rx="12.5" ry="12.5" style="stroke:#808080;stroke-width:0.5;" width="345" x="7" y="7"/><line style="stroke:#808080;stroke-width:0.5;" x1="7" x2="352" y1="34.6094" y2="34.6094"/><text fill="#000000" font-family="sans-serif" font-size="14" lengthAdjust="spacing" textLength="158" x="100.5" y="26.5332">editarSolicitudDispensa()</text><g id="editarSolicitudDispensa.Paso1"><rect fill="#F5F5F5" height="50" rx="12.5" ry="12.5" style="stroke:#808080;stroke-width:0.5;" width="50" x="19" y="137.6094"/><line style="stroke:#808080;stroke-width:0.5;" x1="19" x2="69" y1="165.2188" y2="165.2188"/><text fill="#000000" font-family="sans-serif" font-size="14" lengthAdjust="spacing" textLength="4" x="42" y="157.1426">&#160;</text></g><g id="editarSolicitudDispensa.Paso2"><rect fill="#F5F5F5" height="50" rx="12.5" ry="12.5" style="stroke:#808080;stroke-width:0.5;" width="50" x="19" y="259.6094"/><line style="stroke:#808080;stroke-width:0.5;" x1="19" x2="69" y1="287.2188" y2="287.2188"/><text fill="#000000" font-family="sans-serif" font-size="14" lengthAdjust="spacing" textLength="4" x="42" y="279.1426">&#160;</text></g><ellipse cx="44" cy="55.6094" fill="#222222" rx="10" ry="10" style="stroke:#222222;stroke-width:1.0;"/><ellipse cx="44" cy="441.6094" fill="none" rx="11" ry="11" style="stroke:#222222;stroke-width:1.0;"/><ellipse cx="44" cy="441.6094" fill="#222222" rx="6" ry="6" style="stroke:#222222;stroke-width:1.0;"/><!--link *start*editarSolicitudDispensa to Paso1--><g id="link_*start*editarSolicitudDispensa_Paso1"><path d="M44,65.9294 C44,81.7894 44,108.5194 44,131.2494 " fill="none" id="*start*editarSolicitudDispensa-to-Paso1" style="stroke:#008000;stroke-width:1.0;"/><polygon fill="#008000" points="44,137.2494,48,128.2494,44,132.2494,40,128.2494,44,137.2494" style="stroke:#008000;stroke-width:1.0;"/><path d="M49,88.6094 L49,114.6094 L343,114.6094 L343,98.6094 L333,88.6094 L49,88.6094 " fill="#FFFFE0" style="stroke:#808080;stroke-width:0.5;"/><path d="M333,88.6094 L333,98.6094 L343,98.6094 L333,88.6094 " fill="#FFFFE0" style="stroke:#808080;stroke-width:0.5;"/><text fill="#000000" font-family="sans-serif" font-size="13" font-weight="bold" lengthAdjust="spacing" textLength="66" x="55" y="107.1045">Secretar&#237;a</text><text fill="#000000" font-family="sans-serif" font-size="13" lengthAdjust="spacing" textLength="203" x="125" y="107.1045">solicita editar solicitud de dispensa</text></g><!--link Paso1 to Paso2--><g id="link_Paso1_Paso2"><path d="M44,187.8894 C44,208.7094 44,232.5494 44,253.3594 " fill="none" id="Paso1-to-Paso2" style="stroke:#008000;stroke-width:1.0;"/><polygon fill="#008000" points="44,259.3594,48,250.3594,44,254.3594,40,250.3594,44,259.3594" style="stroke:#008000;stroke-width:1.0;"/><path d="M49,210.6094 L49,236.6094 L292,236.6094 L292,220.6094 L282,210.6094 L49,210.6094 " fill="#FFFFE0" style="stroke:#808080;stroke-width:0.5;"/><path d="M282,210.6094 L282,220.6094 L292,220.6094 L282,210.6094 " fill="#FFFFE0" style="stroke:#808080;stroke-width:0.5;"/><text fill="#000000" font-family="sans-serif" font-size="13" font-weight="bold" lengthAdjust="spacing" textLength="51" x="55" y="229.1045">Sistema</text><text fill="#000000" font-family="sans-serif" font-size="13" lengthAdjust="spacing" textLength="167" x="110" y="229.1045">muestra datos de la solicitud</text></g><!--link Paso2 to *end*editarSolicitudDispensa--><g id="link_Paso2_*end*editarSolicitudDispensa"><path d="M44,309.8294 C44,344.3994 44,400.3794 44,424.5594 " fill="none" id="Paso2-to-*end*editarSolicitudDispensa" style="stroke:#008000;stroke-width:1.0;"/><polygon fill="#008000" points="44,430.5594,48,421.5594,44,425.5594,40,421.5594,44,430.5594" style="stroke:#008000;stroke-width:1.0;"/><path d="M49,332.6094 L49,407.6094 L306,407.6094 L306,342.6094 L296,332.6094 L49,332.6094 " fill="#FFFFE0" style="stroke:#808080;stroke-width:0.5;"/><path d="M296,332.6094 L296,342.6094 L306,342.6094 L296,332.6094 " fill="#FFFFE0" style="stroke:#808080;stroke-width:0.5;"/><text fill="#000000" font-family="sans-serif" font-size="13" font-weight="bold" lengthAdjust="spacing" textLength="66" x="55" y="351.1045">Secretar&#237;a</text><text fill="#000000" font-family="sans-serif" font-size="13" lengthAdjust="spacing" textLength="166" x="125" y="351.1045">introduce datos actualizados</text><text fill="#000000" font-family="sans-serif" font-size="13" font-weight="bold" lengthAdjust="spacing" textLength="51" x="55" y="367.4561">Sistema</text><text fill="#000000" font-family="sans-serif" font-size="13" lengthAdjust="spacing" textLength="131" x="110" y="367.4561">permite editar solicitud</text><text fill="#000000" font-family="sans-serif" font-size="13" lengthAdjust="spacing" textLength="205" x="55" y="383.8076">&#8226; Permite solicitar confirmar edici&#243;n</text><text fill="#000000" font-family="sans-serif" font-size="13" lengthAdjust="spacing" textLength="201" x="55" y="400.1592">&#8226; Permite solicitar cancelar edici&#243;n</text></g><g id="DISPENSAS_ABIERTO"><rect fill="#F5F5F5" height="50" rx="12.5" ry="12.5" style="stroke:#808080;stroke-width:0.5;" width="164" x="97.5" y="683"/><line style="stroke:#808080;stroke-width:0.5;" x1="97.5" x2="261.5" y1="710.6094" y2="710.6094"/><text fill="#000000" font-family="sans-serif" font-size="14" lengthAdjust="spacing" textLength="144" x="107.5" y="702.5332">DISPENSAS_ABIERTO</text></g><!--link editarSolicitudDispensa to DISPENSAS_ABIERTO--><g id="link_editarSolicitudDispensa_DISPENSAS_ABIERTO"><path d="M104.73,463.16 C87.69,514.91 74.5,555 74.5,555 C74.5,555 74.5,591 74.5,591 C74.5,591 122.9634,644.5418 153.7134,678.5118 " fill="none" id="editarSolicitudDispensa-to-DISPENSAS_ABIERTO" style="stroke:#008000;stroke-width:1.0;"/><polygon fill="#008000" points="157.74,682.96,154.6656,673.6033,154.3845,679.2531,148.7347,678.9721,157.74,682.96" style="stroke:#008000;stroke-width:1.0;"/><path d="M79.5,560 L79.5,586 L194.5,586 L194.5,570 L184.5,560 L79.5,560 " fill="#FFFFE0" style="stroke:#808080;stroke-width:0.5;"/><path d="M184.5,560 L184.5,570 L194.5,570 L184.5,560 " fill="#FFFFE0" style="stroke:#808080;stroke-width:0.5;"/><text fill="#000000" font-family="sans-serif" font-size="13" lengthAdjust="spacing" textLength="94" x="85.5" y="578.4951">abrirDispensas()</text></g><!--link editarSolicitudDispensa to DISPENSAS_ABIERTO--><g id="link_editarSolicitudDispensa_DISPENSAS_ABIERTO"><path d="M201.58,463.16 C206.6,514.91 210.5,555 210.5,555 C210.5,555 210.5,591 210.5,591 C210.5,591 196.5494,643.1935 187.4694,677.1635 " fill="none" id="editarSolicitudDispensa-to-DISPENSAS_ABIERTO-1" style="stroke:#0000FF;stroke-width:1.0;"/><polygon fill="#0000FF" points="185.92,682.96,192.1084,675.2982,187.2111,678.1296,184.3797,673.2323,185.92,682.96" style="stroke:#0000FF;stroke-width:1.0;"/><path d="M215.5,560 L215.5,586 L330.5,586 L330.5,570 L320.5,560 L215.5,560 " fill="#FFFFE0" style="stroke:#808080;stroke-width:0.5;"/><path d="M320.5,560 L320.5,570 L330.5,570 L320.5,560 " fill="#FFFFE0" style="stroke:#808080;stroke-width:0.5;"/><text fill="#000000" font-family="sans-serif" font-size="13" lengthAdjust="spacing" textLength="94" x="221.5" y="578.4951">cancelar edici&#243;n</text></g><!--SRC=[bPFFIiD04CRlUOh1NgfGr8AUfD3Q2htKOho9o3GxrYMRtJ2xGQe8FejtJpw2R-AJkFdJDZQsqEIIdVrcVZDVTcqiTOgC2MWZo58AvoU1NGKPTTm8Agd9BLA2rAX5lgZjJOoZ0KRnd4scnQLHXhr-_kGMf9HvtbGQ5iIbQiwug6s73fkLMbTd-TkGRPO9R1w60nBI8OT6oKYwJ0obJKbRR1yU05hOiWklGG3-gMf0ePsYDQV_Xxkb_Exe7ZfthJaJwVjEhvQX_QHWTEvRN0G0BcQza28cp__-n8lZMGzisGTMRItNcG118AhUYdJIegXPSWjEWzpTHPRMKL9IauoiOmI1pjYSf71DtaBh_g7vkVUOKch7HcGHLKICN8PAlg0mzlyEK-94-jARjbJgd_SFc5QIfOKCaT6FaXF_vTCY-VsbTyjHHwGsrQl9trO7QZWEfwD9s0yV-eFnwERskZW5ZMWGR3jRQ-SwthjcOk4YvnUcvYNEMFAoX6qV1kj_ieCpKndjXMcwiEJy0W00]--></g></svg>