<svg xmlns="http://www.w3.org/2000/svg" xmlns:xlink="http://www.w3.org/1999/xlink" version="1.1" data-diagram-type="STATE" style="width:442px;height:785px;background:#FFFFFF;" width="442px" height="785px" viewBox="0 0 442 785" zoomAndPan="magnify" preserveAspectRatio="none" contentStyleType="text/css"><?plantuml 1.2026.7beta8?><defs/><g font-family="sans-serif" lengthAdjust="spacing"><g class="entity" data-qualified-name="editarSolicitudDispensa" id="ent0001" data-source-line="9"><path d="M19.5,7 L414.5,7 A12.5,12.5 0 0 1 427,19.5 L427,33.297 L7,33.297 L7,19.5 A12.5,12.5 0 0 1 19.5,7" fill="#F5F5F5"/><path d="M7,33.297 L427,33.297 L427,489.797 A12.5,12.5 0 0 1 414.5,502.297 L19.5,502.297 A12.5,12.5 0 0 1 7,489.797 L7,33.297" fill="#F5F5F5"/><rect x="7" y="7" width="420" height="495.297" fill="none" style="stroke:#808080;stroke-width:0.5;" rx="12.5" ry="12.5"/><line x1="7" y1="33.297" x2="427" y2="33.297" style="stroke:#808080;stroke-width:0.5;"/><text x="128.792" y="24.995" fill="#000" font-size="14" textLength="176.415">editarSolicitudDispensa()</text><g class="entity" data-qualified-name="editarSolicitudDispensa.Paso1" id="ent0002" data-source-line="11"><rect x="19" y="135.297" width="50" height="50" fill="#F5F5F5" style="stroke:#808080;stroke-width:0.5;" rx="12.5" ry="12.5"/><line x1="19" y1="161.594" x2="69" y2="161.594" style="stroke:#808080;stroke-width:0.5;"/><text x="41.775" y="153.292" fill="#000" font-size="14"> </text></g><g class="entity" data-qualified-name="editarSolicitudDispensa.Paso2" id="ent0003" data-source-line="12"><rect x="19" y="301.297" width="50" height="50" fill="#F5F5F5" style="stroke:#808080;stroke-width:0.5;" rx="12.5" ry="12.5"/><line x1="19" y1="327.594" x2="69" y2="327.594" style="stroke:#808080;stroke-width:0.5;"/><text x="41.775" y="319.292" fill="#000" font-size="14"> </text></g><g class="start_entity" data-qualified-name="editarSolicitudDispensa..start.editarSolicitudDispensa" id="ent0005" data-source-line="14"><ellipse cx="44" cy="54.297" rx="10" ry="10" fill="#222" style="stroke:#222;stroke-width:1;"/></g><g class="end_entity" data-qualified-name="editarSolicitudDispensa..end.editarSolicitudDispensa" id="ent0008" data-source-line="27"><ellipse cx="44" cy="478.297" rx="11" ry="11" fill="none" style="stroke:#222;stroke-width:1;"/><ellipse cx="44" cy="478.297" rx="6" ry="6" fill="#222" style="stroke:#222;stroke-width:1;"/></g><!--link *start*editarSolicitudDispensa to Paso1--><g class="link" data-entity-1="ent0005" data-entity-2="ent0002" id="lnk6" data-source-line="14" data-link-type="dependency"><path d="M44,64.527 C44,80.237 44,107.657 44,130.167" style="stroke:#008000;stroke-width:1;" fill="none" id="*start*editarSolicitudDispensa-to-Paso1"/><polygon points="44,135.167,48,126.167,44,130.167,40,126.167,44,135.167" fill="#008000" style="stroke:#008000;stroke-width:1;stroke-linejoin:miter;stroke-miterlimit:10;"/><path d="M49,87.297 L49,112.297 L378,112.297 L378,97.297 L368,87.297 L49,87.297" style="stroke:#808080;stroke-width:0.5;" fill="#FFFFE0"/><path d="M368,87.297 L368,97.297 L378,97.297 L368,87.297" style="stroke:#808080;stroke-width:0.5;" fill="#FFFFE0"/><text x="55" y="104.364" fill="#000" font-size="13" textLength="75.74" font-weight="700">Secretaría</text><text x="134.873" y="104.364" fill="#000" font-size="13" textLength="228.985">solicita editar solicitud de dispensa</text></g><!--link Paso1 to Paso2--><g class="link" data-entity-1="ent0002" data-entity-2="ent0003" id="lnk7" data-source-line="19" data-link-type="dependency"><path d="M44,185.497 C44,216.507 44,264.947 44,295.997" style="stroke:#008000;stroke-width:1;" fill="none" id="Paso1-to-Paso2"/><polygon points="44,300.997,48,291.997,44,295.997,40,291.997,44,300.997" fill="#008000" style="stroke:#008000;stroke-width:1;stroke-linejoin:miter;stroke-miterlimit:10;"/><path d="M49,208.297 L49,278.297 L403,278.297 L403,218.297 L393,208.297 L49,208.297" style="stroke:#808080;stroke-width:0.5;" fill="#FFFFE0"/><path d="M393,208.297 L393,218.297 L403,218.297 L393,208.297" style="stroke:#808080;stroke-width:0.5;" fill="#FFFFE0"/><text x="55" y="225.364" fill="#000" font-size="13" textLength="58.906" font-weight="700">Sistema</text><text x="118.039" y="225.364" fill="#000" font-size="13" textLength="270.518">muestra datos de la solicitud a modificar:</text><text x="55" y="240.497" fill="#000" font-size="13" textLength="220.46">• Alumno Solicitante y Asignatura</text><text x="55" y="255.629" fill="#000" font-size="13" textLength="241.357">• Tipo/Motivo, Día(s) y Franja horaria</text><text x="55" y="270.762" fill="#000" font-size="13" textLength="207.213">• Observaciones Internas (Sec.)</text></g><!--link Paso2 to *end*editarSolicitudDispensa--><g class="link" data-entity-1="ent0003" data-entity-2="ent0008" id="lnk9" data-source-line="27" data-link-type="dependency"><path d="M44,351.727 C44,385.107 44,438.477 44,462.017" style="stroke:#008000;stroke-width:1;" fill="none" id="Paso2-to-*end*editarSolicitudDispensa"/><polygon points="44,467.017,48,458.017,44,462.017,40,458.017,44,467.017" fill="#008000" style="stroke:#008000;stroke-width:1;stroke-linejoin:miter;stroke-miterlimit:10;"/><path d="M49,374.297 L49,444.297 L337,444.297 L337,384.297 L327,374.297 L49,374.297" style="stroke:#808080;stroke-width:0.5;" fill="#FFFFE0"/><path d="M327,374.297 L327,384.297 L337,384.297 L327,374.297" style="stroke:#808080;stroke-width:0.5;" fill="#FFFFE0"/><text x="55" y="391.364" fill="#000" font-size="13" textLength="75.74" font-weight="700">Secretaría</text><text x="134.873" y="391.364" fill="#000" font-size="13" textLength="187.599">introduce datos actualizados</text><text x="55" y="406.497" fill="#000" font-size="13" textLength="58.906" font-weight="700">Sistema</text><text x="118.039" y="406.497" fill="#000" font-size="13" textLength="151.798">permite editar solicitud</text><text x="55" y="421.629" fill="#000" font-size="13" textLength="235.53">• Permite solicitar confirmar edición</text><text x="55" y="436.762" fill="#000" font-size="13" textLength="228.103">• Permite solicitar cancelar edición</text></g></g><g class="entity" data-qualified-name="DISPENSAS_ABIERTO" id="ent0004" data-source-line="36"><rect x="133.32" y="721.3" width="167.362" height="50" fill="#F5F5F5" style="stroke:#808080;stroke-width:0.5;" rx="12.5" ry="12.5"/><line x1="133.32" y1="747.597" x2="300.682" y2="747.597" style="stroke:#808080;stroke-width:0.5;"/><text x="143.32" y="739.295" fill="#000" font-size="14" textLength="147.362">DISPENSAS_ABIERTO</text></g><!--link editarSolicitudDispensa to DISPENSAS_ABIERTO--><g class="link" data-entity-1="ent0001" data-entity-2="ent0004" id="lnk10" data-source-line="38" data-link-type="dependency"><path d="M136.04,502.66 C118.97,554.74 106,594.3 106,594.3 C106,594.3 106,629.3 106,629.3 C106,629.3 157.723,683.358 190.273,717.368" style="stroke:#008000;stroke-width:1;" fill="none" id="editarSolicitudDispensa-to-DISPENSAS_ABIERTO"/><polygon points="193.73,720.98,190.397,711.712,190.273,717.368,184.617,717.244,193.73,720.98" fill="#008000" style="stroke:#008000;stroke-width:1;stroke-linejoin:miter;stroke-miterlimit:10;"/><path d="M111,599.3 L111,624.3 L239,624.3 L239,609.3 L229,599.3 L111,599.3" style="stroke:#808080;stroke-width:0.5;" fill="#FFFFE0"/><path d="M229,599.3 L229,609.3 L239,609.3 L229,599.3" style="stroke:#808080;stroke-width:0.5;" fill="#FFFFE0"/><text x="117" y="616.367" fill="#000" font-size="13" textLength="107.06">abrirDispensas()</text></g><!--link editarSolicitudDispensa to DISPENSAS_ABIERTO--><g class="link" data-entity-1="ent0001" data-entity-2="ent0004" id="lnk11" data-source-line="43" data-link-type="dependency"><path d="M244.72,502.66 C250.56,554.74 255,594.3 255,594.3 C255,594.3 255,629.3 255,629.3 C255,629.3 237.666,682.218 226.526,716.228" style="stroke:#00F;stroke-width:1;" fill="none" id="editarSolicitudDispensa-to-DISPENSAS_ABIERTO-1"/><polygon points="224.97,720.98,231.573,713.672,226.526,716.228,223.97,711.182,224.97,720.98" fill="#00F" style="stroke:#00F;stroke-width:1;stroke-linejoin:miter;stroke-miterlimit:10;"/><path d="M260,599.3 L260,624.3 L387,624.3 L387,609.3 L377,599.3 L260,599.3" style="stroke:#808080;stroke-width:0.5;" fill="#FFFFE0"/><path d="M377,599.3 L377,609.3 L387,609.3 L377,599.3" style="stroke:#808080;stroke-width:0.5;" fill="#FFFFE0"/><text x="266" y="616.367" fill="#000" font-size="13" textLength="106.368">cancelar edición</text></g><?plantuml-src bLF1Qjj04BthAuRaOfUwQGtj8GI3KoVWGnDJvHP26MadpjQh7J6xIb5BeT-IUq_zXFn9loGhMLPLApO48T3El7blvkt8hRJDKJ03oueSvV3XRUJQeA1TzO96M_9bJf2pAQj39tV1daunNIs52wi-ic49-EMTByaO_hQDP54aQzHIiEoaOuzzfiFpzzNJWstJHAuAmm4fxL5YDZhLlb0pxNAo3WV30q07ExBm8mA0weM61chu0Xs_UpuyRYkkNzt0wFfmAKJsPZJf5DamBx2jt5lL0O2JP19JAXIwUFoD9qV91Dow6soQsvmB1Of0DHtMvMHLpTbArr8zyV4-SUqyPMlXh23d1K6XPrU96Uo88sIizArEKOwR-h-_7c1gYimoD1QY3I8bJ9rUMlI5O0TvfNC--iHUt_Dhc8Lf1suOiETXmRuYtB6Ww2x-Cd4azvXgjkHW7fZ51hC7mQytmztpZ_-RFrp62wpNrWkh8gN60qnzWKP_HyNkUSzoaam7wksxwionQ22RUnL8sTvgoS9NA4lrun-x7uus9REDReV_sUxwR1ulpYxYQVnbUZe_-tnrMMzdBnf5kzR-dtEZu5s_i7PHgd-vuoKcecL3uGR3gEridqvY2dgHJD-5ZSuJ?></g></svg>