<svg xmlns="http://www.w3.org/2000/svg" xmlns:xlink="http://www.w3.org/1999/xlink" contentStyleType="text/css" data-diagram-type="STATE" height="1623px" preserveAspectRatio="none" style="width:1360px;height:1623px;background:#FFFFFF;" version="1.1" viewBox="0 0 1360 1623" width="1360px" zoomAndPan="magnify"><title>Importar matr&#237;culas</title><defs/><g><g class="title" data-source-line="1"><text fill="#000000" font-family="sans-serif" font-size="14" font-weight="bold" lengthAdjust="spacing" textLength="157.5342" x="594.4397" y="32.9951">Importar matr&#237;culas</text></g><g id="MATRICULAS_ABIERTO_INICIAL"><rect fill="#F1F1F1" height="76.2969" rx="12.5" ry="12.5" style="stroke:#181818;stroke-width:0.5;" width="198.8057" x="673.5" y="203.2969"/><line style="stroke:#181818;stroke-width:0.5;" x1="673.5" x2="872.3057" y1="249.5938" y2="249.5938"/><text fill="#000000" font-family="sans-serif" font-size="14" lengthAdjust="spacing" textLength="158.8057" x="693.5" y="231.292">MATRICULAS_ABIERTO</text></g><path d="M407,399.2969 L1139.3931,399.2969 A12.5,12.5 0 0 1 1151.8931,411.7969 L1151.8931,445.5938 L394.5,445.5938 L394.5,411.7969 A12.5,12.5 0 0 1 407,399.2969" fill="#F1F1F1"/><rect fill="none" height="638.2969" rx="12.5" ry="12.5" style="stroke:#181818;stroke-width:0.5;" width="757.3931" x="394.5" y="399.2969"/><line style="stroke:#181818;stroke-width:0.5;" x1="394.5" x2="1151.8931" y1="445.5938" y2="445.5938"/><text fill="#000000" font-family="sans-serif" font-size="14" lengthAdjust="spacing" textLength="170.6045" x="687.8943" y="427.292">IMPORTAR_MATRICULAS</text><g id="IMPORTAR_MATRICULAS_COMP.SolicitudArchivo"><rect fill="#F1F1F1" height="76.2969" rx="12.5" ry="12.5" style="stroke:#181818;stroke-width:0.5;" width="185.7695" x="684.5" y="512.5938"/><line style="stroke:#181818;stroke-width:0.5;" x1="684.5" x2="870.2695" y1="558.8906" y2="558.8906"/><text fill="#000000" font-family="sans-serif" font-size="14" lengthAdjust="spacing" textLength="145.7695" x="704.5" y="540.5889">Selecci&#243;n de Archivo</text></g><g id="IMPORTAR_MATRICULAS_COMP.ValidarFormato"><rect fill="#F1F1F1" height="76.2969" rx="12.5" ry="12.5" style="stroke:#181818;stroke-width:0.5;" width="197.4727" x="679" y="639.5938"/><line style="stroke:#181818;stroke-width:0.5;" x1="679" x2="876.4727" y1="685.8906" y2="685.8906"/><text fill="#000000" font-family="sans-serif" font-size="14" lengthAdjust="spacing" textLength="157.4727" x="699" y="667.5889">Validaci&#243;n de Formato</text></g><g id="IMPORTAR_MATRICULAS_COMP.ImportarRegistros"><rect fill="#F1F1F1" height="76.2969" rx="12.5" ry="12.5" style="stroke:#181818;stroke-width:0.5;" width="215.9844" x="669.5" y="766.5938"/><line style="stroke:#181818;stroke-width:0.5;" x1="669.5" x2="885.4844" y1="812.8906" y2="812.8906"/><text fill="#000000" font-family="sans-serif" font-size="14" lengthAdjust="spacing" textLength="175.9844" x="689.5" y="794.5889">Importaci&#243;n de Registros</text></g><g id="IMPORTAR_MATRICULAS_COMP.MostrarInforme"><rect fill="#F1F1F1" height="76.2969" rx="12.5" ry="12.5" style="stroke:#181818;stroke-width:0.5;" width="204.9717" x="675" y="886.0938"/><line style="stroke:#181818;stroke-width:0.5;" x1="675" x2="879.9717" y1="932.3906" y2="932.3906"/><text fill="#000000" font-family="sans-serif" font-size="14" lengthAdjust="spacing" textLength="164.9717" x="695" y="914.0889">Informe de Importaci&#243;n</text></g><ellipse cx="777.5" cy="466.5938" fill="#222222" rx="10" ry="10" style="stroke:#222222;stroke-width:1;"/><ellipse cx="777.5" cy="1016.5938" fill="none" rx="11" ry="11" style="stroke:#222222;stroke-width:1;"/><ellipse cx="777.5" cy="1016.5938" fill="#222222" rx="6" ry="6" style="stroke:#222222;stroke-width:1;"/><g class="entity" data-entity="GMN5" data-source-line="38" data-uid="ent0006" id="entity_GMN5"><path d="M889,513.0938 L889,546.5938 L870.64,550.5938 L889,554.5938 L889,588.4922 A0,0 0 0 0 889,588.4922 L1123.686,588.4922 A0,0 0 0 0 1123.686,588.4922 L1123.686,523.0938 L1113.686,513.0938 L889,513.0938 A0,0 0 0 0 889,513.0938" fill="#FEFFDD" style="stroke:#181818;stroke-width:0.5;"/><path d="M1113.686,513.0938 L1113.686,523.0938 L1123.686,523.0938 L1113.686,513.0938" fill="#FEFFDD" style="stroke:#181818;stroke-width:0.5;"/><text fill="#000000" font-family="sans-serif" font-size="13" font-weight="bold" lengthAdjust="spacing" textLength="124.1855" x="905" y="540.1606">Sistema muestra</text><text fill="#000000" font-family="sans-serif" font-size="13" lengthAdjust="spacing" textLength="65.3682" x="1033.3179" y="540.1606">la interfaz</text><text fill="#000000" font-family="sans-serif" font-size="13" lengthAdjust="spacing" textLength="156.2095" x="905" y="555.2935">para adjuntar el archivo</text><text fill="#000000" font-family="sans-serif" font-size="13" lengthAdjust="spacing" textLength="92.936" x="905" y="570.4263">de matr&#237;culas.</text></g><g class="entity" data-entity="GMN8" data-source-line="46" data-uid="ent0009" id="entity_GMN8"><path d="M446,647.5938 L446,707.8594 A0,0 0 0 0 446,707.8594 L660.6719,707.8594 A0,0 0 0 0 660.6719,707.8594 L660.6719,681.5938 L678.7,677.5938 L660.6719,673.5938 L660.6719,657.5938 L650.6719,647.5938 L446,647.5938 A0,0 0 0 0 446,647.5938" fill="#FEFFDD" style="stroke:#181818;stroke-width:0.5;"/><path d="M650.6719,647.5938 L650.6719,657.5938 L660.6719,657.5938 L650.6719,647.5938" fill="#FEFFDD" style="stroke:#181818;stroke-width:0.5;"/><text fill="#000000" font-family="sans-serif" font-size="13" font-weight="bold" lengthAdjust="spacing" textLength="112.7598" x="462" y="674.6606">Alumno solicita</text><text fill="#000000" font-family="sans-serif" font-size="13" lengthAdjust="spacing" textLength="56.7798" x="578.8921" y="674.6606">procesar</text><text fill="#000000" font-family="sans-serif" font-size="13" lengthAdjust="spacing" textLength="156.6157" x="462" y="689.7935">el archivo seleccionado.</text></g><g class="entity" data-entity="GMN11" data-source-line="54" data-uid="ent0012" id="entity_GMN11"><path d="M894,624.5938 L894,673.5938 L876.18,677.5938 L894,681.5938 L894,730.2578 A0,0 0 0 0 894,730.2578 L1116.9429,730.2578 A0,0 0 0 0 1116.9429,730.2578 L1116.9429,634.5938 L1106.9429,624.5938 L894,624.5938 A0,0 0 0 0 894,624.5938" fill="#FEFFDD" style="stroke:#181818;stroke-width:0.5;"/><path d="M1106.9429,624.5938 L1106.9429,634.5938 L1116.9429,634.5938 L1106.9429,624.5938" fill="#FEFFDD" style="stroke:#181818;stroke-width:0.5;"/><text fill="#000000" font-family="sans-serif" font-size="13" font-weight="bold" lengthAdjust="spacing" textLength="107.6689" x="910" y="651.6606">Sistema valida</text><text fill="#000000" font-family="sans-serif" font-size="13" lengthAdjust="spacing" textLength="67.2979" x="1021.8013" y="651.6606">el formato</text><text fill="#000000" font-family="sans-serif" font-size="13" lengthAdjust="spacing" textLength="181.9429" x="910" y="666.7935">y la estructura de los datos.</text><text fill="#000000" font-family="sans-serif" font-size="13" font-weight="bold" lengthAdjust="spacing" textLength="91.5522" x="910" y="681.9263">Si hay error:</text><text fill="#000000" font-family="sans-serif" font-size="13" lengthAdjust="spacing" textLength="165.4961" x="910" y="697.0591">informa inconsistencias y</text><text fill="#000000" font-family="sans-serif" font-size="13" lengthAdjust="spacing" textLength="166.8608" x="910" y="712.1919">solicita un nuevo archivo.</text></g><g class="entity" data-entity="GMN14" data-source-line="65" data-uid="ent0015" id="entity_GMN14"><path d="M405.5,767.0938 L405.5,842.4922 A0,0 0 0 0 405.5,842.4922 L651.3198,842.4922 A0,0 0 0 0 651.3198,842.4922 L651.3198,808.5938 L669.15,804.5938 L651.3198,800.5938 L651.3198,777.0938 L641.3198,767.0938 L405.5,767.0938 A0,0 0 0 0 405.5,767.0938" fill="#FEFFDD" style="stroke:#181818;stroke-width:0.5;"/><path d="M641.3198,767.0938 L641.3198,777.0938 L651.3198,777.0938 L641.3198,767.0938" fill="#FEFFDD" style="stroke:#181818;stroke-width:0.5;"/><text fill="#000000" font-family="sans-serif" font-size="13" font-weight="bold" lengthAdjust="spacing" textLength="121.0688" x="421.5" y="794.1606">Sistema importa</text><text fill="#000000" font-family="sans-serif" font-size="13" lengthAdjust="spacing" textLength="79.6187" x="546.7012" y="794.1606">los registros</text><text fill="#000000" font-family="sans-serif" font-size="13" lengthAdjust="spacing" textLength="157.4282" x="421.5" y="809.2935">de matr&#237;cula contenidos</text><text fill="#000000" font-family="sans-serif" font-size="13" lengthAdjust="spacing" textLength="88.2007" x="421.5" y="824.4263">en el archivo.</text></g><g class="entity" data-entity="GMN17" data-source-line="73" data-uid="ent0018" id="entity_GMN17"><path d="M898,878.5938 L898,920.5938 L880.2,924.5938 L898,928.5938 L898,969.125 A0,0 0 0 0 898,969.125 L1142.8931,969.125 A0,0 0 0 0 1142.8931,969.125 L1142.8931,888.5938 L1132.8931,878.5938 L898,878.5938 A0,0 0 0 0 898,878.5938" fill="#FEFFDD" style="stroke:#181818;stroke-width:0.5;"/><path d="M1132.8931,878.5938 L1132.8931,888.5938 L1142.8931,888.5938 L1132.8931,878.5938" fill="#FEFFDD" style="stroke:#181818;stroke-width:0.5;"/><text fill="#000000" font-family="sans-serif" font-size="13" font-weight="bold" lengthAdjust="spacing" textLength="128.7622" x="914" y="905.6606">Sistema presenta</text><text fill="#000000" font-family="sans-serif" font-size="13" lengthAdjust="spacing" textLength="70.9985" x="1046.8945" y="905.6606">un informe</text><text fill="#000000" font-family="sans-serif" font-size="13" lengthAdjust="spacing" textLength="181.9048" x="914" y="920.7935">del proceso de importaci&#243;n,</text><text fill="#000000" font-family="sans-serif" font-size="13" lengthAdjust="spacing" textLength="174.5479" x="914" y="935.9263">indicando registros v&#225;lidos</text><text fill="#000000" font-family="sans-serif" font-size="13" lengthAdjust="spacing" textLength="139.3818" x="914" y="951.0591">y errores detectados.</text></g><!--link *start*IMPORTAR_MATRICULAS_COMP to SolicitudArchivo--><g class="link" data-entity-1=".start.IMPORTAR_MATRICULAS_COMP" data-entity-2="SolicitudArchivo" data-source-line="35" data-uid="lnk6" id="link_.start.IMPORTAR_MATRICULAS_COMP_SolicitudArchivo"><path d="M777.5,476.8937 C777.5,485.8338 777.5,493.3438 777.5,506.3738" fill="none" id="*start*IMPORTAR_MATRICULAS_COMP-to-SolicitudArchivo" style="stroke:#008000;stroke-width:1;"/><polygon fill="#008000" points="777.5,512.3738,781.5,503.3738,777.5,507.3738,773.5,503.3738,777.5,512.3738" style="stroke:#008000;stroke-width:1;"/></g><!--link SolicitudArchivo to ValidarFormato--><g class="link" data-entity-1="SolicitudArchivo" data-entity-2="ValidarFormato" data-source-line="43" data-uid="lnk7" id="link_SolicitudArchivo_ValidarFormato"><path d="M746.5,588.6938 C746.5,604.7738 746.5,617.4438 746.5,633.5138" fill="none" id="SolicitudArchivo-to-ValidarFormato" style="stroke:#008000;stroke-width:1;"/><polygon fill="#008000" points="746.5,639.5138,750.5,630.5138,746.5,634.5138,742.5,630.5138,746.5,639.5138" style="stroke:#008000;stroke-width:1;"/></g><!--link ValidarFormato to SolicitudArchivo--><g class="link" data-entity-1="ValidarFormato" data-entity-2="SolicitudArchivo" data-source-line="51" data-uid="lnk8" id="link_ValidarFormato_SolicitudArchivo"><path d="M808.5,639.4938 C808.5,623.4137 808.5,610.7438 808.5,594.6737" fill="none" id="ValidarFormato-to-SolicitudArchivo" style="stroke:#FF0000;stroke-width:1;"/><polygon fill="#FF0000" points="808.5,588.6737,804.5,597.6737,808.5,593.6737,812.5,597.6737,808.5,588.6737" style="stroke:#FF0000;stroke-width:1;"/></g><!--link ValidarFormato to ImportarRegistros--><g class="link" data-entity-1="ValidarFormato" data-entity-2="ImportarRegistros" data-source-line="62" data-uid="lnk9" id="link_ValidarFormato_ImportarRegistros"><path d="M777.5,715.6938 C777.5,731.7738 777.5,744.4438 777.5,760.5138" fill="none" id="ValidarFormato-to-ImportarRegistros" style="stroke:#008000;stroke-width:1;"/><polygon fill="#008000" points="777.5,766.5138,781.5,757.5138,777.5,761.5138,773.5,757.5138,777.5,766.5138" style="stroke:#008000;stroke-width:1;"/></g><!--link ImportarRegistros to MostrarInforme--><g class="link" data-entity-1="ImportarRegistros" data-entity-2="MostrarInforme" data-source-line="70" data-uid="lnk10" id="link_ImportarRegistros_MostrarInforme"><path d="M777.5,842.7338 C777.5,856.5338 777.5,866.1038 777.5,879.9038" fill="none" id="ImportarRegistros-to-MostrarInforme" style="stroke:#008000;stroke-width:1;"/><polygon fill="#008000" points="777.5,885.9038,781.5,876.9038,777.5,880.9038,773.5,876.9038,777.5,885.9038" style="stroke:#008000;stroke-width:1;"/></g><!--link MostrarInforme to *end*IMPORTAR_MATRICULAS_COMP--><g class="link" data-entity-1="MostrarInforme" data-entity-2=".end.IMPORTAR_MATRICULAS_COMP" data-source-line="79" data-uid="lnk12" id="link_MostrarInforme_.end.IMPORTAR_MATRICULAS_COMP"><path d="M777.5,962.2538 C777.5,977.7738 777.5,988.5638 777.5,999.3038" fill="none" id="MostrarInforme-to-*end*IMPORTAR_MATRICULAS_COMP" style="stroke:#008000;stroke-width:1;"/><polygon fill="#008000" points="777.5,1005.3038,781.5,996.3038,777.5,1000.3038,773.5,996.3038,777.5,1005.3038" style="stroke:#008000;stroke-width:1;"/></g><g id="MATRICULA_ABIERTA_FINAL"><rect fill="#F1F1F1" height="76.2969" rx="12.5" ry="12.5" style="stroke:#181818;stroke-width:0.5;" width="188.4766" x="513" y="1399.2969"/><line style="stroke:#181818;stroke-width:0.5;" x1="513" x2="701.4766" y1="1445.5938" y2="1445.5938"/><text fill="#000000" font-family="sans-serif" font-size="14" lengthAdjust="spacing" textLength="148.4766" x="533" y="1427.292">MATRICULA_ABIERTA</text></g><g id="MATRICULAS_ABIERTO_FINAL"><rect fill="#F1F1F1" height="76.2969" rx="12.5" ry="12.5" style="stroke:#181818;stroke-width:0.5;" width="198.8057" x="821.5" y="1399.2969"/><line style="stroke:#181818;stroke-width:0.5;" x1="821.5" x2="1020.3057" y1="1445.5938" y2="1445.5938"/><text fill="#000000" font-family="sans-serif" font-size="14" lengthAdjust="spacing" textLength="158.8057" x="841.5" y="1427.292">MATRICULAS_ABIERTO</text></g><ellipse cx="773" cy="73.2969" fill="#222222" rx="10" ry="10" style="stroke:#222222;stroke-width:1;"/><ellipse cx="921" cy="1606.2969" fill="none" rx="11" ry="11" style="stroke:#222222;stroke-width:1;"/><ellipse cx="921" cy="1606.2969" fill="#222222" rx="6" ry="6" style="stroke:#222222;stroke-width:1;"/><g class="entity" data-entity="GMN2" data-source-line="21" data-uid="ent0003" id="entity_GMN2"><path d="M6,672.7969 L6,763.3281 A0,0 0 0 0 6,763.3281 L273.6367,763.3281 A0,0 0 0 0 273.6367,763.3281 L273.6367,722.2969 L394.39,718.2969 L273.6367,714.2969 L273.6367,682.7969 L263.6367,672.7969 L6,672.7969 A0,0 0 0 0 6,672.7969" fill="#FEFFDD" style="stroke:#181818;stroke-width:0.5;"/><path d="M263.6367,672.7969 L263.6367,682.7969 L273.6367,682.7969 L263.6367,672.7969" fill="#FEFFDD" style="stroke:#181818;stroke-width:0.5;"/><text fill="#000000" font-family="sans-serif" font-size="13" font-weight="bold" lengthAdjust="spacing" textLength="112.7598" x="22" y="699.8638">Alumno solicita</text><text fill="#000000" font-family="sans-serif" font-size="13" lengthAdjust="spacing" textLength="56.2339" x="138.8921" y="699.8638">importar</text><text fill="#000000" font-family="sans-serif" font-size="13" lengthAdjust="spacing" textLength="174.3765" x="22" y="714.9966">informaci&#243;n de matr&#237;culas.</text><text fill="#000000" font-family="sans-serif" font-size="13" font-weight="bold" lengthAdjust="spacing" textLength="120.999" x="22" y="730.1294">Sistema permite</text><text fill="#000000" font-family="sans-serif" font-size="13" lengthAdjust="spacing" textLength="54.7168" x="147.1313" y="730.1294">adjuntar</text><text fill="#000000" font-family="sans-serif" font-size="13" lengthAdjust="spacing" textLength="226.6367" x="22" y="745.2622">un archivo para su procesamiento.</text></g><g class="entity" data-entity="GMN20" data-source-line="87" data-uid="ent0021" id="entity_GMN20"><path d="M175,1399.7969 L175,1475.1953 A0,0 0 0 0 175,1475.1953 L393.2646,1475.1953 A0,0 0 0 0 393.2646,1475.1953 L393.2646,1441.2969 L512.87,1437.2969 L393.2646,1433.2969 L393.2646,1409.7969 L383.2646,1399.7969 L175,1399.7969 A0,0 0 0 0 175,1399.7969" fill="#FEFFDD" style="stroke:#181818;stroke-width:0.5;"/><path d="M383.2646,1399.7969 L383.2646,1409.7969 L393.2646,1409.7969 L383.2646,1399.7969" fill="#FEFFDD" style="stroke:#181818;stroke-width:0.5;"/><text fill="#000000" font-family="sans-serif" font-size="13" font-weight="bold" lengthAdjust="spacing" textLength="112.7598" x="191" y="1426.8638">Alumno solicita</text><text fill="#000000" font-family="sans-serif" font-size="13" lengthAdjust="spacing" textLength="60.3726" x="307.8921" y="1426.8638">consultar</text><text fill="#000000" font-family="sans-serif" font-size="13" lengthAdjust="spacing" textLength="162.1509" x="191" y="1441.9966">el detalle de la matr&#237;cula</text><text fill="#000000" font-family="sans-serif" font-size="13" lengthAdjust="spacing" textLength="71.2397" x="191" y="1457.1294">importada.</text></g><g class="entity" data-entity="GMN23" data-source-line="96" data-uid="ent0024" id="entity_GMN23"><path d="M1140.5,1407.2969 L1140.5,1433.2969 L1020.58,1437.2969 L1140.5,1441.2969 L1140.5,1467.5625 A0,0 0 0 0 1140.5,1467.5625 L1353.4136,1467.5625 A0,0 0 0 0 1353.4136,1467.5625 L1353.4136,1417.2969 L1343.4136,1407.2969 L1140.5,1407.2969 A0,0 0 0 0 1140.5,1407.2969" fill="#FEFFDD" style="stroke:#181818;stroke-width:0.5;"/><path d="M1343.4136,1407.2969 L1343.4136,1417.2969 L1353.4136,1417.2969 L1343.4136,1407.2969" fill="#FEFFDD" style="stroke:#181818;stroke-width:0.5;"/><text fill="#000000" font-family="sans-serif" font-size="13" font-weight="bold" lengthAdjust="spacing" textLength="112.7598" x="1156.5" y="1434.3638">Alumno solicita</text><text fill="#000000" font-family="sans-serif" font-size="13" lengthAdjust="spacing" textLength="55.0215" x="1273.3921" y="1434.3638">regresar</text><text fill="#000000" font-family="sans-serif" font-size="13" lengthAdjust="spacing" textLength="161.4526" x="1156.5" y="1449.4966">al m&#243;dulo de matr&#237;culas.</text></g><!--link *start* to MATRICULAS_ABIERTO_INICIAL--><g class="link" data-entity-1=".start." data-entity-2="MATRICULAS_ABIERTO_INICIAL" data-source-line="15" data-uid="lnk3" id="link_.start._MATRICULAS_ABIERTO_INICIAL"><path d="M773,83.3069 C773,106.3269 773,158.0869 773,197.0069" fill="none" id="*start*-to-MATRICULAS_ABIERTO_INICIAL" style="stroke:#008000;stroke-width:1;"/><polygon fill="#008000" points="773,203.0069,777,194.0069,773,198.0069,769,194.0069,773,203.0069" style="stroke:#008000;stroke-width:1;"/></g><!--link MATRICULAS_ABIERTO_INICIAL to IMPORTAR_MATRICULAS_COMP--><g class="link" data-entity-1="MATRICULAS_ABIERTO_INICIAL" data-entity-2="IMPORTAR_MATRICULAS_COMP" data-source-line="18" data-uid="lnk4" id="link_MATRICULAS_ABIERTO_INICIAL_IMPORTAR_MATRICULAS_COMP"><path d="M773,279.5269 C773,308.4869 773,345.3469 773,393.1069" fill="none" id="MATRICULAS_ABIERTO_INICIAL-to-IMPORTAR_MATRICULAS_COMP" style="stroke:#008000;stroke-width:1;"/><polygon fill="#008000" points="773,399.1069,777,390.1069,773,394.1069,769,390.1069,773,399.1069" style="stroke:#008000;stroke-width:1;"/><text fill="#000000" font-family="sans-serif" font-size="13" lengthAdjust="spacing" textLength="133.3516" x="629" y="325.3838">importarMatriculas()</text></g><!--link IMPORTAR_MATRICULAS_COMP to MATRICULA_ABIERTA_FINAL--><g class="link" data-entity-1="IMPORTAR_MATRICULAS_COMP" data-entity-2="MATRICULA_ABIERTA_FINAL" data-source-line="84" data-uid="lnk13" id="link_IMPORTAR_MATRICULAS_COMP_MATRICULA_ABIERTA_FINAL"><path d="M607,1037.3269 C607,1179.5769 607,1324.3969 607,1393.1469" fill="none" id="IMPORTAR_MATRICULAS_COMP-to-MATRICULA_ABIERTA_FINAL" style="stroke:#008000;stroke-width:1;"/><polygon fill="#008000" points="607,1399.1469,611,1390.1469,607,1394.1469,603,1390.1469,607,1399.1469" style="stroke:#008000;stroke-width:1;"/><text fill="#000000" font-family="sans-serif" font-size="13" lengthAdjust="spacing" textLength="137.6743" x="459" y="1204.3038">verDetalleMatricula()</text></g><!--link IMPORTAR_MATRICULAS_COMP to MATRICULAS_ABIERTO_FINAL--><g class="link" data-entity-1="IMPORTAR_MATRICULAS_COMP" data-entity-2="MATRICULAS_ABIERTO_FINAL" data-source-line="93" data-uid="lnk14" id="link_IMPORTAR_MATRICULAS_COMP_MATRICULAS_ABIERTO_FINAL"><path d="M921,1037.3269 C921,1179.5769 921,1324.3969 921,1393.1469" fill="none" id="IMPORTAR_MATRICULAS_COMP-to-MATRICULAS_ABIERTO_FINAL" style="stroke:#008000;stroke-width:1;"/><polygon fill="#008000" points="921,1399.1469,925,1390.1469,921,1394.1469,917,1390.1469,921,1399.1469" style="stroke:#008000;stroke-width:1;"/></g><!--link MATRICULAS_ABIERTO_FINAL to *end*--><g class="link" data-entity-1="MATRICULAS_ABIERTO_FINAL" data-entity-2=".end." data-source-line="101" data-uid="lnk16" id="link_MATRICULAS_ABIERTO_FINAL_.end."><path d="M921,1475.6469 C921,1514.2069 921,1565.2769 921,1589.1569" fill="none" id="MATRICULAS_ABIERTO_FINAL-to-*end*" style="stroke:#0000FF;stroke-width:1;"/><polygon fill="#0000FF" points="921,1595.1569,925,1586.1569,921,1590.1569,917,1586.1569,921,1595.1569" style="stroke:#0000FF;stroke-width:1;"/></g><!--SRC=[bLRDRXit4BxlKmpKGzeYIfCUZS30LhQB1IJBqDgv1851BqSs4oufSBa6t29FqIV80_IKHz2BTRZBfQZzKLjTX2LdXlFDzms7LbY9a9KxRImpK39hzdyNjMHLaho2-NmEY_NrLVRxtIPTPFk_hk7Y4YxpssovTfj9KdqHQiSCAq5fZXNkuDslRwDLmzINuQeK2ktB3e5EVTBHnWtZNAX7UFUMGbjc4LRfxIPRt2tJ_3xzBRlStAxli-jiaQLB060Lp8O6C- -QhMxMczjqSn-PBDQh6_2U8_kp_ga-Pdf_bLqtH_OExVPdq-a6pwbiauy_VuBvnnyU3QBwD3y_WTcHSgciOPm1ar2mIWD7g2kTd2XK77koA6SWl0fM90BHQE37dv94QO8bSMj1RoUz4uVl_SDvAkjIQQYq58MmxFql3-SXR6CZr5QRaXLY_rsvp2F1lUc2vAAoM3BOeIc5nIO8uvzhrGMf5J1JF8bd3KusKDMmCxh0YfK2bTLl4bGSNE99yczQ-3DfGhPMUPjtpLCVlYKjHub5IDdlpIA_3qmApioLWsPrK4cx71pzTkpODTu67mcqqPLNPhiSFCDsxBlIjCHCrbGKmw7TDm_Hcp2p5cTVQdt4hLN3kH6FJmtf0nlmluYhiaQNJSELP4IpHRDbVmJJXgUEH43P4HWCnhHmOD5z3SY9SHmp4A7ebDipY22CQTRBoGIxGyPGjMhGYd4zbkShk9BrPqtzIJLGp9BF6Q0nsZYGsoY1dcm8Zq7-NrcP1jHnyjnOD7We_MtFyCNnv4Yh2riJEPIR9Frnil7b3-7WYRsq2CvSjB3fcvd-2wqgTweg16dm9LXqHNKjgsgawlagdYhSm_vR9GegcayPdlVV2CbKpGvNMx-PHcGmj1afdB-nMZ5JJSp0-4YjGEW9EcLuC40LIMOCxB3pZoR0KM-FqT-p646nCpIFbOT1zHSzKqu9jZflPeY8BelN4SLS54nnVIX2HqSLIQaH1v9wq69XgJ56ExXtOyM0wLvAldPFZZnTPXTfJc-D9IpIVEqU7NUvVt5CtkI7SFDuXlOc-1ayexb0owJ4CEW6Ssx2-zIOSorGosv4KMrvUqZJM2oIIpi7ssfpTZIh_Y-stYF3WpXePChk10oYsOIRZvuOvVuxhwKUtCzHrfDl7ihwGTRe-Vq7]--></g></svg>
