<?xml version="1.0" encoding="us-ascii" standalone="no"?><svg xmlns="http://www.w3.org/2000/svg" xmlns:xlink="http://www.w3.org/1999/xlink" contentStyleType="text/css" height="739px" preserveAspectRatio="none" style="width:500px;height:739px;background:#FFFFFF;" version="1.1" viewBox="0 0 500 739" width="500px" zoomAndPan="magnify"><defs/><g><path d="M19.5,7 L347.5,7 A12.5,12.5 0 0 1 360,19.5 L360,34.6094 L7,34.6094 L7,19.5 A12.5,12.5 0 0 1 19.5,7 " fill="#F5F5F5" style="stroke:#F5F5F5;stroke-width:1.0;"/><rect fill="none" height="455.6094" rx="12.5" ry="12.5" style="stroke:#808080;stroke-width:0.5;" width="353" x="7" y="7"/><line style="stroke:#808080;stroke-width:0.5;" x1="7" x2="360" y1="34.6094" y2="34.6094"/><text fill="#000000" font-family="sans-serif" font-size="14" lengthAdjust="spacing" textLength="116" x="125.5" y="26.5332">importarAlumnos()</text><g id="importarAlumnos.Paso1"><rect fill="#F5F5F5" height="50" rx="12.5" ry="12.5" style="stroke:#808080;stroke-width:0.5;" width="50" x="19" y="137.6094"/><line style="stroke:#808080;stroke-width:0.5;" x1="19" x2="69" y1="165.2188" y2="165.2188"/><text fill="#000000" font-family="sans-serif" font-size="14" lengthAdjust="spacing" textLength="4" x="42" y="157.1426">&#160;</text></g><g id="importarAlumnos.Paso2"><rect fill="#F5F5F5" height="50" rx="12.5" ry="12.5" style="stroke:#808080;stroke-width:0.5;" width="50" x="19" y="259.6094"/><line style="stroke:#808080;stroke-width:0.5;" x1="19" x2="69" y1="287.2188" y2="287.2188"/><text fill="#000000" font-family="sans-serif" font-size="14" lengthAdjust="spacing" textLength="4" x="42" y="279.1426">&#160;</text></g><ellipse cx="44" cy="55.6094" fill="#222222" rx="10" ry="10" style="stroke:#222222;stroke-width:1.0;"/><ellipse cx="44" cy="441.6094" fill="none" rx="11" ry="11" style="stroke:#222222;stroke-width:1.0;"/><ellipse cx="44" cy="441.6094" fill="#222222" rx="6" ry="6" style="stroke:#222222;stroke-width:1.0;"/><!--link *start*importarAlumnos to Paso1--><g id="link_*start*importarAlumnos_Paso1"><path d="M44,65.9294 C44,81.7894 44,108.5194 44,131.2494 " fill="none" id="*start*importarAlumnos-to-Paso1" style="stroke:#008000;stroke-width:1.0;"/><polygon fill="#008000" points="44,137.2494,48,128.2494,44,132.2494,40,128.2494,44,137.2494" style="stroke:#008000;stroke-width:1.0;"/><path d="M49,88.6094 L49,114.6094 L345,114.6094 L345,98.6094 L335,88.6094 L49,88.6094 " fill="#FFFFE0" style="stroke:#808080;stroke-width:0.5;"/><path d="M335,88.6094 L335,98.6094 L345,98.6094 L335,88.6094 " fill="#FFFFE0" style="stroke:#808080;stroke-width:0.5;"/><text fill="#000000" font-family="sans-serif" font-size="13" font-weight="bold" lengthAdjust="spacing" textLength="66" x="55" y="107.1045">Secretar&#237;a</text><text fill="#000000" font-family="sans-serif" font-size="13" lengthAdjust="spacing" textLength="205" x="125" y="107.1045">solicita importar listado de alumnos</text></g><!--link Paso1 to Paso2--><g id="link_Paso1_Paso2"><path d="M44,187.8894 C44,208.7094 44,232.5494 44,253.3594 " fill="none" id="Paso1-to-Paso2" style="stroke:#008000;stroke-width:1.0;"/><polygon fill="#008000" points="44,259.3594,48,250.3594,44,254.3594,40,250.3594,44,259.3594" style="stroke:#008000;stroke-width:1.0;"/><path d="M49,210.6094 L49,236.6094 L351,236.6094 L351,220.6094 L341,210.6094 L49,210.6094 " fill="#FFFFE0" style="stroke:#808080;stroke-width:0.5;"/><path d="M341,210.6094 L341,220.6094 L351,220.6094 L341,210.6094 " fill="#FFFFE0" style="stroke:#808080;stroke-width:0.5;"/><text fill="#000000" font-family="sans-serif" font-size="13" font-weight="bold" lengthAdjust="spacing" textLength="51" x="55" y="229.1045">Sistema</text><text fill="#000000" font-family="sans-serif" font-size="13" lengthAdjust="spacing" textLength="226" x="110" y="229.1045">permite adjuntar un archivo de alumnos</text></g><!--link Paso2 to *end*importarAlumnos--><g id="link_Paso2_*end*importarAlumnos"><path d="M44,309.8294 C44,344.3994 44,400.3794 44,424.5594 " fill="none" id="Paso2-to-*end*importarAlumnos" style="stroke:#008000;stroke-width:1.0;"/><polygon fill="#008000" points="44,430.5594,48,421.5594,44,425.5594,40,421.5594,44,430.5594" style="stroke:#008000;stroke-width:1.0;"/><path d="M49,332.6094 L49,407.6094 L301,407.6094 L301,342.6094 L291,332.6094 L49,332.6094 " fill="#FFFFE0" style="stroke:#808080;stroke-width:0.5;"/><path d="M291,332.6094 L291,342.6094 L301,342.6094 L291,332.6094 " fill="#FFFFE0" style="stroke:#808080;stroke-width:0.5;"/><text fill="#000000" font-family="sans-serif" font-size="13" font-weight="bold" lengthAdjust="spacing" textLength="66" x="55" y="351.1045">Secretar&#237;a</text><text fill="#000000" font-family="sans-serif" font-size="13" lengthAdjust="spacing" textLength="100" x="125" y="351.1045">adjunta el archivo</text><text fill="#000000" font-family="sans-serif" font-size="13" font-weight="bold" lengthAdjust="spacing" textLength="51" x="55" y="367.4561">Sistema</text><text fill="#000000" font-family="sans-serif" font-size="13" lengthAdjust="spacing" textLength="130" x="110" y="367.4561">permite importar datos</text><text fill="#000000" font-family="sans-serif" font-size="13" lengthAdjust="spacing" textLength="231" x="55" y="383.8076">&#8226; Permite solicitar confirmar importaci&#243;n</text><text fill="#000000" font-family="sans-serif" font-size="13" lengthAdjust="spacing" textLength="216" x="55" y="400.1592">&#8226; Permite solicitar cancelar operaci&#243;n</text></g><g id="ALUMNOS_ABIERTO"><rect fill="#F5F5F5" height="50" rx="12.5" ry="12.5" style="stroke:#808080;stroke-width:0.5;" width="154" x="106.5" y="683"/><line style="stroke:#808080;stroke-width:0.5;" x1="106.5" x2="260.5" y1="710.6094" y2="710.6094"/><text fill="#000000" font-family="sans-serif" font-size="14" lengthAdjust="spacing" textLength="134" x="116.5" y="702.5332">ALUMNOS_ABIERTO</text></g><!--link importarAlumnos to ALUMNOS_ABIERTO--><g id="link_importarAlumnos_ALUMNOS_ABIERTO"><path d="M74.55,463.16 C49.73,514.91 30.5,555 30.5,555 C30.5,555 30.5,591 30.5,591 C30.5,591 102.1982,645.3658 147.0182,679.3358 " fill="none" id="importarAlumnos-to-ALUMNOS_ABIERTO" style="stroke:#008000;stroke-width:1.0;"/><polygon fill="#008000" points="151.8,682.96,147.0435,674.3359,147.8152,679.9398,142.2112,680.7115,151.8,682.96" style="stroke:#008000;stroke-width:1.0;"/><path d="M35.5,560 L35.5,586 L246.5,586 L246.5,570 L236.5,560 L35.5,560 " fill="#FFFFE0" style="stroke:#808080;stroke-width:0.5;"/><path d="M236.5,560 L236.5,570 L246.5,570 L236.5,560 " fill="#FFFFE0" style="stroke:#808080;stroke-width:0.5;"/><text fill="#000000" font-family="sans-serif" font-size="13" lengthAdjust="spacing" textLength="190" x="41.5" y="578.4951">abrirAlumnos() - lista actualizada</text></g><!--link importarAlumnos to ALUMNOS_ABIERTO--><g id="link_importarAlumnos_ALUMNOS_ABIERTO"><path d="M239.76,463.16 C252.57,514.91 262.5,555 262.5,555 C262.5,555 262.5,591 262.5,591 C262.5,591 226.3879,644.0312 203.2479,678.0012 " fill="none" id="importarAlumnos-to-ALUMNOS_ABIERTO-1" style="stroke:#0000FF;stroke-width:1.0;"/><polygon fill="#0000FF" points="199.87,682.96,208.2427,677.7737,202.6849,678.8277,201.631,673.2698,199.87,682.96" style="stroke:#0000FF;stroke-width:1.0;"/><path d="M267.5,560 L267.5,586 L493.5,586 L493.5,570 L483.5,560 L267.5,560 " fill="#FFFFE0" style="stroke:#808080;stroke-width:0.5;"/><path d="M483.5,560 L483.5,570 L493.5,570 L483.5,560 " fill="#FFFFE0" style="stroke:#808080;stroke-width:0.5;"/><text fill="#000000" font-family="sans-serif" font-size="13" lengthAdjust="spacing" textLength="205" x="273.5" y="578.4951">abrirAlumnos() - cancelar operaci&#243;n</text></g><!--SRC=[fPFFIiD04CRlUOgXlQXGr8AUfD2AWg1jiNegHIRPiLspsGsJHAaY-2pUFVa8VHEVnCsVfZ4jHJ6v9BFVp6_cooJofGwHCG1j14KKml614vL1Hksl1PNK5Cz3Wj2eUVfIEUkRc7he-LCsYHQdHXcs-kaidfDIvgckD2o8SzMKSLuv7iMuNgbvVfJUQx9w6ITAmz2GGMWuHkwg9D0csjbj04PGYyABuu2zYXp8D4ECpE7cS3kNZ_Scq1etfqoa9wrE9KFRoS3er2S_2m2Sk9qHUKoMklZ0atst0v5HqfCnbkrOlMK90u80yzQoRD8YAvbZCymQkBqDRCjIa4D3ua1Q4Og7HAVCH0EoDvEFly2sVs3j_7-OjW02gILlUuEbAGBZeY60hxTt61Q2fNqCdj7taWFxL2HvSl6fjwUWzaZP1sDv5NqvyskvGjtBswl-O7JNxLsSNTyCiYsenHodlb4hdrhMgReySupJdwBY6xeiLtiAhNmR0BquGIMVKQ2p-Y8RUAvAw3-uJPOiWTy0]--></g></svg>