<svg xmlns="http://www.w3.org/2000/svg" xmlns:xlink="http://www.w3.org/1999/xlink" version="1.1" data-diagram-type="STATE" style="width:423px;height:755px;background:#FFFFFF;" width="423px" height="755px" viewBox="0 0 423 755" zoomAndPan="magnify" preserveAspectRatio="none" contentStyleType="text/css"><?plantuml 1.2026.7beta8?><defs/><g font-family="sans-serif" lengthAdjust="spacing"><g class="entity" data-qualified-name="importarAlumnos" id="ent0001" data-source-line="9"><path d="M19.5,7 L395.5,7 A12.5,12.5 0 0 1 408,19.5 L408,33.297 L7,33.297 L7,19.5 A12.5,12.5 0 0 1 19.5,7" fill="#F5F5F5"/><path d="M7,33.297 L408,33.297 L408,459.797 A12.5,12.5 0 0 1 395.5,472.297 L19.5,472.297 A12.5,12.5 0 0 1 7,459.797 L7,33.297" fill="#F5F5F5"/><rect x="7" y="7" width="401" height="465.297" fill="none" style="stroke:#808080;stroke-width:0.5;" rx="12.5" ry="12.5"/><line x1="7" y1="33.297" x2="408" y2="33.297" style="stroke:#808080;stroke-width:0.5;"/><text x="141.403" y="24.995" fill="#000" font-size="14" textLength="132.193">importarAlumnos()</text><g class="entity" data-qualified-name="importarAlumnos.Paso1" id="ent0002" data-source-line="11"><rect x="19" y="135.297" width="50" height="50" fill="#F5F5F5" style="stroke:#808080;stroke-width:0.5;" rx="12.5" ry="12.5"/><line x1="19" y1="161.594" x2="69" y2="161.594" style="stroke:#808080;stroke-width:0.5;"/><text x="41.775" y="153.292" fill="#000" font-size="14"> </text></g><g class="entity" data-qualified-name="importarAlumnos.Paso2" id="ent0003" data-source-line="12"><rect x="19" y="271.297" width="50" height="50" fill="#F5F5F5" style="stroke:#808080;stroke-width:0.5;" rx="12.5" ry="12.5"/><line x1="19" y1="297.594" x2="69" y2="297.594" style="stroke:#808080;stroke-width:0.5;"/><text x="41.775" y="289.292" fill="#000" font-size="14"> </text></g><g class="start_entity" data-qualified-name="importarAlumnos..start.importarAlumnos" id="ent0005" data-source-line="14"><ellipse cx="44" cy="54.297" rx="10" ry="10" fill="#222" style="stroke:#222;stroke-width:1;"/></g><g class="end_entity" data-qualified-name="importarAlumnos..end.importarAlumnos" id="ent0008" data-source-line="25"><ellipse cx="44" cy="448.297" rx="11" ry="11" fill="none" style="stroke:#222;stroke-width:1;"/><ellipse cx="44" cy="448.297" rx="6" ry="6" fill="#222" style="stroke:#222;stroke-width:1;"/></g><!--link *start*importarAlumnos to Paso1--><g class="link" data-entity-1="ent0005" data-entity-2="ent0002" id="lnk6" data-source-line="14" data-link-type="dependency"><path d="M44,64.527 C44,80.237 44,107.657 44,130.167" style="stroke:#008000;stroke-width:1;" fill="none" id="*start*importarAlumnos-to-Paso1"/><polygon points="44,135.167,48,126.167,44,130.167,40,126.167,44,135.167" fill="#008000" style="stroke:#008000;stroke-width:1;stroke-linejoin:miter;stroke-miterlimit:10;"/><path d="M49,87.297 L49,112.297 L383,112.297 L383,97.297 L373,87.297 L49,87.297" style="stroke:#808080;stroke-width:0.5;" fill="#FFFFE0"/><path d="M373,87.297 L373,97.297 L383,97.297 L373,87.297" style="stroke:#808080;stroke-width:0.5;" fill="#FFFFE0"/><text x="55" y="104.364" fill="#000" font-size="13" textLength="75.74" font-weight="700">Secretaría</text><text x="134.873" y="104.364" fill="#000" font-size="13" textLength="233.499">solicita importar listado de alumnos</text></g><!--link Paso1 to Paso2--><g class="link" data-entity-1="ent0002" data-entity-2="ent0003" id="lnk7" data-source-line="19" data-link-type="dependency"><path d="M44,185.567 C44,209.847 44,241.987 44,266.207" style="stroke:#008000;stroke-width:1;" fill="none" id="Paso1-to-Paso2"/><polygon points="44,271.207,48,262.207,44,266.207,40,262.207,44,271.207" fill="#008000" style="stroke:#008000;stroke-width:1;stroke-linejoin:miter;stroke-miterlimit:10;"/><path d="M49,208.297 L49,248.297 L384,248.297 L384,218.297 L374,208.297 L49,208.297" style="stroke:#808080;stroke-width:0.5;" fill="#FFFFE0"/><path d="M374,208.297 L374,218.297 L384,218.297 L374,208.297" style="stroke:#808080;stroke-width:0.5;" fill="#FFFFE0"/><text x="55" y="225.364" fill="#000" font-size="13" textLength="58.906" font-weight="700">Sistema</text><text x="118.039" y="225.364" fill="#000" font-size="13" textLength="251.12">permite indicar el Formato Aceptado y</text><text x="55" y="240.497" fill="#000" font-size="13" textLength="290.285">seleccionar el Archivo de Origen (Excel/CSV)</text></g><!--link Paso2 to *end*importarAlumnos--><g class="link" data-entity-1="ent0003" data-entity-2="ent0008" id="lnk9" data-source-line="25" data-link-type="dependency"><path d="M44,321.727 C44,355.107 44,408.477 44,432.017" style="stroke:#008000;stroke-width:1;" fill="none" id="Paso2-to-*end*importarAlumnos"/><polygon points="44,437.017,48,428.017,44,432.017,40,428.017,44,437.017" fill="#008000" style="stroke:#008000;stroke-width:1;stroke-linejoin:miter;stroke-miterlimit:10;"/><path d="M49,344.297 L49,414.297 L336,414.297 L336,354.297 L326,344.297 L49,344.297" style="stroke:#808080;stroke-width:0.5;" fill="#FFFFE0"/><path d="M326,344.297 L326,354.297 L336,354.297 L326,344.297" style="stroke:#808080;stroke-width:0.5;" fill="#FFFFE0"/><text x="55" y="361.364" fill="#000" font-size="13" textLength="75.74" font-weight="700">Secretaría</text><text x="134.873" y="361.364" fill="#000" font-size="13" textLength="117.203">adjunta el archivo</text><text x="55" y="376.497" fill="#000" font-size="13" textLength="58.906" font-weight="700">Sistema</text><text x="118.039" y="376.497" fill="#000" font-size="13" textLength="151.506">permite importar datos</text><text x="55" y="391.629" fill="#000" font-size="13" textLength="266.557">• Permite solicitar confirmar importación</text><text x="55" y="406.762" fill="#000" font-size="13" textLength="245.756">• Permite solicitar cancelar operación</text></g></g><g class="entity" data-qualified-name="ALUMNOS_ABIERTO" id="ent0004" data-source-line="34"><rect x="128.23" y="691.3" width="158.537" height="50" fill="#F5F5F5" style="stroke:#808080;stroke-width:0.5;" rx="12.5" ry="12.5"/><line x1="128.23" y1="717.597" x2="286.767" y2="717.597" style="stroke:#808080;stroke-width:0.5;"/><text x="138.23" y="709.295" fill="#000" font-size="14" textLength="138.537">ALUMNOS_ABIERTO</text></g><!--link importarAlumnos to ALUMNOS_ABIERTO--><g class="link" data-entity-1="ent0001" data-entity-2="ent0004" id="lnk10" data-source-line="36" data-link-type="dependency"><path d="M131.59,472.42 C114.6,524.3 101.5,564.3 101.5,564.3 C101.5,564.3 101.5,599.3 101.5,599.3 C101.5,599.3 150.827,653.279 181.907,687.289" style="stroke:#008000;stroke-width:1;" fill="none" id="importarAlumnos-to-ALUMNOS_ABIERTO"/><polygon points="185.28,690.98,182.161,681.638,181.907,687.289,176.256,687.035,185.28,690.98" fill="#008000" style="stroke:#008000;stroke-width:1;stroke-linejoin:miter;stroke-miterlimit:10;"/><path d="M106.5,569.3 L106.5,594.3 L224.5,594.3 L224.5,579.3 L214.5,569.3 L106.5,569.3" style="stroke:#808080;stroke-width:0.5;" fill="#FFFFE0"/><path d="M214.5,569.3 L214.5,579.3 L224.5,579.3 L214.5,569.3" style="stroke:#808080;stroke-width:0.5;" fill="#FFFFE0"/><text x="112.5" y="586.367" fill="#000" font-size="13" textLength="97.037">abrirAlumnos()</text></g><!--link importarAlumnos to ALUMNOS_ABIERTO--><g class="link" data-entity-1="ent0001" data-entity-2="ent0004" id="lnk11" data-source-line="41" data-link-type="dependency"><path d="M231.13,472.42 C236.42,524.3 240.5,564.3 240.5,564.3 C240.5,564.3 240.5,599.3 240.5,599.3 C240.5,599.3 225.457,652.161 215.787,686.171" style="stroke:#00F;stroke-width:1;" fill="none" id="importarAlumnos-to-ALUMNOS_ABIERTO-1"/><polygon points="214.42,690.98,220.729,683.417,215.787,686.171,213.034,681.229,214.42,690.98" fill="#00F" style="stroke:#00F;stroke-width:1;stroke-linejoin:miter;stroke-miterlimit:10;"/><path d="M245.5,569.3 L245.5,594.3 L390.5,594.3 L390.5,579.3 L380.5,569.3 L245.5,569.3" style="stroke:#808080;stroke-width:0.5;" fill="#FFFFE0"/><path d="M380.5,569.3 L380.5,579.3 L390.5,579.3 L380.5,569.3" style="stroke:#808080;stroke-width:0.5;" fill="#FFFFE0"/><text x="251.5" y="586.367" fill="#000" font-size="13" textLength="124.021">cancelar operación</text></g><?plantuml-src bLFHIjn057tFLrpqHOL5ks2VP26AWb1TwMfVHChip3MEExattCcs3KNej_JTftw2Vz8lwMIo6zFigaW8PCwSUy-vXni_irGeKJaG6_HOmCUznBUWA9gjWCuIbbM1KB2hwaFdxfnBF5HwbWdFoHonOmdyxAwiq3d-tcUo69I6bOcgEjUJKgrssZpPhvyLMhzDuciODcnUi9HAKZVFYVtMzWOe3pqKVYO0KB-mA8D8kr2UFwo7Xst5zSuD3AutCq6acy6eKqHXFc2gqvf50E1WEfgW5WpQJu_gO7Sw0i_EQbkgrbJW1pd3O11KOp1M8vdOibMEIYlQmzUqGsVC6zq29RU1PCbO7LJHmGbBhag6L6CH7LIBKeyEjRPC3IyLVMU_HODZiHaIR1t_qEXsZoPVjb_sElpFQyZj7IafSp-d459GLutw6rCjmpHX8B_W_ltr6ouMX6Ni0fhfreR1PLcaxTCVUhr4KHWtV73Gw_3RiH_Q1Km_NPsTZoTVqyFJuy-NuxX0FIn9-lludDCW9DMdnyIa_gKwkQcfsESjJredwtfFtHpVqNhTjCl-_m00?></g></svg>