<?xml version="1.0" encoding="us-ascii" standalone="no"?><svg xmlns="http://www.w3.org/2000/svg" xmlns:xlink="http://www.w3.org/1999/xlink" contentStyleType="text/css" height="739px" preserveAspectRatio="none" style="width:531px;height:739px;background:#FFFFFF;" version="1.1" viewBox="0 0 531 739" width="531px" zoomAndPan="magnify"><defs/><g><path d="M19.5,7 L380.5,7 A12.5,12.5 0 0 1 393,19.5 L393,34.6094 L7,34.6094 L7,19.5 A12.5,12.5 0 0 1 19.5,7 " fill="#F5F5F5" style="stroke:#F5F5F5;stroke-width:1.0;"/><rect fill="none" height="455.6094" rx="12.5" ry="12.5" style="stroke:#808080;stroke-width:0.5;" width="386" x="7" y="7"/><line style="stroke:#808080;stroke-width:0.5;" x1="7" x2="393" y1="34.6094" y2="34.6094"/><text fill="#000000" font-family="sans-serif" font-size="14" lengthAdjust="spacing" textLength="126" x="137" y="26.5332">importarMatriculas()</text><g id="importarMatriculas.Paso1"><rect fill="#F5F5F5" height="50" rx="12.5" ry="12.5" style="stroke:#808080;stroke-width:0.5;" width="50" x="19" y="137.6094"/><line style="stroke:#808080;stroke-width:0.5;" x1="19" x2="69" y1="165.2188" y2="165.2188"/><text fill="#000000" font-family="sans-serif" font-size="14" lengthAdjust="spacing" textLength="4" x="42" y="157.1426">&#160;</text></g><g id="importarMatriculas.Paso2"><rect fill="#F5F5F5" height="50" rx="12.5" ry="12.5" style="stroke:#808080;stroke-width:0.5;" width="50" x="19" y="259.6094"/><line style="stroke:#808080;stroke-width:0.5;" x1="19" x2="69" y1="287.2188" y2="287.2188"/><text fill="#000000" font-family="sans-serif" font-size="14" lengthAdjust="spacing" textLength="4" x="42" y="279.1426">&#160;</text></g><ellipse cx="44" cy="55.6094" fill="#222222" rx="10" ry="10" style="stroke:#222222;stroke-width:1.0;"/><ellipse cx="44" cy="441.6094" fill="none" rx="11" ry="11" style="stroke:#222222;stroke-width:1.0;"/><ellipse cx="44" cy="441.6094" fill="#222222" rx="6" ry="6" style="stroke:#222222;stroke-width:1.0;"/><!--link *start*importarMatriculas to Paso1--><g id="link_*start*importarMatriculas_Paso1"><path d="M44,65.9294 C44,81.7894 44,108.5194 44,131.2494 " fill="none" id="*start*importarMatriculas-to-Paso1" style="stroke:#008000;stroke-width:1.0;"/><polygon fill="#008000" points="44,137.2494,48,128.2494,44,132.2494,40,128.2494,44,137.2494" style="stroke:#008000;stroke-width:1.0;"/><path d="M49,88.6094 L49,114.6094 L384,114.6094 L384,98.6094 L374,88.6094 L49,88.6094 " fill="#FFFFE0" style="stroke:#808080;stroke-width:0.5;"/><path d="M374,88.6094 L374,98.6094 L384,98.6094 L374,88.6094 " fill="#FFFFE0" style="stroke:#808080;stroke-width:0.5;"/><text fill="#000000" font-family="sans-serif" font-size="13" font-weight="bold" lengthAdjust="spacing" textLength="66" x="55" y="107.1045">Secretar&#237;a</text><text fill="#000000" font-family="sans-serif" font-size="13" lengthAdjust="spacing" textLength="244" x="125" y="107.1045">solicita importar informaci&#243;n de matr&#237;culas</text></g><!--link Paso1 to Paso2--><g id="link_Paso1_Paso2"><path d="M44,187.8894 C44,208.7094 44,232.5494 44,253.3594 " fill="none" id="Paso1-to-Paso2" style="stroke:#008000;stroke-width:1.0;"/><polygon fill="#008000" points="44,259.3594,48,250.3594,44,254.3594,40,250.3594,44,259.3594" style="stroke:#008000;stroke-width:1.0;"/><path d="M49,210.6094 L49,236.6094 L362,236.6094 L362,220.6094 L352,210.6094 L49,210.6094 " fill="#FFFFE0" style="stroke:#808080;stroke-width:0.5;"/><path d="M352,210.6094 L352,220.6094 L362,220.6094 L352,210.6094 " fill="#FFFFE0" style="stroke:#808080;stroke-width:0.5;"/><text fill="#000000" font-family="sans-serif" font-size="13" font-weight="bold" lengthAdjust="spacing" textLength="51" x="55" y="229.1045">Sistema</text><text fill="#000000" font-family="sans-serif" font-size="13" lengthAdjust="spacing" textLength="237" x="110" y="229.1045">permite adjuntar un archivo de matr&#237;culas</text></g><!--link Paso2 to *end*importarMatriculas--><g id="link_Paso2_*end*importarMatriculas"><path d="M44,309.8294 C44,344.3994 44,400.3794 44,424.5594 " fill="none" id="Paso2-to-*end*importarMatriculas" style="stroke:#008000;stroke-width:1.0;"/><polygon fill="#008000" points="44,430.5594,48,421.5594,44,425.5594,40,421.5594,44,430.5594" style="stroke:#008000;stroke-width:1.0;"/><path d="M49,332.6094 L49,407.6094 L301,407.6094 L301,342.6094 L291,332.6094 L49,332.6094 " fill="#FFFFE0" style="stroke:#808080;stroke-width:0.5;"/><path d="M291,332.6094 L291,342.6094 L301,342.6094 L291,332.6094 " fill="#FFFFE0" style="stroke:#808080;stroke-width:0.5;"/><text fill="#000000" font-family="sans-serif" font-size="13" font-weight="bold" lengthAdjust="spacing" textLength="66" x="55" y="351.1045">Secretar&#237;a</text><text fill="#000000" font-family="sans-serif" font-size="13" lengthAdjust="spacing" textLength="100" x="125" y="351.1045">adjunta el archivo</text><text fill="#000000" font-family="sans-serif" font-size="13" font-weight="bold" lengthAdjust="spacing" textLength="51" x="55" y="367.4561">Sistema</text><text fill="#000000" font-family="sans-serif" font-size="13" lengthAdjust="spacing" textLength="130" x="110" y="367.4561">permite importar datos</text><text fill="#000000" font-family="sans-serif" font-size="13" lengthAdjust="spacing" textLength="231" x="55" y="383.8076">&#8226; Permite solicitar confirmar importaci&#243;n</text><text fill="#000000" font-family="sans-serif" font-size="13" lengthAdjust="spacing" textLength="216" x="55" y="400.1592">&#8226; Permite solicitar cancelar operaci&#243;n</text></g><g id="MATRICULAS_ABIERTO"><rect fill="#F5F5F5" height="50" rx="12.5" ry="12.5" style="stroke:#808080;stroke-width:0.5;" width="175" x="112.5" y="683"/><line style="stroke:#808080;stroke-width:0.5;" x1="112.5" x2="287.5" y1="710.6094" y2="710.6094"/><text fill="#000000" font-family="sans-serif" font-size="14" lengthAdjust="spacing" textLength="155" x="122.5" y="702.5332">MATRICULAS_ABIERTO</text></g><!--link importarMatriculas to MATRICULAS_ABIERTO--><g id="link_importarMatriculas_MATRICULAS_ABIERTO"><path d="M88.2,463.16 C62.73,514.91 43,555 43,555 C43,555 43,591 43,591 C43,591 116.6538,645.4252 162.6438,679.3952 " fill="none" id="importarMatriculas-to-MATRICULAS_ABIERTO" style="stroke:#008000;stroke-width:1.0;"/><polygon fill="#008000" points="167.47,682.96,162.6073,674.3953,163.4482,679.9893,157.8542,680.8302,167.47,682.96" style="stroke:#008000;stroke-width:1.0;"/><path d="M48,560 L48,586 L268,586 L268,570 L258,560 L48,560 " fill="#FFFFE0" style="stroke:#808080;stroke-width:0.5;"/><path d="M258,560 L258,570 L268,570 L258,560 " fill="#FFFFE0" style="stroke:#808080;stroke-width:0.5;"/><text fill="#000000" font-family="sans-serif" font-size="13" lengthAdjust="spacing" textLength="199" x="54" y="578.4951">abrirMatriculas() - lista actualizada</text></g><!--link importarMatriculas to MATRICULAS_ABIERTO--><g id="link_importarMatriculas_MATRICULAS_ABIERTO"><path d="M259.82,463.16 C273.44,514.91 284,555 284,555 C284,555 284,591 284,591 C284,591 245.5301,644.1311 220.9201,678.1011 " fill="none" id="importarMatriculas-to-MATRICULAS_ABIERTO-1" style="stroke:#0000FF;stroke-width:1.0;"/><polygon fill="#0000FF" points="217.4,682.96,225.9194,678.0184,220.3334,678.9109,219.4409,673.3249,217.4,682.96" style="stroke:#0000FF;stroke-width:1.0;"/><path d="M289,560 L289,586 L524,586 L524,570 L514,560 L289,560 " fill="#FFFFE0" style="stroke:#808080;stroke-width:0.5;"/><path d="M514,560 L514,570 L524,570 L514,560 " fill="#FFFFE0" style="stroke:#808080;stroke-width:0.5;"/><text fill="#000000" font-family="sans-serif" font-size="13" lengthAdjust="spacing" textLength="214" x="295" y="578.4951">abrirMatriculas() - cancelar operaci&#243;n</text></g><!--SRC=[fLF1Jjj04BtxAqRaqY95GAHoGf42eb8aqY829uJGP3q9IzOxrkowLOegzLjwvyGdv4_u4jQRn1XiHKMrB_QRD_FUFe_TNDiS1JEmd9AZ70xt4rU1WdRU08ssv1SvGSvcKRxKQj_Oqp6g-KouiEa96vR0dztv1Hd3FzypMLAI5MickAYLnnwRapfVlvHtW_P-JE9A67PqbhDub15wqQemw3vztW5qq2p0Gv90kDQT46ddwFYW7UwjwDUxDz2zxio4oDvq-xKE6yu7RCkqvX40E9hqnwI4Wl3o4O_s9drmRBJI7Yj7eEsK9KEbbqyMKe8iM5m-Hezn3DaqpbxfHxs6Wzus1zfvobRgEKcc0mdJ-yAMueK557MdV_2_IVVUI8SmFd3qjIYGsMXkDrabbA9dj-O-__aBvsl29ai1nNQgGuYoQOffRcz1gyY41mvwDNvrvj_LLeq6bnV3awkpmVXsS3mylRZy7hUY2IT9ovwz1jODaRKqnVIa_6Tg6U94z9irXcue1KE0oXTez2zCCNdzGEt24rFG_-ksHRLHVW40]--></g></svg>