<svg xmlns="http://www.w3.org/2000/svg" xmlns:xlink="http://www.w3.org/1999/xlink" version="1.1" data-diagram-type="STATE" style="width:469px;height:755px;background:#FFFFFF;" width="469px" height="755px" viewBox="0 0 469 755" zoomAndPan="magnify" preserveAspectRatio="none" contentStyleType="text/css"><?plantuml 1.2026.7beta8?><defs/><g font-family="sans-serif" lengthAdjust="spacing"><g class="entity" data-qualified-name="importarMatriculas" id="ent0001" data-source-line="9"><path d="M19.5,7 L441.5,7 A12.5,12.5 0 0 1 454,19.5 L454,33.297 L7,33.297 L7,19.5 A12.5,12.5 0 0 1 19.5,7" fill="#F5F5F5"/><path d="M7,33.297 L454,33.297 L454,459.797 A12.5,12.5 0 0 1 441.5,472.297 L19.5,472.297 A12.5,12.5 0 0 1 7,459.797 L7,33.297" fill="#F5F5F5"/><rect x="7" y="7" width="447" height="465.297" fill="none" style="stroke:#808080;stroke-width:0.5;" rx="12.5" ry="12.5"/><line x1="7" y1="33.297" x2="454" y2="33.297" style="stroke:#808080;stroke-width:0.5;"/><text x="158.695" y="24.995" fill="#000" font-size="14" textLength="143.609">importarMatriculas()</text><g class="entity" data-qualified-name="importarMatriculas.Paso1" id="ent0002" data-source-line="11"><rect x="19" y="135.297" width="50" height="50" fill="#F5F5F5" style="stroke:#808080;stroke-width:0.5;" rx="12.5" ry="12.5"/><line x1="19" y1="161.594" x2="69" y2="161.594" style="stroke:#808080;stroke-width:0.5;"/><text x="41.775" y="153.292" fill="#000" font-size="14"> </text></g><g class="entity" data-qualified-name="importarMatriculas.Paso2" id="ent0003" data-source-line="12"><rect x="19" y="271.297" width="50" height="50" fill="#F5F5F5" style="stroke:#808080;stroke-width:0.5;" rx="12.5" ry="12.5"/><line x1="19" y1="297.594" x2="69" y2="297.594" style="stroke:#808080;stroke-width:0.5;"/><text x="41.775" y="289.292" fill="#000" font-size="14"> </text></g><g class="start_entity" data-qualified-name="importarMatriculas..start.importarMatriculas" id="ent0005" data-source-line="14"><ellipse cx="44" cy="54.297" rx="10" ry="10" fill="#222" style="stroke:#222;stroke-width:1;"/></g><g class="end_entity" data-qualified-name="importarMatriculas..end.importarMatriculas" id="ent0008" data-source-line="25"><ellipse cx="44" cy="448.297" rx="11" ry="11" fill="none" style="stroke:#222;stroke-width:1;"/><ellipse cx="44" cy="448.297" rx="6" ry="6" fill="#222" style="stroke:#222;stroke-width:1;"/></g><!--link *start*importarMatriculas to Paso1--><g class="link" data-entity-1="ent0005" data-entity-2="ent0002" id="lnk6" data-source-line="14" data-link-type="dependency"><path d="M44,64.527 C44,80.237 44,107.657 44,130.167" style="stroke:#008000;stroke-width:1;" fill="none" id="*start*importarMatriculas-to-Paso1"/><polygon points="44,135.167,48,126.167,44,130.167,40,126.167,44,135.167" fill="#008000" style="stroke:#008000;stroke-width:1;stroke-linejoin:miter;stroke-miterlimit:10;"/><path d="M49,87.297 L49,112.297 L430,112.297 L430,97.297 L420,87.297 L49,87.297" style="stroke:#808080;stroke-width:0.5;" fill="#FFFFE0"/><path d="M420,87.297 L420,97.297 L430,97.297 L420,87.297" style="stroke:#808080;stroke-width:0.5;" fill="#FFFFE0"/><text x="55" y="104.364" fill="#000" font-size="13" textLength="75.74" font-weight="700">Secretaría</text><text x="134.873" y="104.364" fill="#000" font-size="13" textLength="280.516">solicita importar información de matrículas</text></g><!--link Paso1 to Paso2--><g class="link" data-entity-1="ent0002" data-entity-2="ent0003" id="lnk7" data-source-line="19" data-link-type="dependency"><path d="M44,185.567 C44,209.847 44,241.987 44,266.207" style="stroke:#008000;stroke-width:1;" fill="none" id="Paso1-to-Paso2"/><polygon points="44,271.207,48,262.207,44,266.207,40,262.207,44,271.207" fill="#008000" style="stroke:#008000;stroke-width:1;stroke-linejoin:miter;stroke-miterlimit:10;"/><path d="M49,208.297 L49,248.297 L384,248.297 L384,218.297 L374,208.297 L49,208.297" style="stroke:#808080;stroke-width:0.5;" fill="#FFFFE0"/><path d="M374,208.297 L374,218.297 L384,218.297 L374,208.297" style="stroke:#808080;stroke-width:0.5;" fill="#FFFFE0"/><text x="55" y="225.364" fill="#000" font-size="13" textLength="58.906" font-weight="700">Sistema</text><text x="118.039" y="225.364" fill="#000" font-size="13" textLength="251.12">permite indicar el Formato Aceptado y</text><text x="55" y="240.497" fill="#000" font-size="13" textLength="290.285">seleccionar el Archivo de Origen (Excel/CSV)</text></g><!--link Paso2 to *end*importarMatriculas--><g class="link" data-entity-1="ent0003" data-entity-2="ent0008" id="lnk9" data-source-line="25" data-link-type="dependency"><path d="M44,321.727 C44,355.107 44,408.477 44,432.017" style="stroke:#008000;stroke-width:1;" fill="none" id="Paso2-to-*end*importarMatriculas"/><polygon points="44,437.017,48,428.017,44,432.017,40,428.017,44,437.017" fill="#008000" style="stroke:#008000;stroke-width:1;stroke-linejoin:miter;stroke-miterlimit:10;"/><path d="M49,344.297 L49,414.297 L336,414.297 L336,354.297 L326,344.297 L49,344.297" style="stroke:#808080;stroke-width:0.5;" fill="#FFFFE0"/><path d="M326,344.297 L326,354.297 L336,354.297 L326,344.297" style="stroke:#808080;stroke-width:0.5;" fill="#FFFFE0"/><text x="55" y="361.364" fill="#000" font-size="13" textLength="75.74" font-weight="700">Secretaría</text><text x="134.873" y="361.364" fill="#000" font-size="13" textLength="117.203">adjunta el archivo</text><text x="55" y="376.497" fill="#000" font-size="13" textLength="58.906" font-weight="700">Sistema</text><text x="118.039" y="376.497" fill="#000" font-size="13" textLength="151.506">permite importar datos</text><text x="55" y="391.629" fill="#000" font-size="13" textLength="266.557">• Permite solicitar confirmar importación</text><text x="55" y="406.762" fill="#000" font-size="13" textLength="245.756">• Permite solicitar cancelar operación</text></g></g><g class="entity" data-qualified-name="MATRICULAS_ABIERTO" id="ent0004" data-source-line="34"><rect x="141.1" y="691.3" width="178.806" height="50" fill="#F5F5F5" style="stroke:#808080;stroke-width:0.5;" rx="12.5" ry="12.5"/><line x1="141.1" y1="717.597" x2="319.906" y2="717.597" style="stroke:#808080;stroke-width:0.5;"/><text x="151.1" y="709.295" fill="#000" font-size="14" textLength="158.806">MATRICULAS_ABIERTO</text></g><!--link importarMatriculas to MATRICULAS_ABIERTO--><g class="link" data-entity-1="ent0001" data-entity-2="ent0004" id="lnk10" data-source-line="36" data-link-type="dependency"><path d="M154.59,472.42 C137.6,524.3 124.5,564.3 124.5,564.3 C124.5,564.3 124.5,599.3 124.5,599.3 C124.5,599.3 173.827,653.279 204.907,687.289" style="stroke:#008000;stroke-width:1;" fill="none" id="importarMatriculas-to-MATRICULAS_ABIERTO"/><polygon points="208.28,690.98,205.161,681.638,204.907,687.289,199.256,687.035,208.28,690.98" fill="#008000" style="stroke:#008000;stroke-width:1;stroke-linejoin:miter;stroke-miterlimit:10;"/><path d="M129.5,569.3 L129.5,594.3 L247.5,594.3 L247.5,579.3 L237.5,569.3 L129.5,569.3" style="stroke:#808080;stroke-width:0.5;" fill="#FFFFE0"/><path d="M237.5,569.3 L237.5,579.3 L247.5,579.3 L237.5,569.3" style="stroke:#808080;stroke-width:0.5;" fill="#FFFFE0"/><text x="135.5" y="586.367" fill="#000" font-size="13" textLength="97.494">abrirMatriculas</text></g><!--link importarMatriculas to MATRICULAS_ABIERTO--><g class="link" data-entity-1="ent0001" data-entity-2="ent0004" id="lnk11" data-source-line="41" data-link-type="dependency"><path d="M254.13,472.42 C259.42,524.3 263.5,564.3 263.5,564.3 C263.5,564.3 263.5,599.3 263.5,599.3 C263.5,599.3 248.457,652.161 238.787,686.171" style="stroke:#00F;stroke-width:1;" fill="none" id="importarMatriculas-to-MATRICULAS_ABIERTO-1"/><polygon points="237.42,690.98,243.729,683.417,238.787,686.171,236.034,681.229,237.42,690.98" fill="#00F" style="stroke:#00F;stroke-width:1;stroke-linejoin:miter;stroke-miterlimit:10;"/><path d="M268.5,569.3 L268.5,594.3 L413.5,594.3 L413.5,579.3 L403.5,569.3 L268.5,569.3" style="stroke:#808080;stroke-width:0.5;" fill="#FFFFE0"/><path d="M403.5,569.3 L403.5,579.3 L413.5,579.3 L403.5,569.3" style="stroke:#808080;stroke-width:0.5;" fill="#FFFFE0"/><text x="274.5" y="586.367" fill="#000" font-size="13" textLength="124.021">cancelar operacion</text></g><?plantuml-src bLF1Qjj04BthAuRaaXHCMaDx2WR5911ecX2dlOGGnhiJPUlLZfXTjnMbq6_fFQT-Wl-aNzBLsbPKoqa9GY3Dl3VlpTFApuohKB04nveyLV3kTURReg2RzOhME0frHL2nhPkNJky31pf2DIk4vqwFsR94V74VQhAMlsuYMJJ94bK8rfts961_qkx9s-RgmJR7PBufmuufAvQ0SeP1Z9fRz7lxEu0U-WtudW50SyEA30bvWPxVR2yFMyRrgniONEyMGkHk1gCEoSKjWLsJsImL00wdemafeIY_UC33W-a8F5kZJC3M5nXtnrAYCelV3ZH16Oqk7fBJD8QSJhDR2qcoPsBud0dZ0vLB0nL9QIB8E6rKb2SB9ur-OCWLLG4rGxsYUhAab66tnEMYxiqNRaoUYod8mTxnDqNsO3pvjF-qr-4_NcE0BuWBzUUvYsb5TLog_sUhTQewBkHNs3y_Vy752h3ENq2nkpDnSLcJqXTude8khXiVEEfryEtQFzhpU9PVNPwEFxxF9xVvqUdnvTLvEapzSfPjEQ6FWGrYP5j8AJrf_hPEXZWLqvcIjRQUa9ZQERrCOJC0Tgt8Nm00?></g></svg>