<svg xmlns="http://www.w3.org/2000/svg" xmlns:xlink="http://www.w3.org/1999/xlink" contentStyleType="text/css" data-diagram-type="DESCRIPTION" height="435px" preserveAspectRatio="none" style="width:1013px;height:435px;background:#FFFFFF;" version="1.1" viewBox="0 0 1013 435" width="1013px" zoomAndPan="magnify"><?plantuml 1.2026.5?><defs/><g><!--cluster editarSolicitudDispensa--><g class="cluster" data-qualified-name="editarSolicitudDispensa" data-source-line="7" id="ent0004"><path d="M8.5,106.3 L210.75,106.3 A3.75,3.75 0 0 1 213.25,108.8 L220.25,128.5969 L375.5,128.5969 A2.5,2.5 0 0 1 378,131.0969 L378,417.69 A2.5,2.5 0 0 1 375.5,420.19 L8.5,420.19 A2.5,2.5 0 0 1 6,417.69 L6,108.8 A2.5,2.5 0 0 1 8.5,106.3" fill="none" style="stroke:#000000;stroke-width:1.5;"/><line style="stroke:#000000;stroke-width:1.5;" x1="6" x2="220.25" y1="128.5969" y2="128.5969"/><text fill="#000000" font-family="sans-serif" font-size="14" font-weight="700" lengthAdjust="spacing" textLength="201.25" x="10" y="121.2951">editarSolicitudDispensa()</text></g><!--entity EditarDispensaView--><g class="entity" data-qualified-name="editarSolicitudDispensa.EditarDispensaView" data-source-line="8" id="ent0005"><rect fill="#629EF9" height="36.2969" rx="2.5" ry="2.5" style="stroke:#181818;stroke-width:0.5;" width="159.1865" x="202.41" y="141.3"/><text fill="#000000" font-family="sans-serif" font-size="14" lengthAdjust="spacing" textLength="139.1865" x="212.41" y="164.2951">EditarDispensaView</text></g><!--entity DispensaController--><g class="entity" data-qualified-name="editarSolicitudDispensa.DispensaController" data-source-line="9" id="ent0006"><rect fill="#B5BD68" height="36.2969" rx="2.5" ry="2.5" style="stroke:#181818;stroke-width:0.5;" width="153.3828" x="38.31" y="254.6"/><text fill="#000000" font-family="sans-serif" font-size="14" lengthAdjust="spacing" textLength="133.3828" x="48.31" y="277.5951">DispensaController</text></g><!--entity SolicitudDispensaRepository--><g class="entity" data-qualified-name="editarSolicitudDispensa.SolicitudDispensaRepository" data-source-line="10" id="ent0007"><rect fill="#F2AC4E" height="36.2969" rx="2.5" ry="2.5" style="stroke:#181818;stroke-width:0.5;" width="219.3496" x="22.33" y="367.89"/><text fill="#000000" font-family="sans-serif" font-size="14" lengthAdjust="spacing" textLength="199.3496" x="32.33" y="390.8851">SolicitudDispensaRepository</text></g><!--entity SolicitudDetallada--><g class="entity" data-qualified-name="SolicitudDetallada" data-source-line="3" id="ent0001"><rect fill="#CDEBA5" height="36.2969" rx="2.5" ry="2.5" style="stroke:#181818;stroke-width:0.5;" width="267.3447" x="148.33" y="7"/><text fill="#000000" font-family="sans-serif" font-size="14" lengthAdjust="spacing" textLength="247.3447" x="158.33" y="29.9951">:SOLICITUD_DISPENSA_DETALLADA</text></g><!--entity SolicitudActualizada--><g class="entity" data-qualified-name="SolicitudActualizada" data-source-line="4" id="ent0002"><rect fill="#CDEBA5" height="36.2969" rx="2.5" ry="2.5" style="stroke:#181818;stroke-width:0.5;" width="283.2383" x="394.38" y="254.6"/><text fill="#000000" font-family="sans-serif" font-size="14" lengthAdjust="spacing" textLength="263.2383" x="404.38" y="277.5951">:SOLICITUD_DISPENSA_ACTUALIZADA</text></g><!--entity CompletarGestion--><g class="entity" data-qualified-name="CompletarGestion" data-source-line="5" id="ent0003"><rect fill="#CDEBA5" height="36.2969" rx="2.5" ry="2.5" style="stroke:#181818;stroke-width:0.5;" width="249.2363" x="712.38" y="254.6"/><text fill="#000000" font-family="sans-serif" font-size="14" lengthAdjust="spacing" textLength="229.2363" x="722.38" y="277.5951">:Collaboration CompletarGestion</text></g><!--link SolicitudDetallada to EditarDispensaView--><g class="link" data-entity-1="ent0001" data-entity-2="ent0005" data-link-type="dependency" data-source-line="13" id="lnk8"><path d="M282,43.72 C282,69.02 282,110.46 282,135.81" fill="none" id="SolicitudDetallada-to-EditarDispensaView" style="stroke:#181818;stroke-width:1;"/><polygon fill="#181818" points="282,140.81,286,131.81,282,135.81,278,131.81,282,140.81" style="stroke:#181818;stroke-width:1;stroke-linejoin:miter;stroke-miterlimit:10;"/><text fill="#000000" font-family="sans-serif" font-size="13" lengthAdjust="spacing" textLength="163.814" x="283" y="86.3669">editarSolicitudDispensa()</text></g><!--link EditarDispensaView to DispensaController--><g class="link" data-entity-1="ent0005" data-entity-2="ent0006" data-link-type="dependency" data-source-line="15" id="lnk9"><path d="M247,178 C220.27,191.41 188,207.6 188,207.6 C188,207.6 160.315,231.9185 138.705,250.9185" fill="none" id="EditarDispensaView-to-DispensaController" style="stroke:#181818;stroke-width:1;"/><polygon fill="#181818" points="134.95,254.22,144.3502,251.2813,138.705,250.9185,139.0678,245.2733,134.95,254.22" style="stroke:#181818;stroke-width:1;stroke-linejoin:miter;stroke-miterlimit:10;"/><text fill="#000000" font-family="sans-serif" font-size="13" lengthAdjust="spacing" textLength="303.9258" x="189" y="220.6669">actualizarSolicitud(solicitudId, nuevosCampos)</text></g><!--link DispensaController to SolicitudDispensaRepository--><g class="link" data-entity-1="ent0006" data-entity-2="ent0007" data-link-type="dependency" data-source-line="16" id="lnk10"><path d="M117.66,291.13 C120.83,311.92 125.3533,341.5676 128.5533,362.4676" fill="none" id="DispensaController-to-SolicitudDispensaRepository" style="stroke:#181818;stroke-width:1;"/><polygon fill="#181818" points="129.31,367.41,131.9018,357.9083,128.5533,362.4676,123.994,359.1191,129.31,367.41" style="stroke:#181818;stroke-width:1;stroke-linejoin:miter;stroke-miterlimit:10;"/><text fill="#000000" font-family="sans-serif" font-size="13" lengthAdjust="spacing" textLength="225.6401" x="126" y="333.9569">actualizarDatosDispensa(solicitud)</text></g><!--link EditarDispensaView to SolicitudActualizada--><g class="link" data-entity-1="ent0005" data-entity-2="ent0002" data-link-type="dependency" data-source-line="18" id="lnk11"><path d="M362.06,178 C423.19,191.41 497,207.6 497,207.6 C497,207.6 511.2044,230.9465 522.7444,249.9465" fill="none" id="EditarDispensaView-to-SolicitudActualizada" style="stroke:#181818;stroke-width:1;stroke-dasharray:7,7;"/><polygon fill="#181818" points="525.34,254.22,524.0867,244.4512,522.7444,249.9465,517.2491,248.6042,525.34,254.22" style="stroke:#181818;stroke-width:1;stroke-linejoin:miter;stroke-miterlimit:10;"/><text fill="#000000" font-family="sans-serif" font-size="13" lengthAdjust="spacing" textLength="109.6367" x="508" y="220.6669">&#171;include&#187; [&#233;xito]</text></g><!--link EditarDispensaView to CompletarGestion--><g class="link" data-entity-1="ent0005" data-entity-2="ent0003" data-link-type="dependency" data-source-line="19" id="lnk12"><path d="M361.79,171.38 C463.41,185.31 626,207.6 626,207.6 C626,207.6 711.8162,233.6856 774.2762,252.6756" fill="none" id="EditarDispensaView-to-CompletarGestion" style="stroke:#181818;stroke-width:1;stroke-dasharray:7,7;"/><polygon fill="#181818" points="779.06,254.13,771.6127,247.685,774.2762,252.6756,769.2856,255.339,779.06,254.13" style="stroke:#181818;stroke-width:1;stroke-linejoin:miter;stroke-miterlimit:10;"/><text fill="#000000" font-family="sans-serif" font-size="13" lengthAdjust="spacing" textLength="320.7344" x="677" y="220.6669">&#171;include&#187; completarGestion() [cancelaci&#243;n/error]</text></g><?plantuml-src ZPBVQi8m5CRlynG7TwCm7SWSiqWXQ-ieo3Qcxc8YSao316DIadIR6tkWNUyHVB5LmJzhTQnNwSbtVjztajYvK2aQN80KYhjboY7LShd-8SHmvb3D98Up88nkQ0igNl--5mVnO1XEmhZ_4DtrwIIC1hJNeo6j05heQocOS5aISeTIOeB_vT1WCAIz-Bb4einbACNxALQWSv-fDkY4LX3eHIfpRtFBxRgmOHMBXAJ8vZZZm1EHb_UfXKsvihXkgfpOgzOgy44W_mxIN3NRKRSDqQPbgtmI_BKedBQcoTKrR2M1Lixa0t1J57QRDBYCe6J_o5DjXTDcIJu9APytrEl-aHmUd1o7aB8SwacEAQVq0BVNiKTLxNOL9-UWClwYRO2BF6UDb16RW7-CTMWHejDsbtHdSpnoe-4VVJKUT3f2CPabtFTXjFfwott6fmZ5j_AxcnLsgpKOCLICIsHYzQqkk37QZ7y0?></g></svg>