<svg xmlns="http://www.w3.org/2000/svg" xmlns:xlink="http://www.w3.org/1999/xlink" version="1.1" data-diagram-type="SEQUENCE" style="width:1028px;height:775px;background:#FFFFFF;" width="1028px" height="775px" viewBox="0 0 1028 775" zoomAndPan="magnify" preserveAspectRatio="none" contentStyleType="text/css"><?plantuml 1.2026.7beta8?><defs/><g font-family="sans-serif" lengthAdjust="spacing"><g class="title" data-source-line="1"><text x="245.541" y="27.995" fill="#000" font-size="14" textLength="534.946" font-weight="700">Diagrama de Secuencia - Abrir Alumnos (Vue 3 + Express + Prisma)</text></g><g><title>Usuario</title><rect x="36.102" y="125.891" width="8" height="559.523" fill="#000" fill-opacity="0"/><line x1="39.602" y1="125.891" x2="39.602" y2="685.414" style="stroke:#181818;stroke-width:0.5;stroke-dasharray:5,5;"/></g><g><title>Frontend</title><rect x="309.817" y="125.891" width="8" height="559.523" fill="#000" fill-opacity="0"/><line x1="313.317" y1="125.891" x2="313.317" y2="685.414" style="stroke:#181818;stroke-width:0.5;stroke-dasharray:5,5;"/></g><g><title></title><rect x="308.317" y="155.023" width="10" height="520.391" fill="#FFF" style="stroke:#181818;stroke-width:1;"/></g><g><title>AlumnoController</title><rect x="520.373" y="125.891" width="8" height="559.523" fill="#000" fill-opacity="0"/><line x1="523.873" y1="125.891" x2="523.873" y2="685.414" style="stroke:#181818;stroke-width:0.5;stroke-dasharray:5,5;"/></g><g><title></title><rect x="518.873" y="184.156" width="10" height="160.797" fill="#FFF" style="stroke:#181818;stroke-width:1;"/></g><g><title></title><rect x="518.873" y="478.617" width="10" height="145.664" fill="#FFF" style="stroke:#181818;stroke-width:1;"/></g><g><title>AlumnoService</title><rect x="682.208" y="125.891" width="8" height="559.523" fill="#000" fill-opacity="0"/><line x1="685.708" y1="125.891" x2="685.708" y2="685.414" style="stroke:#181818;stroke-width:0.5;stroke-dasharray:5,5;"/></g><g><title></title><rect x="680.708" y="213.289" width="10" height="102.531" fill="#FFF" style="stroke:#181818;stroke-width:1;"/></g><g><title></title><rect x="680.708" y="507.75" width="10" height="87.398" fill="#FFF" style="stroke:#181818;stroke-width:1;"/></g><g><title>Base de Datos</title><rect x="959.928" y="125.891" width="8" height="559.523" fill="#000" fill-opacity="0"/><line x1="963.428" y1="125.891" x2="963.428" y2="685.414" style="stroke:#181818;stroke-width:0.5;stroke-dasharray:5,5;"/></g><g><title></title><rect x="958.428" y="257.555" width="10" height="29.133" fill="#FFF" style="stroke:#181818;stroke-width:1;"/></g><g><title></title><rect x="958.428" y="536.883" width="10" height="29.133" fill="#FFF" style="stroke:#181818;stroke-width:1;"/></g><text x="10" y="122.589" fill="#000" font-size="14" textLength="53.204">Usuario</text><ellipse cx="39.602" cy="58.094" rx="8" ry="8" fill="#E2E2F0" style="stroke:#181818;stroke-width:0.5;"/><path d="M39.602,66.094 L39.602,93.094 M26.602,74.094 L52.602,74.094 M39.602,93.094 L26.602,108.094 M39.602,93.094 L52.602,108.094" style="stroke:#181818;stroke-width:0.5;" fill="none"/><rect x="274.762" y="78.297" width="77.109" height="46.594" fill="#E2E2F0" style="stroke:#181818;stroke-width:0.5;" rx="2.5" ry="2.5"/><text x="281.762" y="98.292" fill="#000" font-size="14" textLength="63.109">Frontend</text><text x="287.645" y="114.589" fill="#000" font-size="14" textLength="51.345">(Vue 3)</text><rect x="455.578" y="94.594" width="136.589" height="30.297" fill="#E2E2F0" style="stroke:#181818;stroke-width:0.5;" rx="2.5" ry="2.5"/><text x="462.578" y="114.589" fill="#000" font-size="14" textLength="122.589">AlumnoController</text><rect x="626.129" y="94.594" width="119.157" height="30.297" fill="#E2E2F0" style="stroke:#181818;stroke-width:0.5;" rx="2.5" ry="2.5"/><text x="633.129" y="114.589" fill="#000" font-size="14" textLength="105.157">AlumnoService</text><text x="909.829" y="106.292" fill="#000" font-size="14" textLength="101.199">Base de Datos</text><text x="914.59" y="122.589" fill="#000" font-size="14" textLength="91.677">(PostgreSQL)</text><path d="M945.428,57.297 C945.428,47.297 963.428,47.297 963.428,47.297 C963.428,47.297 981.428,47.297 981.428,57.297 L981.428,83.297 C981.428,93.297 963.428,93.297 963.428,93.297 C963.428,93.297 945.428,93.297 945.428,83.297 L945.428,57.297" style="stroke:#181818;stroke-width:0.5;" fill="#E2E2F0"/><path d="M945.428,57.297 C945.428,67.297 963.428,67.297 963.428,67.297 C963.428,67.297 981.428,67.297 981.428,57.297" style="stroke:#181818;stroke-width:0.5;" fill="none"/><text x="10" y="698.409" fill="#000" font-size="14" textLength="53.204">Usuario</text><ellipse cx="39.602" cy="710.211" rx="8" ry="8" fill="#E2E2F0" style="stroke:#181818;stroke-width:0.5;"/><path d="M39.602,718.211 L39.602,745.211 M26.602,726.211 L52.602,726.211 M39.602,745.211 L26.602,760.211 M39.602,745.211 L52.602,760.211" style="stroke:#181818;stroke-width:0.5;" fill="none"/><rect x="274.762" y="685.414" width="77.109" height="46.594" fill="#E2E2F0" style="stroke:#181818;stroke-width:0.5;" rx="2.5" ry="2.5"/><text x="281.762" y="705.409" fill="#000" font-size="14" textLength="63.109">Frontend</text><text x="287.645" y="721.706" fill="#000" font-size="14" textLength="51.345">(Vue 3)</text><rect x="455.578" y="685.414" width="136.589" height="30.297" fill="#E2E2F0" style="stroke:#181818;stroke-width:0.5;" rx="2.5" ry="2.5"/><text x="462.578" y="705.409" fill="#000" font-size="14" textLength="122.589">AlumnoController</text><rect x="626.129" y="685.414" width="119.157" height="30.297" fill="#E2E2F0" style="stroke:#181818;stroke-width:0.5;" rx="2.5" ry="2.5"/><text x="633.129" y="705.409" fill="#000" font-size="14" textLength="105.157">AlumnoService</text><text x="909.829" y="698.409" fill="#000" font-size="14" textLength="101.199">Base de Datos</text><text x="914.59" y="714.706" fill="#000" font-size="14" textLength="91.677">(PostgreSQL)</text><path d="M945.428,728.008 C945.428,718.008 963.428,718.008 963.428,718.008 C963.428,718.008 981.428,718.008 981.428,728.008 L981.428,754.008 C981.428,764.008 963.428,764.008 963.428,764.008 C963.428,764.008 945.428,764.008 945.428,754.008 L945.428,728.008" style="stroke:#181818;stroke-width:0.5;" fill="#E2E2F0"/><path d="M945.428,728.008 C945.428,738.008 963.428,738.008 963.428,738.008 C963.428,738.008 981.428,738.008 981.428,728.008" style="stroke:#181818;stroke-width:0.5;" fill="none"/><polygon points="296.317,151.023,306.317,155.023,296.317,159.023,300.317,155.023" fill="#181818" style="stroke:#181818;stroke-width:1;stroke-linejoin:miter;stroke-miterlimit:10;"/><line x1="39.602" y1="155.023" x2="302.317" y2="155.023" style="stroke:#181818;stroke-width:1;"/><text x="46.602" y="149.958" fill="#000" font-size="13" textLength="194.987">accede al módulo de alumnos</text><polygon points="506.873,180.156,516.873,184.156,506.873,188.156,510.873,184.156" fill="#181818" style="stroke:#181818;stroke-width:1;stroke-linejoin:miter;stroke-miterlimit:10;"/><line x1="318.317" y1="184.156" x2="512.873" y2="184.156" style="stroke:#181818;stroke-width:1;"/><text x="325.317" y="179.09" fill="#000" font-size="13" textLength="114.397">GET /api/alumnos</text><polygon points="668.708,209.289,678.708,213.289,668.708,217.289,672.708,213.289" fill="#181818" style="stroke:#181818;stroke-width:1;stroke-linejoin:miter;stroke-miterlimit:10;"/><line x1="528.873" y1="213.289" x2="674.708" y2="213.289" style="stroke:#181818;stroke-width:1;"/><text x="535.873" y="208.223" fill="#000" font-size="13" textLength="124.833">getAlumnos(filtros)</text><polygon points="946.428,253.555,956.428,257.555,946.428,261.555,950.428,257.555" fill="#181818" style="stroke:#181818;stroke-width:1;stroke-linejoin:miter;stroke-miterlimit:10;"/><line x1="690.708" y1="257.555" x2="952.428" y2="257.555" style="stroke:#181818;stroke-width:1;"/><text x="697.708" y="237.356" fill="#000" font-size="13" textLength="155.397">SELECT * FROM Alumno</text><text x="697.708" y="252.489" fill="#000" font-size="13" textLength="89.191">WHERE filtros</text><polygon points="701.708,282.688,691.708,286.688,701.708,290.688,697.708,286.688" fill="#181818" style="stroke:#181818;stroke-width:1;stroke-linejoin:miter;stroke-miterlimit:10;"/><line x1="695.708" y1="286.688" x2="957.428" y2="286.688" style="stroke:#181818;stroke-width:1;stroke-dasharray:2,2;"/><text x="707.708" y="281.622" fill="#000" font-size="13" textLength="127.835">alumnos : Alumno[]</text><polygon points="539.873,311.82,529.873,315.82,539.873,319.82,535.873,315.82" fill="#181818" style="stroke:#181818;stroke-width:1;stroke-linejoin:miter;stroke-miterlimit:10;"/><line x1="533.873" y1="315.82" x2="679.708" y2="315.82" style="stroke:#181818;stroke-width:1;stroke-dasharray:2,2;"/><text x="545.873" y="310.754" fill="#000" font-size="13" textLength="127.835">alumnos : Alumno[]</text><polygon points="329.317,340.953,319.317,344.953,329.317,348.953,325.317,344.953" fill="#181818" style="stroke:#181818;stroke-width:1;stroke-linejoin:miter;stroke-miterlimit:10;"/><line x1="323.317" y1="344.953" x2="517.873" y2="344.953" style="stroke:#181818;stroke-width:1;stroke-dasharray:2,2;"/><text x="335.317" y="339.887" fill="#000" font-size="13" textLength="132.088">200 OK { alumnos }</text><polygon points="50.602,385.219,40.602,389.219,50.602,393.219,46.602,389.219" fill="#181818" style="stroke:#181818;stroke-width:1;stroke-linejoin:miter;stroke-miterlimit:10;"/><line x1="44.602" y1="389.219" x2="307.317" y2="389.219" style="stroke:#181818;stroke-width:1;stroke-dasharray:2,2;"/><text x="56.602" y="369.02" fill="#000" font-size="13" textLength="165.236">muestra lista de alumnos</text><text x="56.602" y="384.153" fill="#000" font-size="13" textLength="244.715">(nombre, documento, correo, estado)</text><path d="M23.602,401.219 L93.053,401.219 L93.053,408.352 L83.053,418.352 L23.602,418.352 L23.602,401.219" style="stroke:#000;stroke-width:1.5;" fill="#EEE"/><rect x="23.602" y="401.219" width="960.826" height="260.195" fill="none" style="stroke:#000;stroke-width:1.5;"/><text x="38.602" y="414.286" fill="#000" font-size="13" textLength="24.451" font-weight="700">opt</text><text x="108.053" y="413.429" fill="#000" font-size="11" textLength="76.511" font-weight="700">[filtrar lista]</text><polygon points="296.317,445.484,306.317,449.484,296.317,453.484,300.317,449.484" fill="#181818" style="stroke:#181818;stroke-width:1;stroke-linejoin:miter;stroke-miterlimit:10;"/><line x1="39.602" y1="449.484" x2="302.317" y2="449.484" style="stroke:#181818;stroke-width:1;"/><text x="46.602" y="444.418" fill="#000" font-size="13" textLength="79.657">aplica filtros</text><polygon points="506.873,474.617,516.873,478.617,506.873,482.617,510.873,478.617" fill="#181818" style="stroke:#181818;stroke-width:1;stroke-linejoin:miter;stroke-miterlimit:10;"/><line x1="318.317" y1="478.617" x2="512.873" y2="478.617" style="stroke:#181818;stroke-width:1;"/><text x="325.317" y="473.551" fill="#000" font-size="13" textLength="181.556">GET /api/alumnos?filtros=...</text><polygon points="668.708,503.75,678.708,507.75,668.708,511.75,672.708,507.75" fill="#181818" style="stroke:#181818;stroke-width:1;stroke-linejoin:miter;stroke-miterlimit:10;"/><line x1="528.873" y1="507.75" x2="674.708" y2="507.75" style="stroke:#181818;stroke-width:1;"/><text x="535.873" y="502.684" fill="#000" font-size="13" textLength="124.833">getAlumnos(filtros)</text><polygon points="946.428,532.883,956.428,536.883,946.428,540.883,950.428,536.883" fill="#181818" style="stroke:#181818;stroke-width:1;stroke-linejoin:miter;stroke-miterlimit:10;"/><line x1="690.708" y1="536.883" x2="952.428" y2="536.883" style="stroke:#181818;stroke-width:1;"/><text x="697.708" y="531.817" fill="#000" font-size="13" textLength="248.72">SELECT * FROM Alumno WHERE filtros</text><polygon points="701.708,562.016,691.708,566.016,701.708,570.016,697.708,566.016" fill="#181818" style="stroke:#181818;stroke-width:1;stroke-linejoin:miter;stroke-miterlimit:10;"/><line x1="695.708" y1="566.016" x2="957.428" y2="566.016" style="stroke:#181818;stroke-width:1;stroke-dasharray:2,2;"/><text x="707.708" y="560.95" fill="#000" font-size="13" textLength="127.835">alumnos : Alumno[]</text><polygon points="539.873,591.148,529.873,595.148,539.873,599.148,535.873,595.148" fill="#181818" style="stroke:#181818;stroke-width:1;stroke-linejoin:miter;stroke-miterlimit:10;"/><line x1="533.873" y1="595.148" x2="679.708" y2="595.148" style="stroke:#181818;stroke-width:1;stroke-dasharray:2,2;"/><text x="545.873" y="590.083" fill="#000" font-size="13" textLength="127.835">alumnos : Alumno[]</text><polygon points="329.317,620.281,319.317,624.281,329.317,628.281,325.317,624.281" fill="#181818" style="stroke:#181818;stroke-width:1;stroke-linejoin:miter;stroke-miterlimit:10;"/><line x1="323.317" y1="624.281" x2="517.873" y2="624.281" style="stroke:#181818;stroke-width:1;stroke-dasharray:2,2;"/><text x="335.317" y="619.215" fill="#000" font-size="13" textLength="132.088">200 OK { alumnos }</text><polygon points="50.602,649.414,40.602,653.414,50.602,657.414,46.602,653.414" fill="#181818" style="stroke:#181818;stroke-width:1;stroke-linejoin:miter;stroke-miterlimit:10;"/><line x1="44.602" y1="653.414" x2="307.317" y2="653.414" style="stroke:#181818;stroke-width:1;stroke-dasharray:2,2;"/><text x="56.602" y="648.348" fill="#000" font-size="13" textLength="135.833">muestra lista filtrada</text><?plantuml-src bLFBRjH04BpFLvJsb8Ni9e9R943Ph0CIGGdPG0uaXzvninh9zbWpumW9yLLy0Zz6nyyn2P5piSTsLtLNTJcOa37MXdQESaBAsB2kkD26iC3nrXc7uwpA2-knzxLYlCPB93zAnzxBwS8PdzDSATB1Eio--8gSiJEGHtjM9RbWj2cf29YTEbi4BjARec6RrwNTst5jq_T4FZcRPUpgqk7niU8DkpkZkQvipogbG5loZDdg_YeIrnIibmakh0yxnvlFPyqOwvLIxTHOlEsdmX58QnOWPSZ__4whpA9-gdsvrsxkAF0WG_LGeHac5gBtoHKEg3G73y2HC1L1XA0L8kWTXtOPUzzD9YL-FX1qUbLNBz3rIb2Rv2mvkS8Bd5wUVsgtULDSVqWk4xGq0uju8A35g6qxgvmQyBTRbNAC65h-g_TfQ3zoB7Zi_Al3Gvn_nC-UwLTC49isU2uCtHgFa5ViWoDanWUArYRxBso-TRoFrEegvoBOVMZh7CjTC9HQ2ROjGsCIkOP20V_9I9aPJRsZmEGGl6inRvRBfU0UKmSy9nCHHsSnC2KM6ASYuf4j0rEI0Oop4JMU48uHUfZzMVaOSOmyd1IHPjifgVfFZgWwz5y0?></g></svg>