<svg xmlns="http://www.w3.org/2000/svg" xmlns:xlink="http://www.w3.org/1999/xlink" contentStyleType="text/css" data-diagram-type="DESCRIPTION" height="435px" preserveAspectRatio="none" style="width:1256px;height:435px;background:#FFFFFF;" version="1.1" viewBox="0 0 1256 435" width="1256px" zoomAndPan="magnify"><?plantuml 1.2026.5?><defs/><g><!--cluster registrarTomaAsistencia--><g class="cluster" data-qualified-name="registrarTomaAsistencia" data-source-line="7" id="ent0004"><path d="M8.5,106.3 L216,106.3 A3.75,3.75 0 0 1 218.5,108.8 L225.5,128.5969 L642.5,128.5969 A2.5,2.5 0 0 1 645,131.0969 L645,417.69 A2.5,2.5 0 0 1 642.5,420.19 L8.5,420.19 A2.5,2.5 0 0 1 6,417.69 L6,108.8 A2.5,2.5 0 0 1 8.5,106.3" fill="none" style="stroke:#000000;stroke-width:1.5;"/><line style="stroke:#000000;stroke-width:1.5;" x1="6" x2="225.5" y1="128.5969" y2="128.5969"/><text fill="#000000" font-family="sans-serif" font-size="14" font-weight="700" lengthAdjust="spacing" textLength="206.5" x="10" y="121.2951">registrarTomaAsistencia()</text></g><!--entity RegistrarAsistenciaView--><g class="entity" data-qualified-name="registrarTomaAsistencia.RegistrarAsistenciaView" data-source-line="8" id="ent0005"><rect fill="#629EF9" height="36.2969" rx="2.5" ry="2.5" style="stroke:#181818;stroke-width:0.5;" width="188.7178" x="440.64" y="141.3"/><text fill="#000000" font-family="sans-serif" font-size="14" lengthAdjust="spacing" textLength="168.7178" x="450.64" y="164.2951">RegistrarAsistenciaView</text></g><!--entity AsistenciaController--><g class="entity" data-qualified-name="registrarTomaAsistencia.AsistenciaController" data-source-line="9" id="ent0006"><rect fill="#B5BD68" height="36.2969" rx="2.5" ry="2.5" style="stroke:#181818;stroke-width:0.5;" width="160.3691" x="262.82" y="254.6"/><text fill="#000000" font-family="sans-serif" font-size="14" lengthAdjust="spacing" textLength="140.3691" x="272.82" y="277.5951">AsistenciaController</text></g><!--entity AsistenciaRepository--><g class="entity" data-qualified-name="registrarTomaAsistencia.AsistenciaRepository" data-source-line="10" id="ent0007"><rect fill="#F2AC4E" height="36.2969" rx="2.5" ry="2.5" style="stroke:#181818;stroke-width:0.5;" width="166.2686" x="21.87" y="367.89"/><text fill="#000000" font-family="sans-serif" font-size="14" lengthAdjust="spacing" textLength="146.2686" x="31.87" y="390.8851">AsistenciaRepository</text></g><!--entity AlumnoRepository--><g class="entity" data-qualified-name="registrarTomaAsistencia.AlumnoRepository" data-source-line="11" id="ent0008"><rect fill="#F2AC4E" height="36.2969" rx="2.5" ry="2.5" style="stroke:#181818;stroke-width:0.5;" width="148.4883" x="283.76" y="367.89"/><text fill="#000000" font-family="sans-serif" font-size="14" lengthAdjust="spacing" textLength="128.4883" x="293.76" y="390.8851">AlumnoRepository</text></g><!--entity SesionActiva--><g class="entity" data-qualified-name="SesionActiva" data-source-line="3" id="ent0001"><rect fill="#CDEBA5" height="36.2969" rx="2.5" ry="2.5" style="stroke:#181818;stroke-width:0.5;" width="187.0293" x="441.49" y="7"/><text fill="#000000" font-family="sans-serif" font-size="14" lengthAdjust="spacing" textLength="167.0293" x="451.49" y="29.9951">:SESION_CLASE_ACTIVA</text></g><!--entity TomaConcluida--><g class="entity" data-qualified-name="TomaConcluida" data-source-line="4" id="ent0002"><rect fill="#CDEBA5" height="36.2969" rx="2.5" ry="2.5" style="stroke:#181818;stroke-width:0.5;" width="246.3516" x="660.82" y="254.6"/><text fill="#000000" font-family="sans-serif" font-size="14" lengthAdjust="spacing" textLength="226.3516" x="670.82" y="277.5951">:TOMA_ASISTENCIA_CONCLUIDA</text></g><!--entity CompletarGestion--><g class="entity" data-qualified-name="CompletarGestion" data-source-line="5" id="ent0003"><rect fill="#CDEBA5" height="36.2969" rx="2.5" ry="2.5" style="stroke:#181818;stroke-width:0.5;" width="249.2363" x="942.38" y="254.6"/><text fill="#000000" font-family="sans-serif" font-size="14" lengthAdjust="spacing" textLength="229.2363" x="952.38" y="277.5951">:Collaboration CompletarGestion</text></g><!--link SesionActiva to RegistrarAsistenciaView--><g class="link" data-entity-1="ent0001" data-entity-2="ent0005" data-link-type="dependency" data-source-line="14" id="lnk9"><path d="M535,43.72 C535,69.02 535,110.46 535,135.81" fill="none" id="SesionActiva-to-RegistrarAsistenciaView" style="stroke:#181818;stroke-width:1;"/><polygon fill="#181818" points="535,140.81,539,131.81,535,135.81,531,131.81,535,140.81" style="stroke:#181818;stroke-width:1;stroke-linejoin:miter;stroke-miterlimit:10;"/><text fill="#000000" font-family="sans-serif" font-size="13" lengthAdjust="spacing" textLength="168.5112" x="536" y="86.3669">registrarTomaAsistencia()</text></g><!--link RegistrarAsistenciaView to AsistenciaController--><g class="link" data-entity-1="ent0005" data-entity-2="ent0006" data-link-type="dependency" data-source-line="16" id="lnk10"><path d="M504.58,178.08 C468.63,198.92 413.496,230.8829 377.606,251.6829" fill="none" id="RegistrarAsistenciaView-to-AsistenciaController" style="stroke:#181818;stroke-width:1;"/><polygon fill="#181818" points="373.28,254.19,383.0725,253.138,377.606,251.6829,379.0611,246.2164,373.28,254.19" style="stroke:#181818;stroke-width:1;stroke-linejoin:miter;stroke-miterlimit:10;"/><text fill="#000000" font-family="sans-serif" font-size="13" lengthAdjust="spacing" textLength="284.356" x="452" y="220.6669">procesarListadoPresentes(alumnosEstados)</text></g><!--link AsistenciaController to AlumnoRepository--><g class="link" data-entity-1="ent0006" data-entity-2="ent0008" data-link-type="dependency" data-source-line="17" id="lnk11"><path d="M345.34,291.13 C348.15,311.92 352.1437,341.5546 354.9537,362.4546" fill="none" id="AsistenciaController-to-AlumnoRepository" style="stroke:#181818;stroke-width:1;"/><polygon fill="#181818" points="355.62,367.41,358.3851,357.9573,354.9537,362.4546,350.4564,359.0233,355.62,367.41" style="stroke:#181818;stroke-width:1;stroke-linejoin:miter;stroke-miterlimit:10;"/><text fill="#000000" font-family="sans-serif" font-size="13" lengthAdjust="spacing" textLength="269.7437" x="353" y="333.9569">verificarInscripcionesValidas(alumnosIds)</text></g><!--link AsistenciaController to AsistenciaRepository--><g class="link" data-entity-1="ent0006" data-entity-2="ent0007" data-link-type="dependency" data-source-line="18" id="lnk12"><path d="M262.61,288.21 C185.59,302.07 81,320.89 81,320.89 C81,320.89 81,337.89 81,337.89 C81,337.89 86.9734,349.6233 93.7934,363.0333" fill="none" id="AsistenciaController-to-AsistenciaRepository" style="stroke:#181818;stroke-width:1;"/><polygon fill="#181818" points="96.06,367.49,95.5455,357.6546,93.7934,363.0333,88.4147,361.2811,96.06,367.49" style="stroke:#181818;stroke-width:1;stroke-linejoin:miter;stroke-miterlimit:10;"/><text fill="#000000" font-family="sans-serif" font-size="13" lengthAdjust="spacing" textLength="259.7334" x="82" y="333.9569">registrarMarquesAsistencia(asistencias)</text></g><!--link RegistrarAsistenciaView to TomaConcluida--><g class="link" data-entity-1="ent0005" data-entity-2="ent0002" data-link-type="dependency" data-source-line="20" id="lnk13"><path d="M613.49,178.07 C673.14,191.46 745,207.6 745,207.6 C745,207.6 759.2044,230.9465 770.7444,249.9465" fill="none" id="RegistrarAsistenciaView-to-TomaConcluida" style="stroke:#181818;stroke-width:1;stroke-dasharray:7,7;"/><polygon fill="#181818" points="773.34,254.22,772.0867,244.4512,770.7444,249.9465,765.2491,248.6042,773.34,254.22" style="stroke:#181818;stroke-width:1;stroke-linejoin:miter;stroke-miterlimit:10;"/><text fill="#000000" font-family="sans-serif" font-size="13" lengthAdjust="spacing" textLength="109.6367" x="755" y="220.6669">&#171;include&#187; [&#233;xito]</text></g><!--link RegistrarAsistenciaView to CompletarGestion--><g class="link" data-entity-1="ent0005" data-entity-2="ent0003" data-link-type="dependency" data-source-line="21" id="lnk14"><path d="M629.6,173.64 C729.59,187.59 873,207.6 873,207.6 C873,207.6 951.5528,233.5703 1008.9828,252.5603" fill="none" id="RegistrarAsistenciaView-to-CompletarGestion" style="stroke:#181818;stroke-width:1;stroke-dasharray:7,7;"/><polygon fill="#181818" points="1013.73,254.13,1006.4408,247.5067,1008.9828,252.5603,1003.9292,255.1023,1013.73,254.13" style="stroke:#181818;stroke-width:1;stroke-linejoin:miter;stroke-miterlimit:10;"/><text fill="#000000" font-family="sans-serif" font-size="13" lengthAdjust="spacing" textLength="320.7344" x="920" y="220.6669">&#171;include&#187; completarGestion() [cancelaci&#243;n/error]</text></g><?plantuml-src VLB1Rjim3BthAuZiaXpI0SLQh4OHG5FTmK2Q37MMIr44ZCm5GXN9evnkmT0FsdcVq1-Rd66jQzZHYIBVU-IJ61wCAv5n2zOuglObGUdjlhu8mQGhT1jBy4vTfP_a6GoIFCsp-MobfZ9FLr8jigKS00R8AHZlfAxC8tOI5_CRkP9vbY_IcShaIirdQlerk_f7N_WjAk-qtPcYcw-yjRZsZ5Ni0yflIqiLycSATU8WqauAKQ9-m0q1qyQ4Yf7hFZB4c9msM9C6FRNXQ02_1CJJcERyz2Azle3R_vHN-DBGZpPwVROkpZ_2AoWwh3Zw86v3hq-b-f0seBTK-c0gp_i-gDrjdM_0deHeVWACnvE-GHFeDIr43mV6HHJiyf90oLvJG9x68XR-2rCWLr4Ouc78a1xIOIIww8T1ssuIU2Gstun6pbpGR4eTdL5OeeqByYAS5KT5ErwpOVq6-VkEGiCzleJXo4ESd4pUxci2bvUcZWkQJE3k-VVFsEh-AB-zgcybTAiw7C6THgV9eZRFVznxOlPy_nS0?></g></svg>