<?plantuml 1.2026.1beta5?><svg xmlns="http://www.w3.org/2000/svg" xmlns:xlink="http://www.w3.org/1999/xlink" contentStyleType="text/css" data-diagram-type="STATE" height="673px" preserveAspectRatio="none" style="width:906px;height:673px;background:#FFFFFF;" version="1.1" viewBox="0 0 906 673" width="906px" zoomAndPan="magnify"><title>Consultar Solicitud de Dispensa (Perspectiva RUP Final)</title><defs/><g><g class="title" data-source-line="1"><text fill="#000000" font-family="sans-serif" font-size="14" font-weight="bold" lengthAdjust="spacing" textLength="442.5107" x="224.8041" y="22.9951">Consultar Solicitud de Dispensa (Perspectiva RUP Final)</text></g><rect fill="#FFFFFF" height="40" rx="12.5" ry="12.5" style="stroke:#000000;stroke-width:0.5;" width="157.3623" x="404.09" y="123.4369"/><text fill="#000000" font-family="sans-serif" font-size="14" lengthAdjust="spacing" textLength="147.3623" x="409.09" y="148.2836">DISPENSAS_ABIERTO</text><rect fill="#FFFFFF" height="40" rx="12.5" ry="12.5" style="stroke:#000000;stroke-width:0.5;" width="157.3623" x="404.09" y="523.0969"/><text fill="#000000" font-family="sans-serif" font-size="14" lengthAdjust="spacing" textLength="147.3623" x="409.09" y="547.9436">DISPENSAS_ABIERTO</text><path d="M200.93,223.5669 L764.612,223.5669 A12.5,12.5 0 0 1 777.112,236.0669 L777.112,249.8637 L188.43,249.8637 L188.43,236.0669 A12.5,12.5 0 0 1 200.93,223.5669" fill="#FFFFFF"/><rect fill="none" height="216.6969" rx="12.5" ry="12.5" style="stroke:#000000;stroke-width:0.5;" width="588.682" x="188.43" y="223.5669"/><line style="stroke:#000000;stroke-width:0.5;" x1="188.43" x2="777.112" y1="249.8637" y2="249.8637"/><text fill="#000000" font-family="sans-serif" font-size="14" lengthAdjust="spacing" textLength="219.3516" x="373.0952" y="241.562">SOLICITUD_DISPENSA_ABIERTA</text><rect fill="#FFFFFF" height="40" rx="12.5" ry="12.5" style="stroke:#000000;stroke-width:0.5;" width="168.7783" x="200.43" y="324.5637"/><text fill="#000000" font-family="sans-serif" font-size="14" lengthAdjust="spacing" textLength="158.7783" x="205.43" y="349.4104">Visualizaci&#243;n y Edici&#243;n</text><ellipse cx="284.82" cy="270.8638" fill="#222222" rx="10" ry="10" style="stroke:#222222;stroke-width:1;"/><ellipse cx="284.82" cy="419.2637" fill="none" rx="11" ry="11" style="stroke:#222222;stroke-width:1;"/><ellipse cx="284.82" cy="419.2637" fill="#222222" rx="6" ry="6" style="stroke:#222222;stroke-width:1;"/><g class="entity" data-qualified-name="SOLICITUD_DISPENSA_ABIERTA.GMN5" data-source-line="34" id="ent0006"><path d="M387.53,316.8638 L387.53,341.2637 L369.57,345.2637 L387.53,349.2637 L387.53,372.2622 A0,0 0 0 0 387.53,372.2622 L768.112,372.2622 A0,0 0 0 0 768.112,372.2622 L768.112,326.8638 L758.112,316.8638 L387.53,316.8638 A0,0 0 0 0 387.53,316.8638" fill="#FFFFE0" style="stroke:#000000;stroke-width:0.5;"/><path d="M758.112,316.8638 L758.112,326.8638 L768.112,326.8638 L758.112,316.8638" fill="#FFFFE0" style="stroke:#000000;stroke-width:0.5;"/><text fill="#000000" font-family="sans-serif" font-size="13" lengthAdjust="spacing" textLength="52.3618" x="393.53" y="333.9306">Sistema</text><text fill="#000000" font-family="sans-serif" font-size="13" font-weight="bold" lengthAdjust="spacing" textLength="57.5669" x="450.0241" y="333.9306">permite</text><text fill="#000000" font-family="sans-serif" font-size="13" lengthAdjust="spacing" textLength="128.4194" x="511.7234" y="333.9306">visualizar los datos.</text><text fill="#000000" font-family="sans-serif" font-size="13" lengthAdjust="spacing" textLength="116.6128" x="393.53" y="349.0635">Director de Grado</text><text fill="#000000" font-family="sans-serif" font-size="13" font-weight="bold" lengthAdjust="spacing" textLength="52.73" x="514.2751" y="349.0635">solicita</text><text fill="#000000" font-family="sans-serif" font-size="13" lengthAdjust="spacing" textLength="181.9746" x="571.1374" y="349.0635">modificar campos mediante</text><text fill="#000000" font-family="sans-serif" font-size="13" lengthAdjust="spacing" textLength="167.9463" x="393.53" y="364.1963">editarSolicitudDispensa().</text></g><!--link *start*SOLICITUD_DISPENSA_ABIERTA to VisualizacionYEdicion--><g class="link" data-entity-1="ent0005" data-entity-2="ent0005" data-link-type="dependency" data-source-line="30" id="lnk6"><path d="M284.82,281.1138 C284.82,292.1838 284.82,304.1238 284.82,318.1038" fill="none" id="*start*SOLICITUD_DISPENSA_ABIERTA-to-VisualizacionYEdicion" style="stroke:#008000;stroke-width:1;"/><polygon fill="#008000" points="284.82,324.1038,288.82,315.1038,284.82,319.1038,280.82,315.1038,284.82,324.1038" style="stroke:#008000;stroke-width:1;"/></g><!--link VisualizacionYEdicion to *end*SOLICITUD_DISPENSA_ABIERTA--><g class="link" data-entity-1="ent0005" data-entity-2="ent0007" data-link-type="dependency" data-source-line="39" id="lnk8"><path d="M284.82,364.9738 C284.82,378.8038 284.82,390.5538 284.82,401.9138" fill="none" id="VisualizacionYEdicion-to-*end*SOLICITUD_DISPENSA_ABIERTA" style="stroke:#008000;stroke-width:1;"/><polygon fill="#008000" points="284.82,407.9138,288.82,398.9138,284.82,402.9138,280.82,398.9138,284.82,407.9138" style="stroke:#008000;stroke-width:1;"/></g><ellipse cx="482.77" cy="53.2969" fill="#222222" rx="10" ry="10" style="stroke:#222222;stroke-width:1;"/><ellipse cx="482.77" cy="656.9269" fill="none" rx="11" ry="11" style="stroke:#222222;stroke-width:1;"/><ellipse cx="482.77" cy="656.9269" fill="#222222" rx="6" ry="6" style="stroke:#222222;stroke-width:1;"/><g class="entity" data-qualified-name="GMN2" data-source-line="20" id="ent0003"><path d="M6,123.2969 L6,163.5625 A0,0 0 0 0 6,163.5625 L369.5386,163.5625 A0,0 0 0 0 369.5386,163.5625 L369.5386,147.9269 L403.85,143.9269 L369.5386,139.9269 L369.5386,133.2969 L359.5386,123.2969 L6,123.2969 A0,0 0 0 0 6,123.2969" fill="#FFFFE0" style="stroke:#000000;stroke-width:0.5;"/><path d="M359.5386,123.2969 L359.5386,133.2969 L369.5386,133.2969 L359.5386,123.2969" fill="#FFFFE0" style="stroke:#000000;stroke-width:0.5;"/><text fill="#000000" font-family="sans-serif" font-size="13" lengthAdjust="spacing" textLength="116.6128" x="12" y="140.3638">Director de Grado</text><text fill="#000000" font-family="sans-serif" font-size="13" font-weight="bold" lengthAdjust="spacing" textLength="52.73" x="132.7451" y="140.3638">solicita</text><text fill="#000000" font-family="sans-serif" font-size="13" lengthAdjust="spacing" textLength="164.9312" x="189.6074" y="140.3638">seleccionar una solicitud.</text><text fill="#000000" font-family="sans-serif" font-size="13" lengthAdjust="spacing" textLength="52.3618" x="12" y="155.4966">Sistema</text><text fill="#000000" font-family="sans-serif" font-size="13" font-weight="bold" lengthAdjust="spacing" textLength="57.5669" x="68.4941" y="155.4966">permite</text><text fill="#000000" font-family="sans-serif" font-size="13" lengthAdjust="spacing" textLength="182.9648" x="130.1934" y="155.4966">abrir el detalle de la misma.</text></g><g class="entity" data-qualified-name="GMN8" data-source-line="44" id="ent0009"><path d="M52.28,500.2669 L52.28,585.9309 A0,0 0 0 0 52.28,585.9309 L369.2522,585.9309 A0,0 0 0 0 369.2522,585.9309 L369.2522,547.9269 L403.64,543.9269 L369.2522,539.9269 L369.2522,510.2669 L359.2522,500.2669 L52.28,500.2669 A0,0 0 0 0 52.28,500.2669" fill="#FFFFE0" style="stroke:#000000;stroke-width:0.5;"/><path d="M359.2522,500.2669 L359.2522,510.2669 L369.2522,510.2669 L359.2522,500.2669" fill="#FFFFE0" style="stroke:#000000;stroke-width:0.5;"/><text fill="#000000" font-family="sans-serif" font-size="13" lengthAdjust="spacing" textLength="69.8306" x="58.28" y="517.3338">GUARDAR:</text><text fill="#000000" font-family="sans-serif" font-size="13" lengthAdjust="spacing" textLength="116.6128" x="58.28" y="532.4666">Director de Grado</text><text fill="#000000" font-family="sans-serif" font-size="13" font-weight="bold" lengthAdjust="spacing" textLength="52.73" x="179.0251" y="532.4666">solicita</text><text fill="#000000" font-family="sans-serif" font-size="13" lengthAdjust="spacing" textLength="118.3647" x="235.8874" y="532.4666">registrar cambios.</text><text fill="#000000" font-family="sans-serif" font-size="13" lengthAdjust="spacing" textLength="52.3618" x="58.28" y="547.5994">Sistema</text><text fill="#000000" font-family="sans-serif" font-size="13" font-weight="bold" lengthAdjust="spacing" textLength="57.5669" x="114.7741" y="547.5994">permite</text><text fill="#000000" font-family="sans-serif" font-size="13" lengthAdjust="spacing" textLength="154.0894" x="176.4734" y="547.5994">persistir la informaci&#243;n.</text><text fill="#000000" font-family="sans-serif" font-size="13" lengthAdjust="spacing" textLength="4.1323" x="58.28" y="562.7322">&#160;</text><text fill="#000000" font-family="sans-serif" font-size="13" lengthAdjust="spacing" textLength="176.9092" x="58.28" y="577.865">guardarSolicitudDispensa()</text></g><g class="entity" data-qualified-name="GMN11" data-source-line="53" id="ent0012"><path d="M596.41,500.2669 L596.41,539.9269 L561.92,543.9269 L596.41,547.9269 L596.41,585.9309 A0,0 0 0 0 596.41,585.9309 L899.119,585.9309 A0,0 0 0 0 899.119,585.9309 L899.119,510.2669 L889.119,500.2669 L596.41,500.2669 A0,0 0 0 0 596.41,500.2669" fill="#FFFFE0" style="stroke:#000000;stroke-width:0.5;"/><path d="M889.119,500.2669 L889.119,510.2669 L899.119,510.2669 L889.119,500.2669" fill="#FFFFE0" style="stroke:#000000;stroke-width:0.5;"/><text fill="#000000" font-family="sans-serif" font-size="13" lengthAdjust="spacing" textLength="57.6621" x="602.41" y="517.3338">CERRAR:</text><text fill="#000000" font-family="sans-serif" font-size="13" lengthAdjust="spacing" textLength="116.6128" x="602.41" y="532.4666">Director de Grado</text><text fill="#000000" font-family="sans-serif" font-size="13" font-weight="bold" lengthAdjust="spacing" textLength="52.73" x="723.1551" y="532.4666">solicita</text><text fill="#000000" font-family="sans-serif" font-size="13" lengthAdjust="spacing" textLength="104.1016" x="780.0174" y="532.4666">salir del detalle.</text><text fill="#000000" font-family="sans-serif" font-size="13" lengthAdjust="spacing" textLength="52.3618" x="602.41" y="547.5994">Sistema</text><text fill="#000000" font-family="sans-serif" font-size="13" font-weight="bold" lengthAdjust="spacing" textLength="57.5669" x="658.9041" y="547.5994">permite</text><text fill="#000000" font-family="sans-serif" font-size="13" lengthAdjust="spacing" textLength="124.522" x="720.6034" y="547.5994">descartar cambios.</text><text fill="#000000" font-family="sans-serif" font-size="13" lengthAdjust="spacing" textLength="4.1323" x="602.41" y="562.7322">&#160;</text><text fill="#000000" font-family="sans-serif" font-size="13" lengthAdjust="spacing" textLength="164.6899" x="602.41" y="577.865">cerrarSolicitudDispensa()</text></g><!--link *start* to startState--><g class="link" data-entity-1="ent0002" data-entity-2="ent0002" data-link-type="dependency" data-source-line="17" id="lnk3"><path d="M482.77,63.6369 C482.77,78.0669 482.77,98.5369 482.77,117.0269" fill="none" id="*start*-to-startState" style="stroke:#008000;stroke-width:1;"/><polygon fill="#008000" points="482.77,123.0269,486.77,114.0269,482.77,118.0269,478.77,114.0269,482.77,123.0269" style="stroke:#008000;stroke-width:1;"/></g><!--link startState to SOLICITUD_DISPENSA_ABIERTA--><g class="link" data-entity-1="ent0002" data-entity-2="ent0004" data-link-type="dependency" data-source-line="24" id="lnk4"><path d="M482.77,163.6069 C482.77,178.6069 482.77,194.3769 482.77,217.3169" fill="none" id="startState-to-SOLICITUD_DISPENSA_ABIERTA" style="stroke:#008000;stroke-width:1;"/><polygon fill="#008000" points="482.77,223.3169,486.77,214.3169,482.77,218.3169,478.77,214.3169,482.77,223.3169" style="stroke:#008000;stroke-width:1;"/><path d="M487.77,163.4569 L487.77,188.4569 L693.77,188.4569 L693.77,173.4569 L683.77,163.4569 L487.77,163.4569" fill="#FFFFE0" style="stroke:#000000;stroke-width:0.5;"/><path d="M683.77,163.4569 L683.77,173.4569 L693.77,173.4569 L683.77,163.4569" fill="#FFFFE0" style="stroke:#000000;stroke-width:0.5;"/><text fill="#000000" font-family="sans-serif" font-size="13" lengthAdjust="spacing" textLength="185.9165" x="493.77" y="180.5238">consultarSolicitudDispensa()</text></g><!--link SOLICITUD_DISPENSA_ABIERTA to endState--><g class="link" data-entity-1="ent0004" data-entity-2="ent0003" data-link-type="dependency" data-source-line="42" id="lnk9"><path d="M456.54,440.5969 C456.54,472.1269 456.54,497.2969 456.54,516.8269" fill="none" id="SOLICITUD_DISPENSA_ABIERTA-to-endState" style="stroke:#008000;stroke-width:1;"/><polygon fill="#008000" points="456.54,522.8269,460.54,513.8269,456.54,517.8269,452.54,513.8269,456.54,522.8269" style="stroke:#008000;stroke-width:1;"/></g><!--link SOLICITUD_DISPENSA_ABIERTA to endState--><g class="link" data-entity-1="ent0004" data-entity-2="ent0003" data-link-type="dependency" data-source-line="51" id="lnk10"><path d="M509,440.5969 C509,472.1269 509,497.2969 509,516.8269" fill="none" id="SOLICITUD_DISPENSA_ABIERTA-to-endState-1" style="stroke:#FF0000;stroke-width:1;"/><polygon fill="#FF0000" points="509,522.8269,513,513.8269,509,517.8269,505,513.8269,509,522.8269" style="stroke:#FF0000;stroke-width:1;"/></g><!--link endState to *end*--><g class="link" data-entity-1="ent0003" data-entity-2="ent0011" data-link-type="dependency" data-source-line="60" id="lnk12"><path d="M482.77,563.4469 C482.77,587.4869 482.77,620.6369 482.77,639.7369" fill="none" id="endState-to-*end*" style="stroke:#008000;stroke-width:1;"/><polygon fill="#008000" points="482.77,645.7369,486.77,636.7369,482.77,640.7369,478.77,636.7369,482.77,645.7369" style="stroke:#008000;stroke-width:1;"/></g><?plantuml-src ZLJTRjem5BxFKnnrD-saili98L5W5TBK8cWdJLLLcVW0HtNiwDW1iMbFjKVOY-qu8IbGVfeBS7n-xE_d950m23rdVM62OfWuGoc5GeD6w9FFqNe5boDaMQQ1bWh6ZoFuHbQPgoJnhsHpnIg3tmd8Cmagu8rAN-Vi2gjxpZY6rO82ReKTQ-GgD3MIMuRktFj2G_D5MACnRlMMSx2wo-nMrUQS4MsvQSXYMES8ZiF29N-IP4622hCyh0MUJvdoGCuAZ7WlkEWF9wF1tQGxUUdU30VZX_iBK1uaoA6yERJRNXl656c9dSxfChJwO57ozFaPhfy-bVTylkvizKyIAmZ1u2o0csq78fm-IPCW20N3BIlje3tj-4elrVuobKveC4q5aGXPM0M-5hDLiKy-OAPYMOwSYIXbbPeoCQ2Hla4PSOFqDmeoyfbg9G83ugrAaceUjgy_kVy-x0qV7lilDGyR6heL6cUZ49LCQUspncQrnIwlTa-ImkEDDsRR9_87-K8P-gKY1Jy7ck9_cLd-RDJQolhtry8QoaHPbgeTxB4lOUnMOkDeq2ZLyQDF4B-iYyJfpeDMmVbMKtHUxinfcb4gvQdASkcGeIPbDtQ9ZxmV9hiwfc6yuUWm_6sIXVGuIIV4QRArMrcfg0TXrzpDRZpszh4xxdV7Np_eSyQvCCeLy2dLh1sXMTPU8k9nSJNPcUEiqhxrXdjUADRdR7aQCwC-ZBWnoGxatc0y_ZXYBwB4S3Ea9n77RvlCwZu_rGWYypcWpQThJ_Z_?></g></svg>