<?xml version="1.0" encoding="us-ascii" standalone="no"?><svg xmlns="http://www.w3.org/2000/svg" xmlns:xlink="http://www.w3.org/1999/xlink" contentStyleType="text/css" height="281px" preserveAspectRatio="none" style="width:252px;height:281px;background:#FFFFFF;" version="1.1" viewBox="0 0 252 281" width="252px" zoomAndPan="magnify"><defs/><g><text fill="#000000" font-family="sans-serif" font-size="14" font-weight="bold" lengthAdjust="spacing" textLength="207" x="15.5" y="24.5332">Diagrama de Estados: Alumno</text><ellipse cx="50" cy="54.6094" fill="#222222" rx="10" ry="10" style="stroke:#222222;stroke-width:1.0;"/><g id="Disponible"><rect fill="#F1F1F1" height="50" rx="12.5" ry="12.5" style="stroke:#181818;stroke-width:0.5;" width="86" x="7" y="142.6094"/><line style="stroke:#181818;stroke-width:0.5;" x1="7" x2="93" y1="170.2188" y2="170.2188"/><text fill="#000000" font-family="sans-serif" font-size="14" lengthAdjust="spacing" textLength="66" x="17" y="162.1426">Disponible</text></g><ellipse cx="50" cy="264.6094" fill="none" rx="11" ry="11" style="stroke:#222222;stroke-width:1.0;"/><ellipse cx="50" cy="264.6094" fill="#222222" rx="6" ry="6" style="stroke:#222222;stroke-width:1.0;"/><!--link *start* to Disponible--><g id="link_*start*_Disponible"><path d="M50,64.6894 C50,81.4694 50,111.8294 50,136.2594 " fill="none" id="*start*-to-Disponible" style="stroke:#181818;stroke-width:1.0;"/><polygon fill="#181818" points="50,142.2594,54,133.2594,50,137.2594,46,133.2594,50,142.2594" style="stroke:#181818;stroke-width:1.0;"/><text fill="#000000" font-family="sans-serif" font-size="13" lengthAdjust="spacing" textLength="106" x="51" y="109.1045">importarAlumnos()</text></g><!--link Disponible to Disponible--><g id="link_Disponible_Disponible"><path d="M93.31,157.6094 C112,156.7894 128,160.1194 128,167.6094 C128,175.0994 117.9942,178.6924 99.3042,177.8724 " fill="none" id="Disponible-to-Disponible" style="stroke:#181818;stroke-width:1.0;"/><polygon fill="#181818" points="93.31,177.6094,102.126,182,98.3052,177.8285,102.4767,174.0077,93.31,177.6094" style="stroke:#181818;stroke-width:1.0;"/><text fill="#000000" font-family="sans-serif" font-size="13" lengthAdjust="spacing" textLength="105" x="134" y="173.1045">consultarAlumno()</text></g><!--link Disponible to *end*--><g id="link_Disponible_*end*"><path d="M50,193.0694 C50,212.6494 50,233.0994 50,247.4094 " fill="none" id="Disponible-to-*end*" style="stroke:#181818;stroke-width:1.0;"/><polygon fill="#181818" points="50,253.4094,54,244.4094,50,248.4094,46,244.4094,50,253.4094" style="stroke:#181818;stroke-width:1.0;"/></g><!--SRC=[PSrD2eD030NWVKwHfHQyW0j1Q4zHNCGVIkZCP9Xa5jxUG46aRXuytWTFlvmo5OgejeVDi_1YDGOmDkzFfe-lXEk6BpLQHNiSGur90DwF2RjkSAHP4i_kU-IOfHYL7zAc1RZiDxv8qXfEx_nF-maS]--></g></svg>