<?xml version="1.0" encoding="us-ascii" standalone="no"?><svg xmlns="http://www.w3.org/2000/svg" xmlns:xlink="http://www.w3.org/1999/xlink" contentStyleType="text/css" height="793px" preserveAspectRatio="none" style="width:721px;height:793px;background:#FFFFFF;" version="1.1" viewBox="0 0 721 793" width="721px" zoomAndPan="magnify"><defs/><g><text fill="#000000" font-family="sans-serif" font-size="14" font-weight="bold" lengthAdjust="spacing" textLength="220" x="243.75" y="24.5332">Diagrama de Estados: Dispensa</text><ellipse cx="47.5" cy="54.6094" fill="#222222" rx="10" ry="10" style="stroke:#222222;stroke-width:1.0;"/><g id="Solicitada"><rect fill="#F1F1F1" height="50" rx="12.5" ry="12.5" style="stroke:#181818;stroke-width:0.5;" width="81" x="7" y="142.6094"/><line style="stroke:#181818;stroke-width:0.5;" x1="7" x2="88" y1="170.2188" y2="170.2188"/><text fill="#000000" font-family="sans-serif" font-size="14" lengthAdjust="spacing" textLength="61" x="17" y="162.1426">Solicitada</text></g><g id="Aprobada"><rect fill="#F1F1F1" height="50" rx="12.5" ry="12.5" style="stroke:#181818;stroke-width:0.5;" width="82" x="211.5" y="526.6094"/><line style="stroke:#181818;stroke-width:0.5;" x1="211.5" x2="293.5" y1="554.2188" y2="554.2188"/><text fill="#000000" font-family="sans-serif" font-size="14" lengthAdjust="spacing" textLength="62" x="221.5" y="546.1426">Aprobada</text></g><g id="Rechazada"><rect fill="#F1F1F1" height="50" rx="12.5" ry="12.5" style="stroke:#181818;stroke-width:0.5;" width="91" x="261" y="270.6094"/><line style="stroke:#181818;stroke-width:0.5;" x1="261" x2="352" y1="298.2188" y2="298.2188"/><text fill="#000000" font-family="sans-serif" font-size="14" lengthAdjust="spacing" textLength="71" x="271" y="290.1426">Rechazada</text></g><g id="Cerrada"><rect fill="#F1F1F1" height="50" rx="12.5" ry="12.5" style="stroke:#181818;stroke-width:0.5;" width="72" x="361.5" y="654.6094"/><line style="stroke:#181818;stroke-width:0.5;" x1="361.5" x2="433.5" y1="682.2188" y2="682.2188"/><text fill="#000000" font-family="sans-serif" font-size="14" lengthAdjust="spacing" textLength="52" x="371.5" y="674.1426">Cerrada</text></g><g id="Apelada"><rect fill="#F1F1F1" height="50" rx="12.5" ry="12.5" style="stroke:#181818;stroke-width:0.5;" width="72" x="216.5" y="398.6094"/><line style="stroke:#181818;stroke-width:0.5;" x1="216.5" x2="288.5" y1="426.2188" y2="426.2188"/><text fill="#000000" font-family="sans-serif" font-size="14" lengthAdjust="spacing" textLength="52" x="226.5" y="418.1426">Apelada</text></g><ellipse cx="397.5" cy="776.6094" fill="none" rx="11" ry="11" style="stroke:#222222;stroke-width:1.0;"/><ellipse cx="397.5" cy="776.6094" fill="#222222" rx="6" ry="6" style="stroke:#222222;stroke-width:1.0;"/><!--link *start* to Solicitada--><g id="link_*start*_Solicitada"><path d="M47.5,64.6894 C47.5,81.4694 47.5,111.8294 47.5,136.2594 " fill="none" id="*start*-to-Solicitada" style="stroke:#181818;stroke-width:1.0;"/><polygon fill="#181818" points="47.5,142.2594,51.5,133.2594,47.5,137.2594,43.5,133.2594,47.5,142.2594" style="stroke:#181818;stroke-width:1.0;"/><text fill="#000000" font-family="sans-serif" font-size="13" lengthAdjust="spacing" textLength="141" x="48.5" y="109.1045">crearSolicitudDispensa()</text></g><!--link Solicitada to Solicitada--><g id="link_Solicitada_Solicitada"><path d="M88.28,161.7194 C106.85,161.1094 123,163.0794 123,167.6094 C123,172.1394 112.8468,174.3064 94.2768,173.6964 " fill="none" id="Solicitada-to-Solicitada" style="stroke:#181818;stroke-width:1.0;"/><polygon fill="#181818" points="88.28,173.4994,97.1438,177.7927,93.2773,173.6635,97.4065,169.797,88.28,173.4994" style="stroke:#181818;stroke-width:1.0;"/><text fill="#000000" font-family="sans-serif" font-size="13" lengthAdjust="spacing" textLength="144" x="129" y="173.1045">editarSolicitudDispensa()</text></g><!--link Solicitada to Solicitada--><g id="link_Solicitada_Solicitada"><path d="M88.06,159.6794 C157.2,152.3094 279,154.9494 279,167.6094 C279,180.2694 163.1662,183.5453 94.0262,176.1753 " fill="none" id="Solicitada-to-Solicitada-1" style="stroke:#181818;stroke-width:1.0;"/><polygon fill="#181818" points="88.06,175.5394,96.5853,180.4708,93.0318,176.0693,97.4333,172.5159,88.06,175.5394" style="stroke:#181818;stroke-width:1.0;"/><text fill="#000000" font-family="sans-serif" font-size="13" lengthAdjust="spacing" textLength="165" x="285" y="173.1045">consultarSolicitudDispensa()</text></g><!--link Solicitada to Aprobada--><g id="link_Solicitada_Aprobada"><path d="M40.61,192.7294 C30.82,231.7294 16.88,310.1294 43.5,368.6094 C77.89,444.1494 155.6169,497.549 206.0569,526.289 " fill="none" id="Solicitada-to-Aprobada" style="stroke:#181818;stroke-width:1.0;"/><polygon fill="#181818" points="211.27,529.2594,205.4305,521.3284,206.9257,526.7841,201.47,528.2792,211.27,529.2594" style="stroke:#181818;stroke-width:1.0;"/><text fill="#000000" font-family="sans-serif" font-size="13" lengthAdjust="spacing" textLength="155" x="44.5" y="365.1045">guardarSolicitudDispensa()</text></g><!--link Solicitada to Rechazada--><g id="link_Solicitada_Rechazada"><path d="M88.25,188.4394 C135.12,211.2394 206.4742,245.9554 255.3542,269.7254 " fill="none" id="Solicitada-to-Rechazada" style="stroke:#181818;stroke-width:1.0;"/><polygon fill="#181818" points="260.75,272.3494,254.4056,264.8162,256.2535,270.1628,250.907,272.0107,260.75,272.3494" style="stroke:#181818;stroke-width:1.0;"/><text fill="#000000" font-family="sans-serif" font-size="13" lengthAdjust="spacing" textLength="155" x="193.5" y="237.1045">guardarSolicitudDispensa()</text></g><!--link Aprobada to Aprobada--><g id="link_Aprobada_Aprobada"><path d="M293.55,539.8194 C312.25,538.6194 328.5,542.5494 328.5,551.6094 C328.5,560.6694 318.2377,564.9836 299.5377,563.7836 " fill="none" id="Aprobada-to-Aprobada" style="stroke:#181818;stroke-width:1.0;"/><polygon fill="#181818" points="293.55,563.3994,302.2754,567.9675,298.5397,563.7196,302.7877,559.9839,293.55,563.3994" style="stroke:#181818;stroke-width:1.0;"/><text fill="#000000" font-family="sans-serif" font-size="13" lengthAdjust="spacing" textLength="165" x="334.5" y="557.1045">consultarSolicitudDispensa()</text></g><!--link Aprobada to Cerrada--><g id="link_Aprobada_Cerrada"><path d="M280.46,576.8994 C306.13,599.2194 339.4511,628.1637 365.1011,650.4537 " fill="none" id="Aprobada-to-Cerrada" style="stroke:#181818;stroke-width:1.0;"/><polygon fill="#181818" points="369.63,654.3894,365.4604,645.4667,365.8559,651.1097,360.2129,651.5052,369.63,654.3894" style="stroke:#181818;stroke-width:1.0;"/><text fill="#000000" font-family="sans-serif" font-size="13" lengthAdjust="spacing" textLength="145" x="334.5" y="621.1045">cerrarSolicitudDispensa()</text></g><!--link Rechazada to Rechazada--><g id="link_Rechazada_Rechazada"><path d="M352.02,283.7194 C370.95,282.8994 387,286.8594 387,295.6094 C387,304.3594 376.9444,308.579 358.0144,307.759 " fill="none" id="Rechazada-to-Rechazada" style="stroke:#181818;stroke-width:1.0;"/><polygon fill="#181818" points="352.02,307.4994,360.8385,311.8851,357.0153,307.7158,361.1847,303.8926,352.02,307.4994" style="stroke:#181818;stroke-width:1.0;"/><text fill="#000000" font-family="sans-serif" font-size="13" lengthAdjust="spacing" textLength="165" x="393" y="301.1045">consultarSolicitudDispensa()</text></g><!--link Rechazada to Apelada--><g id="link_Rechazada_Apelada"><path d="M260.76,311.3294 C242.37,319.7494 223.06,332.3694 212.5,350.6094 C203.33,366.4494 209.3781,379.9347 221.6681,393.9747 " fill="none" id="Rechazada-to-Apelada" style="stroke:#181818;stroke-width:1.0;"/><polygon fill="#181818" points="225.62,398.4894,222.7019,389.0828,222.3267,394.7272,216.6823,394.352,225.62,398.4894" style="stroke:#181818;stroke-width:1.0;"/><text fill="#000000" font-family="sans-serif" font-size="13" lengthAdjust="spacing" textLength="141" x="213.5" y="365.1045">crearSolicitudDispensa()</text></g><!--link Apelada to Rechazada--><g id="link_Apelada_Rechazada"><path d="M288.57,414.8394 C313.22,407.4394 344.12,393.5994 359.5,368.6094 C369.67,352.0894 361.7566,338.5132 346.4066,324.8832 " fill="none" id="Apelada-to-Rechazada" style="stroke:#181818;stroke-width:1.0;"/><polygon fill="#181818" points="341.92,320.8994,345.9939,329.8661,345.6588,324.2192,351.3057,323.8841,341.92,320.8994" style="stroke:#181818;stroke-width:1.0;"/><text fill="#000000" font-family="sans-serif" font-size="13" lengthAdjust="spacing" textLength="155" x="363.5" y="365.1045">guardarSolicitudDispensa()</text></g><!--link Rechazada to Cerrada--><g id="link_Rechazada_Cerrada"><path d="M352.46,301.2394 C410.72,308.1694 506.16,323.4294 527.5,350.6094 C603.46,447.3594 567.46,530.2894 488.5,624.6094 C474,641.9394 457.8177,652.4593 439.3177,661.4393 " fill="none" id="Rechazada-to-Cerrada" style="stroke:#181818;stroke-width:1.0;"/><polygon fill="#181818" points="433.92,664.0594,443.7633,663.7277,438.4181,661.876,440.2698,656.5308,433.92,664.0594" style="stroke:#181818;stroke-width:1.0;"/><text fill="#000000" font-family="sans-serif" font-size="13" lengthAdjust="spacing" textLength="145" x="568.5" y="493.1045">cerrarSolicitudDispensa()</text></g><!--link Apelada to Aprobada--><g id="link_Apelada_Aprobada"><path d="M252.5,448.8994 C252.5,471.2194 252.5,498.0994 252.5,520.3894 " fill="none" id="Apelada-to-Aprobada" style="stroke:#181818;stroke-width:1.0;"/><polygon fill="#181818" points="252.5,526.3894,256.5,517.3894,252.5,521.3894,248.5,517.3894,252.5,526.3894" style="stroke:#181818;stroke-width:1.0;"/><text fill="#000000" font-family="sans-serif" font-size="13" lengthAdjust="spacing" textLength="155" x="253.5" y="493.1045">guardarSolicitudDispensa()</text></g><!--link Cerrada to *end*--><g id="link_Cerrada_*end*"><path d="M397.5,705.0694 C397.5,724.6494 397.5,745.0994 397.5,759.4094 " fill="none" id="Cerrada-to-*end*" style="stroke:#181818;stroke-width:1.0;"/><polygon fill="#181818" points="397.5,765.4094,401.5,756.4094,397.5,760.4094,393.5,756.4094,397.5,765.4094" style="stroke:#181818;stroke-width:1.0;"/></g><!--SRC=[ZPB13i8W38RlF0L7DTaBx62og2-WHxD3XMOIsI053lhqihZfDfUD2objl_v_2kwX6Wi4DNV-gJ6Uf8GFjMPU-NW_AgXY5RX4Vd8Uf75vJ3gBZGF6hhkIPzcUNunMGiKoy9mBGg0k4sJVlDaoDcZxer36Q1PReeHfND0-JQ-mP6uVhWf0CadkZE8EhrMAVOTFb1OTZg034dLC6ytB_EnCpIqAZR72ebvvgp6GPAsVchxg8P6wvzvAoyJlzmO0]--></g></svg>