<?xml version="1.0" encoding="us-ascii" standalone="no"?><svg xmlns="http://www.w3.org/2000/svg" xmlns:xlink="http://www.w3.org/1999/xlink" contentStyleType="text/css" height="462px" preserveAspectRatio="none" style="width:350px;height:462px;background:#FFFFFF;" version="1.1" viewBox="0 0 350 462" width="350px" zoomAndPan="magnify"><defs/><g><text fill="#000000" font-family="sans-serif" font-size="14" font-weight="bold" lengthAdjust="spacing" textLength="135" x="100.61" y="24.5332">Modelo de dominio</text><!--class Alumno--><g id="elem_Alumno"><rect codeLine="4" fill="#F1F1F1" height="43.6094" id="Alumno" rx="2.5" ry="2.5" style="stroke:#181818;stroke-width:0.5;" width="53" x="117.72" y="45.6094"/><text fill="#000000" font-family="sans-serif" font-size="14" lengthAdjust="spacing" textLength="47" x="120.72" y="65.1426">Alumno</text><line style="stroke:#181818;stroke-width:0.5;" x1="118.72" x2="169.72" y1="73.2188" y2="73.2188"/><line style="stroke:#181818;stroke-width:0.5;" x1="118.72" x2="169.72" y1="81.2188" y2="81.2188"/></g><!--class Matricula--><g id="elem_Matricula"><rect codeLine="5" fill="#F1F1F1" height="43.6094" id="Matricula" rx="2.5" ry="2.5" style="stroke:#181818;stroke-width:0.5;" width="63" x="8.72" y="167.6094"/><text fill="#000000" font-family="sans-serif" font-size="14" lengthAdjust="spacing" textLength="57" x="11.72" y="187.1426">Matricula</text><line style="stroke:#181818;stroke-width:0.5;" x1="9.72" x2="70.72" y1="195.2188" y2="195.2188"/><line style="stroke:#181818;stroke-width:0.5;" x1="9.72" x2="70.72" y1="203.2188" y2="203.2188"/></g><!--class Asignatura--><g id="elem_Asignatura"><rect codeLine="6" fill="#F1F1F1" height="43.6094" id="Asignatura" rx="2.5" ry="2.5" style="stroke:#181818;stroke-width:0.5;" width="74" x="111.22" y="167.6094"/><text fill="#000000" font-family="sans-serif" font-size="14" lengthAdjust="spacing" textLength="68" x="114.22" y="187.1426">Asignatura</text><line style="stroke:#181818;stroke-width:0.5;" x1="112.22" x2="184.22" y1="195.2188" y2="195.2188"/><line style="stroke:#181818;stroke-width:0.5;" x1="112.22" x2="184.22" y1="203.2188" y2="203.2188"/></g><!--class Dispensa--><g id="elem_Dispensa"><rect codeLine="7" fill="#F1F1F1" height="43.6094" id="Dispensa" rx="2.5" ry="2.5" style="stroke:#181818;stroke-width:0.5;" width="65" x="260.72" y="167.6094"/><text fill="#000000" font-family="sans-serif" font-size="14" lengthAdjust="spacing" textLength="59" x="263.72" y="187.1426">Dispensa</text><line style="stroke:#181818;stroke-width:0.5;" x1="261.72" x2="324.72" y1="195.2188" y2="195.2188"/><line style="stroke:#181818;stroke-width:0.5;" x1="261.72" x2="324.72" y1="203.2188" y2="203.2188"/></g><!--class Asistencia--><g id="elem_Asistencia"><rect codeLine="8" fill="#F1F1F1" height="43.6094" id="Asistencia" rx="2.5" ry="2.5" style="stroke:#181818;stroke-width:0.5;" width="70" x="241.22" y="411.6094"/><text fill="#000000" font-family="sans-serif" font-size="14" lengthAdjust="spacing" textLength="64" x="244.22" y="431.1426">Asistencia</text><line style="stroke:#181818;stroke-width:0.5;" x1="242.22" x2="310.22" y1="439.2188" y2="439.2188"/><line style="stroke:#181818;stroke-width:0.5;" x1="242.22" x2="310.22" y1="447.2188" y2="447.2188"/></g><!--class SesionDeClase--><g id="elem_SesionDeClase"><rect codeLine="9" fill="#F1F1F1" height="43.6094" id="SesionDeClase" rx="2.5" ry="2.5" style="stroke:#181818;stroke-width:0.5;" width="103" x="224.72" y="289.6094"/><text fill="#000000" font-family="sans-serif" font-size="14" lengthAdjust="spacing" textLength="97" x="227.72" y="309.1426">SesionDeClase</text><line style="stroke:#181818;stroke-width:0.5;" x1="225.72" x2="326.72" y1="317.2188" y2="317.2188"/><line style="stroke:#181818;stroke-width:0.5;" x1="225.72" x2="326.72" y1="325.2188" y2="325.2188"/></g><!--class Grado--><g id="elem_Grado"><rect codeLine="10" fill="#F1F1F1" height="43.6094" id="Grado" rx="2.5" ry="2.5" style="stroke:#181818;stroke-width:0.5;" width="46" x="49.22" y="289.6094"/><text fill="#000000" font-family="sans-serif" font-size="14" lengthAdjust="spacing" textLength="40" x="52.22" y="309.1426">Grado</text><line style="stroke:#181818;stroke-width:0.5;" x1="50.22" x2="94.22" y1="317.2188" y2="317.2188"/><line style="stroke:#181818;stroke-width:0.5;" x1="50.22" x2="94.22" y1="325.2188" y2="325.2188"/></g><!--link Alumno to Matricula--><g id="link_Alumno_Matricula"><path codeLine="12" d="M125.87,89.7894 C106.97,111.5894 81.6191,140.8348 62.6691,162.7048 " fill="none" id="Alumno-to-Matricula" style="stroke:#181818;stroke-width:1.0;"/><polygon fill="#181818" points="58.74,167.2394,67.6567,163.057,62.0143,163.4606,61.6106,157.8182,58.74,167.2394" style="stroke:#181818;stroke-width:1.0;"/><text fill="#000000" font-family="sans-serif" font-size="13" lengthAdjust="spacing" textLength="31" x="100.22" y="134.1045">Tiene</text></g><!--link Alumno to Dispensa--><g id="link_Alumno_Dispensa"><path codeLine="13" d="M170.52,89.7894 C197.67,111.6494 235.1166,141.8165 262.2666,163.6765 " fill="none" id="Alumno-to-Dispensa" style="stroke:#181818;stroke-width:1.0;"/><polygon fill="#181818" points="266.94,167.4394,262.4384,158.6795,263.0455,164.3037,257.4213,164.9107,266.94,167.4394" style="stroke:#181818;stroke-width:1.0;"/><text fill="#000000" font-family="sans-serif" font-size="13" lengthAdjust="spacing" textLength="43" x="229.22" y="134.1045">Solicita</text></g><!--link Matricula to Grado--><g id="link_Matricula_Grado"><path codeLine="15" d="M22.99,211.6994 C13.9,225.4894 6,243.8194 13.22,259.6094 C20.6,275.7394 30.8859,285.3789 44.0459,294.1989 " fill="none" id="Matricula-to-Grado" style="stroke:#181818;stroke-width:1.0;"/><polygon fill="#181818" points="49.03,297.5394,43.7808,289.206,44.8766,294.7557,39.3269,295.8515,49.03,297.5394" style="stroke:#181818;stroke-width:1.0;"/><text fill="#000000" font-family="sans-serif" font-size="13" lengthAdjust="spacing" textLength="70" x="14.22" y="256.1045">Pertenece a</text></g><!--link Asignatura to Grado--><g id="link_Asignatura_Grado"><path codeLine="17" d="M134.81,211.7894 C121,233.5894 102.8101,262.3004 88.9601,284.1704 " fill="none" id="Asignatura-to-Grado" style="stroke:#181818;stroke-width:1.0;"/><polygon fill="#181818" points="85.75,289.2394,93.9446,283.7759,88.4251,285.0152,87.1859,279.4957,85.75,289.2394" style="stroke:#181818;stroke-width:1.0;"/><text fill="#000000" font-family="sans-serif" font-size="13" lengthAdjust="spacing" textLength="70" x="116.22" y="256.1045">Pertenece a</text></g><!--reverse link Asignatura to SesionDeClase--><g id="link_Asignatura_SesionDeClase"><path codeLine="18" d="M179.5639,219.9973 C202.8139,241.7973 230.1,267.3694 253.43,289.2394 " fill="none" id="Asignatura-backto-SesionDeClase" style="stroke:#181818;stroke-width:1.0;"/><polygon fill="#181818" points="170.81,211.7894,172.451,218.8113,179.5639,219.9973,177.9229,212.9754,170.81,211.7894" style="stroke:#181818;stroke-width:1.0;"/><text fill="#000000" font-family="sans-serif" font-size="13" lengthAdjust="spacing" textLength="31" x="221.22" y="256.1045">Tiene</text></g><!--reverse link SesionDeClase to Asistencia--><g id="link_SesionDeClase_Asistencia"><path codeLine="20" d="M276.22,345.7894 C276.22,367.5894 276.22,389.3694 276.22,411.2394 " fill="none" id="SesionDeClase-backto-Asistencia" style="stroke:#181818;stroke-width:1.0;"/><polygon fill="#181818" points="276.22,333.7894,272.22,339.7894,276.22,345.7894,280.22,339.7894,276.22,333.7894" style="stroke:#181818;stroke-width:1.0;"/><text fill="#000000" font-family="sans-serif" font-size="13" lengthAdjust="spacing" textLength="48" x="277.22" y="378.1045">Registra</text></g><!--link Dispensa to SesionDeClase--><g id="link_Dispensa_SesionDeClase"><path codeLine="21" d="M290.22,211.7894 C287.13,233.5894 283.1921,261.4288 280.0921,283.2988 " fill="none" id="Dispensa-to-SesionDeClase" style="stroke:#181818;stroke-width:1.0;"/><polygon fill="#181818" points="279.25,289.2394,284.4735,280.8898,279.9517,284.2889,276.5527,279.7671,279.25,289.2394" style="stroke:#181818;stroke-width:1.0;"/><text fill="#000000" font-family="sans-serif" font-size="13" lengthAdjust="spacing" textLength="55" x="287.22" y="256.1045">Exime de</text></g><!--SRC=[TP5D2i8m48NtESMiXLp0XI1MN1N4Ue6G3cKmFoMJWjxUgRPDAxYSzxxCUqaoPOTGnnPTX1QXZPu2HSKF2hr9nWFdbn2S4zayUAUKTOOPZcxm8Kv3RKPxS6OscRfWyf1ceIBkCV3Avup1qYmqo1H3XIUPSD8koRHHgMyGQ7qeCR27Es70jJb7YDT4HvQoKQgS697FHl6lc2GTBO8WfUjVPeNijDwMNQgehJo2vPf2tR2JILvaAJh6_UuwFydBB-0R]--></g></svg>