<svg xmlns="http://www.w3.org/2000/svg" xmlns:xlink="http://www.w3.org/1999/xlink" contentStyleType="text/css" data-diagram-type="CLASS" height="857px" preserveAspectRatio="none" style="width:742px;height:857px;background:#FFFFFF;" version="1.1" viewBox="0 0 742 857" width="742px" zoomAndPan="magnify"><?plantuml 1.2026.4beta2?><defs/><g><g class="title" data-source-line="1"><text fill="#000000" font-family="sans-serif" font-size="14" font-weight="700" lengthAdjust="spacing" textLength="228.1631" x="253.5763" y="22.9951">Modelo de dominio completo</text></g><!--class Alumno--><g class="entity" data-qualified-name="Alumno" data-source-line="3" id="ent0002"><rect fill="#F1F1F1" height="48" rx="2.5" ry="2.5" style="stroke:#181818;stroke-width:0.5;" width="85.416" x="219.29" y="169.2969"/><ellipse cx="234.29" cy="185.2969" fill="#ADD1B2" rx="11" ry="11" style="stroke:#181818;stroke-width:1;"/><path d="M237.2588,190.9375 Q236.6806,191.2344 236.04,191.375 Q235.3994,191.5313 234.6963,191.5313 Q232.1963,191.5313 230.8681,189.8906 Q229.5556,188.2344 229.5556,185.1094 Q229.5556,181.9844 230.8681,180.3281 Q232.1963,178.6719 234.6963,178.6719 Q235.3994,178.6719 236.04,178.8281 Q236.6963,178.9844 237.2588,179.2813 L237.2588,182 Q236.6338,181.4219 236.04,181.1563 Q235.4463,180.875 234.8213,180.875 Q233.4775,180.875 232.79,181.9531 Q232.1025,183.0156 232.1025,185.1094 Q232.1025,187.2031 232.79,188.2813 Q233.4775,189.3438 234.8213,189.3438 Q235.4463,189.3438 236.04,189.0781 Q236.6338,188.7969 237.2588,188.2188 L237.2588,190.9375 Z " fill="#000000"/><text fill="#000000" font-family="sans-serif" font-size="14" lengthAdjust="spacing" textLength="53.416" x="248.29" y="190.1436">Alumno</text><line style="stroke:#181818;stroke-width:0.5;" x1="220.29" x2="303.706" y1="201.2969" y2="201.2969"/><line style="stroke:#181818;stroke-width:0.5;" x1="220.29" x2="303.706" y1="209.2969" y2="209.2969"/></g><!--class Matricula--><g class="entity" data-qualified-name="Matricula" data-source-line="4" id="ent0003"><rect fill="#F1F1F1" height="48" rx="2.5" ry="2.5" style="stroke:#181818;stroke-width:0.5;" width="96.832" x="468.58" y="294.2969"/><ellipse cx="483.58" cy="310.2969" fill="#ADD1B2" rx="11" ry="11" style="stroke:#181818;stroke-width:1;"/><path d="M486.5488,315.9375 Q485.9706,316.2344 485.33,316.375 Q484.6894,316.5313 483.9863,316.5313 Q481.4863,316.5313 480.1581,314.8906 Q478.8456,313.2344 478.8456,310.1094 Q478.8456,306.9844 480.1581,305.3281 Q481.4863,303.6719 483.9863,303.6719 Q484.6894,303.6719 485.33,303.8281 Q485.9863,303.9844 486.5488,304.2813 L486.5488,307 Q485.9238,306.4219 485.33,306.1563 Q484.7363,305.875 484.1113,305.875 Q482.7675,305.875 482.08,306.9531 Q481.3925,308.0156 481.3925,310.1094 Q481.3925,312.2031 482.08,313.2813 Q482.7675,314.3438 484.1113,314.3438 Q484.7363,314.3438 485.33,314.0781 Q485.9238,313.7969 486.5488,313.2188 L486.5488,315.9375 Z " fill="#000000"/><text fill="#000000" font-family="sans-serif" font-size="14" lengthAdjust="spacing" textLength="64.832" x="497.58" y="315.1436">Matricula</text><line style="stroke:#181818;stroke-width:0.5;" x1="469.58" x2="564.412" y1="326.2969" y2="326.2969"/><line style="stroke:#181818;stroke-width:0.5;" x1="469.58" x2="564.412" y1="334.2969" y2="334.2969"/></g><!--class Asignatura--><g class="entity" data-qualified-name="Asignatura" data-source-line="5" id="ent0004"><rect fill="#F1F1F1" height="48" rx="2.5" ry="2.5" style="stroke:#181818;stroke-width:0.5;" width="107.7969" x="136.1" y="44.2969"/><ellipse cx="151.1" cy="60.2969" fill="#ADD1B2" rx="11" ry="11" style="stroke:#181818;stroke-width:1;"/><path d="M154.0688,65.9375 Q153.4906,66.2344 152.85,66.375 Q152.2094,66.5313 151.5063,66.5313 Q149.0063,66.5313 147.6781,64.8906 Q146.3656,63.2344 146.3656,60.1094 Q146.3656,56.9844 147.6781,55.3281 Q149.0063,53.6719 151.5063,53.6719 Q152.2094,53.6719 152.85,53.8281 Q153.5063,53.9844 154.0688,54.2813 L154.0688,57 Q153.4438,56.4219 152.85,56.1563 Q152.2563,55.875 151.6313,55.875 Q150.2875,55.875 149.6,56.9531 Q148.9125,58.0156 148.9125,60.1094 Q148.9125,62.2031 149.6,63.2813 Q150.2875,64.3438 151.6313,64.3438 Q152.2563,64.3438 152.85,64.0781 Q153.4438,63.7969 154.0688,63.2188 L154.0688,65.9375 Z " fill="#000000"/><text fill="#000000" font-family="sans-serif" font-size="14" lengthAdjust="spacing" textLength="75.7969" x="165.1" y="65.1436">Asignatura</text><line style="stroke:#181818;stroke-width:0.5;" x1="137.1" x2="242.8969" y1="76.2969" y2="76.2969"/><line style="stroke:#181818;stroke-width:0.5;" x1="137.1" x2="242.8969" y1="84.2969" y2="84.2969"/></g><!--class Dispensa--><g class="entity" data-qualified-name="Dispensa" data-source-line="6" id="ent0005"><rect fill="#F1F1F1" height="48" rx="2.5" ry="2.5" style="stroke:#181818;stroke-width:0.5;" width="96.21" x="213.9" y="294.2969"/><ellipse cx="228.9" cy="310.2969" fill="#ADD1B2" rx="11" ry="11" style="stroke:#181818;stroke-width:1;"/><path d="M231.8688,315.9375 Q231.2906,316.2344 230.65,316.375 Q230.0094,316.5313 229.3063,316.5313 Q226.8063,316.5313 225.4781,314.8906 Q224.1656,313.2344 224.1656,310.1094 Q224.1656,306.9844 225.4781,305.3281 Q226.8063,303.6719 229.3063,303.6719 Q230.0094,303.6719 230.65,303.8281 Q231.3063,303.9844 231.8688,304.2813 L231.8688,307 Q231.2438,306.4219 230.65,306.1563 Q230.0563,305.875 229.4313,305.875 Q228.0875,305.875 227.4,306.9531 Q226.7125,308.0156 226.7125,310.1094 Q226.7125,312.2031 227.4,313.2813 Q228.0875,314.3438 229.4313,314.3438 Q230.0563,314.3438 230.65,314.0781 Q231.2438,313.7969 231.8688,313.2188 L231.8688,315.9375 Z " fill="#000000"/><text fill="#000000" font-family="sans-serif" font-size="14" lengthAdjust="spacing" textLength="64.21" x="242.9" y="315.1436">Dispensa</text><line style="stroke:#181818;stroke-width:0.5;" x1="214.9" x2="309.11" y1="326.2969" y2="326.2969"/><line style="stroke:#181818;stroke-width:0.5;" x1="214.9" x2="309.11" y1="334.2969" y2="334.2969"/></g><!--class Asistencia--><g class="entity" data-qualified-name="Asistencia" data-source-line="7" id="ent0006"><rect fill="#F1F1F1" height="48" rx="2.5" ry="2.5" style="stroke:#181818;stroke-width:0.5;" width="103.1963" x="81.4" y="544.2969"/><ellipse cx="96.4" cy="560.2969" fill="#ADD1B2" rx="11" ry="11" style="stroke:#181818;stroke-width:1;"/><path d="M99.3688,565.9375 Q98.7906,566.2344 98.15,566.375 Q97.5094,566.5313 96.8063,566.5313 Q94.3063,566.5313 92.9781,564.8906 Q91.6656,563.2344 91.6656,560.1094 Q91.6656,556.9844 92.9781,555.3281 Q94.3063,553.6719 96.8063,553.6719 Q97.5094,553.6719 98.15,553.8281 Q98.8063,553.9844 99.3688,554.2813 L99.3688,557 Q98.7438,556.4219 98.15,556.1563 Q97.5563,555.875 96.9313,555.875 Q95.5875,555.875 94.9,556.9531 Q94.2125,558.0156 94.2125,560.1094 Q94.2125,562.2031 94.9,563.2813 Q95.5875,564.3438 96.9313,564.3438 Q97.5563,564.3438 98.15,564.0781 Q98.7438,563.7969 99.3688,563.2188 L99.3688,565.9375 Z " fill="#000000"/><text fill="#000000" font-family="sans-serif" font-size="14" lengthAdjust="spacing" textLength="71.1963" x="110.4" y="565.1436">Asistencia</text><line style="stroke:#181818;stroke-width:0.5;" x1="82.4" x2="183.5963" y1="576.2969" y2="576.2969"/><line style="stroke:#181818;stroke-width:0.5;" x1="82.4" x2="183.5963" y1="584.2969" y2="584.2969"/></g><!--class Profesor--><g class="entity" data-qualified-name="Profesor" data-source-line="8" id="ent0007"><rect fill="#F1F1F1" height="48" rx="2.5" ry="2.5" style="stroke:#181818;stroke-width:0.5;" width="89.9209" x="88.04" y="669.2969"/><ellipse cx="103.04" cy="685.2969" fill="#ADD1B2" rx="11" ry="11" style="stroke:#181818;stroke-width:1;"/><path d="M106.0088,690.9375 Q105.4306,691.2344 104.79,691.375 Q104.1494,691.5313 103.4463,691.5313 Q100.9463,691.5313 99.6181,689.8906 Q98.3056,688.2344 98.3056,685.1094 Q98.3056,681.9844 99.6181,680.3281 Q100.9463,678.6719 103.4463,678.6719 Q104.1494,678.6719 104.79,678.8281 Q105.4463,678.9844 106.0088,679.2813 L106.0088,682 Q105.3838,681.4219 104.79,681.1563 Q104.1963,680.875 103.5713,680.875 Q102.2275,680.875 101.54,681.9531 Q100.8525,683.0156 100.8525,685.1094 Q100.8525,687.2031 101.54,688.2813 Q102.2275,689.3438 103.5713,689.3438 Q104.1963,689.3438 104.79,689.0781 Q105.3838,688.7969 106.0088,688.2188 L106.0088,690.9375 Z " fill="#000000"/><text fill="#000000" font-family="sans-serif" font-size="14" lengthAdjust="spacing" textLength="57.9209" x="117.04" y="690.1436">Profesor</text><line style="stroke:#181818;stroke-width:0.5;" x1="89.04" x2="176.9609" y1="701.2969" y2="701.2969"/><line style="stroke:#181818;stroke-width:0.5;" x1="89.04" x2="176.9609" y1="709.2969" y2="709.2969"/></g><!--class Grado--><g class="entity" data-qualified-name="Grado" data-source-line="9" id="ent0008"><rect fill="#F1F1F1" height="48" rx="2.5" ry="2.5" style="stroke:#181818;stroke-width:0.5;" width="74.6357" x="652.68" y="419.2969"/><ellipse cx="667.68" cy="435.2969" fill="#ADD1B2" rx="11" ry="11" style="stroke:#181818;stroke-width:1;"/><path d="M670.6488,440.9375 Q670.0706,441.2344 669.43,441.375 Q668.7894,441.5313 668.0863,441.5313 Q665.5863,441.5313 664.2581,439.8906 Q662.9456,438.2344 662.9456,435.1094 Q662.9456,431.9844 664.2581,430.3281 Q665.5863,428.6719 668.0863,428.6719 Q668.7894,428.6719 669.43,428.8281 Q670.0863,428.9844 670.6488,429.2813 L670.6488,432 Q670.0238,431.4219 669.43,431.1563 Q668.8363,430.875 668.2113,430.875 Q666.8675,430.875 666.18,431.9531 Q665.4925,433.0156 665.4925,435.1094 Q665.4925,437.2031 666.18,438.2813 Q666.8675,439.3438 668.2113,439.3438 Q668.8363,439.3438 669.43,439.0781 Q670.0238,438.7969 670.6488,438.2188 L670.6488,440.9375 Z " fill="#000000"/><text fill="#000000" font-family="sans-serif" font-size="14" lengthAdjust="spacing" textLength="42.6357" x="681.68" y="440.1436">Grado</text><line style="stroke:#181818;stroke-width:0.5;" x1="653.68" x2="726.3157" y1="451.2969" y2="451.2969"/><line style="stroke:#181818;stroke-width:0.5;" x1="653.68" x2="726.3157" y1="459.2969" y2="459.2969"/></g><!--class DirectorDeGrado--><g class="entity" data-qualified-name="DirectorDeGrado" data-source-line="10" id="ent0009"><rect fill="#F1F1F1" height="48" rx="2.5" ry="2.5" style="stroke:#181818;stroke-width:0.5;" width="150.5762" x="182.71" y="794.2969"/><ellipse cx="197.71" cy="810.2969" fill="#ADD1B2" rx="11" ry="11" style="stroke:#181818;stroke-width:1;"/><path d="M200.6788,815.9375 Q200.1006,816.2344 199.46,816.375 Q198.8194,816.5313 198.1163,816.5313 Q195.6163,816.5313 194.2881,814.8906 Q192.9756,813.2344 192.9756,810.1094 Q192.9756,806.9844 194.2881,805.3281 Q195.6163,803.6719 198.1163,803.6719 Q198.8194,803.6719 199.46,803.8281 Q200.1163,803.9844 200.6788,804.2813 L200.6788,807 Q200.0538,806.4219 199.46,806.1563 Q198.8663,805.875 198.2413,805.875 Q196.8975,805.875 196.21,806.9531 Q195.5225,808.0156 195.5225,810.1094 Q195.5225,812.2031 196.21,813.2813 Q196.8975,814.3438 198.2413,814.3438 Q198.8663,814.3438 199.46,814.0781 Q200.0538,813.7969 200.6788,813.2188 L200.6788,815.9375 Z " fill="#000000"/><text fill="#000000" font-family="sans-serif" font-size="14" lengthAdjust="spacing" textLength="118.5762" x="211.71" y="815.1436">DirectorDeGrado</text><line style="stroke:#181818;stroke-width:0.5;" x1="183.71" x2="332.2862" y1="826.2969" y2="826.2969"/><line style="stroke:#181818;stroke-width:0.5;" x1="183.71" x2="332.2862" y1="834.2969" y2="834.2969"/></g><!--class SecretariaAcademica--><g class="entity" data-qualified-name="SecretariaAcademica" data-source-line="11" id="ent0010"><rect fill="#F1F1F1" height="48" rx="2.5" ry="2.5" style="stroke:#181818;stroke-width:0.5;" width="181.0166" x="426.49" y="544.2969"/><ellipse cx="441.49" cy="560.2969" fill="#ADD1B2" rx="11" ry="11" style="stroke:#181818;stroke-width:1;"/><path d="M444.4588,565.9375 Q443.8806,566.2344 443.24,566.375 Q442.5994,566.5313 441.8963,566.5313 Q439.3963,566.5313 438.0681,564.8906 Q436.7556,563.2344 436.7556,560.1094 Q436.7556,556.9844 438.0681,555.3281 Q439.3963,553.6719 441.8963,553.6719 Q442.5994,553.6719 443.24,553.8281 Q443.8963,553.9844 444.4588,554.2813 L444.4588,557 Q443.8338,556.4219 443.24,556.1563 Q442.6463,555.875 442.0213,555.875 Q440.6775,555.875 439.99,556.9531 Q439.3025,558.0156 439.3025,560.1094 Q439.3025,562.2031 439.99,563.2813 Q440.6775,564.3438 442.0213,564.3438 Q442.6463,564.3438 443.24,564.0781 Q443.8338,563.7969 444.4588,563.2188 L444.4588,565.9375 Z " fill="#000000"/><text fill="#000000" font-family="sans-serif" font-size="14" lengthAdjust="spacing" textLength="149.0166" x="455.49" y="565.1436">SecretariaAcademica</text><line style="stroke:#181818;stroke-width:0.5;" x1="427.49" x2="606.5066" y1="576.2969" y2="576.2969"/><line style="stroke:#181818;stroke-width:0.5;" x1="427.49" x2="606.5066" y1="584.2969" y2="584.2969"/></g><!--class SesionDeClase--><g class="entity" data-qualified-name="SesionDeClase" data-source-line="12" id="ent0011"><rect fill="#F1F1F1" height="48" rx="2.5" ry="2.5" style="stroke:#181818;stroke-width:0.5;" width="135.667" x="65.17" y="419.2969"/><ellipse cx="80.17" cy="435.2969" fill="#ADD1B2" rx="11" ry="11" style="stroke:#181818;stroke-width:1;"/><path d="M83.1388,440.9375 Q82.5606,441.2344 81.92,441.375 Q81.2794,441.5313 80.5763,441.5313 Q78.0763,441.5313 76.7481,439.8906 Q75.4356,438.2344 75.4356,435.1094 Q75.4356,431.9844 76.7481,430.3281 Q78.0763,428.6719 80.5763,428.6719 Q81.2794,428.6719 81.92,428.8281 Q82.5763,428.9844 83.1388,429.2813 L83.1388,432 Q82.5138,431.4219 81.92,431.1563 Q81.3263,430.875 80.7013,430.875 Q79.3575,430.875 78.67,431.9531 Q77.9825,433.0156 77.9825,435.1094 Q77.9825,437.2031 78.67,438.2813 Q79.3575,439.3438 80.7013,439.3438 Q81.3263,439.3438 81.92,439.0781 Q82.5138,438.7969 83.1388,438.2188 L83.1388,440.9375 Z " fill="#000000"/><text fill="#000000" font-family="sans-serif" font-size="14" lengthAdjust="spacing" textLength="103.667" x="94.17" y="440.1436">SesionDeClase</text><line style="stroke:#181818;stroke-width:0.5;" x1="66.17" x2="199.837" y1="451.2969" y2="451.2969"/><line style="stroke:#181818;stroke-width:0.5;" x1="66.17" x2="199.837" y1="459.2969" y2="459.2969"/></g><!--link Alumno to Matricula--><g class="link" data-entity-1="ent0002" data-entity-2="ent0003" data-link-type="dependency" data-source-line="14" id="lnk12"><path codeLine="14" d="M304.97,215.0269 C350.25,236.8669 416.006,268.5799 463.226,291.3599" fill="none" id="Alumno-to-Matricula" style="stroke:#181818;stroke-width:1;"/><polygon fill="#181818" points="468.63,293.9669,462.262,286.4537,464.1266,291.7944,458.786,293.659,468.63,293.9669" style="stroke:#181818;stroke-width:1;"/><text fill="#000000" font-family="sans-serif" font-size="13" lengthAdjust="spacing" textLength="47.0107" x="405" y="260.3638">Realiza</text></g><!--link Alumno to Dispensa--><g class="link" data-entity-1="ent0002" data-entity-2="ent0005" data-link-type="dependency" data-source-line="15" id="lnk13"><path codeLine="15" d="M262,217.7169 C262,239.6069 262,266.0969 262,287.9569" fill="none" id="Alumno-to-Dispensa" style="stroke:#181818;stroke-width:1;"/><polygon fill="#181818" points="262,293.9569,266,284.9569,262,288.9569,258,284.9569,262,293.9569" style="stroke:#181818;stroke-width:1;"/><text fill="#000000" font-family="sans-serif" font-size="13" lengthAdjust="spacing" textLength="47.252" x="263" y="260.3638">Solicita</text></g><!--link Matricula to Grado--><g class="link" data-entity-1="ent0003" data-entity-2="ent0008" data-link-type="dependency" data-source-line="16" id="lnk14"><path codeLine="16" d="M534.44,342.5169 C546.36,357.2569 563.19,375.9969 581,389.2969 C602.75,405.5369 624.7295,416.5402 646.6695,425.7702" fill="none" id="Matricula-to-Grado" style="stroke:#181818;stroke-width:1;"/><polygon fill="#181818" points="652.2,428.0969,645.4553,420.9199,647.5912,426.158,642.3531,428.2939,652.2,428.0969" style="stroke:#181818;stroke-width:1;"/><text fill="#000000" font-family="sans-serif" font-size="13" lengthAdjust="spacing" textLength="77.7588" x="582" y="385.3638">Pertenece a</text></g><!--link Matricula to SecretariaAcademica--><g class="link" data-entity-1="ent0003" data-entity-2="ent0010" data-link-type="dependency" data-source-line="17" id="lnk15"><path codeLine="17" d="M517,342.6269 C517,389.8969 517,490.4769 517,537.8469" fill="none" id="Matricula-to-SecretariaAcademica" style="stroke:#181818;stroke-width:1;"/><polygon fill="#181818" points="517,543.8469,521,534.8469,517,538.8469,513,534.8469,517,543.8469" style="stroke:#181818;stroke-width:1;"/><text fill="#000000" font-family="sans-serif" font-size="13" lengthAdjust="spacing" textLength="99.6138" x="518" y="447.8638">Gestionada por</text></g><!--link Asignatura to Grado--><g class="link" data-entity-1="ent0004" data-entity-2="ent0008" data-link-type="dependency" data-source-line="18" id="lnk16"><path codeLine="18" d="M239.56,92.6969 C316.52,130.1069 467.88,207.9969 583,294.2969 C622.99,324.2769 636.61,330.4869 664,372.2969 C673.38,386.6069 678.2989,399.0231 682.5089,413.2631" fill="none" id="Asignatura-to-Grado" style="stroke:#181818;stroke-width:1;"/><polygon fill="#181818" points="684.21,419.0169,685.4942,409.2521,682.7924,414.222,677.8225,411.5202,684.21,419.0169" style="stroke:#181818;stroke-width:1;"/><text fill="#000000" font-family="sans-serif" font-size="13" lengthAdjust="spacing" textLength="77.7588" x="541" y="260.3638">Pertenece a</text></g><!--reverse link Asignatura to Alumno--><g class="link" data-entity-1="ent0004" data-entity-2="ent0002" data-link-type="composition" data-source-line="19" id="lnk17"><path codeLine="19" d="M209.7709,103.0738 C222.5809,124.9638 235.54,147.0969 248.34,168.9569" fill="none" id="Asignatura-backto-Alumno" style="stroke:#181818;stroke-width:1;"/><polygon fill="#181818" points="203.71,92.7169,203.2881,99.9156,209.7709,103.0738,210.1927,95.8751,203.71,92.7169" style="stroke:#181818;stroke-width:1;"/><text fill="#000000" font-family="sans-serif" font-size="13" lengthAdjust="spacing" textLength="35.7881" x="231" y="135.3638">Tiene</text></g><!--reverse link Asignatura to SesionDeClase--><g class="link" data-entity-1="ent0004" data-entity-2="ent0011" data-link-type="composition" data-source-line="20" id="lnk18"><path codeLine="20" d="M184.6185,104.4894 C174.3885,171.4794 146.8,351.9969 136.56,418.9769" fill="none" id="Asignatura-backto-SesionDeClase" style="stroke:#181818;stroke-width:1;"/><polygon fill="#181818" points="186.43,92.6269,181.5701,97.9543,184.6185,104.4894,189.4784,99.162,186.43,92.6269" style="stroke:#181818;stroke-width:1;"/><text fill="#000000" font-family="sans-serif" font-size="13" lengthAdjust="spacing" textLength="35.7881" x="163" y="260.3638">Tiene</text></g><!--link Asignatura to Profesor--><g class="link" data-entity-1="ent0004" data-entity-2="ent0007" data-link-type="dependency" data-source-line="21" id="lnk19"><path codeLine="21" d="M135.79,81.1169 C81.51,96.5269 6,129.2769 6,192.2969 C6,192.2969 6,192.2969 6,569.2969 C6,616.2569 46.121,648.0924 82.631,668.4724" fill="none" id="Asignatura-to-Profesor" style="stroke:#181818;stroke-width:1;"/><polygon fill="#181818" points="87.87,671.3969,81.9611,663.5175,83.5041,668.9598,78.0618,670.5029,87.87,671.3969" style="stroke:#181818;stroke-width:1;"/><text fill="#000000" font-family="sans-serif" font-size="13" lengthAdjust="spacing" textLength="88.6704" x="7" y="385.3638">Impartida por</text></g><!--reverse link SesionDeClase to Asistencia--><g class="link" data-entity-1="ent0011" data-entity-2="ent0006" data-link-type="composition" data-source-line="22" id="lnk20"><path codeLine="22" d="M133,479.7169 C133,501.6069 133,522.0969 133,543.9569" fill="none" id="SesionDeClase-backto-Asistencia" style="stroke:#181818;stroke-width:1;"/><polygon fill="#181818" points="133,467.7169,129,473.7169,133,479.7169,137,473.7169,133,467.7169" style="stroke:#181818;stroke-width:1;"/><text fill="#000000" font-family="sans-serif" font-size="13" lengthAdjust="spacing" textLength="54.0757" x="134" y="510.3638">Registra</text></g><!--link Asistencia to Profesor--><g class="link" data-entity-1="ent0006" data-entity-2="ent0007" data-link-type="dependency" data-source-line="23" id="lnk21"><path codeLine="23" d="M133,592.7169 C133,614.6069 133,641.0969 133,662.9569" fill="none" id="Asistencia-to-Profesor" style="stroke:#181818;stroke-width:1;"/><polygon fill="#181818" points="133,668.9569,137,659.9569,133,663.9569,129,659.9569,133,668.9569" style="stroke:#181818;stroke-width:1;"/><text fill="#000000" font-family="sans-serif" font-size="13" lengthAdjust="spacing" textLength="88.9116" x="134" y="635.3638">Realizada por</text></g><!--link Dispensa to SesionDeClase--><g class="link" data-entity-1="ent0005" data-entity-2="ent0011" data-link-type="dependency" data-source-line="24" id="lnk22"><path codeLine="24" d="M213.67,342.5769 C199.82,350.7169 185.41,360.7469 174,372.2969 C160.74,385.7269 152.7526,398.8804 145.6426,413.5104" fill="none" id="Dispensa-to-SesionDeClase" style="stroke:#181818;stroke-width:1;"/><polygon fill="#181818" points="143.02,418.9069,150.5516,412.5606,145.2055,414.4098,143.3563,409.0638,143.02,418.9069" style="stroke:#181818;stroke-width:1;"/><text fill="#000000" font-family="sans-serif" font-size="13" lengthAdjust="spacing" textLength="60.563" x="175" y="385.3638">Exime de</text></g><!--link Dispensa to DirectorDeGrado--><g class="link" data-entity-1="ent0005" data-entity-2="ent0009" data-link-type="dependency" data-source-line="25" id="lnk23"><path codeLine="25" d="M261.17,342.7169 C260,377.9069 258,446.4969 258,504.7969 C258,504.7969 258,504.7969 258,694.2969 C258,729.1069 258,763.4569 258,788.1769" fill="none" id="Dispensa-to-DirectorDeGrado" style="stroke:#181818;stroke-width:1;"/><polygon fill="#181818" points="258,794.1769,262,785.1769,258,789.1769,254,785.1769,258,794.1769" style="stroke:#181818;stroke-width:1;"/><text fill="#000000" font-family="sans-serif" font-size="13" lengthAdjust="spacing" textLength="88.5625" x="259" y="572.8638">Aprobada por</text></g><!--link Dispensa to SecretariaAcademica--><g class="link" data-entity-1="ent0005" data-entity-2="ent0010" data-link-type="dependency" data-source-line="26" id="lnk24"><path codeLine="26" d="M284.41,342.7269 C312.77,372.2069 363.32,424.2069 408,467.2969 C435.73,494.0369 463.9181,519.7654 486.2081,539.8054" fill="none" id="Dispensa-to-SecretariaAcademica" style="stroke:#181818;stroke-width:1;"/><polygon fill="#181818" points="490.67,543.8169,486.6515,534.8251,486.9518,540.474,481.3029,540.7742,490.67,543.8169" style="stroke:#181818;stroke-width:1;"/><text fill="#000000" font-family="sans-serif" font-size="13" lengthAdjust="spacing" textLength="99.6138" x="409" y="447.8638">Gestionada por</text></g><!--link Grado to DirectorDeGrado--><g class="link" data-entity-1="ent0008" data-entity-2="ent0009" data-link-type="dependency" data-source-line="27" id="lnk25"><path codeLine="27" d="M688.05,467.6569 C686.3,481.5869 683.05,499.4069 677,514.2969 C661.32,552.8969 655.02,563.3969 625,592.2969 C528.49,685.2069 392.637,755.7793 316.597,791.2693" fill="none" id="Grado-to-DirectorDeGrado" style="stroke:#181818;stroke-width:1;"/><polygon fill="#181818" points="311.16,793.8069,321.0072,793.6251,315.6908,791.6922,317.6237,786.3758,311.16,793.8069" style="stroke:#181818;stroke-width:1;"/><text fill="#000000" font-family="sans-serif" font-size="13" lengthAdjust="spacing" textLength="76.3306" x="589" y="635.3638">Dirigido por</text></g><!--link Grado to SecretariaAcademica--><g class="link" data-entity-1="ent0008" data-entity-2="ent0010" data-link-type="dependency" data-source-line="28" id="lnk26"><path codeLine="28" d="M652.3,458.9369 C622.99,470.7269 585.18,486.9969 572,497.2969 C555.44,510.2369 544.2767,524.1935 534.3367,539.1135" fill="none" id="Grado-to-SecretariaAcademica" style="stroke:#181818;stroke-width:1;"/><polygon fill="#181818" points="531.01,544.1069,539.3289,538.8346,533.7822,539.9458,532.6711,534.3991,531.01,544.1069" style="stroke:#181818;stroke-width:1;"/><text fill="#000000" font-family="sans-serif" font-size="13" lengthAdjust="spacing" textLength="99.6011" x="573" y="510.3638">Gestionado por</text></g><!--reverse link Profesor to DirectorDeGrado--><g class="link" data-entity-1="ent0007" data-entity-2="ent0009" data-link-type="extension" data-source-line="29" id="lnk28"><path codeLine="29" d="M163.9288,731.4978 C175.7788,745.4778 179.89,749.5669 195,764.2969 C205.44,774.4769 217.56,784.9569 228.37,793.8869" fill="none" id="Profesor-backto-DirectorDeGrado" style="stroke:#181818;stroke-width:1;"/><polygon fill="none" points="152.29,717.7669,159.3519,735.3774,168.5058,727.6181,152.29,717.7669" style="stroke:#181818;stroke-width:1;"/><text fill="#000000" font-family="sans-serif" font-size="13" lengthAdjust="spacing" textLength="35.5977" x="196" y="760.3638">Es un</text></g><?plantuml-src ZL91QiCm4Bpx5Nik-0Cv548TGW-1qFG3MtaR5cIjMSbGIX_VZICxbabeRzwPsT5evCJ94noa9I_G4hJISM019rtlAKbLEOynmjOFNP0y730fky7ZH4O-1qo3Ja33iQSG5tnC51nFm57baw9e7lUAhSohIYw9DhH4J-IK4YhZrc5B7Jk4cOeieQ4NcwYgha6XhfzlCM43RuIUlt59Jo6DFObdnmchsyf5CIOm-aXgySaHh1NtScrWJp5P9cmHUhlahPw7hWl9KrtdjatppgPOiyMDxuakfqmL6__QzQY9SvfoUpnjVfwngBDDEaQQq9LVxZBxpJLU-oYZxRwuiv-AIjNgZKstxLK-7ZZ-e-6hpNrhG_ZCzbaA__2LdAHqguVwfwXY5s48lm00?></g></svg>