<svg xmlns="http://www.w3.org/2000/svg" xmlns:xlink="http://www.w3.org/1999/xlink" version="1.1" data-diagram-type="SEQUENCE" style="width:1273px;height:762px;background:#FFFFFF;" width="1273px" height="762px" viewBox="0 0 1273 762" zoomAndPan="magnify" preserveAspectRatio="none" contentStyleType="text/css"><?plantuml 1.2026.7beta8?><defs/><g font-family="sans-serif" lengthAdjust="spacing"><g class="title" data-source-line="1"><text x="353.389" y="27.995" fill="#000" font-size="14" textLength="564.867" font-weight="700">Diagrama de Secuencia - Importar Alumnos (Vue 3 + Express + Prisma)</text></g><g><title>Secretaria</title><rect x="48.079" y="139.891" width="8" height="519.195" fill="#000" fill-opacity="0"/><line x1="51.579" y1="139.891" x2="51.579" y2="659.086" style="stroke:#181818;stroke-width:0.5;stroke-dasharray:5,5;"/></g><g><title>Frontend</title><rect x="365.383" y="139.891" width="8" height="519.195" fill="#000" fill-opacity="0"/><line x1="368.883" y1="139.891" x2="368.883" y2="659.086" style="stroke:#181818;stroke-width:0.5;stroke-dasharray:5,5;"/></g><g><title></title><rect x="363.883" y="169.023" width="10" height="353.859" fill="#FFF" style="stroke:#181818;stroke-width:1;"/></g><g><title>SecretariaController</title><rect x="683.559" y="139.891" width="8" height="519.195" fill="#000" fill-opacity="0"/><line x1="687.059" y1="139.891" x2="687.059" y2="659.086" style="stroke:#181818;stroke-width:0.5;stroke-dasharray:5,5;"/></g><g><title></title><rect x="682.059" y="213.289" width="10" height="265.328" fill="#FFF" style="stroke:#181818;stroke-width:1;"/></g><g><title>SecretariaService</title><rect x="869.955" y="139.891" width="8" height="519.195" fill="#000" fill-opacity="0"/><line x1="873.455" y1="139.891" x2="873.455" y2="659.086" style="stroke:#181818;stroke-width:0.5;stroke-dasharray:5,5;"/></g><g><title></title><rect x="868.455" y="242.422" width="10" height="29.133" fill="#FFF" style="stroke:#181818;stroke-width:1;"/></g><g><title></title><rect x="868.455" y="331.82" width="10" height="117.664" fill="#FFF" style="stroke:#181818;stroke-width:1;"/></g><g><title>Base de Datos</title><rect x="1205.545" y="139.891" width="8" height="519.195" fill="#000" fill-opacity="0"/><line x1="1209.045" y1="139.891" x2="1209.045" y2="659.086" style="stroke:#181818;stroke-width:0.5;stroke-dasharray:5,5;"/></g><g><title></title><rect x="1204.045" y="391.219" width="10" height="29.133" fill="#FFF" style="stroke:#181818;stroke-width:1;"/></g><text x="12.649" y="120.292" fill="#000" font-size="14" textLength="71.859">Secretaria</text><text x="10" y="136.589" fill="#000" font-size="14" textLength="77.157">Academica</text><ellipse cx="51.579" cy="55.797" rx="8" ry="8" fill="#E2E2F0" style="stroke:#181818;stroke-width:0.5;"/><path d="M51.579,63.797 L51.579,90.797 M38.579,71.797 L64.579,71.797 M51.579,90.797 L38.579,105.797 M51.579,90.797 L64.579,105.797" style="stroke:#181818;stroke-width:0.5;" fill="none"/><rect x="330.328" y="92.297" width="77.109" height="46.594" fill="#E2E2F0" style="stroke:#181818;stroke-width:0.5;" rx="2.5" ry="2.5"/><text x="337.328" y="112.292" fill="#000" font-size="14" textLength="63.109">Frontend</text><text x="343.21" y="128.589" fill="#000" font-size="14" textLength="51.345">(Vue 3)</text><rect x="609.542" y="108.594" width="155.032" height="30.297" fill="#E2E2F0" style="stroke:#181818;stroke-width:0.5;" rx="2.5" ry="2.5"/><text x="616.542" y="128.589" fill="#000" font-size="14" textLength="141.032">SecretariaController</text><rect x="804.655" y="108.594" width="137.601" height="30.297" fill="#E2E2F0" style="stroke:#181818;stroke-width:0.5;" rx="2.5" ry="2.5"/><text x="811.655" y="128.589" fill="#000" font-size="14" textLength="123.601">SecretariaService</text><text x="1155.445" y="120.292" fill="#000" font-size="14" textLength="101.199">Base de Datos</text><text x="1160.207" y="136.589" fill="#000" font-size="14" textLength="91.677">(PostgreSQL)</text><path d="M1191.045,71.297 C1191.045,61.297 1209.045,61.297 1209.045,61.297 C1209.045,61.297 1227.045,61.297 1227.045,71.297 L1227.045,97.297 C1227.045,107.297 1209.045,107.297 1209.045,107.297 C1209.045,107.297 1191.045,107.297 1191.045,97.297 L1191.045,71.297" style="stroke:#181818;stroke-width:0.5;" fill="#E2E2F0"/><path d="M1191.045,71.297 C1191.045,81.297 1209.045,81.297 1209.045,81.297 C1209.045,81.297 1227.045,81.297 1227.045,71.297" style="stroke:#181818;stroke-width:0.5;" fill="none"/><text x="12.649" y="672.081" fill="#000" font-size="14" textLength="71.859">Secretaria</text><text x="10" y="688.378" fill="#000" font-size="14" textLength="77.157">Academica</text><ellipse cx="51.579" cy="700.18" rx="8" ry="8" fill="#E2E2F0" style="stroke:#181818;stroke-width:0.5;"/><path d="M51.579,708.18 L51.579,735.18 M38.579,716.18 L64.579,716.18 M51.579,735.18 L38.579,750.18 M51.579,735.18 L64.579,750.18" style="stroke:#181818;stroke-width:0.5;" fill="none"/><rect x="330.328" y="659.086" width="77.109" height="46.594" fill="#E2E2F0" style="stroke:#181818;stroke-width:0.5;" rx="2.5" ry="2.5"/><text x="337.328" y="679.081" fill="#000" font-size="14" textLength="63.109">Frontend</text><text x="343.21" y="695.378" fill="#000" font-size="14" textLength="51.345">(Vue 3)</text><rect x="609.542" y="659.086" width="155.032" height="30.297" fill="#E2E2F0" style="stroke:#181818;stroke-width:0.5;" rx="2.5" ry="2.5"/><text x="616.542" y="679.081" fill="#000" font-size="14" textLength="141.032">SecretariaController</text><rect x="804.655" y="659.086" width="137.601" height="30.297" fill="#E2E2F0" style="stroke:#181818;stroke-width:0.5;" rx="2.5" ry="2.5"/><text x="811.655" y="679.081" fill="#000" font-size="14" textLength="123.601">SecretariaService</text><text x="1155.445" y="672.081" fill="#000" font-size="14" textLength="101.199">Base de Datos</text><text x="1160.207" y="688.378" fill="#000" font-size="14" textLength="91.677">(PostgreSQL)</text><path d="M1191.045,701.68 C1191.045,691.68 1209.045,691.68 1209.045,691.68 C1209.045,691.68 1227.045,691.68 1227.045,701.68 L1227.045,727.68 C1227.045,737.68 1209.045,737.68 1209.045,737.68 C1209.045,737.68 1191.045,737.68 1191.045,727.68 L1191.045,701.68" style="stroke:#181818;stroke-width:0.5;" fill="#E2E2F0"/><path d="M1191.045,701.68 C1191.045,711.68 1209.045,711.68 1209.045,711.68 C1209.045,711.68 1227.045,711.68 1227.045,701.68" style="stroke:#181818;stroke-width:0.5;" fill="none"/><polygon points="351.883,165.023,361.883,169.023,351.883,173.023,355.883,169.023" fill="#181818" style="stroke:#181818;stroke-width:1;stroke-linejoin:miter;stroke-miterlimit:10;"/><line x1="51.579" y1="169.023" x2="357.883" y2="169.023" style="stroke:#181818;stroke-width:1;"/><text x="58.579" y="163.958" fill="#000" font-size="13" textLength="288.304">selecciona archivo de alumnos (CSV / Excel)</text><polygon points="670.059,209.289,680.059,213.289,670.059,217.289,674.059,213.289" fill="#181818" style="stroke:#181818;stroke-width:1;stroke-linejoin:miter;stroke-miterlimit:10;"/><line x1="373.883" y1="213.289" x2="676.059" y2="213.289" style="stroke:#181818;stroke-width:1;"/><text x="380.883" y="193.09" fill="#000" font-size="13" textLength="239.364">POST /api/secretaria/import/alumnos</text><text x="380.883" y="208.223" fill="#000" font-size="13" textLength="195.387">(multipart/form-data: archivo)</text><polygon points="856.455,238.422,866.455,242.422,856.455,246.422,860.455,242.422" fill="#181818" style="stroke:#181818;stroke-width:1;stroke-linejoin:miter;stroke-miterlimit:10;"/><line x1="692.059" y1="242.422" x2="862.455" y2="242.422" style="stroke:#181818;stroke-width:1;"/><text x="699.059" y="237.356" fill="#000" font-size="13" textLength="151.43">validarArchivo(archivo)</text><polygon points="703.059,267.555,693.059,271.555,703.059,275.555,699.059,271.555" fill="#181818" style="stroke:#181818;stroke-width:1;stroke-linejoin:miter;stroke-miterlimit:10;"/><line x1="697.059" y1="271.555" x2="867.455" y2="271.555" style="stroke:#181818;stroke-width:1;stroke-dasharray:2,2;"/><text x="709.059" y="266.489" fill="#000" font-size="13" textLength="104.375">valido : Boolean</text><path d="M35.579,283.555 L100.021,283.555 L100.021,290.688 L90.021,300.688 L35.579,300.688 L35.579,283.555" style="stroke:#000;stroke-width:1.5;" fill="#EEE"/><rect x="35.579" y="283.555" width="1194.466" height="351.531" fill="none" style="stroke:#000;stroke-width:1.5;"/><text x="50.579" y="296.622" fill="#000" font-size="13" textLength="19.443" font-weight="700">alt</text><text x="115.021" y="295.765" fill="#000" font-size="11" textLength="97.147" font-weight="700">[archivo válido]</text><line x1="35.579" y1="541.883" x2="1230.045" y2="541.883" style="stroke:#000;stroke-width:1;stroke-dasharray:2,2;"/><text x="40.579" y="554.093" fill="#000" font-size="11" textLength="108.749" font-weight="700">[archivo inválido]</text><polygon points="856.455,327.82,866.455,331.82,856.455,335.82,860.455,331.82" fill="#181818" style="stroke:#181818;stroke-width:1;stroke-linejoin:miter;stroke-miterlimit:10;"/><line x1="692.059" y1="331.82" x2="862.455" y2="331.82" style="stroke:#181818;stroke-width:1;"/><text x="699.059" y="326.754" fill="#000" font-size="13" textLength="157.396">importAlumnos(archivo)</text><polygon points="1192.045,387.219,1202.045,391.219,1192.045,395.219,1196.045,391.219" fill="#181818" style="stroke:#181818;stroke-width:1;stroke-linejoin:miter;stroke-miterlimit:10;"/><line x1="878.455" y1="391.219" x2="1198.045" y2="391.219" style="stroke:#181818;stroke-width:1;"/><text x="885.455" y="355.887" fill="#000" font-size="13" textLength="136.595">INSERT INTO Alumno</text><text x="885.455" y="371.02" fill="#000" font-size="13" textLength="153.74">(nombre, email, dni, ...)</text><text x="885.455" y="386.153" fill="#000" font-size="13" textLength="203.995">ON CONFLICT (dni) DO UPDATE</text><polygon points="889.455,416.352,879.455,420.352,889.455,424.352,885.455,420.352" fill="#181818" style="stroke:#181818;stroke-width:1;stroke-linejoin:miter;stroke-miterlimit:10;"/><line x1="883.455" y1="420.352" x2="1203.045" y2="420.352" style="stroke:#181818;stroke-width:1;stroke-dasharray:2,2;"/><text x="895.455" y="415.286" fill="#000" font-size="13" textLength="301.59">resultados : { creados, actualizados, errores }</text><polygon points="703.059,445.484,693.059,449.484,703.059,453.484,699.059,449.484" fill="#181818" style="stroke:#181818;stroke-width:1;stroke-linejoin:miter;stroke-miterlimit:10;"/><line x1="697.059" y1="449.484" x2="867.455" y2="449.484" style="stroke:#181818;stroke-width:1;stroke-dasharray:2,2;"/><text x="709.059" y="444.418" fill="#000" font-size="13" textLength="146.929">informe : ImportResult</text><polygon points="384.883,474.617,374.883,478.617,384.883,482.617,380.883,478.617" fill="#181818" style="stroke:#181818;stroke-width:1;stroke-linejoin:miter;stroke-miterlimit:10;"/><line x1="378.883" y1="478.617" x2="681.059" y2="478.617" style="stroke:#181818;stroke-width:1;stroke-dasharray:2,2;"/><text x="390.883" y="473.551" fill="#000" font-size="13" textLength="127.029">200 OK { informe }</text><polygon points="62.579,518.883,52.579,522.883,62.579,526.883,58.579,522.883" fill="#181818" style="stroke:#181818;stroke-width:1;stroke-linejoin:miter;stroke-miterlimit:10;"/><line x1="56.579" y1="522.883" x2="362.883" y2="522.883" style="stroke:#181818;stroke-width:1;stroke-dasharray:2,2;"/><text x="68.579" y="502.684" fill="#000" font-size="13" textLength="210.958">muestra informe de importación</text><text x="68.579" y="517.817" fill="#000" font-size="13" textLength="206.273">(creados, actualizados, errores)</text><polygon points="379.883,593.953,369.883,597.953,379.883,601.953,375.883,597.953" fill="#181818" style="stroke:#181818;stroke-width:1;stroke-linejoin:miter;stroke-miterlimit:10;"/><line x1="373.883" y1="597.953" x2="686.059" y2="597.953" style="stroke:#181818;stroke-width:1;stroke-dasharray:2,2;"/><text x="385.883" y="577.754" fill="#000" font-size="13" textLength="111.604">400 Bad Request</text><text x="385.883" y="592.887" fill="#000" font-size="13" textLength="294.176">{ message: "Formato de archivo no válido" }</text><polygon points="62.579,623.086,52.579,627.086,62.579,631.086,58.579,627.086" fill="#181818" style="stroke:#181818;stroke-width:1;stroke-linejoin:miter;stroke-miterlimit:10;"/><line x1="56.579" y1="627.086" x2="367.883" y2="627.086" style="stroke:#181818;stroke-width:1;stroke-dasharray:2,2;"/><text x="68.579" y="622.02" fill="#000" font-size="13" textLength="166.271">muestra error de formato</text><?plantuml-src XLHBRjim4Dth50ElBDIsWhOhBmBu5y1eOBcMavKt4shY4f18bwACea4FqpFq2BbOX_hBXbilP9BYl7dlpOoij0d1KkBHO8eG4qGaSb928enXdPwqiMXWbkIfqXaCdtE2J_01LZzEXhACLriZinHzpqDXjO41nnlY68a7DHCOKoe53W0pQDzu9pHM2db2PM7mOBIofEA3Ak7zudPzsh_ROYpujT59GgQutcvl1KHapb9GHQLOUp5QVC6CO31tJvQ_HAipPhBLcJqQYhu-bdIMSyzhiM1ytn24AMIKa11IAmGqufiyQmU5jMcBw1a2janGuZkRv1ajjGAz1ebHMnsCkmsZFGHuaa7Mf0vaKPIWGcUgQPvOwKG7hzgaOwTfMlFevEiuv7MoSCxA3KvunaJ6Q6PbyF0Qf3REgsF6bvmB2CsBkTO9eV9Ykex6n3PEdTz_kmZF0_xT8bQAhjgmvUL2hj7TQSFldal70EjDjDhj-MyVLjtCpYcTlXWQ0QKean74IevWCfdu1nLkO15k7XxNYpqC-To7PGXFs-Lil-edvRvmUyunxX7cwU2oOCprdy8RSFNSUkG2StRePxaZOpJVX5y5ICSfrsuz6PSsI-MAxJALGxehybt2z2pfUjlltuztTn1-OPerwXMVRlEuLstB5ggRkPX2cbDc3JPGF0XbyL38zp-ANV-t5_vbwdPEAE4PhTj6gfkDqnVtcSNDCOOTVNVK3keDKlvquP6c_ErXZZpnnRXMmAffoK7bm__55jmTo6k9nrnL_1S0?></g></svg>