<svg xmlns="http://www.w3.org/2000/svg" xmlns:xlink="http://www.w3.org/1999/xlink" contentStyleType="text/css" data-diagram-type="DESCRIPTION" height="435px" preserveAspectRatio="none" style="width:850px;height:435px;background:#FFFFFF;" version="1.1" viewBox="0 0 850 435" width="850px" zoomAndPan="magnify"><?plantuml 1.2026.5?><defs/><g><!--cluster cerrarSesionClase--><g class="cluster" data-qualified-name="cerrarSesionClase" data-source-line="7" id="ent0004"><path d="M8.5,106.3 L164.8945,106.3 A3.75,3.75 0 0 1 167.3945,108.8 L174.3945,128.5969 L282.5,128.5969 A2.5,2.5 0 0 1 285,131.0969 L285,417.69 A2.5,2.5 0 0 1 282.5,420.19 L8.5,420.19 A2.5,2.5 0 0 1 6,417.69 L6,108.8 A2.5,2.5 0 0 1 8.5,106.3" fill="none" style="stroke:#000000;stroke-width:1.5;"/><line style="stroke:#000000;stroke-width:1.5;" x1="6" x2="174.3945" y1="128.5969" y2="128.5969"/><text fill="#000000" font-family="sans-serif" font-size="14" font-weight="700" lengthAdjust="spacing" textLength="155.3945" x="10" y="121.2951">cerrarSesionClase()</text></g><!--entity CerrarSesionView--><g class="entity" data-qualified-name="cerrarSesionClase.CerrarSesionView" data-source-line="8" id="ent0005"><rect fill="#629EF9" height="36.2969" rx="2.5" ry="2.5" style="stroke:#181818;stroke-width:0.5;" width="143.8877" x="125.06" y="141.3"/><text fill="#000000" font-family="sans-serif" font-size="14" lengthAdjust="spacing" textLength="123.8877" x="135.06" y="164.2951">CerrarSesionView</text></g><!--entity SesionClaseController--><g class="entity" data-qualified-name="cerrarSesionClase.SesionClaseController" data-source-line="9" id="ent0006"><rect fill="#B5BD68" height="36.2969" rx="2.5" ry="2.5" style="stroke:#181818;stroke-width:0.5;" width="173.4463" x="22.28" y="254.6"/><text fill="#000000" font-family="sans-serif" font-size="14" lengthAdjust="spacing" textLength="153.4463" x="32.28" y="277.5951">SesionClaseController</text></g><!--entity SesionClaseRepository--><g class="entity" data-qualified-name="cerrarSesionClase.SesionClaseRepository" data-source-line="10" id="ent0007"><rect fill="#F2AC4E" height="36.2969" rx="2.5" ry="2.5" style="stroke:#181818;stroke-width:0.5;" width="179.3457" x="22.33" y="367.89"/><text fill="#000000" font-family="sans-serif" font-size="14" lengthAdjust="spacing" textLength="159.3457" x="32.33" y="390.8851">SesionClaseRepository</text></g><!--entity SesionActiva--><g class="entity" data-qualified-name="SesionActiva" data-source-line="3" id="ent0001"><rect fill="#CDEBA5" height="36.2969" rx="2.5" ry="2.5" style="stroke:#181818;stroke-width:0.5;" width="187.0293" x="103.49" y="7"/><text fill="#000000" font-family="sans-serif" font-size="14" lengthAdjust="spacing" textLength="167.0293" x="113.49" y="29.9951">:SESION_CLASE_ACTIVA</text></g><!--entity SesionCerrada--><g class="entity" data-qualified-name="SesionCerrada" data-source-line="4" id="ent0002"><rect fill="#CDEBA5" height="36.2969" rx="2.5" ry="2.5" style="stroke:#181818;stroke-width:0.5;" width="203.8525" x="301.07" y="254.6"/><text fill="#000000" font-family="sans-serif" font-size="14" lengthAdjust="spacing" textLength="183.8525" x="311.07" y="277.5951">:SESION_CLASE_CERRADA</text></g><!--entity CompletarGestion--><g class="entity" data-qualified-name="CompletarGestion" data-source-line="5" id="ent0003"><rect fill="#CDEBA5" height="36.2969" rx="2.5" ry="2.5" style="stroke:#181818;stroke-width:0.5;" width="249.2363" x="540.38" y="254.6"/><text fill="#000000" font-family="sans-serif" font-size="14" lengthAdjust="spacing" textLength="229.2363" x="550.38" y="277.5951">:Collaboration CompletarGestion</text></g><!--link SesionActiva to CerrarSesionView--><g class="link" data-entity-1="ent0001" data-entity-2="ent0005" data-link-type="dependency" data-source-line="13" id="lnk8"><path d="M197,43.72 C197,69.02 197,110.46 197,135.81" fill="none" id="SesionActiva-to-CerrarSesionView" style="stroke:#181818;stroke-width:1;"/><polygon fill="#181818" points="197,140.81,201,131.81,197,135.81,193,131.81,197,140.81" style="stroke:#181818;stroke-width:1;stroke-linejoin:miter;stroke-miterlimit:10;"/><text fill="#000000" font-family="sans-serif" font-size="13" lengthAdjust="spacing" textLength="127.5435" x="198" y="86.3669">cerrarSesionClase()</text></g><!--link CerrarSesionView to SesionClaseController--><g class="link" data-entity-1="ent0005" data-entity-2="ent0006" data-link-type="dependency" data-source-line="15" id="lnk9"><path d="M183.25,177.84 C166.81,198.62 142.5605,229.2874 126.0405,250.1874" fill="none" id="CerrarSesionView-to-SesionClaseController" style="stroke:#181818;stroke-width:1;"/><polygon fill="#181818" points="122.94,254.11,131.659,249.5298,126.0405,250.1874,125.3829,244.5689,122.94,254.11" style="stroke:#181818;stroke-width:1;stroke-linejoin:miter;stroke-miterlimit:10;"/><text fill="#000000" font-family="sans-serif" font-size="13" lengthAdjust="spacing" textLength="158.1582" x="160" y="220.6669">finalizarSesion(sesionId)</text></g><!--link SesionClaseController to SesionClaseRepository--><g class="link" data-entity-1="ent0006" data-entity-2="ent0007" data-link-type="dependency" data-source-line="16" id="lnk10"><path d="M109.47,291.13 C110.03,311.92 110.8261,341.5118 111.3861,362.4118" fill="none" id="SesionClaseController-to-SesionClaseRepository" style="stroke:#181818;stroke-width:1;"/><polygon fill="#181818" points="111.52,367.41,115.2775,358.3061,111.3861,362.4118,107.2804,358.5204,111.52,367.41" style="stroke:#181818;stroke-width:1;stroke-linejoin:miter;stroke-miterlimit:10;"/><text fill="#000000" font-family="sans-serif" font-size="13" lengthAdjust="spacing" textLength="210.9834" x="112" y="333.9569">actualizarEstadoCierre(sesionId)</text></g><!--link CerrarSesionView to SesionCerrada--><g class="link" data-entity-1="ent0005" data-entity-2="ent0002" data-link-type="dependency" data-source-line="18" id="lnk11"><path d="M245.41,178 C282.37,191.41 327,207.6 327,207.6 C327,207.6 355.9099,231.9941 378.4099,250.9941" fill="none" id="CerrarSesionView-to-SesionCerrada" style="stroke:#181818;stroke-width:1;stroke-dasharray:7,7;"/><polygon fill="#181818" points="382.23,254.22,377.9345,245.3573,378.4099,250.9941,372.773,251.4695,382.23,254.22" style="stroke:#181818;stroke-width:1;stroke-linejoin:miter;stroke-miterlimit:10;"/><text fill="#000000" font-family="sans-serif" font-size="13" lengthAdjust="spacing" textLength="109.6367" x="347" y="220.6669">&#171;include&#187; [&#233;xito]</text></g><!--link CerrarSesionView to CompletarGestion--><g class="link" data-entity-1="ent0005" data-entity-2="ent0003" data-link-type="dependency" data-source-line="19" id="lnk12"><path d="M269.17,173.14 C348.55,187.11 465,207.6 465,207.6 C465,207.6 546.119,233.6128 605.319,252.6028" fill="none" id="CerrarSesionView-to-CompletarGestion" style="stroke:#181818;stroke-width:1;stroke-dasharray:7,7;"/><polygon fill="#181818" points="610.08,254.13,602.7319,247.5721,605.319,252.6028,600.2883,255.1898,610.08,254.13" style="stroke:#181818;stroke-width:1;stroke-linejoin:miter;stroke-miterlimit:10;"/><text fill="#000000" font-family="sans-serif" font-size="13" lengthAdjust="spacing" textLength="320.7344" x="514" y="220.6669">&#171;include&#187; completarGestion() [cancelaci&#243;n/error]</text></g><?plantuml-src XP7HQi8m58RlynI7xaOlT21JPf525-iGnWOwl16HOtecmPYK96vpOm-qwps2BxRMRL1hORq9FVd-Fn-9sqYTeSKjAAd9xpE2pAXzySEO9U5HhnN11HycDt4NWd2QJCSFzqj-5q-JPSmVnxCu07Gm9IUDZeMNp_X_a2UJIJmi9pbPYsbzb1kbS6Ki-Xm4RhQP8e_sbbmnE9PKXunbA3Qu9X15iVqzHA6Z0W_Eferc0EyCygzaqElqar4VU0cUINgfOglkAkrTGwcD6-rjRassoeuwCRzAoko4CkEaDtRFFXWhtoEqMj7PuI7Kk3DMnQ2Lvk5QfH2Uf4Obt_xuXZikuxJ9QWD7ZrhZ453utKzNuZocXijSX4gDvsRjTdJww24C1b8BjKifYc1--7pDonVrmUf3dsP5PRVHXBb0BKYXa8SlVPbN6hlu1W00?></g></svg>