<?plantuml 1.2026.1beta5?><svg xmlns="http://www.w3.org/2000/svg" xmlns:xlink="http://www.w3.org/1999/xlink" contentStyleType="text/css" data-diagram-type="STATE" height="1137px" preserveAspectRatio="none" style="width:877px;height:1137px;background:#FFFFFF;" version="1.1" viewBox="0 0 877 1137" width="877px" zoomAndPan="magnify"><title>Consultar Usuario</title><defs/><g><g class="title" data-source-line="1"><text fill="#000000" font-family="sans-serif" font-size="14" font-weight="bold" lengthAdjust="spacing" textLength="141.3125" x="358.0317" y="32.9951">Consultar Usuario</text></g><g><rect fill="#F1F1F1" height="76.2969" rx="12.5" ry="12.5" style="stroke:#181818;stroke-width:0.5;" width="181.1758" x="452.41" y="183.2969"/><line style="stroke:#181818;stroke-width:0.5;" x1="452.41" x2="633.5858" y1="229.5938" y2="229.5938"/><text fill="#000000" font-family="sans-serif" font-size="14" lengthAdjust="spacing" textLength="141.1758" x="472.41" y="211.292">USUARIOS_ABIERTO</text></g><path d="M234.13,359.5969 L851.8758,359.5969 A12.5,12.5 0 0 1 864.3758,372.0969 L864.3758,405.8938 L221.63,405.8938 L221.63,372.0969 A12.5,12.5 0 0 1 234.13,359.5969" fill="#F1F1F1"/><rect fill="none" height="271.5669" rx="12.5" ry="12.5" style="stroke:#181818;stroke-width:0.5;" width="642.7458" x="221.63" y="359.5969"/><line style="stroke:#181818;stroke-width:0.5;" x1="221.63" x2="864.3758" y1="405.8938" y2="405.8938"/><text fill="#000000" font-family="sans-serif" font-size="14" lengthAdjust="spacing" textLength="132.2891" x="476.8584" y="387.592">USUARIO_ABIERTO</text><g><rect fill="#F1F1F1" height="90.2656" rx="12.5" ry="12.5" style="stroke:#181818;stroke-width:0.5;" width="210.5498" x="233.63" y="472.8938"/><line style="stroke:#181818;stroke-width:0.5;" x1="233.63" x2="444.1798" y1="519.1906" y2="519.1906"/><text fill="#000000" font-family="sans-serif" font-size="14" lengthAdjust="spacing" textLength="170.5498" x="253.63" y="500.8889">Visualizaci&#243;n de Usuario</text><text fill="#000000" font-family="sans-serif" font-size="12" lengthAdjust="spacing" textLength="3.8145" x="248.63" y="545.3293">&#160;</text></g><ellipse cx="338.9" cy="426.8938" fill="#222222" rx="10" ry="10" style="stroke:#222222;stroke-width:1;"/><ellipse cx="338.9" cy="610.1638" fill="none" rx="11" ry="11" style="stroke:#222222;stroke-width:1;"/><ellipse cx="338.9" cy="610.1638" fill="#222222" rx="6" ry="6" style="stroke:#222222;stroke-width:1;"/><g class="entity" data-qualified-name="USUARIO_ABIERTO_COMP.GMN2" data-source-line="33" id="ent0003"><path d="M462.43,480.3338 L462.43,514.1638 L444.57,518.1638 L462.43,522.1638 L462.43,555.7322 A0,0 0 0 0 462.43,555.7322 L855.3758,555.7322 A0,0 0 0 0 855.3758,555.7322 L855.3758,490.3338 L845.3758,480.3338 L462.43,480.3338 A0,0 0 0 0 462.43,480.3338" fill="#FEFFDD" style="stroke:#181818;stroke-width:0.5;"/><path d="M845.3758,480.3338 L845.3758,490.3338 L855.3758,490.3338 L845.3758,480.3338" fill="#FEFFDD" style="stroke:#181818;stroke-width:0.5;"/><text fill="#000000" font-family="sans-serif" font-size="13" font-weight="bold" lengthAdjust="spacing" textLength="120.999" x="478.43" y="507.4006">Sistema permite</text><text fill="#000000" font-family="sans-serif" font-size="13" lengthAdjust="spacing" textLength="209.6948" x="603.5613" y="507.4006">la visualizaci&#243;n de credenciales.</text><text fill="#000000" font-family="sans-serif" font-size="13" font-weight="bold" lengthAdjust="spacing" textLength="162.1191" x="478.43" y="522.5335">Administrador solicita</text><text fill="#000000" font-family="sans-serif" font-size="13" lengthAdjust="spacing" textLength="185.6943" x="644.6815" y="522.5335">gestionar cambios mediante</text><text fill="#000000" font-family="sans-serif" font-size="13" font-weight="bold" lengthAdjust="spacing" textLength="111.979" x="478.43" y="537.6663">editarUsuario()</text><text fill="#000000" font-family="sans-serif" font-size="13" lengthAdjust="spacing" textLength="4.1323" x="590.409" y="537.6663">.</text></g><!--link *start*USUARIO_ABIERTO_COMP to VisualizacionDatos--><g class="link" data-entity-1="ent0005" data-entity-2="ent0005" data-link-type="dependency" data-source-line="30" id="lnk6"><path d="M338.9,437.3538 C338.9,446.1438 338.9,453.3538 338.9,466.5538" fill="none" id="*start*USUARIO_ABIERTO_COMP-to-VisualizacionDatos" style="stroke:#008000;stroke-width:1;"/><polygon fill="#008000" points="338.9,472.5538,342.9,463.5538,338.9,467.5538,334.9,463.5538,338.9,472.5538" style="stroke:#008000;stroke-width:1;"/></g><!--link VisualizacionDatos to *end*USUARIO_ABIERTO_COMP--><g class="link" data-entity-1="ent0005" data-entity-2="ent0007" data-link-type="dependency" data-source-line="39" id="lnk8"><path d="M338.9,563.5538 C338.9,576.6138 338.9,583.7238 338.9,592.7038" fill="none" id="VisualizacionDatos-to-*end*USUARIO_ABIERTO_COMP" style="stroke:#008000;stroke-width:1;"/><polygon fill="#008000" points="338.9,598.7038,342.9,589.7038,338.9,593.7038,334.9,589.7038,338.9,598.7038" style="stroke:#008000;stroke-width:1;"/></g><g><rect fill="#F1F1F1" height="76.2969" rx="12.5" ry="12.5" style="stroke:#181818;stroke-width:0.5;" width="181.1758" x="452.41" y="933.1569"/><line style="stroke:#181818;stroke-width:0.5;" x1="452.41" x2="633.5858" y1="979.4538" y2="979.4538"/><text fill="#000000" font-family="sans-serif" font-size="14" lengthAdjust="spacing" textLength="141.1758" x="472.41" y="961.152">USUARIOS_ABIERTO</text></g><ellipse cx="543" cy="73.2969" fill="#222222" rx="10" ry="10" style="stroke:#222222;stroke-width:1;"/><ellipse cx="543" cy="1120.4569" fill="none" rx="11" ry="11" style="stroke:#222222;stroke-width:1;"/><ellipse cx="543" cy="1120.4569" fill="#222222" rx="6" ry="6" style="stroke:#222222;stroke-width:1;"/><!--link *start* to USUARIOS_ABIERTO_INICIAL--><g class="link" data-entity-1="ent0002" data-entity-2="ent0002" data-link-type="dependency" data-source-line="13" id="lnk3"><path d="M543,83.4769 C543,103.6769 543,143.7469 543,177.1069" fill="none" id="*start*-to-USUARIOS_ABIERTO_INICIAL" style="stroke:#008000;stroke-width:1;"/><polygon fill="#008000" points="543,183.1069,547,174.1069,543,178.1069,539,174.1069,543,183.1069" style="stroke:#008000;stroke-width:1;"/></g><!--link USUARIOS_ABIERTO_INICIAL to USUARIO_ABIERTO_COMP--><g class="link" data-entity-1="ent0002" data-entity-2="ent0003" data-link-type="dependency" data-source-line="16" id="lnk4"><path d="M543,259.8269 C543,286.1069 543,316.6969 543,353.2069" fill="none" id="USUARIOS_ABIERTO_INICIAL-to-USUARIO_ABIERTO_COMP" style="stroke:#008000;stroke-width:1;"/><polygon fill="#008000" points="543,359.2069,547,350.2069,543,354.2069,539,350.2069,543,359.2069" style="stroke:#008000;stroke-width:1;"/><path d="M6,229.5169 L6,304.5169 L396,304.5169 L396,239.5169 L386,229.5169 L6,229.5169" fill="#FEFFDD" style="stroke:#181818;stroke-width:0.5;"/><path d="M386,229.5169 L386,239.5169 L396,239.5169 L386,229.5169" fill="#FEFFDD" style="stroke:#181818;stroke-width:0.5;"/><text fill="#000000" font-family="sans-serif" font-size="13" font-weight="bold" lengthAdjust="spacing" textLength="162.1191" x="22" y="256.5838">Administrador solicita</text><text fill="#000000" font-family="sans-serif" font-size="13" lengthAdjust="spacing" textLength="182.8315" x="188.2515" y="256.5838">ver el detalle de un usuario.</text><text fill="#000000" font-family="sans-serif" font-size="13" font-weight="bold" lengthAdjust="spacing" textLength="120.999" x="22" y="271.7166">Sistema permite</text><text fill="#000000" font-family="sans-serif" font-size="13" lengthAdjust="spacing" textLength="124.2109" x="147.1313" y="271.7166">el acceso a la ficha</text><text fill="#000000" font-family="sans-serif" font-size="13" lengthAdjust="spacing" textLength="235.4473" x="22" y="286.8494">completa (Datos, Roles y Permisos).</text><text fill="#000000" font-family="sans-serif" font-size="13" lengthAdjust="spacing" textLength="119.9199" x="412.083" y="271.7166">consultarUsuario()</text></g><!--link USUARIO_ABIERTO_COMP to USUARIOS_ABIERTO_FINAL--><g class="link" data-entity-1="ent0003" data-entity-2="ent0004" data-link-type="dependency" data-source-line="43" id="lnk9"><path d="M512.8,631.4369 C512.8,734.0469 512.8,861.8169 512.8,926.6769" fill="none" id="USUARIO_ABIERTO_COMP-to-USUARIOS_ABIERTO_FINAL" style="stroke:#008000;stroke-width:1;"/><polygon fill="#008000" points="512.8,932.6769,516.8,923.6769,512.8,927.6769,508.8,923.6769,512.8,932.6769" style="stroke:#008000;stroke-width:1;"/><path d="M49.8,687.0569 L49.8,777.0569 L374.8,777.0569 L374.8,697.0569 L364.8,687.0569 L49.8,687.0569" fill="#FEFFDD" style="stroke:#181818;stroke-width:0.5;"/><path d="M364.8,687.0569 L364.8,697.0569 L374.8,697.0569 L364.8,687.0569" fill="#FEFFDD" style="stroke:#181818;stroke-width:0.5;"/><text fill="#000000" font-family="sans-serif" font-size="13" font-weight="bold" lengthAdjust="spacing" textLength="77.3589" x="65.8" y="714.1238">GUARDAR:</text><text fill="#000000" font-family="sans-serif" font-size="13" font-weight="bold" lengthAdjust="spacing" textLength="162.1191" x="65.8" y="729.2566">Administrador solicita</text><text fill="#000000" font-family="sans-serif" font-size="13" lengthAdjust="spacing" textLength="118.3647" x="232.0515" y="729.2566">registrar cambios.</text><text fill="#000000" font-family="sans-serif" font-size="13" font-weight="bold" lengthAdjust="spacing" textLength="120.999" x="65.8" y="744.3894">Sistema permite</text><text fill="#000000" font-family="sans-serif" font-size="13" lengthAdjust="spacing" textLength="149.957" x="190.9313" y="744.3894">persistir la informaci&#243;n</text><text fill="#000000" font-family="sans-serif" font-size="13" lengthAdjust="spacing" textLength="155.0352" x="65.8" y="759.5222">actualizada del usuario.</text><text fill="#000000" font-family="sans-serif" font-size="13" lengthAdjust="spacing" textLength="110.9126" x="391.4162" y="736.823">guardarUsuario()</text></g><!--link USUARIO_ABIERTO_COMP to USUARIOS_ABIERTO_FINAL--><g class="link" data-entity-1="ent0003" data-entity-2="ent0004" data-link-type="dependency" data-source-line="51" id="lnk10"><path d="M573.2,631.4369 C573.2,734.0469 573.2,861.8169 573.2,926.6769" fill="none" id="USUARIO_ABIERTO_COMP-to-USUARIOS_ABIERTO_FINAL-1" style="stroke:#FF0000;stroke-width:1;"/><polygon fill="#FF0000" points="573.2,932.6769,577.2,923.6769,573.2,927.6769,569.2,923.6769,573.2,932.6769" style="stroke:#FF0000;stroke-width:1;"/><text fill="#000000" font-family="sans-serif" font-size="13" lengthAdjust="spacing" textLength="98.6934" x="143.2" y="836.823">cerrarUsuario()</text><path d="M257.8934,787.0569 L257.8934,877.0569 L567.8934,877.0569 L567.8934,797.0569 L557.8934,787.0569 L257.8934,787.0569" fill="#FEFFDD" style="stroke:#181818;stroke-width:0.5;"/><path d="M557.8934,787.0569 L557.8934,797.0569 L567.8934,797.0569 L557.8934,787.0569" fill="#FEFFDD" style="stroke:#181818;stroke-width:0.5;"/><text fill="#000000" font-family="sans-serif" font-size="13" font-weight="bold" lengthAdjust="spacing" textLength="63.7114" x="273.8934" y="814.1238">CERRAR:</text><text fill="#000000" font-family="sans-serif" font-size="13" font-weight="bold" lengthAdjust="spacing" textLength="162.1191" x="273.8934" y="829.2566">Administrador solicita</text><text fill="#000000" font-family="sans-serif" font-size="13" lengthAdjust="spacing" textLength="103.2065" x="440.1448" y="829.2566">salir de la ficha.</text><text fill="#000000" font-family="sans-serif" font-size="13" font-weight="bold" lengthAdjust="spacing" textLength="120.999" x="273.8934" y="844.3894">Sistema permite</text><text fill="#000000" font-family="sans-serif" font-size="13" lengthAdjust="spacing" textLength="103.4033" x="399.0247" y="844.3894">volver al listado</text><text fill="#000000" font-family="sans-serif" font-size="13" lengthAdjust="spacing" textLength="182.8315" x="273.8934" y="859.5222">general sin aplicar cambios.</text></g><!--link USUARIOS_ABIERTO_FINAL to *end*--><g class="link" data-entity-1="ent0004" data-entity-2="ent0011" data-link-type="dependency" data-source-line="59" id="lnk12"><path d="M543,1009.7169 C543,1042.6869 543,1082.1069 543,1103.0369" fill="none" id="USUARIOS_ABIERTO_FINAL-to-*end*" style="stroke:#0000FF;stroke-width:1;"/><polygon fill="#0000FF" points="543,1109.0369,547,1100.0369,543,1104.0369,539,1100.0369,543,1109.0369" style="stroke:#0000FF;stroke-width:1;"/></g><?plantuml-src ZLJBRben4DtVhnYbYoIefEaMHP4e8T6LKeWWT1D5qM0RcCRNHhP1Igj-HR-Ywtu2FzQnkS1DU3Gi48nzndFEcPb0GIjeMUDdEg23WP-X8vjbnr2lrw7LxLpdDuDUivKlVdVWgWtj_dr-sus7cNycCqM71HWhbLTJ-7n-3fMmG_DSXYjHJKQ5bwa2wyB4LWxkK4eoOxwUPJvWK33e3vgzlDj_Qdx9sxtxxbFUoLjvynRGmz7RmwFNe3McrVrw1_ofOFP0DkzSvnr-1VQyaptK7g7-y67ib3AFzSkzTKOPsoOub0YeGQg0ckMMIiEi57elnHtvNrDgW5ZPLhfsSfePotIq6WMm9Yhzd4Ng5yFBfYp8a8-rM0VUQX8KyEBJy1Bcoe6gLWSpiwhlR8NlCrOL25Fb2Weg0Hc4GYXl0K4ZZ4XC4190s6AgEH-SN66m_YFqh5OUNk0kmhtrfsUPCX9YkL6a5j_dTi22b0aMo0JbZ4r2ARP8sfHnnh_j8PT_fiUN5xuHCz3q0mLPawf8RbR2YxycaYt5EqhOz7KCJH5eJX9bMGhpvXQ50lcVORc4dIYdZ224iFWZ30bCo1sFDZPvtxRDzktDtMIae_64dHpjktd06_PZlaLLE2LJrMp6MJN3WUuOi-ZyAEy6WSMGc56X94KXrWbgDOvKsx1MMsPVMroHzbhFlblmn0r2t37Hsmb68RbYp-NAlKfMfMCfir-nS_e9ufdTY1cmQ-YpdRsnGTTtJUnouXimPWhoNHDrmnckchr6LEaTK-RKE1siTJmuMlpRSvXSb8NCoBgYj36XK8IbEhnOAjkaEbJxHE0M-8y4GZctfK3PYgybQBLxlVSh4DrriGrNk-AW0dEhusBYjQbfkGBIxN6SFmvwCe3SGg8gw1Rxj-IO_r3FLDb1_m00?></g></svg>
