<?plantuml 1.2026.1beta5?><svg xmlns="http://www.w3.org/2000/svg" xmlns:xlink="http://www.w3.org/1999/xlink" contentStyleType="text/css" data-diagram-type="STATE" height="1152px" preserveAspectRatio="none" style="width:822px;height:1152px;background:#FFFFFF;" version="1.1" viewBox="0 0 822 1152" width="822px" zoomAndPan="magnify"><title>Crear Usuario</title><defs/><g><g class="title" data-source-line="1"><text fill="#000000" font-family="sans-serif" font-size="14" font-weight="bold" lengthAdjust="spacing" textLength="108.3359" x="347.0038" y="32.9951">Crear Usuario</text></g><g><rect fill="#F1F1F1" height="76.2969" rx="12.5" ry="12.5" style="stroke:#181818;stroke-width:0.5;" width="181.1758" x="436.22" y="183.2969"/><line style="stroke:#181818;stroke-width:0.5;" x1="436.22" x2="617.3958" y1="229.5938" y2="229.5938"/><text fill="#000000" font-family="sans-serif" font-size="14" lengthAdjust="spacing" textLength="141.1758" x="456.22" y="211.292">USUARIOS_ABIERTO</text></g><path d="M256.76,359.5969 L796.8436,359.5969 A12.5,12.5 0 0 1 809.3436,372.0969 L809.3436,405.8937 L244.26,405.8937 L244.26,372.0969 A12.5,12.5 0 0 1 256.76,359.5969" fill="#F1F1F1"/><rect fill="none" height="286.9569" rx="12.5" ry="12.5" style="stroke:#181818;stroke-width:0.5;" width="565.0836" x="244.26" y="359.5969"/><line style="stroke:#181818;stroke-width:0.5;" x1="244.26" x2="809.3436" y1="405.8937" y2="405.8937"/><text fill="#000000" font-family="sans-serif" font-size="14" lengthAdjust="spacing" textLength="132.2891" x="460.6573" y="387.592">USUARIO_ABIERTO</text><g><rect fill="#F1F1F1" height="90.2656" rx="12.5" ry="12.5" style="stroke:#181818;stroke-width:0.5;" width="170.252" x="256.26" y="480.5937"/><line style="stroke:#181818;stroke-width:0.5;" x1="256.26" x2="426.512" y1="526.8906" y2="526.8906"/><text fill="#000000" font-family="sans-serif" font-size="14" lengthAdjust="spacing" textLength="130.252" x="276.26" y="508.5889">Edici&#243;n de Usuario</text><text fill="#000000" font-family="sans-serif" font-size="12" lengthAdjust="spacing" textLength="3.8145" x="271.26" y="553.0293">&#160;</text></g><ellipse cx="341.39" cy="426.8937" fill="#222222" rx="10" ry="10" style="stroke:#222222;stroke-width:1;"/><ellipse cx="341.39" cy="625.5537" fill="none" rx="11" ry="11" style="stroke:#222222;stroke-width:1;"/><ellipse cx="341.39" cy="625.5537" fill="#222222" rx="6" ry="6" style="stroke:#222222;stroke-width:1;"/><g class="entity" data-qualified-name="USUARIO_ABIERTO_COMP.GMN2" data-source-line="34" id="ent0003"><path d="M444.43,472.8937 L444.43,522.5537 L426.84,526.5537 L444.43,530.5537 L444.43,578.5578 A0,0 0 0 0 444.43,578.5578 L800.3436,578.5578 A0,0 0 0 0 800.3436,578.5578 L800.3436,482.8937 L790.3436,472.8937 L444.43,472.8937 A0,0 0 0 0 444.43,472.8937" fill="#FEFFDD" style="stroke:#181818;stroke-width:0.5;"/><path d="M790.3436,472.8937 L790.3436,482.8937 L800.3436,482.8937 L790.3436,472.8937" fill="#FEFFDD" style="stroke:#181818;stroke-width:0.5;"/><text fill="#000000" font-family="sans-serif" font-size="13" font-weight="bold" lengthAdjust="spacing" textLength="162.1191" x="460.43" y="499.9606">Administrador solicita</text><text fill="#000000" font-family="sans-serif" font-size="13" lengthAdjust="spacing" textLength="148.6621" x="626.6815" y="499.9606">introducir informaci&#243;n:</text><text fill="#000000" font-family="sans-serif" font-size="13" lengthAdjust="spacing" textLength="177.5884" x="460.43" y="515.0935">&#8226; Credenciales (User/Pass).</text><text fill="#000000" font-family="sans-serif" font-size="13" lengthAdjust="spacing" textLength="179.6895" x="460.43" y="530.2263">&#8226; Datos Personales y Roles.</text><text fill="#000000" font-family="sans-serif" font-size="13" font-weight="bold" lengthAdjust="spacing" textLength="120.999" x="460.43" y="545.3591">Sistema permite</text><text fill="#000000" font-family="sans-serif" font-size="13" lengthAdjust="spacing" textLength="118.3457" x="585.5613" y="545.3591">la carga mediante</text><text fill="#000000" font-family="sans-serif" font-size="13" font-weight="bold" lengthAdjust="spacing" textLength="111.979" x="460.43" y="560.4919">editarUsuario()</text><text fill="#000000" font-family="sans-serif" font-size="13" lengthAdjust="spacing" textLength="4.1323" x="572.409" y="560.4919">.</text></g><!--link *start*USUARIO_ABIERTO_COMP to FormularioRegistro--><g class="link" data-entity-1="ent0005" data-entity-2="ent0005" data-link-type="dependency" data-source-line="31" id="lnk6"><path d="M341.39,437.0937 C341.39,447.4537 341.39,458.2237 341.39,474.4037" fill="none" id="*start*USUARIO_ABIERTO_COMP-to-FormularioRegistro" style="stroke:#008000;stroke-width:1;"/><polygon fill="#008000" points="341.39,480.4037,345.39,471.4037,341.39,475.4037,337.39,471.4037,341.39,480.4037" style="stroke:#008000;stroke-width:1;"/></g><!--link FormularioRegistro to *end*USUARIO_ABIERTO_COMP--><g class="link" data-entity-1="ent0005" data-entity-2="ent0007" data-link-type="dependency" data-source-line="41" id="lnk8"><path d="M341.39,571.2537 C341.39,587.0937 341.39,597.5238 341.39,608.1038" fill="none" id="FormularioRegistro-to-*end*USUARIO_ABIERTO_COMP" style="stroke:#008000;stroke-width:1;"/><polygon fill="#008000" points="341.39,614.1038,345.39,605.1038,341.39,609.1038,337.39,605.1038,341.39,614.1038" style="stroke:#008000;stroke-width:1;"/></g><g><rect fill="#F1F1F1" height="76.2969" rx="12.5" ry="12.5" style="stroke:#181818;stroke-width:0.5;" width="181.1758" x="436.22" y="948.5469"/><line style="stroke:#181818;stroke-width:0.5;" x1="436.22" x2="617.3958" y1="994.8438" y2="994.8438"/><text fill="#000000" font-family="sans-serif" font-size="14" lengthAdjust="spacing" textLength="141.1758" x="456.22" y="976.542">USUARIOS_ABIERTO</text></g><ellipse cx="526.8" cy="73.2969" fill="#222222" rx="10" ry="10" style="stroke:#222222;stroke-width:1;"/><ellipse cx="526.8" cy="1135.8469" fill="none" rx="11" ry="11" style="stroke:#222222;stroke-width:1;"/><ellipse cx="526.8" cy="1135.8469" fill="#222222" rx="6" ry="6" style="stroke:#222222;stroke-width:1;"/><!--link *start* to USUARIOS_ABIERTO_INICIAL--><g class="link" data-entity-1="ent0002" data-entity-2="ent0002" data-link-type="dependency" data-source-line="14" id="lnk3"><path d="M526.8,83.4769 C526.8,103.6769 526.8,143.7469 526.8,177.1069" fill="none" id="*start*-to-USUARIOS_ABIERTO_INICIAL" style="stroke:#008000;stroke-width:1;"/><polygon fill="#008000" points="526.8,183.1069,530.8,174.1069,526.8,178.1069,522.8,174.1069,526.8,183.1069" style="stroke:#008000;stroke-width:1;"/></g><!--link USUARIOS_ABIERTO_INICIAL to USUARIO_ABIERTO_COMP--><g class="link" data-entity-1="ent0002" data-entity-2="ent0003" data-link-type="dependency" data-source-line="17" id="lnk4"><path d="M526.8,260.0169 C526.8,286.1469 526.8,316.4869 526.8,353.1069" fill="none" id="USUARIOS_ABIERTO_INICIAL-to-USUARIO_ABIERTO_COMP" style="stroke:#008000;stroke-width:1;"/><polygon fill="#008000" points="526.8,359.1069,530.8,350.1069,526.8,354.1069,522.8,350.1069,526.8,359.1069" style="stroke:#008000;stroke-width:1;"/><path d="M44.8,229.5569 L44.8,304.5569 L406.8,304.5569 L406.8,239.5569 L396.8,229.5569 L44.8,229.5569" fill="#FEFFDD" style="stroke:#181818;stroke-width:0.5;"/><path d="M396.8,229.5569 L396.8,239.5569 L406.8,239.5569 L396.8,229.5569" fill="#FEFFDD" style="stroke:#181818;stroke-width:0.5;"/><text fill="#000000" font-family="sans-serif" font-size="13" font-weight="bold" lengthAdjust="spacing" textLength="162.1191" x="60.8" y="256.6238">Administrador solicita</text><text fill="#000000" font-family="sans-serif" font-size="13" lengthAdjust="spacing" textLength="155.0605" x="227.0515" y="256.6238">crear un nuevo usuario.</text><text fill="#000000" font-family="sans-serif" font-size="13" font-weight="bold" lengthAdjust="spacing" textLength="120.999" x="60.8" y="271.7566">Sistema permite</text><text fill="#000000" font-family="sans-serif" font-size="13" lengthAdjust="spacing" textLength="168.2192" x="185.9313" y="271.7566">el acceso al formulario de</text><text fill="#000000" font-family="sans-serif" font-size="13" lengthAdjust="spacing" textLength="259.2446" x="60.8" y="286.8894">registro (Contexto: USUARIO_ABIERTO).</text><text fill="#000000" font-family="sans-serif" font-size="13" lengthAdjust="spacing" textLength="93.3486" x="423.112" y="271.7566">crearUsuario()</text></g><!--link USUARIO_ABIERTO_COMP to USUARIOS_ABIERTO_FINAL--><g class="link" data-entity-1="ent0003" data-entity-2="ent0004" data-link-type="dependency" data-source-line="45" id="lnk9"><path d="M496.61,646.8669 C496.61,750.7269 496.61,877.6169 496.61,942.1169" fill="none" id="USUARIO_ABIERTO_COMP-to-USUARIOS_ABIERTO_FINAL" style="stroke:#008000;stroke-width:1;"/><polygon fill="#008000" points="496.61,948.1169,500.61,939.1169,496.61,943.1169,492.61,939.1169,496.61,948.1169" style="stroke:#008000;stroke-width:1;"/><path d="M29.61,702.4969 L29.61,792.4969 L358.61,792.4969 L358.61,712.4969 L348.61,702.4969 L29.61,702.4969" fill="#FEFFDD" style="stroke:#181818;stroke-width:0.5;"/><path d="M348.61,702.4969 L348.61,712.4969 L358.61,712.4969 L348.61,702.4969" fill="#FEFFDD" style="stroke:#181818;stroke-width:0.5;"/><text fill="#000000" font-family="sans-serif" font-size="13" font-weight="bold" lengthAdjust="spacing" textLength="77.3589" x="45.61" y="729.5638">GUARDAR:</text><text fill="#000000" font-family="sans-serif" font-size="13" font-weight="bold" lengthAdjust="spacing" textLength="162.1191" x="45.61" y="744.6966">Administrador solicita</text><text fill="#000000" font-family="sans-serif" font-size="13" lengthAdjust="spacing" textLength="104.3809" x="211.8615" y="744.6966">registrar el alta.</text><text fill="#000000" font-family="sans-serif" font-size="13" font-weight="bold" lengthAdjust="spacing" textLength="120.999" x="45.61" y="759.8294">Sistema permite</text><text fill="#000000" font-family="sans-serif" font-size="13" lengthAdjust="spacing" textLength="163.6235" x="170.7413" y="759.8294">guardar el nuevo usuario</text><text fill="#000000" font-family="sans-serif" font-size="13" lengthAdjust="spacing" textLength="137.5283" x="45.61" y="774.9622">y actualiza el listado.</text><text fill="#000000" font-family="sans-serif" font-size="13" lengthAdjust="spacing" textLength="110.9126" x="375.3649" y="752.263">guardarUsuario()</text></g><!--link USUARIO_ABIERTO_COMP to USUARIOS_ABIERTO_FINAL--><g class="link" data-entity-1="ent0003" data-entity-2="ent0004" data-link-type="dependency" data-source-line="53" id="lnk10"><path d="M557,646.8669 C557,750.7269 557,877.6169 557,942.1169" fill="none" id="USUARIO_ABIERTO_COMP-to-USUARIOS_ABIERTO_FINAL-1" style="stroke:#FF0000;stroke-width:1;"/><polygon fill="#FF0000" points="557,948.1169,561,939.1169,557,943.1169,553,939.1169,557,948.1169" style="stroke:#FF0000;stroke-width:1;"/><text fill="#000000" font-family="sans-serif" font-size="13" lengthAdjust="spacing" textLength="98.6934" x="17" y="852.263">cerrarUsuario()</text><path d="M131.6934,802.4969 L131.6934,892.4969 L551.6934,892.4969 L551.6934,812.4969 L541.6934,802.4969 L131.6934,802.4969" fill="#FEFFDD" style="stroke:#181818;stroke-width:0.5;"/><path d="M541.6934,802.4969 L541.6934,812.4969 L551.6934,812.4969 L541.6934,802.4969" fill="#FEFFDD" style="stroke:#181818;stroke-width:0.5;"/><text fill="#000000" font-family="sans-serif" font-size="13" font-weight="bold" lengthAdjust="spacing" textLength="63.7114" x="147.6934" y="829.5638">CERRAR:</text><text fill="#000000" font-family="sans-serif" font-size="13" font-weight="bold" lengthAdjust="spacing" textLength="162.1191" x="147.6934" y="844.6966">Administrador solicita</text><text fill="#000000" font-family="sans-serif" font-size="13" lengthAdjust="spacing" textLength="213.167" x="313.9448" y="844.6966">cerrar, pero no evita la creaci&#243;n.</text><text fill="#000000" font-family="sans-serif" font-size="13" font-weight="bold" lengthAdjust="spacing" textLength="120.999" x="147.6934" y="859.8294">Sistema permite</text><text fill="#000000" font-family="sans-serif" font-size="13" lengthAdjust="spacing" textLength="124.5347" x="272.8247" y="859.8294">descartar los datos</text><text fill="#000000" font-family="sans-serif" font-size="13" lengthAdjust="spacing" textLength="38.2319" x="147.6934" y="874.9622">extra.</text></g><!--link USUARIOS_ABIERTO_FINAL to *end*--><g class="link" data-entity-1="ent0004" data-entity-2="ent0011" data-link-type="dependency" data-source-line="61" id="lnk12"><path d="M526.8,1025.1069 C526.8,1058.0769 526.8,1097.4969 526.8,1118.4269" fill="none" id="USUARIOS_ABIERTO_FINAL-to-*end*" style="stroke:#0000FF;stroke-width:1;"/><polygon fill="#0000FF" points="526.8,1124.4269,530.8,1115.4269,526.8,1119.4269,522.8,1115.4269,526.8,1124.4269" style="stroke:#0000FF;stroke-width:1;"/></g><?plantuml-src ZLN1JXin4BtlLupe0H8rWLuZXBJT1BGI9D66d112PZq95buxihq8MbNgF_GFUkkvdy2Vz4iwzYx99YH03WJPysRclNdZEE4aGcAG6PZQaXcX8OhseTFfG38QdgPdqonEqkTVG-WFO32vJCz7_ZAozq8jc645ACtHuWA-71r1uzWmTLyVDqwbKEYU5WZQk3lTk1WppeMQKxWltyUPK28NptyLS8I1TOnh2nSiDmHop25C9zCuIqUJc_XhEiWkHpVfC4tI-1o0MTZRlDrRHor1oUXY3E7JGEq0hKgTfaDVQ5UfwAfz3PshJtE3gAux9pjxzLGlIIXRKmsScOnsSjkIT9rA3t8_otgK1wr8QI8WSUP0Aw_-VUJxFhuzYNb1vQmpfAm1goMLTkpuyFQaIW6b0bNYWuQoIjPzGKu8XGM31Pf2E0mGbC3o7Aq69c6cJL7Au2KQNe0PdFjQ6WuIhHm-EjtR9D3gHgWu-8QzBeak5cGILWXKJfCq3eqYV8Qb4r9yOufhNpRNAiU52wK6l1AozTQqluU6ge3JPQVPIuD-f2zvVCvQohs02d_s8SwTU12SyRejHe4IYkS_JdCTOhOaxgqoRFhZTVGgDWpGYFaTJN2sA_BzcLAZHlCo5uR-zGDYWM5l2V_tyxT_1pWgRq6qS32rQ0x7pDfMTosgpnpjuXYDrIf4Fa6cwRlRR6MRIII3d9avWmAvOAJS4j1kqubh-BRThh8j7R7KOukoJIb9skY7zy-4IPgGfSdufuJcnMoqrGyhT6VRgbQxteCvTSO_j5bdbA4VPptF-GFRLgy6RPnV8kdOcujMj-5ZrxOpO9ve2Lt9_7Ru02d2kzdSgrqAqE3VuP-ZCQ_erxvSvvyCikpZzAkydpr9JKq2Fj1Di0gzGi6ZR-f1lptaAR8EI38bzzQiZFD8nROmtoH6t6zbYRLr_WC0?></g></svg>
