<?plantuml 1.2026.1beta5?><svg xmlns="http://www.w3.org/2000/svg" xmlns:xlink="http://www.w3.org/1999/xlink" contentStyleType="text/css" data-diagram-type="STATE" height="1137px" preserveAspectRatio="none" style="width:906px;height:1137px;background:#FFFFFF;" version="1.1" viewBox="0 0 906 1137" width="906px" zoomAndPan="magnify"><title>Editar Usuario</title><defs/><g><g class="title" data-source-line="1"><text fill="#000000" font-family="sans-serif" font-size="14" font-weight="bold" lengthAdjust="spacing" textLength="112.7383" x="386.8672" y="32.9951">Editar Usuario</text></g><g><rect fill="#F1F1F1" height="76.2969" rx="12.5" ry="12.5" style="stroke:#181818;stroke-width:0.5;" width="181.1758" x="513.41" y="183.2969"/><line style="stroke:#181818;stroke-width:0.5;" x1="513.41" x2="694.5858" y1="229.5938" y2="229.5938"/><text fill="#000000" font-family="sans-serif" font-size="14" lengthAdjust="spacing" textLength="141.1758" x="533.41" y="211.292">USUARIOS_ABIERTO</text></g><path d="M327.02,359.5969 L880.9726,359.5969 A12.5,12.5 0 0 1 893.4726,372.0969 L893.4726,405.8938 L314.52,405.8938 L314.52,372.0969 A12.5,12.5 0 0 1 327.02,359.5969" fill="#F1F1F1"/><rect fill="none" height="271.5669" rx="12.5" ry="12.5" style="stroke:#181818;stroke-width:0.5;" width="578.9526" x="314.52" y="359.5969"/><line style="stroke:#181818;stroke-width:0.5;" x1="314.52" x2="893.4726" y1="405.8938" y2="405.8938"/><text fill="#000000" font-family="sans-serif" font-size="14" lengthAdjust="spacing" textLength="132.2891" x="537.8518" y="387.592">USUARIO_ABIERTO</text><g><rect fill="#F1F1F1" height="90.2656" rx="12.5" ry="12.5" style="stroke:#181818;stroke-width:0.5;" width="170.252" x="326.52" y="472.8938"/><line style="stroke:#181818;stroke-width:0.5;" x1="326.52" x2="496.772" y1="519.1906" y2="519.1906"/><text fill="#000000" font-family="sans-serif" font-size="14" lengthAdjust="spacing" textLength="130.252" x="346.52" y="500.8889">Edici&#243;n de Usuario</text><text fill="#000000" font-family="sans-serif" font-size="12" lengthAdjust="spacing" textLength="90.293" x="341.52" y="545.3293">editarUsuario()</text></g><ellipse cx="411.65" cy="426.8938" fill="#222222" rx="10" ry="10" style="stroke:#222222;stroke-width:1;"/><ellipse cx="411.65" cy="610.1638" fill="none" rx="11" ry="11" style="stroke:#222222;stroke-width:1;"/><ellipse cx="411.65" cy="610.1638" fill="#222222" rx="6" ry="6" style="stroke:#222222;stroke-width:1;"/><g class="entity" data-qualified-name="USUARIO_ABIERTO_COMP.GMN2" data-source-line="34" id="ent0003"><path d="M514.81,480.3338 L514.81,514.1638 L496.89,518.1638 L514.81,522.1638 L514.81,555.7322 A0,0 0 0 0 514.81,555.7322 L884.4726,555.7322 A0,0 0 0 0 884.4726,555.7322 L884.4726,490.3338 L874.4726,480.3338 L514.81,480.3338 A0,0 0 0 0 514.81,480.3338" fill="#FEFFDD" style="stroke:#181818;stroke-width:0.5;"/><path d="M874.4726,480.3338 L874.4726,490.3338 L884.4726,490.3338 L874.4726,480.3338" fill="#FEFFDD" style="stroke:#181818;stroke-width:0.5;"/><text fill="#000000" font-family="sans-serif" font-size="13" font-weight="bold" lengthAdjust="spacing" textLength="162.1191" x="530.81" y="507.4006">Administrador solicita</text><text fill="#000000" font-family="sans-serif" font-size="13" lengthAdjust="spacing" textLength="162.4111" x="697.0615" y="507.4006">modificar la informaci&#243;n.</text><text fill="#000000" font-family="sans-serif" font-size="13" font-weight="bold" lengthAdjust="spacing" textLength="120.999" x="530.81" y="522.5335">Sistema permite</text><text fill="#000000" font-family="sans-serif" font-size="13" lengthAdjust="spacing" textLength="178.9023" x="655.9413" y="522.5335">la carga de datos mediante</text><text fill="#000000" font-family="sans-serif" font-size="13" font-weight="bold" lengthAdjust="spacing" textLength="111.979" x="530.81" y="537.6663">editarUsuario()</text><text fill="#000000" font-family="sans-serif" font-size="13" lengthAdjust="spacing" textLength="4.1323" x="642.789" y="537.6663">.</text></g><!--link *start*USUARIO_ABIERTO_COMP to ModificacionDatos--><g class="link" data-entity-1="ent0005" data-entity-2="ent0005" data-link-type="dependency" data-source-line="31" id="lnk6"><path d="M411.65,437.3538 C411.65,446.1438 411.65,453.3538 411.65,466.5538" fill="none" id="*start*USUARIO_ABIERTO_COMP-to-ModificacionDatos" style="stroke:#008000;stroke-width:1;"/><polygon fill="#008000" points="411.65,472.5538,415.65,463.5538,411.65,467.5538,407.65,463.5538,411.65,472.5538" style="stroke:#008000;stroke-width:1;"/></g><!--link ModificacionDatos to *end*USUARIO_ABIERTO_COMP--><g class="link" data-entity-1="ent0005" data-entity-2="ent0007" data-link-type="dependency" data-source-line="39" id="lnk8"><path d="M411.65,563.5538 C411.65,576.6138 411.65,583.7238 411.65,592.7038" fill="none" id="ModificacionDatos-to-*end*USUARIO_ABIERTO_COMP" style="stroke:#008000;stroke-width:1;"/><polygon fill="#008000" points="411.65,598.7038,415.65,589.7038,411.65,593.7038,407.65,589.7038,411.65,598.7038" style="stroke:#008000;stroke-width:1;"/></g><g><rect fill="#F1F1F1" height="76.2969" rx="12.5" ry="12.5" style="stroke:#181818;stroke-width:0.5;" width="181.1758" x="513.41" y="933.1569"/><line style="stroke:#181818;stroke-width:0.5;" x1="513.41" x2="694.5858" y1="979.4538" y2="979.4538"/><text fill="#000000" font-family="sans-serif" font-size="14" lengthAdjust="spacing" textLength="141.1758" x="533.41" y="961.152">USUARIOS_ABIERTO</text></g><ellipse cx="604" cy="73.2969" fill="#222222" rx="10" ry="10" style="stroke:#222222;stroke-width:1;"/><ellipse cx="604" cy="1120.4569" fill="none" rx="11" ry="11" style="stroke:#222222;stroke-width:1;"/><ellipse cx="604" cy="1120.4569" fill="#222222" rx="6" ry="6" style="stroke:#222222;stroke-width:1;"/><!--link *start* to USUARIOS_ABIERTO_LISTADO--><g class="link" data-entity-1="ent0002" data-entity-2="ent0002" data-link-type="dependency" data-source-line="14" id="lnk3"><path d="M604,83.4769 C604,103.6769 604,143.7469 604,177.1069" fill="none" id="*start*-to-USUARIOS_ABIERTO_LISTADO" style="stroke:#008000;stroke-width:1;"/><polygon fill="#008000" points="604,183.1069,608,174.1069,604,178.1069,600,174.1069,604,183.1069" style="stroke:#008000;stroke-width:1;"/></g><!--link USUARIOS_ABIERTO_LISTADO to USUARIO_ABIERTO_COMP--><g class="link" data-entity-1="ent0002" data-entity-2="ent0003" data-link-type="dependency" data-source-line="17" id="lnk4"><path d="M604,259.8269 C604,286.1069 604,316.6969 604,353.2069" fill="none" id="USUARIOS_ABIERTO_LISTADO-to-USUARIO_ABIERTO_COMP" style="stroke:#008000;stroke-width:1;"/><polygon fill="#008000" points="604,359.2069,608,350.2069,604,354.2069,600,350.2069,604,359.2069" style="stroke:#008000;stroke-width:1;"/><path d="M6,229.5169 L6,304.5169 L351,304.5169 L351,239.5169 L341,229.5169 L6,229.5169" fill="#FEFFDD" style="stroke:#181818;stroke-width:0.5;"/><path d="M341,229.5169 L341,239.5169 L351,239.5169 L341,229.5169" fill="#FEFFDD" style="stroke:#181818;stroke-width:0.5;"/><text fill="#000000" font-family="sans-serif" font-size="13" font-weight="bold" lengthAdjust="spacing" textLength="162.1191" x="22" y="256.5838">Administrador solicita</text><text fill="#000000" font-family="sans-serif" font-size="13" lengthAdjust="spacing" textLength="138.2393" x="188.2515" y="256.5838">gestionar un usuario.</text><text fill="#000000" font-family="sans-serif" font-size="13" font-weight="bold" lengthAdjust="spacing" textLength="120.999" x="22" y="271.7166">Sistema permite</text><text fill="#000000" font-family="sans-serif" font-size="13" lengthAdjust="spacing" textLength="124.2109" x="147.1313" y="271.7166">el acceso a la ficha</text><text fill="#000000" font-family="sans-serif" font-size="13" lengthAdjust="spacing" textLength="204.7373" x="22" y="286.8494">(Contexto: USUARIO_ABIERTO).</text><text fill="#000000" font-family="sans-serif" font-size="13" lengthAdjust="spacing" textLength="225.9131" x="367.4907" y="271.7166">crearUsuario() / consultarUsuario()</text></g><!--link USUARIO_ABIERTO_COMP to USUARIOS_ABIERTO_FINAL--><g class="link" data-entity-1="ent0003" data-entity-2="ent0004" data-link-type="dependency" data-source-line="43" id="lnk9"><path d="M573.8,631.4369 C573.8,734.0469 573.8,861.8169 573.8,926.6769" fill="none" id="USUARIO_ABIERTO_COMP-to-USUARIOS_ABIERTO_FINAL" style="stroke:#008000;stroke-width:1;"/><polygon fill="#008000" points="573.8,932.6769,577.8,923.6769,573.8,927.6769,569.8,923.6769,573.8,932.6769" style="stroke:#008000;stroke-width:1;"/><path d="M126.8,702.0569 L126.8,777.0569 L435.8,777.0569 L435.8,712.0569 L425.8,702.0569 L126.8,702.0569" fill="#FEFFDD" style="stroke:#181818;stroke-width:0.5;"/><path d="M425.8,702.0569 L425.8,712.0569 L435.8,712.0569 L425.8,702.0569" fill="#FEFFDD" style="stroke:#181818;stroke-width:0.5;"/><text fill="#000000" font-family="sans-serif" font-size="13" font-weight="bold" lengthAdjust="spacing" textLength="77.3589" x="142.8" y="729.1238">GUARDAR:</text><text fill="#000000" font-family="sans-serif" font-size="13" font-weight="bold" lengthAdjust="spacing" textLength="162.1191" x="142.8" y="744.2566">Administrador solicita</text><text fill="#000000" font-family="sans-serif" font-size="13" lengthAdjust="spacing" textLength="101.9878" x="309.0515" y="744.2566">salvar cambios.</text><text fill="#000000" font-family="sans-serif" font-size="13" font-weight="bold" lengthAdjust="spacing" textLength="120.999" x="142.8" y="759.3894">Sistema permite</text><text fill="#000000" font-family="sans-serif" font-size="13" lengthAdjust="spacing" textLength="117.3428" x="267.9313" y="759.3894">validar y persistir.</text><text fill="#000000" font-family="sans-serif" font-size="13" lengthAdjust="spacing" textLength="110.9126" x="452.0393" y="744.2566">guardarUsuario()</text></g><!--link USUARIO_ABIERTO_COMP to USUARIOS_ABIERTO_FINAL--><g class="link" data-entity-1="ent0003" data-entity-2="ent0004" data-link-type="dependency" data-source-line="50" id="lnk10"><path d="M634.2,631.4369 C634.2,734.0469 634.2,861.8169 634.2,926.6769" fill="none" id="USUARIO_ABIERTO_COMP-to-USUARIOS_ABIERTO_FINAL-1" style="stroke:#FF0000;stroke-width:1;"/><polygon fill="#FF0000" points="634.2,932.6769,638.2,923.6769,634.2,927.6769,630.2,923.6769,634.2,932.6769" style="stroke:#FF0000;stroke-width:1;"/><text fill="#000000" font-family="sans-serif" font-size="13" lengthAdjust="spacing" textLength="98.6934" x="190.2" y="836.823">cerrarUsuario()</text><path d="M304.8934,787.0569 L304.8934,877.0569 L628.8934,877.0569 L628.8934,797.0569 L618.8934,787.0569 L304.8934,787.0569" fill="#FEFFDD" style="stroke:#181818;stroke-width:0.5;"/><path d="M618.8934,787.0569 L618.8934,797.0569 L628.8934,797.0569 L618.8934,787.0569" fill="#FEFFDD" style="stroke:#181818;stroke-width:0.5;"/><text fill="#000000" font-family="sans-serif" font-size="13" font-weight="bold" lengthAdjust="spacing" textLength="63.7114" x="320.8934" y="814.1238">CERRAR:</text><text fill="#000000" font-family="sans-serif" font-size="13" font-weight="bold" lengthAdjust="spacing" textLength="162.1191" x="320.8934" y="829.2566">Administrador solicita</text><text fill="#000000" font-family="sans-serif" font-size="13" lengthAdjust="spacing" textLength="103.2065" x="487.1448" y="829.2566">salir de la ficha.</text><text fill="#000000" font-family="sans-serif" font-size="13" font-weight="bold" lengthAdjust="spacing" textLength="120.999" x="320.8934" y="844.3894">Sistema permite</text><text fill="#000000" font-family="sans-serif" font-size="13" lengthAdjust="spacing" textLength="158.6216" x="446.0247" y="844.3894">descartar cambios extra</text><text fill="#000000" font-family="sans-serif" font-size="13" lengthAdjust="spacing" textLength="181.7842" x="320.8934" y="859.5222">sin evitar la creaci&#243;n inicial.</text></g><!--link USUARIOS_ABIERTO_FINAL to *end*--><g class="link" data-entity-1="ent0004" data-entity-2="ent0011" data-link-type="dependency" data-source-line="58" id="lnk12"><path d="M604,1009.7169 C604,1042.6869 604,1082.1069 604,1103.0369" fill="none" id="USUARIOS_ABIERTO_FINAL-to-*end*" style="stroke:#0000FF;stroke-width:1;"/><polygon fill="#0000FF" points="604,1109.0369,608,1100.0369,604,1104.0369,600,1100.0369,604,1109.0369" style="stroke:#0000FF;stroke-width:1;"/></g><?plantuml-src bLNRJkCm47tFLupO1sYb0FjQeKhPjg18G54lJmYXQUoc5evTsKwrQBLViP-ody2FxTWDQNe3DWzjvCpnp3bdndR2IGu39XmQcDeIZT0GHQSGnp7qXlVNwSrqbFJIjp_tq1_0O3n9RuV-OsHVX5gYmGAKPjpo9No_l8J6ia7rKYqtLgLGtBqkEMZZ5hhnuG4P4ogdS9--p-T2YKoy_LN0g43ha6aRqP_ZC1rFar4w73ydFzB1Q39ylat7awG_17hGmidkzvDjN0th3UyUe7eQk2EmJRhhz3wvtOCrqaMFxIU87x_bXdFr57UFLkofJaWekw7AbJF844ebvYBpRsUPBZIjWoj159Zp49TfvVXFfrlHKJaELB3DlGEPuMWgtyzQSE6tjQLqZSL8QH91yha3hRn_Bv5dVZNh9gmWawolLnkmMX8BXrSNioxat3gX5JLLgQ1SRtN-ZXiJXXS8IsuAuNW0S0cOPTngG908H7s1401dlOffPvT4wppYYe6lpmlPqyMIkWeBGHfg48GoId_a_Q-GO1rmfraGFAEo--Yq3TxIPDJEL8gS153uEOKaSs8b6B8g7RdbcPHEnr9YGS9uP6rSAy3sKtM0Xn7SY5xds6sbFV0cD1XbHBuWf-P70Z-thgXmnliWr5oR0eC6vyqD3db8yGJBqLDcWLT1j924gP7jzWxHTdkzRMrapMPVfQOC94lqsxi-HadwMyhfJmnoWzuN14BVKbA4WoCwwFvck_ZGYAwdl0CvLSg-D0ytj4C_6NMy65-O4OjoHIfdMCo4jXzEnogGDF3gLoq52DFi_MFq36UVaCkuCNlSgXRQ9jSRZ4R_nKqOtmVli_mXFRe_g77SHWoWUJUudawXWA_2_UJxYywhzK26wm7b0HbsMP8GCrdogcl-0G00?></g></svg>
