<svg xmlns="http://www.w3.org/2000/svg" xmlns:xlink="http://www.w3.org/1999/xlink" contentStyleType="text/css" data-diagram-type="DESCRIPTION" height="435px" preserveAspectRatio="none" style="width:1015px;height:435px;background:#FFFFFF;" version="1.1" viewBox="0 0 1015 435" width="1015px" zoomAndPan="magnify"><?plantuml 1.2026.5?><defs/><g><!--cluster exportarHistorialAsistencias--><g class="cluster" data-qualified-name="exportarHistorialAsistencias" data-source-line="7" id="ent0004"><path d="M8.5,106.3 L246.8506,106.3 A3.75,3.75 0 0 1 249.3506,108.8 L256.3506,128.5969 L367.5,128.5969 A2.5,2.5 0 0 1 370,131.0969 L370,417.69 A2.5,2.5 0 0 1 367.5,420.19 L8.5,420.19 A2.5,2.5 0 0 1 6,417.69 L6,108.8 A2.5,2.5 0 0 1 8.5,106.3" fill="none" style="stroke:#000000;stroke-width:1.5;"/><line style="stroke:#000000;stroke-width:1.5;" x1="6" x2="256.3506" y1="128.5969" y2="128.5969"/><text fill="#000000" font-family="sans-serif" font-size="14" font-weight="700" lengthAdjust="spacing" textLength="237.3506" x="10" y="121.2951">exportarHistorialAsistencias()</text></g><!--entity ExportarAsistenciasView--><g class="entity" data-qualified-name="exportarHistorialAsistencias.ExportarAsistenciasView" data-source-line="8" id="ent0005"><rect fill="#629EF9" height="36.2969" rx="2.5" ry="2.5" style="stroke:#181818;stroke-width:0.5;" width="192.1836" x="161.91" y="141.3"/><text fill="#000000" font-family="sans-serif" font-size="14" lengthAdjust="spacing" textLength="172.1836" x="171.91" y="164.2951">ExportarAsistenciasView</text></g><!--entity ReporteController--><g class="entity" data-qualified-name="exportarHistorialAsistencias.ReporteController" data-source-line="9" id="ent0006"><rect fill="#B5BD68" height="36.2969" rx="2.5" ry="2.5" style="stroke:#181818;stroke-width:0.5;" width="144.8242" x="26.59" y="254.6"/><text fill="#000000" font-family="sans-serif" font-size="14" lengthAdjust="spacing" textLength="124.8242" x="36.59" y="277.5951">ReporteController</text></g><!--entity AsistenciaRepository--><g class="entity" data-qualified-name="exportarHistorialAsistencias.AsistenciaRepository" data-source-line="10" id="ent0007"><rect fill="#F2AC4E" height="36.2969" rx="2.5" ry="2.5" style="stroke:#181818;stroke-width:0.5;" width="166.2686" x="21.87" y="367.89"/><text fill="#000000" font-family="sans-serif" font-size="14" lengthAdjust="spacing" textLength="146.2686" x="31.87" y="390.8851">AsistenciaRepository</text></g><!--entity PanelProfesor--><g class="entity" data-qualified-name="PanelProfesor" data-source-line="3" id="ent0001"><rect fill="#CDEBA5" height="36.2969" rx="2.5" ry="2.5" style="stroke:#181818;stroke-width:0.5;" width="152.5762" x="181.71" y="7"/><text fill="#000000" font-family="sans-serif" font-size="14" lengthAdjust="spacing" textLength="132.5762" x="191.71" y="29.9951">:PANEL_PROFESOR</text></g><!--entity DocumentoGenerado--><g class="entity" data-qualified-name="DocumentoGenerado" data-source-line="4" id="ent0002"><rect fill="#CDEBA5" height="36.2969" rx="2.5" ry="2.5" style="stroke:#181818;stroke-width:0.5;" width="303.3428" x="386.33" y="254.6"/><text fill="#000000" font-family="sans-serif" font-size="14" lengthAdjust="spacing" textLength="283.3428" x="396.33" y="277.5951">:DOCUMENTO_ASISTENCIAS_GENERADO</text></g><!--entity CompletarGestion--><g class="entity" data-qualified-name="CompletarGestion" data-source-line="5" id="ent0003"><rect fill="#CDEBA5" height="36.2969" rx="2.5" ry="2.5" style="stroke:#181818;stroke-width:0.5;" width="249.2363" x="724.38" y="254.6"/><text fill="#000000" font-family="sans-serif" font-size="14" lengthAdjust="spacing" textLength="229.2363" x="734.38" y="277.5951">:Collaboration CompletarGestion</text></g><!--link PanelProfesor to ExportarAsistenciasView--><g class="link" data-entity-1="ent0001" data-entity-2="ent0005" data-link-type="dependency" data-source-line="13" id="lnk8"><path d="M258,43.72 C258,69.02 258,110.46 258,135.81" fill="none" id="PanelProfesor-to-ExportarAsistenciasView" style="stroke:#181818;stroke-width:1;"/><polygon fill="#181818" points="258,140.81,262,131.81,258,135.81,254,131.81,258,140.81" style="stroke:#181818;stroke-width:1;stroke-linejoin:miter;stroke-miterlimit:10;"/><text fill="#000000" font-family="sans-serif" font-size="13" lengthAdjust="spacing" textLength="192.4229" x="259" y="86.3669">exportarHistorialAsistencias()</text></g><!--link ExportarAsistenciasView to ReporteController--><g class="link" data-entity-1="ent0005" data-entity-2="ent0006" data-link-type="dependency" data-source-line="15" id="lnk9"><path d="M232.81,178.08 C203.03,198.92 157.8964,230.5231 128.1764,251.3231" fill="none" id="ExportarAsistenciasView-to-ReporteController" style="stroke:#181818;stroke-width:1;"/><polygon fill="#181818" points="124.08,254.19,133.7471,252.3066,128.1764,251.3231,129.16,245.7524,124.08,254.19" style="stroke:#181818;stroke-width:1;stroke-linejoin:miter;stroke-miterlimit:10;"/><text fill="#000000" font-family="sans-serif" font-size="13" lengthAdjust="spacing" textLength="295.7944" x="190" y="220.6669">generarReporteAsistencias(grupoId, formato)</text></g><!--link ReporteController to AsistenciaRepository--><g class="link" data-entity-1="ent0006" data-entity-2="ent0007" data-link-type="dependency" data-source-line="16" id="lnk10"><path d="M99.94,291.13 C101.06,311.92 102.6501,341.5173 103.7801,362.4173" fill="none" id="ReporteController-to-AsistenciaRepository" style="stroke:#181818;stroke-width:1;"/><polygon fill="#181818" points="104.05,367.41,107.5583,358.2072,103.7801,362.4173,99.5699,358.6391,104.05,367.41" style="stroke:#181818;stroke-width:1;stroke-linejoin:miter;stroke-miterlimit:10;"/><text fill="#000000" font-family="sans-serif" font-size="13" lengthAdjust="spacing" textLength="223.8691" x="104" y="333.9569">extraerMetricasPorGrupo(grupoId)</text></g><!--link ExportarAsistenciasView to DocumentoGenerado--><g class="link" data-entity-1="ent0005" data-entity-2="ent0002" data-link-type="dependency" data-source-line="18" id="lnk11"><path d="M346.21,178.07 C413.25,191.46 494,207.6 494,207.6 C494,207.6 510.1221,231.0965 523.1521,250.0965" fill="none" id="ExportarAsistenciasView-to-DocumentoGenerado" style="stroke:#181818;stroke-width:1;stroke-dasharray:7,7;"/><polygon fill="#181818" points="525.98,254.22,524.1887,244.5354,523.1521,250.0965,517.5911,249.06,525.98,254.22" style="stroke:#181818;stroke-width:1;stroke-linejoin:miter;stroke-miterlimit:10;"/><text fill="#000000" font-family="sans-serif" font-size="13" lengthAdjust="spacing" textLength="109.6367" x="506" y="220.6669">&#171;include&#187; [&#233;xito]</text></g><!--link ExportarAsistenciasView to CompletarGestion--><g class="link" data-entity-1="ent0005" data-entity-2="ent0003" data-link-type="dependency" data-source-line="19" id="lnk12"><path d="M354.16,172.84 C462.6,186.8 624,207.6 624,207.6 C624,207.6 715.8016,233.7692 782.4116,252.7592" fill="none" id="ExportarAsistenciasView-to-CompletarGestion" style="stroke:#181818;stroke-width:1;stroke-dasharray:7,7;"/><polygon fill="#181818" points="787.22,254.13,779.6615,247.8158,782.4116,252.7592,777.4682,255.5092,787.22,254.13" style="stroke:#181818;stroke-width:1;stroke-linejoin:miter;stroke-miterlimit:10;"/><text fill="#000000" font-family="sans-serif" font-size="13" lengthAdjust="spacing" textLength="320.7344" x="679" y="220.6669">&#171;include&#187; completarGestion() [cancelaci&#243;n/error]</text></g><?plantuml-src VPB1QXin48RlUeh1kSHGfn2Qq9XWsAnbrz1u5pl99GGprawCYAnPPcKQK_f0FUSHycBHcfGwQyTY3rhD_t_wHrBrP7s9WajmrbDObmGbktNzevIG2UWNZk0exUkhv0nQtJmPwv-pV98Dz3IRj00hoD6JouKVgMBPQ-fdwUsr7jzaisGwcjxeSJfAfhEX7kj9qiysa3wRrP9yu25v4YnuBoXbvt3EWi6oXvINfQE0CgIgNjY0cejAbMYUS450poLBBFomLM2nw98gpiWR6stnQnqI7BTRy5j175kvpaylzE02zBjlItvdwLTJFJ-R5-VVOKArcbBsGM8x94tTu3H9lsduJwiTbOsHrkgFKX-E6pgTtcVxT-5mGqfzOeHE4QaxERkmsDoDl5UsOGjPbJmgli0Zon83jzMEVHDrNrDrpY18Sar1hC4gPndMl7_K0qbFJdgxJwSBbvVM6xSggDU3-zU_pt6VXuECvglvY32Dwd4RxWrwGmwDVNtnNqc4vU4D?></g></svg>