<?xml version="1.0" encoding="us-ascii" standalone="no"?><svg xmlns="http://www.w3.org/2000/svg" xmlns:xlink="http://www.w3.org/1999/xlink" contentStyleType="text/css" height="773px" preserveAspectRatio="none" style="width:627px;height:773px;background:#FFFFFF;" version="1.1" viewBox="0 0 627 773" width="627px" zoomAndPan="magnify"><defs/><g><path d="M63.5,7 L442.5,7 A12.5,12.5 0 0 1 455,19.5 L455,34.6094 L51,34.6094 L51,19.5 A12.5,12.5 0 0 1 63.5,7 " fill="#F5F5F5" style="stroke:#F5F5F5;stroke-width:1.0;"/><rect fill="none" height="489.6094" rx="12.5" ry="12.5" style="stroke:#808080;stroke-width:0.5;" width="404" x="51" y="7"/><line style="stroke:#808080;stroke-width:0.5;" x1="51" x2="455" y1="34.6094" y2="34.6094"/><text fill="#000000" font-family="sans-serif" font-size="14" lengthAdjust="spacing" textLength="105" x="200.5" y="26.5332">abrirDispensas()</text><g id="abrirDispensas.Paso1"><rect fill="#F5F5F5" height="50" rx="12.5" ry="12.5" style="stroke:#808080;stroke-width:0.5;" width="50" x="63" y="137.6094"/><line style="stroke:#808080;stroke-width:0.5;" x1="63" x2="113" y1="165.2188" y2="165.2188"/><text fill="#000000" font-family="sans-serif" font-size="14" lengthAdjust="spacing" textLength="4" x="86" y="157.1426">&#160;</text></g><g id="abrirDispensas.Paso2"><rect fill="#F5F5F5" height="50" rx="12.5" ry="12.5" style="stroke:#808080;stroke-width:0.5;" width="50" x="63" y="276.6094"/><line style="stroke:#808080;stroke-width:0.5;" x1="63" x2="113" y1="304.2188" y2="304.2188"/><text fill="#000000" font-family="sans-serif" font-size="14" lengthAdjust="spacing" textLength="4" x="86" y="296.1426">&#160;</text></g><ellipse cx="88" cy="55.6094" fill="#222222" rx="10" ry="10" style="stroke:#222222;stroke-width:1.0;"/><ellipse cx="88" cy="475.6094" fill="none" rx="11" ry="11" style="stroke:#222222;stroke-width:1.0;"/><ellipse cx="88" cy="475.6094" fill="#222222" rx="6" ry="6" style="stroke:#222222;stroke-width:1.0;"/><!--link *start*abrirDispensas to Paso1--><g id="link_*start*abrirDispensas_Paso1"><path d="M88,65.9294 C88,81.7894 88,108.5194 88,131.2494 " fill="none" id="*start*abrirDispensas-to-Paso1" style="stroke:#008000;stroke-width:1.0;"/><polygon fill="#008000" points="88,137.2494,92,128.2494,88,132.2494,84,128.2494,88,137.2494" style="stroke:#008000;stroke-width:1.0;"/><path d="M93,88.6094 L93,114.6094 L300,114.6094 L300,98.6094 L290,88.6094 L93,88.6094 " fill="#FFFFE0" style="stroke:#808080;stroke-width:0.5;"/><path d="M290,88.6094 L290,98.6094 L300,98.6094 L290,88.6094 " fill="#FFFFE0" style="stroke:#808080;stroke-width:0.5;"/><text fill="#000000" font-family="sans-serif" font-size="13" font-weight="bold" lengthAdjust="spacing" textLength="49" x="99" y="107.1045">Alumno</text><text fill="#000000" font-family="sans-serif" font-size="13" lengthAdjust="spacing" textLength="133" x="152" y="107.1045">solicita abrir dispensas</text></g><!--link Paso1 to Paso2--><g id="link_Paso1_Paso2"><path d="M88,187.7894 C88,212.6794 88,245.2394 88,270.2094 " fill="none" id="Paso1-to-Paso2" style="stroke:#008000;stroke-width:1.0;"/><polygon fill="#008000" points="88,276.2094,92,267.2094,88,271.2094,84,267.2094,88,276.2094" style="stroke:#008000;stroke-width:1.0;"/><path d="M93,210.6094 L93,252.6094 L446,252.6094 L446,220.6094 L436,210.6094 L93,210.6094 " fill="#FFFFE0" style="stroke:#808080;stroke-width:0.5;"/><path d="M436,210.6094 L436,220.6094 L446,220.6094 L436,210.6094 " fill="#FFFFE0" style="stroke:#808080;stroke-width:0.5;"/><text fill="#000000" font-family="sans-serif" font-size="13" font-weight="bold" lengthAdjust="spacing" textLength="51" x="99" y="229.1045">Sistema</text><text fill="#000000" font-family="sans-serif" font-size="13" lengthAdjust="spacing" textLength="277" x="154" y="229.1045">permite mostrar lista de solicitudes de dispensa</text><text fill="#000000" font-family="sans-serif" font-size="13" lengthAdjust="spacing" textLength="324" x="99" y="245.4561">&#8226; Asignatura, periodo, horario y estado de cada solicitud</text></g><!--link Paso2 to Paso2--><g id="link_Paso2_Paso2"><path d="M113.18,288.5394 C122.91,287.9594 131,292.3094 131,301.6094 C131,310.9094 128.8994,315.6164 119.1694,315.0364 " fill="none" id="Paso2-to-Paso2" style="stroke:#008000;stroke-width:1.0;"/><polygon fill="#008000" points="113.18,314.6794,121.926,319.2078,118.1711,314.9769,122.4021,311.222,113.18,314.6794" style="stroke:#008000;stroke-width:1.0;"/><path d="M136,280.6094 L136,322.6094 L373,322.6094 L373,290.6094 L363,280.6094 L136,280.6094 " fill="#FFFFE0" style="stroke:#808080;stroke-width:0.5;"/><path d="M363,280.6094 L363,290.6094 L373,290.6094 L363,280.6094 " fill="#FFFFE0" style="stroke:#808080;stroke-width:0.5;"/><text fill="#000000" font-family="sans-serif" font-size="13" font-weight="bold" lengthAdjust="spacing" textLength="49" x="142" y="299.1045">Alumno</text><text fill="#000000" font-family="sans-serif" font-size="13" lengthAdjust="spacing" textLength="101" x="195" y="299.1045">solicita filtrar lista</text><text fill="#000000" font-family="sans-serif" font-size="13" font-weight="bold" lengthAdjust="spacing" textLength="51" x="142" y="315.4561">Sistema</text><text fill="#000000" font-family="sans-serif" font-size="13" lengthAdjust="spacing" textLength="161" x="197" y="315.4561">permite mostrar lista filtrada</text></g><!--link Paso2 to *end*abrirDispensas--><g id="link_Paso2_*end*abrirDispensas"><path d="M88,326.8894 C88,365.0394 88,431.4394 88,458.2694 " fill="none" id="Paso2-to-*end*abrirDispensas" style="stroke:#008000;stroke-width:1.0;"/><polygon fill="#008000" points="88,464.2694,92,455.2694,88,459.2694,84,455.2694,88,464.2694" style="stroke:#008000;stroke-width:1.0;"/><path d="M93,350.6094 L93,441.6094 L379,441.6094 L379,360.6094 L369,350.6094 L93,350.6094 " fill="#FFFFE0" style="stroke:#808080;stroke-width:0.5;"/><path d="M369,350.6094 L369,360.6094 L379,360.6094 L369,350.6094 " fill="#FFFFE0" style="stroke:#808080;stroke-width:0.5;"/><text fill="#000000" font-family="sans-serif" font-size="13" font-weight="bold" lengthAdjust="spacing" textLength="49" x="99" y="369.1045">Alumno</text><text fill="#000000" font-family="sans-serif" font-size="13" lengthAdjust="spacing" textLength="159" x="152" y="369.1045">revisa la lista de solicitudes</text><text fill="#000000" font-family="sans-serif" font-size="13" font-weight="bold" lengthAdjust="spacing" textLength="51" x="99" y="385.4561">Sistema</text><text fill="#000000" font-family="sans-serif" font-size="13" lengthAdjust="spacing" textLength="210" x="154" y="385.4561">permite mantener la lista en pantalla</text><text fill="#000000" font-family="sans-serif" font-size="13" lengthAdjust="spacing" textLength="188" x="99" y="401.8076">&#8226; Permite solicitar crear solicitud</text><text fill="#000000" font-family="sans-serif" font-size="13" lengthAdjust="spacing" textLength="212" x="99" y="418.1592">&#8226; Permite solicitar consultar solicitud</text><text fill="#000000" font-family="sans-serif" font-size="13" lengthAdjust="spacing" textLength="191" x="99" y="434.5107">&#8226; Permite solicitar editar solicitud</text></g><g id="SOLICITUD_DISPENSA_ABIERTA"><rect fill="#F5F5F5" height="50" rx="12.5" ry="12.5" style="stroke:#808080;stroke-width:0.5;" width="233" x="136.5" y="717"/><line style="stroke:#808080;stroke-width:0.5;" x1="136.5" x2="369.5" y1="744.6094" y2="744.6094"/><text fill="#000000" font-family="sans-serif" font-size="14" lengthAdjust="spacing" textLength="213" x="146.5" y="736.5332">SOLICITUD_DISPENSA_ABIERTA</text></g><!--link abrirDispensas to SOLICITUD_DISPENSA_ABIERTA--><g id="link_abrirDispensas_SOLICITUD_DISPENSA_ABIERTA"><path d="M73.49,497.19 C35.19,549.3 6,589 6,589 C6,589 6,625 6,625 C6,625 124.0389,680.44 196.3889,714.41 " fill="none" id="abrirDispensas-to-SOLICITUD_DISPENSA_ABIERTA" style="stroke:#008000;stroke-width:1.0;"/><polygon fill="#008000" points="201.82,716.96,195.3733,709.5142,197.2941,714.835,191.9733,716.7557,201.82,716.96" style="stroke:#008000;stroke-width:1.0;"/><path d="M11,594 L11,620 L173,620 L173,604 L163,594 L11,594 " fill="#FFFFE0" style="stroke:#808080;stroke-width:0.5;"/><path d="M163,594 L163,604 L173,604 L163,594 " fill="#FFFFE0" style="stroke:#808080;stroke-width:0.5;"/><text fill="#000000" font-family="sans-serif" font-size="13" lengthAdjust="spacing" textLength="141" x="17" y="612.4951">crearSolicitudDispensa()</text></g><!--link abrirDispensas to SOLICITUD_DISPENSA_ABIERTA--><g id="link_abrirDispensas_SOLICITUD_DISPENSA_ABIERTA"><path d="M245.73,497.19 C244.18,549.3 243,589 243,589 C243,589 243,625 243,625 C243,625 247.4844,677.0122 250.4144,710.9822 " fill="none" id="abrirDispensas-to-SOLICITUD_DISPENSA_ABIERTA-1" style="stroke:#008000;stroke-width:1.0;"/><polygon fill="#008000" points="250.93,716.96,254.1418,707.6496,250.5003,711.9785,246.1714,708.337,250.93,716.96" style="stroke:#008000;stroke-width:1.0;"/><path d="M248,594 L248,620 L434,620 L434,604 L424,594 L248,594 " fill="#FFFFE0" style="stroke:#808080;stroke-width:0.5;"/><path d="M424,594 L424,604 L434,604 L424,594 " fill="#FFFFE0" style="stroke:#808080;stroke-width:0.5;"/><text fill="#000000" font-family="sans-serif" font-size="13" lengthAdjust="spacing" textLength="165" x="254" y="612.4951">consultarSolicitudDispensa()</text></g><!--link abrirDispensas to SOLICITUD_DISPENSA_ABIERTA--><g id="link_abrirDispensas_SOLICITUD_DISPENSA_ABIERTA"><path d="M396.17,497.19 C426.72,549.3 450,589 450,589 C450,589 450,625 450,625 C450,625 356.6905,679.946 298.9905,713.916 " fill="none" id="abrirDispensas-to-SOLICITUD_DISPENSA_ABIERTA-2" style="stroke:#008000;stroke-width:1.0;"/><polygon fill="#008000" points="293.82,716.96,303.6051,715.8409,298.1287,714.4233,299.5464,708.947,293.82,716.96" style="stroke:#008000;stroke-width:1.0;"/><path d="M455,594 L455,620 L620,620 L620,604 L610,594 L455,594 " fill="#FFFFE0" style="stroke:#808080;stroke-width:0.5;"/><path d="M610,594 L610,604 L620,604 L610,594 " fill="#FFFFE0" style="stroke:#808080;stroke-width:0.5;"/><text fill="#000000" font-family="sans-serif" font-size="13" lengthAdjust="spacing" textLength="144" x="461" y="612.4951">editarSolicitudDispensa()</text></g><!--SRC=[lLJHQjj047pNLop9Ir9YaXZQfs1GuWGC8JLLyXH2MFisok7JhRWxjOXIwBVqq_ebFPqiIx5iru5I6GJQcvsTdU5i5rBdQ303pO8ivV3fBBAhea6zw1MLrEJAd21dLLOVdRCxTdI9yqLgkD3YYXKRZqzVNKbAyRTr91j1faQb1ilESUAmptHuyx7wzM3hD96jod20CoFDMDgSj4LxT7m0QE5j4Rv74VXdsG41CaNBvvlBmnh- -E491e-7gI7IJuDHfqFxlO1rvT8Y500kPgDO5PdcYzFP22mhEPSEQo4W6YK1J5e4XdfAOEtD6UwOaqZhACCmA2UJIG_As3g3LGv-6n3KA2XyuDLdes39ylldBuYjJ3Mwmk19HIDPy0cyicUH32MG9n9SzSvHOCktPONXkrROPDMBLEqAxzcsRXIubp8Vwdww37sL5a7XHa__eW-r8qscxIODkI-YKjq8fajyuu61kI7_VclsLYnhMoYtDvw4x8DNVlrOtQZay-taQdB_C7uUJvBfzLqIFyUNa-ilzt6u8TkFesZjthN63xprEnf36gRw3-ba4hn86hKDwz5nr6RyR-SrVlx7cNKcEmV-0G00]--></g></svg>