<?plantuml 1.2026.2?><svg xmlns="http://www.w3.org/2000/svg" xmlns:xlink="http://www.w3.org/1999/xlink" contentStyleType="text/css" data-diagram-type="STATE" height="759px" preserveAspectRatio="none" style="width:684px;height:759px;background:#FFFFFF;" version="1.1" viewBox="0 0 684 759" width="684px" zoomAndPan="magnify"><defs/><g><path d="M59.5,7 L482.5,7 A12.5,12.5 0 0 1 495,19.5 L495,33.2969 L47,33.2969 L47,19.5 A12.5,12.5 0 0 1 59.5,7" fill="#F5F5F5"/><rect fill="none" height="477.2969" rx="12.5" ry="12.5" style="stroke:#808080;stroke-width:0.5;" width="448" x="47" y="7"/><line style="stroke:#808080;stroke-width:0.5;" x1="47" x2="495" y1="33.2969" y2="33.2969"/><text fill="#000000" font-family="sans-serif" font-size="14" lengthAdjust="spacing" textLength="115.2949" x="213.3525" y="24.9951">abrirDispensas()</text><g class="entity" data-qualified-name="abrirDispensas.Paso1" id="ent0003"><rect fill="#F5F5F5" height="50" rx="12.5" ry="12.5" style="stroke:#808080;stroke-width:0.5;" width="50" x="59" y="135.2969"/><line style="stroke:#808080;stroke-width:0.5;" x1="59" x2="109" y1="161.5938" y2="161.5938"/><text fill="#000000" font-family="sans-serif" font-size="14" lengthAdjust="spacing" textLength="4.4502" x="81.7749" y="153.292">&#160;</text></g><g class="entity" data-qualified-name="abrirDispensas.Paso2" id="ent0004"><rect fill="#F5F5F5" height="50" rx="12.5" ry="12.5" style="stroke:#808080;stroke-width:0.5;" width="50" x="59" y="271.2969"/><line style="stroke:#808080;stroke-width:0.5;" x1="59" x2="109" y1="297.5938" y2="297.5938"/><text fill="#000000" font-family="sans-serif" font-size="14" lengthAdjust="spacing" textLength="4.4502" x="81.7749" y="289.292">&#160;</text></g><g class="start_entity" data-qualified-name="abrirDispensas..start.abrirDispensas" data-source-line="14" id="ent0002"><ellipse cx="84" cy="54.2969" fill="#222222" rx="10" ry="10" style="stroke:#222222;stroke-width:1;"/></g><g class="end_entity" data-qualified-name="abrirDispensas..end.abrirDispensas" data-source-line="31" id="ent0006"><ellipse cx="84" cy="463.2969" fill="none" rx="11" ry="11" style="stroke:#222222;stroke-width:1;"/><ellipse cx="84" cy="463.2969" fill="#222222" rx="6" ry="6" style="stroke:#222222;stroke-width:1;"/></g><!--link *start*abrirDispensas to Paso1--><g class="link" data-entity-1="ent0002" data-entity-2="ent0003" data-link-type="dependency" data-source-line="14" id="lnk3"><path d="M84,64.5269 C84,80.2369 84,106.6569 84,129.1669" fill="none" id="*start*abrirDispensas-to-Paso1" style="stroke:#008000;stroke-width:1;"/><polygon fill="#008000" points="84,135.1669,88,126.1669,84,130.1669,80,126.1669,84,135.1669" style="stroke:#008000;stroke-width:1;"/><path d="M89,87.2969 L89,112.2969 L318,112.2969 L318,97.2969 L308,87.2969 L89,87.2969" fill="#FFFFE0" style="stroke:#808080;stroke-width:0.5;"/><path d="M308,87.2969 L308,97.2969 L318,97.2969 L308,87.2969" fill="#FFFFE0" style="stroke:#808080;stroke-width:0.5;"/><text fill="#000000" font-family="sans-serif" font-size="13" font-weight="bold" lengthAdjust="spacing" textLength="55.5039" x="95" y="104.3638">Alumno</text><text fill="#000000" font-family="sans-serif" font-size="13" lengthAdjust="spacing" textLength="149.1953" x="154.6362" y="104.3638">solicita abrir dispensas</text></g><!--link Paso1 to Paso2--><g class="link" data-entity-1="ent0003" data-entity-2="ent0004" data-link-type="dependency" data-source-line="19" id="lnk4"><path d="M84,185.5669 C84,209.8469 84,240.9869 84,265.2069" fill="none" id="Paso1-to-Paso2" style="stroke:#008000;stroke-width:1;"/><polygon fill="#008000" points="84,271.2069,88,262.2069,84,266.2069,80,262.2069,84,271.2069" style="stroke:#008000;stroke-width:1;"/><path d="M89,208.2969 L89,248.2969 L486,248.2969 L486,218.2969 L476,208.2969 L89,208.2969" fill="#FFFFE0" style="stroke:#808080;stroke-width:0.5;"/><path d="M476,208.2969 L476,218.2969 L486,218.2969 L476,208.2969" fill="#FFFFE0" style="stroke:#808080;stroke-width:0.5;"/><text fill="#000000" font-family="sans-serif" font-size="13" font-weight="bold" lengthAdjust="spacing" textLength="58.9063" x="95" y="225.3638">Sistema</text><text fill="#000000" font-family="sans-serif" font-size="13" lengthAdjust="spacing" textLength="313.3965" x="158.0386" y="225.3638">permite mostrar lista de solicitudes de dispensa</text><text fill="#000000" font-family="sans-serif" font-size="13" lengthAdjust="spacing" textLength="368.7671" x="95" y="240.4966">&#8226; Asignatura, periodo, horario y estado de cada solicitud</text></g><!--link Paso2 to Paso2--><g class="link" data-entity-1="ent0004" data-entity-2="ent0004" data-link-type="dependency" data-source-line="25" id="lnk5"><path d="M109.18,283.5969 C118.91,283.0369 127,287.2669 127,296.2969 C127,305.3269 124.9001,309.9016 115.1701,309.3416" fill="none" id="Paso2-to-Paso2" style="stroke:#008000;stroke-width:1;"/><polygon fill="#008000" points="109.18,308.9969,117.9353,313.5074,114.1717,309.2842,118.395,305.5206,109.18,308.9969" style="stroke:#008000;stroke-width:1;"/><path d="M132,276.2969 L132,316.2969 L404,316.2969 L404,286.2969 L394,276.2969 L132,276.2969" fill="#FFFFE0" style="stroke:#808080;stroke-width:0.5;"/><path d="M394,276.2969 L394,286.2969 L404,286.2969 L394,276.2969" fill="#FFFFE0" style="stroke:#808080;stroke-width:0.5;"/><text fill="#000000" font-family="sans-serif" font-size="13" font-weight="bold" lengthAdjust="spacing" textLength="55.5039" x="138" y="293.3638">Alumno</text><text fill="#000000" font-family="sans-serif" font-size="13" lengthAdjust="spacing" textLength="116.6509" x="197.6362" y="293.3638">solicita filtrar lista</text><text fill="#000000" font-family="sans-serif" font-size="13" font-weight="bold" lengthAdjust="spacing" textLength="58.9063" x="138" y="308.4966">Sistema</text><text fill="#000000" font-family="sans-serif" font-size="13" lengthAdjust="spacing" textLength="187.9922" x="201.0386" y="308.4966">permite mostrar lista filtrada</text></g><!--link Paso2 to *end*abrirDispensas--><g class="link" data-entity-1="ent0004" data-entity-2="ent0006" data-link-type="dependency" data-source-line="31" id="lnk7"><path d="M84,321.6469 C84,358.3969 84,420.4769 84,446.1469" fill="none" id="Paso2-to-*end*abrirDispensas" style="stroke:#008000;stroke-width:1;"/><polygon fill="#008000" points="84,452.1469,88,443.1469,84,447.1469,80,443.1469,84,452.1469" style="stroke:#008000;stroke-width:1;"/><path d="M89,344.2969 L89,429.2969 L415,429.2969 L415,354.2969 L405,344.2969 L89,344.2969" fill="#FFFFE0" style="stroke:#808080;stroke-width:0.5;"/><path d="M405,344.2969 L405,354.2969 L415,354.2969 L405,344.2969" fill="#FFFFE0" style="stroke:#808080;stroke-width:0.5;"/><text fill="#000000" font-family="sans-serif" font-size="13" font-weight="bold" lengthAdjust="spacing" textLength="55.5039" x="95" y="361.3638">Alumno</text><text fill="#000000" font-family="sans-serif" font-size="13" lengthAdjust="spacing" textLength="179.8735" x="154.6362" y="361.3638">revisa la lista de solicitudes</text><text fill="#000000" font-family="sans-serif" font-size="13" font-weight="bold" lengthAdjust="spacing" textLength="58.9063" x="95" y="376.4966">Sistema</text><text fill="#000000" font-family="sans-serif" font-size="13" lengthAdjust="spacing" textLength="242.7598" x="158.0386" y="376.4966">permite mantener la lista en pantalla</text><text fill="#000000" font-family="sans-serif" font-size="13" lengthAdjust="spacing" textLength="213.9668" x="95" y="391.6294">&#8226; Permite solicitar crear solicitud</text><text fill="#000000" font-family="sans-serif" font-size="13" lengthAdjust="spacing" textLength="240.5381" x="95" y="406.7622">&#8226; Permite solicitar consultar solicitud</text><text fill="#000000" font-family="sans-serif" font-size="13" lengthAdjust="spacing" textLength="218.4355" x="95" y="421.895">&#8226; Permite solicitar editar solicitud</text></g><g class="entity" data-qualified-name="SOLICITUD_DISPENSA_ABIERTA" id="ent0005"><rect fill="#F5F5F5" height="50" rx="12.5" ry="12.5" style="stroke:#808080;stroke-width:0.5;" width="239.3516" x="151.5" y="703"/><line style="stroke:#808080;stroke-width:0.5;" x1="151.5" x2="390.8516" y1="729.2969" y2="729.2969"/><text fill="#000000" font-family="sans-serif" font-size="14" lengthAdjust="spacing" textLength="219.3516" x="161.5" y="720.9951">SOLICITUD_DISPENSA_ABIERTA</text></g><!--link abrirDispensas to SOLICITUD_DISPENSA_ABIERTA--><g class="link" data-entity-1="ent0002" data-entity-2="ent0005" data-link-type="dependency" data-source-line="43" id="lnk8"><path d="M79.82,484.22 C38.03,536.18 6,576 6,576 C6,576 6,611 6,611 C6,611 132.9733,666.5844 210.5933,700.5544" fill="none" id="abrirDispensas-to-SOLICITUD_DISPENSA_ABIERTA" style="stroke:#008000;stroke-width:1;"/><polygon fill="#008000" points="216.09,702.96,209.4487,695.6872,211.5095,700.9553,206.2413,703.0161,216.09,702.96" style="stroke:#008000;stroke-width:1;"/><path d="M11,581 L11,606 L191,606 L191,591 L181,581 L11,581" fill="#FFFFE0" style="stroke:#808080;stroke-width:0.5;"/><path d="M181,581 L181,591 L191,591 L181,581" fill="#FFFFE0" style="stroke:#808080;stroke-width:0.5;"/><text fill="#000000" font-family="sans-serif" font-size="13" lengthAdjust="spacing" textLength="159.3452" x="17" y="598.0669">crearSolicitudDispensa()</text></g><!--link abrirDispensas to SOLICITUD_DISPENSA_ABIERTA--><g class="link" data-entity-1="ent0002" data-entity-2="ent0005" data-link-type="dependency" data-source-line="48" id="lnk9"><path d="M263.79,484.22 C262.21,536.18 261,576 261,576 C261,576 261,611 261,611 C261,611 265.4844,663.0122 268.4144,696.9822" fill="none" id="abrirDispensas-to-SOLICITUD_DISPENSA_ABIERTA-1" style="stroke:#008000;stroke-width:1;"/><polygon fill="#008000" points="268.93,702.96,272.1418,693.6496,268.5003,697.9785,264.1714,694.337,268.93,702.96" style="stroke:#008000;stroke-width:1;"/><path d="M266,581 L266,606 L472,606 L472,591 L462,581 L266,581" fill="#FFFFE0" style="stroke:#808080;stroke-width:0.5;"/><path d="M462,581 L462,591 L472,591 L462,581" fill="#FFFFE0" style="stroke:#808080;stroke-width:0.5;"/><text fill="#000000" font-family="sans-serif" font-size="13" lengthAdjust="spacing" textLength="185.9165" x="272" y="598.0669">consultarSolicitudDispensa()</text></g><!--link abrirDispensas to SOLICITUD_DISPENSA_ABIERTA--><g class="link" data-entity-1="ent0002" data-entity-2="ent0005" data-link-type="dependency" data-source-line="53" id="lnk10"><path d="M427.55,484.22 C461.77,536.18 488,576 488,576 C488,576 488,611 488,611 C488,611 384.8116,666.1618 321.2516,700.1318" fill="none" id="abrirDispensas-to-SOLICITUD_DISPENSA_ABIERTA-2" style="stroke:#008000;stroke-width:1;"/><polygon fill="#008000" points="315.96,702.96,325.7829,702.2455,320.3697,700.6032,322.012,695.19,315.96,702.96" style="stroke:#008000;stroke-width:1;"/><path d="M493,581 L493,606 L677,606 L677,591 L667,581 L493,581" fill="#FFFFE0" style="stroke:#808080;stroke-width:0.5;"/><path d="M667,581 L667,591 L677,591 L667,581" fill="#FFFFE0" style="stroke:#808080;stroke-width:0.5;"/><text fill="#000000" font-family="sans-serif" font-size="13" lengthAdjust="spacing" textLength="163.814" x="499" y="598.0669">editarSolicitudDispensa()</text></g><?plantuml-src lLJRQjj047tNLmp9Ir9YqXhQfs1GuXGC9JLLyXH267idokBLZfXTDOXGwBVqq_ebNKcMV8tZGCaA5dRsp9apPrYvcROv2cPWMP6Z7BvyZ5mN5BIpZQ3HbdoP4-HiokgmT7V5divnEak52wiksB04VFheIpA6dzQHB8gaGQM2vT9rud6JwV3hv-hRWAtJHAuAmm5EHCjGkvoiGtTqV03eO3K8pr44OSqpe8QCqV6dxU5-0x_zS0UzsyDKYEnTRz1aG7rbGsF0jh9fLWS0pYQ3s1IPvRFJoG0S6ptL7Xibe5efDPYiQXZ2YhgjeLylsDzHBz7EKuPrmPmaqm6KiVE2rK12Mw2eLLA4oLV7LicSvU_lFn0xdLhqXU19HQDPyGaySc3H32LG859SvKvHuO9lfPNLDlflQcERRG_QBDfuIyTDeiAzrOKfxwTDwATs20QtUlkAHhIUBCaYcopa8OZ6B8zYFCUtFWXCXSA-QlgBMBQkC7vlF2cz2Uuy-zKziUJxjz75wFfcU3yS9UFBgoI-Zyz7bp-ku_h9l7mTHMiFSM5yBrY_8x6UXbG_bQMPr5uahTgMzUWuwZJ_vtgjd-zOivd9heB_0000?></g></svg>