<svg xmlns="http://www.w3.org/2000/svg" xmlns:xlink="http://www.w3.org/1999/xlink" version="1.1" data-diagram-type="STATE" style="width:505px;height:785px;background:#FFFFFF;" width="505px" height="785px" viewBox="0 0 505 785" zoomAndPan="magnify" preserveAspectRatio="none" contentStyleType="text/css"><?plantuml 1.2026.7beta8?><defs/><g font-family="sans-serif" lengthAdjust="spacing"><g class="entity" data-qualified-name="consultarSolicitudDispensa" id="ent0001" data-source-line="9"><path d="M66.18,7 L449.18,7 A12.5,12.5 0 0 1 461.68,19.5 L461.68,33.297 L53.68,33.297 L53.68,19.5 A12.5,12.5 0 0 1 66.18,7" fill="#F5F5F5"/><path d="M53.68,33.297 L461.68,33.297 L461.68,489.797 A12.5,12.5 0 0 1 449.18,502.297 L66.18,502.297 A12.5,12.5 0 0 1 53.68,489.797 L53.68,33.297" fill="#F5F5F5"/><rect x="53.68" y="7" width="408" height="495.297" fill="none" style="stroke:#808080;stroke-width:0.5;" rx="12.5" ry="12.5"/><line x1="53.68" y1="33.297" x2="461.68" y2="33.297" style="stroke:#808080;stroke-width:0.5;"/><text x="157.571" y="24.995" fill="#000" font-size="14" textLength="200.218">consultarSolicitudDispensa()</text><g class="entity" data-qualified-name="consultarSolicitudDispensa.Paso1" id="ent0002" data-source-line="12"><rect x="65.68" y="135.297" width="50" height="50" fill="#F5F5F5" style="stroke:#808080;stroke-width:0.5;" rx="12.5" ry="12.5"/><line x1="65.68" y1="161.594" x2="115.68" y2="161.594" style="stroke:#808080;stroke-width:0.5;"/><text x="88.455" y="153.292" fill="#000" font-size="14"> </text></g><g class="entity" data-qualified-name="consultarSolicitudDispensa.Paso2" id="ent0003" data-source-line="13"><rect x="65.68" y="301.297" width="50" height="50" fill="#F5F5F5" style="stroke:#808080;stroke-width:0.5;" rx="12.5" ry="12.5"/><line x1="65.68" y1="327.594" x2="115.68" y2="327.594" style="stroke:#808080;stroke-width:0.5;"/><text x="88.455" y="319.292" fill="#000" font-size="14"> </text></g><g class="start_entity" data-qualified-name="consultarSolicitudDispensa..start.consultarSolicitudDispensa" id="ent0006" data-source-line="15"><ellipse cx="90.68" cy="54.297" rx="10" ry="10" fill="#222" style="stroke:#222;stroke-width:1;"/></g><g class="end_entity" data-qualified-name="consultarSolicitudDispensa..end.consultarSolicitudDispensa" id="ent0009" data-source-line="28"><ellipse cx="90.68" cy="478.297" rx="11" ry="11" fill="none" style="stroke:#222;stroke-width:1;"/><ellipse cx="90.68" cy="478.297" rx="6" ry="6" fill="#222" style="stroke:#222;stroke-width:1;"/></g><!--link *start*consultarSolicitudDispensa to Paso1--><g class="link" data-entity-1="ent0006" data-entity-2="ent0002" id="lnk7" data-source-line="15" data-link-type="dependency"><path d="M90.68,64.527 C90.68,80.237 90.68,107.657 90.68,130.167" style="stroke:#008000;stroke-width:1;" fill="none" id="*start*consultarSolicitudDispensa-to-Paso1"/><polygon points="90.68,135.167,94.68,126.167,90.68,130.167,86.68,126.167,90.68,135.167" fill="#008000" style="stroke:#008000;stroke-width:1;stroke-linejoin:miter;stroke-miterlimit:10;"/><path d="M95.68,87.297 L95.68,112.297 L386.68,112.297 L386.68,97.297 L376.68,87.297 L95.68,87.297" style="stroke:#808080;stroke-width:0.5;" fill="#FFFFE0"/><path d="M376.68,87.297 L376.68,97.297 L386.68,97.297 L376.68,87.297" style="stroke:#808080;stroke-width:0.5;" fill="#FFFFE0"/><text x="101.68" y="104.364" fill="#000" font-size="13" textLength="55.504" font-weight="700">Alumno</text><text x="161.316" y="104.364" fill="#000" font-size="13" textLength="210.704">solicita seleccionar una solicitud</text></g><!--link Paso1 to Paso2--><g class="link" data-entity-1="ent0002" data-entity-2="ent0003" id="lnk8" data-source-line="20" data-link-type="dependency"><path d="M90.68,185.497 C90.68,216.507 90.68,264.947 90.68,295.997" style="stroke:#008000;stroke-width:1;" fill="none" id="Paso1-to-Paso2"/><polygon points="90.68,300.997,94.68,291.997,90.68,295.997,86.68,291.997,90.68,300.997" fill="#008000" style="stroke:#008000;stroke-width:1;stroke-linejoin:miter;stroke-miterlimit:10;"/><path d="M95.68,208.297 L95.68,278.297 L410.68,278.297 L410.68,218.297 L400.68,208.297 L95.68,208.297" style="stroke:#808080;stroke-width:0.5;" fill="#FFFFE0"/><path d="M400.68,208.297 L400.68,218.297 L410.68,218.297 L400.68,208.297" style="stroke:#808080;stroke-width:0.5;" fill="#FFFFE0"/><text x="101.68" y="225.364" fill="#000" font-size="13" textLength="58.906" font-weight="700">Sistema</text><text x="164.719" y="225.364" fill="#000" font-size="13" textLength="221.508">permite abrir el detalle y mostrar:</text><text x="101.68" y="240.497" fill="#000" font-size="13" textLength="294.036">• Estado de la Dispensa, Asignatura y Motivo</text><text x="101.68" y="255.629" fill="#000" font-size="13" textLength="282.033">• Día, Franja horaria y Asignatura solapada</text><text x="101.68" y="270.762" fill="#000" font-size="13" textLength="184.933">• Justificación / Comentarios</text></g><!--link Paso2 to *end*consultarSolicitudDispensa--><g class="link" data-entity-1="ent0003" data-entity-2="ent0009" id="lnk10" data-source-line="28" data-link-type="dependency"><path d="M90.68,351.727 C90.68,385.107 90.68,438.477 90.68,462.017" style="stroke:#008000;stroke-width:1;" fill="none" id="Paso2-to-*end*consultarSolicitudDispensa"/><polygon points="90.68,467.017,94.68,458.017,90.68,462.017,86.68,458.017,90.68,467.017" fill="#008000" style="stroke:#008000;stroke-width:1;stroke-linejoin:miter;stroke-miterlimit:10;"/><path d="M95.68,374.297 L95.68,444.297 L437.68,444.297 L437.68,384.297 L427.68,374.297 L95.68,374.297" style="stroke:#808080;stroke-width:0.5;" fill="#FFFFE0"/><path d="M427.68,374.297 L427.68,384.297 L437.68,384.297 L427.68,374.297" style="stroke:#808080;stroke-width:0.5;" fill="#FFFFE0"/><text x="101.68" y="391.364" fill="#000" font-size="13" textLength="55.504" font-weight="700">Alumno</text><text x="161.316" y="391.364" fill="#000" font-size="13" textLength="231.061">revisa la información de la solicitud</text><text x="101.68" y="406.497" fill="#000" font-size="13" textLength="58.906" font-weight="700">Sistema</text><text x="164.719" y="406.497" fill="#000" font-size="13" textLength="258.502">permite mantener los datos en pantalla</text><text x="101.68" y="421.629" fill="#000" font-size="13" textLength="234.146">• Permite solicitar editar la solicitud</text><text x="101.68" y="436.762" fill="#000" font-size="13" textLength="296.518">• Permite solicitar cancelar y volver al listado</text></g></g><g class="entity" data-qualified-name="SOLICITUD_DISPENSA_ABIERTA" id="ent0004" data-source-line="37"><rect x="7" y="721.3" width="239.352" height="50" fill="#F5F5F5" style="stroke:#808080;stroke-width:0.5;" rx="12.5" ry="12.5"/><line x1="7" y1="747.597" x2="246.352" y2="747.597" style="stroke:#808080;stroke-width:0.5;"/><text x="17" y="739.295" fill="#000" font-size="14" textLength="219.352">SOLICITUD_DISPENSA_ABIERTA</text></g><g class="entity" data-qualified-name="DISPENSAS_ABIERTO" id="ent0005" data-source-line="38"><rect x="305.99" y="721.3" width="167.362" height="50" fill="#F5F5F5" style="stroke:#808080;stroke-width:0.5;" rx="12.5" ry="12.5"/><line x1="305.99" y1="747.597" x2="473.352" y2="747.597" style="stroke:#808080;stroke-width:0.5;"/><text x="315.99" y="739.295" fill="#000" font-size="14" textLength="147.362">DISPENSAS_ABIERTO</text></g><!--link consultarSolicitudDispensa to SOLICITUD_DISPENSA_ABIERTA--><g class="link" data-entity-1="ent0001" data-entity-2="ent0004" id="lnk11" data-source-line="40" data-link-type="dependency"><path d="M157.75,502.66 C136.68,554.74 120.68,594.3 120.68,594.3 C120.68,594.3 120.68,629.3 120.68,629.3 C120.68,629.3 123.402,681.977 125.162,715.987" style="stroke:#008000;stroke-width:1;" fill="none" id="consultarSolicitudDispensa-to-SOLICITUD_DISPENSA_ABIERTA"/><polygon points="125.42,720.98,128.95,711.785,125.162,715.987,120.96,712.199,125.42,720.98" fill="#008000" style="stroke:#008000;stroke-width:1;stroke-linejoin:miter;stroke-miterlimit:10;"/><path d="M125.68,599.3 L125.68,624.3 L309.68,624.3 L309.68,609.3 L299.68,599.3 L125.68,599.3" style="stroke:#808080;stroke-width:0.5;" fill="#FFFFE0"/><path d="M299.68,599.3 L299.68,609.3 L309.68,609.3 L299.68,599.3" style="stroke:#808080;stroke-width:0.5;" fill="#FFFFE0"/><text x="131.68" y="616.367" fill="#000" font-size="13" textLength="163.814">editarSolicitudDispensa()</text></g><!--link consultarSolicitudDispensa to DISPENSAS_ABIERTO--><g class="link" data-entity-1="ent0001" data-entity-2="ent0005" id="lnk12" data-source-line="45" data-link-type="dependency"><path d="M324.26,502.63 C348.16,591.28 370.649,674.732 381.809,716.132" style="stroke:#00F;stroke-width:1;" fill="none" id="consultarSolicitudDispensa-to-DISPENSAS_ABIERTO"/><polygon points="383.11,720.96,384.63,711.229,381.809,716.132,376.905,713.311,383.11,720.96" fill="#00F" style="stroke:#00F;stroke-width:1;stroke-linejoin:miter;stroke-miterlimit:10;"/><path d="M362.68,599.3 L362.68,624.3 L490.68,624.3 L490.68,609.3 L480.68,599.3 L362.68,599.3" style="stroke:#808080;stroke-width:0.5;" fill="#FFFFE0"/><path d="M480.68,599.3 L480.68,609.3 L490.68,609.3 L480.68,599.3" style="stroke:#808080;stroke-width:0.5;" fill="#FFFFE0"/><text x="368.68" y="616.367" fill="#000" font-size="13" textLength="107.06">abrirDispensas()</text></g><?plantuml-src ZLJDQjj04BxhAORaq1zgqWRQGma6ntR0fKrCbPv226DfucozcXMxAnTH0dsMtdFg8_XD-YGThUH4ZcnJ6onxzflvPhvlrcwXE4UB6R19oL4E7zv6xZ5eaHUTe5PClim9SgFBwaVhxDnuEiLaCRUcu7HejB62dz_vahGsFvuZZKt9rgYvnR9r77liLZeyUr-zEx3dPI9NXU4WCUmAxT76Hgj4-I8TAPSJEtpvwW3GmMu0_8mYaDSB64knr3X0NlrXbSct9IQh1tbMBO1JMQ5HfWm1Prn8Qng0m3ALyBljuUEQvUhrDVIk3kUMYAzx_LO6YqnWk19z4G809xF-G1SPcvEZMHzStRaqGfgIH1cMPWh6zK6HXZJYDDIg-KBz3kFn7iPOEKyP1igSRAO4X3EhB926b3ngJL22oECjsezDujzVlnlz10CQOItl6nWuDMVqXKXOmXVZrTAqaaQh1y6SoVvzHxWpKb9Lk5QIZ8SvfjXA-bGuhsvLWeaIg-08XYOZ5dTLuqfNXECD4SI6_nFTqbB9ZiX0Yc-DpHh6UiPDuNUgbo5xOget9qKldyIoGbnfsHvhsYIidHR9q_3OmhKTdo0dL2rf2KkZbyA9MeOBncmAS_zuT-ABpvFXvFBRw6OqYQVZytXmCpYTZBzU3iBoxZvU5rZ7u-RW8kHreb6qvn8-cTCJU_Pm1iTizKVJygsMQSlTZvuMOJ_vJ1TKStVxtaePhiIwWcin_GC0?></g></svg>