<?xml version="1.0" encoding="us-ascii" standalone="no"?><svg xmlns="http://www.w3.org/2000/svg" xmlns:xlink="http://www.w3.org/1999/xlink" contentStyleType="text/css" height="739px" preserveAspectRatio="none" style="width:493px;height:739px;background:#FFFFFF;" version="1.1" viewBox="0 0 493 739" width="493px" zoomAndPan="magnify"><defs/><g><path d="M37.5,7 L467.5,7 A12.5,12.5 0 0 1 480,19.5 L480,34.6094 L25,34.6094 L25,19.5 A12.5,12.5 0 0 1 37.5,7 " fill="#F5F5F5" style="stroke:#F5F5F5;stroke-width:1.0;"/><rect fill="none" height="455.6094" rx="12.5" ry="12.5" style="stroke:#808080;stroke-width:0.5;" width="455" x="25" y="7"/><line style="stroke:#808080;stroke-width:0.5;" x1="25" x2="480" y1="34.6094" y2="34.6094"/><text fill="#000000" font-family="sans-serif" font-size="14" lengthAdjust="spacing" textLength="180" x="162.5" y="26.5332">consultarSolicitudDispensa()</text><g id="consultarSolicitudDispensa.Paso1"><rect fill="#F5F5F5" height="50" rx="12.5" ry="12.5" style="stroke:#808080;stroke-width:0.5;" width="50" x="37" y="137.6094"/><line style="stroke:#808080;stroke-width:0.5;" x1="37" x2="87" y1="165.2188" y2="165.2188"/><text fill="#000000" font-family="sans-serif" font-size="14" lengthAdjust="spacing" textLength="4" x="60" y="157.1426">&#160;</text></g><g id="consultarSolicitudDispensa.Paso2"><rect fill="#F5F5F5" height="50" rx="12.5" ry="12.5" style="stroke:#808080;stroke-width:0.5;" width="50" x="37" y="259.6094"/><line style="stroke:#808080;stroke-width:0.5;" x1="37" x2="87" y1="287.2188" y2="287.2188"/><text fill="#000000" font-family="sans-serif" font-size="14" lengthAdjust="spacing" textLength="4" x="60" y="279.1426">&#160;</text></g><ellipse cx="62" cy="55.6094" fill="#222222" rx="10" ry="10" style="stroke:#222222;stroke-width:1.0;"/><ellipse cx="62" cy="441.6094" fill="none" rx="11" ry="11" style="stroke:#222222;stroke-width:1.0;"/><ellipse cx="62" cy="441.6094" fill="#222222" rx="6" ry="6" style="stroke:#222222;stroke-width:1.0;"/><!--link *start*consultarSolicitudDispensa to Paso1--><g id="link_*start*consultarSolicitudDispensa_Paso1"><path d="M62,65.9294 C62,81.7894 62,108.5194 62,131.2494 " fill="none" id="*start*consultarSolicitudDispensa-to-Paso1" style="stroke:#008000;stroke-width:1.0;"/><polygon fill="#008000" points="62,137.2494,66,128.2494,62,132.2494,58,128.2494,62,137.2494" style="stroke:#008000;stroke-width:1.0;"/><path d="M67,88.6094 L67,114.6094 L329,114.6094 L329,98.6094 L319,88.6094 L67,88.6094 " fill="#FFFFE0" style="stroke:#808080;stroke-width:0.5;"/><path d="M319,88.6094 L319,98.6094 L329,98.6094 L319,88.6094 " fill="#FFFFE0" style="stroke:#808080;stroke-width:0.5;"/><text fill="#000000" font-family="sans-serif" font-size="13" font-weight="bold" lengthAdjust="spacing" textLength="49" x="73" y="107.1045">Alumno</text><text fill="#000000" font-family="sans-serif" font-size="13" lengthAdjust="spacing" textLength="188" x="126" y="107.1045">solicita seleccionar una solicitud</text></g><!--link Paso1 to Paso2--><g id="link_Paso1_Paso2"><path d="M62,187.8894 C62,208.7094 62,232.5494 62,253.3594 " fill="none" id="Paso1-to-Paso2" style="stroke:#008000;stroke-width:1.0;"/><polygon fill="#008000" points="62,259.3594,66,250.3594,62,254.3594,58,250.3594,62,259.3594" style="stroke:#008000;stroke-width:1.0;"/><path d="M67,210.6094 L67,236.6094 L471,236.6094 L471,220.6094 L461,210.6094 L67,210.6094 " fill="#FFFFE0" style="stroke:#808080;stroke-width:0.5;"/><path d="M461,210.6094 L461,220.6094 L471,220.6094 L461,210.6094 " fill="#FFFFE0" style="stroke:#808080;stroke-width:0.5;"/><text fill="#000000" font-family="sans-serif" font-size="13" font-weight="bold" lengthAdjust="spacing" textLength="51" x="73" y="229.1045">Sistema</text><text fill="#000000" font-family="sans-serif" font-size="13" lengthAdjust="spacing" textLength="328" x="128" y="229.1045">permite abrir el detalle y retornar los datos de la solicitud</text></g><!--link Paso2 to *end*consultarSolicitudDispensa--><g id="link_Paso2_*end*consultarSolicitudDispensa"><path d="M62,309.8294 C62,344.3994 62,400.3794 62,424.5594 " fill="none" id="Paso2-to-*end*consultarSolicitudDispensa" style="stroke:#008000;stroke-width:1.0;"/><polygon fill="#008000" points="62,430.5594,66,421.5594,62,425.5594,58,421.5594,62,430.5594" style="stroke:#008000;stroke-width:1.0;"/><path d="M67,332.6094 L67,407.6094 L368,407.6094 L368,342.6094 L358,332.6094 L67,332.6094 " fill="#FFFFE0" style="stroke:#808080;stroke-width:0.5;"/><path d="M358,332.6094 L358,342.6094 L368,342.6094 L358,332.6094 " fill="#FFFFE0" style="stroke:#808080;stroke-width:0.5;"/><text fill="#000000" font-family="sans-serif" font-size="13" font-weight="bold" lengthAdjust="spacing" textLength="49" x="73" y="351.1045">Alumno</text><text fill="#000000" font-family="sans-serif" font-size="13" lengthAdjust="spacing" textLength="201" x="126" y="351.1045">revisa la informaci&#243;n de la solicitud</text><text fill="#000000" font-family="sans-serif" font-size="13" font-weight="bold" lengthAdjust="spacing" textLength="51" x="73" y="367.4561">Sistema</text><text fill="#000000" font-family="sans-serif" font-size="13" lengthAdjust="spacing" textLength="225" x="128" y="367.4561">permite mantener los datos en pantalla</text><text fill="#000000" font-family="sans-serif" font-size="13" lengthAdjust="spacing" textLength="205" x="73" y="383.8076">&#8226; Permite solicitar editar la solicitud</text><text fill="#000000" font-family="sans-serif" font-size="13" lengthAdjust="spacing" textLength="258" x="73" y="400.1592">&#8226; Permite solicitar cancelar y volver al listado</text></g><g id="SOLICITUD_DISPENSA_ABIERTA"><rect fill="#F5F5F5" height="50" rx="12.5" ry="12.5" style="stroke:#808080;stroke-width:0.5;" width="233" x="7" y="683"/><line style="stroke:#808080;stroke-width:0.5;" x1="7" x2="240" y1="710.6094" y2="710.6094"/><text fill="#000000" font-family="sans-serif" font-size="14" lengthAdjust="spacing" textLength="213" x="17" y="702.5332">SOLICITUD_DISPENSA_ABIERTA</text></g><g id="DISPENSAS_ABIERTO"><rect fill="#F5F5F5" height="50" rx="12.5" ry="12.5" style="stroke:#808080;stroke-width:0.5;" width="164" x="300.5" y="683"/><line style="stroke:#808080;stroke-width:0.5;" x1="300.5" x2="464.5" y1="710.6094" y2="710.6094"/><text fill="#000000" font-family="sans-serif" font-size="14" lengthAdjust="spacing" textLength="144" x="310.5" y="702.5332">DISPENSAS_ABIERTO</text></g><!--link consultarSolicitudDispensa to SOLICITUD_DISPENSA_ABIERTA--><g id="link_consultarSolicitudDispensa_SOLICITUD_DISPENSA_ABIERTA"><path d="M167.05,463.16 C147.58,514.91 132.5,555 132.5,555 C132.5,555 127.8136,634.0704 125.2836,676.9304 " fill="none" id="consultarSolicitudDispensa-to-SOLICITUD_DISPENSA_ABIERTA" style="stroke:#008000;stroke-width:1.0;"/><polygon fill="#008000" points="124.93,682.92,129.4534,674.1713,125.2246,677.9287,121.4673,673.6999,124.93,682.92" style="stroke:#008000;stroke-width:1.0;"/><path d="M137.5,560 L137.5,586 L302.5,586 L302.5,570 L292.5,560 L137.5,560 " fill="#FFFFE0" style="stroke:#808080;stroke-width:0.5;"/><path d="M292.5,560 L292.5,570 L302.5,570 L292.5,560 " fill="#FFFFE0" style="stroke:#808080;stroke-width:0.5;"/><text fill="#000000" font-family="sans-serif" font-size="13" lengthAdjust="spacing" textLength="144" x="143.5" y="578.4951">editarSolicitudDispensa()</text></g><!--link consultarSolicitudDispensa to DISPENSAS_ABIERTO--><g id="link_consultarSolicitudDispensa_DISPENSAS_ABIERTO"><path d="M315.22,463.22 C339.56,551.44 362.7434,635.4163 374.2634,677.1463 " fill="none" id="consultarSolicitudDispensa-to-DISPENSAS_ABIERTO" style="stroke:#FF0000;stroke-width:1.0;"/><polygon fill="#FF0000" points="375.86,682.93,377.3208,673.1901,374.5295,678.1103,369.6093,675.3189,375.86,682.93" style="stroke:#FF0000;stroke-width:1.0;"/><path d="M355.5,560 L355.5,586 L470.5,586 L470.5,570 L460.5,560 L355.5,560 " fill="#FFFFE0" style="stroke:#808080;stroke-width:0.5;"/><path d="M460.5,560 L460.5,570 L470.5,570 L460.5,560 " fill="#FFFFE0" style="stroke:#808080;stroke-width:0.5;"/><text fill="#000000" font-family="sans-serif" font-size="13" lengthAdjust="spacing" textLength="94" x="361.5" y="578.4951">abrirDispensas()</text></g><!--SRC=[ZLFRQjj047tNLmp9GozWsXhQfs1mOXSC9J5L-XH266idxkBLhDXTkOXIwBVqlK_zXFn9lwIZbPKeaUn60btENCwPo_gDvW8Tvi1MaQS2FhnD_3tea3Szq6YcK1K4XJLL_TEndTj0fvXjriwMhCwiiKxyrrz3HSRORqyzhLFa6g-rmwfZJWFsCnr_V5_VFRUdQH9Vmt2KMVQb2UXIQtIcGwbcsXV47b- -EWBqiDy1lYS9oFK2vf9CMG_8TtzOv_ArnUpkjxnh2U1rNXgKAYFWhOzXEm4GMPO2lnk6nmtBrUjh65qThnqHNuycdGYMDe7bkkcR202Sh2PJK-PiJzwi9k0RvIA436MPjYnYIiRMKAeOHgnYheOlvkynZWymfje7oZ5I5kHoBKwuSje16L0Kq1Y22Xm5wtZN3eMXVXAO_wiPFr8Z_NXUzOwsMeOb19flhSinqpAbGSwzPUJ8WPYwcebbbbmNXRlOlpz_mN8NqBPSQbVnDS0rx9yXPrHlImLRQxR2YKQAYnlsk34_xfSulVYqE5jSVfdTp1RfSdwUJc-cfulvvyjftABzvZP1YwSxmqMCww59Sk0qF0nd9ECvm1advkeJtvbRqwQ1GvWyBC9XSaUgeUxB7cICgzacy5sYVm00]--></g></svg>