<?plantuml 1.2026.1beta5?><svg xmlns="http://www.w3.org/2000/svg" xmlns:xlink="http://www.w3.org/1999/xlink" contentStyleType="text/css" data-diagram-type="STATE" height="1152px" preserveAspectRatio="none" style="width:791px;height:1152px;background:#FFFFFF;" version="1.1" viewBox="0 0 791 1152" width="791px" zoomAndPan="magnify"><title>Crear solicitud de dispensa</title><defs/><g><g class="title" data-source-line="1"><text fill="#000000" font-family="sans-serif" font-size="14" font-weight="bold" lengthAdjust="spacing" textLength="214.9082" x="277.9092" y="32.9951">Crear solicitud de dispensa</text></g><g><rect fill="#F1F1F1" height="76.2969" rx="12.5" ry="12.5" style="stroke:#181818;stroke-width:0.5;" width="187.3623" x="424.55" y="183.2969"/><line style="stroke:#181818;stroke-width:0.5;" x1="424.55" x2="611.9123" y1="229.5938" y2="229.5938"/><text fill="#000000" font-family="sans-serif" font-size="14" lengthAdjust="spacing" textLength="147.3623" x="444.55" y="211.292">DISPENSAS_ABIERTO</text></g><path d="M271.22,359.5969 L765.2266,359.5969 A12.5,12.5 0 0 1 777.7266,372.0969 L777.7266,405.8937 L258.72,405.8937 L258.72,372.0969 A12.5,12.5 0 0 1 271.22,359.5969" fill="#F1F1F1"/><rect fill="none" height="286.9569" rx="12.5" ry="12.5" style="stroke:#181818;stroke-width:0.5;" width="519.0066" x="258.72" y="359.5969"/><line style="stroke:#181818;stroke-width:0.5;" x1="258.72" x2="777.7266" y1="405.8937" y2="405.8937"/><text fill="#000000" font-family="sans-serif" font-size="14" lengthAdjust="spacing" textLength="219.3516" x="408.5475" y="387.592">SOLICITUD_DISPENSA_ABIERTA</text><g><rect fill="#F1F1F1" height="90.2656" rx="12.5" ry="12.5" style="stroke:#181818;stroke-width:0.5;" width="181.2578" x="270.72" y="480.5937"/><line style="stroke:#181818;stroke-width:0.5;" x1="270.72" x2="451.9778" y1="526.8906" y2="526.8906"/><text fill="#000000" font-family="sans-serif" font-size="14" lengthAdjust="spacing" textLength="141.2578" x="290.72" y="508.5889">Edici&#243;n de Dispensa</text><text fill="#000000" font-family="sans-serif" font-size="12" lengthAdjust="spacing" textLength="3.8145" x="285.72" y="553.0293">&#160;</text></g><ellipse cx="361.35" cy="426.8937" fill="#222222" rx="10" ry="10" style="stroke:#222222;stroke-width:1;"/><ellipse cx="361.35" cy="625.5537" fill="none" rx="11" ry="11" style="stroke:#222222;stroke-width:1;"/><ellipse cx="361.35" cy="625.5537" fill="#222222" rx="6" ry="6" style="stroke:#222222;stroke-width:1;"/><g class="entity" data-qualified-name="SOLICITUD_DISPENSA_ABIERTA_COMP.GMN2" data-source-line="34" id="ent0003"><path d="M469.98,472.8937 L469.98,522.5537 L452.31,526.5537 L469.98,530.5537 L469.98,578.5578 A0,0 0 0 0 469.98,578.5578 L768.7266,578.5578 A0,0 0 0 0 768.7266,578.5578 L768.7266,482.8937 L758.7266,472.8937 L469.98,472.8937 A0,0 0 0 0 469.98,472.8937" fill="#FEFFDD" style="stroke:#181818;stroke-width:0.5;"/><path d="M758.7266,472.8937 L758.7266,482.8937 L768.7266,482.8937 L758.7266,472.8937" fill="#FEFFDD" style="stroke:#181818;stroke-width:0.5;"/><text fill="#000000" font-family="sans-serif" font-size="13" font-weight="bold" lengthAdjust="spacing" textLength="112.7598" x="485.98" y="499.9606">Alumno solicita</text><text fill="#000000" font-family="sans-serif" font-size="13" lengthAdjust="spacing" textLength="140.6641" x="602.8721" y="499.9606">completar el registro:</text><text fill="#000000" font-family="sans-serif" font-size="13" lengthAdjust="spacing" textLength="157.5488" x="485.98" y="515.0935">&#8226; Motivo de la dispensa.</text><text fill="#000000" font-family="sans-serif" font-size="13" lengthAdjust="spacing" textLength="170.8726" x="485.98" y="530.2263">&#8226; Adjunta documentaci&#243;n.</text><text fill="#000000" font-family="sans-serif" font-size="13" font-weight="bold" lengthAdjust="spacing" textLength="120.999" x="485.98" y="545.3591">Sistema permite</text><text fill="#000000" font-family="sans-serif" font-size="13" lengthAdjust="spacing" textLength="128.4829" x="611.1113" y="545.3591">la edici&#243;n mediante</text><text fill="#000000" font-family="sans-serif" font-size="13" font-weight="bold" lengthAdjust="spacing" textLength="186.875" x="485.98" y="560.4919">editarSolicitudDispensa()</text><text fill="#000000" font-family="sans-serif" font-size="13" lengthAdjust="spacing" textLength="4.1323" x="672.855" y="560.4919">.</text></g><!--link *start*SOLICITUD_DISPENSA_ABIERTA_COMP to FormularioEdicion--><g class="link" data-entity-1="ent0005" data-entity-2="ent0005" data-link-type="dependency" data-source-line="31" id="lnk6"><path d="M361.35,437.0937 C361.35,447.4537 361.35,458.2237 361.35,474.4037" fill="none" id="*start*SOLICITUD_DISPENSA_ABIERTA_COMP-to-FormularioEdicion" style="stroke:#008000;stroke-width:1;"/><polygon fill="#008000" points="361.35,480.4037,365.35,471.4037,361.35,475.4037,357.35,471.4037,361.35,480.4037" style="stroke:#008000;stroke-width:1;"/></g><!--link FormularioEdicion to *end*SOLICITUD_DISPENSA_ABIERTA_COMP--><g class="link" data-entity-1="ent0005" data-entity-2="ent0007" data-link-type="dependency" data-source-line="42" id="lnk8"><path d="M361.35,571.2537 C361.35,587.0937 361.35,597.5238 361.35,608.1038" fill="none" id="FormularioEdicion-to-*end*SOLICITUD_DISPENSA_ABIERTA_COMP" style="stroke:#008000;stroke-width:1;"/><polygon fill="#008000" points="361.35,614.1038,365.35,605.1038,361.35,609.1038,357.35,605.1038,361.35,614.1038" style="stroke:#008000;stroke-width:1;"/></g><g><rect fill="#F1F1F1" height="76.2969" rx="12.5" ry="12.5" style="stroke:#181818;stroke-width:0.5;" width="187.3623" x="424.55" y="948.5469"/><line style="stroke:#181818;stroke-width:0.5;" x1="424.55" x2="611.9123" y1="994.8438" y2="994.8438"/><text fill="#000000" font-family="sans-serif" font-size="14" lengthAdjust="spacing" textLength="147.3623" x="444.55" y="976.542">DISPENSAS_ABIERTO</text></g><ellipse cx="518.23" cy="73.2969" fill="#222222" rx="10" ry="10" style="stroke:#222222;stroke-width:1;"/><ellipse cx="518.23" cy="1135.8469" fill="none" rx="11" ry="11" style="stroke:#222222;stroke-width:1;"/><ellipse cx="518.23" cy="1135.8469" fill="#222222" rx="6" ry="6" style="stroke:#222222;stroke-width:1;"/><!--link *start* to DISPENSAS_ABIERTO_INICIAL--><g class="link" data-entity-1="ent0002" data-entity-2="ent0002" data-link-type="dependency" data-source-line="14" id="lnk3"><path d="M518.23,83.4769 C518.23,103.6769 518.23,143.7469 518.23,177.1069" fill="none" id="*start*-to-DISPENSAS_ABIERTO_INICIAL" style="stroke:#008000;stroke-width:1;"/><polygon fill="#008000" points="518.23,183.1069,522.23,174.1069,518.23,178.1069,514.23,174.1069,518.23,183.1069" style="stroke:#008000;stroke-width:1;"/></g><!--link DISPENSAS_ABIERTO_INICIAL to SOLICITUD_DISPENSA_ABIERTA_COMP--><g class="link" data-entity-1="ent0002" data-entity-2="ent0003" data-link-type="dependency" data-source-line="17" id="lnk4"><path d="M518.23,260.0169 C518.23,286.1469 518.23,316.4869 518.23,353.1069" fill="none" id="DISPENSAS_ABIERTO_INICIAL-to-SOLICITUD_DISPENSA_ABIERTA_COMP" style="stroke:#008000;stroke-width:1;"/><polygon fill="#008000" points="518.23,359.1069,522.23,350.1069,518.23,354.1069,514.23,350.1069,518.23,359.1069" style="stroke:#008000;stroke-width:1;"/><path d="M37.23,229.5569 L37.23,304.5569 L331.23,304.5569 L331.23,239.5569 L321.23,229.5569 L37.23,229.5569" fill="#FEFFDD" style="stroke:#181818;stroke-width:0.5;"/><path d="M321.23,229.5569 L321.23,239.5569 L331.23,239.5569 L321.23,229.5569" fill="#FEFFDD" style="stroke:#181818;stroke-width:0.5;"/><text fill="#000000" font-family="sans-serif" font-size="13" font-weight="bold" lengthAdjust="spacing" textLength="112.7598" x="53.23" y="256.6238">Alumno solicita</text><text fill="#000000" font-family="sans-serif" font-size="13" lengthAdjust="spacing" textLength="128.5083" x="170.1221" y="256.6238">crear una dispensa.</text><text fill="#000000" font-family="sans-serif" font-size="13" font-weight="bold" lengthAdjust="spacing" textLength="120.999" x="53.23" y="271.7566">Sistema permite</text><text fill="#000000" font-family="sans-serif" font-size="13" lengthAdjust="spacing" textLength="124.4712" x="178.3613" y="271.7566">el ingreso de datos</text><text fill="#000000" font-family="sans-serif" font-size="13" lengthAdjust="spacing" textLength="253.6714" x="53.23" y="286.8894">iniciales (Asignatura, periodo, horario).</text><text fill="#000000" font-family="sans-serif" font-size="13" lengthAdjust="spacing" textLength="159.3452" x="347.9649" y="271.7566">crearSolicitudDispensa()</text></g><!--link SOLICITUD_DISPENSA_ABIERTA_COMP to DISPENSAS_ABIERTO_FINAL--><g class="link" data-entity-1="ent0003" data-entity-2="ent0004" data-link-type="dependency" data-source-line="46" id="lnk9"><path d="M487,646.8669 C487,750.7269 487,877.6169 487,942.1169" fill="none" id="SOLICITUD_DISPENSA_ABIERTA_COMP-to-DISPENSAS_ABIERTO_FINAL" style="stroke:#008000;stroke-width:1;"/><polygon fill="#008000" points="487,948.1169,491,939.1169,487,943.1169,483,939.1169,487,948.1169" style="stroke:#008000;stroke-width:1;"/><path d="M6,702.4969 L6,792.4969 L283,792.4969 L283,712.4969 L273,702.4969 L6,702.4969" fill="#FEFFDD" style="stroke:#181818;stroke-width:0.5;"/><path d="M273,702.4969 L273,712.4969 L283,712.4969 L273,702.4969" fill="#FEFFDD" style="stroke:#181818;stroke-width:0.5;"/><text fill="#000000" font-family="sans-serif" font-size="13" font-weight="bold" lengthAdjust="spacing" textLength="77.3589" x="22" y="729.5638">GUARDAR:</text><text fill="#000000" font-family="sans-serif" font-size="13" font-weight="bold" lengthAdjust="spacing" textLength="112.7598" x="22" y="744.6966">Alumno solicita</text><text fill="#000000" font-family="sans-serif" font-size="13" lengthAdjust="spacing" textLength="118.3647" x="138.8921" y="744.6966">registrar cambios.</text><text fill="#000000" font-family="sans-serif" font-size="13" font-weight="bold" lengthAdjust="spacing" textLength="120.999" x="22" y="759.8294">Sistema permite</text><text fill="#000000" font-family="sans-serif" font-size="13" lengthAdjust="spacing" textLength="111.3442" x="147.1313" y="759.8294">guardar la nueva</text><text fill="#000000" font-family="sans-serif" font-size="13" lengthAdjust="spacing" textLength="165.2168" x="22" y="774.9622">solicitud definitivamente.</text><text fill="#000000" font-family="sans-serif" font-size="13" lengthAdjust="spacing" textLength="176.9092" x="299.4756" y="752.263">guardarSolicitudDispensa()</text></g><!--link SOLICITUD_DISPENSA_ABIERTA_COMP to DISPENSAS_ABIERTO_FINAL--><g class="link" data-entity-1="ent0003" data-entity-2="ent0004" data-link-type="dependency" data-source-line="54" id="lnk10"><path d="M549.45,646.8669 C549.45,750.7269 549.45,877.6169 549.45,942.1169" fill="none" id="SOLICITUD_DISPENSA_ABIERTA_COMP-to-DISPENSAS_ABIERTO_FINAL-1" style="stroke:#FF0000;stroke-width:1;"/><polygon fill="#FF0000" points="549.45,948.1169,553.45,939.1169,549.45,943.1169,545.45,939.1169,549.45,948.1169" style="stroke:#FF0000;stroke-width:1;"/><text fill="#000000" font-family="sans-serif" font-size="13" lengthAdjust="spacing" textLength="164.6899" x="35.45" y="852.263">cerrarSolicitudDispensa()</text><path d="M216.1399,802.4969 L216.1399,892.4969 L544.1399,892.4969 L544.1399,812.4969 L534.1399,802.4969 L216.1399,802.4969" fill="#FEFFDD" style="stroke:#181818;stroke-width:0.5;"/><path d="M534.1399,802.4969 L534.1399,812.4969 L544.1399,812.4969 L534.1399,802.4969" fill="#FEFFDD" style="stroke:#181818;stroke-width:0.5;"/><text fill="#000000" font-family="sans-serif" font-size="13" font-weight="bold" lengthAdjust="spacing" textLength="63.7114" x="232.1399" y="829.5638">CERRAR:</text><text fill="#000000" font-family="sans-serif" font-size="13" font-weight="bold" lengthAdjust="spacing" textLength="112.7598" x="232.1399" y="844.6966">Alumno solicita</text><text fill="#000000" font-family="sans-serif" font-size="13" lengthAdjust="spacing" textLength="126.8325" x="349.032" y="844.6966">salir del formulario.</text><text fill="#000000" font-family="sans-serif" font-size="13" font-weight="bold" lengthAdjust="spacing" textLength="120.999" x="232.1399" y="859.8294">Sistema permite</text><text fill="#000000" font-family="sans-serif" font-size="13" lengthAdjust="spacing" textLength="162.7539" x="357.2713" y="859.8294">descartar cambios extra,</text><text fill="#000000" font-family="sans-serif" font-size="13" lengthAdjust="spacing" textLength="207.689" x="232.1399" y="874.9622">pero no evita la creaci&#243;n inicial.</text></g><!--link DISPENSAS_ABIERTO_FINAL to *end*--><g class="link" data-entity-1="ent0004" data-entity-2="ent0011" data-link-type="dependency" data-source-line="62" id="lnk12"><path d="M518.23,1025.1069 C518.23,1058.0769 518.23,1097.4969 518.23,1118.4269" fill="none" id="DISPENSAS_ABIERTO_FINAL-to-*end*" style="stroke:#0000FF;stroke-width:1;"/><polygon fill="#0000FF" points="518.23,1124.4269,522.23,1115.4269,518.23,1119.4269,514.23,1115.4269,518.23,1124.4269" style="stroke:#0000FF;stroke-width:1;"/></g><?plantuml-src bPNDJXin4CVl-nIZz014XD9hX92sIK0hGOAooGcXo5bFWi5hfxONzKEL-WvzWzvwxYFm9dsIZlSh2oI1SWYMTyQU-Vt_E-k4amWzWyo0rL8amcKSE08NTeNAiY3OWqwd0xtHy2mwdux3NlJuSmZz0GpYINGnyWy3Uo_KYXcMWj8SBQxWm_4nDBODK_VbTcDN2eNkomf16tUh6m-k6ET2BIdSNz_7XL1KsUCVvIiRMCUujd394aD9ZZc4VXHV3OPn6C_2Zz5WF1dDec7KYy8BgF-OXTQBi5QP7uykA7moxS-ga38YdFL6brTL_lQmrjP2pg9XiuojXGJNxHleNBzR6aHrqpdTtbFEXEGXL5mRGY8XOLPxDXdzsvyGRLlooi4nUH1i9zIyypKENKYyLUBAAVtI9Vi7WTBKliI50wsyilU1R_PaVXhAB5MwSXSxUJy_BKw1JB7QPqTLU2oimvJ12aqg7ERXr27PmM3H96UEvC_Zo_RGmdvenL8nbnbsw7E5vleGRhLXj3mu2b1ny2LwU3sThiXoB1MedAP371gbkn1xW0nQ0xvsMzLX2oW536PEIF6LrS-dqHijz2qlk8WzqoRDfAyilug0ULDil3RFod_s82G4IvPIyv81Iog5VVN4Y-m0dpBqiDB7tuxw1uiC7eGLSudv4I_lxSBwWkS6V16z3it5Dc9vIseljWJkafy4aEZ80bGizKII6zsji_x--0MNsec7N6xvt2HLICZlCkNegKwob9GiH3bgNhx9J7GULgHJMZ4227LIkqrRRgF5s-tYxDfA3Ma64XOokwlD13Ioc3SAC0beVQkIQj65J3AloFhY5FbtYpPDBKYRuBltRaodSd8BpuSYCShNnHsak2URqLe7h_bnVNfdux0fvbONbXap_3zV-VDfEEw7uwxdlMiCbD8Jd8IbSw7jpYbGLkBfgGmV2cpDZrP5n9i1cw_y6rWOvA-HID2O7I3Ar-4fYTvWF7u324kg5fDyKTjW9mlwoYRCk3KvmCy4yZ3FeK1DdGC-qFaUbn-tJxu7JJZR6YOeSvbXwRv_?></g></svg>