<?xml version="1.0" encoding="us-ascii" standalone="no"?><svg xmlns="http://www.w3.org/2000/svg" xmlns:xlink="http://www.w3.org/1999/xlink" contentStyleType="text/css" height="788px" preserveAspectRatio="none" style="width:487px;height:788px;background:#FFFFFF;" version="1.1" viewBox="0 0 487 788" width="487px" zoomAndPan="magnify"><defs/><g><path d="M117,7 L388,7 A12.5,12.5 0 0 1 400.5,19.5 L400.5,34.6094 L104.5,34.6094 L104.5,19.5 A12.5,12.5 0 0 1 117,7 " fill="#F5F5F5" style="stroke:#F5F5F5;stroke-width:1.0;"/><rect fill="none" height="504.6094" rx="12.5" ry="12.5" style="stroke:#808080;stroke-width:0.5;" width="296" x="104.5" y="7"/><line style="stroke:#808080;stroke-width:0.5;" x1="104.5" x2="400.5" y1="34.6094" y2="34.6094"/><text fill="#000000" font-family="sans-serif" font-size="14" lengthAdjust="spacing" textLength="155" x="175" y="26.5332">crearSolicitudDispensa()</text><g id="crearSolicitudDispensa.Paso1"><rect fill="#F5F5F5" height="50" rx="12.5" ry="12.5" style="stroke:#808080;stroke-width:0.5;" width="50" x="116.5" y="137.6094"/><line style="stroke:#808080;stroke-width:0.5;" x1="116.5" x2="166.5" y1="165.2188" y2="165.2188"/><text fill="#000000" font-family="sans-serif" font-size="14" lengthAdjust="spacing" textLength="4" x="139.5" y="157.1426">&#160;</text></g><g id="crearSolicitudDispensa.Paso2"><rect fill="#F5F5F5" height="50" rx="12.5" ry="12.5" style="stroke:#808080;stroke-width:0.5;" width="50" x="116.5" y="308.6094"/><line style="stroke:#808080;stroke-width:0.5;" x1="116.5" x2="166.5" y1="336.2188" y2="336.2188"/><text fill="#000000" font-family="sans-serif" font-size="14" lengthAdjust="spacing" textLength="4" x="139.5" y="328.1426">&#160;</text></g><ellipse cx="141.5" cy="55.6094" fill="#222222" rx="10" ry="10" style="stroke:#222222;stroke-width:1.0;"/><ellipse cx="141.5" cy="490.6094" fill="none" rx="11" ry="11" style="stroke:#222222;stroke-width:1.0;"/><ellipse cx="141.5" cy="490.6094" fill="#222222" rx="6" ry="6" style="stroke:#222222;stroke-width:1.0;"/><!--link *start*crearSolicitudDispensa to Paso1--><g id="link_*start*crearSolicitudDispensa_Paso1"><path d="M141.5,65.9294 C141.5,81.7894 141.5,108.5194 141.5,131.2494 " fill="none" id="*start*crearSolicitudDispensa-to-Paso1" style="stroke:#008000;stroke-width:1.0;"/><polygon fill="#008000" points="141.5,137.2494,145.5,128.2494,141.5,132.2494,137.5,128.2494,141.5,137.2494" style="stroke:#008000;stroke-width:1.0;"/><path d="M146.5,88.6094 L146.5,114.6094 L375.5,114.6094 L375.5,98.6094 L365.5,88.6094 L146.5,88.6094 " fill="#FFFFE0" style="stroke:#808080;stroke-width:0.5;"/><path d="M365.5,88.6094 L365.5,98.6094 L375.5,98.6094 L365.5,88.6094 " fill="#FFFFE0" style="stroke:#808080;stroke-width:0.5;"/><text fill="#000000" font-family="sans-serif" font-size="13" font-weight="bold" lengthAdjust="spacing" textLength="49" x="152.5" y="107.1045">Alumno</text><text fill="#000000" font-family="sans-serif" font-size="13" lengthAdjust="spacing" textLength="155" x="205.5" y="107.1045">solicita crear una dispensa</text></g><!--link Paso1 to Paso2--><g id="link_Paso1_Paso2"><path d="M141.5,187.8194 C141.5,219.9494 141.5,270.3394 141.5,302.4394 " fill="none" id="Paso1-to-Paso2" style="stroke:#008000;stroke-width:1.0;"/><polygon fill="#008000" points="141.5,308.4394,145.5,299.4394,141.5,303.4394,137.5,299.4394,141.5,308.4394" style="stroke:#008000;stroke-width:1.0;"/><path d="M146.5,210.6094 L146.5,285.6094 L350.5,285.6094 L350.5,220.6094 L340.5,210.6094 L146.5,210.6094 " fill="#FFFFE0" style="stroke:#808080;stroke-width:0.5;"/><path d="M340.5,210.6094 L340.5,220.6094 L350.5,220.6094 L340.5,210.6094 " fill="#FFFFE0" style="stroke:#808080;stroke-width:0.5;"/><text fill="#000000" font-family="sans-serif" font-size="13" font-weight="bold" lengthAdjust="spacing" textLength="51" x="152.5" y="229.1045">Sistema</text><text fill="#000000" font-family="sans-serif" font-size="13" lengthAdjust="spacing" textLength="128" x="207.5" y="229.1045">solicita datos iniciales</text><text fill="#000000" font-family="sans-serif" font-size="13" lengthAdjust="spacing" textLength="142" x="152.5" y="245.4561">&#8226; Asignatura (obligatorio)</text><text fill="#000000" font-family="sans-serif" font-size="13" lengthAdjust="spacing" textLength="124" x="152.5" y="261.8076">&#8226; Periodo (obligatorio)</text><text fill="#000000" font-family="sans-serif" font-size="13" lengthAdjust="spacing" textLength="121" x="152.5" y="278.1592">&#8226; Horario (obligatorio)</text></g><!--link Paso2 to *end*crearSolicitudDispensa--><g id="link_Paso2_*end*crearSolicitudDispensa"><path d="M141.5,358.8294 C141.5,393.3994 141.5,449.3794 141.5,473.5594 " fill="none" id="Paso2-to-*end*crearSolicitudDispensa" style="stroke:#008000;stroke-width:1.0;"/><polygon fill="#008000" points="141.5,479.5594,145.5,470.5594,141.5,474.5594,137.5,470.5594,141.5,479.5594" style="stroke:#008000;stroke-width:1.0;"/><path d="M146.5,381.6094 L146.5,456.6094 L391.5,456.6094 L391.5,391.6094 L381.5,381.6094 L146.5,381.6094 " fill="#FFFFE0" style="stroke:#808080;stroke-width:0.5;"/><path d="M381.5,381.6094 L381.5,391.6094 L391.5,391.6094 L381.5,381.6094 " fill="#FFFFE0" style="stroke:#808080;stroke-width:0.5;"/><text fill="#000000" font-family="sans-serif" font-size="13" font-weight="bold" lengthAdjust="spacing" textLength="49" x="152.5" y="400.1045">Alumno</text><text fill="#000000" font-family="sans-serif" font-size="13" lengthAdjust="spacing" textLength="154" x="205.5" y="400.1045">proporciona datos iniciales</text><text fill="#000000" font-family="sans-serif" font-size="13" font-weight="bold" lengthAdjust="spacing" textLength="51" x="152.5" y="416.4561">Sistema</text><text fill="#000000" font-family="sans-serif" font-size="13" lengthAdjust="spacing" textLength="169" x="207.5" y="416.4561">permite instanciar la solicitud</text><text fill="#000000" font-family="sans-serif" font-size="13" lengthAdjust="spacing" textLength="205" x="152.5" y="432.8076">&#8226; Permite solicitar editar la solicitud</text><text fill="#000000" font-family="sans-serif" font-size="13" lengthAdjust="spacing" textLength="209" x="152.5" y="449.1592">&#8226; Permite solicitar cancelar creaci&#243;n</text></g><g id="SOLICITUD_DISPENSA_ABIERTA"><rect fill="#F5F5F5" height="50" rx="12.5" ry="12.5" style="stroke:#808080;stroke-width:0.5;" width="233" x="7" y="732"/><line style="stroke:#808080;stroke-width:0.5;" x1="7" x2="240" y1="759.6094" y2="759.6094"/><text fill="#000000" font-family="sans-serif" font-size="14" lengthAdjust="spacing" textLength="213" x="17" y="751.5332">SOLICITUD_DISPENSA_ABIERTA</text></g><g id="DISPENSAS_ABIERTO"><rect fill="#F5F5F5" height="50" rx="12.5" ry="12.5" style="stroke:#808080;stroke-width:0.5;" width="164" x="300.5" y="732"/><line style="stroke:#808080;stroke-width:0.5;" x1="300.5" x2="464.5" y1="759.6094" y2="759.6094"/><text fill="#000000" font-family="sans-serif" font-size="14" lengthAdjust="spacing" textLength="144" x="310.5" y="751.5332">DISPENSAS_ABIERTO</text></g><!--link crearSolicitudDispensa to SOLICITUD_DISPENSA_ABIERTA--><g id="link_crearSolicitudDispensa_SOLICITUD_DISPENSA_ABIERTA"><path d="M164.5,512.4 C146.28,564.56 132.5,604 132.5,604 C132.5,604 127.8136,683.0704 125.2836,725.9304 " fill="none" id="crearSolicitudDispensa-to-SOLICITUD_DISPENSA_ABIERTA" style="stroke:#008000;stroke-width:1.0;"/><polygon fill="#008000" points="124.93,731.92,129.4534,723.1713,125.2246,726.9287,121.4673,722.6999,124.93,731.92" style="stroke:#008000;stroke-width:1.0;"/><path d="M137.5,609 L137.5,635 L302.5,635 L302.5,619 L292.5,609 L137.5,609 " fill="#FFFFE0" style="stroke:#808080;stroke-width:0.5;"/><path d="M292.5,609 L292.5,619 L302.5,619 L292.5,609 " fill="#FFFFE0" style="stroke:#808080;stroke-width:0.5;"/><text fill="#000000" font-family="sans-serif" font-size="13" lengthAdjust="spacing" textLength="144" x="143.5" y="627.4951">editarSolicitudDispensa()</text></g><!--link crearSolicitudDispensa to DISPENSAS_ABIERTO--><g id="link_crearSolicitudDispensa_DISPENSAS_ABIERTO"><path d="M318.55,512.24 C342.03,601.75 363.8079,684.7563 374.6579,726.1263 " fill="none" id="crearSolicitudDispensa-to-DISPENSAS_ABIERTO" style="stroke:#0000FF;stroke-width:1.0;"/><polygon fill="#0000FF" points="376.18,731.93,377.766,722.2097,374.9116,727.0936,370.0277,724.2392,376.18,731.93" style="stroke:#0000FF;stroke-width:1.0;"/><path d="M357.5,609 L357.5,635 L480.5,635 L480.5,619 L470.5,609 L357.5,609 " fill="#FFFFE0" style="stroke:#808080;stroke-width:0.5;"/><path d="M470.5,609 L470.5,619 L480.5,619 L470.5,609 " fill="#FFFFE0" style="stroke:#808080;stroke-width:0.5;"/><text fill="#000000" font-family="sans-serif" font-size="13" lengthAdjust="spacing" textLength="102" x="363.5" y="627.4951">cancelar creaci&#243;n</text></g><!--SRC=[ZLJ1Qjj04BthAuRaqAHWqXhQKp0eiKCD9J5LUWeXZBM3kdYr8tQb5bCA_PRUU-edv4_o9HsjR4Usf13f8EdDstbwRrRoAsqBT9Y3PKMU2lZuBl8xqA5TTK2ZBPNhWg1WiwuVMhLhBka2qrNckBBgaWqxuMVVoZKPmpyEcUmKkOQLELotoac9tKx7Ln_giqCxR1Fv6eQZr16wX8rETLcfgVO5MOydfqU07lgBy3EAG8utC9CcYZsWVVndTIvttp5z_2lNMXgypYk3uYu0ddrOjX66eB0G-7q_F6vKxjxUm-ZkE7D4zduqQQsm4W-mhSDU1G3WV3c9JPLRFZzRJi0tRuwD3wWiWjfu27ooAZHfX4BZZjJu1Qb4-v9otDTIM8fTRUK93VaD- -dt7uYzpYoMbIHpmaiPkJ2TvjCMPK42A1wiVsA70lNKkrx6UruanjU5LZWksAMQxP2N0-S5kLnBKsrbX5QOCd3Svb6fVNU1kStA0QbmUJK_5G6gjrGzqLJBhjit_skthvERp_FB-UtNwSDqdYncrqdy45_CPrzkux31XilR1biysHHkmheE6aK37ybp-2E9_mMzC15N_m1QSsc2wVake-T13milJKMDRlTzU-LwSjtf_0S0]--></g></svg>