<svg xmlns="http://www.w3.org/2000/svg" xmlns:xlink="http://www.w3.org/1999/xlink" version="1.1" data-diagram-type="STATE" style="width:512px;height:800px;background:#FFFFFF;" width="512px" height="800px" viewBox="0 0 512 800" zoomAndPan="magnify" preserveAspectRatio="none" contentStyleType="text/css"><?plantuml 1.2026.7beta8?><defs/><g font-family="sans-serif" lengthAdjust="spacing"><g class="entity" data-qualified-name="crearSolicitudDispensa" id="ent0001" data-source-line="9"><path d="M71.68,7 L443.68,7 A12.5,12.5 0 0 1 456.18,19.5 L456.18,33.297 L59.18,33.297 L59.18,19.5 A12.5,12.5 0 0 1 71.68,7" fill="#F5F5F5"/><path d="M59.18,33.297 L456.18,33.297 L456.18,504.797 A12.5,12.5 0 0 1 443.68,517.297 L71.68,517.297 A12.5,12.5 0 0 1 59.18,504.797 L59.18,33.297" fill="#F5F5F5"/><rect x="59.18" y="7" width="397" height="510.297" fill="none" style="stroke:#808080;stroke-width:0.5;" rx="12.5" ry="12.5"/><line x1="59.18" y1="33.297" x2="456.18" y2="33.297" style="stroke:#808080;stroke-width:0.5;"/><text x="171.879" y="24.995" fill="#000" font-size="14" textLength="171.603">crearSolicitudDispensa()</text><g class="entity" data-qualified-name="crearSolicitudDispensa.Paso1" id="ent0002" data-source-line="12"><rect x="71.18" y="135.297" width="50" height="50" fill="#F5F5F5" style="stroke:#808080;stroke-width:0.5;" rx="12.5" ry="12.5"/><line x1="71.18" y1="161.594" x2="121.18" y2="161.594" style="stroke:#808080;stroke-width:0.5;"/><text x="93.955" y="153.292" fill="#000" font-size="14"> </text></g><g class="entity" data-qualified-name="crearSolicitudDispensa.Paso2" id="ent0003" data-source-line="13"><rect x="71.18" y="316.297" width="50" height="50" fill="#F5F5F5" style="stroke:#808080;stroke-width:0.5;" rx="12.5" ry="12.5"/><line x1="71.18" y1="342.594" x2="121.18" y2="342.594" style="stroke:#808080;stroke-width:0.5;"/><text x="93.955" y="334.292" fill="#000" font-size="14"> </text></g><g class="start_entity" data-qualified-name="crearSolicitudDispensa..start.crearSolicitudDispensa" id="ent0006" data-source-line="15"><ellipse cx="96.18" cy="54.297" rx="10" ry="10" fill="#222" style="stroke:#222;stroke-width:1;"/></g><g class="end_entity" data-qualified-name="crearSolicitudDispensa..end.crearSolicitudDispensa" id="ent0009" data-source-line="29"><ellipse cx="96.18" cy="493.297" rx="11" ry="11" fill="none" style="stroke:#222;stroke-width:1;"/><ellipse cx="96.18" cy="493.297" rx="6" ry="6" fill="#222" style="stroke:#222;stroke-width:1;"/></g><!--link *start*crearSolicitudDispensa to Paso1--><g class="link" data-entity-1="ent0006" data-entity-2="ent0002" id="lnk7" data-source-line="15" data-link-type="dependency"><path d="M96.18,64.527 C96.18,80.237 96.18,107.657 96.18,130.167" style="stroke:#008000;stroke-width:1;" fill="none" id="*start*crearSolicitudDispensa-to-Paso1"/><polygon points="96.18,135.167,100.18,126.167,96.18,130.167,92.18,126.167,96.18,135.167" fill="#008000" style="stroke:#008000;stroke-width:1;stroke-linejoin:miter;stroke-miterlimit:10;"/><path d="M101.18,87.297 L101.18,112.297 L355.18,112.297 L355.18,97.297 L345.18,87.297 L101.18,87.297" style="stroke:#808080;stroke-width:0.5;" fill="#FFFFE0"/><path d="M345.18,87.297 L345.18,97.297 L355.18,97.297 L345.18,87.297" style="stroke:#808080;stroke-width:0.5;" fill="#FFFFE0"/><text x="107.18" y="104.364" fill="#000" font-size="13" textLength="55.504" font-weight="700">Alumno</text><text x="166.816" y="104.364" fill="#000" font-size="13" textLength="174.281">solicita crear una dispensa</text></g><!--link Paso1 to Paso2--><g class="link" data-entity-1="ent0002" data-entity-2="ent0003" id="lnk8" data-source-line="20" data-link-type="dependency"><path d="M96.18,185.437 C96.18,219.597 96.18,276.697 96.18,310.967" style="stroke:#008000;stroke-width:1;" fill="none" id="Paso1-to-Paso2"/><polygon points="96.18,315.967,100.18,306.967,96.18,310.967,92.18,306.967,96.18,315.967" fill="#008000" style="stroke:#008000;stroke-width:1;stroke-linejoin:miter;stroke-miterlimit:10;"/><path d="M101.18,208.297 L101.18,293.297 L432.18,293.297 L432.18,218.297 L422.18,208.297 L101.18,208.297" style="stroke:#808080;stroke-width:0.5;" fill="#FFFFE0"/><path d="M422.18,208.297 L422.18,218.297 L432.18,218.297 L422.18,208.297" style="stroke:#808080;stroke-width:0.5;" fill="#FFFFE0"/><text x="107.18" y="225.364" fill="#000" font-size="13" textLength="58.906" font-weight="700">Sistema</text><text x="170.219" y="225.364" fill="#000" font-size="13" textLength="142.651">solicita datos iniciales</text><text x="107.18" y="240.497" fill="#000" font-size="13" textLength="271.896">• Asignatura de la dispensa y Tipo/Motivo</text><text x="107.18" y="255.629" fill="#000" font-size="13" textLength="310.362">• Día(s) de la semana y Franja horaria afectada</text><text x="107.18" y="270.762" fill="#000" font-size="13" textLength="238.824">• Asignatura solapada y Justificación</text><text x="107.18" y="285.895" fill="#000" font-size="13" textLength="140.594">• Documento adjunto</text></g><!--link Paso2 to *end*crearSolicitudDispensa--><g class="link" data-entity-1="ent0003" data-entity-2="ent0009" id="lnk10" data-source-line="29" data-link-type="dependency"><path d="M96.18,366.727 C96.18,400.107 96.18,453.477 96.18,477.017" style="stroke:#008000;stroke-width:1;" fill="none" id="Paso2-to-*end*crearSolicitudDispensa"/><polygon points="96.18,482.017,100.18,473.017,96.18,477.017,92.18,473.017,96.18,482.017" fill="#008000" style="stroke:#008000;stroke-width:1;stroke-linejoin:miter;stroke-miterlimit:10;"/><path d="M101.18,389.297 L101.18,459.297 L378.18,459.297 L378.18,399.297 L368.18,389.297 L101.18,389.297" style="stroke:#808080;stroke-width:0.5;" fill="#FFFFE0"/><path d="M368.18,389.297 L368.18,399.297 L378.18,399.297 L368.18,389.297" style="stroke:#808080;stroke-width:0.5;" fill="#FFFFE0"/><text x="107.18" y="406.364" fill="#000" font-size="13" textLength="55.504" font-weight="700">Alumno</text><text x="166.816" y="406.364" fill="#000" font-size="13" textLength="174.897">proporciona datos iniciales</text><text x="107.18" y="421.497" fill="#000" font-size="13" textLength="58.906" font-weight="700">Sistema</text><text x="170.219" y="421.497" fill="#000" font-size="13" textLength="193.235">permite instanciar la solicitud</text><text x="107.18" y="436.629" fill="#000" font-size="13" textLength="234.146">• Permite solicitar editar la solicitud</text><text x="107.18" y="451.762" fill="#000" font-size="13" textLength="236.698">• Permite solicitar cancelar creación</text></g></g><g class="entity" data-qualified-name="SOLICITUD_DISPENSA_ABIERTA" id="ent0004" data-source-line="38"><rect x="7" y="736.3" width="239.352" height="50" fill="#F5F5F5" style="stroke:#808080;stroke-width:0.5;" rx="12.5" ry="12.5"/><line x1="7" y1="762.597" x2="246.352" y2="762.597" style="stroke:#808080;stroke-width:0.5;"/><text x="17" y="754.295" fill="#000" font-size="14" textLength="219.352">SOLICITUD_DISPENSA_ABIERTA</text></g><g class="entity" data-qualified-name="DISPENSAS_ABIERTO" id="ent0005" data-source-line="39"><rect x="305.99" y="736.3" width="167.362" height="50" fill="#F5F5F5" style="stroke:#808080;stroke-width:0.5;" rx="12.5" ry="12.5"/><line x1="305.99" y1="762.597" x2="473.352" y2="762.597" style="stroke:#808080;stroke-width:0.5;"/><text x="315.99" y="754.295" fill="#000" font-size="14" textLength="147.362">DISPENSAS_ABIERTO</text></g><!--link crearSolicitudDispensa to SOLICITUD_DISPENSA_ABIERTA--><g class="link" data-entity-1="ent0001" data-entity-2="ent0004" id="lnk11" data-source-line="41" data-link-type="dependency"><path d="M157.03,517.45 C136.32,569.78 120.68,609.3 120.68,609.3 C120.68,609.3 120.68,644.3 120.68,644.3 C120.68,644.3 123.402,696.977 125.162,730.987" style="stroke:#008000;stroke-width:1;" fill="none" id="crearSolicitudDispensa-to-SOLICITUD_DISPENSA_ABIERTA"/><polygon points="125.42,735.98,128.95,726.785,125.162,730.987,120.96,727.199,125.42,735.98" fill="#008000" style="stroke:#008000;stroke-width:1;stroke-linejoin:miter;stroke-miterlimit:10;"/><path d="M125.68,614.3 L125.68,639.3 L309.68,639.3 L309.68,624.3 L299.68,614.3 L125.68,614.3" style="stroke:#808080;stroke-width:0.5;" fill="#FFFFE0"/><path d="M299.68,614.3 L299.68,624.3 L309.68,624.3 L299.68,614.3" style="stroke:#808080;stroke-width:0.5;" fill="#FFFFE0"/><text x="131.68" y="631.367" fill="#000" font-size="13" textLength="163.814">editarSolicitudDispensa()</text></g><!--link crearSolicitudDispensa to DISPENSAS_ABIERTO--><g class="link" data-entity-1="ent0001" data-entity-2="ent0005" id="lnk12" data-source-line="46" data-link-type="dependency"><path d="M325.22,517.55 C348.88,606.66 370.997,689.938 381.957,731.208" style="stroke:#00F;stroke-width:1;" fill="none" id="crearSolicitudDispensa-to-DISPENSAS_ABIERTO"/><polygon points="383.24,736.04,384.796,726.315,381.957,731.208,377.064,728.368,383.24,736.04" fill="#00F" style="stroke:#00F;stroke-width:1;stroke-linejoin:miter;stroke-miterlimit:10;"/><path d="M362.68,614.3 L362.68,639.3 L497.68,639.3 L497.68,624.3 L487.68,614.3 L362.68,614.3" style="stroke:#808080;stroke-width:0.5;" fill="#FFFFE0"/><path d="M487.68,614.3 L487.68,624.3 L497.68,624.3 L487.68,614.3" style="stroke:#808080;stroke-width:0.5;" fill="#FFFFE0"/><text x="368.68" y="631.367" fill="#000" font-size="13" textLength="114.962">cancelar creación</text></g><?plantuml-src ZLJ1Rjim3BtxAuZsi7P0q2t0TYe2k4qAPDZQOCvEHL4mbfggaKL3aZi4mu1zI-yzxHFo9_kIqRAJkB5Jr3ue9X_vo4SgRg5CZXOpC2Iaapby_X2vZT6YMRICMXdfbxc4dFIo_6ZuBidBCqmNSqk54UUaoJ9-Vk-NKclwkOiaAwIjK7EBouOxyTZET7ZngNnRiDqqaIlDS91QYJOXhLBb2p5KBfV6uT7n0Q23RYVyYYBWvnsCE8aW1sXMVutA-DSZfgjdFajgS2ehD79tmU38XR2Q60B3XCqVkytzYkNw_GtqhW_dLafpqniq8WpB0sHAiHV1070w6yIwo0oTdim6uAhAiUe32eCWwXu2NXeHabH48N6BglyALQASbnc-v1BekLrb-0krT3NwtvydY9sQ6_G5AoCaw6qni8Ifokda6tdrI8s8uUePZznn3NVCPKhm1U_S0y8zMRGA0UzaodF0RYek37FsSjoNmdbrfr9C5S-hoKDfaKdZ2L0y57pkaQV_GXwUpDlca5lAoQQAp3vvTiJCfSqK9rM6jy8mqeR-rulOg7nI8zVoMv0Y76_6fqmWooqjbsGhpARvtvkhabnz7P-Ffp-6jyDnCXbT9l5jV3OUVP_6OMVtkzS9rlQaTbo5k9OrYlRSkwtuFPR_5Rum4Ll-fpJcKWdJSTMZxQ3t4yzq8IlUThsTT1swhdd-0m00?></g></svg>