<?xml version="1.0" encoding="us-ascii" standalone="no"?><svg xmlns="http://www.w3.org/2000/svg" xmlns:xlink="http://www.w3.org/1999/xlink" contentStyleType="text/css" height="772px" preserveAspectRatio="none" style="width:432px;height:772px;background:#FFFFFF;" version="1.1" viewBox="0 0 432 772" width="432px" zoomAndPan="magnify"><defs/><g><path d="M19.5,7 L406.5,7 A12.5,12.5 0 0 1 419,19.5 L419,34.6094 L7,34.6094 L7,19.5 A12.5,12.5 0 0 1 19.5,7 " fill="#F5F5F5" style="stroke:#F5F5F5;stroke-width:1.0;"/><rect fill="none" height="488.6094" rx="12.5" ry="12.5" style="stroke:#808080;stroke-width:0.5;" width="412" x="7" y="7"/><line style="stroke:#808080;stroke-width:0.5;" x1="7" x2="419" y1="34.6094" y2="34.6094"/><text fill="#000000" font-family="sans-serif" font-size="14" lengthAdjust="spacing" textLength="158" x="134" y="26.5332">editarSolicitudDispensa()</text><g id="editarSolicitudDispensa.Paso1"><rect fill="#F5F5F5" height="50" rx="12.5" ry="12.5" style="stroke:#808080;stroke-width:0.5;" width="50" x="19" y="137.6094"/><line style="stroke:#808080;stroke-width:0.5;" x1="19" x2="69" y1="165.2188" y2="165.2188"/><text fill="#000000" font-family="sans-serif" font-size="14" lengthAdjust="spacing" textLength="4" x="42" y="157.1426">&#160;</text></g><g id="editarSolicitudDispensa.Paso2"><rect fill="#F5F5F5" height="50" rx="12.5" ry="12.5" style="stroke:#808080;stroke-width:0.5;" width="50" x="19" y="259.6094"/><line style="stroke:#808080;stroke-width:0.5;" x1="19" x2="69" y1="287.2188" y2="287.2188"/><text fill="#000000" font-family="sans-serif" font-size="14" lengthAdjust="spacing" textLength="4" x="42" y="279.1426">&#160;</text></g><ellipse cx="44" cy="55.6094" fill="#222222" rx="10" ry="10" style="stroke:#222222;stroke-width:1.0;"/><ellipse cx="44" cy="474.6094" fill="none" rx="11" ry="11" style="stroke:#222222;stroke-width:1.0;"/><ellipse cx="44" cy="474.6094" fill="#222222" rx="6" ry="6" style="stroke:#222222;stroke-width:1.0;"/><!--link *start*editarSolicitudDispensa to Paso1--><g id="link_*start*editarSolicitudDispensa_Paso1"><path d="M44,65.9294 C44,81.7894 44,108.5194 44,131.2494 " fill="none" id="*start*editarSolicitudDispensa-to-Paso1" style="stroke:#008000;stroke-width:1.0;"/><polygon fill="#008000" points="44,137.2494,48,128.2494,44,132.2494,40,128.2494,44,137.2494" style="stroke:#008000;stroke-width:1.0;"/><path d="M49,88.6094 L49,114.6094 L340,114.6094 L340,98.6094 L330,88.6094 L49,88.6094 " fill="#FFFFE0" style="stroke:#808080;stroke-width:0.5;"/><path d="M330,88.6094 L330,98.6094 L340,98.6094 L330,88.6094 " fill="#FFFFE0" style="stroke:#808080;stroke-width:0.5;"/><text fill="#000000" font-family="sans-serif" font-size="13" font-weight="bold" lengthAdjust="spacing" textLength="49" x="55" y="107.1045">Alumno</text><text fill="#000000" font-family="sans-serif" font-size="13" lengthAdjust="spacing" textLength="217" x="108" y="107.1045">solicita editar la solicitud de dispensa</text></g><!--link Paso1 to Paso2--><g id="link_Paso1_Paso2"><path d="M44,187.8894 C44,208.7094 44,232.5494 44,253.3594 " fill="none" id="Paso1-to-Paso2" style="stroke:#008000;stroke-width:1.0;"/><polygon fill="#008000" points="44,259.3594,48,250.3594,44,254.3594,40,250.3594,44,259.3594" style="stroke:#008000;stroke-width:1.0;"/><path d="M49,210.6094 L49,236.6094 L410,236.6094 L410,220.6094 L400,210.6094 L49,210.6094 " fill="#FFFFE0" style="stroke:#808080;stroke-width:0.5;"/><path d="M400,210.6094 L400,220.6094 L410,220.6094 L400,210.6094 " fill="#FFFFE0" style="stroke:#808080;stroke-width:0.5;"/><text fill="#000000" font-family="sans-serif" font-size="13" font-weight="bold" lengthAdjust="spacing" textLength="51" x="55" y="229.1045">Sistema</text><text fill="#000000" font-family="sans-serif" font-size="13" lengthAdjust="spacing" textLength="285" x="110" y="229.1045">permite mostrar los datos actuales de la solicitud</text></g><!--link Paso2 to *end*editarSolicitudDispensa--><g id="link_Paso2_*end*editarSolicitudDispensa"><path d="M44,309.7994 C44,351.2594 44,428.1994 44,457.2694 " fill="none" id="Paso2-to-*end*editarSolicitudDispensa" style="stroke:#008000;stroke-width:1.0;"/><polygon fill="#008000" points="44,463.2694,48,454.2694,44,458.2694,40,454.2694,44,463.2694" style="stroke:#008000;stroke-width:1.0;"/><path d="M49,332.6094 L49,440.6094 L303,440.6094 L303,342.6094 L293,332.6094 L49,332.6094 " fill="#FFFFE0" style="stroke:#808080;stroke-width:0.5;"/><path d="M293,332.6094 L293,342.6094 L303,342.6094 L293,332.6094 " fill="#FFFFE0" style="stroke:#808080;stroke-width:0.5;"/><text fill="#000000" font-family="sans-serif" font-size="13" font-weight="bold" lengthAdjust="spacing" textLength="49" x="55" y="351.1045">Alumno</text><text fill="#000000" font-family="sans-serif" font-size="13" lengthAdjust="spacing" textLength="180" x="108" y="351.1045">proporciona datos actualizados</text><text fill="#000000" font-family="sans-serif" font-size="13" lengthAdjust="spacing" textLength="134" x="55" y="367.4561">&#8226; Motivo de la dispensa</text><text fill="#000000" font-family="sans-serif" font-size="13" lengthAdjust="spacing" textLength="145" x="55" y="383.8076">&#8226; Documentaci&#243;n adjunta</text><text fill="#000000" font-family="sans-serif" font-size="13" font-weight="bold" lengthAdjust="spacing" textLength="51" x="55" y="400.1592">Sistema</text><text fill="#000000" font-family="sans-serif" font-size="13" lengthAdjust="spacing" textLength="145" x="110" y="400.1592">permite editar la solicitud</text><text fill="#000000" font-family="sans-serif" font-size="13" lengthAdjust="spacing" textLength="203" x="55" y="416.5107">&#8226; Permite solicitar guardar cambios</text><text fill="#000000" font-family="sans-serif" font-size="13" lengthAdjust="spacing" textLength="192" x="55" y="432.8623">&#8226; Permite solicitar cerrar solicitud</text></g><g id="DISPENSAS_ABIERTO"><rect fill="#F5F5F5" height="50" rx="12.5" ry="12.5" style="stroke:#808080;stroke-width:0.5;" width="164" x="131" y="716"/><line style="stroke:#808080;stroke-width:0.5;" x1="131" x2="295" y1="743.6094" y2="743.6094"/><text fill="#000000" font-family="sans-serif" font-size="14" lengthAdjust="spacing" textLength="144" x="141" y="735.5332">DISPENSAS_ABIERTO</text></g><!--link editarSolicitudDispensa to DISPENSAS_ABIERTO--><g id="link_editarSolicitudDispensa_DISPENSAS_ABIERTO"><path d="M136.69,496.32 C120.41,548.36 108,588 108,588 C108,588 108,624 108,624 C108,624 156.4634,677.5418 187.2134,711.5118 " fill="none" id="editarSolicitudDispensa-to-DISPENSAS_ABIERTO" style="stroke:#008000;stroke-width:1.0;"/><polygon fill="#008000" points="191.24,715.96,188.1656,706.6033,187.8845,712.2531,182.2347,711.9721,191.24,715.96" style="stroke:#008000;stroke-width:1.0;"/><path d="M113,593 L113,619 L228,619 L228,603 L218,593 L113,593 " fill="#FFFFE0" style="stroke:#808080;stroke-width:0.5;"/><path d="M218,593 L218,603 L228,603 L218,593 " fill="#FFFFE0" style="stroke:#808080;stroke-width:0.5;"/><text fill="#000000" font-family="sans-serif" font-size="13" lengthAdjust="spacing" textLength="94" x="119" y="611.4951">abrirDispensas()</text></g><!--link editarSolicitudDispensa to DISPENSAS_ABIERTO--><g id="link_editarSolicitudDispensa_DISPENSAS_ABIERTO"><path d="M235.53,496.32 C240.34,548.36 244,588 244,588 C244,588 244,624 244,624 C244,624 230.0494,676.1935 220.9694,710.1635 " fill="none" id="editarSolicitudDispensa-to-DISPENSAS_ABIERTO-1" style="stroke:#0000FF;stroke-width:1.0;"/><polygon fill="#0000FF" points="219.42,715.96,225.6084,708.2982,220.7111,711.1296,217.8797,706.2323,219.42,715.96" style="stroke:#0000FF;stroke-width:1.0;"/><path d="M249,593 L249,619 L364,619 L364,603 L354,593 L249,593 " fill="#FFFFE0" style="stroke:#808080;stroke-width:0.5;"/><path d="M354,593 L354,603 L364,603 L354,593 " fill="#FFFFE0" style="stroke:#808080;stroke-width:0.5;"/><text fill="#000000" font-family="sans-serif" font-size="13" lengthAdjust="spacing" textLength="94" x="255" y="611.4951">cancelar edici&#243;n</text></g><!--SRC=[bLFDRjD04BxxAKRjWRPI14I2KnKf9K7gWH9XRbLLZNT7OSbwnzgVee2GU1Rkd7Y4lWbFmkxQQPowYS0-sFlDppVppQnRATEWnHeCItBKmEiNXNi0BPhL0DJAa5yt10thTJhqR5ViwGB5Qcav6Fc6DTlel_parwGrVtdioLQIRRsM5jSzS-bncEduxQlq3jmUfobSWk68fF9eIzPAA1_aJBc6ZCEJqoD01tkiyAqe83xFO1xJI7Q0vlwtKNNykqDn_oj-4pauLGUDiRyCE7OvhAE6JB68yCkduN7BSdrs0wFhuwKbCZUZII_2H860JP9xbG60yseorQ4sVFwyce1hAyUk4T2uWO84II2xXd8m6PapjgoPPS0xFi1RAkUfnapSaArLT8gAUDi98D4dfOGFgCab-duvUqeOxvGGfVYtnXlB3LkXsE0Eh_gQnjM5_Fdn4zwnLtVS5RCZHskViGWr6Oz2nGa3oiyX7Wut_OJOlOoBpcipcxYG0QsCNu5rfNQg6_eAiadFFR9zVzZhsMMvc5-Lq_9sUd4v__3nVTwg0LeK-rPyA_ie2ZyCp2EmwTxs1e6LLNQJmfsS5jk17k2fTA3_eX5e1ALx5PFckMnv_W80]--></g></svg>