<svg xmlns="http://www.w3.org/2000/svg" xmlns:xlink="http://www.w3.org/1999/xlink" version="1.1" data-diagram-type="STATE" style="width:494px;height:770px;background:#FFFFFF;" width="494px" height="770px" viewBox="0 0 494 770" zoomAndPan="magnify" preserveAspectRatio="none" contentStyleType="text/css"><?plantuml 1.2026.7beta8?><defs/><g font-family="sans-serif" lengthAdjust="spacing"><g class="entity" data-qualified-name="editarSolicitudDispensa" id="ent0001" data-source-line="9"><path d="M19.5,7 L466.5,7 A12.5,12.5 0 0 1 479,19.5 L479,33.297 L7,33.297 L7,19.5 A12.5,12.5 0 0 1 19.5,7" fill="#F5F5F5"/><path d="M7,33.297 L479,33.297 L479,474.797 A12.5,12.5 0 0 1 466.5,487.297 L19.5,487.297 A12.5,12.5 0 0 1 7,474.797 L7,33.297" fill="#F5F5F5"/><rect x="7" y="7" width="472" height="480.297" fill="none" style="stroke:#808080;stroke-width:0.5;" rx="12.5" ry="12.5"/><line x1="7" y1="33.297" x2="479" y2="33.297" style="stroke:#808080;stroke-width:0.5;"/><text x="154.792" y="24.995" fill="#000" font-size="14" textLength="176.415">editarSolicitudDispensa()</text><g class="entity" data-qualified-name="editarSolicitudDispensa.Paso1" id="ent0002" data-source-line="12"><rect x="19" y="135.297" width="50" height="50" fill="#F5F5F5" style="stroke:#808080;stroke-width:0.5;" rx="12.5" ry="12.5"/><line x1="19" y1="161.594" x2="69" y2="161.594" style="stroke:#808080;stroke-width:0.5;"/><text x="41.775" y="153.292" fill="#000" font-size="14"> </text></g><g class="entity" data-qualified-name="editarSolicitudDispensa.Paso2" id="ent0003" data-source-line="13"><rect x="19" y="256.297" width="50" height="50" fill="#F5F5F5" style="stroke:#808080;stroke-width:0.5;" rx="12.5" ry="12.5"/><line x1="19" y1="282.594" x2="69" y2="282.594" style="stroke:#808080;stroke-width:0.5;"/><text x="41.775" y="274.292" fill="#000" font-size="14"> </text></g><g class="start_entity" data-qualified-name="editarSolicitudDispensa..start.editarSolicitudDispensa" id="ent0005" data-source-line="15"><ellipse cx="44" cy="54.297" rx="10" ry="10" fill="#222" style="stroke:#222;stroke-width:1;"/></g><g class="end_entity" data-qualified-name="editarSolicitudDispensa..end.editarSolicitudDispensa" id="ent0008" data-source-line="25"><ellipse cx="44" cy="463.297" rx="11" ry="11" fill="none" style="stroke:#222;stroke-width:1;"/><ellipse cx="44" cy="463.297" rx="6" ry="6" fill="#222" style="stroke:#222;stroke-width:1;"/></g><!--link *start*editarSolicitudDispensa to Paso1--><g class="link" data-entity-1="ent0005" data-entity-2="ent0002" id="lnk6" data-source-line="15" data-link-type="dependency"><path d="M44,64.527 C44,80.237 44,107.657 44,130.167" style="stroke:#008000;stroke-width:1;" fill="none" id="*start*editarSolicitudDispensa-to-Paso1"/><polygon points="44,135.167,48,126.167,44,130.167,40,126.167,44,135.167" fill="#008000" style="stroke:#008000;stroke-width:1;stroke-linejoin:miter;stroke-miterlimit:10;"/><path d="M49,87.297 L49,112.297 L374,112.297 L374,97.297 L364,87.297 L49,87.297" style="stroke:#808080;stroke-width:0.5;" fill="#FFFFE0"/><path d="M364,87.297 L364,97.297 L374,97.297 L364,87.297" style="stroke:#808080;stroke-width:0.5;" fill="#FFFFE0"/><text x="55" y="104.364" fill="#000" font-size="13" textLength="55.504" font-weight="700">Alumno</text><text x="114.636" y="104.364" fill="#000" font-size="13" textLength="244.696">solicita editar la solicitud de dispensa</text></g><!--link Paso1 to Paso2--><g class="link" data-entity-1="ent0002" data-entity-2="ent0003" id="lnk7" data-source-line="20" data-link-type="dependency"><path d="M44,185.667 C44,206.197 44,230.437 44,250.957" style="stroke:#008000;stroke-width:1;" fill="none" id="Paso1-to-Paso2"/><polygon points="44,255.957,48,246.957,44,250.957,40,246.957,44,255.957" fill="#008000" style="stroke:#008000;stroke-width:1;stroke-linejoin:miter;stroke-miterlimit:10;"/><path d="M49,208.297 L49,233.297 L455,233.297 L455,218.297 L445,208.297 L49,208.297" style="stroke:#808080;stroke-width:0.5;" fill="#FFFFE0"/><path d="M445,208.297 L445,218.297 L455,218.297 L445,208.297" style="stroke:#808080;stroke-width:0.5;" fill="#FFFFE0"/><text x="55" y="225.364" fill="#000" font-size="13" textLength="58.906" font-weight="700">Sistema</text><text x="118.039" y="225.364" fill="#000" font-size="13" textLength="322.34">permite mostrar los datos actuales de la solicitud</text></g><!--link Paso2 to *end*editarSolicitudDispensa--><g class="link" data-entity-1="ent0003" data-entity-2="ent0008" id="lnk9" data-source-line="25" data-link-type="dependency"><path d="M44,306.577 C44,346.497 44,419.347 44,447.137" style="stroke:#008000;stroke-width:1;" fill="none" id="Paso2-to-*end*editarSolicitudDispensa"/><polygon points="44,452.137,48,443.137,44,447.137,40,443.137,44,452.137" fill="#008000" style="stroke:#008000;stroke-width:1;stroke-linejoin:miter;stroke-miterlimit:10;"/><path d="M49,329.297 L49,429.297 L438,429.297 L438,339.297 L428,329.297 L49,329.297" style="stroke:#808080;stroke-width:0.5;" fill="#FFFFE0"/><path d="M428,329.297 L428,339.297 L438,339.297 L428,329.297" style="stroke:#808080;stroke-width:0.5;" fill="#FFFFE0"/><text x="55" y="346.364" fill="#000" font-size="13" textLength="55.504" font-weight="700">Alumno</text><text x="114.636" y="346.364" fill="#000" font-size="13" textLength="203.734">proporciona datos actualizados</text><text x="55" y="361.497" fill="#000" font-size="13" textLength="312.311">• Asignatura, Tipo/Motivo, Día(s), Franja horaria</text><text x="55" y="376.629" fill="#000" font-size="13" textLength="368.189">• Asignatura solapada, Justificación, Documento adjunto</text><text x="55" y="391.762" fill="#000" font-size="13" textLength="58.906" font-weight="700">Sistema</text><text x="118.039" y="391.762" fill="#000" font-size="13" textLength="167.508">permite editar la solicitud</text><text x="55" y="406.895" fill="#000" font-size="13" textLength="231.601">• Permite solicitar guardar cambios</text><text x="55" y="422.028" fill="#000" font-size="13" textLength="219.312">• Permite solicitar cerrar solicitud</text></g></g><g class="entity" data-qualified-name="DISPENSAS_ABIERTO" id="ent0004" data-source-line="36"><rect x="159.32" y="706.3" width="167.362" height="50" fill="#F5F5F5" style="stroke:#808080;stroke-width:0.5;" rx="12.5" ry="12.5"/><line x1="159.32" y1="732.597" x2="326.682" y2="732.597" style="stroke:#808080;stroke-width:0.5;"/><text x="169.32" y="724.295" fill="#000" font-size="14" textLength="147.362">DISPENSAS_ABIERTO</text></g><!--link editarSolicitudDispensa to DISPENSAS_ABIERTO--><g class="link" data-entity-1="ent0001" data-entity-2="ent0004" id="lnk10" data-source-line="38" data-link-type="dependency"><path d="M162.77,487.5 C145.34,539.5 132,579.3 132,579.3 C132,579.3 132,614.3 132,614.3 C132,614.3 183.723,668.358 216.273,702.368" style="stroke:#008000;stroke-width:1;" fill="none" id="editarSolicitudDispensa-to-DISPENSAS_ABIERTO"/><polygon points="219.73,705.98,216.397,696.712,216.273,702.368,210.617,702.244,219.73,705.98" fill="#008000" style="stroke:#008000;stroke-width:1;stroke-linejoin:miter;stroke-miterlimit:10;"/><path d="M137,584.3 L137,609.3 L265,609.3 L265,594.3 L255,584.3 L137,584.3" style="stroke:#808080;stroke-width:0.5;" fill="#FFFFE0"/><path d="M255,584.3 L255,594.3 L265,594.3 L255,584.3" style="stroke:#808080;stroke-width:0.5;" fill="#FFFFE0"/><text x="143" y="601.367" fill="#000" font-size="13" textLength="107.06">abrirDispensas()</text></g><!--link editarSolicitudDispensa to DISPENSAS_ABIERTO--><g class="link" data-entity-1="ent0001" data-entity-2="ent0004" id="lnk11" data-source-line="43" data-link-type="dependency"><path d="M270.47,487.5 C276.43,539.5 281,579.3 281,579.3 C281,579.3 281,614.3 281,614.3 C281,614.3 263.666,667.218 252.526,701.228" style="stroke:#00F;stroke-width:1;" fill="none" id="editarSolicitudDispensa-to-DISPENSAS_ABIERTO-1"/><polygon points="250.97,705.98,257.573,698.672,252.526,701.228,249.97,696.182,250.97,705.98" fill="#00F" style="stroke:#00F;stroke-width:1;stroke-linejoin:miter;stroke-miterlimit:10;"/><path d="M286,584.3 L286,609.3 L413,609.3 L413,594.3 L403,584.3 L286,584.3" style="stroke:#808080;stroke-width:0.5;" fill="#FFFFE0"/><path d="M403,584.3 L403,594.3 L413,594.3 L403,584.3" style="stroke:#808080;stroke-width:0.5;" fill="#FFFFE0"/><text x="292" y="601.367" fill="#000" font-size="13" textLength="106.368">cancelar edición</text></g><?plantuml-src bLFDRjim3BxxAOZsi6H8q2t0TYe2f4iATC2wOEwjA0f6qbmricZefqCs3DYpxDxJ7Y5liYUPf3YfKoT1PnzaVoBvaVn8EvUwGeCbQEB2YWhUlydi1ZIevorGIItSeX9GaLh4dyRT9JbnXcnU6FAQVo159jWNTsuXbA9lpot9S65MLeN1HUCwTzYET7p-Bhuji-TXCXjXE19SEZGvAScaytmiRIMqnKxt2D32dbluaMKGdbSm2M4uMK2z_ADb6RuUa2qVmnd9mShIAmpr9S2IJMurDIIAQO3VxeO7AvRhrpVGlpukZ13wfZziUEZG820TsprF0C3fR3XIljHqUZ8RWbrbZdKXe70DUGvS0AyBIiv2ynHnnPfOMho30xovj4wKc8WhOKePZ497dAaRmD75JZ7dKGaRwPlfx4bXi9L2QCNB2gyCLMIO98rRlF9xbAjs-VlhDuoiB3GwRx07LxAYaq_av0FrOBnyn8xjzk0yJFWzmXs5EYJkT8rLO8KynFZehPDV9KCcmqI4CCHyARGZG7xlmtcuNpjqQZ1EQwkrh66MFHeUJeRbJ6uLrhPbmaGfzdJyvsObnXVvT7APZ_BRqTd5vClLvpIGBJJBzct7asBze5dRCQbduietDCIPaMOTmdQwsTCi7E2PAI_-YuQXPYAkP0YQ9Dhm_0C0?></g></svg>