<?plantuml 1.2026.1beta5?><svg xmlns="http://www.w3.org/2000/svg" xmlns:xlink="http://www.w3.org/1999/xlink" contentStyleType="text/css" data-diagram-type="STATE" height="1137px" preserveAspectRatio="none" style="width:977px;height:1137px;background:#FFFFFF;" version="1.1" viewBox="0 0 977 1137" width="977px" zoomAndPan="magnify"><title>Editar solicitud de dispensa</title><defs/><g><g class="title" data-source-line="1"><text fill="#000000" font-family="sans-serif" font-size="14" font-weight="bold" lengthAdjust="spacing" textLength="219.3105" x="368.6271" y="32.9951">Editar solicitud de dispensa</text></g><g><rect fill="#F1F1F1" height="76.2969" rx="12.5" ry="12.5" style="stroke:#181818;stroke-width:0.5;" width="187.3623" x="610.32" y="183.2969"/><line style="stroke:#181818;stroke-width:0.5;" x1="610.32" x2="797.6823" y1="229.5938" y2="229.5938"/><text fill="#000000" font-family="sans-serif" font-size="14" lengthAdjust="spacing" textLength="147.3623" x="630.32" y="211.292">DISPENSAS_ABIERTO</text></g><path d="M456.94,359.5969 L951.0647,359.5969 A12.5,12.5 0 0 1 963.5647,372.0969 L963.5647,405.8938 L444.44,405.8938 L444.44,372.0969 A12.5,12.5 0 0 1 456.94,359.5969" fill="#F1F1F1"/><rect fill="none" height="271.8269" rx="12.5" ry="12.5" style="stroke:#181818;stroke-width:0.5;" width="519.1247" x="444.44" y="359.5969"/><line style="stroke:#181818;stroke-width:0.5;" x1="444.44" x2="963.5647" y1="405.8938" y2="405.8938"/><text fill="#000000" font-family="sans-serif" font-size="14" lengthAdjust="spacing" textLength="219.3516" x="594.3266" y="387.592">SOLICITUD_DISPENSA_ABIERTA</text><g><rect fill="#F1F1F1" height="90.2656" rx="12.5" ry="12.5" style="stroke:#181818;stroke-width:0.5;" width="191.2129" x="456.44" y="473.0238"/><line style="stroke:#181818;stroke-width:0.5;" x1="456.44" x2="647.6529" y1="519.3206" y2="519.3206"/><text fill="#000000" font-family="sans-serif" font-size="14" lengthAdjust="spacing" textLength="141.2578" x="481.4175" y="501.0189">Edici&#243;n de Dispensa</text><text fill="#000000" font-family="sans-serif" font-size="12" lengthAdjust="spacing" textLength="151.2129" x="471.44" y="545.4593">editarSolicitudDispensa()</text></g><ellipse cx="552.05" cy="426.8938" fill="#222222" rx="10" ry="10" style="stroke:#222222;stroke-width:1;"/><ellipse cx="552.05" cy="610.4238" fill="none" rx="11" ry="11" style="stroke:#222222;stroke-width:1;"/><ellipse cx="552.05" cy="610.4238" fill="#222222" rx="6" ry="6" style="stroke:#222222;stroke-width:1;"/><g class="entity" data-qualified-name="SOLICITUD_DISPENSA_ABIERTA_COMP.GMN2" data-source-line="34" id="ent0003"><path d="M665.53,472.8938 L665.53,514.4238 L648.12,518.4238 L665.53,522.4238 L665.53,563.425 A0,0 0 0 0 665.53,563.425 L954.5647,563.425 A0,0 0 0 0 954.5647,563.425 L954.5647,482.8938 L944.5647,472.8938 L665.53,472.8938 A0,0 0 0 0 665.53,472.8938" fill="#FEFFDD" style="stroke:#181818;stroke-width:0.5;"/><path d="M944.5647,472.8938 L944.5647,482.8938 L954.5647,482.8938 L944.5647,472.8938" fill="#FEFFDD" style="stroke:#181818;stroke-width:0.5;"/><text fill="#000000" font-family="sans-serif" font-size="13" font-weight="bold" lengthAdjust="spacing" textLength="112.7598" x="681.53" y="499.9606">Alumno solicita</text><text fill="#000000" font-family="sans-serif" font-size="13" lengthAdjust="spacing" textLength="131.1426" x="798.4221" y="499.9606">modificar o ampliar:</text><text fill="#000000" font-family="sans-serif" font-size="13" lengthAdjust="spacing" textLength="182.6982" x="681.53" y="515.0935">&#8226; Motivos y documentaci&#243;n.</text><text fill="#000000" font-family="sans-serif" font-size="13" font-weight="bold" lengthAdjust="spacing" textLength="120.999" x="681.53" y="530.2263">Sistema permite</text><text fill="#000000" font-family="sans-serif" font-size="13" lengthAdjust="spacing" textLength="74.3501" x="806.6613" y="530.2263">la edici&#243;n y</text><text fill="#000000" font-family="sans-serif" font-size="13" lengthAdjust="spacing" textLength="48.0581" x="681.53" y="545.3591">ejecuta</text><text fill="#000000" font-family="sans-serif" font-size="13" font-weight="bold" lengthAdjust="spacing" textLength="186.875" x="733.7204" y="545.3591">editarSolicitudDispensa()</text><text fill="#000000" font-family="sans-serif" font-size="13" lengthAdjust="spacing" textLength="4.1323" x="920.5954" y="545.3591">.</text></g><!--link *start*SOLICITUD_DISPENSA_ABIERTA_COMP to FormularioEdicion--><g class="link" data-entity-1="ent0005" data-entity-2="ent0005" data-link-type="dependency" data-source-line="31" id="lnk6"><path d="M552.05,437.3638 C552.05,446.1638 552.05,453.3938 552.05,466.6138" fill="none" id="*start*SOLICITUD_DISPENSA_ABIERTA_COMP-to-FormularioEdicion" style="stroke:#008000;stroke-width:1;"/><polygon fill="#008000" points="552.05,472.6138,556.05,463.6138,552.05,467.6138,548.05,463.6138,552.05,472.6138" style="stroke:#008000;stroke-width:1;"/></g><!--link FormularioEdicion to *end*SOLICITUD_DISPENSA_ABIERTA_COMP--><g class="link" data-entity-1="ent0005" data-entity-2="ent0007" data-link-type="dependency" data-source-line="40" id="lnk8"><path d="M552.05,563.7538 C552.05,576.8238 552.05,583.9638 552.05,592.9438" fill="none" id="FormularioEdicion-to-*end*SOLICITUD_DISPENSA_ABIERTA_COMP" style="stroke:#008000;stroke-width:1;"/><polygon fill="#008000" points="552.05,598.9438,556.05,589.9438,552.05,593.9438,548.05,589.9438,552.05,598.9438" style="stroke:#008000;stroke-width:1;"/></g><g><rect fill="#F1F1F1" height="76.2969" rx="12.5" ry="12.5" style="stroke:#181818;stroke-width:0.5;" width="187.3623" x="610.32" y="933.4169"/><line style="stroke:#181818;stroke-width:0.5;" x1="610.32" x2="797.6823" y1="979.7138" y2="979.7138"/><text fill="#000000" font-family="sans-serif" font-size="14" lengthAdjust="spacing" textLength="147.3623" x="630.32" y="961.412">DISPENSAS_ABIERTO</text></g><ellipse cx="704" cy="73.2969" fill="#222222" rx="10" ry="10" style="stroke:#222222;stroke-width:1;"/><ellipse cx="704" cy="1120.7169" fill="none" rx="11" ry="11" style="stroke:#222222;stroke-width:1;"/><ellipse cx="704" cy="1120.7169" fill="#222222" rx="6" ry="6" style="stroke:#222222;stroke-width:1;"/><!--link *start* to DISPENSAS_ABIERTO_INICIAL--><g class="link" data-entity-1="ent0002" data-entity-2="ent0002" data-link-type="dependency" data-source-line="13" id="lnk3"><path d="M704,83.4769 C704,103.6769 704,143.7469 704,177.1069" fill="none" id="*start*-to-DISPENSAS_ABIERTO_INICIAL" style="stroke:#008000;stroke-width:1;"/><polygon fill="#008000" points="704,183.1069,708,174.1069,704,178.1069,700,174.1069,704,183.1069" style="stroke:#008000;stroke-width:1;"/></g><!--link DISPENSAS_ABIERTO_INICIAL to SOLICITUD_DISPENSA_ABIERTA_COMP--><g class="link" data-entity-1="ent0002" data-entity-2="ent0003" data-link-type="dependency" data-source-line="17" id="lnk4"><path d="M704,259.8369 C704,286.1369 704,316.7369 704,353.2669" fill="none" id="DISPENSAS_ABIERTO_INICIAL-to-SOLICITUD_DISPENSA_ABIERTA_COMP" style="stroke:#008000;stroke-width:1;"/><polygon fill="#008000" points="704,359.2669,708,350.2669,704,354.2669,700,350.2669,704,359.2669" style="stroke:#008000;stroke-width:1;"/><path d="M6,229.5569 L6,304.5569 L319,304.5569 L319,239.5569 L309,229.5569 L6,229.5569" fill="#FEFFDD" style="stroke:#181818;stroke-width:0.5;"/><path d="M309,229.5569 L309,239.5569 L319,239.5569 L309,229.5569" fill="#FEFFDD" style="stroke:#181818;stroke-width:0.5;"/><text fill="#000000" font-family="sans-serif" font-size="13" font-weight="bold" lengthAdjust="spacing" textLength="112.7598" x="22" y="256.6238">Alumno solicita</text><text fill="#000000" font-family="sans-serif" font-size="13" lengthAdjust="spacing" textLength="155.9429" x="138.8921" y="256.6238">gestionar una dispensa.</text><text fill="#000000" font-family="sans-serif" font-size="13" font-weight="bold" lengthAdjust="spacing" textLength="120.999" x="22" y="271.7566">Sistema permite</text><text fill="#000000" font-family="sans-serif" font-size="13" lengthAdjust="spacing" textLength="76.4385" x="147.1313" y="271.7566">el acceso al</text><text fill="#000000" font-family="sans-serif" font-size="13" lengthAdjust="spacing" textLength="136.2397" x="22" y="286.8894">formulario detallado.</text><text fill="#000000" font-family="sans-serif" font-size="13" lengthAdjust="spacing" textLength="357.9063" x="335.835" y="271.7566">crearSolicitudDispensa() / consultarSolicitudDispensa()</text></g><!--link SOLICITUD_DISPENSA_ABIERTA_COMP to DISPENSAS_ABIERTO_FINAL--><g class="link" data-entity-1="ent0003" data-entity-2="ent0004" data-link-type="dependency" data-source-line="44" id="lnk9"><path d="M672.77,631.6069 C672.77,734.2469 672.77,862.0469 672.77,926.9269" fill="none" id="SOLICITUD_DISPENSA_ABIERTA_COMP-to-DISPENSAS_ABIERTO_FINAL" style="stroke:#008000;stroke-width:1;"/><polygon fill="#008000" points="672.77,932.9269,676.77,923.9269,672.77,927.9269,668.77,923.9269,672.77,932.9269" style="stroke:#008000;stroke-width:1;"/><path d="M175.77,702.2669 L175.77,777.2669 L468.77,777.2669 L468.77,712.2669 L458.77,702.2669 L175.77,702.2669" fill="#FEFFDD" style="stroke:#181818;stroke-width:0.5;"/><path d="M458.77,702.2669 L458.77,712.2669 L468.77,712.2669 L458.77,702.2669" fill="#FEFFDD" style="stroke:#181818;stroke-width:0.5;"/><text fill="#000000" font-family="sans-serif" font-size="13" font-weight="bold" lengthAdjust="spacing" textLength="77.3589" x="191.77" y="729.3338">GUARDAR:</text><text fill="#000000" font-family="sans-serif" font-size="13" font-weight="bold" lengthAdjust="spacing" textLength="112.7598" x="191.77" y="744.4666">Alumno solicita</text><text fill="#000000" font-family="sans-serif" font-size="13" lengthAdjust="spacing" textLength="101.9878" x="308.6621" y="744.4666">salvar cambios.</text><text fill="#000000" font-family="sans-serif" font-size="13" font-weight="bold" lengthAdjust="spacing" textLength="120.999" x="191.77" y="759.5994">Sistema permite</text><text fill="#000000" font-family="sans-serif" font-size="13" lengthAdjust="spacing" textLength="127.188" x="316.9013" y="759.5994">registrar y guardar.</text><text fill="#000000" font-family="sans-serif" font-size="13" lengthAdjust="spacing" textLength="176.9092" x="485.0893" y="744.4666">guardarSolicitudDispensa()</text></g><!--link SOLICITUD_DISPENSA_ABIERTA_COMP to DISPENSAS_ABIERTO_FINAL--><g class="link" data-entity-1="ent0003" data-entity-2="ent0004" data-link-type="dependency" data-source-line="51" id="lnk10"><path d="M735.23,631.6069 C735.23,734.2469 735.23,862.0469 735.23,926.9269" fill="none" id="SOLICITUD_DISPENSA_ABIERTA_COMP-to-DISPENSAS_ABIERTO_FINAL-1" style="stroke:#FF0000;stroke-width:1;"/><polygon fill="#FF0000" points="735.23,932.9269,739.23,923.9269,735.23,927.9269,731.23,923.9269,735.23,932.9269" style="stroke:#FF0000;stroke-width:1;"/><text fill="#000000" font-family="sans-serif" font-size="13" lengthAdjust="spacing" textLength="164.6899" x="225.23" y="837.033">cerrarSolicitudDispensa()</text><path d="M405.9199,787.2669 L405.9199,877.2669 L729.9199,877.2669 L729.9199,797.2669 L719.9199,787.2669 L405.9199,787.2669" fill="#FEFFDD" style="stroke:#181818;stroke-width:0.5;"/><path d="M719.9199,787.2669 L719.9199,797.2669 L729.9199,797.2669 L719.9199,787.2669" fill="#FEFFDD" style="stroke:#181818;stroke-width:0.5;"/><text fill="#000000" font-family="sans-serif" font-size="13" font-weight="bold" lengthAdjust="spacing" textLength="63.7114" x="421.9199" y="814.3338">CERRAR:</text><text fill="#000000" font-family="sans-serif" font-size="13" font-weight="bold" lengthAdjust="spacing" textLength="112.7598" x="421.9199" y="829.4666">Alumno solicita</text><text fill="#000000" font-family="sans-serif" font-size="13" lengthAdjust="spacing" textLength="31.4399" x="538.812" y="829.4666">salir.</text><text fill="#000000" font-family="sans-serif" font-size="13" font-weight="bold" lengthAdjust="spacing" textLength="120.999" x="421.9199" y="844.5994">Sistema permite</text><text fill="#000000" font-family="sans-serif" font-size="13" lengthAdjust="spacing" textLength="158.6216" x="547.0513" y="844.5994">descartar cambios extra</text><text fill="#000000" font-family="sans-serif" font-size="13" lengthAdjust="spacing" textLength="184.8501" x="421.9199" y="859.7322">sin evitar la creaci&#243;n previa.</text></g><!--link DISPENSAS_ABIERTO_FINAL to *end*--><g class="link" data-entity-1="ent0004" data-entity-2="ent0011" data-link-type="dependency" data-source-line="59" id="lnk12"><path d="M704,1009.9769 C704,1042.9469 704,1082.3669 704,1103.2969" fill="none" id="DISPENSAS_ABIERTO_FINAL-to-*end*" style="stroke:#0000FF;stroke-width:1;"/><polygon fill="#0000FF" points="704,1109.2969,708,1100.2969,704,1104.2969,700,1100.2969,704,1109.2969" style="stroke:#0000FF;stroke-width:1;"/></g><?plantuml-src bLNDRfj04Bxp52FtaDIIa_HgHP6e8H6I3HOuXogAh3MidMsMNR8iKQsgKj-XRz1R3ptr4VmcVP8E2zYqDaxgWuM6cTdvVcRHJ7CARi8qKP1BpcAcYmGI2WdBCofo0fPr0eF104Q1V-tTt8RsoDjyyy5nmOrctZWeNrhv8nCPKIG58HEQqmpUNLn0Awo8UAp3hIXdWkfrHa4g_I1RBwOaIPXOORfbvPfe2euNJLq_igEv_TvpmramztnlvDbZsFv83hszj5vT7mLZJ9_TElCcfSwmvwDWCctgkzDwdODSUtvxZCv1hBl-FGpktgmKfU9-SDMDgU7SzMUXxTWHO7zastO2mxlZLHgKp9-0_LHiVWANEQIR7rec-11vAAQ09QVn0mwJIVLKL98Ykm8eXvYa2oPBeJCYDE6SMDqCjsT-YSSXn8eI5JLUSceVdRw5SuYbo0kk3xwsX4HsELrgmD7H6OzMoUNbuihcHIfaOqzoURwuWXNDDPC2NLi8iZNhMLCIiLpJb416LSeqDIM8ciGnpIKG3YPnALLQSA8C4OQ4H9vPL2HGph8p_cGQ8Bw9Xt84uFapD_Hhsx_AMf_DOLNkzVP8NBeO4HYpcEVDBr7gqJ3ICrNcxmGY2ap4l5ZJ4aQjCzAP8fXOisUM4BEro0fYW5EdT4w04GuBBb7yjwRH_kb3e6Rv3mcoFVzVt-wrsQKQ4HLRFQ2Aoux48xAcCc5B5gEi22pDE2DgkAtv_VKxJ2IYHOUl8P5naLBqhc7khDtvaFgSb4WhbjVRPFgHneKcqEztqj3lLxstjjXYtMUpJHAIPdrfF1JPOw_SumymTSF8YsQkZvjbFFIIUtOz1mUlZEhs6SAg82hvpyswkRL3nmw79KF7jYqd_1argIwD_EYMARh2gCBiTJDIUwLUWLRHv2MiCLNg2DJQVtzZ7RbX-3geJ1r5YDytDAZUyG7q4mAkbfpXxVfilgPekF8ch1oNAOoIDX5Tu9201IzexQ0_?></g></svg>