<svg xmlns="http://www.w3.org/2000/svg" xmlns:xlink="http://www.w3.org/1999/xlink" version="1.1" data-diagram-type="DESCRIPTION" style="width:807px;height:432px;background:#FFFFFF;" width="807px" height="432px" viewBox="0 0 807 432" zoomAndPan="magnify" preserveAspectRatio="none" contentStyleType="text/css"><?plantuml 1.2026.7beta3?><defs/><g><!--cluster consultarUsuario--><g class="cluster" data-qualified-name="consultarUsuario" id="ent0002" data-source-line="5"><path d="M254.33,6 L402.5898,6 A3.75,3.75 0 0 1 405.0898,8.5 L412.0898,28.2969 L790.33,28.2969 A2.5,2.5 0 0 1 792.83,30.7969 L792.83,414.69 A2.5,2.5 0 0 1 790.33,417.19 L254.33,417.19 A2.5,2.5 0 0 1 251.83,414.69 L251.83,8.5 A2.5,2.5 0 0 1 254.33,6" style="stroke:#000000;stroke-width:1.5;" fill="none"/><line x1="251.83" y1="28.2969" x2="412.0898" y2="28.2969" style="stroke:#000000;stroke-width:1.5;"/><text x="255.83" y="20.9951" fill="#000000" font-size="14" lengthAdjust="spacing" textLength="147.2598" font-weight="700" font-family="sans-serif">consultarUsuario()</text></g><!--entity ConsultarUsuarioView--><g class="entity" data-qualified-name="consultarUsuario.ConsultarUsuarioView" id="ent0003" data-source-line="6"><rect x="329.91" y="41" width="173.8291" height="36.2969" fill="#629EF9" style="stroke:#181818;stroke-width:0.5;" rx="2.5" ry="2.5"/><text x="339.91" y="63.9951" fill="#000000" font-size="14" lengthAdjust="spacing" textLength="153.8291" font-family="sans-serif">ConsultarUsuarioView</text></g><!--entity UsuarioController--><g class="entity" data-qualified-name="consultarUsuario.UsuarioController" id="ent0004" data-source-line="7"><rect x="392.64" y="154.3" width="142.377" height="36.2969" fill="#B5BD68" style="stroke:#181818;stroke-width:0.5;" rx="2.5" ry="2.5"/><text x="402.64" y="177.2951" fill="#000000" font-size="14" lengthAdjust="spacing" textLength="122.377" font-family="sans-serif">UsuarioController</text></g><!--entity UsuarioRepository--><g class="entity" data-qualified-name="consultarUsuario.UsuarioRepository" id="ent0005" data-source-line="8"><rect x="395.69" y="267.6" width="148.2764" height="36.2969" fill="#F2AC4E" style="stroke:#181818;stroke-width:0.5;" rx="2.5" ry="2.5"/><text x="405.69" y="290.5951" fill="#000000" font-size="14" lengthAdjust="spacing" textLength="128.2764" font-family="sans-serif">UsuarioRepository</text></g><!--entity Usuario--><g class="entity" data-qualified-name="consultarUsuario.Usuario" id="ent0006" data-source-line="9"><rect x="433.23" y="364.89" width="73.2041" height="36.2969" fill="#F2AC4E" style="stroke:#181818;stroke-width:0.5;" rx="2.5" ry="2.5"/><text x="443.23" y="387.8851" fill="#000000" font-size="14" lengthAdjust="spacing" textLength="53.2041" font-family="sans-serif">Usuario</text></g><!--entity PanelAdminAbierto--><g class="entity" data-qualified-name="PanelAdminAbierto" id="ent0001" data-source-line="3"><rect x="7" y="41" width="167.6563" height="36.2969" fill="#CDEBA5" style="stroke:#181818;stroke-width:0.5;" rx="2.5" ry="2.5"/><text x="17" y="63.9951" fill="#000000" font-size="14" lengthAdjust="spacing" textLength="147.6563" font-family="sans-serif">:Panel Admin Abierto</text></g><!--link PanelAdminAbierto to ConsultarUsuarioView--><g class="link" data-entity-1="ent0001" data-entity-2="ent0003" id="lnk7" data-source-line="12" data-link-type="dependency"><path d="M174.78,59.15 C222.23,59.15 276.47,59.15 324.46,59.15" style="stroke:#181818;stroke-width:1;" fill="none" id="PanelAdminAbierto-to-ConsultarUsuarioView"/><polygon points="329.46,59.15,320.46,55.15,324.46,59.15,320.46,63.15,329.46,59.15" fill="#181818" style="stroke:#181818;stroke-width:1;stroke-linejoin:miter;stroke-miterlimit:10;"/><text x="192.78" y="52.2169" fill="#000000" font-size="13" lengthAdjust="spacing" textLength="119.9199" font-family="sans-serif">consultarUsuario()</text></g><!--link ConsultarUsuarioView to UsuarioController--><g class="link" data-entity-1="ent0003" data-entity-2="ent0004" id="lnk8" data-source-line="14" data-link-type="dependency"><path d="M373.26,77.71 C340,91.11 299.83,107.3 299.83,107.3 C299.83,107.3 299.83,124.3 299.83,124.3 C299.83,124.3 351.3245,139.109 397.9545,152.509" style="stroke:#181818;stroke-width:1;" fill="none" id="ConsultarUsuarioView-to-UsuarioController"/><polygon points="402.76,153.89,395.2148,147.5599,397.9545,152.509,393.0053,155.2487,402.76,153.89" fill="#181818" style="stroke:#181818;stroke-width:1;stroke-linejoin:miter;stroke-miterlimit:10;"/><text x="300.83" y="120.3669" fill="#000000" font-size="13" lengthAdjust="spacing" textLength="246.7969" font-family="sans-serif">buscarUsuarios(filtro) : List&lt;Usuario></text></g><!--link ConsultarUsuarioView to UsuarioController--><g class="link" data-entity-1="ent0003" data-entity-2="ent0004" id="lnk10" data-source-line="18" data-link-type="dependency"><path d="M467.1,77.71 C505.48,91.11 551.83,107.3 551.83,107.3 C551.83,107.3 551.83,124.3 551.83,124.3 C551.83,124.3 526.0277,138.1294 501.0077,151.5294" style="stroke:#181818;stroke-width:1;" fill="none" id="ConsultarUsuarioView-to-UsuarioController-1"/><polygon points="496.6,153.89,506.4223,153.167,501.0077,151.5294,502.6453,146.1148,496.6,153.89" fill="#181818" style="stroke:#181818;stroke-width:1;stroke-linejoin:miter;stroke-miterlimit:10;"/><text x="552.83" y="120.3669" fill="#000000" font-size="13" lengthAdjust="spacing" textLength="184.3423" font-family="sans-serif">obtenerUsuario(id) : Usuario</text></g><!--link UsuarioController to UsuarioRepository--><g class="link" data-entity-1="ent0004" data-entity-2="ent0005" id="lnk9" data-source-line="16" data-link-type="dependency"><path d="M406.11,191 C362.04,204.41 308.83,220.6 308.83,220.6 C308.83,220.6 308.83,237.6 308.83,237.6 C308.83,237.6 359.3016,252.3744 405.0816,265.7844" style="stroke:#181818;stroke-width:1;" fill="none" id="UsuarioController-to-UsuarioRepository"/><polygon points="409.88,267.19,402.3674,260.8213,405.0816,265.7844,400.1185,268.4987,409.88,267.19" fill="#181818" style="stroke:#181818;stroke-width:1;stroke-linejoin:miter;stroke-miterlimit:10;"/><text x="309.83" y="233.6669" fill="#000000" font-size="13" lengthAdjust="spacing" textLength="244.8545" font-family="sans-serif">buscarPorFiltro(filtro) : List&lt;Usuario></text></g><!--link UsuarioController to UsuarioRepository--><g class="link" data-entity-1="ent0004" data-entity-2="ent0005" id="lnk11" data-source-line="20" data-link-type="dependency"><path d="M499.2,191 C526.21,204.41 558.83,220.6 558.83,220.6 C558.83,220.6 558.83,237.6 558.83,237.6 C558.83,237.6 532.6878,251.4384 507.3878,264.8484" style="stroke:#181818;stroke-width:1;" fill="none" id="UsuarioController-to-UsuarioRepository-1"/><polygon points="502.97,267.19,512.7953,266.5093,507.3878,264.8484,509.0487,259.4409,502.97,267.19" fill="#181818" style="stroke:#181818;stroke-width:1;stroke-linejoin:miter;stroke-miterlimit:10;"/><text x="559.83" y="233.6669" fill="#000000" font-size="13" lengthAdjust="spacing" textLength="168.1621" font-family="sans-serif">obtenerPorId(id) : Usuario</text></g><!--link UsuarioRepository to Usuario--><g class="link" data-entity-1="ent0005" data-entity-2="ent0006" id="lnk12" data-source-line="22" data-link-type="association"><path d="M469.83,304.22 C469.83,321.42 469.83,347.52 469.83,364.67" style="stroke:#181818;stroke-width:1;" fill="none" id="UsuarioRepository-Usuario"/></g><?plantuml-src ZP11QuCm68Rltw_ui9VsuAMiPPLHS5PXi4CPRFT4lvNGD94aCcJilo-Arg6sBBUyUVBa_MBFGfNCi0jAeSZL9M6fPTri00pbZgcJ95maX_Gvtc0G7PaYYN5n4GfZBiWu7I2psEPjtAK09SlFx4IOQsKhwPXvjnKpGZTuC0wNgm2_0Vtwy-fslKkp7IOZzaFGrnZb6rvi7x4Z_0rdj9HanbosZfE7jEVUgDHME6tg-npy04mcnD24-zbo4Kx70vWZCIoyOz8wGbxP_4hQvQUG_cY54RuAwvwwV0ymkOhX81p6wuL7RR9MTTiuNtE-fUQE55s754NZw__i_zqwZI_tKjoG3BYNzAU_?></g></svg>