<svg xmlns="http://www.w3.org/2000/svg" xmlns:xlink="http://www.w3.org/1999/xlink" version="1.1" data-diagram-type="DESCRIPTION" style="width:580px;height:432px;background:#FFFFFF;" width="580px" height="432px" viewBox="0 0 580 432" zoomAndPan="magnify" preserveAspectRatio="none" contentStyleType="text/css"><?plantuml 1.2026.7beta8?><defs/><g font-family="sans-serif" lengthAdjust="spacing"><!--cluster consultarUsuario--><g class="cluster" data-qualified-name="consultarUsuario" id="ent0002" data-source-line="5"><path d="M289.72,6 L437.98,6 A3.75,3.75 0 0 1 440.48,8.5 L447.48,28.297 L533.72,28.297 A2.5,2.5 0 0 1 536.22,30.797 L536.22,414.69 A2.5,2.5 0 0 1 533.72,417.19 L289.72,417.19 A2.5,2.5 0 0 1 287.22,414.69 L287.22,8.5 A2.5,2.5 0 0 1 289.72,6" style="stroke:#000;stroke-width:1.5;" fill="none"/><line x1="287.22" y1="28.297" x2="447.48" y2="28.297" style="stroke:#000;stroke-width:1.5;"/><text x="291.22" y="20.995" fill="#000" font-size="14" textLength="147.26" font-weight="700">consultarUsuario()</text></g><!--entity ConsultarUsuarioView--><g class="entity" data-qualified-name="consultarUsuario.ConsultarUsuarioView" id="ent0003" data-source-line="6"><rect x="303.31" y="41" width="173.829" height="36.297" fill="#629EF9" style="stroke:#181818;stroke-width:0.5;" rx="2.5" ry="2.5"/><text x="313.31" y="63.995" fill="#000" font-size="14" textLength="153.829">ConsultarUsuarioView</text></g><!--entity UsuarioController--><g class="entity" data-qualified-name="consultarUsuario.UsuarioController" id="ent0004" data-source-line="7"><rect x="304.03" y="154.3" width="142.377" height="36.297" fill="#B5BD68" style="stroke:#181818;stroke-width:0.5;" rx="2.5" ry="2.5"/><text x="314.03" y="177.295" fill="#000" font-size="14" textLength="122.377">UsuarioController</text></g><!--entity UsuarioRepository--><g class="entity" data-qualified-name="consultarUsuario.UsuarioRepository" id="ent0005" data-source-line="8"><rect x="303.08" y="267.6" width="148.276" height="36.297" fill="#F2AC4E" style="stroke:#181818;stroke-width:0.5;" rx="2.5" ry="2.5"/><text x="313.08" y="290.595" fill="#000" font-size="14" textLength="128.276">UsuarioRepository</text></g><!--entity Usuario--><g class="entity" data-qualified-name="consultarUsuario.Usuario" id="ent0006" data-source-line="9"><rect x="340.62" y="364.89" width="73.204" height="36.297" fill="#F2AC4E" style="stroke:#181818;stroke-width:0.5;" rx="2.5" ry="2.5"/><text x="350.62" y="387.885" fill="#000" font-size="14" textLength="53.204">Usuario</text></g><!--entity UsuariosAbierto--><g class="entity" data-qualified-name="UsuariosAbierto" id="ent0001" data-source-line="3"><rect x="7" y="41" width="140.442" height="36.297" fill="#CDEBA5" style="stroke:#181818;stroke-width:0.5;" rx="2.5" ry="2.5"/><text x="17" y="63.995" fill="#000" font-size="14" textLength="120.442">:Usuarios Abierto</text></g><!--link UsuariosAbierto to ConsultarUsuarioView--><g class="link" data-entity-1="ent0001" data-entity-2="ent0003" id="lnk7" data-source-line="12" data-link-type="dependency"><path d="M147.85,59.15 C193.83,59.15 249.13,59.15 298.08,59.15" style="stroke:#181818;stroke-width:1;" fill="none" id="UsuariosAbierto-to-ConsultarUsuarioView"/><polygon points="303.08,59.15,294.08,55.15,298.08,59.15,294.08,63.15,303.08,59.15" fill="#181818" style="stroke:#181818;stroke-width:1;stroke-linejoin:miter;stroke-miterlimit:10;"/><text x="165.87" y="52.217" fill="#000" font-size="13" textLength="119.92">consultarUsuario()</text></g><!--link ConsultarUsuarioView to UsuarioController--><g class="link" data-entity-1="ent0003" data-entity-2="ent0004" id="lnk8" data-source-line="13" data-link-type="dependency"><path d="M387.88,77.54 C385.08,98.33 381.077,127.965 378.267,148.855" style="stroke:#181818;stroke-width:1;" fill="none" id="ConsultarUsuarioView-to-UsuarioController"/><polygon points="377.6,153.81,382.764,145.424,378.267,148.855,374.836,144.357,377.6,153.81" fill="#181818" style="stroke:#181818;stroke-width:1;stroke-linejoin:miter;stroke-miterlimit:10;"/><text x="384.22" y="120.367" fill="#000" font-size="13" textLength="180.134">consultarUsuario(usuarioId)</text></g><!--link UsuarioController to UsuarioRepository--><g class="link" data-entity-1="ent0004" data-entity-2="ent0005" id="lnk9" data-source-line="14" data-link-type="dependency"><path d="M375.53,190.84 C375.91,211.62 376.441,241.211 376.811,262.111" style="stroke:#181818;stroke-width:1;" fill="none" id="UsuarioController-to-UsuarioRepository"/><polygon points="376.9,267.11,380.74,258.041,376.811,262.111,372.741,258.182,376.9,267.11" fill="#181818" style="stroke:#181818;stroke-width:1;stroke-linejoin:miter;stroke-miterlimit:10;"/><text x="377.22" y="233.667" fill="#000" font-size="13" textLength="123.735">findById(usuarioId)</text></g><!--link UsuarioRepository to Usuario--><g class="link" data-entity-1="ent0005" data-entity-2="ent0006" id="lnk10" data-source-line="15" data-link-type="association"><path d="M377.22,304.22 C377.22,321.42 377.22,347.52 377.22,364.67" style="stroke:#181818;stroke-width:1;" fill="none" id="UsuarioRepository-Usuario"/></g><?plantuml-src VOz1Yy8m48Nlyok6UbaFlOYAzh1GQmMl2tfFcra9nYHCKfQox7_VYfPAMfnBcCVt9k_vgp9EiBYXLeP2wmYTrUrz0M2gWp0NJJWhzkKkNs6IdNmZM5cFUQM8WqrGUEp5fmRWH7qL5yBQ6j_e8FX9tE4a5Z_c2Vu2TlFouNgnBGzRB2BshEWdHgjL9TURFaJd26or9ewvmo8lbcNFVP6pNWNBxNiE_W2YVfXo-ZaPBSDnEPW2CPNTYL7a2N_pU8zo3YCSq-78q2V3RsNahZtA2VE0TURU-my0?></g></svg>