<svg xmlns="http://www.w3.org/2000/svg" xmlns:xlink="http://www.w3.org/1999/xlink" contentStyleType="text/css" data-diagram-type="DESCRIPTION" height="435px" preserveAspectRatio="none" style="width:883px;height:435px;background:#FFFFFF;" version="1.1" viewBox="0 0 883 435" width="883px" zoomAndPan="magnify"><?plantuml 1.2026.5?><defs/><g><!--cluster consultarListaAlumnos--><g class="cluster" data-qualified-name="consultarListaAlumnos" data-source-line="7" id="ent0004"><path d="M8.5,106.3 L202.6221,106.3 A3.75,3.75 0 0 1 205.1221,108.8 L212.1221,128.5969 L277.5,128.5969 A2.5,2.5 0 0 1 280,131.0969 L280,417.69 A2.5,2.5 0 0 1 277.5,420.19 L8.5,420.19 A2.5,2.5 0 0 1 6,417.69 L6,108.8 A2.5,2.5 0 0 1 8.5,106.3" fill="none" style="stroke:#000000;stroke-width:1.5;"/><line style="stroke:#000000;stroke-width:1.5;" x1="6" x2="212.1221" y1="128.5969" y2="128.5969"/><text fill="#000000" font-family="sans-serif" font-size="14" font-weight="700" lengthAdjust="spacing" textLength="193.1221" x="10" y="121.2951">consultarListaAlumnos()</text></g><!--entity ListaAlumnosView--><g class="entity" data-qualified-name="consultarListaAlumnos.ListaAlumnosView" data-source-line="8" id="ent0005"><rect fill="#629EF9" height="36.2969" rx="2.5" ry="2.5" style="stroke:#181818;stroke-width:0.5;" width="147.292" x="116.35" y="141.3"/><text fill="#000000" font-family="sans-serif" font-size="14" lengthAdjust="spacing" textLength="127.292" x="126.35" y="164.2951">ListaAlumnosView</text></g><!--entity AlumnoController--><g class="entity" data-qualified-name="consultarListaAlumnos.AlumnoController" data-source-line="9" id="ent0006"><rect fill="#B5BD68" height="36.2969" rx="2.5" ry="2.5" style="stroke:#181818;stroke-width:0.5;" width="142.5889" x="21.71" y="254.6"/><text fill="#000000" font-family="sans-serif" font-size="14" lengthAdjust="spacing" textLength="122.5889" x="31.71" y="277.5951">AlumnoController</text></g><!--entity AlumnoRepository--><g class="entity" data-qualified-name="consultarListaAlumnos.AlumnoRepository" data-source-line="10" id="ent0007"><rect fill="#F2AC4E" height="36.2969" rx="2.5" ry="2.5" style="stroke:#181818;stroke-width:0.5;" width="148.4883" x="21.76" y="367.89"/><text fill="#000000" font-family="sans-serif" font-size="14" lengthAdjust="spacing" textLength="128.4883" x="31.76" y="390.8851">AlumnoRepository</text></g><!--entity PanelSecretaria--><g class="entity" data-qualified-name="PanelSecretaria" data-source-line="3" id="ent0001"><rect fill="#CDEBA5" height="36.2969" rx="2.5" ry="2.5" style="stroke:#181818;stroke-width:0.5;" width="164.498" x="107.75" y="7"/><text fill="#000000" font-family="sans-serif" font-size="14" lengthAdjust="spacing" textLength="144.498" x="117.75" y="29.9951">:PANEL_SECRETARIA</text></g><!--entity ListadoCompleto--><g class="entity" data-qualified-name="ListadoCompleto" data-source-line="4" id="ent0002"><rect fill="#CDEBA5" height="36.2969" rx="2.5" ry="2.5" style="stroke:#181818;stroke-width:0.5;" width="247.0762" x="296.46" y="254.6"/><text fill="#000000" font-family="sans-serif" font-size="14" lengthAdjust="spacing" textLength="227.0762" x="306.46" y="277.5951">:LISTADO_ALUMNOS_COMPLETO</text></g><!--entity CompletarGestion--><g class="entity" data-qualified-name="CompletarGestion" data-source-line="5" id="ent0003"><rect fill="#CDEBA5" height="36.2969" rx="2.5" ry="2.5" style="stroke:#181818;stroke-width:0.5;" width="249.2363" x="578.38" y="254.6"/><text fill="#000000" font-family="sans-serif" font-size="14" lengthAdjust="spacing" textLength="229.2363" x="588.38" y="277.5951">:Collaboration CompletarGestion</text></g><!--link PanelSecretaria to ListaAlumnosView--><g class="link" data-entity-1="ent0001" data-entity-2="ent0005" data-link-type="dependency" data-source-line="13" id="lnk8"><path d="M190,43.72 C190,69.02 190,110.46 190,135.81" fill="none" id="PanelSecretaria-to-ListaAlumnosView" style="stroke:#181818;stroke-width:1;"/><polygon fill="#181818" points="190,140.81,194,131.81,190,135.81,186,131.81,190,140.81" style="stroke:#181818;stroke-width:1;stroke-linejoin:miter;stroke-miterlimit:10;"/><text fill="#000000" font-family="sans-serif" font-size="13" lengthAdjust="spacing" textLength="157.5806" x="191" y="86.3669">consultarListaAlumnos()</text></g><!--link ListaAlumnosView to AlumnoController--><g class="link" data-entity-1="ent0005" data-entity-2="ent0006" data-link-type="dependency" data-source-line="15" id="lnk9"><path d="M174.84,177.84 C156.73,198.62 129.8646,229.4402 111.6546,250.3402" fill="none" id="ListaAlumnosView-to-AlumnoController" style="stroke:#181818;stroke-width:1;"/><polygon fill="#181818" points="108.37,254.11,117.2981,249.952,111.6546,250.3402,111.2664,244.6967,108.37,254.11" style="stroke:#181818;stroke-width:1;stroke-linejoin:miter;stroke-miterlimit:10;"/><text fill="#000000" font-family="sans-serif" font-size="13" lengthAdjust="spacing" textLength="205.7656" x="149" y="220.6669">obtenerListadoGlobalAlumnos()</text></g><!--link AlumnoController to AlumnoRepository--><g class="link" data-entity-1="ent0006" data-entity-2="ent0007" data-link-type="dependency" data-source-line="16" id="lnk10"><path d="M93.47,291.13 C94.03,311.92 94.8261,341.5118 95.3861,362.4118" fill="none" id="AlumnoController-to-AlumnoRepository" style="stroke:#181818;stroke-width:1;"/><polygon fill="#181818" points="95.52,367.41,99.2775,358.3061,95.3861,362.4118,91.2804,358.5204,95.52,367.41" style="stroke:#181818;stroke-width:1;stroke-linejoin:miter;stroke-miterlimit:10;"/><text fill="#000000" font-family="sans-serif" font-size="13" lengthAdjust="spacing" textLength="190.9946" x="96" y="333.9569">recuperarTodosLosAlumnos()</text></g><!--link ListaAlumnosView to ListadoCompleto--><g class="link" data-entity-1="ent0005" data-entity-2="ent0002" data-link-type="dependency" data-source-line="18" id="lnk11"><path d="M254.42,178 C303.61,191.41 363,207.6 363,207.6 C363,207.6 384.2303,231.4811 401.1003,250.4811" fill="none" id="ListaAlumnosView-to-ListadoCompleto" style="stroke:#181818;stroke-width:1;stroke-dasharray:7,7;"/><polygon fill="#181818" points="404.42,254.22,401.4356,244.8342,401.1003,250.4811,395.4534,250.1458,404.42,254.22" style="stroke:#181818;stroke-width:1;stroke-linejoin:miter;stroke-miterlimit:10;"/><text fill="#000000" font-family="sans-serif" font-size="13" lengthAdjust="spacing" textLength="109.6367" x="378" y="220.6669">&#171;include&#187; [&#233;xito]</text></g><!--link ListaAlumnosView to CompletarGestion--><g class="link" data-entity-1="ent0005" data-entity-2="ent0003" data-link-type="dependency" data-source-line="19" id="lnk12"><path d="M264.07,171.86 C354.64,185.81 496,207.6 496,207.6 C496,207.6 580.1041,233.66 641.3841,252.65" fill="none" id="ListaAlumnosView-to-CompletarGestion" style="stroke:#181818;stroke-width:1;stroke-dasharray:7,7;"/><polygon fill="#181818" points="646.16,254.13,638.7473,247.6452,641.3841,252.65,636.3793,255.2867,646.16,254.13" style="stroke:#181818;stroke-width:1;stroke-linejoin:miter;stroke-miterlimit:10;"/><text fill="#000000" font-family="sans-serif" font-size="13" lengthAdjust="spacing" textLength="320.7344" x="547" y="220.6669">&#171;include&#187; completarGestion() [cancelaci&#243;n/error]</text></g><?plantuml-src VP71JW8n48RlVOe9NkI09aI9R0Z9kYp4P0K2w8KOCjkTaCRIsRGbIemFvDb7yCLSa4IiQ6_jVFy_VsVSep8bMbo1LeRyfYGeMM-s5o4iIOzcgGbEabvw7Lz2BHh7mpHRJDDaaixYoKrS0tGmHaDwIjAIHwlmg32xcSxYtcWHPtUtmz5qaOnknraw6-qCCkKy5fpmgjJa-QX1mbfZpXQzOWDx5Es0tFPXPnC-2b6YVCGbWMJZrhggx3h5UhqoxBQIsj7AQRq6BmAgSv2arMod_JOSSlUAda8ilyoBrXLy4GaRRwlWP4EituoJYtIFJQXafppRZNWL8XWdD1hTNrqZ-2Eu424AZQ8o2FD4mBadGtO_-u7c7FMtJSZlKeHfe-sFrYLPj3Cks6Ni_WjoTjODLnr1fwECrEk2kbsOVxmzLyOFnwNXUdzgPL0zhSDSef6aKQgFTtDErh9z-0G0?></g></svg>