<svg xmlns="http://www.w3.org/2000/svg" xmlns:xlink="http://www.w3.org/1999/xlink" contentStyleType="text/css" data-diagram-type="STATE" height="826px" preserveAspectRatio="none" style="width:636px;height:826px;background:#FFFFFF;" version="1.1" viewBox="0 0 636 826" width="636px" zoomAndPan="magnify"><title>Consultar Solicitud Dispensa</title><defs/><g><text fill="#000000" font-family="sans-serif" font-size="14" font-weight="bold" lengthAdjust="spacing" textLength="194.4756" x="213.7622" y="24.5332">Consultar Solicitud Dispensa</text><g id="DISPENSAS_ABIERTO_INICIAL"><rect fill="#F1F1F1" height="50" rx="12.5" ry="12.5" style="stroke:#181818;stroke-width:0.5;" width="169.3789" x="120.5" y="125.6094"/><line style="stroke:#181818;stroke-width:0.5;" x1="120.5" x2="289.8789" y1="153.2188" y2="153.2188"/><text fill="#000000" font-family="sans-serif" font-size="14" lengthAdjust="spacing" textLength="149.3789" x="130.5" y="145.1426">DISPENSAS_ABIERTO</text></g><g id="DISPENSAS_ABIERTO_FINAL"><rect fill="#F1F1F1" height="50" rx="12.5" ry="12.5" style="stroke:#181818;stroke-width:0.5;" width="169.3789" x="120.5" y="770.6094"/><line style="stroke:#181818;stroke-width:0.5;" x1="120.5" x2="289.8789" y1="798.2188" y2="798.2188"/><text fill="#000000" font-family="sans-serif" font-size="14" lengthAdjust="spacing" textLength="149.3789" x="130.5" y="790.1426">DISPENSAS_ABIERTO</text></g><path d="M19.5,338.6094 L391,338.6094 A12.5,12.5 0 0 1 403.5,351.1094 L403.5,366.2188 L7,366.2188 L7,351.1094 A12.5,12.5 0 0 1 19.5,338.6094" fill="#F1F1F1" style="stroke:#F1F1F1;stroke-width:1;"/><rect fill="none" height="317.6094" rx="12.5" ry="12.5" style="stroke:#181818;stroke-width:0.5;" width="396.5" x="7" y="338.6094"/><line style="stroke:#181818;stroke-width:0.5;" x1="7" x2="403.5" y1="366.2188" y2="366.2188"/><text fill="#000000" font-family="sans-serif" font-size="14" lengthAdjust="spacing" textLength="220.9512" x="94.7744" y="358.1426">SOLICITUD_DISPENSA_ABIERTA</text><g id="SOLICITUD_DISPENSA_ABIERTA_COMP.VisualizacionDetalle"><rect fill="#F1F1F1" height="50" rx="12.5" ry="12.5" style="stroke:#181818;stroke-width:0.5;" width="145.2891" x="19" y="502.2188"/><line style="stroke:#181818;stroke-width:0.5;" x1="19" x2="164.2891" y1="529.8281" y2="529.8281"/><text fill="#000000" font-family="sans-serif" font-size="14" lengthAdjust="spacing" textLength="125.2891" x="29" y="521.752">VisualizacionDetalle</text></g><ellipse cx="91.5" cy="387.2188" fill="#222222" rx="10" ry="10" style="stroke:#222222;stroke-width:1;"/><ellipse cx="91.5" cy="635.2188" fill="none" rx="11" ry="11" style="stroke:#222222;stroke-width:1;"/><ellipse cx="91.5" cy="635.2188" fill="#222222" rx="6" ry="6" style="stroke:#222222;stroke-width:1;"/><!--link *start*SOLICITUD_DISPENSA_ABIERTA_COMP to VisualizacionDetalle--><g class="link" data-entity-1="*start*SOLICITUD_DISPENSA_ABIERTA_COMP" data-entity-2="VisualizacionDetalle" data-source-line="22" data-uid="lnk6" id="link_*start*SOLICITUD_DISPENSA_ABIERTA_COMP_VisualizacionDetalle"><path d="M91.5,397.2688 C91.5,418.2587 91.5,464.8088 91.5,495.9688" fill="none" id="*start*SOLICITUD_DISPENSA_ABIERTA_COMP-to-VisualizacionDetalle" style="stroke:#008000;stroke-width:1;"/><polygon fill="#008000" points="91.5,501.9688,95.5,492.9688,91.5,496.9688,87.5,492.9688,91.5,501.9688" style="stroke:#008000;stroke-width:1;"/><path d="M96.5,420.2188 L96.5,479.2188 L394.5,479.2188 L394.5,430.2188 L384.5,420.2188 L96.5,420.2188" fill="#FEFFDD" style="stroke:#181818;stroke-width:0.5;"/><path d="M384.5,420.2188 L384.5,430.2188 L394.5,430.2188 L384.5,420.2188" fill="#FEFFDD" style="stroke:#181818;stroke-width:0.5;"/><text fill="#000000" font-family="sans-serif" font-size="13" font-weight="bold" lengthAdjust="spacing" textLength="49.8608" x="102.5" y="438.7139">Sistema</text><text fill="#000000" font-family="sans-serif" font-size="13" lengthAdjust="spacing" textLength="224.0088" x="155.9727" y="438.7139">muestra todos los datos de la solicitud:</text><text fill="#000000" font-family="sans-serif" font-size="13" lengthAdjust="spacing" textLength="166.4038" x="102.5" y="455.0654">&#8226; Alumno solicitante y Motivo</text><text fill="#000000" font-family="sans-serif" font-size="13" lengthAdjust="spacing" textLength="237.98" x="102.5" y="471.417">&#8226; Estado actual y Documentaci&#243;n adjunta</text></g><!--link VisualizacionDetalle to *end*SOLICITUD_DISPENSA_ABIERTA_COMP--><g class="link" data-entity-1="VisualizacionDetalle" data-entity-2="*end*SOLICITUD_DISPENSA_ABIERTA_COMP" data-source-line="29" data-uid="lnk8" id="link_VisualizacionDetalle_*end*SOLICITUD_DISPENSA_ABIERTA_COMP"><path d="M91.5,552.2688 C91.5,574.8688 91.5,601.5988 91.5,618.0188" fill="none" id="VisualizacionDetalle-to-*end*SOLICITUD_DISPENSA_ABIERTA_COMP" style="stroke:#008000;stroke-width:1;"/><polygon fill="#008000" points="91.5,624.0188,95.5,615.0188,91.5,619.0188,87.5,615.0188,91.5,624.0188" style="stroke:#008000;stroke-width:1;"/><path d="M96.5,575.2188 L96.5,601.2188 L335.5,601.2188 L335.5,585.2188 L325.5,575.2188 L96.5,575.2188" fill="#FEFFDD" style="stroke:#181818;stroke-width:0.5;"/><path d="M325.5,575.2188 L325.5,585.2188 L335.5,585.2188 L325.5,575.2188" fill="#FEFFDD" style="stroke:#181818;stroke-width:0.5;"/><text fill="#000000" font-family="sans-serif" font-size="13" font-weight="bold" lengthAdjust="spacing" textLength="101.8672" x="102.5" y="593.7139">Profesor solicita</text><text fill="#000000" font-family="sans-serif" font-size="13" lengthAdjust="spacing" textLength="112.728" x="207.979" y="593.7139">realizar una acci&#243;n.</text></g><ellipse cx="205" cy="54.6094" fill="#222222" rx="10" ry="10" style="stroke:#222222;stroke-width:1;"/><!--link *start* to DISPENSAS_ABIERTO_INICIAL--><g class="link" data-entity-1="*start*" data-entity-2="DISPENSAS_ABIERTO_INICIAL" data-source-line="8" data-uid="lnk3" id="link_*start*_DISPENSAS_ABIERTO_INICIAL"><path d="M205,64.6194 C205,78.4994 205,99.5794 205,119.4494" fill="none" id="*start*-to-DISPENSAS_ABIERTO_INICIAL" style="stroke:#008000;stroke-width:1;"/><polygon fill="#008000" points="205,125.4494,209,116.4494,205,120.4494,201,116.4494,205,125.4494" style="stroke:#008000;stroke-width:1;"/></g><!--link DISPENSAS_ABIERTO_INICIAL to SOLICITUD_DISPENSA_ABIERTA_COMP--><g class="link" data-entity-1="DISPENSAS_ABIERTO_INICIAL" data-entity-2="SOLICITUD_DISPENSA_ABIERTA_COMP" data-source-line="10" data-uid="lnk4" id="link_DISPENSAS_ABIERTO_INICIAL_SOLICITUD_DISPENSA_ABIERTA_COMP"><path d="M205,175.8694 C205,210.1494 205,269.6194 205,332.5194" fill="none" id="DISPENSAS_ABIERTO_INICIAL-to-SOLICITUD_DISPENSA_ABIERTA_COMP" style="stroke:#008000;stroke-width:1;"/><polygon fill="#008000" points="205,338.5194,209,329.5194,205,333.5194,201,329.5194,205,338.5194" style="stroke:#008000;stroke-width:1;"/><text fill="#000000" font-family="sans-serif" font-size="13" lengthAdjust="spacing" textLength="164.7407" x="301.4421" y="220.1045">consultarSolicitudDispensa()</text><path d="M210,228.9609 L210,303.9609 L557,303.9609 L557,238.9609 L547,228.9609 L210,228.9609" fill="#FEFFDD" style="stroke:#181818;stroke-width:0.5;"/><path d="M547,228.9609 L547,238.9609 L557,238.9609 L547,228.9609" fill="#FEFFDD" style="stroke:#181818;stroke-width:0.5;"/><text fill="#000000" font-family="sans-serif" font-size="13" font-weight="bold" lengthAdjust="spacing" textLength="53.46" x="216" y="247.4561">Profesor</text><text fill="#000000" font-family="sans-serif" font-size="13" lengthAdjust="spacing" textLength="235.5552" x="273.0718" y="247.4561">se encuentra en DISPENSAS_ABIERTO</text><text fill="#000000" font-family="sans-serif" font-size="13" lengthAdjust="spacing" textLength="6.5" x="216" y="263.8076">y</text><text fill="#000000" font-family="sans-serif" font-size="13" font-weight="bold" lengthAdjust="spacing" textLength="44.7954" x="226.1118" y="263.8076">solicita</text><text fill="#000000" font-family="sans-serif" font-size="13" lengthAdjust="spacing" textLength="268.106" x="274.519" y="263.8076">consultar el detalle de una solicitud espec&#237;fica.</text><text fill="#000000" font-family="sans-serif" font-size="13" lengthAdjust="spacing" textLength="3.6118" x="216" y="280.1592">&#160;</text><text fill="#000000" font-family="sans-serif" font-size="13" font-weight="bold" lengthAdjust="spacing" textLength="104.0508" x="216" y="296.5107">Sistema muestra</text><text fill="#000000" font-family="sans-serif" font-size="13" lengthAdjust="spacing" textLength="208.7808" x="323.6626" y="296.5107">SOLICITUD_DISPENSA_ABIERTA.</text></g><!--link SOLICITUD_DISPENSA_ABIERTA_COMP to DISPENSAS_ABIERTO_FINAL--><g class="link" data-entity-1="SOLICITUD_DISPENSA_ABIERTA_COMP" data-entity-2="DISPENSAS_ABIERTO_FINAL" data-source-line="35" data-uid="lnk9" id="link_SOLICITUD_DISPENSA_ABIERTA_COMP_DISPENSAS_ABIERTO_FINAL"><path d="M205,657.0094 C205,701.5394 205,738.8194 205,764.5894" fill="none" id="SOLICITUD_DISPENSA_ABIERTA_COMP-to-DISPENSAS_ABIERTO_FINAL" style="stroke:#FF0000;stroke-width:1;"/><polygon fill="#FF0000" points="205,770.5894,209,761.5894,205,765.5894,201,761.5894,205,770.5894" style="stroke:#FF0000;stroke-width:1;"/><text fill="#000000" font-family="sans-serif" font-size="13" lengthAdjust="spacing" textLength="91.7427" x="373.6975" y="701.1045">cerrarSolicitud()</text><path d="M210,709.9609 L210,735.9609 L629,735.9609 L629,719.9609 L619,709.9609 L210,709.9609" fill="#FEFFDD" style="stroke:#181818;stroke-width:0.5;"/><path d="M619,709.9609 L619,719.9609 L629,719.9609 L619,709.9609" fill="#FEFFDD" style="stroke:#181818;stroke-width:0.5;"/><text fill="#000000" font-family="sans-serif" font-size="13" font-weight="bold" lengthAdjust="spacing" textLength="104.0508" x="216" y="728.4561">Sistema muestra</text><text fill="#000000" font-family="sans-serif" font-size="13" lengthAdjust="spacing" textLength="290.4751" x="323.6626" y="728.4561">nuevamente el listado en DISPENSAS_ABIERTO.</text></g><!--SRC=[hLDDQXin5Dxh50zdqnRYx4CmJ3qE32IswQJTX61Uf9UYH2CP_GJS4EXPkk-gHyXDUf9AcenZDpEaYnfiHjRx-Vx6Iwy8faQxe3nQg8sINFeWe9HkJTeXStTIhz5Y0qfgyfirmTgeJJemvZnwWhAgbxDvNTIhucCr-tInM5NpQbeLPz1-qC7eLSreiFcqclzRQxquYsikFfUhhkIvebXD5-VBt3nSCsBiyiCL75uUVBL4-kfmCao4iM6EkmFUGdGClDDwAtMdzBltJ9l8okYaz1qxkPuihRaXP-p9qVK4705f7aXxY_7fDLYsWTZZshcOUxRRW1G8ygYYtO8WQ0ItzPeY0FxqyqPo7BEqjvREKuFG179nMnurJ6tCI0j8sDd_CGOU64lcjyE-I1TGoM_8fT5bow6z_zk-tifKkATh-kE5O-Rsp1Ey4SQ1Yb-1FlqIg1sXZdFlx-y_e52XqQQxGHt7R-3SU7bljZMp25yOGEuZg7XT6XwQw5v4z_HB0uhR40-v_4M_TEgZiSSpyXwarKK6zd9WAG-qsNZa6S5uV_KZOs_P5Z5O4lqlIllIndoJjJlXxWbrNxXqe7jCub0AgfAjT7qXtmdR7m00]--></g></svg>