<svg xmlns="http://www.w3.org/2000/svg" xmlns:xlink="http://www.w3.org/1999/xlink" contentStyleType="text/css" data-diagram-type="STATE" height="843px" preserveAspectRatio="none" style="width:623px;height:843px;background:#FFFFFF;" version="1.1" viewBox="0 0 623 843" width="623px" zoomAndPan="magnify"><title>Consultar Detalle Alumno</title><defs/><g><text fill="#000000" font-family="sans-serif" font-size="14" font-weight="bold" lengthAdjust="spacing" textLength="171.1309" x="219.1846" y="24.5332">Consultar Detalle Alumno</text><g id="ALUMNOS_ABIERTO_INICIAL"><rect fill="#F1F1F1" height="50" rx="12.5" ry="12.5" style="stroke:#181818;stroke-width:0.5;" width="158.4756" x="123.5" y="125.6094"/><line style="stroke:#181818;stroke-width:0.5;" x1="123.5" x2="281.9756" y1="153.2188" y2="153.2188"/><text fill="#000000" font-family="sans-serif" font-size="14" lengthAdjust="spacing" textLength="138.4756" x="133.5" y="145.1426">ALUMNOS_ABIERTO</text></g><g id="ALUMNOS_ABIERTO_FINAL"><rect fill="#F1F1F1" height="50" rx="12.5" ry="12.5" style="stroke:#181818;stroke-width:0.5;" width="158.4756" x="123.5" y="787.6094"/><line style="stroke:#181818;stroke-width:0.5;" x1="123.5" x2="281.9756" y1="815.2188" y2="815.2188"/><text fill="#000000" font-family="sans-serif" font-size="14" lengthAdjust="spacing" textLength="138.4756" x="133.5" y="807.1426">ALUMNOS_ABIERTO</text></g><path d="M19.5,355.6094 L385.5,355.6094 A12.5,12.5 0 0 1 398,368.1094 L398,383.2188 L7,383.2188 L7,368.1094 A12.5,12.5 0 0 1 19.5,355.6094" fill="#F1F1F1" style="stroke:#F1F1F1;stroke-width:1;"/><rect fill="none" height="317.6094" rx="12.5" ry="12.5" style="stroke:#181818;stroke-width:0.5;" width="391" x="7" y="355.6094"/><line style="stroke:#181818;stroke-width:0.5;" x1="7" x2="398" y1="383.2188" y2="383.2188"/><text fill="#000000" font-family="sans-serif" font-size="14" lengthAdjust="spacing" textLength="129.1377" x="137.9312" y="375.1426">ALUMNO_ABIERTO</text><g id="ALUMNO_ABIERTO_COMP.VisualizacionFicha"><rect fill="#F1F1F1" height="50" rx="12.5" ry="12.5" style="stroke:#181818;stroke-width:0.5;" width="135.9443" x="19" y="519.2188"/><line style="stroke:#181818;stroke-width:0.5;" x1="19" x2="154.9443" y1="546.8281" y2="546.8281"/><text fill="#000000" font-family="sans-serif" font-size="14" lengthAdjust="spacing" textLength="115.9443" x="29" y="538.752">VisualizacionFicha</text></g><ellipse cx="87" cy="404.2188" fill="#222222" rx="10" ry="10" style="stroke:#222222;stroke-width:1;"/><ellipse cx="87" cy="652.2188" fill="none" rx="11" ry="11" style="stroke:#222222;stroke-width:1;"/><ellipse cx="87" cy="652.2188" fill="#222222" rx="6" ry="6" style="stroke:#222222;stroke-width:1;"/><!--link *start*ALUMNO_ABIERTO_COMP to VisualizacionFicha--><g class="link" data-entity-1="*start*ALUMNO_ABIERTO_COMP" data-entity-2="VisualizacionFicha" data-source-line="23" data-uid="lnk6" id="link_*start*ALUMNO_ABIERTO_COMP_VisualizacionFicha"><path d="M87,414.2688 C87,435.2587 87,481.8088 87,512.9688" fill="none" id="*start*ALUMNO_ABIERTO_COMP-to-VisualizacionFicha" style="stroke:#008000;stroke-width:1;"/><polygon fill="#008000" points="87,518.9688,91,509.9688,87,513.9688,83,509.9688,87,518.9688" style="stroke:#008000;stroke-width:1;"/><path d="M92,437.2188 L92,496.2188 L389,496.2188 L389,447.2188 L379,437.2188 L92,437.2188" fill="#FEFFDD" style="stroke:#181818;stroke-width:0.5;"/><path d="M379,437.2188 L379,447.2188 L389,447.2188 L379,437.2188" fill="#FEFFDD" style="stroke:#181818;stroke-width:0.5;"/><text fill="#000000" font-family="sans-serif" font-size="13" font-weight="bold" lengthAdjust="spacing" textLength="104.0508" x="98" y="455.7139">Sistema muestra</text><text fill="#000000" font-family="sans-serif" font-size="13" lengthAdjust="spacing" textLength="168.3716" x="205.6626" y="455.7139">la ficha completa del alumno:</text><text fill="#000000" font-family="sans-serif" font-size="13" lengthAdjust="spacing" textLength="149.7983" x="98" y="472.0654">&#8226; Datos personales y Foto</text><text fill="#000000" font-family="sans-serif" font-size="13" lengthAdjust="spacing" textLength="195.3174" x="98" y="488.417">&#8226; Resumen de asistencias y faltas</text></g><!--link VisualizacionFicha to *end*ALUMNO_ABIERTO_COMP--><g class="link" data-entity-1="VisualizacionFicha" data-entity-2="*end*ALUMNO_ABIERTO_COMP" data-source-line="30" data-uid="lnk8" id="link_VisualizacionFicha_*end*ALUMNO_ABIERTO_COMP"><path d="M87,569.2688 C87,591.8688 87,618.5988 87,635.0188" fill="none" id="VisualizacionFicha-to-*end*ALUMNO_ABIERTO_COMP" style="stroke:#008000;stroke-width:1;"/><polygon fill="#008000" points="87,641.0188,91,632.0188,87,636.0188,83,632.0188,87,641.0188" style="stroke:#008000;stroke-width:1;"/><path d="M92,592.2188 L92,618.2188 L331,618.2188 L331,602.2188 L321,592.2188 L92,592.2188" fill="#FEFFDD" style="stroke:#181818;stroke-width:0.5;"/><path d="M321,592.2188 L321,602.2188 L331,602.2188 L321,592.2188" fill="#FEFFDD" style="stroke:#181818;stroke-width:0.5;"/><text fill="#000000" font-family="sans-serif" font-size="13" font-weight="bold" lengthAdjust="spacing" textLength="101.8672" x="98" y="610.7139">Profesor solicita</text><text fill="#000000" font-family="sans-serif" font-size="13" lengthAdjust="spacing" textLength="112.728" x="203.479" y="610.7139">realizar una acci&#243;n.</text></g><ellipse cx="202.5" cy="54.6094" fill="#222222" rx="10" ry="10" style="stroke:#222222;stroke-width:1;"/><!--link *start* to ALUMNOS_ABIERTO_INICIAL--><g class="link" data-entity-1="*start*" data-entity-2="ALUMNOS_ABIERTO_INICIAL" data-source-line="8" data-uid="lnk3" id="link_*start*_ALUMNOS_ABIERTO_INICIAL"><path d="M202.5,64.6194 C202.5,78.4994 202.5,99.5794 202.5,119.4494" fill="none" id="*start*-to-ALUMNOS_ABIERTO_INICIAL" style="stroke:#008000;stroke-width:1;"/><polygon fill="#008000" points="202.5,125.4494,206.5,116.4494,202.5,120.4494,198.5,116.4494,202.5,125.4494" style="stroke:#008000;stroke-width:1;"/></g><!--link ALUMNOS_ABIERTO_INICIAL to ALUMNO_ABIERTO_COMP--><g class="link" data-entity-1="ALUMNOS_ABIERTO_INICIAL" data-entity-2="ALUMNO_ABIERTO_COMP" data-source-line="10" data-uid="lnk4" id="link_ALUMNOS_ABIERTO_INICIAL_ALUMNO_ABIERTO_COMP"><path d="M202.5,175.6394 C202.5,212.5894 202.5,280.3594 202.5,349.5794" fill="none" id="ALUMNOS_ABIERTO_INICIAL-to-ALUMNO_ABIERTO_COMP" style="stroke:#008000;stroke-width:1;"/><polygon fill="#008000" points="202.5,355.5794,206.5,346.5794,202.5,350.5794,198.5,346.5794,202.5,355.5794" style="stroke:#008000;stroke-width:1;"/><text fill="#000000" font-family="sans-serif" font-size="13" lengthAdjust="spacing" textLength="145.9517" x="302.5571" y="220.1045">consultarDetalleAlumno()</text><path d="M207.5,228.9609 L207.5,319.9609 L543.5,319.9609 L543.5,238.9609 L533.5,228.9609 L207.5,228.9609" fill="#FEFFDD" style="stroke:#181818;stroke-width:0.5;"/><path d="M533.5,228.9609 L533.5,238.9609 L543.5,238.9609 L533.5,228.9609" fill="#FEFFDD" style="stroke:#181818;stroke-width:0.5;"/><text fill="#000000" font-family="sans-serif" font-size="13" font-weight="bold" lengthAdjust="spacing" textLength="53.46" x="213.5" y="247.4561">Profesor</text><text fill="#000000" font-family="sans-serif" font-size="13" lengthAdjust="spacing" textLength="225.4307" x="270.5718" y="247.4561">se encuentra en ALUMNOS_ABIERTO</text><text fill="#000000" font-family="sans-serif" font-size="13" lengthAdjust="spacing" textLength="6.5" x="213.5" y="263.8076">y</text><text fill="#000000" font-family="sans-serif" font-size="13" font-weight="bold" lengthAdjust="spacing" textLength="44.7954" x="223.6118" y="263.8076">solicita</text><text fill="#000000" font-family="sans-serif" font-size="13" lengthAdjust="spacing" textLength="256.5469" x="272.019" y="263.8076">consultar el detalle de un alumno espec&#237;fico.</text><text fill="#000000" font-family="sans-serif" font-size="13" lengthAdjust="spacing" textLength="3.6118" x="213.5" y="280.1592">&#160;</text><text fill="#000000" font-family="sans-serif" font-size="13" font-weight="bold" lengthAdjust="spacing" textLength="104.0508" x="213.5" y="296.5107">Sistema muestra</text><text fill="#000000" font-family="sans-serif" font-size="13" lengthAdjust="spacing" textLength="151.0171" x="321.1626" y="296.5107">la informaci&#243;n acad&#233;mica,</text><text fill="#000000" font-family="sans-serif" font-size="13" font-weight="bold" lengthAdjust="spacing" textLength="78.0127" x="213.5" y="312.8623">presentando</text><text fill="#000000" font-family="sans-serif" font-size="13" lengthAdjust="spacing" textLength="123.5254" x="295.1245" y="312.8623">ALUMNO_ABIERTO.</text></g><!--link ALUMNO_ABIERTO_COMP to ALUMNOS_ABIERTO_FINAL--><g class="link" data-entity-1="ALUMNO_ABIERTO_COMP" data-entity-2="ALUMNOS_ABIERTO_FINAL" data-source-line="37" data-uid="lnk9" id="link_ALUMNO_ABIERTO_COMP_ALUMNOS_ABIERTO_FINAL"><path d="M202.5,674.0094 C202.5,718.5394 202.5,755.8194 202.5,781.5894" fill="none" id="ALUMNO_ABIERTO_COMP-to-ALUMNOS_ABIERTO_FINAL" style="stroke:#FF0000;stroke-width:1;"/><polygon fill="#FF0000" points="202.5,787.5894,206.5,778.5894,202.5,782.5894,198.5,778.5894,202.5,787.5894" style="stroke:#FF0000;stroke-width:1;"/><text fill="#000000" font-family="sans-serif" font-size="13" lengthAdjust="spacing" textLength="127.1499" x="348.4316" y="718.1045">cerrarDetalleAlumno()</text><path d="M207.5,726.9609 L207.5,752.9609 L616.5,752.9609 L616.5,736.9609 L606.5,726.9609 L207.5,726.9609" fill="#FEFFDD" style="stroke:#181818;stroke-width:0.5;"/><path d="M606.5,726.9609 L606.5,736.9609 L616.5,736.9609 L606.5,726.9609" fill="#FEFFDD" style="stroke:#181818;stroke-width:0.5;"/><text fill="#000000" font-family="sans-serif" font-size="13" font-weight="bold" lengthAdjust="spacing" textLength="104.0508" x="213.5" y="745.4561">Sistema muestra</text><text fill="#000000" font-family="sans-serif" font-size="13" lengthAdjust="spacing" textLength="280.3506" x="321.1626" y="745.4561">nuevamente el listado en ALUMNOS_ABIERTO.</text></g><!--SRC=[ZLFBRjim4BppAnRffIqQznu41bod1WGaTf17Bq4GRAXLIuGY1IvLm0q2v5jooo6dVeB_f5_IfVog7AcjJdpCS7PdLj54Ip3sZciRCS0HHRHoCh9rwRpYE-Cg35Y2DOxYl2Ael9sdZL8SCGho-F9aEZk_6NtAFfzTp6woQJREHiU037ixTtizb4as_H_21Z-UdPn2-hQKBKDTlR-6_QitNmEHkzuVzXMeL5_bhybjvGFGQxzMTYtTUljEEI_LUfVSkbE7jyFJu0jY7mu_tWw12SZfcbmCAAlTmjGSXC7U6cqYDeoD3f25V1LDJb0xm4OIY2lIYvV2Q3zGIV7SSAGIeQo9HQTvnY8OL_XGeZQBdyBLc2-UIwFnGw9KWLYAGfVx1jxkUQ38vP0QKtz9eoC9k5SgXRGaVJ5SepK_f0Jl9aP_m-NjRbeTk0Hh6PiE-bij4aciAoihZebTTcNMGKFyzVW4HnWzGqM1lKDB37EO-EWtzsV4TIa9YTN8ISLfWmbLeAJ13MxhIjgzBhlLbNJPsyPwHg0LVQ3ckI1PemJM13VO4NvOpt0x2n4Eb7UD_l97a_cb4Fuzl5t-kfg-erWZIF7L2W9ptp7CVqpDRm00]--></g></svg>