<svg xmlns="http://www.w3.org/2000/svg" xmlns:xlink="http://www.w3.org/1999/xlink" version="1.1" data-diagram-type="STATE" style="width:485px;height:740px;background:#FFFFFF;" width="485px" height="740px" viewBox="0 0 485 740" zoomAndPan="magnify" preserveAspectRatio="none" contentStyleType="text/css"><?plantuml 1.2026.7beta8?><defs/><g font-family="sans-serif" lengthAdjust="spacing"><g class="entity" data-qualified-name="abrirDispensas" id="ent0001" data-source-line="9"><path d="M19.5,7 L457.5,7 A12.5,12.5 0 0 1 470,19.5 L470,33.297 L7,33.297 L7,19.5 A12.5,12.5 0 0 1 19.5,7" fill="#F5F5F5"/><path d="M7,33.297 L470,33.297 L470,444.797 A12.5,12.5 0 0 1 457.5,457.297 L19.5,457.297 A12.5,12.5 0 0 1 7,444.797 L7,33.297" fill="#F5F5F5"/><rect x="7" y="7" width="463" height="450.297" fill="none" style="stroke:#808080;stroke-width:0.5;" rx="12.5" ry="12.5"/><line x1="7" y1="33.297" x2="470" y2="33.297" style="stroke:#808080;stroke-width:0.5;"/><text x="180.853" y="24.995" fill="#000" font-size="14" textLength="115.295">abrirDispensas()</text><g class="entity" data-qualified-name="abrirDispensas.Paso1" id="ent0002" data-source-line="11"><rect x="19" y="135.297" width="50" height="50" fill="#F5F5F5" style="stroke:#808080;stroke-width:0.5;" rx="12.5" ry="12.5"/><line x1="19" y1="161.594" x2="69" y2="161.594" style="stroke:#808080;stroke-width:0.5;"/><text x="41.775" y="153.292" fill="#000" font-size="14"> </text></g><g class="entity" data-qualified-name="abrirDispensas.Paso2" id="ent0003" data-source-line="12"><rect x="19" y="271.297" width="50" height="50" fill="#F5F5F5" style="stroke:#808080;stroke-width:0.5;" rx="12.5" ry="12.5"/><line x1="19" y1="297.594" x2="69" y2="297.594" style="stroke:#808080;stroke-width:0.5;"/><text x="41.775" y="289.292" fill="#000" font-size="14"> </text></g><g class="start_entity" data-qualified-name="abrirDispensas..start.abrirDispensas" id="ent0005" data-source-line="14"><ellipse cx="44" cy="54.297" rx="10" ry="10" fill="#222" style="stroke:#222;stroke-width:1;"/></g><g class="end_entity" data-qualified-name="abrirDispensas..end.abrirDispensas" id="ent0009" data-source-line="31"><ellipse cx="44" cy="433.297" rx="11" ry="11" fill="none" style="stroke:#222;stroke-width:1;"/><ellipse cx="44" cy="433.297" rx="6" ry="6" fill="#222" style="stroke:#222;stroke-width:1;"/></g><!--link *start*abrirDispensas to Paso1--><g class="link" data-entity-1="ent0005" data-entity-2="ent0002" id="lnk6" data-source-line="14" data-link-type="dependency"><path d="M44,64.527 C44,80.237 44,107.657 44,130.167" style="stroke:#008000;stroke-width:1;" fill="none" id="*start*abrirDispensas-to-Paso1"/><polygon points="44,135.167,48,126.167,44,130.167,40,126.167,44,135.167" fill="#008000" style="stroke:#008000;stroke-width:1;stroke-linejoin:miter;stroke-miterlimit:10;"/><path d="M49,87.297 L49,112.297 L285,112.297 L285,97.297 L275,87.297 L49,87.297" style="stroke:#808080;stroke-width:0.5;" fill="#FFFFE0"/><path d="M275,87.297 L275,97.297 L285,97.297 L275,87.297" style="stroke:#808080;stroke-width:0.5;" fill="#FFFFE0"/><text x="55" y="104.364" fill="#000" font-size="13" textLength="62.423" font-weight="700">Profesor</text><text x="121.555" y="104.364" fill="#000" font-size="13" textLength="149.195">solicita abrir dispensas</text></g><!--link Paso1 to Paso2--><g class="link" data-entity-1="ent0002" data-entity-2="ent0003" id="lnk7" data-source-line="19" data-link-type="dependency"><path d="M44,185.567 C44,209.847 44,241.987 44,266.207" style="stroke:#008000;stroke-width:1;" fill="none" id="Paso1-to-Paso2"/><polygon points="44,271.207,48,262.207,44,266.207,40,262.207,44,271.207" fill="#008000" style="stroke:#008000;stroke-width:1;stroke-linejoin:miter;stroke-miterlimit:10;"/><path d="M49,208.297 L49,248.297 L446,248.297 L446,218.297 L436,208.297 L49,208.297" style="stroke:#808080;stroke-width:0.5;" fill="#FFFFE0"/><path d="M436,208.297 L436,218.297 L446,218.297 L436,208.297" style="stroke:#808080;stroke-width:0.5;" fill="#FFFFE0"/><text x="55" y="225.364" fill="#000" font-size="13" textLength="58.906" font-weight="700">Sistema</text><text x="118.039" y="225.364" fill="#000" font-size="13" textLength="313.396">permite mostrar lista de solicitudes de dispensa</text><text x="55" y="240.497" fill="#000" font-size="13" textLength="368.767">• Asignatura, periodo, horario y estado de cada solicitud</text></g><!--link Paso2 to Paso2--><g class="link" data-entity-1="ent0003" data-entity-2="ent0003" id="lnk8" data-source-line="25" data-link-type="dependency"><path d="M69.18,283.597 C78.91,283.037 87,287.267 87,296.297 C87,305.327 83.902,309.844 74.172,309.284" style="stroke:#008000;stroke-width:1;" fill="none" id="Paso2-to-Paso2"/><polygon points="69.18,308.997,77.935,313.507,74.172,309.284,78.395,305.521,69.18,308.997" fill="#008000" style="stroke:#008000;stroke-width:1;stroke-linejoin:miter;stroke-miterlimit:10;"/><path d="M92,276.297 L92,316.297 L364,316.297 L364,286.297 L354,276.297 L92,276.297" style="stroke:#808080;stroke-width:0.5;" fill="#FFFFE0"/><path d="M354,276.297 L354,286.297 L364,286.297 L354,276.297" style="stroke:#808080;stroke-width:0.5;" fill="#FFFFE0"/><text x="98" y="293.364" fill="#000" font-size="13" textLength="62.423" font-weight="700">Profesor</text><text x="164.555" y="293.364" fill="#000" font-size="13" textLength="116.651">solicita filtrar lista</text><text x="98" y="308.497" fill="#000" font-size="13" textLength="58.906" font-weight="700">Sistema</text><text x="161.039" y="308.497" fill="#000" font-size="13" textLength="187.992">permite mostrar lista filtrada</text></g><!--link Paso2 to *end*abrirDispensas--><g class="link" data-entity-1="ent0003" data-entity-2="ent0009" id="lnk10" data-source-line="31" data-link-type="dependency"><path d="M44,321.747 C44,351.527 44,395.507 44,416.837" style="stroke:#008000;stroke-width:1;" fill="none" id="Paso2-to-*end*abrirDispensas"/><polygon points="44,421.837,48,412.837,44,416.837,40,412.837,44,421.837" fill="#008000" style="stroke:#008000;stroke-width:1;stroke-linejoin:miter;stroke-miterlimit:10;"/><path d="M49,344.297 L49,399.297 L375,399.297 L375,354.297 L365,344.297 L49,344.297" style="stroke:#808080;stroke-width:0.5;" fill="#FFFFE0"/><path d="M365,344.297 L365,354.297 L375,354.297 L365,344.297" style="stroke:#808080;stroke-width:0.5;" fill="#FFFFE0"/><text x="55" y="361.364" fill="#000" font-size="13" textLength="62.423" font-weight="700">Profesor</text><text x="121.555" y="361.364" fill="#000" font-size="13" textLength="179.874">revisa la lista de solicitudes</text><text x="55" y="376.497" fill="#000" font-size="13" textLength="58.906" font-weight="700">Sistema</text><text x="118.039" y="376.497" fill="#000" font-size="13" textLength="242.76">permite mantener la lista en pantalla</text><text x="55" y="391.629" fill="#000" font-size="13" textLength="240.538">• Permite solicitar consultar solicitud</text></g></g><g class="entity" data-qualified-name="SOLICITUD_DISPENSA_ABIERTA" id="ent0004" data-source-line="39"><rect x="118.82" y="676.3" width="239.352" height="50" fill="#F5F5F5" style="stroke:#808080;stroke-width:0.5;" rx="12.5" ry="12.5"/><line x1="118.82" y1="702.597" x2="358.172" y2="702.597" style="stroke:#808080;stroke-width:0.5;"/><text x="128.82" y="694.295" fill="#000" font-size="14" textLength="219.352">SOLICITUD_DISPENSA_ABIERTA</text></g><!--link abrirDispensas to SOLICITUD_DISPENSA_ABIERTA--><g class="link" data-entity-1="ent0001" data-entity-2="ent0004" id="lnk11" data-source-line="41" data-link-type="dependency"><path d="M238.5,457.49 C238.5,544.99 238.5,629.22 238.5,670.96" style="stroke:#008000;stroke-width:1;" fill="none" id="abrirDispensas-to-SOLICITUD_DISPENSA_ABIERTA"/><polygon points="238.5,675.96,242.5,666.96,238.5,670.96,234.5,666.96,238.5,675.96" fill="#008000" style="stroke:#008000;stroke-width:1;stroke-linejoin:miter;stroke-miterlimit:10;"/><path d="M243.5,554.3 L243.5,579.3 L449.5,579.3 L449.5,564.3 L439.5,554.3 L243.5,554.3" style="stroke:#808080;stroke-width:0.5;" fill="#FFFFE0"/><path d="M439.5,554.3 L439.5,564.3 L449.5,564.3 L439.5,554.3" style="stroke:#808080;stroke-width:0.5;" fill="#FFFFE0"/><text x="249.5" y="571.367" fill="#000" font-size="13" textLength="185.917">consultarSolicitudDispensa()</text></g><?plantuml-src bLJRIiD047tFLmpwec9H2_eaXMeL2gB5w9E8JBjZNBhT2RDR9OZWj_XfVecxITExjmH2TlRCcJDdid53RNCK785bHOvoEDfFt3GeQ8ShGQCj-I8doDaKSJ6tTycUJd0mp8J7LfsoOGduxCaNP0o_B2DP54c5oWIBkUtKuohJvlbXl5TWopI9Ys7OmBvewMYNatNejhOt01qi1k4rII1Samme8JrqVB0-tApWTpltqBZRp8J8tZTQLGQKMpOq1coZJSCo073SR_M47ycn7E_rM-3Ow87sM6a1LOifuMHLnH6kPFge2YoNRFvGCTNEqmZBWZd9I0VGY9qNZ2C9ZO6YMiaup3ukQoKJbi_t3sWxdLdqOy7TIADPyIuySM3H30LG858SSmUeSCQtqCfY6yr_jR7Uk4TjPetyf-SgKU6VzOL9_rMTqBDs20RN-lkBIhIUBCaicopa8OZ6p8-ZDy7NJWWCsBgnYM_VcFysFG_frKNtj7jpstdeTDFUsMNQVcYVTC-kRzhbz_tzTf8idPgPGutWqG-9fMqI_m1pvaqbfxNYcdbhEwbrVm40?></g></svg>