<svg xmlns="http://www.w3.org/2000/svg" xmlns:xlink="http://www.w3.org/1999/xlink" version="1.1" data-diagram-type="STATE" style="width:414px;height:740px;background:#FFFFFF;" width="414px" height="740px" viewBox="0 0 414 740" zoomAndPan="magnify" preserveAspectRatio="none" contentStyleType="text/css"><?plantuml 1.2026.7beta8?><defs/><g font-family="sans-serif" lengthAdjust="spacing"><g class="entity" data-qualified-name="abrirAlumnos" id="ent0001" data-source-line="9"><path d="M19.5,7 L386.5,7 A12.5,12.5 0 0 1 399,19.5 L399,33.297 L7,33.297 L7,19.5 A12.5,12.5 0 0 1 19.5,7" fill="#F5F5F5"/><path d="M7,33.297 L399,33.297 L399,444.797 A12.5,12.5 0 0 1 386.5,457.297 L19.5,457.297 A12.5,12.5 0 0 1 7,444.797 L7,33.297" fill="#F5F5F5"/><rect x="7" y="7" width="392" height="450.297" fill="none" style="stroke:#808080;stroke-width:0.5;" rx="12.5" ry="12.5"/><line x1="7" y1="33.297" x2="399" y2="33.297" style="stroke:#808080;stroke-width:0.5;"/><text x="150.75" y="24.995" fill="#000" font-size="14" textLength="104.501">abrirAlumnos()</text><g class="entity" data-qualified-name="abrirAlumnos.Paso1" id="ent0002" data-source-line="11"><rect x="19" y="135.297" width="50" height="50" fill="#F5F5F5" style="stroke:#808080;stroke-width:0.5;" rx="12.5" ry="12.5"/><line x1="19" y1="161.594" x2="69" y2="161.594" style="stroke:#808080;stroke-width:0.5;"/><text x="41.775" y="153.292" fill="#000" font-size="14"> </text></g><g class="entity" data-qualified-name="abrirAlumnos.Paso2" id="ent0003" data-source-line="12"><rect x="19" y="271.297" width="50" height="50" fill="#F5F5F5" style="stroke:#808080;stroke-width:0.5;" rx="12.5" ry="12.5"/><line x1="19" y1="297.594" x2="69" y2="297.594" style="stroke:#808080;stroke-width:0.5;"/><text x="41.775" y="289.292" fill="#000" font-size="14"> </text></g><g class="start_entity" data-qualified-name="abrirAlumnos..start.abrirAlumnos" id="ent0005" data-source-line="14"><ellipse cx="44" cy="54.297" rx="10" ry="10" fill="#222" style="stroke:#222;stroke-width:1;"/></g><g class="end_entity" data-qualified-name="abrirAlumnos..end.abrirAlumnos" id="ent0009" data-source-line="31"><ellipse cx="44" cy="433.297" rx="11" ry="11" fill="none" style="stroke:#222;stroke-width:1;"/><ellipse cx="44" cy="433.297" rx="6" ry="6" fill="#222" style="stroke:#222;stroke-width:1;"/></g><!--link *start*abrirAlumnos to Paso1--><g class="link" data-entity-1="ent0005" data-entity-2="ent0002" id="lnk6" data-source-line="14" data-link-type="dependency"><path d="M44,64.527 C44,80.237 44,107.657 44,130.167" style="stroke:#008000;stroke-width:1;" fill="none" id="*start*abrirAlumnos-to-Paso1"/><polygon points="44,135.167,48,126.167,44,130.167,40,126.167,44,135.167" fill="#008000" style="stroke:#008000;stroke-width:1;stroke-linejoin:miter;stroke-miterlimit:10;"/><path d="M49,87.297 L49,112.297 L276,112.297 L276,97.297 L266,87.297 L49,87.297" style="stroke:#808080;stroke-width:0.5;" fill="#FFFFE0"/><path d="M266,87.297 L266,97.297 L276,97.297 L266,87.297" style="stroke:#808080;stroke-width:0.5;" fill="#FFFFE0"/><text x="55" y="104.364" fill="#000" font-size="13" textLength="62.423" font-weight="700">Profesor</text><text x="121.555" y="104.364" fill="#000" font-size="13" textLength="140.004">solicita abrir alumnos</text></g><!--link Paso1 to Paso2--><g class="link" data-entity-1="ent0002" data-entity-2="ent0003" id="lnk7" data-source-line="19" data-link-type="dependency"><path d="M44,185.567 C44,209.847 44,241.987 44,266.207" style="stroke:#008000;stroke-width:1;" fill="none" id="Paso1-to-Paso2"/><polygon points="44,271.207,48,262.207,44,266.207,40,262.207,44,271.207" fill="#008000" style="stroke:#008000;stroke-width:1;stroke-linejoin:miter;stroke-miterlimit:10;"/><path d="M49,208.297 L49,248.297 L350,248.297 L350,218.297 L340,208.297 L49,208.297" style="stroke:#808080;stroke-width:0.5;" fill="#FFFFE0"/><path d="M340,208.297 L340,218.297 L350,218.297 L340,208.297" style="stroke:#808080;stroke-width:0.5;" fill="#FFFFE0"/><text x="55" y="225.364" fill="#000" font-size="13" textLength="58.906" font-weight="700">Sistema</text><text x="118.039" y="225.364" fill="#000" font-size="13" textLength="217.395">permite mostrar lista de alumnos</text><text x="55" y="240.497" fill="#000" font-size="13" textLength="247.857">• Nombre, documento, correo, estado</text></g><!--link Paso2 to Paso2--><g class="link" data-entity-1="ent0003" data-entity-2="ent0003" id="lnk8" data-source-line="25" data-link-type="dependency"><path d="M69.18,283.597 C78.91,283.037 87,287.267 87,296.297 C87,305.327 83.902,309.844 74.172,309.284" style="stroke:#008000;stroke-width:1;" fill="none" id="Paso2-to-Paso2"/><polygon points="69.18,308.997,77.935,313.507,74.172,309.284,78.395,305.521,69.18,308.997" fill="#008000" style="stroke:#008000;stroke-width:1;stroke-linejoin:miter;stroke-miterlimit:10;"/><path d="M92,276.297 L92,316.297 L364,316.297 L364,286.297 L354,276.297 L92,276.297" style="stroke:#808080;stroke-width:0.5;" fill="#FFFFE0"/><path d="M354,276.297 L354,286.297 L364,286.297 L354,276.297" style="stroke:#808080;stroke-width:0.5;" fill="#FFFFE0"/><text x="98" y="293.364" fill="#000" font-size="13" textLength="62.423" font-weight="700">Profesor</text><text x="164.555" y="293.364" fill="#000" font-size="13" textLength="116.651">solicita filtrar lista</text><text x="98" y="308.497" fill="#000" font-size="13" textLength="58.906" font-weight="700">Sistema</text><text x="161.039" y="308.497" fill="#000" font-size="13" textLength="187.992">permite mostrar lista filtrada</text></g><!--link Paso2 to *end*abrirAlumnos--><g class="link" data-entity-1="ent0003" data-entity-2="ent0009" id="lnk10" data-source-line="31" data-link-type="dependency"><path d="M44,321.747 C44,351.527 44,395.507 44,416.837" style="stroke:#008000;stroke-width:1;" fill="none" id="Paso2-to-*end*abrirAlumnos"/><polygon points="44,421.837,48,412.837,44,416.837,40,412.837,44,421.837" fill="#008000" style="stroke:#008000;stroke-width:1;stroke-linejoin:miter;stroke-miterlimit:10;"/><path d="M49,344.297 L49,399.297 L375,399.297 L375,354.297 L365,344.297 L49,344.297" style="stroke:#808080;stroke-width:0.5;" fill="#FFFFE0"/><path d="M365,344.297 L365,354.297 L375,354.297 L365,344.297" style="stroke:#808080;stroke-width:0.5;" fill="#FFFFE0"/><text x="55" y="361.364" fill="#000" font-size="13" textLength="62.423" font-weight="700">Profesor</text><text x="121.555" y="361.364" fill="#000" font-size="13" textLength="166.251">revisa la lista de alumnos</text><text x="55" y="376.497" fill="#000" font-size="13" textLength="58.906" font-weight="700">Sistema</text><text x="118.039" y="376.497" fill="#000" font-size="13" textLength="242.76">permite mantener la lista en pantalla</text><text x="55" y="391.629" fill="#000" font-size="13" textLength="234.914">• Permite solicitar consultar alumno</text></g></g><g class="entity" data-qualified-name="ALUMNO_DETALLE_ABIERTO" id="ent0004" data-source-line="39"><rect x="93.57" y="676.3" width="218.851" height="50" fill="#F5F5F5" style="stroke:#808080;stroke-width:0.5;" rx="12.5" ry="12.5"/><line x1="93.57" y1="702.597" x2="312.421" y2="702.597" style="stroke:#808080;stroke-width:0.5;"/><text x="103.57" y="694.295" fill="#000" font-size="14" textLength="198.851">ALUMNO_DETALLE_ABIERTO</text></g><!--link abrirAlumnos to ALUMNO_DETALLE_ABIERTO--><g class="link" data-entity-1="ent0001" data-entity-2="ent0004" id="lnk11" data-source-line="41" data-link-type="dependency"><path d="M203,457.49 C203,544.99 203,629.22 203,670.96" style="stroke:#008000;stroke-width:1;" fill="none" id="abrirAlumnos-to-ALUMNO_DETALLE_ABIERTO"/><polygon points="203,675.96,207,666.96,203,670.96,199,666.96,203,675.96" fill="#008000" style="stroke:#008000;stroke-width:1;stroke-linejoin:miter;stroke-miterlimit:10;"/><path d="M208,554.3 L208,579.3 L349,579.3 L349,564.3 L339,554.3 L208,554.3" style="stroke:#808080;stroke-width:0.5;" fill="#FFFFE0"/><path d="M339,554.3 L339,564.3 L349,564.3 L339,554.3" style="stroke:#808080;stroke-width:0.5;" fill="#FFFFE0"/><text x="214" y="571.367" fill="#000" font-size="13" textLength="120.117">consultarAlumno()</text></g><?plantuml-src bLFRIiD047tFLmprHQL5BUXJAKIj85HRl3o9oBGPwzBDJfZTAaK4lyLFyqlSP6kRz29r0xcSEJDpvkp6ZfN9K305mmbPok3aCB9pKD2CLq2j3BbfHf2ndkOVfTWrEph5uNWaF3796MiMpn-zk2bfpM_BJ9Q49B16WjDI-DRXQgMTY-FyMg4jbubi3aCD1w8arfFKiDtTgm5QA4Fm7aNWrumD1Q6Fbe_Mmyr0VzX_XCR3paY8p6EZ7JAW21a_5B39BHeN041hqEuBFvDbQHqCsc1Pgw5o69G01Ya5cKmIAlWLpM-X_7B3vX_zRfLrb6BHBYD9bIUbR9rWlXb-B4YeqXZW-_FBxqWw4Af3miD9IiPn7OOiGlv9FYdXYiYgmEQ_1Autv5dfXSJ_J1CI4znQdz_1RTK9lIgBe76JSviKed5aI1QPP23p86gD9TFxC_wl2-8zDtQYyxVGg3hLn_nmnztxg-lUqtddBkvsEq_nwMNdvgvN7DRreIYg7Fw58GrloOQKmY79V-2IJtE5eTJkNlGhxmS0?></g></svg>