<svg xmlns="http://www.w3.org/2000/svg" xmlns:xlink="http://www.w3.org/1999/xlink" contentStyleType="text/css" data-diagram-type="STATE" height="636px" preserveAspectRatio="none" style="width:424px;height:636px;background:#FFFFFF;" version="1.1" viewBox="0 0 424 636" width="424px" zoomAndPan="magnify"><title>Cerrar Sesi&#243;n Clase</title><defs/><g><text fill="#000000" font-family="sans-serif" font-size="14" font-weight="bold" lengthAdjust="spacing" textLength="133.0684" x="138.7158" y="24.5332">Cerrar Sesi&#243;n Clase</text><g id="SESION_ACTUAL_INICIAL"><rect fill="#F1F1F1" height="50" rx="12.5" ry="12.5" style="stroke:#181818;stroke-width:0.5;" width="231.6201" x="39.5" y="125.6094"/><line style="stroke:#181818;stroke-width:0.5;" x1="39.5" x2="271.1201" y1="153.2188" y2="153.2188"/><text fill="#000000" font-family="sans-serif" font-size="14" lengthAdjust="spacing" textLength="211.6201" x="49.5" y="145.1426">SESION_ASISTENCIA_ABIERTA</text></g><path d="M19.5,289.6094 L291.5,289.6094 A12.5,12.5 0 0 1 304,302.1094 L304,317.2188 L7,317.2188 L7,302.1094 A12.5,12.5 0 0 1 19.5,289.6094" fill="#F1F1F1" style="stroke:#F1F1F1;stroke-width:1;"/><rect fill="none" height="178.6094" rx="12.5" ry="12.5" style="stroke:#181818;stroke-width:0.5;" width="297" x="7" y="289.6094"/><line style="stroke:#181818;stroke-width:0.5;" x1="7" x2="304" y1="317.2188" y2="317.2188"/><text fill="#000000" font-family="sans-serif" font-size="14" lengthAdjust="spacing" textLength="153.2549" x="78.8726" y="309.1426">FINALIZANDO_SESION</text><ellipse cx="32" cy="338.2188" fill="#222222" rx="10" ry="10" style="stroke:#222222;stroke-width:1;"/><ellipse cx="32" cy="447.2188" fill="none" rx="11" ry="11" style="stroke:#222222;stroke-width:1;"/><ellipse cx="32" cy="447.2188" fill="#222222" rx="6" ry="6" style="stroke:#222222;stroke-width:1;"/><!--link *start*PROCESO_CIERRE_COMP to *end*PROCESO_CIERRE_COMP--><g class="link" data-entity-1="*start*PROCESO_CIERRE_COMP" data-entity-2="*end*PROCESO_CIERRE_COMP" data-source-line="18" data-uid="lnk7" id="link_*start*PROCESO_CIERRE_COMP_*end*PROCESO_CIERRE_COMP"><path d="M32,348.3388 C32,368.2488 32,409.4788 32,430.1888" fill="none" id="*start*PROCESO_CIERRE_COMP-to-*end*PROCESO_CIERRE_COMP" style="stroke:#008000;stroke-width:1;"/><polygon fill="#008000" points="32,436.1888,36,427.1888,32,431.1888,28,427.1888,32,436.1888" style="stroke:#008000;stroke-width:1;"/><path d="M37,371.2188 L37,413.2188 L295,413.2188 L295,381.2188 L285,371.2188 L37,371.2188" fill="#FEFFDD" style="stroke:#181818;stroke-width:0.5;"/><path d="M285,371.2188 L285,381.2188 L295,381.2188 L285,371.2188" fill="#FEFFDD" style="stroke:#181818;stroke-width:0.5;"/><text fill="#000000" font-family="sans-serif" font-size="13" font-weight="bold" lengthAdjust="spacing" textLength="107.6626" x="43" y="389.7139">Sistema presenta</text><text fill="#000000" font-family="sans-serif" font-size="13" lengthAdjust="spacing" textLength="125.7471" x="154.2744" y="389.7139">la hora de finalizaci&#243;n</text><text fill="#000000" font-family="sans-serif" font-size="13" lengthAdjust="spacing" textLength="6.5" x="43" y="406.0654">y</text><text fill="#000000" font-family="sans-serif" font-size="13" font-weight="bold" lengthAdjust="spacing" textLength="54.1963" x="53.1118" y="406.0654">visualiza</text><text fill="#000000" font-family="sans-serif" font-size="13" lengthAdjust="spacing" textLength="148.8589" x="110.9199" y="406.0654">la sesi&#243;n como concluida.</text></g><g id="ASISTENCIAS_FINAL"><rect fill="#F1F1F1" height="50" rx="12.5" ry="12.5" style="stroke:#181818;stroke-width:0.5;" width="181.8203" x="64.5" y="580.6094"/><line style="stroke:#181818;stroke-width:0.5;" x1="64.5" x2="246.3203" y1="608.2188" y2="608.2188"/><text fill="#000000" font-family="sans-serif" font-size="14" lengthAdjust="spacing" textLength="161.8203" x="74.5" y="600.1426">ASISTENCIAS_ABIERTO</text></g><ellipse cx="155.5" cy="54.6094" fill="#222222" rx="10" ry="10" style="stroke:#222222;stroke-width:1;"/><!--link *start* to SESION_ACTUAL_INICIAL--><g class="link" data-entity-1="*start*" data-entity-2="SESION_ACTUAL_INICIAL" data-source-line="8" data-uid="lnk3" id="link_*start*_SESION_ACTUAL_INICIAL"><path d="M155.5,64.6194 C155.5,78.4994 155.5,99.5794 155.5,119.4494" fill="none" id="*start*-to-SESION_ACTUAL_INICIAL" style="stroke:#008000;stroke-width:1;"/><polygon fill="#008000" points="155.5,125.4494,159.5,116.4494,155.5,120.4494,151.5,116.4494,155.5,125.4494" style="stroke:#008000;stroke-width:1;"/></g><!--link SESION_ACTUAL_INICIAL to PROCESO_CIERRE_COMP--><g class="link" data-entity-1="SESION_ACTUAL_INICIAL" data-entity-2="PROCESO_CIERRE_COMP" data-source-line="10" data-uid="lnk4" id="link_SESION_ACTUAL_INICIAL_PROCESO_CIERRE_COMP"><path d="M155.5,175.8494 C155.5,202.9494 155.5,242.4294 155.5,283.4094" fill="none" id="SESION_ACTUAL_INICIAL-to-PROCESO_CIERRE_COMP" style="stroke:#008000;stroke-width:1;"/><polygon fill="#008000" points="155.5,289.4094,159.5,280.4094,155.5,284.4094,151.5,280.4094,155.5,289.4094" style="stroke:#008000;stroke-width:1;"/><text fill="#000000" font-family="sans-serif" font-size="13" lengthAdjust="spacing" textLength="115.5908" x="231.3345" y="220.1045">cerrarSesionClase()</text><path d="M160.5,228.9609 L160.5,254.9609 L417.5,254.9609 L417.5,238.9609 L407.5,228.9609 L160.5,228.9609" fill="#FEFFDD" style="stroke:#181818;stroke-width:0.5;"/><path d="M407.5,228.9609 L407.5,238.9609 L417.5,238.9609 L407.5,228.9609" fill="#FEFFDD" style="stroke:#181818;stroke-width:0.5;"/><text fill="#000000" font-family="sans-serif" font-size="13" font-weight="bold" lengthAdjust="spacing" textLength="101.8672" x="166.5" y="247.4561">Profesor solicita</text><text fill="#000000" font-family="sans-serif" font-size="13" lengthAdjust="spacing" textLength="130.7808" x="271.979" y="247.4561">cerrar la sesi&#243;n actual.</text></g><!--link PROCESO_CIERRE_COMP to ASISTENCIAS_FINAL--><g class="link" data-entity-1="PROCESO_CIERRE_COMP" data-entity-2="ASISTENCIAS_FINAL" data-source-line="26" data-uid="lnk8" id="link_PROCESO_CIERRE_COMP_ASISTENCIAS_FINAL"><path d="M155.5,468.8394 C155.5,509.0394 155.5,547.4494 155.5,574.1794" fill="none" id="PROCESO_CIERRE_COMP-to-ASISTENCIAS_FINAL" style="stroke:#008000;stroke-width:1;"/><polygon fill="#008000" points="155.5,580.1794,159.5,571.1794,155.5,575.1794,151.5,571.1794,155.5,580.1794" style="stroke:#008000;stroke-width:1;"/><path d="M160.5,503.6094 L160.5,545.6094 L404.5,545.6094 L404.5,513.6094 L394.5,503.6094 L160.5,503.6094" fill="#FEFFDD" style="stroke:#181818;stroke-width:0.5;"/><path d="M394.5,503.6094 L394.5,513.6094 L404.5,513.6094 L394.5,503.6094" fill="#FEFFDD" style="stroke:#181818;stroke-width:0.5;"/><text fill="#000000" font-family="sans-serif" font-size="13" font-weight="bold" lengthAdjust="spacing" textLength="104.0508" x="166.5" y="522.1045">Sistema muestra</text><text fill="#000000" font-family="sans-serif" font-size="13" lengthAdjust="spacing" textLength="69.3799" x="274.1626" y="522.1045">el listado de</text><text fill="#000000" font-family="sans-serif" font-size="13" lengthAdjust="spacing" textLength="223.2534" x="166.5" y="538.4561">ASISTENCIAS_ABIERTO actualizado.</text></g><!--SRC=[VP7HIiCm58RlprCSveqAc_So1hLMACnshFF6CKhMdcbObfGa4wRuL3w2BsRIjQowuaqW_yb_pdV-M6u5OKXQCuqP6Vxz9J4Kp12OBPSLqso7WakoXugmKkBWBm36CakOHLcS9daGBfw2QHudSHW7KsG61sqbYxD5b3Wv3-xYQBu81errDa_3A4lpqAdpA0_JnnbYRNs8as0QFmV9VPeVsxIUKxSihryXDfvkvJWe7G0ihrSuN5wyQ2Av6axwSG7wj-WQ-s1liQXJyw4fMKTsUGLIEKubVMHR6AydCwqsP9H6emGlk6NZc_MaSQ9WQ9h8MM7tJ8o0P8c-1_mJqmS0-CN_hkVkjVwBmGkE8-F6qevXfScGR33S_5Ub6PQ46owPuE-iy3IrwU1jRzpiQxrzt_8MQgVS8GknvoKRrOuJ-oT07tWNzkmlpw9haNTxCbOV2KYuiakcL1uQUhwzIT8XbweJvmy0]--></g></svg>