<?xml version="1.0" encoding="us-ascii" standalone="no"?><svg xmlns="http://www.w3.org/2000/svg" xmlns:xlink="http://www.w3.org/1999/xlink" contentStyleType="text/css" height="636px" preserveAspectRatio="none" style="width:448px;height:636px;background:#FFFFFF;" version="1.1" viewBox="0 0 448 636" width="448px" zoomAndPan="magnify"><defs/><g><text fill="#000000" font-family="sans-serif" font-size="14" font-weight="bold" lengthAdjust="spacing" textLength="140" x="147.25" y="24.5332">Cerrar Sesi&#243;n Clase</text><g id="SESION_ACTUAL_INICIAL"><rect fill="#F1F1F1" height="50" rx="12.5" ry="12.5" style="stroke:#181818;stroke-width:0.5;" width="223" x="66" y="125.6094"/><line style="stroke:#181818;stroke-width:0.5;" x1="66" x2="289" y1="153.2188" y2="153.2188"/><text fill="#000000" font-family="sans-serif" font-size="14" lengthAdjust="spacing" textLength="203" x="76" y="145.1426">SESION_ASISTENCIA_ABIERTA</text></g><path d="M19.5,289.6094 L335.5,289.6094 A12.5,12.5 0 0 1 348,302.1094 L348,317.2188 L7,317.2188 L7,302.1094 A12.5,12.5 0 0 1 19.5,289.6094 " fill="#F1F1F1" style="stroke:#F1F1F1;stroke-width:1.0;"/><rect fill="none" height="178.6094" rx="12.5" ry="12.5" style="stroke:#181818;stroke-width:0.5;" width="341" x="7" y="289.6094"/><line style="stroke:#181818;stroke-width:0.5;" x1="7" x2="348" y1="317.2188" y2="317.2188"/><text fill="#000000" font-family="sans-serif" font-size="14" lengthAdjust="spacing" textLength="146" x="104.5" y="309.1426">FINALIZANDO_SESION</text><ellipse cx="32" cy="338.2188" fill="#222222" rx="10" ry="10" style="stroke:#222222;stroke-width:1.0;"/><ellipse cx="32" cy="447.2188" fill="none" rx="11" ry="11" style="stroke:#222222;stroke-width:1.0;"/><ellipse cx="32" cy="447.2188" fill="#222222" rx="6" ry="6" style="stroke:#222222;stroke-width:1.0;"/><!--link *start*PROCESO_CIERRE_COMP to *end*PROCESO_CIERRE_COMP--><g id="link_*start*PROCESO_CIERRE_COMP_*end*PROCESO_CIERRE_COMP"><path d="M32,348.3388 C32,368.2488 32,409.4788 32,430.1888 " fill="none" id="*start*PROCESO_CIERRE_COMP-to-*end*PROCESO_CIERRE_COMP" style="stroke:#008000;stroke-width:1.0;"/><polygon fill="#008000" points="32,436.1888,36,427.1888,32,431.1888,28,427.1888,32,436.1888" style="stroke:#008000;stroke-width:1.0;"/><path d="M37,371.2188 L37,413.2188 L339,413.2188 L339,381.2188 L329,371.2188 L37,371.2188 " fill="#FEFFDD" style="stroke:#181818;stroke-width:0.5;"/><path d="M329,371.2188 L329,381.2188 L339,381.2188 L329,371.2188 " fill="#FEFFDD" style="stroke:#181818;stroke-width:0.5;"/><text fill="#000000" font-family="sans-serif" font-size="13" font-weight="bold" lengthAdjust="spacing" textLength="104" x="43" y="389.7139">Sistema permite</text><text fill="#000000" font-family="sans-serif" font-size="13" lengthAdjust="spacing" textLength="173" x="151" y="389.7139">retornar la hora de finalizaci&#243;n</text><text fill="#000000" font-family="sans-serif" font-size="13" lengthAdjust="spacing" textLength="7" x="43" y="406.0654">y</text><text fill="#000000" font-family="sans-serif" font-size="13" font-weight="bold" lengthAdjust="spacing" textLength="40" x="54" y="406.0654">marca</text><text fill="#000000" font-family="sans-serif" font-size="13" lengthAdjust="spacing" textLength="151" x="98" y="406.0654">la sesi&#243;n como concluida.</text></g><g id="ASISTENCIAS_FINAL"><rect fill="#F1F1F1" height="50" rx="12.5" ry="12.5" style="stroke:#181818;stroke-width:0.5;" width="176" x="89.5" y="580.6094"/><line style="stroke:#181818;stroke-width:0.5;" x1="89.5" x2="265.5" y1="608.2188" y2="608.2188"/><text fill="#000000" font-family="sans-serif" font-size="14" lengthAdjust="spacing" textLength="156" x="99.5" y="600.1426">ASISTENCIAS_ABIERTO</text></g><ellipse cx="177.5" cy="54.6094" fill="#222222" rx="10" ry="10" style="stroke:#222222;stroke-width:1.0;"/><!--link *start* to SESION_ACTUAL_INICIAL--><g id="link_*start*_SESION_ACTUAL_INICIAL"><path d="M177.5,64.6194 C177.5,78.4994 177.5,99.5794 177.5,119.4494 " fill="none" id="*start*-to-SESION_ACTUAL_INICIAL" style="stroke:#008000;stroke-width:1.0;"/><polygon fill="#008000" points="177.5,125.4494,181.5,116.4494,177.5,120.4494,173.5,116.4494,177.5,125.4494" style="stroke:#008000;stroke-width:1.0;"/></g><!--link SESION_ACTUAL_INICIAL to PROCESO_CIERRE_COMP--><g id="link_SESION_ACTUAL_INICIAL_PROCESO_CIERRE_COMP"><path d="M177.5,175.8494 C177.5,202.9494 177.5,242.4294 177.5,283.4094 " fill="none" id="SESION_ACTUAL_INICIAL-to-PROCESO_CIERRE_COMP" style="stroke:#008000;stroke-width:1.0;"/><polygon fill="#008000" points="177.5,289.4094,181.5,280.4094,177.5,284.4094,173.5,280.4094,177.5,289.4094" style="stroke:#008000;stroke-width:1.0;"/><text fill="#000000" font-family="sans-serif" font-size="13" lengthAdjust="spacing" textLength="114" x="255" y="220.1045">cerrarSesionClase()</text><path d="M182.5,228.9609 L182.5,254.9609 L441.5,254.9609 L441.5,238.9609 L431.5,228.9609 L182.5,228.9609 " fill="#FEFFDD" style="stroke:#181818;stroke-width:0.5;"/><path d="M431.5,228.9609 L431.5,238.9609 L441.5,238.9609 L431.5,228.9609 " fill="#FEFFDD" style="stroke:#181818;stroke-width:0.5;"/><text fill="#000000" font-family="sans-serif" font-size="13" font-weight="bold" lengthAdjust="spacing" textLength="102" x="188.5" y="247.4561">Profesor solicita</text><text fill="#000000" font-family="sans-serif" font-size="13" lengthAdjust="spacing" textLength="132" x="294.5" y="247.4561">cerrar la sesi&#243;n actual.</text></g><!--link PROCESO_CIERRE_COMP to ASISTENCIAS_FINAL--><g id="link_PROCESO_CIERRE_COMP_ASISTENCIAS_FINAL"><path d="M177.5,468.8394 C177.5,509.0394 177.5,547.4494 177.5,574.1794 " fill="none" id="PROCESO_CIERRE_COMP-to-ASISTENCIAS_FINAL" style="stroke:#008000;stroke-width:1.0;"/><polygon fill="#008000" points="177.5,580.1794,181.5,571.1794,177.5,575.1794,173.5,571.1794,177.5,580.1794" style="stroke:#008000;stroke-width:1.0;"/><path d="M182.5,503.6094 L182.5,545.6094 L429.5,545.6094 L429.5,513.6094 L419.5,503.6094 L182.5,503.6094 " fill="#FEFFDD" style="stroke:#181818;stroke-width:0.5;"/><path d="M419.5,503.6094 L419.5,513.6094 L429.5,513.6094 L419.5,503.6094 " fill="#FEFFDD" style="stroke:#181818;stroke-width:0.5;"/><text fill="#000000" font-family="sans-serif" font-size="13" font-weight="bold" lengthAdjust="spacing" textLength="104" x="188.5" y="522.1045">Sistema permite</text><text fill="#000000" font-family="sans-serif" font-size="13" lengthAdjust="spacing" textLength="118" x="296.5" y="522.1045">retornar el listado de</text><text fill="#000000" font-family="sans-serif" font-size="13" lengthAdjust="spacing" textLength="222" x="188.5" y="538.4561">ASISTENCIAS_ABIERTO actualizado.</text></g><!--SRC=[VPB1IiD048RlynH3lQZGUfTIY352e2QbgHTB2Tjagaitks5tUwZYK_a8lfYxQKgZ3Rq4TdR-oJTVOhaLX25fpJHcPFZFjyHGC4DWjbpMJBCA1PTazpLXhSJU7m2CPPOmYx8uJV8WNBm4qpnEuZ0EfiWC3eutMPmjeiILy-0XZkQBOD16P_CqZB8q3rrr7kLX-Zn3RA9FSH9CuzSWUKppmvXZvZGjovikn3RJlJcyA1q0B6zNE5nUlMaYkHfE-d41-hVe1ljWxx5eh7bfIZRAhcz0AiUff5UsXV5wCjDgGqPfD4hmWbislbjFsYGAXgPLpWgxOs8494lqC-22fay0y8l_Ny-Tc_eV1bzm71atbYg6DUcAMseeD5cbvO7ZNMc69U66IoRu1oiyLHFU-tZ5T750xp0NgbBk8GknuoKRDTqd_Y-0FlWkyDdtFDDt4Pk4wtEQIkN8eUSNQAswTKhLKViB]--></g></svg>