<svg xmlns="http://www.w3.org/2000/svg" xmlns:xlink="http://www.w3.org/1999/xlink" version="1.1" data-diagram-type="STATE" style="width:526px;height:755px;background:#FFFFFF;" width="526px" height="755px" viewBox="0 0 526 755" zoomAndPan="magnify" preserveAspectRatio="none" contentStyleType="text/css"><?plantuml 1.2026.7beta8?><defs/><g font-family="sans-serif" lengthAdjust="spacing"><g class="entity" data-qualified-name="consultarSolicitudDispensa" id="ent0001" data-source-line="9"><path d="M19.5,7 L498.5,7 A12.5,12.5 0 0 1 511,19.5 L511,33.297 L7,33.297 L7,19.5 A12.5,12.5 0 0 1 19.5,7" fill="#F5F5F5"/><path d="M7,33.297 L511,33.297 L511,459.797 A12.5,12.5 0 0 1 498.5,472.297 L19.5,472.297 A12.5,12.5 0 0 1 7,459.797 L7,33.297" fill="#F5F5F5"/><rect x="7" y="7" width="504" height="465.297" fill="none" style="stroke:#808080;stroke-width:0.5;" rx="12.5" ry="12.5"/><line x1="7" y1="33.297" x2="511" y2="33.297" style="stroke:#808080;stroke-width:0.5;"/><text x="158.891" y="24.995" fill="#000" font-size="14" textLength="200.218">consultarSolicitudDispensa()</text><g class="entity" data-qualified-name="consultarSolicitudDispensa.Paso1" id="ent0002" data-source-line="10"><rect x="19" y="135.297" width="50" height="50" fill="#F5F5F5" style="stroke:#808080;stroke-width:0.5;" rx="12.5" ry="12.5"/><line x1="19" y1="161.594" x2="69" y2="161.594" style="stroke:#808080;stroke-width:0.5;"/><text x="41.775" y="153.292" fill="#000" font-size="14"> </text></g><g class="entity" data-qualified-name="consultarSolicitudDispensa.Paso2" id="ent0003" data-source-line="11"><rect x="19" y="286.297" width="50" height="50" fill="#F5F5F5" style="stroke:#808080;stroke-width:0.5;" rx="12.5" ry="12.5"/><line x1="19" y1="312.594" x2="69" y2="312.594" style="stroke:#808080;stroke-width:0.5;"/><text x="41.775" y="304.292" fill="#000" font-size="14"> </text></g><g class="start_entity" data-qualified-name="consultarSolicitudDispensa..start.consultarSolicitudDispensa" id="ent0005" data-source-line="13"><ellipse cx="44" cy="54.297" rx="10" ry="10" fill="#222" style="stroke:#222;stroke-width:1;"/></g><g class="end_entity" data-qualified-name="consultarSolicitudDispensa..end.consultarSolicitudDispensa" id="ent0008" data-source-line="25"><ellipse cx="44" cy="448.297" rx="11" ry="11" fill="none" style="stroke:#222;stroke-width:1;"/><ellipse cx="44" cy="448.297" rx="6" ry="6" fill="#222" style="stroke:#222;stroke-width:1;"/></g><!--link *start*consultarSolicitudDispensa to Paso1--><g class="link" data-entity-1="ent0005" data-entity-2="ent0002" id="lnk6" data-source-line="13" data-link-type="dependency"><path d="M44,64.527 C44,80.237 44,107.657 44,130.167" style="stroke:#008000;stroke-width:1;" fill="none" id="*start*consultarSolicitudDispensa-to-Paso1"/><polygon points="44,135.167,48,126.167,44,130.167,40,126.167,44,135.167" fill="#008000" style="stroke:#008000;stroke-width:1;stroke-linejoin:miter;stroke-miterlimit:10;"/><path d="M49,87.297 L49,112.297 L487,112.297 L487,97.297 L477,87.297 L49,87.297" style="stroke:#808080;stroke-width:0.5;" fill="#FFFFE0"/><path d="M477,87.297 L477,97.297 L487,97.297 L477,87.297" style="stroke:#808080;stroke-width:0.5;" fill="#FFFFE0"/><text x="55" y="104.364" fill="#000" font-size="13" textLength="62.423" font-weight="700">Profesor</text><text x="121.555" y="104.364" fill="#000" font-size="13" textLength="351.292">solicita consultar el detalle de una solicitud específica</text></g><!--link Paso1 to Paso2--><g class="link" data-entity-1="ent0002" data-entity-2="ent0003" id="lnk7" data-source-line="18" data-link-type="dependency"><path d="M44,185.567 C44,213.277 44,253.337 44,281.037" style="stroke:#008000;stroke-width:1;" fill="none" id="Paso1-to-Paso2"/><polygon points="44,286.037,48,277.037,44,281.037,40,277.037,44,286.037" fill="#008000" style="stroke:#008000;stroke-width:1;stroke-linejoin:miter;stroke-miterlimit:10;"/><path d="M49,208.297 L49,263.297 L440,263.297 L440,218.297 L430,208.297 L49,208.297" style="stroke:#808080;stroke-width:0.5;" fill="#FFFFE0"/><path d="M430,208.297 L430,218.297 L440,218.297 L430,208.297" style="stroke:#808080;stroke-width:0.5;" fill="#FFFFE0"/><text x="55" y="225.364" fill="#000" font-size="13" textLength="58.906" font-weight="700">Sistema</text><text x="118.039" y="225.364" fill="#000" font-size="13" textLength="307.95">permite mostrar todos los datos de la solicitud:</text><text x="55" y="240.497" fill="#000" font-size="13" textLength="193.572">• Alumno solicitante y motivo</text><text x="55" y="255.629" fill="#000" font-size="13" textLength="270.188">• Estado actual y documentación adjunta</text></g><!--link Paso2 to *end*consultarSolicitudDispensa--><g class="link" data-entity-1="ent0003" data-entity-2="ent0008" id="lnk9" data-source-line="25" data-link-type="dependency"><path d="M44,336.747 C44,366.527 44,410.507 44,431.837" style="stroke:#008000;stroke-width:1;" fill="none" id="Paso2-to-*end*consultarSolicitudDispensa"/><polygon points="44,436.837,48,427.837,44,431.837,40,427.837,44,436.837" fill="#008000" style="stroke:#008000;stroke-width:1;stroke-linejoin:miter;stroke-miterlimit:10;"/><path d="M49,359.297 L49,414.297 L391,414.297 L391,369.297 L381,359.297 L49,359.297" style="stroke:#808080;stroke-width:0.5;" fill="#FFFFE0"/><path d="M381,359.297 L381,369.297 L391,369.297 L381,359.297" style="stroke:#808080;stroke-width:0.5;" fill="#FFFFE0"/><text x="55" y="376.364" fill="#000" font-size="13" textLength="62.423" font-weight="700">Profesor</text><text x="121.555" y="376.364" fill="#000" font-size="13" textLength="231.061">revisa la información de la solicitud</text><text x="55" y="391.497" fill="#000" font-size="13" textLength="58.906" font-weight="700">Sistema</text><text x="118.039" y="391.497" fill="#000" font-size="13" textLength="258.502">permite mantener los datos en pantalla</text><text x="55" y="406.629" fill="#000" font-size="13" textLength="275.564">• Permite solicitar cerrar solicitud y volver</text></g></g><g class="entity" data-qualified-name="DISPENSAS_ABIERTO" id="ent0004" data-source-line="33"><rect x="175.32" y="691.3" width="167.362" height="50" fill="#F5F5F5" style="stroke:#808080;stroke-width:0.5;" rx="12.5" ry="12.5"/><line x1="175.32" y1="717.597" x2="342.682" y2="717.597" style="stroke:#808080;stroke-width:0.5;"/><text x="185.32" y="709.295" fill="#000" font-size="14" textLength="147.362">DISPENSAS_ABIERTO</text></g><!--link consultarSolicitudDispensa to DISPENSAS_ABIERTO--><g class="link" data-entity-1="ent0001" data-entity-2="ent0004" id="lnk10" data-source-line="35" data-link-type="dependency"><path d="M259,472.76 C259,560.69 259,644.58 259,686.1" style="stroke:#00F;stroke-width:1;" fill="none" id="consultarSolicitudDispensa-to-DISPENSAS_ABIERTO"/><polygon points="259,691.1,263,682.1,259,686.1,255,682.1,259,691.1" fill="#00F" style="stroke:#00F;stroke-width:1;stroke-linejoin:miter;stroke-miterlimit:10;"/><path d="M264,569.3 L264,594.3 L392,594.3 L392,579.3 L382,569.3 L264,569.3" style="stroke:#808080;stroke-width:0.5;" fill="#FFFFE0"/><path d="M382,569.3 L382,579.3 L392,579.3 L382,569.3" style="stroke:#808080;stroke-width:0.5;" fill="#FFFFE0"/><text x="270" y="586.367" fill="#000" font-size="13" textLength="107.06">abrirDispensas()</text></g><?plantuml-src ZLFBQjj05DthAox99YcOjePsKOB1QLp89ZLLTy6KQysrC_LehhWpuo9AeT_IVLVzXFn9lgHNyYEArIILa8IEpfmvvymehAolKB04puO2LV3sLHRseA1VzK1dFSMw8gZOrSrBvziLHph7OhKKJjwyPyUY_ELDhCav_dR8P34a6zPIiEvypYFsbOu_l6dE7krG9WiD34S5-v1SHCdPsSB6P2vigCW7F3az0WpmE06-Pw37LWXQzXG3l_utFCnQ_Fh530RNnqiXyhF1g3F2QrnWtvItQW60i_beAhoWm7BsSZw2iF60zww071YAw1pf4vB77IaP83LQtFvUs09RGVAcdMNZf9svvsNuX9VSXaWbjbOgaj8ggUGGHNr4DXp0wMKmDdS2r_7oRgjoz_CNZ5qgFU_3U5MfLIVQDNTO4stGC60H4peb62vIIJvYOM__U43pDUdB8xc63t9fv__RiD3QwjAgTUiNBELsjeCqprJIHF8adJR8GwMeBXDs8awt0tPD21GaJPdtIrZ3cjsQv67E7_lzUt6PJoTN-JZ_CZw_d7pw_B7TRpqqovxOnrhLt2MQ3GRQLNzesveqVsYdEvoBbPr2E3dDTjx-0W00?></g></svg>