<?xml version="1.0" encoding="us-ascii" standalone="no"?><svg xmlns="http://www.w3.org/2000/svg" xmlns:xlink="http://www.w3.org/1999/xlink" contentStyleType="text/css" height="826px" preserveAspectRatio="none" style="width:705px;height:826px;background:#FFFFFF;" version="1.1" viewBox="0 0 705 826" width="705px" zoomAndPan="magnify"><defs/><g><text fill="#000000" font-family="sans-serif" font-size="14" font-weight="bold" lengthAdjust="spacing" textLength="202" x="244.5" y="24.5332">Consultar Solicitud Dispensa</text><g id="DISPENSAS_ABIERTO_INICIAL"><rect fill="#F1F1F1" height="50" rx="12.5" ry="12.5" style="stroke:#181818;stroke-width:0.5;" width="164" x="145" y="125.6094"/><line style="stroke:#181818;stroke-width:0.5;" x1="145" x2="309" y1="153.2188" y2="153.2188"/><text fill="#000000" font-family="sans-serif" font-size="14" lengthAdjust="spacing" textLength="144" x="155" y="145.1426">DISPENSAS_ABIERTO</text></g><g id="DISPENSAS_ABIERTO_FINAL"><rect fill="#F1F1F1" height="50" rx="12.5" ry="12.5" style="stroke:#181818;stroke-width:0.5;" width="164" x="145" y="770.6094"/><line style="stroke:#181818;stroke-width:0.5;" x1="145" x2="309" y1="798.2188" y2="798.2188"/><text fill="#000000" font-family="sans-serif" font-size="14" lengthAdjust="spacing" textLength="144" x="155" y="790.1426">DISPENSAS_ABIERTO</text></g><path d="M19.5,338.6094 L434.5,338.6094 A12.5,12.5 0 0 1 447,351.1094 L447,366.2188 L7,366.2188 L7,351.1094 A12.5,12.5 0 0 1 19.5,338.6094 " fill="#F1F1F1" style="stroke:#F1F1F1;stroke-width:1.0;"/><rect fill="none" height="317.6094" rx="12.5" ry="12.5" style="stroke:#181818;stroke-width:0.5;" width="440" x="7" y="338.6094"/><line style="stroke:#181818;stroke-width:0.5;" x1="7" x2="447" y1="366.2188" y2="366.2188"/><text fill="#000000" font-family="sans-serif" font-size="14" lengthAdjust="spacing" textLength="213" x="120.5" y="358.1426">SOLICITUD_DISPENSA_ABIERTA</text><g id="SOLICITUD_DISPENSA_ABIERTA_COMP.ConsultaDetalle"><rect fill="#F1F1F1" height="50" rx="12.5" ry="12.5" style="stroke:#181818;stroke-width:0.5;" width="120" x="19" y="502.2188"/><line style="stroke:#181818;stroke-width:0.5;" x1="19" x2="139" y1="529.8281" y2="529.8281"/><text fill="#000000" font-family="sans-serif" font-size="14" lengthAdjust="spacing" textLength="100" x="29" y="521.752">ConsultaDetalle</text></g><ellipse cx="79" cy="387.2188" fill="#222222" rx="10" ry="10" style="stroke:#222222;stroke-width:1.0;"/><ellipse cx="79" cy="635.2188" fill="none" rx="11" ry="11" style="stroke:#222222;stroke-width:1.0;"/><ellipse cx="79" cy="635.2188" fill="#222222" rx="6" ry="6" style="stroke:#222222;stroke-width:1.0;"/><!--link *start*SOLICITUD_DISPENSA_ABIERTA_COMP to ConsultaDetalle--><g id="link_*start*SOLICITUD_DISPENSA_ABIERTA_COMP_ConsultaDetalle"><path d="M79,397.2688 C79,418.2587 79,464.8088 79,495.9688 " fill="none" id="*start*SOLICITUD_DISPENSA_ABIERTA_COMP-to-ConsultaDetalle" style="stroke:#008000;stroke-width:1.0;"/><polygon fill="#008000" points="79,501.9688,83,492.9688,79,496.9688,75,492.9688,79,501.9688" style="stroke:#008000;stroke-width:1.0;"/><path d="M84,420.2188 L84,479.2188 L438,479.2188 L438,430.2188 L428,420.2188 L84,420.2188 " fill="#FEFFDD" style="stroke:#181818;stroke-width:0.5;"/><path d="M428,420.2188 L428,430.2188 L438,430.2188 L428,420.2188 " fill="#FEFFDD" style="stroke:#181818;stroke-width:0.5;"/><text fill="#000000" font-family="sans-serif" font-size="13" font-weight="bold" lengthAdjust="spacing" textLength="104" x="90" y="438.7139">Sistema permite</text><text fill="#000000" font-family="sans-serif" font-size="13" lengthAdjust="spacing" textLength="225" x="198" y="438.7139">retornar todos los datos de la solicitud:</text><text fill="#000000" font-family="sans-serif" font-size="13" lengthAdjust="spacing" textLength="168" x="90" y="455.0654">&#8226; Alumno solicitante y Motivo</text><text fill="#000000" font-family="sans-serif" font-size="13" lengthAdjust="spacing" textLength="240" x="90" y="471.417">&#8226; Estado actual y Documentaci&#243;n adjunta</text></g><!--link ConsultaDetalle to *end*SOLICITUD_DISPENSA_ABIERTA_COMP--><g id="link_ConsultaDetalle_*end*SOLICITUD_DISPENSA_ABIERTA_COMP"><path d="M79,552.2688 C79,574.8688 79,601.5988 79,618.0188 " fill="none" id="ConsultaDetalle-to-*end*SOLICITUD_DISPENSA_ABIERTA_COMP" style="stroke:#008000;stroke-width:1.0;"/><polygon fill="#008000" points="79,624.0188,83,615.0188,79,619.0188,75,615.0188,79,624.0188" style="stroke:#008000;stroke-width:1.0;"/><path d="M84,575.2188 L84,601.2188 L324,601.2188 L324,585.2188 L314,575.2188 L84,575.2188 " fill="#FEFFDD" style="stroke:#181818;stroke-width:0.5;"/><path d="M314,575.2188 L314,585.2188 L324,585.2188 L314,575.2188 " fill="#FEFFDD" style="stroke:#181818;stroke-width:0.5;"/><text fill="#000000" font-family="sans-serif" font-size="13" font-weight="bold" lengthAdjust="spacing" textLength="102" x="90" y="593.7139">Profesor solicita</text><text fill="#000000" font-family="sans-serif" font-size="13" lengthAdjust="spacing" textLength="113" x="196" y="593.7139">realizar una acci&#243;n.</text></g><ellipse cx="227" cy="54.6094" fill="#222222" rx="10" ry="10" style="stroke:#222222;stroke-width:1.0;"/><!--link *start* to DISPENSAS_ABIERTO_INICIAL--><g id="link_*start*_DISPENSAS_ABIERTO_INICIAL"><path d="M227,64.6194 C227,78.4994 227,99.5794 227,119.4494 " fill="none" id="*start*-to-DISPENSAS_ABIERTO_INICIAL" style="stroke:#008000;stroke-width:1.0;"/><polygon fill="#008000" points="227,125.4494,231,116.4494,227,120.4494,223,116.4494,227,125.4494" style="stroke:#008000;stroke-width:1.0;"/></g><!--link DISPENSAS_ABIERTO_INICIAL to SOLICITUD_DISPENSA_ABIERTA_COMP--><g id="link_DISPENSAS_ABIERTO_INICIAL_SOLICITUD_DISPENSA_ABIERTA_COMP"><path d="M227,175.8694 C227,210.1494 227,269.6194 227,332.5194 " fill="none" id="DISPENSAS_ABIERTO_INICIAL-to-SOLICITUD_DISPENSA_ABIERTA_COMP" style="stroke:#008000;stroke-width:1.0;"/><polygon fill="#008000" points="227,338.5194,231,329.5194,227,333.5194,223,329.5194,227,338.5194" style="stroke:#008000;stroke-width:1.0;"/><text fill="#000000" font-family="sans-serif" font-size="13" lengthAdjust="spacing" textLength="165" x="340.5" y="220.1045">consultarSolicitudDispensa()</text><path d="M232,228.9609 L232,303.9609 L614,303.9609 L614,238.9609 L604,228.9609 L232,228.9609 " fill="#FEFFDD" style="stroke:#181818;stroke-width:0.5;"/><path d="M604,228.9609 L604,238.9609 L614,238.9609 L604,228.9609 " fill="#FEFFDD" style="stroke:#181818;stroke-width:0.5;"/><text fill="#000000" font-family="sans-serif" font-size="13" font-weight="bold" lengthAdjust="spacing" textLength="53" x="238" y="247.4561">Profesor</text><text fill="#000000" font-family="sans-serif" font-size="13" lengthAdjust="spacing" textLength="235" x="295" y="247.4561">se encuentra en DISPENSAS_ABIERTO</text><text fill="#000000" font-family="sans-serif" font-size="13" lengthAdjust="spacing" textLength="7" x="238" y="263.8076">y</text><text fill="#000000" font-family="sans-serif" font-size="13" font-weight="bold" lengthAdjust="spacing" textLength="45" x="249" y="263.8076">solicita</text><text fill="#000000" font-family="sans-serif" font-size="13" lengthAdjust="spacing" textLength="270" x="298" y="263.8076">consultar el detalle de una solicitud espec&#237;fica.</text><text fill="#000000" font-family="sans-serif" font-size="13" lengthAdjust="spacing" textLength="4" x="238" y="280.1592">&#160;</text><text fill="#000000" font-family="sans-serif" font-size="13" font-weight="bold" lengthAdjust="spacing" textLength="104" x="238" y="296.5107">Sistema permite</text><text fill="#000000" font-family="sans-serif" font-size="13" lengthAdjust="spacing" textLength="253" x="346" y="296.5107">retornar SOLICITUD_DISPENSA_ABIERTA.</text></g><!--link SOLICITUD_DISPENSA_ABIERTA_COMP to DISPENSAS_ABIERTO_FINAL--><g id="link_SOLICITUD_DISPENSA_ABIERTA_COMP_DISPENSAS_ABIERTO_FINAL"><path d="M227,657.0094 C227,701.5394 227,738.8194 227,764.5894 " fill="none" id="SOLICITUD_DISPENSA_ABIERTA_COMP-to-DISPENSAS_ABIERTO_FINAL" style="stroke:#FF0000;stroke-width:1.0;"/><polygon fill="#FF0000" points="227,770.5894,231,761.5894,227,765.5894,223,761.5894,227,770.5894" style="stroke:#FF0000;stroke-width:1.0;"/><text fill="#000000" font-family="sans-serif" font-size="13" lengthAdjust="spacing" textLength="91" x="419.5" y="701.1045">cerrarSolicitud()</text><path d="M232,709.9609 L232,735.9609 L698,735.9609 L698,719.9609 L688,709.9609 L232,709.9609 " fill="#FEFFDD" style="stroke:#181818;stroke-width:0.5;"/><path d="M688,709.9609 L688,719.9609 L698,719.9609 L688,709.9609 " fill="#FEFFDD" style="stroke:#181818;stroke-width:0.5;"/><text fill="#000000" font-family="sans-serif" font-size="13" font-weight="bold" lengthAdjust="spacing" textLength="104" x="238" y="728.4561">Sistema permite</text><text fill="#000000" font-family="sans-serif" font-size="13" lengthAdjust="spacing" textLength="337" x="346" y="728.4561">retornar nuevamente el listado en DISPENSAS_ABIERTO.</text></g><!--SRC=[hLFTJjim5BxtKnnrDziakdk4AcLDaI91Moti2g7gO1-GXsD7_a7g9YIUXNkkzWYy2K-2dP3IbeRkOf4IsV5tVhxlVFRIAuAnqIueZnPAeoINFWZ8fQj9EsJkHkeQBLQWf2Q_h0bgevPfmvZpw0doefnFfcLMBhBlnUJ7sMnHJ8jnaPr0-w23mJlCe3Vuk9Z-MsWvEubbpdxcYmxoYiWMuzdfl0dknmmOE_zw0GVddwujaRuu6FKJOQoVutg2VHqT0k-qNadTAVtv2zCciZ8wANt3ZYv7Sskko1bxzEro18w0D0-alSMuUjyiMqACSMrUR69MrO0K2FAeuhW5GT08RZLhYWtmfyShoN78KjrIEayLGassafwQL9QyiJfvf9VZa94Ma4Ym_pCX-CDOSa6RhBDftl9eZxP7k0rAc0rPquzz5BqHne6Ahq2VlWHgJR339idp_GDaAbJQT2UeOvqbd1elRyqACudT2mF8VK0LZtF3GnMdY5m-_TM0ubU8cmR-9b_QRL7Pe1bfzrBhN0CRLh24IlwEvDBiaJV5XvjLxnZRDx3OWoMn-wwqzpPQdAnTy_SENtyelWvqYqaWIgPLifLlb-7N_FO2]--></g></svg>