<?xml version="1.0" encoding="us-ascii" standalone="no"?><svg xmlns="http://www.w3.org/2000/svg" xmlns:xlink="http://www.w3.org/1999/xlink" contentStyleType="text/css" height="843px" preserveAspectRatio="none" style="width:688px;height:843px;background:#FFFFFF;" version="1.1" viewBox="0 0 688 843" width="688px" zoomAndPan="magnify"><defs/><g><text fill="#000000" font-family="sans-serif" font-size="14" font-weight="bold" lengthAdjust="spacing" textLength="177" x="248.5" y="24.5332">Consultar Detalle Alumno</text><g id="ALUMNOS_ABIERTO_INICIAL"><rect fill="#F1F1F1" height="50" rx="12.5" ry="12.5" style="stroke:#181818;stroke-width:0.5;" width="154" x="144" y="125.6094"/><line style="stroke:#181818;stroke-width:0.5;" x1="144" x2="298" y1="153.2188" y2="153.2188"/><text fill="#000000" font-family="sans-serif" font-size="14" lengthAdjust="spacing" textLength="134" x="154" y="145.1426">ALUMNOS_ABIERTO</text></g><g id="ALUMNOS_ABIERTO_FINAL"><rect fill="#F1F1F1" height="50" rx="12.5" ry="12.5" style="stroke:#181818;stroke-width:0.5;" width="154" x="144" y="787.6094"/><line style="stroke:#181818;stroke-width:0.5;" x1="144" x2="298" y1="815.2188" y2="815.2188"/><text fill="#000000" font-family="sans-serif" font-size="14" lengthAdjust="spacing" textLength="134" x="154" y="807.1426">ALUMNOS_ABIERTO</text></g><path d="M19.5,355.6094 L422,355.6094 A12.5,12.5 0 0 1 434.5,368.1094 L434.5,383.2188 L7,383.2188 L7,368.1094 A12.5,12.5 0 0 1 19.5,355.6094 " fill="#F1F1F1" style="stroke:#F1F1F1;stroke-width:1.0;"/><rect fill="none" height="317.6094" rx="12.5" ry="12.5" style="stroke:#181818;stroke-width:0.5;" width="427.5" x="7" y="355.6094"/><line style="stroke:#181818;stroke-width:0.5;" x1="7" x2="434.5" y1="383.2188" y2="383.2188"/><text fill="#000000" font-family="sans-serif" font-size="14" lengthAdjust="spacing" textLength="125" x="158.25" y="375.1426">ALUMNO_ABIERTO</text><g id="ALUMNO_ABIERTO_COMP.ConsultaFicha"><rect fill="#F1F1F1" height="50" rx="12.5" ry="12.5" style="stroke:#181818;stroke-width:0.5;" width="111" x="19" y="519.2188"/><line style="stroke:#181818;stroke-width:0.5;" x1="19" x2="130" y1="546.8281" y2="546.8281"/><text fill="#000000" font-family="sans-serif" font-size="14" lengthAdjust="spacing" textLength="91" x="29" y="538.752">ConsultaFicha</text></g><ellipse cx="74.5" cy="404.2188" fill="#222222" rx="10" ry="10" style="stroke:#222222;stroke-width:1.0;"/><ellipse cx="74.5" cy="652.2188" fill="none" rx="11" ry="11" style="stroke:#222222;stroke-width:1.0;"/><ellipse cx="74.5" cy="652.2188" fill="#222222" rx="6" ry="6" style="stroke:#222222;stroke-width:1.0;"/><!--link *start*ALUMNO_ABIERTO_COMP to ConsultaFicha--><g id="link_*start*ALUMNO_ABIERTO_COMP_ConsultaFicha"><path d="M74.5,414.2688 C74.5,435.2587 74.5,481.8088 74.5,512.9688 " fill="none" id="*start*ALUMNO_ABIERTO_COMP-to-ConsultaFicha" style="stroke:#008000;stroke-width:1.0;"/><polygon fill="#008000" points="74.5,518.9688,78.5,509.9688,74.5,513.9688,70.5,509.9688,74.5,518.9688" style="stroke:#008000;stroke-width:1.0;"/><path d="M79.5,437.2188 L79.5,496.2188 L425.5,496.2188 L425.5,447.2188 L415.5,437.2188 L79.5,437.2188 " fill="#FEFFDD" style="stroke:#181818;stroke-width:0.5;"/><path d="M415.5,437.2188 L415.5,447.2188 L425.5,447.2188 L415.5,437.2188 " fill="#FEFFDD" style="stroke:#181818;stroke-width:0.5;"/><text fill="#000000" font-family="sans-serif" font-size="13" font-weight="bold" lengthAdjust="spacing" textLength="104" x="85.5" y="455.7139">Sistema permite</text><text fill="#000000" font-family="sans-serif" font-size="13" lengthAdjust="spacing" textLength="217" x="193.5" y="455.7139">retornar la ficha completa del alumno:</text><text fill="#000000" font-family="sans-serif" font-size="13" lengthAdjust="spacing" textLength="151" x="85.5" y="472.0654">&#8226; Datos personales y Foto</text><text fill="#000000" font-family="sans-serif" font-size="13" lengthAdjust="spacing" textLength="198" x="85.5" y="488.417">&#8226; Resumen de asistencias y faltas</text></g><!--link ConsultaFicha to *end*ALUMNO_ABIERTO_COMP--><g id="link_ConsultaFicha_*end*ALUMNO_ABIERTO_COMP"><path d="M74.5,569.2688 C74.5,591.8688 74.5,618.5988 74.5,635.0188 " fill="none" id="ConsultaFicha-to-*end*ALUMNO_ABIERTO_COMP" style="stroke:#008000;stroke-width:1.0;"/><polygon fill="#008000" points="74.5,641.0188,78.5,632.0188,74.5,636.0188,70.5,632.0188,74.5,641.0188" style="stroke:#008000;stroke-width:1.0;"/><path d="M79.5,592.2188 L79.5,618.2188 L319.5,618.2188 L319.5,602.2188 L309.5,592.2188 L79.5,592.2188 " fill="#FEFFDD" style="stroke:#181818;stroke-width:0.5;"/><path d="M309.5,592.2188 L309.5,602.2188 L319.5,602.2188 L309.5,592.2188 " fill="#FEFFDD" style="stroke:#181818;stroke-width:0.5;"/><text fill="#000000" font-family="sans-serif" font-size="13" font-weight="bold" lengthAdjust="spacing" textLength="102" x="85.5" y="610.7139">Profesor solicita</text><text fill="#000000" font-family="sans-serif" font-size="13" lengthAdjust="spacing" textLength="113" x="191.5" y="610.7139">realizar una acci&#243;n.</text></g><ellipse cx="221" cy="54.6094" fill="#222222" rx="10" ry="10" style="stroke:#222222;stroke-width:1.0;"/><!--link *start* to ALUMNOS_ABIERTO_INICIAL--><g id="link_*start*_ALUMNOS_ABIERTO_INICIAL"><path d="M221,64.6194 C221,78.4994 221,99.5794 221,119.4494 " fill="none" id="*start*-to-ALUMNOS_ABIERTO_INICIAL" style="stroke:#008000;stroke-width:1.0;"/><polygon fill="#008000" points="221,125.4494,225,116.4494,221,120.4494,217,116.4494,221,125.4494" style="stroke:#008000;stroke-width:1.0;"/></g><!--link ALUMNOS_ABIERTO_INICIAL to ALUMNO_ABIERTO_COMP--><g id="link_ALUMNOS_ABIERTO_INICIAL_ALUMNO_ABIERTO_COMP"><path d="M221,175.6394 C221,212.5894 221,280.3594 221,349.5794 " fill="none" id="ALUMNOS_ABIERTO_INICIAL-to-ALUMNO_ABIERTO_COMP" style="stroke:#008000;stroke-width:1.0;"/><polygon fill="#008000" points="221,355.5794,225,346.5794,221,350.5794,217,346.5794,221,355.5794" style="stroke:#008000;stroke-width:1.0;"/><text fill="#000000" font-family="sans-serif" font-size="13" lengthAdjust="spacing" textLength="145" x="322.5" y="220.1045">consultarDetalleAlumno()</text><path d="M226,228.9609 L226,319.9609 L564,319.9609 L564,238.9609 L554,228.9609 L226,228.9609 " fill="#FEFFDD" style="stroke:#181818;stroke-width:0.5;"/><path d="M554,228.9609 L554,238.9609 L564,238.9609 L554,228.9609 " fill="#FEFFDD" style="stroke:#181818;stroke-width:0.5;"/><text fill="#000000" font-family="sans-serif" font-size="13" font-weight="bold" lengthAdjust="spacing" textLength="53" x="232" y="247.4561">Profesor</text><text fill="#000000" font-family="sans-serif" font-size="13" lengthAdjust="spacing" textLength="224" x="289" y="247.4561">se encuentra en ALUMNOS_ABIERTO</text><text fill="#000000" font-family="sans-serif" font-size="13" lengthAdjust="spacing" textLength="7" x="232" y="263.8076">y</text><text fill="#000000" font-family="sans-serif" font-size="13" font-weight="bold" lengthAdjust="spacing" textLength="45" x="243" y="263.8076">solicita</text><text fill="#000000" font-family="sans-serif" font-size="13" lengthAdjust="spacing" textLength="257" x="292" y="263.8076">consultar el detalle de un alumno espec&#237;fico.</text><text fill="#000000" font-family="sans-serif" font-size="13" lengthAdjust="spacing" textLength="4" x="232" y="280.1592">&#160;</text><text fill="#000000" font-family="sans-serif" font-size="13" font-weight="bold" lengthAdjust="spacing" textLength="104" x="232" y="296.5107">Sistema permite</text><text fill="#000000" font-family="sans-serif" font-size="13" lengthAdjust="spacing" textLength="199" x="340" y="296.5107">retornar la informaci&#243;n acad&#233;mica,</text><text fill="#000000" font-family="sans-serif" font-size="13" font-weight="bold" lengthAdjust="spacing" textLength="70" x="232" y="312.8623">retornando</text><text fill="#000000" font-family="sans-serif" font-size="13" lengthAdjust="spacing" textLength="122" x="306" y="312.8623">ALUMNO_ABIERTO.</text></g><!--link ALUMNO_ABIERTO_COMP to ALUMNOS_ABIERTO_FINAL--><g id="link_ALUMNO_ABIERTO_COMP_ALUMNOS_ABIERTO_FINAL"><path d="M221,674.0094 C221,718.5394 221,755.8194 221,781.5894 " fill="none" id="ALUMNO_ABIERTO_COMP-to-ALUMNOS_ABIERTO_FINAL" style="stroke:#FF0000;stroke-width:1.0;"/><polygon fill="#FF0000" points="221,787.5894,225,778.5894,221,782.5894,217,778.5894,221,787.5894" style="stroke:#FF0000;stroke-width:1.0;"/><text fill="#000000" font-family="sans-serif" font-size="13" lengthAdjust="spacing" textLength="125" x="391" y="718.1045">cerrarDetalleAlumno()</text><path d="M226,726.9609 L226,752.9609 L681,752.9609 L681,736.9609 L671,726.9609 L226,726.9609 " fill="#FEFFDD" style="stroke:#181818;stroke-width:0.5;"/><path d="M671,726.9609 L671,736.9609 L681,736.9609 L671,726.9609 " fill="#FEFFDD" style="stroke:#181818;stroke-width:0.5;"/><text fill="#000000" font-family="sans-serif" font-size="13" font-weight="bold" lengthAdjust="spacing" textLength="104" x="232" y="745.4561">Sistema permite</text><text fill="#000000" font-family="sans-serif" font-size="13" lengthAdjust="spacing" textLength="326" x="340" y="745.4561">nuevamente retornar el listado en ALUMNOS_ABIERTO.</text></g><!--SRC=[ZLFBRXD14BpFLxJ21H0nzoYoP1mihPJOKGAdA8ewixqmocptQcOMoI0aleKR1qvyWlyaNqBF-iKQ6xAdtPcgVbJL9fSymLWujZvXW3DAwFLavDkQnSG7nmq6hC4xfZHl21hny_nXJ4oO57d-_c8wkxuRlIdUNhsRtHNJOboCpW4Z7EtS7HsWJ8hfKmWR_7XsSGdvsLAs37FpyXQERvvz24HyUpmyDA0nXoR_czplV09shTTAhgLQpryO5frMEAlrO4xlXvT1AeeIJb_V3o4I4DkME0NKjzt1p1oK4SKxwn9sZ4qV80_bofgIe6N0hYLGRCWkVbREoi3aZjSk9geH6WgrIzIL2PGai5Rn28uh2JLQj_YbHIoMYn-ri_WgSrSuBgMZzNSV6E8IyeBc7wxiSGI-69FDMfBMKPiu-n6N5xk6zI4PqPCr7pnXqIgpLS6wyIgSgkPNcfrq5Hw_VOSpJ19pWIYCdYBCOI99DlTN5DjQZLB5CUPsR1rcL8KwNknmMr7oLs_qtbAwvC5LrYc1dlc1qBlFkapBg4vrZWrsUdvTfxZlWZOELEuB__9NqmHJ2F-FxpwDkQLFgAeeSYEtQkiLYgNioVKVmVaD]--></g></svg>