<svg xmlns="http://www.w3.org/2000/svg" xmlns:xlink="http://www.w3.org/1999/xlink" contentStyleType="text/css" data-diagram-type="STATE" height="826px" preserveAspectRatio="none" style="width:658px;height:826px;background:#FFFFFF;" version="1.1" viewBox="0 0 658 826" width="658px" zoomAndPan="magnify"><title>Consultar Lista Alumnos</title><defs/><g><text fill="#000000" font-family="sans-serif" font-size="14" font-weight="bold" lengthAdjust="spacing" textLength="165.6826" x="239.1587" y="24.5332">Consultar Lista Alumnos</text><g id="LISTAS_ABIERTO_INICIAL"><rect fill="#F1F1F1" height="50" rx="12.5" ry="12.5" style="stroke:#181818;stroke-width:0.5;" width="137.4824" x="146.5" y="125.6094"/><line style="stroke:#181818;stroke-width:0.5;" x1="146.5" x2="283.9824" y1="153.2188" y2="153.2188"/><text fill="#000000" font-family="sans-serif" font-size="14" lengthAdjust="spacing" textLength="117.4824" x="156.5" y="145.1426">LISTAS_ABIERTO</text></g><g id="LISTAS_ABIERTO_FINAL"><rect fill="#F1F1F1" height="50" rx="12.5" ry="12.5" style="stroke:#181818;stroke-width:0.5;" width="137.4824" x="146.5" y="770.6094"/><line style="stroke:#181818;stroke-width:0.5;" x1="146.5" x2="283.9824" y1="798.2188" y2="798.2188"/><text fill="#000000" font-family="sans-serif" font-size="14" lengthAdjust="spacing" textLength="117.4824" x="156.5" y="790.1426">LISTAS_ABIERTO</text></g><path d="M19.5,338.6094 L411,338.6094 A12.5,12.5 0 0 1 423.5,351.1094 L423.5,366.2188 L7,366.2188 L7,351.1094 A12.5,12.5 0 0 1 19.5,338.6094" fill="#F1F1F1" style="stroke:#F1F1F1;stroke-width:1;"/><rect fill="none" height="317.6094" rx="12.5" ry="12.5" style="stroke:#181818;stroke-width:0.5;" width="416.5" x="7" y="338.6094"/><line style="stroke:#181818;stroke-width:0.5;" x1="7" x2="423.5" y1="366.2188" y2="366.2188"/><text fill="#000000" font-family="sans-serif" font-size="14" lengthAdjust="spacing" textLength="106.5928" x="161.9536" y="358.1426">LISTA_ABIERTA</text><g id="LISTA_ABIERTA.VisualizacionListado"><rect fill="#F1F1F1" height="50" rx="12.5" ry="12.5" style="stroke:#181818;stroke-width:0.5;" width="146.8545" x="19" y="502.2188"/><line style="stroke:#181818;stroke-width:0.5;" x1="19" x2="165.8545" y1="529.8281" y2="529.8281"/><text fill="#000000" font-family="sans-serif" font-size="14" lengthAdjust="spacing" textLength="126.8545" x="29" y="521.752">VisualizacionListado</text></g><ellipse cx="92.5" cy="387.2188" fill="#222222" rx="10" ry="10" style="stroke:#222222;stroke-width:1;"/><ellipse cx="92.5" cy="635.2188" fill="none" rx="11" ry="11" style="stroke:#222222;stroke-width:1;"/><ellipse cx="92.5" cy="635.2188" fill="#222222" rx="6" ry="6" style="stroke:#222222;stroke-width:1;"/><!--link *start*LISTA_ABIERTA to VisualizacionListado--><g class="link" data-entity-1="*start*LISTA_ABIERTA" data-entity-2="VisualizacionListado" data-source-line="22" data-uid="lnk6" id="link_*start*LISTA_ABIERTA_VisualizacionListado"><path d="M92.5,397.2688 C92.5,418.2587 92.5,464.8088 92.5,495.9688" fill="none" id="*start*LISTA_ABIERTA-to-VisualizacionListado" style="stroke:#008000;stroke-width:1;"/><polygon fill="#008000" points="92.5,501.9688,96.5,492.9688,92.5,496.9688,88.5,492.9688,92.5,501.9688" style="stroke:#008000;stroke-width:1;"/><path d="M97.5,420.2188 L97.5,479.2188 L414.5,479.2188 L414.5,430.2188 L404.5,420.2188 L97.5,420.2188" fill="#FEFFDD" style="stroke:#181818;stroke-width:0.5;"/><path d="M404.5,420.2188 L404.5,430.2188 L414.5,430.2188 L404.5,420.2188" fill="#FEFFDD" style="stroke:#181818;stroke-width:0.5;"/><text fill="#000000" font-family="sans-serif" font-size="13" font-weight="bold" lengthAdjust="spacing" textLength="104.0508" x="103.5" y="438.7139">Sistema muestra</text><text fill="#000000" font-family="sans-serif" font-size="13" lengthAdjust="spacing" textLength="188.5889" x="211.1626" y="438.7139">la lista de alumnos matriculados:</text><text fill="#000000" font-family="sans-serif" font-size="13" lengthAdjust="spacing" textLength="220.6128" x="103.5" y="455.0654">&#8226; Nombres, Apellidos e Identificadores</text><text fill="#000000" font-family="sans-serif" font-size="13" lengthAdjust="spacing" textLength="138.2393" x="103.5" y="471.417">&#8226; Estado de la matr&#237;cula</text></g><!--link VisualizacionListado to *end*LISTA_ABIERTA--><g class="link" data-entity-1="VisualizacionListado" data-entity-2="*end*LISTA_ABIERTA" data-source-line="29" data-uid="lnk8" id="link_VisualizacionListado_*end*LISTA_ABIERTA"><path d="M92.5,552.2688 C92.5,574.8688 92.5,601.5988 92.5,618.0188" fill="none" id="VisualizacionListado-to-*end*LISTA_ABIERTA" style="stroke:#008000;stroke-width:1;"/><polygon fill="#008000" points="92.5,624.0188,96.5,615.0188,92.5,619.0188,88.5,615.0188,92.5,624.0188" style="stroke:#008000;stroke-width:1;"/><path d="M97.5,575.2188 L97.5,601.2188 L336.5,601.2188 L336.5,585.2188 L326.5,575.2188 L97.5,575.2188" fill="#FEFFDD" style="stroke:#181818;stroke-width:0.5;"/><path d="M326.5,575.2188 L326.5,585.2188 L336.5,585.2188 L326.5,575.2188" fill="#FEFFDD" style="stroke:#181818;stroke-width:0.5;"/><text fill="#000000" font-family="sans-serif" font-size="13" font-weight="bold" lengthAdjust="spacing" textLength="101.8672" x="103.5" y="593.7139">Profesor solicita</text><text fill="#000000" font-family="sans-serif" font-size="13" lengthAdjust="spacing" textLength="112.728" x="208.979" y="593.7139">realizar una acci&#243;n.</text></g><ellipse cx="215" cy="54.6094" fill="#222222" rx="10" ry="10" style="stroke:#222222;stroke-width:1;"/><!--link *start* to LISTAS_ABIERTO_INICIAL--><g class="link" data-entity-1="*start*" data-entity-2="LISTAS_ABIERTO_INICIAL" data-source-line="8" data-uid="lnk3" id="link_*start*_LISTAS_ABIERTO_INICIAL"><path d="M215,64.6194 C215,78.4994 215,99.5794 215,119.4494" fill="none" id="*start*-to-LISTAS_ABIERTO_INICIAL" style="stroke:#008000;stroke-width:1;"/><polygon fill="#008000" points="215,125.4494,219,116.4494,215,120.4494,211,116.4494,215,125.4494" style="stroke:#008000;stroke-width:1;"/></g><!--link LISTAS_ABIERTO_INICIAL to LISTA_ABIERTA--><g class="link" data-entity-1="LISTAS_ABIERTO_INICIAL" data-entity-2="LISTA_ABIERTA" data-source-line="10" data-uid="lnk4" id="link_LISTAS_ABIERTO_INICIAL_LISTA_ABIERTA"><path d="M215,175.8694 C215,210.1494 215,269.6194 215,332.5194" fill="none" id="LISTAS_ABIERTO_INICIAL-to-LISTA_ABIERTA" style="stroke:#008000;stroke-width:1;"/><polygon fill="#008000" points="215,338.5194,219,329.5194,215,333.5194,211,329.5194,215,338.5194" style="stroke:#008000;stroke-width:1;"/><text fill="#000000" font-family="sans-serif" font-size="13" lengthAdjust="spacing" textLength="139.4453" x="312.5212" y="220.1045">consultarListaAlumnos()</text><path d="M220,228.9609 L220,303.9609 L544,303.9609 L544,238.9609 L534,228.9609 L220,228.9609" fill="#FEFFDD" style="stroke:#181818;stroke-width:0.5;"/><path d="M534,228.9609 L534,238.9609 L544,238.9609 L534,228.9609" fill="#FEFFDD" style="stroke:#181818;stroke-width:0.5;"/><text fill="#000000" font-family="sans-serif" font-size="13" font-weight="bold" lengthAdjust="spacing" textLength="53.46" x="226" y="247.4561">Profesor</text><text fill="#000000" font-family="sans-serif" font-size="13" lengthAdjust="spacing" textLength="205.937" x="283.0718" y="247.4561">se encuentra en LISTAS_ABIERTO</text><text fill="#000000" font-family="sans-serif" font-size="13" lengthAdjust="spacing" textLength="6.5" x="226" y="263.8076">y</text><text fill="#000000" font-family="sans-serif" font-size="13" font-weight="bold" lengthAdjust="spacing" textLength="44.7954" x="236.1118" y="263.8076">solicita</text><text fill="#000000" font-family="sans-serif" font-size="13" lengthAdjust="spacing" textLength="244.9688" x="284.519" y="263.8076">consultar el listado de un curso espec&#237;fico.</text><text fill="#000000" font-family="sans-serif" font-size="13" lengthAdjust="spacing" textLength="3.6118" x="226" y="280.1592">&#160;</text><text fill="#000000" font-family="sans-serif" font-size="13" font-weight="bold" lengthAdjust="spacing" textLength="104.0508" x="226" y="296.5107">Sistema muestra</text><text fill="#000000" font-family="sans-serif" font-size="13" lengthAdjust="spacing" textLength="102.5908" x="333.6626" y="296.5107">LISTA_ABIERTA.</text></g><!--link LISTA_ABIERTA to LISTAS_ABIERTO_FINAL--><g class="link" data-entity-1="LISTA_ABIERTA" data-entity-2="LISTAS_ABIERTO_FINAL" data-source-line="35" data-uid="lnk9" id="link_LISTA_ABIERTA_LISTAS_ABIERTO_FINAL"><path d="M215,657.0094 C215,701.5394 215,738.8194 215,764.5894" fill="none" id="LISTA_ABIERTA-to-LISTAS_ABIERTO_FINAL" style="stroke:#FF0000;stroke-width:1;"/><polygon fill="#FF0000" points="215,770.5894,219,761.5894,215,765.5894,211,761.5894,215,770.5894" style="stroke:#FF0000;stroke-width:1;"/><text fill="#000000" font-family="sans-serif" font-size="13" lengthAdjust="spacing" textLength="70.0654" x="400.687" y="701.1045">cerrarLista()</text><path d="M220,709.9609 L220,735.9609 L651,735.9609 L651,719.9609 L641,709.9609 L220,709.9609" fill="#FEFFDD" style="stroke:#181818;stroke-width:0.5;"/><path d="M641,709.9609 L641,719.9609 L651,719.9609 L641,709.9609" fill="#FEFFDD" style="stroke:#181818;stroke-width:0.5;"/><text fill="#000000" font-family="sans-serif" font-size="13" font-weight="bold" lengthAdjust="spacing" textLength="104.0508" x="226" y="728.4561">Sistema muestra</text><text fill="#000000" font-family="sans-serif" font-size="13" lengthAdjust="spacing" textLength="302.7769" x="333.6626" y="728.4561">nuevamente el men&#250; general en LISTAS_ABIERTO.</text></g><!--SRC=[ZLDDQzj04BtlhnYSIrfYznw2GJ4E28mRuj1B266y6eV5grsn7m6t5FfRUi-fjrxzJ_fBEYlPSkJ8j3hjxhoPD_FcAQYW2IRM-AW3EfWf7n0o7KjZlV1hPIfqM89MXiAc8gYitgIB40mC1BDySPyjdhBhV7ft__afd-UJF9i1UXXqGuF-X9jy_c_uxZ4xuFOl0o4UFZx2yE7isH6Pn-7uH4T2dEZqNMfBTWbohqijoqwLym_2MExCcgJAMbmjnxVEhiXRT_LfEGPFG4P6Ci4Xduxw4HlW16-raYfWdT2o06akoKo5XO8W6f3HUGlaAvBRrvMITYGItu91L2AKaJopr5KwlOy4cG9Ic-8_TOHlGW1_3VgByX6r-efIMJDhMchYnsht8XEmer5wED6tncRcD34s2aE9mIaPDTVobtNodny_OMxBfID_0Lb5MYkE0K5UiD2AfM4i1rlmj9MH2LAzxMigMCSFsgHRtmIT4NdaanFjDm-TZJgg2pfU8G9AgRQ_pAXB_Nrdo7ObpEYew35myuUm6ScvdHDxBDWdhOdqWYNhGybPVDZ-XcSov52_D-ORo_m5]--></g></svg>