<svg xmlns="http://www.w3.org/2000/svg" xmlns:xlink="http://www.w3.org/1999/xlink" version="1.1" data-diagram-type="STATE" style="width:513px;height:770px;background:#FFFFFF;" width="513px" height="770px" viewBox="0 0 513 770" zoomAndPan="magnify" preserveAspectRatio="none" contentStyleType="text/css"><?plantuml 1.2026.7beta8?><defs/><g font-family="sans-serif" lengthAdjust="spacing"><g class="entity" data-qualified-name="consultarDetalleAlumno" id="ent0001" data-source-line="9"><path d="M19.5,7 L485.5,7 A12.5,12.5 0 0 1 498,19.5 L498,33.297 L7,33.297 L7,19.5 A12.5,12.5 0 0 1 19.5,7" fill="#F5F5F5"/><path d="M7,33.297 L498,33.297 L498,474.797 A12.5,12.5 0 0 1 485.5,487.297 L19.5,487.297 A12.5,12.5 0 0 1 7,474.797 L7,33.297" fill="#F5F5F5"/><rect x="7" y="7" width="491" height="480.297" fill="none" style="stroke:#808080;stroke-width:0.5;" rx="12.5" ry="12.5"/><line x1="7" y1="33.297" x2="498" y2="33.297" style="stroke:#808080;stroke-width:0.5;"/><text x="162.895" y="24.995" fill="#000" font-size="14" textLength="179.211">consultarDetalleAlumno()</text><g class="entity" data-qualified-name="consultarDetalleAlumno.Paso1" id="ent0002" data-source-line="10"><rect x="19" y="135.297" width="50" height="50" fill="#F5F5F5" style="stroke:#808080;stroke-width:0.5;" rx="12.5" ry="12.5"/><line x1="19" y1="161.594" x2="69" y2="161.594" style="stroke:#808080;stroke-width:0.5;"/><text x="41.775" y="153.292" fill="#000" font-size="14"> </text></g><g class="entity" data-qualified-name="consultarDetalleAlumno.Paso2" id="ent0003" data-source-line="11"><rect x="19" y="301.297" width="50" height="50" fill="#F5F5F5" style="stroke:#808080;stroke-width:0.5;" rx="12.5" ry="12.5"/><line x1="19" y1="327.594" x2="69" y2="327.594" style="stroke:#808080;stroke-width:0.5;"/><text x="41.775" y="319.292" fill="#000" font-size="14"> </text></g><g class="start_entity" data-qualified-name="consultarDetalleAlumno..start.consultarDetalleAlumno" id="ent0005" data-source-line="13"><ellipse cx="44" cy="54.297" rx="10" ry="10" fill="#222" style="stroke:#222;stroke-width:1;"/></g><g class="end_entity" data-qualified-name="consultarDetalleAlumno..end.consultarDetalleAlumno" id="ent0008" data-source-line="26"><ellipse cx="44" cy="463.297" rx="11" ry="11" fill="none" style="stroke:#222;stroke-width:1;"/><ellipse cx="44" cy="463.297" rx="6" ry="6" fill="#222" style="stroke:#222;stroke-width:1;"/></g><!--link *start*consultarDetalleAlumno to Paso1--><g class="link" data-entity-1="ent0005" data-entity-2="ent0002" id="lnk6" data-source-line="13" data-link-type="dependency"><path d="M44,64.527 C44,80.237 44,107.657 44,130.167" style="stroke:#008000;stroke-width:1;" fill="none" id="*start*consultarDetalleAlumno-to-Paso1"/><polygon points="44,135.167,48,126.167,44,130.167,40,126.167,44,135.167" fill="#008000" style="stroke:#008000;stroke-width:1;stroke-linejoin:miter;stroke-miterlimit:10;"/><path d="M49,87.297 L49,112.297 L474,112.297 L474,97.297 L464,87.297 L49,87.297" style="stroke:#808080;stroke-width:0.5;" fill="#FFFFE0"/><path d="M464,87.297 L464,97.297 L474,97.297 L464,87.297" style="stroke:#808080;stroke-width:0.5;" fill="#FFFFE0"/><text x="55" y="104.364" fill="#000" font-size="13" textLength="62.423" font-weight="700">Profesor</text><text x="121.555" y="104.364" fill="#000" font-size="13" textLength="337.689">solicita consultar el detalle de un alumno específico</text></g><!--link Paso1 to Paso2--><g class="link" data-entity-1="ent0002" data-entity-2="ent0003" id="lnk7" data-source-line="18" data-link-type="dependency"><path d="M44,185.497 C44,216.507 44,264.947 44,295.997" style="stroke:#008000;stroke-width:1;" fill="none" id="Paso1-to-Paso2"/><polygon points="44,300.997,48,291.997,44,295.997,40,291.997,44,300.997" fill="#008000" style="stroke:#008000;stroke-width:1;stroke-linejoin:miter;stroke-miterlimit:10;"/><path d="M49,208.297 L49,278.297 L436,278.297 L436,218.297 L426,208.297 L49,208.297" style="stroke:#808080;stroke-width:0.5;" fill="#FFFFE0"/><path d="M426,208.297 L426,218.297 L436,218.297 L426,208.297" style="stroke:#808080;stroke-width:0.5;" fill="#FFFFE0"/><text x="55" y="225.364" fill="#000" font-size="13" textLength="58.906" font-weight="700">Sistema</text><text x="118.039" y="225.364" fill="#000" font-size="13" textLength="303.627">permite mostrar la ficha completa del alumno:</text><text x="55" y="240.497" fill="#000" font-size="13" textLength="275.45">• Nombres Completos y Asignatura Actual</text><text x="55" y="255.629" fill="#000" font-size="13" textLength="316.304">• Porcentaje de Asistencia y Faltas Injustificadas</text><text x="55" y="270.762" fill="#000" font-size="13" textLength="156.146">• Sesiones Dispensadas</text></g><!--link Paso2 to *end*consultarDetalleAlumno--><g class="link" data-entity-1="ent0003" data-entity-2="ent0008" id="lnk9" data-source-line="26" data-link-type="dependency"><path d="M44,351.747 C44,381.527 44,425.507 44,446.837" style="stroke:#008000;stroke-width:1;" fill="none" id="Paso2-to-*end*consultarDetalleAlumno"/><polygon points="44,451.837,48,442.837,44,446.837,40,442.837,44,451.837" fill="#008000" style="stroke:#008000;stroke-width:1;stroke-linejoin:miter;stroke-miterlimit:10;"/><path d="M49,374.297 L49,429.297 L391,429.297 L391,384.297 L381,374.297 L49,374.297" style="stroke:#808080;stroke-width:0.5;" fill="#FFFFE0"/><path d="M381,374.297 L381,384.297 L391,384.297 L381,374.297" style="stroke:#808080;stroke-width:0.5;" fill="#FFFFE0"/><text x="55" y="391.364" fill="#000" font-size="13" textLength="62.423" font-weight="700">Profesor</text><text x="121.555" y="391.364" fill="#000" font-size="13" textLength="213.338">revisa la información del alumno</text><text x="55" y="406.497" fill="#000" font-size="13" textLength="58.906" font-weight="700">Sistema</text><text x="118.039" y="406.497" fill="#000" font-size="13" textLength="258.502">permite mantener los datos en pantalla</text><text x="55" y="421.629" fill="#000" font-size="13" textLength="225.139">• Permite solicitar volver al listado</text></g></g><g class="entity" data-qualified-name="ALUMNOS_ABIERTO" id="ent0004" data-source-line="34"><rect x="173.23" y="706.3" width="158.537" height="50" fill="#F5F5F5" style="stroke:#808080;stroke-width:0.5;" rx="12.5" ry="12.5"/><line x1="173.23" y1="732.597" x2="331.767" y2="732.597" style="stroke:#808080;stroke-width:0.5;"/><text x="183.23" y="724.295" fill="#000" font-size="14" textLength="138.537">ALUMNOS_ABIERTO</text></g><!--link consultarDetalleAlumno to ALUMNOS_ABIERTO--><g class="link" data-entity-1="ent0001" data-entity-2="ent0004" id="lnk10" data-source-line="36" data-link-type="dependency"><path d="M252.5,487.46 C252.5,575.7 252.5,659.26 252.5,700.83" style="stroke:#00F;stroke-width:1;" fill="none" id="consultarDetalleAlumno-to-ALUMNOS_ABIERTO"/><polygon points="252.5,705.83,256.5,696.83,252.5,700.83,248.5,696.83,252.5,705.83" fill="#00F" style="stroke:#00F;stroke-width:1;stroke-linejoin:miter;stroke-miterlimit:10;"/><path d="M257.5,584.3 L257.5,609.3 L375.5,609.3 L375.5,594.3 L365.5,584.3 L257.5,584.3" style="stroke:#808080;stroke-width:0.5;" fill="#FFFFE0"/><path d="M365.5,584.3 L365.5,594.3 L375.5,594.3 L365.5,584.3" style="stroke:#808080;stroke-width:0.5;" fill="#FFFFE0"/><text x="263.5" y="601.367" fill="#000" font-size="13" textLength="97.037">abrirAlumnos()</text></g><?plantuml-src ZLDDRXDX3DtFAQnsqo95G2HOe2fIsbAf4hGHWLKL8MV6JR_c6tjaVnCK8IJEmhuhZj2RS18yapGCIVcPB4PvVhQVdpqs3roXOWai1HbLyF9PPXjGaUSxO0nCQLaHL1ANpPzEx48I7MC-dwdKN9n857N-x2OjAKRvjCqKBKXNh9dYiXCU9zojj7_seldjqBRBPDR0i9SBMnqJwYabZ966iIvP3Wxt00qU3yBd3FnP5u2MEKAJvu_3_Qp5hvvCe7UrFrCYdlG6dGpsCK6uCMtU0W17qy58vPfCzEZfT00cCUGXuIz5G16AbIf_Gys0At5a5UNtTzSXbxOOST5sMAbek-xewFz5npXOeX9R6HLf6PnKYYLr3H71-zmqiiegkXgN4jT2NgrB_FZwpHTPJfKCJbOqCLZ2qCACCTMACCnJZR737udcn0blszcSwH8u3-XfP-ZJ6vppRMqfU7Siq3gfOx8WxBrEWnl1jWdl-j3_pGVVp_zkGsaH39lf0r-BbfY7--_ScVqVxY7xEEJskH45DdOGG-MeRnExDgmJ7hQli92uy4ICBiyFhTXQyPVDMG_VV7XxSJd-E3m-V_tk_MLxZ5jObltXlDsLQQnfqkkvBTj9hJtQVAuTat2gGLVPTd2OFUZv2G00?></g></svg>