<svg xmlns="http://www.w3.org/2000/svg" xmlns:xlink="http://www.w3.org/1999/xlink" contentStyleType="text/css" data-diagram-type="STATE" height="924px" preserveAspectRatio="none" style="width:647px;height:924px;background:#FFFFFF;" version="1.1" viewBox="0 0 647 924" width="647px" zoomAndPan="magnify"><title>Crear Sesi&#243;n Clase</title><defs/><g><text fill="#000000" font-family="sans-serif" font-size="14" font-weight="bold" lengthAdjust="spacing" textLength="127.6201" x="252.6899" y="24.5332">Crear Sesi&#243;n Clase</text><g id="ASISTENCIAS_ABIERTO_INICIAL"><rect fill="#F1F1F1" height="50" rx="12.5" ry="12.5" style="stroke:#181818;stroke-width:0.5;" width="181.8203" x="164" y="125.6094"/><line style="stroke:#181818;stroke-width:0.5;" x1="164" x2="345.8203" y1="153.2188" y2="153.2188"/><text fill="#000000" font-family="sans-serif" font-size="14" lengthAdjust="spacing" textLength="161.8203" x="174" y="145.1426">ASISTENCIAS_ABIERTO</text></g><g id="ASISTENCIAS_ABIERTO_FINAL"><rect fill="#F1F1F1" height="50" rx="12.5" ry="12.5" style="stroke:#181818;stroke-width:0.5;" width="181.8203" x="7" y="868.6094"/><line style="stroke:#181818;stroke-width:0.5;" x1="7" x2="188.8203" y1="896.2188" y2="896.2188"/><text fill="#000000" font-family="sans-serif" font-size="14" lengthAdjust="spacing" textLength="161.8203" x="17" y="888.1426">ASISTENCIAS_ABIERTO</text></g><path d="M64,338.6094 L446.5,338.6094 A12.5,12.5 0 0 1 459,351.1094 L459,366.2188 L51.5,366.2188 L51.5,351.1094 A12.5,12.5 0 0 1 64,338.6094" fill="#F1F1F1" style="stroke:#F1F1F1;stroke-width:1;"/><rect fill="none" height="382.6094" rx="12.5" ry="12.5" style="stroke:#181818;stroke-width:0.5;" width="407.5" x="51.5" y="338.6094"/><line style="stroke:#181818;stroke-width:0.5;" x1="51.5" x2="459" y1="366.2188" y2="366.2188"/><text fill="#000000" font-family="sans-serif" font-size="14" lengthAdjust="spacing" textLength="211.6201" x="149.4399" y="358.1426">SESION_ASISTENCIA_ABIERTA</text><g id="SESION_NUEVA_COMP.ConfiguracionDatos"><rect fill="#F1F1F1" height="50" rx="12.5" ry="12.5" style="stroke:#181818;stroke-width:0.5;" width="142.958" x="63.5" y="534.2188"/><line style="stroke:#181818;stroke-width:0.5;" x1="63.5" x2="206.458" y1="561.8281" y2="561.8281"/><text fill="#000000" font-family="sans-serif" font-size="14" lengthAdjust="spacing" textLength="122.958" x="73.5" y="553.752">ConfiguracionDatos</text></g><ellipse cx="135" cy="387.2188" fill="#222222" rx="10" ry="10" style="stroke:#222222;stroke-width:1;"/><ellipse cx="135" cy="700.2188" fill="none" rx="11" ry="11" style="stroke:#222222;stroke-width:1;"/><ellipse cx="135" cy="700.2188" fill="#222222" rx="6" ry="6" style="stroke:#222222;stroke-width:1;"/><!--link *start*SESION_NUEVA_COMP to ConfiguracionDatos--><g class="link" data-entity-1="*start*SESION_NUEVA_COMP" data-entity-2="ConfiguracionDatos" data-source-line="23" data-uid="lnk6" id="link_*start*SESION_NUEVA_COMP_ConfiguracionDatos"><path d="M135,397.3588 C135,422.9488 135,489.9088 135,528.1588" fill="none" id="*start*SESION_NUEVA_COMP-to-ConfiguracionDatos" style="stroke:#008000;stroke-width:1;"/><polygon fill="#008000" points="135,534.1588,139,525.1588,135,529.1588,131,525.1588,135,534.1588" style="stroke:#008000;stroke-width:1;"/><path d="M140,420.2188 L140,511.2188 L450,511.2188 L450,430.2188 L440,420.2188 L140,420.2188" fill="#FEFFDD" style="stroke:#181818;stroke-width:0.5;"/><path d="M440,420.2188 L440,430.2188 L450,430.2188 L440,420.2188" fill="#FEFFDD" style="stroke:#181818;stroke-width:0.5;"/><text fill="#000000" font-family="sans-serif" font-size="13" font-weight="bold" lengthAdjust="spacing" textLength="100.4326" x="146" y="438.7139">Sistema permite</text><text fill="#000000" font-family="sans-serif" font-size="13" lengthAdjust="spacing" textLength="185.7134" x="250.0444" y="438.7139">introducir los datos de la sesi&#243;n.</text><text fill="#000000" font-family="sans-serif" font-size="13" lengthAdjust="spacing" textLength="3.6118" x="146" y="455.0654">&#160;</text><text fill="#000000" font-family="sans-serif" font-size="13" font-weight="bold" lengthAdjust="spacing" textLength="116.2954" x="146" y="471.417">Profesor introduce</text><text fill="#000000" font-family="sans-serif" font-size="13" lengthAdjust="spacing" textLength="143.0762" x="265.9072" y="471.417">la informaci&#243;n requerida:</text><text fill="#000000" font-family="sans-serif" font-size="13" lengthAdjust="spacing" textLength="154.1401" x="146" y="487.7686">&#8226; Asignatura, Grupo y Aula</text><text fill="#000000" font-family="sans-serif" font-size="13" lengthAdjust="spacing" textLength="127.3784" x="146" y="504.1201">&#8226; Fecha, Hora y Tema</text></g><!--link ConfiguracionDatos to *end*SESION_NUEVA_COMP--><g class="link" data-entity-1="ConfiguracionDatos" data-entity-2="*end*SESION_NUEVA_COMP" data-source-line="32" data-uid="lnk8" id="link_ConfiguracionDatos_*end*SESION_NUEVA_COMP"><path d="M135,584.4288 C135,615.2288 135,661.0588 135,682.9588" fill="none" id="ConfiguracionDatos-to-*end*SESION_NUEVA_COMP" style="stroke:#008000;stroke-width:1;"/><polygon fill="#008000" points="135,688.9588,139,679.9588,135,683.9588,131,679.9588,135,688.9588" style="stroke:#008000;stroke-width:1;"/><path d="M140,607.2188 L140,666.2188 L441,666.2188 L441,617.2188 L431,607.2188 L140,607.2188" fill="#FEFFDD" style="stroke:#181818;stroke-width:0.5;"/><path d="M431,607.2188 L431,617.2188 L441,617.2188 L431,607.2188" fill="#FEFFDD" style="stroke:#181818;stroke-width:0.5;"/><text fill="#000000" font-family="sans-serif" font-size="13" font-weight="bold" lengthAdjust="spacing" textLength="104.0508" x="146" y="625.7139">Sistema muestra</text><text fill="#000000" font-family="sans-serif" font-size="13" lengthAdjust="spacing" textLength="172.7134" x="253.6626" y="625.7139">el resumen de la nueva clase.</text><text fill="#000000" font-family="sans-serif" font-size="13" lengthAdjust="spacing" textLength="3.6118" x="146" y="642.0654">&#160;</text><text fill="#000000" font-family="sans-serif" font-size="13" font-weight="bold" lengthAdjust="spacing" textLength="101.8672" x="146" y="658.417">Profesor solicita</text><text fill="#000000" font-family="sans-serif" font-size="13" lengthAdjust="spacing" textLength="92.4854" x="251.479" y="658.417">iniciar la sesi&#243;n.</text></g><g id="SESION_ACTIVA_FINAL"><rect fill="#F1F1F1" height="50" rx="12.5" ry="12.5" style="stroke:#181818;stroke-width:0.5;" width="231.6201" x="297" y="868.6094"/><line style="stroke:#181818;stroke-width:0.5;" x1="297" x2="528.6201" y1="896.2188" y2="896.2188"/><text fill="#000000" font-family="sans-serif" font-size="14" lengthAdjust="spacing" textLength="211.6201" x="307" y="888.1426">SESION_ASISTENCIA_ABIERTA</text></g><ellipse cx="255" cy="54.6094" fill="#222222" rx="10" ry="10" style="stroke:#222222;stroke-width:1;"/><!--link *start* to ASISTENCIAS_ABIERTO_INICIAL--><g class="link" data-entity-1="*start*" data-entity-2="ASISTENCIAS_ABIERTO_INICIAL" data-source-line="9" data-uid="lnk3" id="link_*start*_ASISTENCIAS_ABIERTO_INICIAL"><path d="M255,64.6194 C255,78.4994 255,99.5794 255,119.4494" fill="none" id="*start*-to-ASISTENCIAS_ABIERTO_INICIAL" style="stroke:#008000;stroke-width:1;"/><polygon fill="#008000" points="255,125.4494,259,116.4494,255,120.4494,251,116.4494,255,125.4494" style="stroke:#008000;stroke-width:1;"/></g><!--link ASISTENCIAS_ABIERTO_INICIAL to SESION_NUEVA_COMP--><g class="link" data-entity-1="ASISTENCIAS_ABIERTO_INICIAL" data-entity-2="SESION_NUEVA_COMP" data-source-line="11" data-uid="lnk4" id="link_ASISTENCIAS_ABIERTO_INICIAL_SESION_NUEVA_COMP"><path d="M255,175.7994 C255,209.4794 255,267.6794 255,332.2194" fill="none" id="ASISTENCIAS_ABIERTO_INICIAL-to-SESION_NUEVA_COMP" style="stroke:#008000;stroke-width:1;"/><polygon fill="#008000" points="255,338.2194,259,329.2194,255,333.2194,251,329.2194,255,338.2194" style="stroke:#008000;stroke-width:1;"/><text fill="#000000" font-family="sans-serif" font-size="13" lengthAdjust="spacing" textLength="111.2617" x="368.7585" y="220.1045">crearSesionClase()</text><path d="M260,228.9609 L260,303.9609 L588,303.9609 L588,238.9609 L578,228.9609 L260,228.9609" fill="#FEFFDD" style="stroke:#181818;stroke-width:0.5;"/><path d="M578,228.9609 L578,238.9609 L588,238.9609 L578,228.9609" fill="#FEFFDD" style="stroke:#181818;stroke-width:0.5;"/><text fill="#000000" font-family="sans-serif" font-size="13" font-weight="bold" lengthAdjust="spacing" textLength="53.46" x="266" y="247.4561">Profesor</text><text fill="#000000" font-family="sans-serif" font-size="13" lengthAdjust="spacing" textLength="247.1079" x="323.0718" y="247.4561">se encuentra en ASISTENCIAS_ABIERTO</text><text fill="#000000" font-family="sans-serif" font-size="13" lengthAdjust="spacing" textLength="6.5" x="266" y="263.8076">y</text><text fill="#000000" font-family="sans-serif" font-size="13" font-weight="bold" lengthAdjust="spacing" textLength="44.7954" x="276.1118" y="263.8076">solicita</text><text fill="#000000" font-family="sans-serif" font-size="13" lengthAdjust="spacing" textLength="190.7852" x="324.519" y="263.8076">crear una nueva sesi&#243;n de clase.</text><text fill="#000000" font-family="sans-serif" font-size="13" lengthAdjust="spacing" textLength="3.6118" x="266" y="280.1592">&#160;</text><text fill="#000000" font-family="sans-serif" font-size="13" font-weight="bold" lengthAdjust="spacing" textLength="104.0508" x="266" y="296.5107">Sistema muestra</text><text fill="#000000" font-family="sans-serif" font-size="13" lengthAdjust="spacing" textLength="200.1162" x="373.6626" y="296.5107">SESION_ASISTENCIA_ABIERTA.</text></g><!--link SESION_NUEVA_COMP to SESION_ACTIVA_FINAL--><g class="link" data-entity-1="SESION_NUEVA_COMP" data-entity-2="SESION_ACTIVA_FINAL" data-source-line="40" data-uid="lnk9" id="link_SESION_NUEVA_COMP_SESION_ACTIVA_FINAL"><path d="M357.95,721.8694 C367.68,739.8994 374,751.6094 374,751.6094 C374,751.6094 393.5391,822.2769 404.6991,862.5869" fill="none" id="SESION_NUEVA_COMP-to-SESION_ACTIVA_FINAL" style="stroke:#008000;stroke-width:1;"/><polygon fill="#008000" points="406.3,868.3694,407.7536,858.6284,404.9659,863.5506,400.0437,860.7629,406.3,868.3694" style="stroke:#008000;stroke-width:1;"/><text fill="#000000" font-family="sans-serif" font-size="13" lengthAdjust="spacing" textLength="82.3608" x="479.4136" y="766.1045">iniciarSesion()</text><path d="M401,774.9609 L401,833.9609 L640,833.9609 L640,784.9609 L630,774.9609 L401,774.9609" fill="#FEFFDD" style="stroke:#181818;stroke-width:0.5;"/><path d="M630,774.9609 L630,784.9609 L640,784.9609 L630,774.9609" fill="#FEFFDD" style="stroke:#181818;stroke-width:0.5;"/><text fill="#000000" font-family="sans-serif" font-size="13" font-weight="bold" lengthAdjust="spacing" textLength="107.6689" x="407" y="793.4561">Sistema visualiza</text><text fill="#000000" font-family="sans-serif" font-size="13" lengthAdjust="spacing" textLength="88.8799" x="518.2808" y="793.4561">la sesi&#243;n activa</text><text fill="#000000" font-family="sans-serif" font-size="13" lengthAdjust="spacing" textLength="6.5" x="407" y="809.8076">y</text><text fill="#000000" font-family="sans-serif" font-size="13" font-weight="bold" lengthAdjust="spacing" textLength="111.2363" x="417.1118" y="809.8076">permite introducir</text><text fill="#000000" font-family="sans-serif" font-size="13" lengthAdjust="spacing" textLength="71.5381" x="531.96" y="809.8076">la asistencia</text><text fill="#000000" font-family="sans-serif" font-size="13" lengthAdjust="spacing" textLength="218.188" x="407" y="826.1592">en SESION_ASISTENCIA_ABIERTA.</text></g><!--link SESION_NUEVA_COMP to ASISTENCIAS_ABIERTO_FINAL--><g class="link" data-entity-1="SESION_NUEVA_COMP" data-entity-2="ASISTENCIAS_ABIERTO_FINAL" data-source-line="47" data-uid="lnk10" id="link_SESION_NUEVA_COMP_ASISTENCIAS_ABIERTO_FINAL"><path d="M116.58,721.8694 C103.5,739.8994 95,751.6094 95,751.6094 C95,751.6094 95,838.6094 95,838.6094 C95,838.6094 95.5265,848.0887 96.3265,862.4587" fill="none" id="SESION_NUEVA_COMP-to-ASISTENCIAS_ABIERTO_FINAL" style="stroke:#FF0000;stroke-width:1;"/><polygon fill="#FF0000" points="96.66,868.4494,100.1535,859.2409,96.3821,863.4571,92.1659,859.6856,96.66,868.4494" style="stroke:#FF0000;stroke-width:1;"/><text fill="#000000" font-family="sans-serif" font-size="13" lengthAdjust="spacing" textLength="109.8208" x="177.6868" y="774.1045">cancelarCreacion()</text><path d="M100,782.9609 L100,824.9609 L365,824.9609 L365,792.9609 L355,782.9609 L100,782.9609" fill="#FEFFDD" style="stroke:#181818;stroke-width:0.5;"/><path d="M355,782.9609 L355,792.9609 L365,792.9609 L355,782.9609" fill="#FEFFDD" style="stroke:#181818;stroke-width:0.5;"/><text fill="#000000" font-family="sans-serif" font-size="13" font-weight="bold" lengthAdjust="spacing" textLength="104.0508" x="106" y="801.4561">Sistema muestra</text><text fill="#000000" font-family="sans-serif" font-size="13" lengthAdjust="spacing" textLength="126.4707" x="213.6626" y="801.4561">nuevamente el listado</text><text fill="#000000" font-family="sans-serif" font-size="13" lengthAdjust="spacing" textLength="244.1943" x="106" y="817.8076">en ASISTENCIAS_ABIERTO sin cambios.</text></g><!--SRC=[ZLHHRjD04FtVKupA3w0s_4TL9DUaO0cI2WT-gYgQs9EmwdetxAuZ1OJ4MRW2H-0cd8HPEqwSn4dhBwzdvisyzsRjfLS4iIMqa9AJV_zeY1Kw4kvHwYLQB419JNwz95WQjGu78Pn7Jn2bIJePZk8aIgVHJJByD1bFar72vm-03YuwuXTdIc-JqTE5wJ1DngFfwFFmIpIDnn_lOFU4qaryXx01Y0u0edYIC4BTyva0ulxr0rpTlrXO8lrmDJWdW13dr6c373FgGnOC2NuONRdnyfNGXeStEhZnAAvdWpjhvkIClNup6u0Z89sLfBr5VkiQJAo1gvnHCfCUgwgg2vGQGPUqGaQf5o0do4BNdWYDKkay5GX5IOxXgygJ8lK4wHp2hEAaOJ-426BNuTZekLoK5ZFc-XQzSNNqKEgEl92sfqhuq1fuIRQGdgg19IjZyZAJ5fHna0U0m5DjMVT4Kzyekosg8JXLwhcn1OyGLBBqhIGhS-nNXVz-_OR8oOL6prDUmZjRBWsi8IeLRXDkAVlAiVU6RLh3XAUiGZlDmkcOwfuIhCoJrDjUaU9HNLcGtX2kpMuSFYIzjo5IypllI5kclO5_2d5iSCTsxrstVeDRRtZ7SZSyLjALgEHtR1neLXGpBrTOx_J6vvR7JJQwWAEv5Q_byvQsausb_DHrRnXbg3DIQCElD3jFgcrEvGLRmvdia-8Cp8teli7WfEO-nKmQrnhvFm00]--></g></svg>