<svg xmlns="http://www.w3.org/2000/svg" xmlns:xlink="http://www.w3.org/1999/xlink" version="1.1" data-diagram-type="STATE" style="width:489px;height:770px;background:#FFFFFF;" width="489px" height="770px" viewBox="0 0 489 770" zoomAndPan="magnify" preserveAspectRatio="none" contentStyleType="text/css"><?plantuml 1.2026.7beta8?><defs/><g font-family="sans-serif" lengthAdjust="spacing"><g class="entity" data-qualified-name="crearSesionClase" id="ent0001" data-source-line="9"><path d="M21.57,7 L447.57,7 A12.5,12.5 0 0 1 460.07,19.5 L460.07,33.297 L9.07,33.297 L9.07,19.5 A12.5,12.5 0 0 1 21.57,7" fill="#F5F5F5"/><path d="M9.07,33.297 L460.07,33.297 L460.07,474.797 A12.5,12.5 0 0 1 447.57,487.297 L21.57,487.297 A12.5,12.5 0 0 1 9.07,474.797 L9.07,33.297" fill="#F5F5F5"/><rect x="9.07" y="7" width="451" height="480.297" fill="none" style="stroke:#808080;stroke-width:0.5;" rx="12.5" ry="12.5"/><line x1="9.07" y1="33.297" x2="460.07" y2="33.297" style="stroke:#808080;stroke-width:0.5;"/><text x="168.771" y="24.995" fill="#000" font-size="14" textLength="131.599">crearSesionClase()</text><g class="entity" data-qualified-name="crearSesionClase.Paso1" id="ent0002" data-source-line="10"><rect x="21.07" y="135.297" width="50" height="50" fill="#F5F5F5" style="stroke:#808080;stroke-width:0.5;" rx="12.5" ry="12.5"/><line x1="21.07" y1="161.594" x2="71.07" y2="161.594" style="stroke:#808080;stroke-width:0.5;"/><text x="43.845" y="153.292" fill="#000" font-size="14"> </text></g><g class="entity" data-qualified-name="crearSesionClase.Paso2" id="ent0003" data-source-line="11"><rect x="21.07" y="301.297" width="50" height="50" fill="#F5F5F5" style="stroke:#808080;stroke-width:0.5;" rx="12.5" ry="12.5"/><line x1="21.07" y1="327.594" x2="71.07" y2="327.594" style="stroke:#808080;stroke-width:0.5;"/><text x="43.845" y="319.292" fill="#000" font-size="14"> </text></g><g class="start_entity" data-qualified-name="crearSesionClase..start.crearSesionClase" id="ent0006" data-source-line="13"><ellipse cx="46.07" cy="54.297" rx="10" ry="10" fill="#222" style="stroke:#222;stroke-width:1;"/></g><g class="end_entity" data-qualified-name="crearSesionClase..end.crearSesionClase" id="ent0009" data-source-line="26"><ellipse cx="46.07" cy="463.297" rx="11" ry="11" fill="none" style="stroke:#222;stroke-width:1;"/><ellipse cx="46.07" cy="463.297" rx="6" ry="6" fill="#222" style="stroke:#222;stroke-width:1;"/></g><!--link *start*crearSesionClase to Paso1--><g class="link" data-entity-1="ent0006" data-entity-2="ent0002" id="lnk7" data-source-line="13" data-link-type="dependency"><path d="M46.07,64.527 C46.07,80.237 46.07,107.657 46.07,130.167" style="stroke:#008000;stroke-width:1;" fill="none" id="*start*crearSesionClase-to-Paso1"/><polygon points="46.07,135.167,50.07,126.167,46.07,130.167,42.07,126.167,46.07,135.167" fill="#008000" style="stroke:#008000;stroke-width:1;stroke-linejoin:miter;stroke-miterlimit:10;"/><path d="M51.07,87.297 L51.07,112.297 L398.07,112.297 L398.07,97.297 L388.07,87.297 L51.07,87.297" style="stroke:#808080;stroke-width:0.5;" fill="#FFFFE0"/><path d="M388.07,87.297 L388.07,97.297 L398.07,97.297 L388.07,87.297" style="stroke:#808080;stroke-width:0.5;" fill="#FFFFE0"/><text x="57.07" y="104.364" fill="#000" font-size="13" textLength="62.423" font-weight="700">Profesor</text><text x="123.625" y="104.364" fill="#000" font-size="13" textLength="260.044">solicita crear una nueva sesión de clase</text></g><!--link Paso1 to Paso2--><g class="link" data-entity-1="ent0002" data-entity-2="ent0003" id="lnk8" data-source-line="18" data-link-type="dependency"><path d="M46.07,185.497 C46.07,216.507 46.07,264.947 46.07,295.997" style="stroke:#008000;stroke-width:1;" fill="none" id="Paso1-to-Paso2"/><polygon points="46.07,300.997,50.07,291.997,46.07,295.997,42.07,291.997,46.07,300.997" fill="#008000" style="stroke:#008000;stroke-width:1;stroke-linejoin:miter;stroke-miterlimit:10;"/><path d="M51.07,208.297 L51.07,278.297 L397.07,278.297 L397.07,218.297 L387.07,208.297 L51.07,208.297" style="stroke:#808080;stroke-width:0.5;" fill="#FFFFE0"/><path d="M387.07,208.297 L387.07,218.297 L397.07,218.297 L387.07,208.297" style="stroke:#808080;stroke-width:0.5;" fill="#FFFFE0"/><text x="57.07" y="225.364" fill="#000" font-size="13" textLength="58.906" font-weight="700">Sistema</text><text x="120.109" y="225.364" fill="#000" font-size="13" textLength="262.158">permite introducir los datos de la sesión</text><text x="57.07" y="240.497" fill="#000" font-size="13" textLength="62.423" font-weight="700">Profesor</text><text x="123.625" y="240.497" fill="#000" font-size="13" textLength="230.553">introduce la información requerida:</text><text x="57.07" y="255.629" fill="#000" font-size="13" textLength="204.312">• Asignatura y Fecha de Sesión</text><text x="57.07" y="270.762" fill="#000" font-size="13" textLength="295.959">• Hora de Inicio, Hora de Fin y Tipo de Sesión</text></g><!--link Paso2 to *end*crearSesionClase--><g class="link" data-entity-1="ent0003" data-entity-2="ent0009" id="lnk10" data-source-line="26" data-link-type="dependency"><path d="M46.07,351.747 C46.07,381.527 46.07,425.507 46.07,446.837" style="stroke:#008000;stroke-width:1;" fill="none" id="Paso2-to-*end*crearSesionClase"/><polygon points="46.07,451.837,50.07,442.837,46.07,446.837,42.07,442.837,46.07,451.837" fill="#008000" style="stroke:#008000;stroke-width:1;stroke-linejoin:miter;stroke-miterlimit:10;"/><path d="M51.07,374.297 L51.07,429.297 L436.07,429.297 L436.07,384.297 L426.07,374.297 L51.07,374.297" style="stroke:#808080;stroke-width:0.5;" fill="#FFFFE0"/><path d="M426.07,374.297 L426.07,384.297 L436.07,384.297 L426.07,374.297" style="stroke:#808080;stroke-width:0.5;" fill="#FFFFE0"/><text x="57.07" y="391.364" fill="#000" font-size="13" textLength="58.906" font-weight="700">Sistema</text><text x="120.109" y="391.364" fill="#000" font-size="13" textLength="301.361">permite mostrar el resumen de la nueva clase</text><text x="57.07" y="406.497" fill="#000" font-size="13" textLength="62.423" font-weight="700">Profesor</text><text x="123.625" y="406.497" fill="#000" font-size="13" textLength="150.63">solicita iniciar la sesión</text><text x="57.07" y="421.629" fill="#000" font-size="13" textLength="236.698">• Permite solicitar cancelar creación</text></g></g><g class="entity" data-qualified-name="SESION_CLASE_ABIERTA" id="ent0004" data-source-line="34"><rect x="7" y="706.3" width="191.138" height="50" fill="#F5F5F5" style="stroke:#808080;stroke-width:0.5;" rx="12.5" ry="12.5"/><line x1="7" y1="732.597" x2="198.138" y2="732.597" style="stroke:#808080;stroke-width:0.5;"/><text x="17" y="724.295" fill="#000" font-size="14" textLength="171.138">SESION_CLASE_ABIERTA</text></g><g class="entity" data-qualified-name="ASISTENCIAS_ABIERTO" id="ent0005" data-source-line="35"><rect x="276.48" y="706.3" width="180.173" height="50" fill="#F5F5F5" style="stroke:#808080;stroke-width:0.5;" rx="12.5" ry="12.5"/><line x1="276.48" y1="732.597" x2="456.653" y2="732.597" style="stroke:#808080;stroke-width:0.5;"/><text x="286.48" y="724.295" fill="#000" font-size="14" textLength="160.173">ASISTENCIAS_ABIERTO</text></g><!--link crearSesionClase to SESION_CLASE_ABIERTA--><g class="link" data-entity-1="ent0001" data-entity-2="ent0004" id="lnk11" data-source-line="37" data-link-type="dependency"><path d="M131.94,487.5 C109.64,539.5 92.57,579.3 92.57,579.3 C92.57,579.3 92.57,614.3 92.57,614.3 C92.57,614.3 97.111,666.988 100.041,700.998" style="stroke:#008000;stroke-width:1;" fill="none" id="crearSesionClase-to-SESION_CLASE_ABIERTA"/><polygon points="100.47,705.98,103.683,696.67,100.041,700.998,95.712,697.357,100.47,705.98" fill="#008000" style="stroke:#008000;stroke-width:1;stroke-linejoin:miter;stroke-miterlimit:10;"/><path d="M97.57,584.3 L97.57,609.3 L286.57,609.3 L286.57,594.3 L276.57,584.3 L97.57,584.3" style="stroke:#808080;stroke-width:0.5;" fill="#FFFFE0"/><path d="M276.57,584.3 L276.57,594.3 L286.57,594.3 L276.57,584.3" style="stroke:#808080;stroke-width:0.5;" fill="#FFFFE0"/><text x="103.57" y="601.367" fill="#000" font-size="13" textLength="168.511">registrarTomaAsistencia()</text></g><!--link crearSesionClase to ASISTENCIAS_ABIERTO--><g class="link" data-entity-1="ent0001" data-entity-2="ent0005" id="lnk12" data-source-line="42" data-link-type="dependency"><path d="M300.09,487.46 C324.24,575.7 347.17,659.437 358.55,701.007" style="stroke:#00F;stroke-width:1;" fill="none" id="crearSesionClase-to-ASISTENCIAS_ABIERTO"/><polygon points="359.87,705.83,361.352,696.093,358.55,701.007,353.636,698.206,359.87,705.83" fill="#00F" style="stroke:#00F;stroke-width:1;stroke-linejoin:miter;stroke-miterlimit:10;"/><path d="M340.57,584.3 L340.57,609.3 L474.57,609.3 L474.57,594.3 L464.57,584.3 L340.57,584.3" style="stroke:#808080;stroke-width:0.5;" fill="#FFFFE0"/><path d="M464.57,584.3 L464.57,594.3 L474.57,594.3 L464.57,584.3" style="stroke:#808080;stroke-width:0.5;" fill="#FFFFE0"/><text x="346.57" y="601.367" fill="#000" font-size="13" textLength="113.547">abrirAsistencias()</text></g><?plantuml-src bLDHQjj04FtNAORa9oarRGtjHma6nTXKK1nJ-I-4C9OcokBLZZehjPXIw5bwXHwXD-b9khkMRSLI0vL0Q6VUcpVxPjTkbAbGi0J3ELcguDtho1w2WcRJ2sfbgDvM11NhhLzqSWkkwHgpJI7Sc7pAciNXYyTwIrhprrCaIqwoGnM2squwhR5VwNp-rhyzs6cPoFemd6L2A2bPnMQgqTB5vHcWXTCmV8l0FIq90cQ9bjyCXyTHYD--k8FHxNaXHEPkDEamZDiQiF56RK80u6ezMGe_a6MvUhMUW6MjCbNZhXTe389fw0k2TMtz_cKW9yXyRu5F9Wz5Ty91g2SzVaOwLRQc4eDoHL8g1rAc5iwRJBa1iOKSQ_ybq8SU_j7wdXYWoZomb9Y5deK-DoGgn_SjzS-Fdn1RLHYi6q7OmfooH_GgwHC9Z_l04ZA9SSRmoyDwhemZhbJ5fxo-A-CdhhW1_QSd9TjQt3X8kxtOfYJJEhARpN4WpmnK-VvTZPwFVfFBLcYF5iZGPAJzZpi8MNzltm-7EPsboStYVlenJcVtyNKo-xIAmvaSIkn9SPgagzbYciHfcxe9d85u5FNknT7DaVDpK2UOA_w6TomMAbHmSiKbkWFWd3REb8lBw3Yp8R6rRcYdDTJVe1IkHSbHmdOq_W80?></g></svg>