<?xml version="1.0" encoding="us-ascii" standalone="no"?><svg xmlns="http://www.w3.org/2000/svg" xmlns:xlink="http://www.w3.org/1999/xlink" contentStyleType="text/css" height="924px" preserveAspectRatio="none" style="width:709px;height:924px;background:#FFFFFF;" version="1.1" viewBox="0 0 709 924" width="709px" zoomAndPan="magnify"><defs/><g><text fill="#000000" font-family="sans-serif" font-size="14" font-weight="bold" lengthAdjust="spacing" textLength="134" x="280.5" y="24.5332">Crear Sesi&#243;n Clase</text><g id="ASISTENCIAS_ABIERTO_INICIAL"><rect fill="#F1F1F1" height="50" rx="12.5" ry="12.5" style="stroke:#181818;stroke-width:0.5;" width="176" x="183" y="125.6094"/><line style="stroke:#181818;stroke-width:0.5;" x1="183" x2="359" y1="153.2188" y2="153.2188"/><text fill="#000000" font-family="sans-serif" font-size="14" lengthAdjust="spacing" textLength="156" x="193" y="145.1426">ASISTENCIAS_ABIERTO</text></g><g id="ASISTENCIAS_ABIERTO_FINAL"><rect fill="#F1F1F1" height="50" rx="12.5" ry="12.5" style="stroke:#181818;stroke-width:0.5;" width="176" x="7" y="868.6094"/><line style="stroke:#181818;stroke-width:0.5;" x1="7" x2="183" y1="896.2188" y2="896.2188"/><text fill="#000000" font-family="sans-serif" font-size="14" lengthAdjust="spacing" textLength="156" x="17" y="888.1426">ASISTENCIAS_ABIERTO</text></g><path d="M59.5,338.6094 L482,338.6094 A12.5,12.5 0 0 1 494.5,351.1094 L494.5,366.2188 L47,366.2188 L47,351.1094 A12.5,12.5 0 0 1 59.5,338.6094 " fill="#F1F1F1" style="stroke:#F1F1F1;stroke-width:1.0;"/><rect fill="none" height="382.6094" rx="12.5" ry="12.5" style="stroke:#181818;stroke-width:0.5;" width="447.5" x="47" y="338.6094"/><line style="stroke:#181818;stroke-width:0.5;" x1="47" x2="494.5" y1="366.2188" y2="366.2188"/><text fill="#000000" font-family="sans-serif" font-size="14" lengthAdjust="spacing" textLength="203" x="169.25" y="358.1426">SESION_ASISTENCIA_ABIERTA</text><g id="SESION_NUEVA_COMP.ConfiguracionDatos"><rect fill="#F1F1F1" height="50" rx="12.5" ry="12.5" style="stroke:#181818;stroke-width:0.5;" width="145" x="59" y="534.2188"/><line style="stroke:#181818;stroke-width:0.5;" x1="59" x2="204" y1="561.8281" y2="561.8281"/><text fill="#000000" font-family="sans-serif" font-size="14" lengthAdjust="spacing" textLength="125" x="69" y="553.752">ConfiguracionDatos</text></g><ellipse cx="131.5" cy="387.2188" fill="#222222" rx="10" ry="10" style="stroke:#222222;stroke-width:1.0;"/><ellipse cx="131.5" cy="700.2188" fill="none" rx="11" ry="11" style="stroke:#222222;stroke-width:1.0;"/><ellipse cx="131.5" cy="700.2188" fill="#222222" rx="6" ry="6" style="stroke:#222222;stroke-width:1.0;"/><!--link *start*SESION_NUEVA_COMP to ConfiguracionDatos--><g id="link_*start*SESION_NUEVA_COMP_ConfiguracionDatos"><path d="M131.5,397.3588 C131.5,422.9488 131.5,489.9088 131.5,528.1588 " fill="none" id="*start*SESION_NUEVA_COMP-to-ConfiguracionDatos" style="stroke:#008000;stroke-width:1.0;"/><polygon fill="#008000" points="131.5,534.1588,135.5,525.1588,131.5,529.1588,127.5,525.1588,131.5,534.1588" style="stroke:#008000;stroke-width:1.0;"/><path d="M136.5,420.2188 L136.5,511.2188 L453.5,511.2188 L453.5,430.2188 L443.5,420.2188 L136.5,420.2188 " fill="#FEFFDD" style="stroke:#181818;stroke-width:0.5;"/><path d="M443.5,420.2188 L443.5,430.2188 L453.5,430.2188 L443.5,420.2188 " fill="#FEFFDD" style="stroke:#181818;stroke-width:0.5;"/><text fill="#000000" font-family="sans-serif" font-size="13" font-weight="bold" lengthAdjust="spacing" textLength="104" x="142.5" y="438.7139">Sistema permite</text><text fill="#000000" font-family="sans-serif" font-size="13" lengthAdjust="spacing" textLength="188" x="250.5" y="438.7139">introducir los datos de la sesi&#243;n.</text><text fill="#000000" font-family="sans-serif" font-size="13" lengthAdjust="spacing" textLength="4" x="142.5" y="455.0654">&#160;</text><text fill="#000000" font-family="sans-serif" font-size="13" font-weight="bold" lengthAdjust="spacing" textLength="117" x="142.5" y="471.417">Profesor introduce</text><text fill="#000000" font-family="sans-serif" font-size="13" lengthAdjust="spacing" textLength="141" x="263.5" y="471.417">la informaci&#243;n requerida:</text><text fill="#000000" font-family="sans-serif" font-size="13" lengthAdjust="spacing" textLength="155" x="142.5" y="487.7686">&#8226; Asignatura, Grupo y Aula</text><text fill="#000000" font-family="sans-serif" font-size="13" lengthAdjust="spacing" textLength="127" x="142.5" y="504.1201">&#8226; Fecha, Hora y Tema</text></g><!--link ConfiguracionDatos to *end*SESION_NUEVA_COMP--><g id="link_ConfiguracionDatos_*end*SESION_NUEVA_COMP"><path d="M131.5,584.4288 C131.5,615.2288 131.5,661.0588 131.5,682.9588 " fill="none" id="ConfiguracionDatos-to-*end*SESION_NUEVA_COMP" style="stroke:#008000;stroke-width:1.0;"/><polygon fill="#008000" points="131.5,688.9588,135.5,679.9588,131.5,683.9588,127.5,679.9588,131.5,688.9588" style="stroke:#008000;stroke-width:1.0;"/><path d="M136.5,607.2188 L136.5,666.2188 L485.5,666.2188 L485.5,617.2188 L475.5,607.2188 L136.5,607.2188 " fill="#FEFFDD" style="stroke:#181818;stroke-width:0.5;"/><path d="M475.5,607.2188 L475.5,617.2188 L485.5,617.2188 L475.5,607.2188 " fill="#FEFFDD" style="stroke:#181818;stroke-width:0.5;"/><text fill="#000000" font-family="sans-serif" font-size="13" font-weight="bold" lengthAdjust="spacing" textLength="104" x="142.5" y="625.7139">Sistema permite</text><text fill="#000000" font-family="sans-serif" font-size="13" lengthAdjust="spacing" textLength="220" x="250.5" y="625.7139">retornar el resumen de la nueva clase.</text><text fill="#000000" font-family="sans-serif" font-size="13" lengthAdjust="spacing" textLength="4" x="142.5" y="642.0654">&#160;</text><text fill="#000000" font-family="sans-serif" font-size="13" font-weight="bold" lengthAdjust="spacing" textLength="102" x="142.5" y="658.417">Profesor solicita</text><text fill="#000000" font-family="sans-serif" font-size="13" lengthAdjust="spacing" textLength="94" x="248.5" y="658.417">iniciar la sesi&#243;n.</text></g><g id="SESION_ACTIVA_FINAL"><rect fill="#F1F1F1" height="50" rx="12.5" ry="12.5" style="stroke:#181818;stroke-width:0.5;" width="223" x="335.5" y="868.6094"/><line style="stroke:#181818;stroke-width:0.5;" x1="335.5" x2="558.5" y1="896.2188" y2="896.2188"/><text fill="#000000" font-family="sans-serif" font-size="14" lengthAdjust="spacing" textLength="203" x="345.5" y="888.1426">SESION_ASISTENCIA_ABIERTA</text></g><ellipse cx="271" cy="54.6094" fill="#222222" rx="10" ry="10" style="stroke:#222222;stroke-width:1.0;"/><!--link *start* to ASISTENCIAS_ABIERTO_INICIAL--><g id="link_*start*_ASISTENCIAS_ABIERTO_INICIAL"><path d="M271,64.6194 C271,78.4994 271,99.5794 271,119.4494 " fill="none" id="*start*-to-ASISTENCIAS_ABIERTO_INICIAL" style="stroke:#008000;stroke-width:1.0;"/><polygon fill="#008000" points="271,125.4494,275,116.4494,271,120.4494,267,116.4494,271,125.4494" style="stroke:#008000;stroke-width:1.0;"/></g><!--link ASISTENCIAS_ABIERTO_INICIAL to SESION_NUEVA_COMP--><g id="link_ASISTENCIAS_ABIERTO_INICIAL_SESION_NUEVA_COMP"><path d="M271,175.7994 C271,209.4794 271,267.6794 271,332.2194 " fill="none" id="ASISTENCIAS_ABIERTO_INICIAL-to-SESION_NUEVA_COMP" style="stroke:#008000;stroke-width:1.0;"/><polygon fill="#008000" points="271,338.2194,275,329.2194,271,333.2194,267,329.2194,271,338.2194" style="stroke:#008000;stroke-width:1.0;"/><text fill="#000000" font-family="sans-serif" font-size="13" lengthAdjust="spacing" textLength="110" x="408.5" y="220.1045">crearSesionClase()</text><path d="M276,228.9609 L276,303.9609 L651,303.9609 L651,238.9609 L641,228.9609 L276,228.9609 " fill="#FEFFDD" style="stroke:#181818;stroke-width:0.5;"/><path d="M641,228.9609 L641,238.9609 L651,238.9609 L641,228.9609 " fill="#FEFFDD" style="stroke:#181818;stroke-width:0.5;"/><text fill="#000000" font-family="sans-serif" font-size="13" font-weight="bold" lengthAdjust="spacing" textLength="53" x="282" y="247.4561">Profesor</text><text fill="#000000" font-family="sans-serif" font-size="13" lengthAdjust="spacing" textLength="245" x="339" y="247.4561">se encuentra en ASISTENCIAS_ABIERTO</text><text fill="#000000" font-family="sans-serif" font-size="13" lengthAdjust="spacing" textLength="7" x="282" y="263.8076">y</text><text fill="#000000" font-family="sans-serif" font-size="13" font-weight="bold" lengthAdjust="spacing" textLength="45" x="293" y="263.8076">solicita</text><text fill="#000000" font-family="sans-serif" font-size="13" lengthAdjust="spacing" textLength="190" x="342" y="263.8076">crear una nueva sesi&#243;n de clase.</text><text fill="#000000" font-family="sans-serif" font-size="13" lengthAdjust="spacing" textLength="4" x="282" y="280.1592">&#160;</text><text fill="#000000" font-family="sans-serif" font-size="13" font-weight="bold" lengthAdjust="spacing" textLength="104" x="282" y="296.5107">Sistema permite</text><text fill="#000000" font-family="sans-serif" font-size="13" lengthAdjust="spacing" textLength="246" x="390" y="296.5107">retornar SESION_ASISTENCIA_ABIERTA.</text></g><!--link SESION_NUEVA_COMP to SESION_ACTIVA_FINAL--><g id="link_SESION_NUEVA_COMP_SESION_ACTIVA_FINAL"><path d="M389.52,721.8694 C400.72,739.8994 408,751.6094 408,751.6094 C408,751.6094 427.5391,822.2769 438.6991,862.5869 " fill="none" id="SESION_NUEVA_COMP-to-SESION_ACTIVA_FINAL" style="stroke:#008000;stroke-width:1.0;"/><polygon fill="#008000" points="440.3,868.3694,441.7536,858.6284,438.9659,863.5506,434.0437,860.7629,440.3,868.3694" style="stroke:#008000;stroke-width:1.0;"/><text fill="#000000" font-family="sans-serif" font-size="13" lengthAdjust="spacing" textLength="82" x="528" y="766.1045">iniciarSesion()</text><path d="M436,774.9609 L436,833.9609 L702,833.9609 L702,784.9609 L692,774.9609 L436,774.9609 " fill="#FEFFDD" style="stroke:#181818;stroke-width:0.5;"/><path d="M692,774.9609 L692,784.9609 L702,784.9609 L692,774.9609 " fill="#FEFFDD" style="stroke:#181818;stroke-width:0.5;"/><text fill="#000000" font-family="sans-serif" font-size="13" font-weight="bold" lengthAdjust="spacing" textLength="104" x="442" y="793.4561">Sistema permite</text><text fill="#000000" font-family="sans-serif" font-size="13" lengthAdjust="spacing" textLength="137" x="550" y="793.4561">retornar la sesi&#243;n activa</text><text fill="#000000" font-family="sans-serif" font-size="13" lengthAdjust="spacing" textLength="7" x="442" y="809.8076">y</text><text fill="#000000" font-family="sans-serif" font-size="13" font-weight="bold" lengthAdjust="spacing" textLength="114" x="453" y="809.8076">permite introducir</text><text fill="#000000" font-family="sans-serif" font-size="13" lengthAdjust="spacing" textLength="73" x="571" y="809.8076">la asistencia</text><text fill="#000000" font-family="sans-serif" font-size="13" lengthAdjust="spacing" textLength="216" x="442" y="826.1592">en SESION_ASISTENCIA_ABIERTA.</text></g><!--link SESION_NUEVA_COMP to ASISTENCIAS_ABIERTO_FINAL--><g id="link_SESION_NUEVA_COMP_ASISTENCIAS_ABIERTO_FINAL"><path d="M112.68,721.8694 C97.72,739.8994 88,751.6094 88,751.6094 C88,751.6094 88,838.6094 88,838.6094 C88,838.6094 89.2257,848.1295 91.0957,862.4995 " fill="none" id="SESION_NUEVA_COMP-to-ASISTENCIAS_ABIERTO_FINAL" style="stroke:#FF0000;stroke-width:1.0;"/><polygon fill="#FF0000" points="91.87,868.4494,94.6752,859.0084,91.2248,863.4912,86.742,860.0408,91.87,868.4494" style="stroke:#FF0000;stroke-width:1.0;"/><text fill="#000000" font-family="sans-serif" font-size="13" lengthAdjust="spacing" textLength="108" x="190" y="774.1045">cancelarCreacion()</text><path d="M93,782.9609 L93,824.9609 L395,824.9609 L395,792.9609 L385,782.9609 L93,782.9609 " fill="#FEFFDD" style="stroke:#181818;stroke-width:0.5;"/><path d="M385,782.9609 L385,792.9609 L395,792.9609 L385,782.9609 " fill="#FEFFDD" style="stroke:#181818;stroke-width:0.5;"/><text fill="#000000" font-family="sans-serif" font-size="13" font-weight="bold" lengthAdjust="spacing" textLength="104" x="99" y="801.4561">Sistema permite</text><text fill="#000000" font-family="sans-serif" font-size="13" lengthAdjust="spacing" textLength="173" x="207" y="801.4561">retornar nuevamente el listado</text><text fill="#000000" font-family="sans-serif" font-size="13" lengthAdjust="spacing" textLength="244" x="99" y="817.8076">en ASISTENCIAS_ABIERTO sin cambios.</text></g><!--SRC=[dLHTZjCm47xtAKRB2o2sl5UhIY5q8HAqAr9uMQsggJCjrZfsiPsLAeJ4MRW2H-0cd8HnqlGtBGjviZCptyptVPC45JH1wWWTvEJLhvy6KesUXBzNPeaEIz3AK5Wj2PPMh-9521ym42Hvba-6epHBycdoAXj-c8odsIZZ-pj03nSTyOipfTVPwE-5-J3FngFfwEFmKp9Dn-zlOFl4qdLyYx06I0u0adIICKBJyv40ulRv7LpUFbau8dDtEJWdW13drDa5EMRK1naDYNvOKxlnz9ambeUt9hfnBwvcWnjdv-Ijktev6u0d82ChCi4Xdxe64olWAc-raYfWNLLtWSeWc8eUa56Q1IW8PEpQ4x5HhdoW4c59hbI1waf7mJeJT-QKMZr1fe0uj3Zft5SXekfDEBLchXQLGycaNsEmleaUQjwH5zFsv8alJaokM29RL58vqDP34G4YORsXtnDjVIlnfgY1u5HbvjQLF4AKoz6NYfmgi5yN_lx-0nAl5WO3J_a2thXgQM45IQLnat1DyZF7tbhsQmKJdh8ERJMBjsEgUqgmClz4VMCQQJxxgYIpPjxOttf-o7vlPvJXCsFiwhKt-JSXZftksFUz3x3VuZOxtx7kPmbjXm6KGJrWi-pht1tFM__GHpZ37NbD7xV4dQGS5QV-0oqnYKQIHXV_iV8_kDNUi5LSmhvfJiN2Ykvl7BmotB2SAUjtPly3]--></g></svg>