<svg xmlns="http://www.w3.org/2000/svg" xmlns:xlink="http://www.w3.org/1999/xlink" contentStyleType="text/css" data-diagram-type="STATE" height="874px" preserveAspectRatio="none" style="width:531px;height:874px;background:#FFFFFF;" version="1.1" viewBox="0 0 531 874" width="531px" zoomAndPan="magnify"><title>Editar Sesi&#243;n Clase</title><defs/><g><text fill="#000000" font-family="sans-serif" font-size="14" font-weight="bold" lengthAdjust="spacing" textLength="130.7168" x="193.1416" y="24.5332">Editar Sesi&#243;n Clase</text><g id="SESION_ACTUAL_INICIAL"><rect fill="#F1F1F1" height="50" rx="12.5" ry="12.5" style="stroke:#181818;stroke-width:0.5;" width="231.6201" x="93" y="125.6094"/><line style="stroke:#181818;stroke-width:0.5;" x1="93" x2="324.6201" y1="153.2188" y2="153.2188"/><text fill="#000000" font-family="sans-serif" font-size="14" lengthAdjust="spacing" textLength="211.6201" x="103" y="145.1426">SESION_ASISTENCIA_ABIERTA</text></g><path d="M19.5,355.6094 L398.5,355.6094 A12.5,12.5 0 0 1 411,368.1094 L411,383.2188 L7,383.2188 L7,368.1094 A12.5,12.5 0 0 1 19.5,355.6094" fill="#F1F1F1" style="stroke:#F1F1F1;stroke-width:1;"/><rect fill="none" height="350.6094" rx="12.5" ry="12.5" style="stroke:#181818;stroke-width:0.5;" width="404" x="7" y="355.6094"/><line style="stroke:#181818;stroke-width:0.5;" x1="7" x2="411" y1="383.2188" y2="383.2188"/><text fill="#000000" font-family="sans-serif" font-size="14" lengthAdjust="spacing" textLength="211.6201" x="103.1899" y="375.1426">SESION_ASISTENCIA_ABIERTA</text><g id="PROCESO_EDICION_COMP.ModificacionDatos"><rect fill="#F1F1F1" height="50" rx="12.5" ry="12.5" style="stroke:#181818;stroke-width:0.5;" width="134.3857" x="19" y="519.2188"/><line style="stroke:#181818;stroke-width:0.5;" x1="19" x2="153.3857" y1="546.8281" y2="546.8281"/><text fill="#000000" font-family="sans-serif" font-size="14" lengthAdjust="spacing" textLength="114.3857" x="29" y="538.752">ModificacionDatos</text></g><ellipse cx="86" cy="404.2188" fill="#222222" rx="10" ry="10" style="stroke:#222222;stroke-width:1;"/><ellipse cx="86" cy="685.2188" fill="none" rx="11" ry="11" style="stroke:#222222;stroke-width:1;"/><ellipse cx="86" cy="685.2188" fill="#222222" rx="6" ry="6" style="stroke:#222222;stroke-width:1;"/><!--link *start*PROCESO_EDICION_COMP to ModificacionDatos--><g class="link" data-entity-1="*start*PROCESO_EDICION_COMP" data-entity-2="ModificacionDatos" data-source-line="23" data-uid="lnk6" id="link_*start*PROCESO_EDICION_COMP_ModificacionDatos"><path d="M86,414.2688 C86,435.2588 86,481.8088 86,512.9688" fill="none" id="*start*PROCESO_EDICION_COMP-to-ModificacionDatos" style="stroke:#008000;stroke-width:1;"/><polygon fill="#008000" points="86,518.9688,90,509.9688,86,513.9688,82,509.9688,86,518.9688" style="stroke:#008000;stroke-width:1;"/><path d="M91,437.2188 L91,496.2188 L370,496.2188 L370,447.2188 L360,437.2188 L91,437.2188" fill="#FEFFDD" style="stroke:#181818;stroke-width:0.5;"/><path d="M360,437.2188 L360,447.2188 L370,447.2188 L360,437.2188" fill="#FEFFDD" style="stroke:#181818;stroke-width:0.5;"/><text fill="#000000" font-family="sans-serif" font-size="13" font-weight="bold" lengthAdjust="spacing" textLength="49.8608" x="97" y="455.7139">Sistema</text><text fill="#000000" font-family="sans-serif" font-size="13" lengthAdjust="spacing" textLength="205.2134" x="150.4727" y="455.7139">permite introducir los nuevos datos.</text><text fill="#000000" font-family="sans-serif" font-size="13" lengthAdjust="spacing" textLength="3.6118" x="97" y="472.0654">&#160;</text><text fill="#000000" font-family="sans-serif" font-size="13" font-weight="bold" lengthAdjust="spacing" textLength="53.46" x="97" y="488.417">Profesor</text><text fill="#000000" font-family="sans-serif" font-size="13" lengthAdjust="spacing" textLength="201.6079" x="154.0718" y="488.417">introduce la informaci&#243;n necesaria.</text></g><!--link ModificacionDatos to *end*PROCESO_EDICION_COMP--><g class="link" data-entity-1="ModificacionDatos" data-entity-2="*end*PROCESO_EDICION_COMP" data-source-line="30" data-uid="lnk8" id="link_ModificacionDatos_*end*PROCESO_EDICION_COMP"><path d="M86,569.4288 C86,600.2288 86,646.0588 86,667.9588" fill="none" id="ModificacionDatos-to-*end*PROCESO_EDICION_COMP" style="stroke:#008000;stroke-width:1;"/><polygon fill="#008000" points="86,673.9588,90,664.9588,86,668.9588,82,664.9588,86,673.9588" style="stroke:#008000;stroke-width:1;"/><path d="M91,592.2188 L91,651.2188 L402,651.2188 L402,602.2188 L392,592.2188 L91,592.2188" fill="#FEFFDD" style="stroke:#181818;stroke-width:0.5;"/><path d="M392,592.2188 L392,602.2188 L402,602.2188 L392,592.2188" fill="#FEFFDD" style="stroke:#181818;stroke-width:0.5;"/><text fill="#000000" font-family="sans-serif" font-size="13" font-weight="bold" lengthAdjust="spacing" textLength="107.6689" x="97" y="610.7139">Sistema visualiza</text><text fill="#000000" font-family="sans-serif" font-size="13" lengthAdjust="spacing" textLength="179.188" x="208.2808" y="610.7139">los cambios para confirmaci&#243;n.</text><text fill="#000000" font-family="sans-serif" font-size="13" lengthAdjust="spacing" textLength="3.6118" x="97" y="627.0654">&#160;</text><text fill="#000000" font-family="sans-serif" font-size="13" font-weight="bold" lengthAdjust="spacing" textLength="101.8672" x="97" y="643.417">Profesor solicita</text><text fill="#000000" font-family="sans-serif" font-size="13" lengthAdjust="spacing" textLength="120.6689" x="202.479" y="643.417">guardar los cambios.</text></g><g id="SESION_ACTUAL_FINAL"><rect fill="#F1F1F1" height="50" rx="12.5" ry="12.5" style="stroke:#181818;stroke-width:0.5;" width="231.6201" x="93" y="818.6094"/><line style="stroke:#181818;stroke-width:0.5;" x1="93" x2="324.6201" y1="846.2188" y2="846.2188"/><text fill="#000000" font-family="sans-serif" font-size="14" lengthAdjust="spacing" textLength="211.6201" x="103" y="838.1426">SESION_ASISTENCIA_ABIERTA</text></g><ellipse cx="209" cy="54.6094" fill="#222222" rx="10" ry="10" style="stroke:#222222;stroke-width:1;"/><!--link *start* to SESION_ACTUAL_INICIAL--><g class="link" data-entity-1="*start*" data-entity-2="SESION_ACTUAL_INICIAL" data-source-line="8" data-uid="lnk3" id="link_*start*_SESION_ACTUAL_INICIAL"><path d="M209,64.6194 C209,78.4994 209,99.5794 209,119.4494" fill="none" id="*start*-to-SESION_ACTUAL_INICIAL" style="stroke:#008000;stroke-width:1;"/><polygon fill="#008000" points="209,125.4494,213,116.4494,209,120.4494,205,116.4494,209,125.4494" style="stroke:#008000;stroke-width:1;"/></g><!--link SESION_ACTUAL_INICIAL to PROCESO_EDICION_COMP--><g class="link" data-entity-1="SESION_ACTUAL_INICIAL" data-entity-2="PROCESO_EDICION_COMP" data-source-line="10" data-uid="lnk4" id="link_SESION_ACTUAL_INICIAL_PROCESO_EDICION_COMP"><path d="M209,175.8594 C209,212.5694 209,279.4294 209,349.5794" fill="none" id="SESION_ACTUAL_INICIAL-to-PROCESO_EDICION_COMP" style="stroke:#008000;stroke-width:1;"/><polygon fill="#008000" points="209,355.5794,213,346.5794,209,350.5794,205,346.5794,209,355.5794" style="stroke:#008000;stroke-width:1;"/><text fill="#000000" font-family="sans-serif" font-size="13" lengthAdjust="spacing" textLength="114.1626" x="304.6868" y="220.1045">editarSesionClase()</text><path d="M214,228.9609 L214,319.9609 L509,319.9609 L509,238.9609 L499,228.9609 L214,228.9609" fill="#FEFFDD" style="stroke:#181818;stroke-width:0.5;"/><path d="M499,228.9609 L499,238.9609 L509,238.9609 L499,228.9609" fill="#FEFFDD" style="stroke:#181818;stroke-width:0.5;"/><text fill="#000000" font-family="sans-serif" font-size="13" font-weight="bold" lengthAdjust="spacing" textLength="53.46" x="220" y="247.4561">Profesor</text><text fill="#000000" font-family="sans-serif" font-size="13" lengthAdjust="spacing" textLength="197.2979" x="277.0718" y="247.4561">se encuentra en una sesi&#243;n activa</text><text fill="#000000" font-family="sans-serif" font-size="13" lengthAdjust="spacing" textLength="6.5" x="220" y="263.8076">y</text><text fill="#000000" font-family="sans-serif" font-size="13" font-weight="bold" lengthAdjust="spacing" textLength="44.7954" x="230.1118" y="263.8076">solicita</text><text fill="#000000" font-family="sans-serif" font-size="13" lengthAdjust="spacing" textLength="190.7598" x="278.519" y="263.8076">modificar los detalles de la clase.</text><text fill="#000000" font-family="sans-serif" font-size="13" lengthAdjust="spacing" textLength="3.6118" x="220" y="280.1592">&#160;</text><text fill="#000000" font-family="sans-serif" font-size="13" font-weight="bold" lengthAdjust="spacing" textLength="164.709" x="220" y="296.5107">Sistema permite introducir</text><text fill="#000000" font-family="sans-serif" font-size="13" lengthAdjust="spacing" textLength="106.2153" x="388.3208" y="296.5107">las modificaciones</text><text fill="#000000" font-family="sans-serif" font-size="13" lengthAdjust="spacing" textLength="161.1226" x="220" y="312.8623">en los campos informativos.</text></g><!--link PROCESO_EDICION_COMP to SESION_ACTUAL_FINAL--><g class="link" data-entity-1="PROCESO_EDICION_COMP" data-entity-2="SESION_ACTUAL_FINAL" data-source-line="39" data-uid="lnk9" id="link_PROCESO_EDICION_COMP_SESION_ACTUAL_FINAL"><path d="M209,706.8694 C209,750.9994 209,786.9894 209,812.2794" fill="none" id="PROCESO_EDICION_COMP-to-SESION_ACTUAL_FINAL" style="stroke:#008000;stroke-width:1;"/><polygon fill="#008000" points="209,818.2794,213,809.2794,209,813.2794,205,809.2794,209,818.2794" style="stroke:#008000;stroke-width:1;"/><path d="M214,741.6094 L214,783.6094 L524,783.6094 L524,751.6094 L514,741.6094 L214,741.6094" fill="#FEFFDD" style="stroke:#181818;stroke-width:0.5;"/><path d="M514,741.6094 L514,751.6094 L524,751.6094 L514,741.6094" fill="#FEFFDD" style="stroke:#181818;stroke-width:0.5;"/><text fill="#000000" font-family="sans-serif" font-size="13" font-weight="bold" lengthAdjust="spacing" textLength="104.0508" x="220" y="760.1045">Sistema muestra</text><text fill="#000000" font-family="sans-serif" font-size="13" lengthAdjust="spacing" textLength="181.3843" x="327.6626" y="760.1045">nuevamente la vista de la clase</text><text fill="#000000" font-family="sans-serif" font-size="13" lengthAdjust="spacing" textLength="155.3589" x="220" y="776.4561">con los cambios aplicados.</text></g><!--SRC=[ZLFBRjim4BppAnR9fIqGzru41bH50GGajX6vfo0mrjGw84AH0aaPS8j-LJ-XFzObPIMMxJOzyRMpEpEx32feWg9M0HrKvDNlNmPoZPw4Vr6cHOSDQ6Kex5g2rkfTF0ZX0mQ2ggZA-MoLvSjlsTsgd9LvcTq1UhWONggoMXOplbvbNylYOPbTxA6BXtbULFDLSSCWZipdzmluF-YuwcqvuvhlGiNZfoUuUhnyTaJcwMfwdhiGvoKT0iyo_mAKF8mMMfCC_F1H6CjqhOa6leZhzNJXx8QyTTUVrrFm16HaHoOuv1rq1lckxm3AeBOeTi0WRxMId3k16bkhZPBSB6qzr1HGQueRq0Wobfs8MAbIFb23q99h59DGNCNMdLHzRGvyJIMPC7d1369AYKtBYp8Rwnfa5jPF-As6g4Nygta_XE0sG1znVv3y1eFr_UDn4qx3OjJ8jdZn9YYnFnMLg9kEjj6Kc6SY1k38ym6HxDfhbCbnGv8yEeMJ17nJ74ydD4SYMDHxj66hV8TQVUy5x8rUArxZ5mDfpKODN7e6n_nXD0VF7RfwFmNxJCV4Vmfnjaz__mJfAvqCxI2XwSZpgARoqMfiU7IJaImkuE4C2cdDI2Isp1thqIpz0G00]--></g></svg>