<svg xmlns="http://www.w3.org/2000/svg" xmlns:xlink="http://www.w3.org/1999/xlink" version="1.1" data-diagram-type="STATE" style="width:481px;height:770px;background:#FFFFFF;" width="481px" height="770px" viewBox="0 0 481 770" zoomAndPan="magnify" preserveAspectRatio="none" contentStyleType="text/css"><?plantuml 1.2026.7beta8?><defs/><g font-family="sans-serif" lengthAdjust="spacing"><g class="entity" data-qualified-name="editarSesionClase" id="ent0001" data-source-line="9"><path d="M19.5,7 L453.5,7 A12.5,12.5 0 0 1 466,19.5 L466,33.297 L7,33.297 L7,19.5 A12.5,12.5 0 0 1 19.5,7" fill="#F5F5F5"/><path d="M7,33.297 L466,33.297 L466,474.797 A12.5,12.5 0 0 1 453.5,487.297 L19.5,487.297 A12.5,12.5 0 0 1 7,474.797 L7,33.297" fill="#F5F5F5"/><rect x="7" y="7" width="459" height="480.297" fill="none" style="stroke:#808080;stroke-width:0.5;" rx="12.5" ry="12.5"/><line x1="7" y1="33.297" x2="466" y2="33.297" style="stroke:#808080;stroke-width:0.5;"/><text x="168.294" y="24.995" fill="#000" font-size="14" textLength="136.411">editarSesionClase()</text><g class="entity" data-qualified-name="editarSesionClase.Paso1" id="ent0002" data-source-line="10"><rect x="19" y="150.297" width="50" height="50" fill="#F5F5F5" style="stroke:#808080;stroke-width:0.5;" rx="12.5" ry="12.5"/><line x1="19" y1="176.594" x2="69" y2="176.594" style="stroke:#808080;stroke-width:0.5;"/><text x="41.775" y="168.292" fill="#000" font-size="14"> </text></g><g class="entity" data-qualified-name="editarSesionClase.Paso2" id="ent0003" data-source-line="11"><rect x="19" y="316.297" width="50" height="50" fill="#F5F5F5" style="stroke:#808080;stroke-width:0.5;" rx="12.5" ry="12.5"/><line x1="19" y1="342.594" x2="69" y2="342.594" style="stroke:#808080;stroke-width:0.5;"/><text x="41.775" y="334.292" fill="#000" font-size="14"> </text></g><g class="start_entity" data-qualified-name="editarSesionClase..start.editarSesionClase" id="ent0005" data-source-line="13"><ellipse cx="44" cy="54.297" rx="10" ry="10" fill="#222" style="stroke:#222;stroke-width:1;"/></g><g class="end_entity" data-qualified-name="editarSesionClase..end.editarSesionClase" id="ent0008" data-source-line="27"><ellipse cx="44" cy="463.297" rx="11" ry="11" fill="none" style="stroke:#222;stroke-width:1;"/><ellipse cx="44" cy="463.297" rx="6" ry="6" fill="#222" style="stroke:#222;stroke-width:1;"/></g><!--link *start*editarSesionClase to Paso1--><g class="link" data-entity-1="ent0005" data-entity-2="ent0002" id="lnk6" data-source-line="13" data-link-type="dependency"><path d="M44,64.637 C44,82.827 44,118.537 44,144.907" style="stroke:#008000;stroke-width:1;" fill="none" id="*start*editarSesionClase-to-Paso1"/><polygon points="44,149.907,48,140.907,44,144.907,40,140.907,44,149.907" fill="#008000" style="stroke:#008000;stroke-width:1;stroke-linejoin:miter;stroke-miterlimit:10;"/><path d="M49,87.297 L49,127.297 L359,127.297 L359,97.297 L349,87.297 L49,87.297" style="stroke:#808080;stroke-width:0.5;" fill="#FFFFE0"/><path d="M349,87.297 L349,97.297 L359,97.297 L349,87.297" style="stroke:#808080;stroke-width:0.5;" fill="#FFFFE0"/><text x="55" y="104.364" fill="#000" font-size="13" textLength="62.423" font-weight="700">Profesor</text><text x="121.555" y="104.364" fill="#000" font-size="13" textLength="223.215">se encuentra en una sesión activa</text><text x="55" y="119.497" fill="#000" font-size="13" textLength="274.492">y solicita modificar los detalles de la clase</text></g><!--link Paso1 to Paso2--><g class="link" data-entity-1="ent0002" data-entity-2="ent0003" id="lnk7" data-source-line="19" data-link-type="dependency"><path d="M44,200.497 C44,231.507 44,279.947 44,310.997" style="stroke:#008000;stroke-width:1;" fill="none" id="Paso1-to-Paso2"/><polygon points="44,315.997,48,306.997,44,310.997,40,306.997,44,315.997" fill="#008000" style="stroke:#008000;stroke-width:1;stroke-linejoin:miter;stroke-miterlimit:10;"/><path d="M49,223.297 L49,293.297 L365,293.297 L365,233.297 L355,223.297 L49,223.297" style="stroke:#808080;stroke-width:0.5;" fill="#FFFFE0"/><path d="M355,223.297 L355,233.297 L365,233.297 L355,223.297" style="stroke:#808080;stroke-width:0.5;" fill="#FFFFE0"/><text x="55" y="240.364" fill="#000" font-size="13" textLength="58.906" font-weight="700">Sistema</text><text x="118.039" y="240.364" fill="#000" font-size="13" textLength="231.613">permite introducir los nuevos datos</text><text x="55" y="255.497" fill="#000" font-size="13" textLength="62.423" font-weight="700">Profesor</text><text x="121.555" y="255.497" fill="#000" font-size="13" textLength="190.385">introduce las modificaciones:</text><text x="55" y="270.629" fill="#000" font-size="13" textLength="204.312">• Asignatura y Fecha de Sesión</text><text x="55" y="285.762" fill="#000" font-size="13" textLength="295.959">• Hora de Inicio, Hora de Fin y Tipo de Sesión</text></g><!--link Paso2 to *end*editarSesionClase--><g class="link" data-entity-1="ent0003" data-entity-2="ent0008" id="lnk9" data-source-line="27" data-link-type="dependency"><path d="M44,366.577 C44,392.747 44,428.147 44,446.977" style="stroke:#008000;stroke-width:1;" fill="none" id="Paso2-to-*end*editarSesionClase"/><polygon points="44,451.977,48,442.977,44,446.977,40,442.977,44,451.977" fill="#008000" style="stroke:#008000;stroke-width:1;stroke-linejoin:miter;stroke-miterlimit:10;"/><path d="M49,389.297 L49,429.297 L442,429.297 L442,399.297 L432,389.297 L49,389.297" style="stroke:#808080;stroke-width:0.5;" fill="#FFFFE0"/><path d="M432,389.297 L432,399.297 L442,399.297 L432,389.297" style="stroke:#808080;stroke-width:0.5;" fill="#FFFFE0"/><text x="55" y="406.364" fill="#000" font-size="13" textLength="58.906" font-weight="700">Sistema</text><text x="118.039" y="406.364" fill="#000" font-size="13" textLength="309.461">permite mostrar los cambios para confirmación</text><text x="55" y="421.497" fill="#000" font-size="13" textLength="62.423" font-weight="700">Profesor</text><text x="121.555" y="421.497" fill="#000" font-size="13" textLength="182.241">solicita guardar los cambios</text></g></g><g class="entity" data-qualified-name="SESION_CLASE_ABIERTA" id="ent0004" data-source-line="34"><rect x="140.93" y="706.3" width="191.138" height="50" fill="#F5F5F5" style="stroke:#808080;stroke-width:0.5;" rx="12.5" ry="12.5"/><line x1="140.93" y1="732.597" x2="332.068" y2="732.597" style="stroke:#808080;stroke-width:0.5;"/><text x="150.93" y="724.295" fill="#000" font-size="14" textLength="171.138">SESION_CLASE_ABIERTA</text></g><!--link editarSesionClase to SESION_CLASE_ABIERTA--><g class="link" data-entity-1="ent0001" data-entity-2="ent0004" id="lnk10" data-source-line="36" data-link-type="dependency"><path d="M236.5,487.46 C236.5,575.7 236.5,659.26 236.5,700.83" style="stroke:#00F;stroke-width:1;" fill="none" id="editarSesionClase-to-SESION_CLASE_ABIERTA"/><polygon points="236.5,705.83,240.5,696.83,236.5,700.83,232.5,696.83,236.5,705.83" fill="#00F" style="stroke:#00F;stroke-width:1;stroke-linejoin:miter;stroke-miterlimit:10;"/><path d="M241.5,584.3 L241.5,609.3 L389.5,609.3 L389.5,594.3 L379.5,584.3 L241.5,584.3" style="stroke:#808080;stroke-width:0.5;" fill="#FFFFE0"/><path d="M379.5,584.3 L379.5,594.3 L389.5,594.3 L379.5,584.3" style="stroke:#808080;stroke-width:0.5;" fill="#FFFFE0"/><text x="247.5" y="601.367" fill="#000" font-size="13" textLength="127.543">cerrarSesiónClase()</text></g><?plantuml-src bLDHQjj04FtNAORafoqrRGtjHma6nzZKKD9GvI-OC5wDbSMh7R6xIX6bqBFq2Zr2RvAJT7PbkxRb12fzQ3KxR_QzDxD-hMsD3YkmN92d6ZwypVmkwD2kUq6ZBOMs9gZPjF5dR--A0rsYMfUE6rjCsB2J_F8-j6GCVplEP5UGwx9AX-tUTXwmN-byzZw-lRJZCfcFOJYZGWTqENdDTcBGqukNPu0UUd7ude4y6nYaf6lq_EvqU9Yb-Esh1Gnkpqj7P1U3qHx2YZXW6wrQfm30nN9qxNX5djt5c-K8v52ogY4R7CeA6eiIy_hFRmkeWdx03R05pqOhOGmL5tgb5OgdxA6WWCPGN811K558mf0j4eEEPMBLupbyXcUkVQ0A4ysQNAKbIGjFBXgbkxDjGm-H0WRsJmZS8Y8vlwEkn7Bo7pUOnv-_OEnrQJ4qOaCBCrBt60NbdHLxUP_OfPsv5JFuzUv_fgq0RtJDnxY-3yC37wH__-b2nLxQrLcWi5fg-SP11CLsfLqbylwHxdLysyQoGLSSLZda-sCtmVaqdt-vkfjy7kVJk_7bVFhrPfp6yDH6blK7M_GkJKEBmK04dmGbzIxUqJqF53dN5H8zcwkJRVdz1G00?></g></svg>