<?xml version="1.0" encoding="us-ascii" standalone="no"?><svg xmlns="http://www.w3.org/2000/svg" xmlns:xlink="http://www.w3.org/1999/xlink" contentStyleType="text/css" height="874px" preserveAspectRatio="none" style="width:613px;height:874px;background:#FFFFFF;" version="1.1" viewBox="0 0 613 874" width="613px" zoomAndPan="magnify"><defs/><g><text fill="#000000" font-family="sans-serif" font-size="14" font-weight="bold" lengthAdjust="spacing" textLength="136" x="231.5" y="24.5332">Editar Sesi&#243;n Clase</text><g id="SESION_ACTUAL_INICIAL"><rect fill="#F1F1F1" height="50" rx="12.5" ry="12.5" style="stroke:#181818;stroke-width:0.5;" width="223" x="120.5" y="125.6094"/><line style="stroke:#181818;stroke-width:0.5;" x1="120.5" x2="343.5" y1="153.2188" y2="153.2188"/><text fill="#000000" font-family="sans-serif" font-size="14" lengthAdjust="spacing" textLength="203" x="130.5" y="145.1426">SESION_ASISTENCIA_ABIERTA</text></g><path d="M19.5,355.6094 L445,355.6094 A12.5,12.5 0 0 1 457.5,368.1094 L457.5,383.2188 L7,383.2188 L7,368.1094 A12.5,12.5 0 0 1 19.5,355.6094 " fill="#F1F1F1" style="stroke:#F1F1F1;stroke-width:1.0;"/><rect fill="none" height="350.6094" rx="12.5" ry="12.5" style="stroke:#181818;stroke-width:0.5;" width="450.5" x="7" y="355.6094"/><line style="stroke:#181818;stroke-width:0.5;" x1="7" x2="457.5" y1="383.2188" y2="383.2188"/><text fill="#000000" font-family="sans-serif" font-size="14" lengthAdjust="spacing" textLength="203" x="130.75" y="375.1426">SESION_ASISTENCIA_ABIERTA</text><g id="PROCESO_EDICION_COMP.ModificacionDatos"><rect fill="#F1F1F1" height="50" rx="12.5" ry="12.5" style="stroke:#181818;stroke-width:0.5;" width="135" x="19" y="519.2188"/><line style="stroke:#181818;stroke-width:0.5;" x1="19" x2="154" y1="546.8281" y2="546.8281"/><text fill="#000000" font-family="sans-serif" font-size="14" lengthAdjust="spacing" textLength="115" x="29" y="538.752">ModificacionDatos</text></g><ellipse cx="86.5" cy="404.2188" fill="#222222" rx="10" ry="10" style="stroke:#222222;stroke-width:1.0;"/><ellipse cx="86.5" cy="685.2188" fill="none" rx="11" ry="11" style="stroke:#222222;stroke-width:1.0;"/><ellipse cx="86.5" cy="685.2188" fill="#222222" rx="6" ry="6" style="stroke:#222222;stroke-width:1.0;"/><!--link *start*PROCESO_EDICION_COMP to ModificacionDatos--><g id="link_*start*PROCESO_EDICION_COMP_ModificacionDatos"><path d="M86.5,414.2688 C86.5,435.2588 86.5,481.8088 86.5,512.9688 " fill="none" id="*start*PROCESO_EDICION_COMP-to-ModificacionDatos" style="stroke:#008000;stroke-width:1.0;"/><polygon fill="#008000" points="86.5,518.9688,90.5,509.9688,86.5,513.9688,82.5,509.9688,86.5,518.9688" style="stroke:#008000;stroke-width:1.0;"/><path d="M91.5,437.2188 L91.5,496.2188 L372.5,496.2188 L372.5,447.2188 L362.5,437.2188 L91.5,437.2188 " fill="#FEFFDD" style="stroke:#181818;stroke-width:0.5;"/><path d="M362.5,437.2188 L362.5,447.2188 L372.5,447.2188 L362.5,437.2188 " fill="#FEFFDD" style="stroke:#181818;stroke-width:0.5;"/><text fill="#000000" font-family="sans-serif" font-size="13" font-weight="bold" lengthAdjust="spacing" textLength="51" x="97.5" y="455.7139">Sistema</text><text fill="#000000" font-family="sans-serif" font-size="13" lengthAdjust="spacing" textLength="205" x="152.5" y="455.7139">permite introducir los nuevos datos.</text><text fill="#000000" font-family="sans-serif" font-size="13" lengthAdjust="spacing" textLength="4" x="97.5" y="472.0654">&#160;</text><text fill="#000000" font-family="sans-serif" font-size="13" font-weight="bold" lengthAdjust="spacing" textLength="53" x="97.5" y="488.417">Profesor</text><text fill="#000000" font-family="sans-serif" font-size="13" lengthAdjust="spacing" textLength="201" x="154.5" y="488.417">introduce la informaci&#243;n necesaria.</text></g><!--link ModificacionDatos to *end*PROCESO_EDICION_COMP--><g id="link_ModificacionDatos_*end*PROCESO_EDICION_COMP"><path d="M86.5,569.4288 C86.5,600.2288 86.5,646.0588 86.5,667.9588 " fill="none" id="ModificacionDatos-to-*end*PROCESO_EDICION_COMP" style="stroke:#008000;stroke-width:1.0;"/><polygon fill="#008000" points="86.5,673.9588,90.5,664.9588,86.5,668.9588,82.5,664.9588,86.5,673.9588" style="stroke:#008000;stroke-width:1.0;"/><path d="M91.5,592.2188 L91.5,651.2188 L448.5,651.2188 L448.5,602.2188 L438.5,592.2188 L91.5,592.2188 " fill="#FEFFDD" style="stroke:#181818;stroke-width:0.5;"/><path d="M438.5,592.2188 L438.5,602.2188 L448.5,602.2188 L438.5,592.2188 " fill="#FEFFDD" style="stroke:#181818;stroke-width:0.5;"/><text fill="#000000" font-family="sans-serif" font-size="13" font-weight="bold" lengthAdjust="spacing" textLength="104" x="97.5" y="610.7139">Sistema permite</text><text fill="#000000" font-family="sans-serif" font-size="13" lengthAdjust="spacing" textLength="228" x="205.5" y="610.7139">retornar los cambios para confirmaci&#243;n.</text><text fill="#000000" font-family="sans-serif" font-size="13" lengthAdjust="spacing" textLength="4" x="97.5" y="627.0654">&#160;</text><text fill="#000000" font-family="sans-serif" font-size="13" font-weight="bold" lengthAdjust="spacing" textLength="102" x="97.5" y="643.417">Profesor solicita</text><text fill="#000000" font-family="sans-serif" font-size="13" lengthAdjust="spacing" textLength="121" x="203.5" y="643.417">guardar los cambios.</text></g><g id="SESION_ACTUAL_FINAL"><rect fill="#F1F1F1" height="50" rx="12.5" ry="12.5" style="stroke:#181818;stroke-width:0.5;" width="223" x="120.5" y="818.6094"/><line style="stroke:#181818;stroke-width:0.5;" x1="120.5" x2="343.5" y1="846.2188" y2="846.2188"/><text fill="#000000" font-family="sans-serif" font-size="14" lengthAdjust="spacing" textLength="203" x="130.5" y="838.1426">SESION_ASISTENCIA_ABIERTA</text></g><ellipse cx="232" cy="54.6094" fill="#222222" rx="10" ry="10" style="stroke:#222222;stroke-width:1.0;"/><!--link *start* to SESION_ACTUAL_INICIAL--><g id="link_*start*_SESION_ACTUAL_INICIAL"><path d="M232,64.6194 C232,78.4994 232,99.5794 232,119.4494 " fill="none" id="*start*-to-SESION_ACTUAL_INICIAL" style="stroke:#008000;stroke-width:1.0;"/><polygon fill="#008000" points="232,125.4494,236,116.4494,232,120.4494,228,116.4494,232,125.4494" style="stroke:#008000;stroke-width:1.0;"/></g><!--link SESION_ACTUAL_INICIAL to PROCESO_EDICION_COMP--><g id="link_SESION_ACTUAL_INICIAL_PROCESO_EDICION_COMP"><path d="M232,175.8594 C232,212.5694 232,279.4294 232,349.5794 " fill="none" id="SESION_ACTUAL_INICIAL-to-PROCESO_EDICION_COMP" style="stroke:#008000;stroke-width:1.0;"/><polygon fill="#008000" points="232,355.5794,236,346.5794,232,350.5794,228,346.5794,232,355.5794" style="stroke:#008000;stroke-width:1.0;"/><text fill="#000000" font-family="sans-serif" font-size="13" lengthAdjust="spacing" textLength="113" x="331" y="220.1045">editarSesionClase()</text><path d="M237,228.9609 L237,319.9609 L538,319.9609 L538,238.9609 L528,228.9609 L237,228.9609 " fill="#FEFFDD" style="stroke:#181818;stroke-width:0.5;"/><path d="M528,228.9609 L528,238.9609 L538,238.9609 L528,228.9609 " fill="#FEFFDD" style="stroke:#181818;stroke-width:0.5;"/><text fill="#000000" font-family="sans-serif" font-size="13" font-weight="bold" lengthAdjust="spacing" textLength="53" x="243" y="247.4561">Profesor</text><text fill="#000000" font-family="sans-serif" font-size="13" lengthAdjust="spacing" textLength="197" x="300" y="247.4561">se encuentra en una sesi&#243;n activa</text><text fill="#000000" font-family="sans-serif" font-size="13" lengthAdjust="spacing" textLength="7" x="243" y="263.8076">y</text><text fill="#000000" font-family="sans-serif" font-size="13" font-weight="bold" lengthAdjust="spacing" textLength="45" x="254" y="263.8076">solicita</text><text fill="#000000" font-family="sans-serif" font-size="13" lengthAdjust="spacing" textLength="193" x="303" y="263.8076">modificar los detalles de la clase.</text><text fill="#000000" font-family="sans-serif" font-size="13" lengthAdjust="spacing" textLength="4" x="243" y="280.1592">&#160;</text><text fill="#000000" font-family="sans-serif" font-size="13" font-weight="bold" lengthAdjust="spacing" textLength="169" x="243" y="296.5107">Sistema permite introducir</text><text fill="#000000" font-family="sans-serif" font-size="13" lengthAdjust="spacing" textLength="107" x="416" y="296.5107">las modificaciones</text><text fill="#000000" font-family="sans-serif" font-size="13" lengthAdjust="spacing" textLength="161" x="243" y="312.8623">en los campos informativos.</text></g><!--link PROCESO_EDICION_COMP to SESION_ACTUAL_FINAL--><g id="link_PROCESO_EDICION_COMP_SESION_ACTUAL_FINAL"><path d="M232,706.8694 C232,750.9994 232,786.9894 232,812.2794 " fill="none" id="PROCESO_EDICION_COMP-to-SESION_ACTUAL_FINAL" style="stroke:#008000;stroke-width:1.0;"/><polygon fill="#008000" points="232,818.2794,236,809.2794,232,813.2794,228,809.2794,232,818.2794" style="stroke:#008000;stroke-width:1.0;"/><path d="M237,741.6094 L237,783.6094 L606,783.6094 L606,751.6094 L596,741.6094 L237,741.6094 " fill="#FEFFDD" style="stroke:#181818;stroke-width:0.5;"/><path d="M596,741.6094 L596,751.6094 L606,751.6094 L596,741.6094 " fill="#FEFFDD" style="stroke:#181818;stroke-width:0.5;"/><text fill="#000000" font-family="sans-serif" font-size="13" font-weight="bold" lengthAdjust="spacing" textLength="104" x="243" y="760.1045">Sistema permite</text><text fill="#000000" font-family="sans-serif" font-size="13" lengthAdjust="spacing" textLength="240" x="351" y="760.1045">retornar nuevamente el detalle de la clase</text><text fill="#000000" font-family="sans-serif" font-size="13" lengthAdjust="spacing" textLength="158" x="243" y="776.4561">con los cambios aplicados.</text></g><!--SRC=[ZLFRJkCm47ttLupW1LQY-xv2bR8XI96WhKZt2Q5gwaoHXMD7jeDKeVsg_GH-RCTk0mtfmZxvDcVcd3FZe88cA6eLq455Nht-CP1hz2Jyap8jEcn0AqDXsnAqLc_ZGGWVC11KHLNEPwiiN_xARbRbhCpBx0RGmqd_KfNLifZnzIhxMHPto-na3rtSpVEYcg-AAmPnP3w_NS3_GOTLhyiPr_mIAkw_FS35_UcZ8p8F5zFZt8KuBkaGU9Jv3w3aORJGccJWsRambkbQ4mry4fVhwSBP3NdhBh-lf-09oCYEJ738E-WCyjsk0oY3UaQn1GPvgvNat0dKs5fjbEHcQUkXfe1QKzo0Hf2nx4J4IfNoWHg4bboZc8JYAhRkfDhLvi2tL989anVC8AQKsBIyABEnha5cOVs4tsg8MiHdpNiHWji0kuZRW-HN6ApVFNvimZWiHWriYnVlWXBxiQX4tNJq74s9UIQY1muyxn79hhr6cHmt9CcZKpX9m7V5yJIYEH31ehwYtLDE91m5wyo-XUptMl4QVnf8QpQgfpIM08DHUEpGrSCi7xd_5k9eg_xz3z9l6itjfogYxTZm6FCywtua3oTII6i6Mh5b6LWF9kil]--></g></svg>