<?xml version="1.0" encoding="us-ascii" standalone="no"?><svg xmlns="http://www.w3.org/2000/svg" xmlns:xlink="http://www.w3.org/1999/xlink" contentStyleType="text/css" height="841px" preserveAspectRatio="none" style="width:559px;height:841px;background:#FFFFFF;" version="1.1" viewBox="0 0 559 841" width="559px" zoomAndPan="magnify"><defs/><g><text fill="#000000" font-family="sans-serif" font-size="14" font-weight="bold" lengthAdjust="spacing" textLength="206" x="169.75" y="24.5332">Exportar Historial Asistencias</text><g id="ASISTENCIAS_ABIERTO_INICIAL"><rect fill="#F1F1F1" height="50" rx="12.5" ry="12.5" style="stroke:#181818;stroke-width:0.5;" width="176" x="136.5" y="125.6094"/><line style="stroke:#181818;stroke-width:0.5;" x1="136.5" x2="312.5" y1="153.2188" y2="153.2188"/><text fill="#000000" font-family="sans-serif" font-size="14" lengthAdjust="spacing" textLength="156" x="146.5" y="145.1426">ASISTENCIAS_ABIERTO</text></g><path d="M19.5,306.6094 L429.5,306.6094 A12.5,12.5 0 0 1 442,319.1094 L442,334.2188 L7,334.2188 L7,319.1094 A12.5,12.5 0 0 1 19.5,306.6094 " fill="#F1F1F1" style="stroke:#F1F1F1;stroke-width:1.0;"/><rect fill="none" height="366.6094" rx="12.5" ry="12.5" style="stroke:#181818;stroke-width:0.5;" width="435" x="7" y="306.6094"/><line style="stroke:#181818;stroke-width:0.5;" x1="7" x2="442" y1="334.2188" y2="334.2188"/><text fill="#000000" font-family="sans-serif" font-size="14" lengthAdjust="spacing" textLength="174" x="137.5" y="326.1426">EXPORTANDO_HISTORIAL</text><g id="PROCESO_EXPORTACION_COMP.SeleccionParametros"><rect fill="#F1F1F1" height="50" rx="12.5" ry="12.5" style="stroke:#181818;stroke-width:0.5;" width="154" x="19" y="486.2188"/><line style="stroke:#181818;stroke-width:0.5;" x1="19" x2="173" y1="513.8281" y2="513.8281"/><text fill="#000000" font-family="sans-serif" font-size="14" lengthAdjust="spacing" textLength="134" x="29" y="505.752">SeleccionParametros</text></g><ellipse cx="96" cy="355.2188" fill="#222222" rx="10" ry="10" style="stroke:#222222;stroke-width:1.0;"/><ellipse cx="96" cy="652.2188" fill="none" rx="11" ry="11" style="stroke:#222222;stroke-width:1.0;"/><ellipse cx="96" cy="652.2188" fill="#222222" rx="6" ry="6" style="stroke:#222222;stroke-width:1.0;"/><!--link *start*PROCESO_EXPORTACION_COMP to SeleccionParametros--><g id="link_*start*PROCESO_EXPORTACION_COMP_SeleccionParametros"><path d="M96,365.3888 C96,388.7688 96,445.1788 96,479.9588 " fill="none" id="*start*PROCESO_EXPORTACION_COMP-to-SeleccionParametros" style="stroke:#008000;stroke-width:1.0;"/><polygon fill="#008000" points="96,485.9588,100,476.9588,96,480.9588,92,476.9588,96,485.9588" style="stroke:#008000;stroke-width:1.0;"/><path d="M101,388.2188 L101,463.2188 L433,463.2188 L433,398.2188 L423,388.2188 L101,388.2188 " fill="#FEFFDD" style="stroke:#181818;stroke-width:0.5;"/><path d="M423,388.2188 L423,398.2188 L433,398.2188 L423,388.2188 " fill="#FEFFDD" style="stroke:#181818;stroke-width:0.5;"/><text fill="#000000" font-family="sans-serif" font-size="13" font-weight="bold" lengthAdjust="spacing" textLength="104" x="107" y="406.7139">Sistema permite</text><text fill="#000000" font-family="sans-serif" font-size="13" lengthAdjust="spacing" textLength="173" x="215" y="406.7139">configurar el formato de salida</text><text fill="#000000" font-family="sans-serif" font-size="13" lengthAdjust="spacing" textLength="200" x="107" y="423.0654">(Excel, PDF) y el rango de fechas.</text><text fill="#000000" font-family="sans-serif" font-size="13" lengthAdjust="spacing" textLength="4" x="107" y="439.417">&#160;</text><text fill="#000000" font-family="sans-serif" font-size="13" font-weight="bold" lengthAdjust="spacing" textLength="102" x="107" y="455.7686">Profesor solicita</text><text fill="#000000" font-family="sans-serif" font-size="13" lengthAdjust="spacing" textLength="205" x="213" y="455.7686">la generaci&#243;n con sus preferencias.</text></g><!--link SeleccionParametros to *end*PROCESO_EXPORTACION_COMP--><g id="link_SeleccionParametros_*end*PROCESO_EXPORTACION_COMP"><path d="M96,536.4288 C96,567.2288 96,613.0588 96,634.9588 " fill="none" id="SeleccionParametros-to-*end*PROCESO_EXPORTACION_COMP" style="stroke:#008000;stroke-width:1.0;"/><polygon fill="#008000" points="96,640.9588,100,631.9588,96,635.9588,92,631.9588,96,640.9588" style="stroke:#008000;stroke-width:1.0;"/><path d="M101,559.2188 L101,618.2188 L400,618.2188 L400,569.2188 L390,559.2188 L101,559.2188 " fill="#FEFFDD" style="stroke:#181818;stroke-width:0.5;"/><path d="M390,559.2188 L390,569.2188 L400,569.2188 L390,559.2188 " fill="#FEFFDD" style="stroke:#181818;stroke-width:0.5;"/><text fill="#000000" font-family="sans-serif" font-size="13" font-weight="bold" lengthAdjust="spacing" textLength="105" x="107" y="577.7139">Sistema procesa</text><text fill="#000000" font-family="sans-serif" font-size="13" lengthAdjust="spacing" textLength="169" x="216" y="577.7139">los datos y genera el archivo.</text><text fill="#000000" font-family="sans-serif" font-size="13" lengthAdjust="spacing" textLength="4" x="107" y="594.0654">&#160;</text><text fill="#000000" font-family="sans-serif" font-size="13" font-weight="bold" lengthAdjust="spacing" textLength="102" x="107" y="610.417">Profesor solicita</text><text fill="#000000" font-family="sans-serif" font-size="13" lengthAdjust="spacing" textLength="119" x="213" y="610.417">descargar el archivo.</text></g><g id="ASISTENCIAS_ABIERTO_FINAL"><rect fill="#F1F1F1" height="50" rx="12.5" ry="12.5" style="stroke:#181818;stroke-width:0.5;" width="176" x="136.5" y="785.6094"/><line style="stroke:#181818;stroke-width:0.5;" x1="136.5" x2="312.5" y1="813.2188" y2="813.2188"/><text fill="#000000" font-family="sans-serif" font-size="14" lengthAdjust="spacing" textLength="156" x="146.5" y="805.1426">ASISTENCIAS_ABIERTO</text></g><ellipse cx="224.5" cy="54.6094" fill="#222222" rx="10" ry="10" style="stroke:#222222;stroke-width:1.0;"/><!--link *start* to ASISTENCIAS_ABIERTO_INICIAL--><g id="link_*start*_ASISTENCIAS_ABIERTO_INICIAL"><path d="M224.5,64.6194 C224.5,78.4994 224.5,99.5794 224.5,119.4494 " fill="none" id="*start*-to-ASISTENCIAS_ABIERTO_INICIAL" style="stroke:#008000;stroke-width:1.0;"/><polygon fill="#008000" points="224.5,125.4494,228.5,116.4494,224.5,120.4494,220.5,116.4494,224.5,125.4494" style="stroke:#008000;stroke-width:1.0;"/></g><!--link ASISTENCIAS_ABIERTO_INICIAL to PROCESO_EXPORTACION_COMP--><g id="link_ASISTENCIAS_ABIERTO_INICIAL_PROCESO_EXPORTACION_COMP"><path d="M224.5,175.6094 C224.5,204.0694 224.5,248.2394 224.5,300.2094 " fill="none" id="ASISTENCIAS_ABIERTO_INICIAL-to-PROCESO_EXPORTACION_COMP" style="stroke:#008000;stroke-width:1.0;"/><polygon fill="#008000" points="224.5,306.2094,228.5,297.2094,224.5,301.2094,220.5,297.2094,224.5,306.2094" style="stroke:#008000;stroke-width:1.0;"/><text fill="#000000" font-family="sans-serif" font-size="13" lengthAdjust="spacing" textLength="170" x="306" y="220.1045">exportarHistorialAsistencias()</text><path d="M229.5,228.9609 L229.5,270.9609 L552.5,270.9609 L552.5,238.9609 L542.5,228.9609 L229.5,228.9609 " fill="#FEFFDD" style="stroke:#181818;stroke-width:0.5;"/><path d="M542.5,228.9609 L542.5,238.9609 L552.5,238.9609 L542.5,228.9609 " fill="#FEFFDD" style="stroke:#181818;stroke-width:0.5;"/><text fill="#000000" font-family="sans-serif" font-size="13" font-weight="bold" lengthAdjust="spacing" textLength="53" x="235.5" y="247.4561">Profesor</text><text fill="#000000" font-family="sans-serif" font-size="13" lengthAdjust="spacing" textLength="245" x="292.5" y="247.4561">se encuentra en ASISTENCIAS_ABIERTO</text><text fill="#000000" font-family="sans-serif" font-size="13" lengthAdjust="spacing" textLength="7" x="235.5" y="263.8076">y</text><text fill="#000000" font-family="sans-serif" font-size="13" font-weight="bold" lengthAdjust="spacing" textLength="45" x="246.5" y="263.8076">solicita</text><text fill="#000000" font-family="sans-serif" font-size="13" lengthAdjust="spacing" textLength="210" x="295.5" y="263.8076">descargar el registro de asistencias.</text></g><!--link PROCESO_EXPORTACION_COMP to ASISTENCIAS_ABIERTO_FINAL--><g id="link_PROCESO_EXPORTACION_COMP_ASISTENCIAS_ABIERTO_FINAL"><path d="M224.5,673.6094 C224.5,718.0894 224.5,754.0994 224.5,779.3394 " fill="none" id="PROCESO_EXPORTACION_COMP-to-ASISTENCIAS_ABIERTO_FINAL" style="stroke:#008000;stroke-width:1.0;"/><polygon fill="#008000" points="224.5,785.3394,228.5,776.3394,224.5,780.3394,220.5,776.3394,224.5,785.3394" style="stroke:#008000;stroke-width:1.0;"/><path d="M229.5,708.6094 L229.5,750.6094 L516.5,750.6094 L516.5,718.6094 L506.5,708.6094 L229.5,708.6094 " fill="#FEFFDD" style="stroke:#181818;stroke-width:0.5;"/><path d="M506.5,708.6094 L506.5,718.6094 L516.5,718.6094 L506.5,708.6094 " fill="#FEFFDD" style="stroke:#181818;stroke-width:0.5;"/><text fill="#000000" font-family="sans-serif" font-size="13" font-weight="bold" lengthAdjust="spacing" textLength="104" x="235.5" y="727.1045">Sistema permite</text><text fill="#000000" font-family="sans-serif" font-size="13" lengthAdjust="spacing" textLength="126" x="343.5" y="727.1045">la descarga y retornar</text><text fill="#000000" font-family="sans-serif" font-size="13" lengthAdjust="spacing" textLength="266" x="235.5" y="743.4561">el control al estado ASISTENCIAS_ABIERTO.</text></g><!--SRC=[XPDBRjim48RtFCN0tIH5q-wBm83hA8Y0LX8iBme4WS1G8uK8JGf3keXHz5GzGY_MeVn8rCgsLY8rZ__xPnHqC0Z9I-SeI88xxOCZBGtCFB-YLLfwuP-rxIJ95HXjCMmwXCwPJJm8uOCC2BCoBPT9DazdPJNxaYQBPLwbMShdho0zJ4Q-JtQfnIAV9sLU9T-BVB6SpTCyg-RvjmBuYQcx- -mch-wuIBxWcfCJRM_JZ9l2yRRY_lq3NDs_QmdHFbnDJuaNuXJPso97CJu3xkmzkFl6t8jBOHsJE1lDVHRNZzE2N8FUqVMdnobu10vSemqa-MrCgzW0PtbdjD91zbarUYMfvOcY0SAMsv7ZMpRbqFcZG5j3R2xEJUAd474QswWI3IgbdItYIY0NzjlF_zew5XZZ1hpnWjMNKTPAGeUqqW5x2ELiezirRIaQHoiPUWWlZQvbdtgHl2Wq7w2ukRs4JKyhRTj7DQYU8kM-nTvM63Xb9BHeaQJIVtxRs1FysaD7s23jZOeLNisAfn6s0JjxSPwLd4A_ay7vDUDvXjZgYIoIr9F-uSun3APzo1c8_YN4qUcU-nNw7-g_BHsR69kvry8SXBpjLf9WLUmhUyJg322lKUt6Ehrkv5y0]--></g></svg>