<svg xmlns="http://www.w3.org/2000/svg" xmlns:xlink="http://www.w3.org/1999/xlink" contentStyleType="text/css" data-diagram-type="STATE" height="825px" preserveAspectRatio="none" style="width:661px;height:825px;background:#FFFFFF;" version="1.1" viewBox="0 0 661 825" width="661px" zoomAndPan="magnify"><title>Exportar Historial Asistencias</title><defs/><g><text fill="#000000" font-family="sans-serif" font-size="14" font-weight="bold" lengthAdjust="spacing" textLength="199.1855" x="223.9072" y="24.5332">Exportar Historial Asistencias</text><g id="ASISTENCIAS_ABIERTO_INICIAL"><rect fill="#F1F1F1" height="50" rx="12.5" ry="12.5" style="stroke:#181818;stroke-width:0.5;" width="181.8203" x="128" y="125.6094"/><line style="stroke:#181818;stroke-width:0.5;" x1="128" x2="309.8203" y1="153.2188" y2="153.2188"/><text fill="#000000" font-family="sans-serif" font-size="14" lengthAdjust="spacing" textLength="161.8203" x="138" y="145.1426">ASISTENCIAS_ABIERTO</text></g><path d="M19.5,306.6094 L419,306.6094 A12.5,12.5 0 0 1 431.5,319.1094 L431.5,334.2188 L7,334.2188 L7,319.1094 A12.5,12.5 0 0 1 19.5,306.6094" fill="#F1F1F1" style="stroke:#F1F1F1;stroke-width:1;"/><rect fill="none" height="366.6094" rx="12.5" ry="12.5" style="stroke:#181818;stroke-width:0.5;" width="424.5" x="7" y="306.6094"/><line style="stroke:#181818;stroke-width:0.5;" x1="7" x2="431.5" y1="334.2188" y2="334.2188"/><text fill="#000000" font-family="sans-serif" font-size="14" lengthAdjust="spacing" textLength="179.7031" x="129.3984" y="326.1426">EXPORTANDO_HISTORIAL</text><g id="PROCESO_EXPORTACION_COMP.SeleccionParametros"><rect fill="#F1F1F1" height="50" rx="12.5" ry="12.5" style="stroke:#181818;stroke-width:0.5;" width="153.0615" x="19" y="486.2188"/><line style="stroke:#181818;stroke-width:0.5;" x1="19" x2="172.0615" y1="513.8281" y2="513.8281"/><text fill="#000000" font-family="sans-serif" font-size="14" lengthAdjust="spacing" textLength="133.0615" x="29" y="505.752">SeleccionParametros</text></g><ellipse cx="95.5" cy="355.2188" fill="#222222" rx="10" ry="10" style="stroke:#222222;stroke-width:1;"/><ellipse cx="95.5" cy="652.2188" fill="none" rx="11" ry="11" style="stroke:#222222;stroke-width:1;"/><ellipse cx="95.5" cy="652.2188" fill="#222222" rx="6" ry="6" style="stroke:#222222;stroke-width:1;"/><!--link *start*PROCESO_EXPORTACION_COMP to SeleccionParametros--><g class="link" data-entity-1="*start*PROCESO_EXPORTACION_COMP" data-entity-2="SeleccionParametros" data-source-line="20" data-uid="lnk6" id="link_*start*PROCESO_EXPORTACION_COMP_SeleccionParametros"><path d="M95.5,365.3888 C95.5,388.7688 95.5,445.1788 95.5,479.9588" fill="none" id="*start*PROCESO_EXPORTACION_COMP-to-SeleccionParametros" style="stroke:#008000;stroke-width:1;"/><polygon fill="#008000" points="95.5,485.9588,99.5,476.9588,95.5,480.9588,91.5,476.9588,95.5,485.9588" style="stroke:#008000;stroke-width:1;"/><path d="M100.5,388.2188 L100.5,463.2188 L402.5,463.2188 L402.5,398.2188 L392.5,388.2188 L100.5,388.2188" fill="#FEFFDD" style="stroke:#181818;stroke-width:0.5;"/><path d="M392.5,388.2188 L392.5,398.2188 L402.5,398.2188 L392.5,388.2188" fill="#FEFFDD" style="stroke:#181818;stroke-width:0.5;"/><text fill="#000000" font-family="sans-serif" font-size="13" font-weight="bold" lengthAdjust="spacing" textLength="164.709" x="106.5" y="406.7139">Sistema permite introducir</text><text fill="#000000" font-family="sans-serif" font-size="13" lengthAdjust="spacing" textLength="113.4517" x="274.8208" y="406.7139">el formato de salida</text><text fill="#000000" font-family="sans-serif" font-size="13" lengthAdjust="spacing" textLength="197.9707" x="106.5" y="423.0654">(Excel, PDF) y el rango de fechas.</text><text fill="#000000" font-family="sans-serif" font-size="13" lengthAdjust="spacing" textLength="3.6118" x="106.5" y="439.417">&#160;</text><text fill="#000000" font-family="sans-serif" font-size="13" font-weight="bold" lengthAdjust="spacing" textLength="116.2954" x="106.5" y="455.7686">Profesor introduce</text><text fill="#000000" font-family="sans-serif" font-size="13" lengthAdjust="spacing" textLength="98.9917" x="226.4072" y="455.7686">sus preferencias.</text></g><!--link SeleccionParametros to *end*PROCESO_EXPORTACION_COMP--><g class="link" data-entity-1="SeleccionParametros" data-entity-2="*end*PROCESO_EXPORTACION_COMP" data-source-line="28" data-uid="lnk8" id="link_SeleccionParametros_*end*PROCESO_EXPORTACION_COMP"><path d="M95.5,536.4288 C95.5,567.2288 95.5,613.0588 95.5,634.9588" fill="none" id="SeleccionParametros-to-*end*PROCESO_EXPORTACION_COMP" style="stroke:#008000;stroke-width:1;"/><polygon fill="#008000" points="95.5,640.9588,99.5,631.9588,95.5,635.9588,91.5,631.9588,95.5,640.9588" style="stroke:#008000;stroke-width:1;"/><path d="M100.5,559.2188 L100.5,618.2188 L422.5,618.2188 L422.5,569.2188 L412.5,559.2188 L100.5,559.2188" fill="#FEFFDD" style="stroke:#181818;stroke-width:0.5;"/><path d="M412.5,559.2188 L412.5,569.2188 L422.5,569.2188 L412.5,559.2188" fill="#FEFFDD" style="stroke:#181818;stroke-width:0.5;"/><text fill="#000000" font-family="sans-serif" font-size="13" font-weight="bold" lengthAdjust="spacing" textLength="107.6626" x="106.5" y="577.7139">Sistema presenta</text><text fill="#000000" font-family="sans-serif" font-size="13" lengthAdjust="spacing" textLength="190.0425" x="217.7744" y="577.7139">el archivo listo para su descarga.</text><text fill="#000000" font-family="sans-serif" font-size="13" lengthAdjust="spacing" textLength="3.6118" x="106.5" y="594.0654">&#160;</text><text fill="#000000" font-family="sans-serif" font-size="13" font-weight="bold" lengthAdjust="spacing" textLength="101.8672" x="106.5" y="610.417">Profesor solicita</text><text fill="#000000" font-family="sans-serif" font-size="13" lengthAdjust="spacing" textLength="120.6689" x="211.979" y="610.417">descargar el archivo.</text></g><g id="ASISTENCIAS_ABIERTO_FINAL"><rect fill="#F1F1F1" height="50" rx="12.5" ry="12.5" style="stroke:#181818;stroke-width:0.5;" width="181.8203" x="128" y="769.6094"/><line style="stroke:#181818;stroke-width:0.5;" x1="128" x2="309.8203" y1="797.2188" y2="797.2188"/><text fill="#000000" font-family="sans-serif" font-size="14" lengthAdjust="spacing" textLength="161.8203" x="138" y="789.1426">ASISTENCIAS_ABIERTO</text></g><ellipse cx="219" cy="54.6094" fill="#222222" rx="10" ry="10" style="stroke:#222222;stroke-width:1;"/><!--link *start* to ASISTENCIAS_ABIERTO_INICIAL--><g class="link" data-entity-1="*start*" data-entity-2="ASISTENCIAS_ABIERTO_INICIAL" data-source-line="8" data-uid="lnk3" id="link_*start*_ASISTENCIAS_ABIERTO_INICIAL"><path d="M219,64.6194 C219,78.4994 219,99.5794 219,119.4494" fill="none" id="*start*-to-ASISTENCIAS_ABIERTO_INICIAL" style="stroke:#008000;stroke-width:1;"/><polygon fill="#008000" points="219,125.4494,223,116.4494,219,120.4494,215,116.4494,219,125.4494" style="stroke:#008000;stroke-width:1;"/></g><!--link ASISTENCIAS_ABIERTO_INICIAL to PROCESO_EXPORTACION_COMP--><g class="link" data-entity-1="ASISTENCIAS_ABIERTO_INICIAL" data-entity-2="PROCESO_EXPORTACION_COMP" data-source-line="10" data-uid="lnk4" id="link_ASISTENCIAS_ABIERTO_INICIAL_PROCESO_EXPORTACION_COMP"><path d="M219,175.6094 C219,204.0694 219,248.2394 219,300.2094" fill="none" id="ASISTENCIAS_ABIERTO_INICIAL-to-PROCESO_EXPORTACION_COMP" style="stroke:#008000;stroke-width:1;"/><polygon fill="#008000" points="219,306.2094,223,297.2094,219,301.2094,215,297.2094,219,306.2094" style="stroke:#008000;stroke-width:1;"/><text fill="#000000" font-family="sans-serif" font-size="13" lengthAdjust="spacing" textLength="169.0508" x="302.0645" y="220.1045">exportarHistorialAsistencias()</text><path d="M224,228.9609 L224,270.9609 L549,270.9609 L549,238.9609 L539,228.9609 L224,228.9609" fill="#FEFFDD" style="stroke:#181818;stroke-width:0.5;"/><path d="M539,228.9609 L539,238.9609 L549,238.9609 L539,228.9609" fill="#FEFFDD" style="stroke:#181818;stroke-width:0.5;"/><text fill="#000000" font-family="sans-serif" font-size="13" font-weight="bold" lengthAdjust="spacing" textLength="53.46" x="230" y="247.4561">Profesor</text><text fill="#000000" font-family="sans-serif" font-size="13" lengthAdjust="spacing" textLength="247.1079" x="287.0718" y="247.4561">se encuentra en ASISTENCIAS_ABIERTO</text><text fill="#000000" font-family="sans-serif" font-size="13" lengthAdjust="spacing" textLength="6.5" x="230" y="263.8076">y</text><text fill="#000000" font-family="sans-serif" font-size="13" font-weight="bold" lengthAdjust="spacing" textLength="44.7954" x="240.1118" y="263.8076">solicita</text><text fill="#000000" font-family="sans-serif" font-size="13" lengthAdjust="spacing" textLength="208.1016" x="288.519" y="263.8076">descargar el registro de asistencias.</text></g><!--link PROCESO_EXPORTACION_COMP to ASISTENCIAS_ABIERTO_FINAL--><g class="link" data-entity-1="PROCESO_EXPORTACION_COMP" data-entity-2="ASISTENCIAS_ABIERTO_FINAL" data-source-line="36" data-uid="lnk9" id="link_PROCESO_EXPORTACION_COMP_ASISTENCIAS_ABIERTO_FINAL"><path d="M219,673.6194 C219,711.7994 219,741.1994 219,763.5094" fill="none" id="PROCESO_EXPORTACION_COMP-to-ASISTENCIAS_ABIERTO_FINAL" style="stroke:#008000;stroke-width:1;"/><polygon fill="#008000" points="219,769.5094,223,760.5094,219,764.5094,215,760.5094,219,769.5094" style="stroke:#008000;stroke-width:1;"/><path d="M224,708.6094 L224,734.6094 L654,734.6094 L654,718.6094 L644,708.6094 L224,708.6094" fill="#FEFFDD" style="stroke:#181818;stroke-width:0.5;"/><path d="M644,708.6094 L644,718.6094 L654,718.6094 L644,708.6094" fill="#FEFFDD" style="stroke:#181818;stroke-width:0.5;"/><text fill="#000000" font-family="sans-serif" font-size="13" font-weight="bold" lengthAdjust="spacing" textLength="104.0508" x="230" y="727.1045">Sistema muestra</text><text fill="#000000" font-family="sans-serif" font-size="13" lengthAdjust="spacing" textLength="302.0278" x="337.6626" y="727.1045">nuevamente el listado en ASISTENCIAS_ABIERTO.</text></g><!--SRC=[XLDDRzim3BthLn3PfHtMxJuK0RpKHGrijX7dCA0e35PcKg6sP4XoqM3OVnzbnrdQnebE-dWattkalF8rGVpQ6klHmfrotbY5DKIEjwIbGYVSiz8jMcoWLfhyjYLeJRqD1o6SHqyG5KcnYjD54XLbz2E9bwkiJDA4ppy17SoElCzseVaoMyH5LiQ_ysovYXP9bfQBx5SEl4BexZwzoSexJf8jEUViHDdR9EMYC5rMt7z-WAlxJnjBf1-kvgV82t5AsM6IIHdVWNRsxjqzCFVYKcZ3IemEvZwBwyTvRisQdB7Ntnxdu0WOs97s5dbtZAlO0aSvKokfFFPH5Jc9TiCTfHeiRRYSDNpBfkmhVnMaAmZ5nRbE_14YT6D05LIJbCheF8m4SM8tFB-tzHWmuDxe3HVClWYq6eIMRAFuMR5UKtLI3IwmYhMn3VfUXCDQLTY7NiIlakelaD_SNiAsLujwqwFM99-2oh74QEi-Dmq6TmvQIskoeoq1_z-QS3gYv8rILdvUcIN7NSHH3rhvf5uCOtae87mlfh9ltC3Y0_Nf9k_IlMF_LuZ9ffxx0Vq_-Z2Sevoc8vwfWOZkw8LjqOna9a4GLcPYM0-cxXy0]--></g></svg>