<svg xmlns="http://www.w3.org/2000/svg" xmlns:xlink="http://www.w3.org/1999/xlink" version="1.1" data-diagram-type="STATE" style="width:457px;height:755px;background:#FFFFFF;" width="457px" height="755px" viewBox="0 0 457 755" zoomAndPan="magnify" preserveAspectRatio="none" contentStyleType="text/css"><?plantuml 1.2026.7beta8?><defs/><g font-family="sans-serif" lengthAdjust="spacing"><g class="entity" data-qualified-name="exportarHistorialAsistencias" id="ent0001" data-source-line="9"><path d="M19.5,7 L429.5,7 A12.5,12.5 0 0 1 442,19.5 L442,33.297 L7,33.297 L7,19.5 A12.5,12.5 0 0 1 19.5,7" fill="#F5F5F5"/><path d="M7,33.297 L442,33.297 L442,459.797 A12.5,12.5 0 0 1 429.5,472.297 L19.5,472.297 A12.5,12.5 0 0 1 7,459.797 L7,33.297" fill="#F5F5F5"/><rect x="7" y="7" width="435" height="465.297" fill="none" style="stroke:#808080;stroke-width:0.5;" rx="12.5" ry="12.5"/><line x1="7" y1="33.297" x2="442" y2="33.297" style="stroke:#808080;stroke-width:0.5;"/><text x="120.888" y="24.995" fill="#000" font-size="14" textLength="207.225">exportarHistorialAsistencias()</text><g class="entity" data-qualified-name="exportarHistorialAsistencias.Paso1" id="ent0002" data-source-line="10"><rect x="19" y="135.297" width="50" height="50" fill="#F5F5F5" style="stroke:#808080;stroke-width:0.5;" rx="12.5" ry="12.5"/><line x1="19" y1="161.594" x2="69" y2="161.594" style="stroke:#808080;stroke-width:0.5;"/><text x="41.775" y="153.292" fill="#000" font-size="14"> </text></g><g class="entity" data-qualified-name="exportarHistorialAsistencias.Paso2" id="ent0003" data-source-line="11"><rect x="19" y="301.297" width="50" height="50" fill="#F5F5F5" style="stroke:#808080;stroke-width:0.5;" rx="12.5" ry="12.5"/><line x1="19" y1="327.594" x2="69" y2="327.594" style="stroke:#808080;stroke-width:0.5;"/><text x="41.775" y="319.292" fill="#000" font-size="14"> </text></g><g class="start_entity" data-qualified-name="exportarHistorialAsistencias..start.exportarHistorialAsistencias" id="ent0005" data-source-line="13"><ellipse cx="44" cy="54.297" rx="10" ry="10" fill="#222" style="stroke:#222;stroke-width:1;"/></g><g class="end_entity" data-qualified-name="exportarHistorialAsistencias..end.exportarHistorialAsistencias" id="ent0008" data-source-line="26"><ellipse cx="44" cy="448.297" rx="11" ry="11" fill="none" style="stroke:#222;stroke-width:1;"/><ellipse cx="44" cy="448.297" rx="6" ry="6" fill="#222" style="stroke:#222;stroke-width:1;"/></g><!--link *start*exportarHistorialAsistencias to Paso1--><g class="link" data-entity-1="ent0005" data-entity-2="ent0002" id="lnk6" data-source-line="13" data-link-type="dependency"><path d="M44,64.527 C44,80.237 44,107.657 44,130.167" style="stroke:#008000;stroke-width:1;" fill="none" id="*start*exportarHistorialAsistencias-to-Paso1"/><polygon points="44,135.167,48,126.167,44,130.167,40,126.167,44,135.167" fill="#008000" style="stroke:#008000;stroke-width:1;stroke-linejoin:miter;stroke-miterlimit:10;"/><path d="M49,87.297 L49,112.297 L418,112.297 L418,97.297 L408,87.297 L49,87.297" style="stroke:#808080;stroke-width:0.5;" fill="#FFFFE0"/><path d="M408,87.297 L408,97.297 L418,97.297 L408,87.297" style="stroke:#808080;stroke-width:0.5;" fill="#FFFFE0"/><text x="55" y="104.364" fill="#000" font-size="13" textLength="62.423" font-weight="700">Profesor</text><text x="121.555" y="104.364" fill="#000" font-size="13" textLength="281.671">solicita descargar el registro de asistencias</text></g><!--link Paso1 to Paso2--><g class="link" data-entity-1="ent0002" data-entity-2="ent0003" id="lnk7" data-source-line="18" data-link-type="dependency"><path d="M44,185.497 C44,216.507 44,264.947 44,295.997" style="stroke:#008000;stroke-width:1;" fill="none" id="Paso1-to-Paso2"/><polygon points="44,300.997,48,291.997,44,295.997,40,291.997,44,300.997" fill="#008000" style="stroke:#008000;stroke-width:1;stroke-linejoin:miter;stroke-miterlimit:10;"/><path d="M49,208.297 L49,278.297 L361,278.297 L361,218.297 L351,208.297 L49,208.297" style="stroke:#808080;stroke-width:0.5;" fill="#FFFFE0"/><path d="M351,208.297 L351,218.297 L361,218.297 L351,208.297" style="stroke:#808080;stroke-width:0.5;" fill="#FFFFE0"/><text x="55" y="225.364" fill="#000" font-size="13" textLength="58.906" font-weight="700">Sistema</text><text x="118.039" y="225.364" fill="#000" font-size="13" textLength="228.116">permite configurar los parámetros:</text><text x="55" y="240.497" fill="#000" font-size="13" textLength="209.701">• Asignatura y Rango de Fechas</text><text x="55" y="255.629" fill="#000" font-size="13" textLength="222.187">• Formato de Archivo (Excel, PDF)</text><text x="55" y="270.762" fill="#000" font-size="13" textLength="62.423" font-weight="700">Profesor</text><text x="121.555" y="270.762" fill="#000" font-size="13" textLength="138.366">solicita la generación</text></g><!--link Paso2 to *end*exportarHistorialAsistencias--><g class="link" data-entity-1="ent0003" data-entity-2="ent0008" id="lnk9" data-source-line="26" data-link-type="dependency"><path d="M44,351.577 C44,377.747 44,413.147 44,431.977" style="stroke:#008000;stroke-width:1;" fill="none" id="Paso2-to-*end*exportarHistorialAsistencias"/><polygon points="44,436.977,48,427.977,44,431.977,40,427.977,44,436.977" fill="#008000" style="stroke:#008000;stroke-width:1;stroke-linejoin:miter;stroke-miterlimit:10;"/><path d="M49,374.297 L49,414.297 L376,414.297 L376,384.297 L366,374.297 L49,374.297" style="stroke:#808080;stroke-width:0.5;" fill="#FFFFE0"/><path d="M366,374.297 L366,384.297 L376,384.297 L366,374.297" style="stroke:#808080;stroke-width:0.5;" fill="#FFFFE0"/><text x="55" y="391.364" fill="#000" font-size="13" textLength="58.906" font-weight="700">Sistema</text><text x="118.039" y="391.364" fill="#000" font-size="13" textLength="243.667">procesa los datos y genera el archivo</text><text x="55" y="406.497" fill="#000" font-size="13" textLength="62.423" font-weight="700">Profesor</text><text x="121.555" y="406.497" fill="#000" font-size="13" textLength="182.781">solicita descargar el archivo</text></g></g><g class="entity" data-qualified-name="ASISTENCIAS_ABIERTO" id="ent0004" data-source-line="33"><rect x="134.41" y="691.3" width="180.173" height="50" fill="#F5F5F5" style="stroke:#808080;stroke-width:0.5;" rx="12.5" ry="12.5"/><line x1="134.41" y1="717.597" x2="314.583" y2="717.597" style="stroke:#808080;stroke-width:0.5;"/><text x="144.41" y="709.295" fill="#000" font-size="14" textLength="160.173">ASISTENCIAS_ABIERTO</text></g><!--link exportarHistorialAsistencias to ASISTENCIAS_ABIERTO--><g class="link" data-entity-1="ent0001" data-entity-2="ent0004" id="lnk10" data-source-line="35" data-link-type="dependency"><path d="M224.5,472.76 C224.5,560.69 224.5,644.58 224.5,686.1" style="stroke:#00F;stroke-width:1;" fill="none" id="exportarHistorialAsistencias-to-ASISTENCIAS_ABIERTO"/><polygon points="224.5,691.1,228.5,682.1,224.5,686.1,220.5,682.1,224.5,691.1" fill="#00F" style="stroke:#00F;stroke-width:1;stroke-linejoin:miter;stroke-miterlimit:10;"/><path d="M229.5,569.3 L229.5,594.3 L363.5,594.3 L363.5,579.3 L353.5,569.3 L229.5,569.3" style="stroke:#808080;stroke-width:0.5;" fill="#FFFFE0"/><path d="M353.5,569.3 L353.5,579.3 L363.5,579.3 L353.5,569.3" style="stroke:#808080;stroke-width:0.5;" fill="#FFFFE0"/><text x="235.5" y="586.367" fill="#000" font-size="13" textLength="113.547">abrirAsistencias()</text></g><?plantuml-src bLF1RjD04BtxAqRjfKL4G2Gue2gIMnAHIudgtge8JTRJpIhh7Mjs0xKG4hy2lz1Fw9_m9QpN8NAR4C2-s6_Vp7jlTjUlZAjHi0B79NcguStBp6z1GRVQ0Qrn59gQe6RRj3-zjKiET8vgfONNhhnWonBvUXaQifO_FsMob2GTImislUKYu6wduydhzjsXFMsJ-HQ68xghMGBAU-C3Yq6R-_X5JXdq9wT7W1uEKU1B1l7PD8F4dw7dL_lXOPRmcsTp6DmSQo5oyy6eL-5YP63N3d2L082pnMWcV4kUvUp5OWIUhL4c8CJDK2WQ1SY2a8wcX2CQnRR-KWzoPMhSYIUn7VdX0VcYRLTXKgz9AXD9YjsjqMk9wfOzn54_VAye6l1lDuK_l_s0E2djC4GQD725JYT_4rBBZRMEDc6fCAIrNDJIV68u6TyfiizXzcvo-hT1M0HDZWILURXtVuWyV1Gvxi2_1XPMv36bBAD97vDqQktOiRFxNrlLhzdw_BezaNanBQx7bnVJlFYOdq_7LzSVqldPWsVPmRCP0o_ickQ3GKoyhpobb_RkzMQ02p7ow1Palrt-0W00?></g></svg>