<svg xmlns="http://www.w3.org/2000/svg" xmlns:xlink="http://www.w3.org/1999/xlink" version="1.1" data-diagram-type="STATE" style="width:510px;height:755px;background:#FFFFFF;" width="510px" height="755px" viewBox="0 0 510 755" zoomAndPan="magnify" preserveAspectRatio="none" contentStyleType="text/css"><?plantuml 1.2026.7beta8?><defs/><g font-family="sans-serif" lengthAdjust="spacing"><g class="entity" data-qualified-name="registrarTomaAsistencia" id="ent0001" data-source-line="9"><path d="M19.5,7 L482.5,7 A12.5,12.5 0 0 1 495,19.5 L495,33.297 L7,33.297 L7,19.5 A12.5,12.5 0 0 1 19.5,7" fill="#F5F5F5"/><path d="M7,33.297 L495,33.297 L495,459.797 A12.5,12.5 0 0 1 482.5,472.297 L19.5,472.297 A12.5,12.5 0 0 1 7,459.797 L7,33.297" fill="#F5F5F5"/><rect x="7" y="7" width="488" height="465.297" fill="none" style="stroke:#808080;stroke-width:0.5;" rx="12.5" ry="12.5"/><line x1="7" y1="33.297" x2="495" y2="33.297" style="stroke:#808080;stroke-width:0.5;"/><text x="160.263" y="24.995" fill="#000" font-size="14" textLength="181.474">registrarTomaAsistencia()</text><g class="entity" data-qualified-name="registrarTomaAsistencia.Paso1" id="ent0002" data-source-line="10"><rect x="19" y="150.297" width="50" height="50" fill="#F5F5F5" style="stroke:#808080;stroke-width:0.5;" rx="12.5" ry="12.5"/><line x1="19" y1="176.594" x2="69" y2="176.594" style="stroke:#808080;stroke-width:0.5;"/><text x="41.775" y="168.292" fill="#000" font-size="14"> </text></g><g class="entity" data-qualified-name="registrarTomaAsistencia.Paso2" id="ent0003" data-source-line="11"><rect x="19" y="271.297" width="50" height="50" fill="#F5F5F5" style="stroke:#808080;stroke-width:0.5;" rx="12.5" ry="12.5"/><line x1="19" y1="297.594" x2="69" y2="297.594" style="stroke:#808080;stroke-width:0.5;"/><text x="41.775" y="289.292" fill="#000" font-size="14"> </text></g><g class="start_entity" data-qualified-name="registrarTomaAsistencia..start.registrarTomaAsistencia" id="ent0005" data-source-line="13"><ellipse cx="44" cy="54.297" rx="10" ry="10" fill="#222" style="stroke:#222;stroke-width:1;"/></g><g class="end_entity" data-qualified-name="registrarTomaAsistencia..end.registrarTomaAsistencia" id="ent0008" data-source-line="24"><ellipse cx="44" cy="448.297" rx="11" ry="11" fill="none" style="stroke:#222;stroke-width:1;"/><ellipse cx="44" cy="448.297" rx="6" ry="6" fill="#222" style="stroke:#222;stroke-width:1;"/></g><!--link *start*registrarTomaAsistencia to Paso1--><g class="link" data-entity-1="ent0005" data-entity-2="ent0002" id="lnk6" data-source-line="13" data-link-type="dependency"><path d="M44,64.637 C44,82.827 44,118.537 44,144.907" style="stroke:#008000;stroke-width:1;" fill="none" id="*start*registrarTomaAsistencia-to-Paso1"/><polygon points="44,149.907,48,140.907,44,144.907,40,140.907,44,149.907" fill="#008000" style="stroke:#008000;stroke-width:1;stroke-linejoin:miter;stroke-miterlimit:10;"/><path d="M49,87.297 L49,127.297 L351,127.297 L351,97.297 L341,87.297 L49,87.297" style="stroke:#808080;stroke-width:0.5;" fill="#FFFFE0"/><path d="M341,87.297 L341,97.297 L351,97.297 L341,87.297" style="stroke:#808080;stroke-width:0.5;" fill="#FFFFE0"/><text x="55" y="104.364" fill="#000" font-size="13" textLength="62.423" font-weight="700">Profesor</text><text x="121.555" y="104.364" fill="#000" font-size="13" textLength="215.363">se encuentra en una clase activa</text><text x="55" y="119.497" fill="#000" font-size="13" textLength="223.374">y solicita pasar lista a los alumnos</text></g><!--link Paso1 to Paso2--><g class="link" data-entity-1="ent0002" data-entity-2="ent0003" id="lnk7" data-source-line="19" data-link-type="dependency"><path d="M44,200.667 C44,221.197 44,245.437 44,265.957" style="stroke:#008000;stroke-width:1;" fill="none" id="Paso1-to-Paso2"/><polygon points="44,270.957,48,261.957,44,265.957,40,261.957,44,270.957" fill="#008000" style="stroke:#008000;stroke-width:1;stroke-linejoin:miter;stroke-miterlimit:10;"/><path d="M49,223.297 L49,248.297 L471,248.297 L471,233.297 L461,223.297 L49,223.297" style="stroke:#808080;stroke-width:0.5;" fill="#FFFFE0"/><path d="M461,223.297 L461,233.297 L471,233.297 L461,223.297" style="stroke:#808080;stroke-width:0.5;" fill="#FFFFE0"/><text x="55" y="240.364" fill="#000" font-size="13" textLength="58.906" font-weight="700">Sistema</text><text x="118.039" y="240.364" fill="#000" font-size="13" textLength="338.102">permite mostrar el listado de alumnos matriculados</text></g><!--link Paso2 to *end*registrarTomaAsistencia--><g class="link" data-entity-1="ent0003" data-entity-2="ent0008" id="lnk9" data-source-line="24" data-link-type="dependency"><path d="M44,321.727 C44,355.107 44,408.477 44,432.017" style="stroke:#008000;stroke-width:1;" fill="none" id="Paso2-to-*end*registrarTomaAsistencia"/><polygon points="44,437.017,48,428.017,44,432.017,40,428.017,44,437.017" fill="#008000" style="stroke:#008000;stroke-width:1;stroke-linejoin:miter;stroke-miterlimit:10;"/><path d="M49,344.297 L49,414.297 L423,414.297 L423,354.297 L413,344.297 L49,344.297" style="stroke:#808080;stroke-width:0.5;" fill="#FFFFE0"/><path d="M413,344.297 L413,354.297 L423,354.297 L413,344.297" style="stroke:#808080;stroke-width:0.5;" fill="#FFFFE0"/><text x="55" y="361.364" fill="#000" font-size="13" textLength="58.906" font-weight="700">Sistema</text><text x="118.039" y="361.364" fill="#000" font-size="13" textLength="290.507">permite introducir el estado de cada alumno</text><text x="55" y="376.497" fill="#000" font-size="13" textLength="62.423" font-weight="700">Profesor</text><text x="121.555" y="376.497" fill="#000" font-size="13" textLength="147.234">introduce los cambios:</text><text x="55" y="391.629" fill="#000" font-size="13" textLength="185.117">• Presente / Ausente / Tarde</text><text x="55" y="406.762" fill="#000" font-size="13" textLength="156.958">• Justificación (si aplica)</text></g></g><g class="entity" data-qualified-name="SESION_CLASE_ABIERTA" id="ent0004" data-source-line="33"><rect x="155.43" y="691.3" width="191.138" height="50" fill="#F5F5F5" style="stroke:#808080;stroke-width:0.5;" rx="12.5" ry="12.5"/><line x1="155.43" y1="717.597" x2="346.568" y2="717.597" style="stroke:#808080;stroke-width:0.5;"/><text x="165.43" y="709.295" fill="#000" font-size="14" textLength="171.138">SESION_CLASE_ABIERTA</text></g><!--link registrarTomaAsistencia to SESION_CLASE_ABIERTA--><g class="link" data-entity-1="ent0001" data-entity-2="ent0004" id="lnk10" data-source-line="35" data-link-type="dependency"><path d="M251,472.76 C251,560.69 251,644.58 251,686.1" style="stroke:#00F;stroke-width:1;" fill="none" id="registrarTomaAsistencia-to-SESION_CLASE_ABIERTA"/><polygon points="251,691.1,255,682.1,251,686.1,247,682.1,251,691.1" fill="#00F" style="stroke:#00F;stroke-width:1;stroke-linejoin:miter;stroke-miterlimit:10;"/><path d="M256,569.3 L256,594.3 L404,594.3 L404,579.3 L394,569.3 L256,569.3" style="stroke:#808080;stroke-width:0.5;" fill="#FFFFE0"/><path d="M394,569.3 L394,579.3 L404,579.3 L394,569.3" style="stroke:#808080;stroke-width:0.5;" fill="#FFFFE0"/><text x="262" y="586.367" fill="#000" font-size="13" textLength="127.543">cerrarSesiónClase()</text></g><?plantuml-src bPDVQjj04CRVTOeXUR4B9esXVIZ1e1WN4afYAhy54yQhYRfujIDsLmsY57gMNg57w4rwaiwk_w34Tg7IoshccvcVFetyMji67TPWkIHF3Rn_c_bzqA5T7mIDjXIwXg1XqyM7NkwE0rsZMbUEMrjEsR0JVVKbT6GCFxzMiYl9RLILmwwNBW8UTZh_-2xU1xBNRJ8Vmt3cgD8-E7GBhZ7tSYQhD0w6Pu0UJcJXMmPoRLj0aixHy-Nny3XByOStInWzd5UEo2v7arw5bHS5jj6sTGe0NAqcSyTFvDbTNQmcu0baT4jMQEG4hKLG1YMCAkYlk2thmBFHIWU41Zr6PmK740nxGDFMbdsIaYtJs0rQGZc06_y3heXUr9ZO6dAr5b7DoIiWinbRCfIqcmer1gTLQoHy2c7y0a7y-ay0BUvmsIgT66YFeB34BSS9UtULb8nIMAyq-mzRyPyVFs7kPFMjpBY0lDsT5YXRrHFTjZxe9wrGwT-_B0oy1cpaS-3mvGj_twzVCIjkxkyUfv_oOlQONz_CFY_oj3V74bbsQX_5jfLfQJaQYMz7IvE9BlvcFIiLEUbLa8-uqxXDWs6se_mB?></g></svg>