<svg xmlns="http://www.w3.org/2000/svg" xmlns:xlink="http://www.w3.org/1999/xlink" version="1.1" data-diagram-type="DESCRIPTION" style="width:1246px;height:432px;background:#FFFFFF;" width="1246px" height="432px" viewBox="0 0 1246 432" zoomAndPan="magnify" preserveAspectRatio="none" contentStyleType="text/css"><?plantuml 1.2026.7beta3?><defs/><g><!--cluster guardarSolicitudDispensa--><g class="cluster" data-qualified-name="guardarSolicitudDispensa" id="ent0003" data-source-line="6"><path d="M257.73,6 L475.3335,6 A3.75,3.75 0 0 1 477.8335,8.5 L484.8335,28.2969 L996.73,28.2969 A2.5,2.5 0 0 1 999.23,30.7969 L999.23,414.69 A2.5,2.5 0 0 1 996.73,417.19 L257.73,417.19 A2.5,2.5 0 0 1 255.23,414.69 L255.23,8.5 A2.5,2.5 0 0 1 257.73,6" style="stroke:#000000;stroke-width:1.5;" fill="none"/><line x1="255.23" y1="28.2969" x2="484.8335" y2="28.2969" style="stroke:#000000;stroke-width:1.5;"/><text x="259.23" y="20.9951" fill="#000000" font-size="14" lengthAdjust="spacing" textLength="216.6035" font-weight="700" font-family="sans-serif">guardarSolicitudDispensa()</text></g><!--entity GuardarSolicitudDispensaView--><g class="entity" data-qualified-name="guardarSolicitudDispensa.GuardarSolicitudDispensaView" id="ent0004" data-source-line="7"><rect x="471.68" y="41" width="235.0859" height="36.2969" fill="#629EF9" style="stroke:#181818;stroke-width:0.5;" rx="2.5" ry="2.5"/><text x="481.68" y="63.9951" fill="#000000" font-size="14" lengthAdjust="spacing" textLength="215.0859" font-family="sans-serif">GuardarSolicitudDispensaView</text></g><!--entity DispensaController--><g class="entity" data-qualified-name="guardarSolicitudDispensa.DispensaController" id="ent0005" data-source-line="8"><rect x="389.54" y="154.3" width="153.3828" height="36.2969" fill="#B5BD68" style="stroke:#181818;stroke-width:0.5;" rx="2.5" ry="2.5"/><text x="399.54" y="177.2951" fill="#000000" font-size="14" lengthAdjust="spacing" textLength="133.3828" font-family="sans-serif">DispensaController</text></g><!--entity DispensaRepository--><g class="entity" data-qualified-name="guardarSolicitudDispensa.DispensaRepository" id="ent0006" data-source-line="9"><rect x="398.59" y="267.6" width="159.2822" height="36.2969" fill="#F2AC4E" style="stroke:#181818;stroke-width:0.5;" rx="2.5" ry="2.5"/><text x="408.59" y="290.5951" fill="#000000" font-size="14" lengthAdjust="spacing" textLength="139.2822" font-family="sans-serif">DispensaRepository</text></g><!--entity Dispensa--><g class="entity" data-qualified-name="guardarSolicitudDispensa.Dispensa" id="ent0007" data-source-line="10"><rect x="436.12" y="364.89" width="84.21" height="36.2969" fill="#F2AC4E" style="stroke:#181818;stroke-width:0.5;" rx="2.5" ry="2.5"/><text x="446.12" y="387.8851" fill="#000000" font-size="14" lengthAdjust="spacing" textLength="64.21" font-family="sans-serif">Dispensa</text></g><!--entity DashboardSecretariaAbierto--><g class="entity" data-qualified-name="DashboardSecretariaAbierto" id="ent0001" data-source-line="3"><rect x="7" y="41" width="232.4541" height="36.2969" fill="#CDEBA5" style="stroke:#181818;stroke-width:0.5;" rx="2.5" ry="2.5"/><text x="17" y="63.9951" fill="#000000" font-size="14" lengthAdjust="spacing" textLength="212.4541" font-family="sans-serif">:Dashboard Secretaria Abierto</text></g><!--entity DashboardDirectorAbierto--><g class="entity" data-qualified-name="DashboardDirectorAbierto" id="ent0002" data-source-line="4"><rect x="1015.66" y="41" width="217.1416" height="36.2969" fill="#CDEBA5" style="stroke:#181818;stroke-width:0.5;" rx="2.5" ry="2.5"/><text x="1025.66" y="63.9951" fill="#000000" font-size="14" lengthAdjust="spacing" textLength="197.1416" font-family="sans-serif">:Dashboard Director Abierto</text></g><!--link DashboardSecretariaAbierto to GuardarSolicitudDispensaView--><g class="link" data-entity-1="ent0001" data-entity-2="ent0004" id="lnk8" data-source-line="13" data-link-type="dependency"><path d="M239.92,59.15 C310.55,59.15 395.36,59.15 466.23,59.15" style="stroke:#181818;stroke-width:1;" fill="none" id="DashboardSecretariaAbierto-to-GuardarSolicitudDispensaView"/><polygon points="471.23,59.15,462.23,55.15,466.23,59.15,462.23,63.15,471.23,59.15" fill="#181818" style="stroke:#181818;stroke-width:1;stroke-linejoin:miter;stroke-miterlimit:10;"/><text x="267.57" y="52.2169" fill="#000000" font-size="13" lengthAdjust="spacing" textLength="176.9092" font-family="sans-serif">guardarSolicitudDispensa()</text></g><!--link DashboardDirectorAbierto to GuardarSolicitudDispensaView--><g class="link" data-entity-1="ent0002" data-entity-2="ent0004" id="lnk9" data-source-line="14" data-link-type="dependency"><path d="M1015.43,59.15 C925.81,59.15 803.95,59.15 711.97,59.15" style="stroke:#181818;stroke-width:1;" fill="none" id="DashboardDirectorAbierto-to-GuardarSolicitudDispensaView"/><polygon points="706.97,59.15,715.97,63.15,711.97,59.15,715.97,55.15,706.97,59.15" fill="#181818" style="stroke:#181818;stroke-width:1;stroke-linejoin:miter;stroke-miterlimit:10;"/><text x="773.21" y="52.2169" fill="#000000" font-size="13" lengthAdjust="spacing" textLength="176.9092" font-family="sans-serif">guardarSolicitudDispensa()</text></g><!--link GuardarSolicitudDispensaView to DispensaController--><g class="link" data-entity-1="ent0004" data-entity-2="ent0005" id="lnk10" data-source-line="16" data-link-type="dependency"><path d="M482.32,77.77 C401.09,91.17 303.23,107.3 303.23,107.3 C303.23,107.3 303.23,124.3 303.23,124.3 C303.23,124.3 354.3868,139.1011 400.7268,152.5011" style="stroke:#181818;stroke-width:1;" fill="none" id="GuardarSolicitudDispensaView-to-DispensaController"/><polygon points="405.53,153.89,397.9954,147.5474,400.7268,152.5011,395.7731,155.2325,405.53,153.89" fill="#181818" style="stroke:#181818;stroke-width:1;stroke-linejoin:miter;stroke-miterlimit:10;"/><text x="304.23" y="120.3669" fill="#000000" font-size="13" lengthAdjust="spacing" textLength="262.8691" font-family="sans-serif">obtenerDispensa(dispensaId) : Dispensa</text></g><!--link GuardarSolicitudDispensaView to DispensaController--><g class="link" data-entity-1="ent0004" data-entity-2="ent0005" id="lnk13" data-source-line="22" data-link-type="dependency"><path d="M584.31,77.68 C578.98,96.67 571.23,124.3 571.23,124.3 C571.23,124.3 539.7415,138.4423 509.8915,151.8423" style="stroke:#181818;stroke-width:1;" fill="none" id="GuardarSolicitudDispensaView-to-DispensaController-1"/><polygon points="505.33,153.89,515.1788,153.8533,509.8915,151.8423,511.9025,146.555,505.33,153.89" fill="#181818" style="stroke:#181818;stroke-width:1;stroke-linejoin:miter;stroke-miterlimit:10;"/><text x="576.23" y="120.3669" fill="#000000" font-size="13" lengthAdjust="spacing" textLength="371.4331" font-family="sans-serif">guardarSolicitudDispensa(dispensaId, estado) : Dispensa</text></g><!--link DispensaController to DispensaRepository--><g class="link" data-entity-1="ent0005" data-entity-2="ent0006" id="lnk11" data-source-line="18" data-link-type="dependency"><path d="M413.72,191 C373.64,204.41 325.23,220.6 325.23,220.6 C325.23,220.6 325.23,237.6 325.23,237.6 C325.23,237.6 372.9819,252.307 416.4819,265.717" style="stroke:#181818;stroke-width:1;" fill="none" id="DispensaController-to-DispensaRepository"/><polygon points="421.26,267.19,413.8378,260.7162,416.4819,265.717,411.481,268.3611,421.26,267.19" fill="#181818" style="stroke:#181818;stroke-width:1;stroke-linejoin:miter;stroke-miterlimit:10;"/><text x="326.23" y="233.6669" fill="#000000" font-size="13" lengthAdjust="spacing" textLength="236.4692" font-family="sans-serif">obtenerPorId(dispensaId) : Dispensa</text></g><!--link DispensaController to DispensaRepository--><g class="link" data-entity-1="ent0005" data-entity-2="ent0006" id="lnk14" data-source-line="24" data-link-type="dependency"><path d="M503.84,191 C532.55,204.41 567.23,220.6 567.23,220.6 C567.23,220.6 567.23,237.6 567.23,237.6 C567.23,237.6 541.0878,251.4384 515.7878,264.8484" style="stroke:#181818;stroke-width:1;" fill="none" id="DispensaController-to-DispensaRepository-1"/><polygon points="511.37,267.19,521.1953,266.5093,515.7878,264.8484,517.4487,259.4409,511.37,267.19" fill="#181818" style="stroke:#181818;stroke-width:1;stroke-linejoin:miter;stroke-miterlimit:10;"/><text x="568.23" y="233.6669" fill="#000000" font-size="13" lengthAdjust="spacing" textLength="312.6982" font-family="sans-serif">actualizarEstado(dispensaId, estado) : Dispensa</text></g><!--link DispensaRepository to Dispensa--><g class="link" data-entity-1="ent0006" data-entity-2="ent0007" id="lnk12" data-source-line="20" data-link-type="association"><path d="M478.23,304.22 C478.23,321.42 478.23,347.52 478.23,364.67" style="stroke:#181818;stroke-width:1;" fill="none" id="DispensaRepository-Dispensa"/></g><?plantuml-src fP11IyD048Nl-ok6UB5WBiKMcuCGarHw4mlU9zaXBbspONQBLF6_kvKsAQsRWEQquRttCU_PZMfQP7m3hHfokvQWDNgt_n62gNBOr9hWAikBXtG6KPAZVIqDieGrLKmEMI6afI9s9WAqq1bw_I2Fy7Arrmt_JZkgHvPeiTfWJL1llOgyDbfLocszqRRKMDodev1uFOdWKu3_JcwQJnV5SW6FWSoBelVpI3ahvVmEZfRCD8wDriJdnkKqpMwBplXChR7ArzcD6CMN4E558URuVl3W1C8JYD2u_yIAeIJ4qhCl1ql0b8uQuWua3u-Ld43I3o8kin2V8FjfE-IJuPKSvVL1pplHXzi4oWJdwQ-u0R8EfVbpEwpS5hNwG2v-G2FiRm00?></g></svg>