<svg xmlns="http://www.w3.org/2000/svg" xmlns:xlink="http://www.w3.org/1999/xlink" version="1.1" data-diagram-type="SEQUENCE" style="width:1297px;height:836px;background:#FFFFFF;" width="1297px" height="836px" viewBox="0 0 1297 836" zoomAndPan="magnify" preserveAspectRatio="none" contentStyleType="text/css"><?plantuml 1.2026.7beta8?><defs/><g font-family="sans-serif" lengthAdjust="spacing"><g class="title" data-source-line="1"><text x="357.933" y="27.995" fill="#000" font-size="14" textLength="579.38" font-weight="700">Diagrama de Secuencia - Importar Matrículas (Vue 3 + Express + Prisma)</text></g><g><title>Secretaria</title><rect x="48.079" y="139.891" width="8" height="592.594" fill="#000" fill-opacity="0"/><line x1="51.579" y1="139.891" x2="51.579" y2="732.484" style="stroke:#181818;stroke-width:0.5;stroke-dasharray:5,5;"/></g><g><title>Frontend</title><rect x="378.357" y="139.891" width="8" height="592.594" fill="#000" fill-opacity="0"/><line x1="381.857" y1="139.891" x2="381.857" y2="732.484" style="stroke:#181818;stroke-width:0.5;stroke-dasharray:5,5;"/></g><g><title></title><rect x="376.857" y="169.023" width="10" height="427.258" fill="#FFF" style="stroke:#181818;stroke-width:1;"/></g><g><title>SecretariaController</title><rect x="696.533" y="139.891" width="8" height="592.594" fill="#000" fill-opacity="0"/><line x1="700.033" y1="139.891" x2="700.033" y2="732.484" style="stroke:#181818;stroke-width:0.5;stroke-dasharray:5,5;"/></g><g><title></title><rect x="695.033" y="213.289" width="10" height="338.727" fill="#FFF" style="stroke:#181818;stroke-width:1;"/></g><g><title>SecretariaService</title><rect x="893.53" y="139.891" width="8" height="592.594" fill="#000" fill-opacity="0"/><line x1="897.03" y1="139.891" x2="897.03" y2="732.484" style="stroke:#181818;stroke-width:0.5;stroke-dasharray:5,5;"/></g><g><title></title><rect x="892.03" y="242.422" width="10" height="29.133" fill="#FFF" style="stroke:#181818;stroke-width:1;"/></g><g><title></title><rect x="892.03" y="331.82" width="10" height="191.063" fill="#FFF" style="stroke:#181818;stroke-width:1;"/></g><g><title>Base de Datos</title><rect x="1229.146" y="139.891" width="8" height="592.594" fill="#000" fill-opacity="0"/><line x1="1232.646" y1="139.891" x2="1232.646" y2="732.484" style="stroke:#181818;stroke-width:0.5;stroke-dasharray:5,5;"/></g><g><title></title><rect x="1227.646" y="376.086" width="10" height="29.133" fill="#FFF" style="stroke:#181818;stroke-width:1;"/></g><g><title></title><rect x="1227.646" y="464.617" width="10" height="29.133" fill="#FFF" style="stroke:#181818;stroke-width:1;"/></g><text x="12.649" y="120.292" fill="#000" font-size="14" textLength="71.859">Secretaria</text><text x="10" y="136.589" fill="#000" font-size="14" textLength="77.157">Academica</text><ellipse cx="51.579" cy="55.797" rx="8" ry="8" fill="#E2E2F0" style="stroke:#181818;stroke-width:0.5;"/><path d="M51.579,63.797 L51.579,90.797 M38.579,71.797 L64.579,71.797 M51.579,90.797 L38.579,105.797 M51.579,90.797 L64.579,105.797" style="stroke:#181818;stroke-width:0.5;" fill="none"/><rect x="343.303" y="92.297" width="77.109" height="46.594" fill="#E2E2F0" style="stroke:#181818;stroke-width:0.5;" rx="2.5" ry="2.5"/><text x="350.303" y="112.292" fill="#000" font-size="14" textLength="63.109">Frontend</text><text x="356.185" y="128.589" fill="#000" font-size="14" textLength="51.345">(Vue 3)</text><rect x="622.517" y="108.594" width="155.032" height="30.297" fill="#E2E2F0" style="stroke:#181818;stroke-width:0.5;" rx="2.5" ry="2.5"/><text x="629.517" y="128.589" fill="#000" font-size="14" textLength="141.032">SecretariaController</text><rect x="828.23" y="108.594" width="137.601" height="30.297" fill="#E2E2F0" style="stroke:#181818;stroke-width:0.5;" rx="2.5" ry="2.5"/><text x="835.23" y="128.589" fill="#000" font-size="14" textLength="123.601">SecretariaService</text><text x="1179.046" y="120.292" fill="#000" font-size="14" textLength="101.199">Base de Datos</text><text x="1183.807" y="136.589" fill="#000" font-size="14" textLength="91.677">(PostgreSQL)</text><path d="M1214.646,71.297 C1214.646,61.297 1232.646,61.297 1232.646,61.297 C1232.646,61.297 1250.646,61.297 1250.646,71.297 L1250.646,97.297 C1250.646,107.297 1232.646,107.297 1232.646,107.297 C1232.646,107.297 1214.646,107.297 1214.646,97.297 L1214.646,71.297" style="stroke:#181818;stroke-width:0.5;" fill="#E2E2F0"/><path d="M1214.646,71.297 C1214.646,81.297 1232.646,81.297 1232.646,81.297 C1232.646,81.297 1250.646,81.297 1250.646,71.297" style="stroke:#181818;stroke-width:0.5;" fill="none"/><text x="12.649" y="745.479" fill="#000" font-size="14" textLength="71.859">Secretaria</text><text x="10" y="761.776" fill="#000" font-size="14" textLength="77.157">Academica</text><ellipse cx="51.579" cy="773.578" rx="8" ry="8" fill="#E2E2F0" style="stroke:#181818;stroke-width:0.5;"/><path d="M51.579,781.578 L51.579,808.578 M38.579,789.578 L64.579,789.578 M51.579,808.578 L38.579,823.578 M51.579,808.578 L64.579,823.578" style="stroke:#181818;stroke-width:0.5;" fill="none"/><rect x="343.303" y="732.484" width="77.109" height="46.594" fill="#E2E2F0" style="stroke:#181818;stroke-width:0.5;" rx="2.5" ry="2.5"/><text x="350.303" y="752.479" fill="#000" font-size="14" textLength="63.109">Frontend</text><text x="356.185" y="768.776" fill="#000" font-size="14" textLength="51.345">(Vue 3)</text><rect x="622.517" y="732.484" width="155.032" height="30.297" fill="#E2E2F0" style="stroke:#181818;stroke-width:0.5;" rx="2.5" ry="2.5"/><text x="629.517" y="752.479" fill="#000" font-size="14" textLength="141.032">SecretariaController</text><rect x="828.23" y="732.484" width="137.601" height="30.297" fill="#E2E2F0" style="stroke:#181818;stroke-width:0.5;" rx="2.5" ry="2.5"/><text x="835.23" y="752.479" fill="#000" font-size="14" textLength="123.601">SecretariaService</text><text x="1179.046" y="745.479" fill="#000" font-size="14" textLength="101.199">Base de Datos</text><text x="1183.807" y="761.776" fill="#000" font-size="14" textLength="91.677">(PostgreSQL)</text><path d="M1214.646,775.078 C1214.646,765.078 1232.646,765.078 1232.646,765.078 C1232.646,765.078 1250.646,765.078 1250.646,775.078 L1250.646,801.078 C1250.646,811.078 1232.646,811.078 1232.646,811.078 C1232.646,811.078 1214.646,811.078 1214.646,801.078 L1214.646,775.078" style="stroke:#181818;stroke-width:0.5;" fill="#E2E2F0"/><path d="M1214.646,775.078 C1214.646,785.078 1232.646,785.078 1232.646,785.078 C1232.646,785.078 1250.646,785.078 1250.646,775.078" style="stroke:#181818;stroke-width:0.5;" fill="none"/><polygon points="364.857,165.023,374.857,169.023,364.857,173.023,368.857,169.023" fill="#181818" style="stroke:#181818;stroke-width:1;stroke-linejoin:miter;stroke-miterlimit:10;"/><line x1="51.579" y1="169.023" x2="370.857" y2="169.023" style="stroke:#181818;stroke-width:1;"/><text x="58.579" y="163.958" fill="#000" font-size="13" textLength="301.279">selecciona archivo de matrículas (CSV / Excel)</text><polygon points="683.033,209.289,693.033,213.289,683.033,217.289,687.033,213.289" fill="#181818" style="stroke:#181818;stroke-width:1;stroke-linejoin:miter;stroke-miterlimit:10;"/><line x1="386.857" y1="213.289" x2="689.033" y2="213.289" style="stroke:#181818;stroke-width:1;"/><text x="393.857" y="193.09" fill="#000" font-size="13" textLength="252.338">POST /api/secretaria/import/matriculas</text><text x="393.857" y="208.223" fill="#000" font-size="13" textLength="195.387">(multipart/form-data: archivo)</text><polygon points="880.03,238.422,890.03,242.422,880.03,246.422,884.03,242.422" fill="#181818" style="stroke:#181818;stroke-width:1;stroke-linejoin:miter;stroke-miterlimit:10;"/><line x1="705.033" y1="242.422" x2="886.03" y2="242.422" style="stroke:#181818;stroke-width:1;"/><text x="712.033" y="237.356" fill="#000" font-size="13" textLength="151.43">validarArchivo(archivo)</text><polygon points="716.033,267.555,706.033,271.555,716.033,275.555,712.033,271.555" fill="#181818" style="stroke:#181818;stroke-width:1;stroke-linejoin:miter;stroke-miterlimit:10;"/><line x1="710.033" y1="271.555" x2="891.03" y2="271.555" style="stroke:#181818;stroke-width:1;stroke-dasharray:2,2;"/><text x="722.033" y="266.489" fill="#000" font-size="13" textLength="104.375">valido : Boolean</text><path d="M35.579,283.555 L100.021,283.555 L100.021,290.688 L90.021,300.688 L35.579,300.688 L35.579,283.555" style="stroke:#000;stroke-width:1.5;" fill="#EEE"/><rect x="35.579" y="283.555" width="1218.067" height="424.93" fill="none" style="stroke:#000;stroke-width:1.5;"/><text x="50.579" y="296.622" fill="#000" font-size="13" textLength="19.443" font-weight="700">alt</text><text x="115.021" y="295.765" fill="#000" font-size="11" textLength="97.147" font-weight="700">[archivo válido]</text><line x1="35.579" y1="615.281" x2="1253.646" y2="615.281" style="stroke:#000;stroke-width:1;stroke-dasharray:2,2;"/><text x="40.579" y="627.492" fill="#000" font-size="11" textLength="108.749" font-weight="700">[archivo inválido]</text><polygon points="880.03,327.82,890.03,331.82,880.03,335.82,884.03,331.82" fill="#181818" style="stroke:#181818;stroke-width:1;stroke-linejoin:miter;stroke-miterlimit:10;"/><line x1="705.033" y1="331.82" x2="886.03" y2="331.82" style="stroke:#181818;stroke-width:1;"/><text x="712.033" y="326.754" fill="#000" font-size="13" textLength="167.997">importMatriculas(archivo)</text><polygon points="1215.646,372.086,1225.646,376.086,1215.646,380.086,1219.646,376.086" fill="#181818" style="stroke:#181818;stroke-width:1;stroke-linejoin:miter;stroke-miterlimit:10;"/><line x1="902.03" y1="376.086" x2="1221.646" y2="376.086" style="stroke:#181818;stroke-width:1;"/><text x="909.03" y="355.887" fill="#000" font-size="13" textLength="155.397">SELECT * FROM Alumno</text><text x="909.03" y="371.02" fill="#000" font-size="13" textLength="98.382">WHERE dni = ?</text><polygon points="913.03,401.219,903.03,405.219,913.03,409.219,909.03,405.219" fill="#181818" style="stroke:#181818;stroke-width:1;stroke-linejoin:miter;stroke-miterlimit:10;"/><line x1="907.03" y1="405.219" x2="1226.646" y2="405.219" style="stroke:#181818;stroke-width:1;stroke-dasharray:2,2;"/><text x="919.03" y="400.153" fill="#000" font-size="13" textLength="110.919">alumno : Alumno</text><polygon points="1215.646,460.617,1225.646,464.617,1215.646,468.617,1219.646,464.617" fill="#181818" style="stroke:#181818;stroke-width:1;stroke-linejoin:miter;stroke-miterlimit:10;"/><line x1="902.03" y1="464.617" x2="1221.646" y2="464.617" style="stroke:#181818;stroke-width:1;"/><text x="909.03" y="429.286" fill="#000" font-size="13" textLength="147.196">INSERT INTO Matricula</text><text x="909.03" y="444.418" fill="#000" font-size="13" textLength="160.71">(alumnoId, asignaturaId)</text><text x="909.03" y="459.551" fill="#000" font-size="13" textLength="169.616">ON CONFLICT DO UPDATE</text><polygon points="913.03,489.75,903.03,493.75,913.03,497.75,909.03,493.75" fill="#181818" style="stroke:#181818;stroke-width:1;stroke-linejoin:miter;stroke-miterlimit:10;"/><line x1="907.03" y1="493.75" x2="1226.646" y2="493.75" style="stroke:#181818;stroke-width:1;stroke-dasharray:2,2;"/><text x="919.03" y="488.684" fill="#000" font-size="13" textLength="301.615">resultados : { creadas, actualizadas, errores }</text><polygon points="716.033,518.883,706.033,522.883,716.033,526.883,712.033,522.883" fill="#181818" style="stroke:#181818;stroke-width:1;stroke-linejoin:miter;stroke-miterlimit:10;"/><line x1="710.033" y1="522.883" x2="891.03" y2="522.883" style="stroke:#181818;stroke-width:1;stroke-dasharray:2,2;"/><text x="722.033" y="517.817" fill="#000" font-size="13" textLength="146.929">informe : ImportResult</text><polygon points="397.857,548.016,387.857,552.016,397.857,556.016,393.857,552.016" fill="#181818" style="stroke:#181818;stroke-width:1;stroke-linejoin:miter;stroke-miterlimit:10;"/><line x1="391.857" y1="552.016" x2="694.033" y2="552.016" style="stroke:#181818;stroke-width:1;stroke-dasharray:2,2;"/><text x="403.857" y="546.95" fill="#000" font-size="13" textLength="127.029">200 OK { informe }</text><polygon points="62.579,592.281,52.579,596.281,62.579,600.281,58.579,596.281" fill="#181818" style="stroke:#181818;stroke-width:1;stroke-linejoin:miter;stroke-miterlimit:10;"/><line x1="56.579" y1="596.281" x2="375.857" y2="596.281" style="stroke:#181818;stroke-width:1;stroke-dasharray:2,2;"/><text x="68.579" y="576.083" fill="#000" font-size="13" textLength="210.958">muestra informe de importación</text><text x="68.579" y="591.215" fill="#000" font-size="13" textLength="206.299">(creadas, actualizadas, errores)</text><polygon points="392.857,667.352,382.857,671.352,392.857,675.352,388.857,671.352" fill="#181818" style="stroke:#181818;stroke-width:1;stroke-linejoin:miter;stroke-miterlimit:10;"/><line x1="386.857" y1="671.352" x2="699.033" y2="671.352" style="stroke:#181818;stroke-width:1;stroke-dasharray:2,2;"/><text x="398.857" y="651.153" fill="#000" font-size="13" textLength="111.604">400 Bad Request</text><text x="398.857" y="666.286" fill="#000" font-size="13" textLength="294.176">{ message: "Formato de archivo no válido" }</text><polygon points="62.579,696.484,52.579,700.484,62.579,704.484,58.579,700.484" fill="#181818" style="stroke:#181818;stroke-width:1;stroke-linejoin:miter;stroke-miterlimit:10;"/><line x1="56.579" y1="700.484" x2="380.857" y2="700.484" style="stroke:#181818;stroke-width:1;stroke-dasharray:2,2;"/><text x="68.579" y="695.418" fill="#000" font-size="13" textLength="166.271">muestra error de formato</text><?plantuml-src ZLJDRjD04BxxAKOvDT0e5N2AH55-N16Hr24EvPBBi3iDAzcxORsE45KVXWVWn2FqnPYrwx-4Kd9mTksTxsT-rYcN4CmKxYoc298W9f6J5WfX0FDqRwn32qjqzk6No1FCuEmc9tWDBo7ylhUKPRnQMPMbs0y25CvOw3669OvJkDLZWP9I9R077Dny2VPedH9gZzf1xyeQxKZBhIxX-yNfwcttR8CnvS_M90dPudYpVIeW9djGWXwb5Ej0eiClc17q9lx9APYXCnahMPdCxIp57nUbdDaa21ei65pM0c446IKaX38Q0QtugWx6GwNjn4tZ6nXosWGbVPygTK17ZScWHcFanWjZhw9u0qFSgs5MqmzLKPoXPr050IjEyyGfxtruQsmwyDP6bPmMPIjHGOk8QH-Jmfm7J9H4Eow3pqv1glm5LSpWM7O1ONWnCIOXr86aqsXCN9smmyDF7n44mB-dX9M-bxNjHfgFEYNmRsk9brn4neZ3HJZTm0kuMaTB62TvgirMVtuVhaEGMi5RUDT5uzBxFGSFEcAm2EL5YL4SQhdq7VCt_lbr7Aut_BU9e7R2zIlXvlASsqtjDBhSubpsjpgwXcbqVRMOi-fP19zMi_4c_3-9FAFS5IXDnfixuFv1YTcv3yovG3_A7Lbh-2JSFslXkCfA-rxpJELriIxuZc4wvMYNjZj5houk8Fh0CYlK4ptjtlMVcg4fNDVJEO8qfynPhA5u7ClUGQ4UVcjEzxzpqJ-cRYQL4hufggvL-ic-xPfxm-OcA65DtxoqhRw3b2zGtD68Rq3MoFUELra1wteYUezvUDvieTs3t9Puh5NBFm00?></g></svg>