<?plantuml 1.2026.1beta5?><svg xmlns="http://www.w3.org/2000/svg" xmlns:xlink="http://www.w3.org/1999/xlink" contentStyleType="text/css" data-diagram-type="STATE" height="1137px" preserveAspectRatio="none" style="width:870px;height:1137px;background:#FFFFFF;" version="1.1" viewBox="0 0 870 1137" width="870px" zoomAndPan="magnify"><title>Consultar solicitud de dispensa</title><defs/><g><g class="title" data-source-line="1"><text fill="#000000" font-family="sans-serif" font-size="14" font-weight="bold" lengthAdjust="spacing" textLength="247.8848" x="300.891" y="32.9951">Consultar solicitud de dispensa</text></g><g><rect fill="#F1F1F1" height="76.2969" rx="12.5" ry="12.5" style="stroke:#181818;stroke-width:0.5;" width="187.3623" x="474.32" y="183.2969"/><line style="stroke:#181818;stroke-width:0.5;" x1="474.32" x2="661.6823" y1="229.5938" y2="229.5938"/><text fill="#000000" font-family="sans-serif" font-size="14" lengthAdjust="spacing" textLength="147.3623" x="494.32" y="211.292">DISPENSAS_ABIERTO</text></g><path d="M291.84,359.5969 L844.1667,359.5969 A12.5,12.5 0 0 1 856.6667,372.0969 L856.6667,405.8938 L279.34,405.8938 L279.34,372.0969 A12.5,12.5 0 0 1 291.84,359.5969" fill="#F1F1F1"/><rect fill="none" height="271.5669" rx="12.5" ry="12.5" style="stroke:#181818;stroke-width:0.5;" width="577.3267" x="279.34" y="359.5969"/><line style="stroke:#181818;stroke-width:0.5;" x1="279.34" x2="856.6667" y1="405.8938" y2="405.8938"/><text fill="#000000" font-family="sans-serif" font-size="14" lengthAdjust="spacing" textLength="219.3516" x="458.3276" y="387.592">SOLICITUD_DISPENSA_ABIERTA</text><g><rect fill="#F1F1F1" height="90.2656" rx="12.5" ry="12.5" style="stroke:#181818;stroke-width:0.5;" width="198.7783" x="291.34" y="472.8938"/><line style="stroke:#181818;stroke-width:0.5;" x1="291.34" x2="490.1183" y1="519.1906" y2="519.1906"/><text fill="#000000" font-family="sans-serif" font-size="14" lengthAdjust="spacing" textLength="158.7783" x="311.34" y="500.8889">Visualizaci&#243;n y Edici&#243;n</text><text fill="#000000" font-family="sans-serif" font-size="12" lengthAdjust="spacing" textLength="3.8145" x="306.34" y="545.3293">&#160;</text></g><ellipse cx="390.73" cy="426.8938" fill="#222222" rx="10" ry="10" style="stroke:#222222;stroke-width:1;"/><ellipse cx="390.73" cy="610.1638" fill="none" rx="11" ry="11" style="stroke:#222222;stroke-width:1;"/><ellipse cx="390.73" cy="610.1638" fill="#222222" rx="6" ry="6" style="stroke:#222222;stroke-width:1;"/><g class="entity" data-qualified-name="SOLICITUD_DISPENSA_ABIERTA_COMP.GMN2" data-source-line="30" id="ent0003"><path d="M507.8,480.3338 L507.8,514.1638 L490.3,518.1638 L507.8,522.1638 L507.8,555.7322 A0,0 0 0 0 507.8,555.7322 L847.6667,555.7322 A0,0 0 0 0 847.6667,555.7322 L847.6667,490.3338 L837.6667,480.3338 L507.8,480.3338 A0,0 0 0 0 507.8,480.3338" fill="#FEFFDD" style="stroke:#181818;stroke-width:0.5;"/><path d="M837.6667,480.3338 L837.6667,490.3338 L847.6667,490.3338 L837.6667,480.3338" fill="#FEFFDD" style="stroke:#181818;stroke-width:0.5;"/><text fill="#000000" font-family="sans-serif" font-size="13" font-weight="bold" lengthAdjust="spacing" textLength="120.999" x="523.8" y="507.4006">Sistema permite</text><text fill="#000000" font-family="sans-serif" font-size="13" lengthAdjust="spacing" textLength="128.4194" x="648.9313" y="507.4006">visualizar los datos.</text><text fill="#000000" font-family="sans-serif" font-size="13" font-weight="bold" lengthAdjust="spacing" textLength="112.7598" x="523.8" y="522.5335">Alumno solicita</text><text fill="#000000" font-family="sans-serif" font-size="13" lengthAdjust="spacing" textLength="181.9746" x="640.6921" y="522.5335">modificar campos mediante</text><text fill="#000000" font-family="sans-serif" font-size="13" font-weight="bold" lengthAdjust="spacing" textLength="186.875" x="523.8" y="537.6663">editarSolicitudDispensa()</text><text fill="#000000" font-family="sans-serif" font-size="13" lengthAdjust="spacing" textLength="4.1323" x="710.675" y="537.6663">.</text></g><!--link *start*SOLICITUD_DISPENSA_ABIERTA_COMP to SolicitarEditarSolicitud--><g class="link" data-entity-1="ent0005" data-entity-2="ent0005" data-link-type="dependency" data-source-line="27" id="lnk6"><path d="M390.73,437.3538 C390.73,446.1438 390.73,453.3538 390.73,466.5538" fill="none" id="*start*SOLICITUD_DISPENSA_ABIERTA_COMP-to-SolicitarEditarSolicitud" style="stroke:#008000;stroke-width:1;"/><polygon fill="#008000" points="390.73,472.5538,394.73,463.5538,390.73,467.5538,386.73,463.5538,390.73,472.5538" style="stroke:#008000;stroke-width:1;"/></g><!--link SolicitarEditarSolicitud to *end*SOLICITUD_DISPENSA_ABIERTA_COMP--><g class="link" data-entity-1="ent0005" data-entity-2="ent0007" data-link-type="dependency" data-source-line="35" id="lnk8"><path d="M390.73,563.5538 C390.73,576.6138 390.73,583.7238 390.73,592.7038" fill="none" id="SolicitarEditarSolicitud-to-*end*SOLICITUD_DISPENSA_ABIERTA_COMP" style="stroke:#008000;stroke-width:1;"/><polygon fill="#008000" points="390.73,598.7038,394.73,589.7038,390.73,593.7038,386.73,589.7038,390.73,598.7038" style="stroke:#008000;stroke-width:1;"/></g><g><rect fill="#F1F1F1" height="76.2969" rx="12.5" ry="12.5" style="stroke:#181818;stroke-width:0.5;" width="187.3623" x="474.32" y="933.1569"/><line style="stroke:#181818;stroke-width:0.5;" x1="474.32" x2="661.6823" y1="979.4538" y2="979.4538"/><text fill="#000000" font-family="sans-serif" font-size="14" lengthAdjust="spacing" textLength="147.3623" x="494.32" y="961.152">DISPENSAS_ABIERTO</text></g><ellipse cx="568" cy="73.2969" fill="#222222" rx="10" ry="10" style="stroke:#222222;stroke-width:1;"/><ellipse cx="568" cy="1120.4569" fill="none" rx="11" ry="11" style="stroke:#222222;stroke-width:1;"/><ellipse cx="568" cy="1120.4569" fill="#222222" rx="6" ry="6" style="stroke:#222222;stroke-width:1;"/><!--link *start* to DISPENSAS_ABIERTO_INICIAL--><g class="link" data-entity-1="ent0002" data-entity-2="ent0002" data-link-type="dependency" data-source-line="12" id="lnk3"><path d="M568,83.4769 C568,103.6769 568,143.7469 568,177.1069" fill="none" id="*start*-to-DISPENSAS_ABIERTO_INICIAL" style="stroke:#008000;stroke-width:1;"/><polygon fill="#008000" points="568,183.1069,572,174.1069,568,178.1069,564,174.1069,568,183.1069" style="stroke:#008000;stroke-width:1;"/></g><!--link DISPENSAS_ABIERTO_INICIAL to SOLICITUD_DISPENSA_ABIERTA_COMP--><g class="link" data-entity-1="ent0002" data-entity-2="ent0003" data-link-type="dependency" data-source-line="15" id="lnk4"><path d="M568,259.8269 C568,286.1069 568,316.6969 568,353.2069" fill="none" id="DISPENSAS_ABIERTO_INICIAL-to-SOLICITUD_DISPENSA_ABIERTA_COMP" style="stroke:#008000;stroke-width:1;"/><polygon fill="#008000" points="568,359.2069,572,350.2069,568,354.2069,564,350.2069,568,359.2069" style="stroke:#008000;stroke-width:1;"/><path d="M6,244.5169 L6,304.5169 L355,304.5169 L355,254.5169 L345,244.5169 L6,244.5169" fill="#FEFFDD" style="stroke:#181818;stroke-width:0.5;"/><path d="M345,244.5169 L345,254.5169 L355,254.5169 L345,244.5169" fill="#FEFFDD" style="stroke:#181818;stroke-width:0.5;"/><text fill="#000000" font-family="sans-serif" font-size="13" font-weight="bold" lengthAdjust="spacing" textLength="112.7598" x="22" y="271.5838">Alumno solicita</text><text fill="#000000" font-family="sans-serif" font-size="13" lengthAdjust="spacing" textLength="164.9312" x="138.8921" y="271.5838">seleccionar una solicitud.</text><text fill="#000000" font-family="sans-serif" font-size="13" font-weight="bold" lengthAdjust="spacing" textLength="120.999" x="22" y="286.7166">Sistema permite</text><text fill="#000000" font-family="sans-serif" font-size="13" lengthAdjust="spacing" textLength="182.9648" x="147.1313" y="286.7166">abrir el detalle de la misma.</text><text fill="#000000" font-family="sans-serif" font-size="13" lengthAdjust="spacing" textLength="185.9165" x="371.0962" y="279.1502">consultarSolicitudDispensa()</text></g><!--link SOLICITUD_DISPENSA_ABIERTA_COMP to DISPENSAS_ABIERTO_FINAL--><g class="link" data-entity-1="ent0003" data-entity-2="ent0004" data-link-type="dependency" data-source-line="39" id="lnk9"><path d="M536.77,631.4369 C536.77,734.0469 536.77,861.8169 536.77,926.6769" fill="none" id="SOLICITUD_DISPENSA_ABIERTA_COMP-to-DISPENSAS_ABIERTO_FINAL" style="stroke:#008000;stroke-width:1;"/><polygon fill="#008000" points="536.77,932.6769,540.77,923.6769,536.77,927.6769,532.77,923.6769,536.77,932.6769" style="stroke:#008000;stroke-width:1;"/><path d="M12.77,702.0569 L12.77,777.0569 L332.77,777.0569 L332.77,712.0569 L322.77,702.0569 L12.77,702.0569" fill="#FEFFDD" style="stroke:#181818;stroke-width:0.5;"/><path d="M322.77,702.0569 L322.77,712.0569 L332.77,712.0569 L322.77,702.0569" fill="#FEFFDD" style="stroke:#181818;stroke-width:0.5;"/><text fill="#000000" font-family="sans-serif" font-size="13" font-weight="bold" lengthAdjust="spacing" textLength="77.3589" x="28.77" y="729.1238">GUARDAR:</text><text fill="#000000" font-family="sans-serif" font-size="13" font-weight="bold" lengthAdjust="spacing" textLength="112.7598" x="28.77" y="744.2566">Alumno solicita</text><text fill="#000000" font-family="sans-serif" font-size="13" lengthAdjust="spacing" textLength="118.3647" x="145.6621" y="744.2566">registrar cambios.</text><text fill="#000000" font-family="sans-serif" font-size="13" font-weight="bold" lengthAdjust="spacing" textLength="120.999" x="28.77" y="759.3894">Sistema permite</text><text fill="#000000" font-family="sans-serif" font-size="13" lengthAdjust="spacing" textLength="154.0894" x="153.9013" y="759.3894">persistir la informaci&#243;n.</text><text fill="#000000" font-family="sans-serif" font-size="13" lengthAdjust="spacing" textLength="176.9092" x="348.9907" y="744.2566">guardarSolicitudDispensa()</text></g><!--link SOLICITUD_DISPENSA_ABIERTA_COMP to DISPENSAS_ABIERTO_FINAL--><g class="link" data-entity-1="ent0003" data-entity-2="ent0004" data-link-type="dependency" data-source-line="46" id="lnk10"><path d="M599.23,631.4369 C599.23,734.0469 599.23,861.8169 599.23,926.6769" fill="none" id="SOLICITUD_DISPENSA_ABIERTA_COMP-to-DISPENSAS_ABIERTO_FINAL-1" style="stroke:#FF0000;stroke-width:1;"/><polygon fill="#FF0000" points="599.23,932.6769,603.23,923.6769,599.23,927.6769,595.23,923.6769,599.23,932.6769" style="stroke:#FF0000;stroke-width:1;"/><text fill="#000000" font-family="sans-serif" font-size="13" lengthAdjust="spacing" textLength="164.6899" x="123.23" y="829.2566">cerrarSolicitudDispensa()</text><path d="M303.9199,787.0569 L303.9199,862.0569 L593.9199,862.0569 L593.9199,797.0569 L583.9199,787.0569 L303.9199,787.0569" fill="#FEFFDD" style="stroke:#181818;stroke-width:0.5;"/><path d="M583.9199,787.0569 L583.9199,797.0569 L593.9199,797.0569 L583.9199,787.0569" fill="#FEFFDD" style="stroke:#181818;stroke-width:0.5;"/><text fill="#000000" font-family="sans-serif" font-size="13" font-weight="bold" lengthAdjust="spacing" textLength="63.7114" x="319.9199" y="814.1238">CERRAR:</text><text fill="#000000" font-family="sans-serif" font-size="13" font-weight="bold" lengthAdjust="spacing" textLength="112.7598" x="319.9199" y="829.2566">Alumno solicita</text><text fill="#000000" font-family="sans-serif" font-size="13" lengthAdjust="spacing" textLength="104.1016" x="436.812" y="829.2566">salir del detalle.</text><text fill="#000000" font-family="sans-serif" font-size="13" font-weight="bold" lengthAdjust="spacing" textLength="120.999" x="319.9199" y="844.3894">Sistema permite</text><text fill="#000000" font-family="sans-serif" font-size="13" lengthAdjust="spacing" textLength="124.522" x="445.0513" y="844.3894">descartar cambios.</text></g><!--link DISPENSAS_ABIERTO_FINAL to *end*--><g class="link" data-entity-1="ent0004" data-entity-2="ent0011" data-link-type="dependency" data-source-line="53" id="lnk12"><path d="M568,1009.7169 C568,1042.6869 568,1082.1069 568,1103.0369" fill="none" id="DISPENSAS_ABIERTO_FINAL-to-*end*" style="stroke:#0000FF;stroke-width:1;"/><polygon fill="#0000FF" points="568,1109.0369,572,1100.0369,568,1104.0369,564,1100.0369,568,1109.0369" style="stroke:#0000FF;stroke-width:1;"/></g><?plantuml-src bLNDJjj04BxxAKRfWJPIABr62CbD3B84IMIJNX2A9jv9sBBUZNRNbQ3gK_GfUkuZy68TEtPYMXne3f6r_cPslf-HlVIAO6IqAvH72yuecKbV2104GheDQOV14Gm60nXD9-VnnJm9H_7JpmcC8uZIw_XoMhuCtBtK6xIOWpQ276tWqya9j8ujwllwk7Mgf2R_i24mrj-PreiP2Y7rck51u3nwWd6Spg996gQBy7CS9TVJHJo9Ht5u2RiVEkZz0-lLzUdqak7Ny_6YWTI8S36QNisQ-cvOhtEGytZI7gDpaE2cVmk3ctThIwHl1sVTd0BMFDBUea101SGt2nDqIz1k-XhH8MIDtsbZzxYs-ls7G1lcg6ZbmUZId_kWP7IwF0jLaMlJH0HFFoxFm96YB9D6StOAZVly73TLgNIUSeGDsLnwggfmQQK5KXmoZue3o65J2BbqEHu7f0MKGmHlDEvxTLMDhOUpaP1jVfKZNwGhKCb7pEJJRmqFmA3giLTrgFwEu8gy4GQazcIPRXd7Ih2IXyuaWd_wbMcPOONll72ux_ctwrqr-uhA0olNTsp2wZ3-WCpV6huMb74Wq1jtt2vwoT7S2BbYTXOop3TSbfEGo6Bi2ljzUZx7FZpz_hR_pi8TeqwTsiAmKC6FClefZotOigoC8EbrWLy9alaCBAsCVIntuRLKxFiENboqxSuEWNjRyP-RS34Fat6O34l13cs7fJNROhTQBcMZVeTT_5o6Z3U3Tq5g9fflazfUYJVGjYHU8vsHjGSurybxJdeK9SaRE3kspl92xvRx86V-L73KV5kXFTUk-PdZKXLK9-OF?></g></svg>