<svg xmlns="http://www.w3.org/2000/svg" xmlns:xlink="http://www.w3.org/1999/xlink" version="1.1" data-diagram-type="DESCRIPTION" style="width:1776px;height:432px;background:#FFFFFF;" width="1776px" height="432px" viewBox="0 0 1776 432" zoomAndPan="magnify" preserveAspectRatio="none" contentStyleType="text/css"><?plantuml 1.2026.7beta3?><defs/><g><!--cluster crearSolicitudDispensa--><g class="cluster" data-qualified-name="crearSolicitudDispensa" id="ent0003" data-source-line="6"><path d="M239.51,6 L435.4504,6 A3.75,3.75 0 0 1 437.9504,8.5 L444.9504,28.2969 L1423.51,28.2969 A2.5,2.5 0 0 1 1426.01,30.7969 L1426.01,414.69 A2.5,2.5 0 0 1 1423.51,417.19 L239.51,417.19 A2.5,2.5 0 0 1 237.01,414.69 L237.01,8.5 A2.5,2.5 0 0 1 239.51,6" style="stroke:#000000;stroke-width:1.5;" fill="none"/><line x1="237.01" y1="28.2969" x2="444.9504" y2="28.2969" style="stroke:#000000;stroke-width:1.5;"/><text x="241.01" y="20.9951" fill="#000000" font-size="14" lengthAdjust="spacing" textLength="194.9404" font-weight="700" font-family="sans-serif">crearSolicitudDispensa()</text></g><!--entity CrearSolicitudDispensaView--><g class="entity" data-qualified-name="crearSolicitudDispensa.CrearSolicitudDispensaView" id="ent0004" data-source-line="7"><rect x="544.86" y="41" width="216.2871" height="36.2969" fill="#629EF9" style="stroke:#181818;stroke-width:0.5;" rx="2.5" ry="2.5"/><text x="554.86" y="63.9951" fill="#000000" font-size="14" lengthAdjust="spacing" textLength="196.2871" font-family="sans-serif">CrearSolicitudDispensaView</text></g><!--entity DispensaController--><g class="entity" data-qualified-name="crearSolicitudDispensa.DispensaController" id="ent0005" data-source-line="8"><rect x="576.31" y="154.3" width="153.3828" height="36.2969" fill="#B5BD68" style="stroke:#181818;stroke-width:0.5;" rx="2.5" ry="2.5"/><text x="586.31" y="177.2951" fill="#000000" font-size="14" lengthAdjust="spacing" textLength="133.3828" font-family="sans-serif">DispensaController</text></g><!--entity SesionClaseRepository--><g class="entity" data-qualified-name="crearSolicitudDispensa.SesionClaseRepository" id="ent0006" data-source-line="9"><rect x="408.33" y="267.6" width="179.3457" height="36.2969" fill="#F2AC4E" style="stroke:#181818;stroke-width:0.5;" rx="2.5" ry="2.5"/><text x="418.33" y="290.5951" fill="#000000" font-size="14" lengthAdjust="spacing" textLength="159.3457" font-family="sans-serif">SesionClaseRepository</text></g><!--entity DispensaRepository--><g class="entity" data-qualified-name="crearSolicitudDispensa.DispensaRepository" id="ent0007" data-source-line="10"><rect x="805.36" y="267.6" width="159.2822" height="36.2969" fill="#F2AC4E" style="stroke:#181818;stroke-width:0.5;" rx="2.5" ry="2.5"/><text x="815.36" y="290.5951" fill="#000000" font-size="14" lengthAdjust="spacing" textLength="139.2822" font-family="sans-serif">DispensaRepository</text></g><!--entity SesionDeClase--><g class="entity" data-qualified-name="crearSolicitudDispensa.SesionDeClase" id="ent0008" data-source-line="11"><rect x="436.17" y="364.89" width="123.667" height="36.2969" fill="#F2AC4E" style="stroke:#181818;stroke-width:0.5;" rx="2.5" ry="2.5"/><text x="446.17" y="387.8851" fill="#000000" font-size="14" lengthAdjust="spacing" textLength="103.667" font-family="sans-serif">SesionDeClase</text></g><!--entity Dispensa--><g class="entity" data-qualified-name="crearSolicitudDispensa.Dispensa" id="ent0009" data-source-line="12"><rect x="842.9" y="364.89" width="84.21" height="36.2969" fill="#F2AC4E" style="stroke:#181818;stroke-width:0.5;" rx="2.5" ry="2.5"/><text x="852.9" y="387.8851" fill="#000000" font-size="14" lengthAdjust="spacing" textLength="64.21" font-family="sans-serif">Dispensa</text></g><!--entity DashboardAlumnoAbierto--><g class="entity" data-qualified-name="DashboardAlumnoAbierto" id="ent0001" data-source-line="3"><rect x="7" y="41" width="214.0107" height="36.2969" fill="#CDEBA5" style="stroke:#181818;stroke-width:0.5;" rx="2.5" ry="2.5"/><text x="17" y="63.9951" fill="#000000" font-size="14" lengthAdjust="spacing" textLength="194.0107" font-family="sans-serif">:Dashboard Alumno Abierto</text></g><!--entity EditarSolicitudDispensa--><g class="entity" data-qualified-name="EditarSolicitudDispensa" id="ent0002" data-source-line="4"><rect x="1441.91" y="154.3" width="288.1943" height="36.2969" fill="#CDEBA5" style="stroke:#181818;stroke-width:0.5;" rx="2.5" ry="2.5"/><text x="1451.91" y="177.2951" fill="#000000" font-size="14" lengthAdjust="spacing" textLength="268.1943" font-family="sans-serif">:Collaboration EditarSolicitudDispensa</text></g><!--link DashboardAlumnoAbierto to CrearSolicitudDispensaView--><g class="link" data-entity-1="ent0001" data-entity-2="ent0004" id="lnk10" data-source-line="15" data-link-type="dependency"><path d="M221.46,59.15 C315.28,59.15 445.78,59.15 539.82,59.15" style="stroke:#181818;stroke-width:1;" fill="none" id="DashboardAlumnoAbierto-to-CrearSolicitudDispensaView"/><polygon points="544.82,59.15,535.82,55.15,539.82,59.15,535.82,63.15,544.82,59.15" fill="#181818" style="stroke:#181818;stroke-width:1;stroke-linejoin:miter;stroke-miterlimit:10;"/><text x="303.44" y="52.2169" fill="#000000" font-size="13" lengthAdjust="spacing" textLength="159.3452" font-family="sans-serif">crearSolicitudDispensa()</text></g><!--link CrearSolicitudDispensaView to DispensaController--><g class="link" data-entity-1="ent0004" data-entity-2="ent0005" id="lnk11" data-source-line="17" data-link-type="dependency"><path d="M544.58,74.04 C436.03,87.95 285.01,107.3 285.01,107.3 C285.01,107.3 285.01,124.3 285.01,124.3 C285.01,124.3 462.9905,147.1048 570.9005,160.9248" style="stroke:#181818;stroke-width:1;" fill="none" id="CrearSolicitudDispensaView-to-DispensaController"/><polygon points="575.86,161.56,567.441,156.4491,570.9005,160.9248,566.4248,164.3843,575.86,161.56" fill="#181818" style="stroke:#181818;stroke-width:1;stroke-linejoin:miter;stroke-miterlimit:10;"/><text x="286.01" y="120.3669" fill="#000000" font-size="13" lengthAdjust="spacing" textLength="323.9399" font-family="sans-serif">cargarSesiones(alumnoId) : List&lt;SesionDeClase></text></g><!--link CrearSolicitudDispensaView to DispensaController--><g class="link" data-entity-1="ent0004" data-entity-2="ent0005" id="lnk14" data-source-line="23" data-link-type="dependency"><path d="M651.89,77.71 C651.04,91.11 650.01,107.3 650.01,107.3 C650.01,107.3 650.01,124.3 650.01,124.3 C650.01,124.3 650.7235,135.5 651.5735,148.9" style="stroke:#181818;stroke-width:1;" fill="none" id="CrearSolicitudDispensaView-to-DispensaController-1"/><polygon points="651.89,153.89,655.3122,144.6548,651.5735,148.9,647.3283,145.1613,651.89,153.89" fill="#181818" style="stroke:#181818;stroke-width:1;stroke-linejoin:miter;stroke-miterlimit:10;"/><text x="651.01" y="120.3669" fill="#000000" font-size="13" lengthAdjust="spacing" textLength="285.2256" font-family="sans-serif">validarDatos(motivo, sesionesIds) : boolean</text></g><!--link CrearSolicitudDispensaView to DispensaController--><g class="link" data-entity-1="ent0004" data-entity-2="ent0005" id="lnk15" data-source-line="25" data-link-type="dependency"><path d="M760.66,77.77 C842.46,91.17 941.01,107.3 941.01,107.3 C941.01,107.3 941.01,124.3 941.01,124.3 C941.01,124.3 820.4244,144.0425 735.1144,158.0025" style="stroke:#181818;stroke-width:1;" fill="none" id="CrearSolicitudDispensaView-to-DispensaController-2"/><polygon points="730.18,158.81,739.7078,161.3041,735.1144,158.0025,738.4159,153.4091,730.18,158.81" fill="#181818" style="stroke:#181818;stroke-width:1;stroke-linejoin:miter;stroke-miterlimit:10;"/><text x="942.01" y="120.3669" fill="#000000" font-size="13" lengthAdjust="spacing" textLength="428.854" font-family="sans-serif">crearSolicitudDispensa(alumnoId, motivo, sesionesIds) : Dispensa</text></g><!--link DispensaController to SesionClaseRepository--><g class="link" data-entity-1="ent0005" data-entity-2="ent0006" id="lnk12" data-source-line="19" data-link-type="dependency"><path d="M594.17,191 C549.25,204.41 495.01,220.6 495.01,220.6 C495.01,220.6 495.01,237.6 495.01,237.6 C495.01,237.6 495.7237,248.79 496.5737,262.2" style="stroke:#181818;stroke-width:1;" fill="none" id="DispensaController-to-SesionClaseRepository"/><polygon points="496.89,267.19,500.3127,257.955,496.5737,262.2,492.3287,258.4611,496.89,267.19" fill="#181818" style="stroke:#181818;stroke-width:1;stroke-linejoin:miter;stroke-miterlimit:10;"/><text x="496.01" y="233.6669" fill="#000000" font-size="13" lengthAdjust="spacing" textLength="345.9409" font-family="sans-serif">obtenerPorAlumno(alumnoId) : List&lt;SesionDeClase></text></g><!--link SesionClaseRepository to SesionDeClase--><g class="link" data-entity-1="ent0006" data-entity-2="ent0008" id="lnk13" data-source-line="21" data-link-type="association"><path d="M498.01,304.22 C498.01,321.42 498.01,347.52 498.01,364.67" style="stroke:#181818;stroke-width:1;" fill="none" id="SesionClaseRepository-SesionDeClase"/></g><!--link DispensaController to DispensaRepository--><g class="link" data-entity-1="ent0005" data-entity-2="ent0007" id="lnk16" data-source-line="27" data-link-type="dependency"><path d="M725.15,191.07 C779.96,204.46 846.01,220.6 846.01,220.6 C846.01,220.6 860.2028,243.9475 871.7528,262.9475" style="stroke:#181818;stroke-width:1;" fill="none" id="DispensaController-to-DispensaRepository"/><polygon points="874.35,267.22,873.093,257.4517,871.7528,262.9475,866.257,261.6073,874.35,267.22" fill="#181818" style="stroke:#181818;stroke-width:1;stroke-linejoin:miter;stroke-miterlimit:10;"/><text x="856.01" y="233.6669" fill="#000000" font-size="13" lengthAdjust="spacing" textLength="313.4536" font-family="sans-serif">crear(alumnoId, motivo, sesionesIds) : Dispensa</text></g><!--link DispensaRepository to Dispensa--><g class="link" data-entity-1="ent0007" data-entity-2="ent0009" id="lnk17" data-source-line="29" data-link-type="association"><path d="M885.01,304.22 C885.01,321.42 885.01,347.52 885.01,364.67" style="stroke:#181818;stroke-width:1;" fill="none" id="DispensaRepository-Dispensa"/></g><!--link CrearSolicitudDispensaView to EditarSolicitudDispensa--><g class="link" data-entity-1="ent0004" data-entity-2="ent0002" id="lnk18" data-source-line="31" data-link-type="dependency"><path d="M761.3,67.18 C963.69,80.33 1379.01,107.3 1379.01,107.3 C1379.01,107.3 1463.1141,133.36 1524.3941,152.35" style="stroke:#181818;stroke-width:1;stroke-dasharray:7,7;" fill="none" id="CrearSolicitudDispensaView-to-EditarSolicitudDispensa"/><polygon points="1529.17,153.83,1521.7573,147.3452,1524.3941,152.35,1519.3893,154.9867,1529.17,153.83" fill="#181818" style="stroke:#181818;stroke-width:1;stroke-linejoin:miter;stroke-miterlimit:10;"/><text x="1430.01" y="120.3669" fill="#000000" font-size="13" lengthAdjust="spacing" textLength="330.4399" font-family="sans-serif">«include» editarSolicitudDispensa(dispensaNueva)</text></g><?plantuml-src dPFHIyCm4CRVyrSSysK3juUXecKKPZj14145tw_DCSEoN4dIoH3_TxDkKxUb6wnFBT_Tx-xxqhYPCXLQd8DMXloo8gXOBrSVGbWgFPgf9hZ8yidz-1ewIOxkes2q4iQwdXk6SQ78Uku0ElWLrzf6Yd8orXeBjkWL6vX8vT6-iLQbyhNCbQl8E6oWBPeG5POpd1AKbYBwghKJbxgz3dm92C-_pMw6TvE7EyYY7U-AFlSRYkj2tjp2jYHZusqmHNQ_y64upgucy4OkMCqqEdgbYftoR9SjjLleoS8rDAS6Um8cleM8dn3qRJyzOZs1jY25QE-2lWpKmtm23UqqD3Mxa-jYiykZx442JyhvqOwhD6nzm81-G4SJJO0BJuRi2zkroTFyA2YCs8ltBAyBr4gYpT6pwyxPgmLVWjjOVvHkjLJ1h0dDyG5jMSPFPklv4bfc_jsZbdGF_y7Di7FOkx7-wKSC3mPfszrFO3HIfjIrf3G5YXTrvURbkQO5zdu0?></g></svg>