<svg xmlns="http://www.w3.org/2000/svg" xmlns:xlink="http://www.w3.org/1999/xlink" version="1.1" data-diagram-type="DESCRIPTION" style="width:1099px;height:432px;background:#FFFFFF;" width="1099px" height="432px" viewBox="0 0 1099 432" zoomAndPan="magnify" preserveAspectRatio="none" contentStyleType="text/css"><?plantuml 1.2026.7beta8?><defs/><g font-family="sans-serif" lengthAdjust="spacing"><!--cluster crearSolicitudDispensa--><g class="cluster" data-qualified-name="crearSolicitudDispensa" id="ent0002" data-source-line="5"><path d="M340.22,6 L536.16,6 A3.75,3.75 0 0 1 538.66,8.5 L545.66,28.297 L1038.22,28.297 A2.5,2.5 0 0 1 1040.72,30.797 L1040.72,414.69 A2.5,2.5 0 0 1 1038.22,417.19 L340.22,417.19 A2.5,2.5 0 0 1 337.72,414.69 L337.72,8.5 A2.5,2.5 0 0 1 340.22,6" style="stroke:#000;stroke-width:1.5;" fill="none"/><line x1="337.72" y1="28.297" x2="545.66" y2="28.297" style="stroke:#000;stroke-width:1.5;"/><text x="341.72" y="20.995" fill="#000" font-size="14" textLength="194.94" font-weight="700">crearSolicitudDispensa()</text></g><!--entity CrearSolicitudDispensaView--><g class="entity" data-qualified-name="crearSolicitudDispensa.CrearSolicitudDispensaView" id="ent0003" data-source-line="6"><rect x="353.58" y="41" width="216.287" height="36.297" fill="#629EF9" style="stroke:#181818;stroke-width:0.5;" rx="2.5" ry="2.5"/><text x="363.58" y="63.995" fill="#000" font-size="14" textLength="196.287">CrearSolicitudDispensaView</text></g><!--entity DispensaController--><g class="entity" data-qualified-name="crearSolicitudDispensa.DispensaController" id="ent0004" data-source-line="7"><rect x="355.03" y="154.3" width="153.383" height="36.297" fill="#B5BD68" style="stroke:#181818;stroke-width:0.5;" rx="2.5" ry="2.5"/><text x="365.03" y="177.295" fill="#000" font-size="14" textLength="133.383">DispensaController</text></g><!--entity DispensaRepository--><g class="entity" data-qualified-name="crearSolicitudDispensa.DispensaRepository" id="ent0005" data-source-line="8"><rect x="354.08" y="267.6" width="159.282" height="36.297" fill="#F2AC4E" style="stroke:#181818;stroke-width:0.5;" rx="2.5" ry="2.5"/><text x="364.08" y="290.595" fill="#000" font-size="14" textLength="139.282">DispensaRepository</text></g><!--entity Dispensa--><g class="entity" data-qualified-name="crearSolicitudDispensa.Dispensa" id="ent0006" data-source-line="9"><rect x="391.62" y="364.89" width="84.21" height="36.297" fill="#F2AC4E" style="stroke:#181818;stroke-width:0.5;" rx="2.5" ry="2.5"/><text x="401.62" y="387.885" fill="#000" font-size="14" textLength="64.21">Dispensa</text></g><!--entity DispensasAbierto--><g class="entity" data-qualified-name="DispensasAbierto" id="ent0001" data-source-line="3"><rect x="7" y="41" width="151.448" height="36.297" fill="#CDEBA5" style="stroke:#181818;stroke-width:0.5;" rx="2.5" ry="2.5"/><text x="17" y="63.995" fill="#000" font-size="14" textLength="131.448">:Dispensas Abierto</text></g><!--link DispensasAbierto to CrearSolicitudDispensaView--><g class="link" data-entity-1="ent0001" data-entity-2="ent0003" id="lnk7" data-source-line="12" data-link-type="dependency"><path d="M158.51,59.15 C214.35,59.15 286.1,59.15 348.4,59.15" style="stroke:#181818;stroke-width:1;" fill="none" id="DispensasAbierto-to-CrearSolicitudDispensaView"/><polygon points="353.4,59.15,344.4,55.15,348.4,59.15,344.4,63.15,353.4,59.15" fill="#181818" style="stroke:#181818;stroke-width:1;stroke-linejoin:miter;stroke-miterlimit:10;"/><text x="176.51" y="52.217" fill="#000" font-size="13" textLength="159.345">crearSolicitudDispensa()</text></g><!--link CrearSolicitudDispensaView to DispensaController--><g class="link" data-entity-1="ent0003" data-entity-2="ent0004" id="lnk8" data-source-line="13" data-link-type="dependency"><path d="M457.04,77.54 C451.43,98.33 443.411,128.092 437.781,148.982" style="stroke:#181818;stroke-width:1;" fill="none" id="CrearSolicitudDispensaView-to-DispensaController"/><polygon points="436.48,153.81,442.684,146.161,437.781,148.982,434.96,144.079,436.48,153.81" fill="#181818" style="stroke:#181818;stroke-width:1;stroke-linejoin:miter;stroke-miterlimit:10;"/><text x="448.72" y="120.367" fill="#000" font-size="13" textLength="634.632">crearSolicitudDispensa(asignatura, motivo, dias, franjaHoraria, asignaturaSolapada, justificacion)</text></g><!--link DispensaController to DispensaRepository--><g class="link" data-entity-1="ent0004" data-entity-2="ent0005" id="lnk9" data-source-line="14" data-link-type="dependency"><path d="M432.04,190.84 C432.41,211.62 432.939,241.211 433.319,262.111" style="stroke:#181818;stroke-width:1;" fill="none" id="DispensaController-to-DispensaRepository"/><polygon points="433.41,267.11,437.246,258.039,433.319,262.111,429.247,258.184,433.41,267.11" fill="#181818" style="stroke:#181818;stroke-width:1;stroke-linejoin:miter;stroke-miterlimit:10;"/><text x="433.72" y="233.667" fill="#000" font-size="13" textLength="526.982">create(asignatura, motivo, dias, franjaHoraria, asignaturaSolapada, justificacion)</text></g><!--link DispensaRepository to Dispensa--><g class="link" data-entity-1="ent0005" data-entity-2="ent0006" id="lnk10" data-source-line="15" data-link-type="association"><path d="M433.72,304.22 C433.72,321.42 433.72,347.52 433.72,364.67" style="stroke:#181818;stroke-width:1;" fill="none" id="DispensaRepository-Dispensa"/></g><?plantuml-src jL0zJyCm4DtzAqvXeLAoLBIY7P12ceeP9FQBuqRNkhPrTa0Huh_Z2aYgjAKJdkntx-liTsGSCkv1ar6XSmgSrTtX8GGh6T0qMi5DiIeVynaaonLvfun73tb5YeDD8Dvxz0SKmg7SOQD0ia9-iPeaXRR-vHqqoVdHxII13m7n7CNFfujolO3YhEALrFjOKCsgUdxVzogi2MorLZmchgTvSLVsn6VbhATWkRj259z2ZBU6ZBE7FqekuTBAuh88iZgQdYvoqGmzDGP3ovZ2tWPwiodKX3w53QFPufDbP8h3WHXDq64TiMth0sr8eYHh9k8q5hAZDiDlVRS9wb_IXvYOteT_0G00?></g></svg>