<svg xmlns="http://www.w3.org/2000/svg" xmlns:xlink="http://www.w3.org/1999/xlink" contentStyleType="text/css" data-diagram-type="DESCRIPTION" height="435px" preserveAspectRatio="none" style="width:972px;height:435px;background:#FFFFFF;" version="1.1" viewBox="0 0 972 435" width="972px" zoomAndPan="magnify"><?plantuml 1.2026.5?><defs/><g><!--cluster editarSolicitudDispensa--><g class="cluster" data-qualified-name="editarSolicitudDispensa" data-source-line="7" id="ent0004"><path d="M8.5,106.3 L210.75,106.3 A3.75,3.75 0 0 1 213.25,108.8 L220.25,128.5969 L389.5,128.5969 A2.5,2.5 0 0 1 392,131.0969 L392,417.69 A2.5,2.5 0 0 1 389.5,420.19 L8.5,420.19 A2.5,2.5 0 0 1 6,417.69 L6,108.8 A2.5,2.5 0 0 1 8.5,106.3" fill="none" style="stroke:#000000;stroke-width:1.5;"/><line style="stroke:#000000;stroke-width:1.5;" x1="6" x2="220.25" y1="128.5969" y2="128.5969"/><text fill="#000000" font-family="sans-serif" font-size="14" font-weight="700" lengthAdjust="spacing" textLength="201.25" x="10" y="121.2951">editarSolicitudDispensa()</text></g><!--entity EditarDispensaView--><g class="entity" data-qualified-name="editarSolicitudDispensa.EditarDispensaView" data-source-line="8" id="ent0005"><rect fill="#629EF9" height="36.2969" rx="2.5" ry="2.5" style="stroke:#181818;stroke-width:0.5;" width="159.1865" x="216.41" y="141.3"/><text fill="#000000" font-family="sans-serif" font-size="14" lengthAdjust="spacing" textLength="139.1865" x="226.41" y="164.2951">EditarDispensaView</text></g><!--entity DispensaController--><g class="entity" data-qualified-name="editarSolicitudDispensa.DispensaController" data-source-line="9" id="ent0006"><rect fill="#B5BD68" height="36.2969" rx="2.5" ry="2.5" style="stroke:#181818;stroke-width:0.5;" width="153.3828" x="38.31" y="254.6"/><text fill="#000000" font-family="sans-serif" font-size="14" lengthAdjust="spacing" textLength="133.3828" x="48.31" y="277.5951">DispensaController</text></g><!--entity SolicitudDispensaRepository--><g class="entity" data-qualified-name="editarSolicitudDispensa.SolicitudDispensaRepository" data-source-line="10" id="ent0007"><rect fill="#F2AC4E" height="36.2969" rx="2.5" ry="2.5" style="stroke:#181818;stroke-width:0.5;" width="219.3496" x="22.33" y="367.89"/><text fill="#000000" font-family="sans-serif" font-size="14" lengthAdjust="spacing" textLength="199.3496" x="32.33" y="390.8851">SolicitudDispensaRepository</text></g><!--entity HistorialDispensas--><g class="entity" data-qualified-name="HistorialDispensas" data-source-line="3" id="ent0001"><rect fill="#CDEBA5" height="36.2969" rx="2.5" ry="2.5" style="stroke:#181818;stroke-width:0.5;" width="273.6133" x="159.19" y="7"/><text fill="#000000" font-family="sans-serif" font-size="14" lengthAdjust="spacing" textLength="253.6133" x="169.19" y="29.9951">:HISTORIAL_DISPENSAS_MOSTRADO</text></g><!--entity DispensaRectificada--><g class="entity" data-qualified-name="DispensaRectificada" data-source-line="4" id="ent0002"><rect fill="#CDEBA5" height="36.2969" rx="2.5" ry="2.5" style="stroke:#181818;stroke-width:0.5;" width="194.6582" x="407.67" y="254.6"/><text fill="#000000" font-family="sans-serif" font-size="14" lengthAdjust="spacing" textLength="174.6582" x="417.67" y="277.5951">:DISPENSA_RECTIFICADA</text></g><!--entity CompletarGestion--><g class="entity" data-qualified-name="CompletarGestion" data-source-line="5" id="ent0003"><rect fill="#CDEBA5" height="36.2969" rx="2.5" ry="2.5" style="stroke:#181818;stroke-width:0.5;" width="249.2363" x="637.38" y="254.6"/><text fill="#000000" font-family="sans-serif" font-size="14" lengthAdjust="spacing" textLength="229.2363" x="647.38" y="277.5951">:Collaboration CompletarGestion</text></g><!--link HistorialDispensas to EditarDispensaView--><g class="link" data-entity-1="ent0001" data-entity-2="ent0005" data-link-type="dependency" data-source-line="13" id="lnk8"><path d="M296,43.72 C296,69.02 296,110.46 296,135.81" fill="none" id="HistorialDispensas-to-EditarDispensaView" style="stroke:#181818;stroke-width:1;"/><polygon fill="#181818" points="296,140.81,300,131.81,296,135.81,292,131.81,296,140.81" style="stroke:#181818;stroke-width:1;stroke-linejoin:miter;stroke-miterlimit:10;"/><text fill="#000000" font-family="sans-serif" font-size="13" lengthAdjust="spacing" textLength="163.814" x="297" y="86.3669">editarSolicitudDispensa()</text></g><!--link EditarDispensaView to DispensaController--><g class="link" data-entity-1="ent0005" data-entity-2="ent0006" data-link-type="dependency" data-source-line="15" id="lnk9"><path d="M239.03,178 C195.53,191.41 143,207.6 143,207.6 C143,207.6 132.9395,230.6372 124.6495,249.6372" fill="none" id="EditarDispensaView-to-DispensaController" style="stroke:#181818;stroke-width:1;"/><polygon fill="#181818" points="122.65,254.22,129.9154,247.5706,124.6495,249.6372,122.5829,244.3714,122.65,254.22" style="stroke:#181818;stroke-width:1;stroke-linejoin:miter;stroke-miterlimit:10;"/><text fill="#000000" font-family="sans-serif" font-size="13" lengthAdjust="spacing" textLength="317.9097" x="144" y="220.6669">corregirDatosDispensa(solicitudId, nuevosDatos)</text></g><!--link DispensaController to SolicitudDispensaRepository--><g class="link" data-entity-1="ent0006" data-entity-2="ent0007" data-link-type="dependency" data-source-line="16" id="lnk10"><path d="M117.66,291.13 C120.83,311.92 125.3533,341.5676 128.5533,362.4676" fill="none" id="DispensaController-to-SolicitudDispensaRepository" style="stroke:#181818;stroke-width:1;"/><polygon fill="#181818" points="129.31,367.41,131.9018,357.9083,128.5533,362.4676,123.994,359.1191,129.31,367.41" style="stroke:#181818;stroke-width:1;stroke-linejoin:miter;stroke-miterlimit:10;"/><text fill="#000000" font-family="sans-serif" font-size="13" lengthAdjust="spacing" textLength="225.6401" x="126" y="333.9569">actualizarDatosDispensa(solicitud)</text></g><!--link EditarDispensaView to DispensaRectificada--><g class="link" data-entity-1="ent0005" data-entity-2="ent0002" data-link-type="dependency" data-source-line="18" id="lnk11"><path d="M359.3,178 C407.64,191.41 466,207.6 466,207.6 C466,207.6 480.2044,230.9465 491.7444,249.9465" fill="none" id="EditarDispensaView-to-DispensaRectificada" style="stroke:#181818;stroke-width:1;stroke-dasharray:7,7;"/><polygon fill="#181818" points="494.34,254.22,493.0867,244.4512,491.7444,249.9465,486.2491,248.6042,494.34,254.22" style="stroke:#181818;stroke-width:1;stroke-linejoin:miter;stroke-miterlimit:10;"/><text fill="#000000" font-family="sans-serif" font-size="13" lengthAdjust="spacing" textLength="109.6367" x="477" y="220.6669">&#171;include&#187; [&#233;xito]</text></g><!--link EditarDispensaView to CompletarGestion--><g class="link" data-entity-1="ent0005" data-entity-2="ent0003" data-link-type="dependency" data-source-line="19" id="lnk12"><path d="M375.73,173.02 C464.31,186.99 595,207.6 595,207.6 C595,207.6 662.2527,233.4267 711.7027,252.4267" fill="none" id="EditarDispensaView-to-CompletarGestion" style="stroke:#181818;stroke-width:1;stroke-dasharray:7,7;"/><polygon fill="#181818" points="716.37,254.22,709.4034,247.2582,711.7027,252.4267,706.5341,254.7259,716.37,254.22" style="stroke:#181818;stroke-width:1;stroke-linejoin:miter;stroke-miterlimit:10;"/><text fill="#000000" font-family="sans-serif" font-size="13" lengthAdjust="spacing" textLength="320.7344" x="636" y="220.6669">&#171;include&#187; completarGestion() [cancelaci&#243;n/error]</text></g><?plantuml-src VLBFIlD04B_lKmprOi4gY8e6ASGa_GoebQHu4IdJpLW6rzsmk_sqYW_asKVmnKmB4KrIzxOpltypZ7jWNQB5Hr2ioIzBWjAevUeZX2NfKSyLmLOK9sVX8VI2ypIVZBCql9Z6QNwTNELXFhqSvvCiZCSzG0VdxBonZ2fcLv9sw3frQlOqIw99EagZC0xN_9gMLII-Pua5TWf4HYcS6OkUZOR8F9QAFDf_v5Q5jLIpA4I9yW7d15HmLSwDOib-KTIUAr9lGs-xtuDN0TNxaUPe_oGPdK2ofjJ86wQd9d1sE2kEZh-7YupsjXg0R1CusW-ZWmHQzXcLnd6rsQLu4wAzP1WCXXqv0jWuZX1jE0oAIgQTCW1fhAKvsnYzSTyYhfPDYntG2_fVzLQ0lcXhh1F-CLS0AFq25R_W9fVkpBkxmwwh2U3qbBLKYuA6GxZzV7-kREus2JHlvJTRDhhRVRYLg2KfbFpveVV8McFllW00?></g></svg>