<svg xmlns="http://www.w3.org/2000/svg" xmlns:xlink="http://www.w3.org/1999/xlink" contentStyleType="text/css" data-diagram-type="DESCRIPTION" height="435px" preserveAspectRatio="none" style="width:1038px;height:435px;background:#FFFFFF;" version="1.1" viewBox="0 0 1038 435" width="1038px" zoomAndPan="magnify"><?plantuml 1.2026.5?><defs/><g><!--cluster editarSolicitudDispensa--><g class="cluster" data-qualified-name="editarSolicitudDispensa" data-source-line="7" id="ent0004"><path d="M8.5,106.3 L210.75,106.3 A3.75,3.75 0 0 1 213.25,108.8 L220.25,128.5969 L414.5,128.5969 A2.5,2.5 0 0 1 417,131.0969 L417,417.69 A2.5,2.5 0 0 1 414.5,420.19 L8.5,420.19 A2.5,2.5 0 0 1 6,417.69 L6,108.8 A2.5,2.5 0 0 1 8.5,106.3" fill="none" style="stroke:#000000;stroke-width:1.5;"/><line style="stroke:#000000;stroke-width:1.5;" x1="6" x2="220.25" y1="128.5969" y2="128.5969"/><text fill="#000000" font-family="sans-serif" font-size="14" font-weight="700" lengthAdjust="spacing" textLength="201.25" x="10" y="121.2951">editarSolicitudDispensa()</text></g><!--entity EditarSolicitudView--><g class="entity" data-qualified-name="editarSolicitudDispensa.EditarSolicitudView" data-source-line="8" id="ent0005"><rect fill="#629EF9" height="36.2969" rx="2.5" ry="2.5" style="stroke:#181818;stroke-width:0.5;" width="155.0439" x="245.48" y="141.3"/><text fill="#000000" font-family="sans-serif" font-size="14" lengthAdjust="spacing" textLength="135.0439" x="255.48" y="164.2951">EditarSolicitudView</text></g><!--entity DispensaController--><g class="entity" data-qualified-name="editarSolicitudDispensa.DispensaController" data-source-line="9" id="ent0006"><rect fill="#B5BD68" height="36.2969" rx="2.5" ry="2.5" style="stroke:#181818;stroke-width:0.5;" width="153.3828" x="38.31" y="254.6"/><text fill="#000000" font-family="sans-serif" font-size="14" lengthAdjust="spacing" textLength="133.3828" x="48.31" y="277.5951">DispensaController</text></g><!--entity SolicitudDispensaRepository--><g class="entity" data-qualified-name="editarSolicitudDispensa.SolicitudDispensaRepository" data-source-line="10" id="ent0007"><rect fill="#F2AC4E" height="36.2969" rx="2.5" ry="2.5" style="stroke:#181818;stroke-width:0.5;" width="219.3496" x="22.33" y="367.89"/><text fill="#000000" font-family="sans-serif" font-size="14" lengthAdjust="spacing" textLength="199.3496" x="32.33" y="390.8851">SolicitudDispensaRepository</text></g><!--entity SolicitudRevisada--><g class="entity" data-qualified-name="SolicitudRevisada" data-source-line="3" id="ent0001"><rect fill="#CDEBA5" height="36.2969" rx="2.5" ry="2.5" style="stroke:#181818;stroke-width:0.5;" width="255.1563" x="195.42" y="7"/><text fill="#000000" font-family="sans-serif" font-size="14" lengthAdjust="spacing" textLength="235.1563" x="205.42" y="29.9951">:SOLICITUD_DISPENSA_REVISADA</text></g><!--entity SolicitudEvaluada--><g class="entity" data-qualified-name="SolicitudEvaluada" data-source-line="4" id="ent0002"><rect fill="#CDEBA5" height="36.2969" rx="2.5" ry="2.5" style="stroke:#181818;stroke-width:0.5;" width="260.0371" x="432.98" y="254.6"/><text fill="#000000" font-family="sans-serif" font-size="14" lengthAdjust="spacing" textLength="240.0371" x="442.98" y="277.5951">:SOLICITUD_DISPENSA_EVALUADA</text></g><!--entity CompletarGestion--><g class="entity" data-qualified-name="CompletarGestion" data-source-line="5" id="ent0003"><rect fill="#CDEBA5" height="36.2969" rx="2.5" ry="2.5" style="stroke:#181818;stroke-width:0.5;" width="249.2363" x="728.38" y="254.6"/><text fill="#000000" font-family="sans-serif" font-size="14" lengthAdjust="spacing" textLength="229.2363" x="738.38" y="277.5951">:Collaboration CompletarGestion</text></g><!--link SolicitudRevisada to EditarSolicitudView--><g class="link" data-entity-1="ent0001" data-entity-2="ent0005" data-link-type="dependency" data-source-line="13" id="lnk8"><path d="M323,43.72 C323,69.02 323,110.46 323,135.81" fill="none" id="SolicitudRevisada-to-EditarSolicitudView" style="stroke:#181818;stroke-width:1;"/><polygon fill="#181818" points="323,140.81,327,131.81,323,135.81,319,131.81,323,140.81" style="stroke:#181818;stroke-width:1;stroke-linejoin:miter;stroke-miterlimit:10;"/><text fill="#000000" font-family="sans-serif" font-size="13" lengthAdjust="spacing" textLength="104.1904" x="324" y="86.3669">editarSolicitud()</text></g><!--link EditarSolicitudView to DispensaController--><g class="link" data-entity-1="ent0005" data-entity-2="ent0006" data-link-type="dependency" data-source-line="15" id="lnk9"><path d="M268.26,178 C226.47,191.41 176,207.6 176,207.6 C176,207.6 153.1747,231.596 135.1147,250.596" fill="none" id="EditarSolicitudView-to-DispensaController" style="stroke:#181818;stroke-width:1;"/><polygon fill="#181818" points="131.67,254.22,140.7698,250.4525,135.1147,250.596,134.9713,244.9409,131.67,254.22" style="stroke:#181818;stroke-width:1;stroke-linejoin:miter;stroke-miterlimit:10;"/><text fill="#000000" font-family="sans-serif" font-size="13" lengthAdjust="spacing" textLength="342.3989" x="177" y="220.6669">resolverSolicitud(solicitudId, resolucion, comentario)</text></g><!--link DispensaController to SolicitudDispensaRepository--><g class="link" data-entity-1="ent0006" data-entity-2="ent0007" data-link-type="dependency" data-source-line="16" id="lnk10"><path d="M117.66,291.13 C120.83,311.92 125.3533,341.5676 128.5533,362.4676" fill="none" id="DispensaController-to-SolicitudDispensaRepository" style="stroke:#181818;stroke-width:1;"/><polygon fill="#181818" points="129.31,367.41,131.9018,357.9083,128.5533,362.4676,123.994,359.1191,129.31,367.41" style="stroke:#181818;stroke-width:1;stroke-linejoin:miter;stroke-miterlimit:10;"/><text fill="#000000" font-family="sans-serif" font-size="13" lengthAdjust="spacing" textLength="240.1509" x="126" y="333.9569">cambiarEstadoYResolucion(solicitud)</text></g><!--link EditarSolicitudView to SolicitudEvaluada--><g class="link" data-entity-1="ent0005" data-entity-2="ent0002" data-link-type="dependency" data-source-line="18" id="lnk11"><path d="M398.13,178.07 C455.22,191.46 524,207.6 524,207.6 C524,207.6 538.2044,230.9465 549.7444,249.9465" fill="none" id="EditarSolicitudView-to-SolicitudEvaluada" style="stroke:#181818;stroke-width:1;stroke-dasharray:7,7;"/><polygon fill="#181818" points="552.34,254.22,551.0867,244.4512,549.7444,249.9465,544.2491,248.6042,552.34,254.22" style="stroke:#181818;stroke-width:1;stroke-linejoin:miter;stroke-miterlimit:10;"/><text fill="#000000" font-family="sans-serif" font-size="13" lengthAdjust="spacing" textLength="109.6367" x="535" y="220.6669">&#171;include&#187; [&#233;xito]</text></g><!--link EditarSolicitudView to CompletarGestion--><g class="link" data-entity-1="ent0005" data-entity-2="ent0003" data-link-type="dependency" data-source-line="19" id="lnk12"><path d="M400.79,171.56 C498.35,185.5 653,207.6 653,207.6 C653,207.6 734.119,233.6128 793.319,252.6028" fill="none" id="EditarSolicitudView-to-CompletarGestion" style="stroke:#181818;stroke-width:1;stroke-dasharray:7,7;"/><polygon fill="#181818" points="798.08,254.13,790.7319,247.5721,793.319,252.6028,788.2883,255.1898,798.08,254.13" style="stroke:#181818;stroke-width:1;stroke-linejoin:miter;stroke-miterlimit:10;"/><text fill="#000000" font-family="sans-serif" font-size="13" lengthAdjust="spacing" textLength="320.7344" x="702" y="220.6669">&#171;include&#187; completarGestion() [cancelaci&#243;n/error]</text></g><?plantuml-src ZPBTIiCm5CVlynI7URE1Kn0LLsHGsoW5KLbr86ECq_GmWcbIadOwn0VosaVmnUmcVgnTnLmbv-Ft_vz3t8FKELhCG4bDnJ8do8rQhXwCMH85whaYs0b2VkOVGSUBho-Z8Bgz2sTX5D_mgzYVZVWuYltGxm0wY8sIGXPbEgA5T9ZYVobyx5_UDIXyWQfiemH6AKoCnK8Q3O79SaK5sWjogy0QL0yobgDum3a1fR8AVmk5qkMa7QwQEYsvRgy3pmogyylDyS60dm-0RxQC9JtMAvEZ93q-WIzQO7HXgmd8rWlF3_pWa4D3VqIvSR8mTibU66ji6lhzuJOVNdtMRe-nBNNGJoj0qvvNUND6BUWNmNtTedJtCrsAQhsx84n6kY9BqsDDrDhY7tDv831B95hk2apD_UYR_AFOOdvlRzZyDXwSdaejL9dIS0YJzzUdIcRQsb__BPljefRjzc0YK0jIAEJxczudQusTVW00?></g></svg>