<svg xmlns="http://www.w3.org/2000/svg" xmlns:xlink="http://www.w3.org/1999/xlink" contentStyleType="text/css" data-diagram-type="DESCRIPTION" height="435px" preserveAspectRatio="none" style="width:831px;height:435px;background:#FFFFFF;" version="1.1" viewBox="0 0 831 435" width="831px" zoomAndPan="magnify"><?plantuml 1.2026.5?><defs/><g><!--cluster crearUsuario--><g class="cluster" data-qualified-name="crearUsuario" data-source-line="7" id="ent0004"><path d="M8.5,106.3 L123.7832,106.3 A3.75,3.75 0 0 1 126.2832,108.8 L133.2832,128.5969 L272.5,128.5969 A2.5,2.5 0 0 1 275,131.0969 L275,417.69 A2.5,2.5 0 0 1 272.5,420.19 L8.5,420.19 A2.5,2.5 0 0 1 6,417.69 L6,108.8 A2.5,2.5 0 0 1 8.5,106.3" fill="none" style="stroke:#000000;stroke-width:1.5;"/><line style="stroke:#000000;stroke-width:1.5;" x1="6" x2="133.2832" y1="128.5969" y2="128.5969"/><text fill="#000000" font-family="sans-serif" font-size="14" font-weight="700" lengthAdjust="spacing" textLength="114.2832" x="10" y="121.2951">crearUsuario()</text></g><!--entity CrearUsuarioView--><g class="entity" data-qualified-name="crearUsuario.CrearUsuarioView" data-source-line="8" id="ent0005"><rect fill="#629EF9" height="36.2969" rx="2.5" ry="2.5" style="stroke:#181818;stroke-width:0.5;" width="145.2139" x="113.39" y="141.3"/><text fill="#000000" font-family="sans-serif" font-size="14" lengthAdjust="spacing" textLength="125.2139" x="123.39" y="164.2951">CrearUsuarioView</text></g><!--entity UsuarioController--><g class="entity" data-qualified-name="crearUsuario.UsuarioController" data-source-line="9" id="ent0006"><rect fill="#B5BD68" height="36.2969" rx="2.5" ry="2.5" style="stroke:#181818;stroke-width:0.5;" width="142.377" x="21.81" y="254.6"/><text fill="#000000" font-family="sans-serif" font-size="14" lengthAdjust="spacing" textLength="122.377" x="31.81" y="277.5951">UsuarioController</text></g><!--entity UsuarioRepository--><g class="entity" data-qualified-name="crearUsuario.UsuarioRepository" data-source-line="10" id="ent0007"><rect fill="#F2AC4E" height="36.2969" rx="2.5" ry="2.5" style="stroke:#181818;stroke-width:0.5;" width="148.2764" x="21.86" y="367.89"/><text fill="#000000" font-family="sans-serif" font-size="14" lengthAdjust="spacing" textLength="128.2764" x="31.86" y="390.8851">UsuarioRepository</text></g><!--entity PanelAdmin--><g class="entity" data-qualified-name="PanelAdmin" data-source-line="3" id="ent0001"><rect fill="#CDEBA5" height="36.2969" rx="2.5" ry="2.5" style="stroke:#181818;stroke-width:0.5;" width="200.1611" x="85.92" y="7"/><text fill="#000000" font-family="sans-serif" font-size="14" lengthAdjust="spacing" textLength="180.1611" x="95.92" y="29.9951">:PANEL_ADMINISTRACION</text></g><!--entity UsuarioCreado--><g class="entity" data-qualified-name="UsuarioCreado" data-source-line="4" id="ent0002"><rect fill="#CDEBA5" height="36.2969" rx="2.5" ry="2.5" style="stroke:#181818;stroke-width:0.5;" width="155.2764" x="291.36" y="254.6"/><text fill="#000000" font-family="sans-serif" font-size="14" lengthAdjust="spacing" textLength="135.2764" x="301.36" y="277.5951">:USUARIO_CREADO</text></g><!--entity CompletarGestion--><g class="entity" data-qualified-name="CompletarGestion" data-source-line="5" id="ent0003"><rect fill="#CDEBA5" height="36.2969" rx="2.5" ry="2.5" style="stroke:#181818;stroke-width:0.5;" width="249.2363" x="481.38" y="254.6"/><text fill="#000000" font-family="sans-serif" font-size="14" lengthAdjust="spacing" textLength="229.2363" x="491.38" y="277.5951">:Collaboration CompletarGestion</text></g><!--link PanelAdmin to CrearUsuarioView--><g class="link" data-entity-1="ent0001" data-entity-2="ent0005" data-link-type="dependency" data-source-line="13" id="lnk8"><path d="M186,43.72 C186,69.02 186,110.46 186,135.81" fill="none" id="PanelAdmin-to-CrearUsuarioView" style="stroke:#181818;stroke-width:1;"/><polygon fill="#181818" points="186,140.81,190,131.81,186,135.81,182,131.81,186,140.81" style="stroke:#181818;stroke-width:1;stroke-linejoin:miter;stroke-miterlimit:10;"/><text fill="#000000" font-family="sans-serif" font-size="13" lengthAdjust="spacing" textLength="93.3486" x="187" y="86.3669">crearUsuario()</text></g><!--link CrearUsuarioView to UsuarioController--><g class="link" data-entity-1="ent0005" data-entity-2="ent0006" data-link-type="dependency" data-source-line="15" id="lnk9"><path d="M162.91,178 C145.29,191.41 124,207.6 124,207.6 C124,207.6 112.8252,230.7179 103.6452,249.7179" fill="none" id="CrearUsuarioView-to-UsuarioController" style="stroke:#181818;stroke-width:1;"/><polygon fill="#181818" points="101.47,254.22,108.987,247.8565,103.6452,249.7179,101.7837,244.3761,101.47,254.22" style="stroke:#181818;stroke-width:1;stroke-linejoin:miter;stroke-miterlimit:10;"/><text fill="#000000" font-family="sans-serif" font-size="13" lengthAdjust="spacing" textLength="200.7256" x="125" y="220.6669">registrarUsuario(datosUsuario)</text></g><!--link UsuarioController to UsuarioRepository--><g class="link" data-entity-1="ent0006" data-entity-2="ent0007" data-link-type="dependency" data-source-line="16" id="lnk10"><path d="M93.47,291.13 C94.03,311.92 94.8261,341.5118 95.3861,362.4118" fill="none" id="UsuarioController-to-UsuarioRepository" style="stroke:#181818;stroke-width:1;"/><polygon fill="#181818" points="95.52,367.41,99.2775,358.3061,95.3861,362.4118,91.2804,358.5204,95.52,367.41" style="stroke:#181818;stroke-width:1;stroke-linejoin:miter;stroke-miterlimit:10;"/><text fill="#000000" font-family="sans-serif" font-size="13" lengthAdjust="spacing" textLength="200.6494" x="96" y="333.9569">guardarNuevoUsuario(usuario)</text></g><!--link CrearUsuarioView to UsuarioCreado--><g class="link" data-entity-1="ent0005" data-entity-2="ent0002" data-link-type="dependency" data-source-line="18" id="lnk11"><path d="M239.62,178 C280.56,191.41 330,207.6 330,207.6 C330,207.6 344.2044,230.9465 355.7444,249.9465" fill="none" id="CrearUsuarioView-to-UsuarioCreado" style="stroke:#181818;stroke-width:1;stroke-dasharray:7,7;"/><polygon fill="#181818" points="358.34,254.22,357.0867,244.4512,355.7444,249.9465,350.2491,248.6042,358.34,254.22" style="stroke:#181818;stroke-width:1;stroke-linejoin:miter;stroke-miterlimit:10;"/><text fill="#000000" font-family="sans-serif" font-size="13" lengthAdjust="spacing" textLength="109.6367" x="341" y="220.6669">&#171;include&#187; [&#233;xito]</text></g><!--link CrearUsuarioView to CompletarGestion--><g class="link" data-entity-1="ent0005" data-entity-2="ent0003" data-link-type="dependency" data-source-line="19" id="lnk12"><path d="M258.8,173.02 C339.67,186.99 459,207.6 459,207.6 C459,207.6 517.7277,233.2194 561.2477,252.2194" fill="none" id="CrearUsuarioView-to-CompletarGestion" style="stroke:#181818;stroke-width:1;stroke-dasharray:7,7;"/><polygon fill="#181818" points="565.83,254.22,559.1822,246.9531,561.2477,252.2194,555.9814,254.2849,565.83,254.22" style="stroke:#181818;stroke-width:1;stroke-linejoin:miter;stroke-miterlimit:10;"/><text fill="#000000" font-family="sans-serif" font-size="13" lengthAdjust="spacing" textLength="320.7344" x="495" y="220.6669">&#171;include&#187; completarGestion() [cancelaci&#243;n/error]</text></g><?plantuml-src RP7HQi8m58RlynI7xaOlT21JPf525kieR7NKkHiHEQQX16DIqdQRZ3tGhlS8ljYgwDJMtENa__x_9oTRIPsYnJKegKM-IGMaHcrs5qAiu3dgH0cuOKF_WNR1SLzew3yjwF0v28F9QqHPC0uTm0nUK0j5uxNKLxdfP4gZOBnWaK-7upqnpGgqqZ0hC3PN8MQKmgMnc4kZWPbrgaIEzb5aky7Uf3ea94M-maG0Bttj8MEdTCu7ZQO3NmJASvRRw_JzKH_OcUvDYe-gRDbTnhtx__f6vxRiAMnLD-fGTkSVTP58JIPpOpVacv3JRq6hvTKYNRWiIqXL0Qsuv6eTtB908hFSdk0OSvCTBarI8_RvjOuk9EKaHXiMujqShOgZIxrEk-rTBjI5mK1ghefOU1xCjZ-VfV7yEbXTuYNBAw-D9imuQYuKShdzrRV2McFdVm00?></g></svg>