<svg xmlns="http://www.w3.org/2000/svg" xmlns:xlink="http://www.w3.org/1999/xlink" version="1.1" data-diagram-type="DESCRIPTION" style="width:956px;height:432px;background:#FFFFFF;" width="956px" height="432px" viewBox="0 0 956 432" zoomAndPan="magnify" preserveAspectRatio="none" contentStyleType="text/css"><?plantuml 1.2026.7beta3?><defs/><g><!--cluster importarListasAlumnos--><g class="cluster" data-qualified-name="importarListasAlumnos" id="ent0002" data-source-line="5"><path d="M339.73,6 L537.1333,6 A3.75,3.75 0 0 1 539.6333,8.5 L546.6333,28.2969 L938.73,28.2969 A2.5,2.5 0 0 1 941.23,30.7969 L941.23,414.69 A2.5,2.5 0 0 1 938.73,417.19 L339.73,417.19 A2.5,2.5 0 0 1 337.23,414.69 L337.23,8.5 A2.5,2.5 0 0 1 339.73,6" style="stroke:#000000;stroke-width:1.5;" fill="none"/><line x1="337.23" y1="28.2969" x2="546.6333" y2="28.2969" style="stroke:#000000;stroke-width:1.5;"/><text x="341.23" y="20.9951" fill="#000000" font-size="14" lengthAdjust="spacing" textLength="196.4033" font-weight="700" font-family="sans-serif">importarListasAlumnos()</text></g><!--entity ImportarListasAlumnosView--><g class="entity" data-qualified-name="importarListasAlumnos.ImportarListasAlumnosView" id="ent0003" data-source-line="6"><rect x="435.53" y="41" width="215.3848" height="36.2969" fill="#629EF9" style="stroke:#181818;stroke-width:0.5;" rx="2.5" ry="2.5"/><text x="445.53" y="63.9951" fill="#000000" font-size="14" lengthAdjust="spacing" textLength="195.3848" font-family="sans-serif">ImportarListasAlumnosView</text></g><!--entity AlumnoController--><g class="entity" data-qualified-name="importarListasAlumnos.AlumnoController" id="ent0004" data-source-line="7"><rect x="464.93" y="154.3" width="142.5889" height="36.2969" fill="#B5BD68" style="stroke:#181818;stroke-width:0.5;" rx="2.5" ry="2.5"/><text x="474.93" y="177.2951" fill="#000000" font-size="14" lengthAdjust="spacing" textLength="122.5889" font-family="sans-serif">AlumnoController</text></g><!--entity AlumnoRepository--><g class="entity" data-qualified-name="importarListasAlumnos.AlumnoRepository" id="ent0005" data-source-line="8"><rect x="461.98" y="267.6" width="148.4883" height="36.2969" fill="#F2AC4E" style="stroke:#181818;stroke-width:0.5;" rx="2.5" ry="2.5"/><text x="471.98" y="290.5951" fill="#000000" font-size="14" lengthAdjust="spacing" textLength="128.4883" font-family="sans-serif">AlumnoRepository</text></g><!--entity Alumno--><g class="entity" data-qualified-name="importarListasAlumnos.Alumno" id="ent0006" data-source-line="9"><rect x="499.52" y="364.89" width="73.416" height="36.2969" fill="#F2AC4E" style="stroke:#181818;stroke-width:0.5;" rx="2.5" ry="2.5"/><text x="509.52" y="387.8851" fill="#000000" font-size="14" lengthAdjust="spacing" textLength="53.416" font-family="sans-serif">Alumno</text></g><!--entity DashboardSecretariaAbierto--><g class="entity" data-qualified-name="DashboardSecretariaAbierto" id="ent0001" data-source-line="3"><rect x="7" y="41" width="232.4541" height="36.2969" fill="#CDEBA5" style="stroke:#181818;stroke-width:0.5;" rx="2.5" ry="2.5"/><text x="17" y="63.9951" fill="#000000" font-size="14" lengthAdjust="spacing" textLength="212.4541" font-family="sans-serif">:Dashboard Secretaria Abierto</text></g><!--link DashboardSecretariaAbierto to ImportarListasAlumnosView--><g class="link" data-entity-1="ent0001" data-entity-2="ent0003" id="lnk7" data-source-line="12" data-link-type="dependency"><path d="M239.94,59.15 C301.11,59.15 370.54,59.15 430.35,59.15" style="stroke:#181818;stroke-width:1;" fill="none" id="DashboardSecretariaAbierto-to-ImportarListasAlumnosView"/><polygon points="435.35,59.15,426.35,55.15,430.35,59.15,426.35,63.15,435.35,59.15" fill="#181818" style="stroke:#181818;stroke-width:1;stroke-linejoin:miter;stroke-miterlimit:10;"/><text x="257.49" y="52.2169" fill="#000000" font-size="13" lengthAdjust="spacing" textLength="160.2148" font-family="sans-serif">importarListasAlumnos()</text></g><!--link ImportarListasAlumnosView to AlumnoController--><g class="link" data-entity-1="ent0003" data-entity-2="ent0004" id="lnk8" data-source-line="14" data-link-type="dependency"><path d="M484.39,77.71 C439.47,91.11 385.23,107.3 385.23,107.3 C385.23,107.3 385.23,124.3 385.23,124.3 C385.23,124.3 432.2971,139.0002 475.2271,152.4002" style="stroke:#181818;stroke-width:1;" fill="none" id="ImportarListasAlumnosView-to-AlumnoController"/><polygon points="480,153.89,472.6006,147.3901,475.2271,152.4002,470.217,155.0267,480,153.89" fill="#181818" style="stroke:#181818;stroke-width:1;stroke-linejoin:miter;stroke-miterlimit:10;"/><text x="386.23" y="120.3669" fill="#000000" font-size="13" lengthAdjust="spacing" textLength="216.7153" font-family="sans-serif">validarArchivo(archivo) : Boolean</text></g><!--link ImportarListasAlumnosView to AlumnoController--><g class="link" data-entity-1="ent0003" data-entity-2="ent0004" id="lnk9" data-source-line="16" data-link-type="dependency"><path d="M567.06,77.71 C585.25,91.11 607.23,107.3 607.23,107.3 C607.23,107.3 607.23,124.3 607.23,124.3 C607.23,124.3 587.016,137.7251 566.826,151.1251" style="stroke:#181818;stroke-width:1;" fill="none" id="ImportarListasAlumnosView-to-AlumnoController-1"/><polygon points="562.66,153.89,572.3707,152.2459,566.826,151.1251,567.9468,145.5804,562.66,153.89" fill="#181818" style="stroke:#181818;stroke-width:1;stroke-linejoin:miter;stroke-miterlimit:10;"/><text x="608.23" y="120.3669" fill="#000000" font-size="13" lengthAdjust="spacing" textLength="277.4624" font-family="sans-serif">importarAlumnos(archivo) : List&lt;Alumno></text></g><!--link AlumnoController to AlumnoRepository--><g class="link" data-entity-1="ent0004" data-entity-2="ent0005" id="lnk10" data-source-line="18" data-link-type="dependency"><path d="M536.23,190.84 C536.23,211.62 536.23,241.21 536.23,262.11" style="stroke:#181818;stroke-width:1;" fill="none" id="AlumnoController-to-AlumnoRepository"/><polygon points="536.23,267.11,540.23,258.11,536.23,262.11,532.23,258.11,536.23,267.11" fill="#181818" style="stroke:#181818;stroke-width:1;stroke-linejoin:miter;stroke-miterlimit:10;"/><text x="537.23" y="233.6669" fill="#000000" font-size="13" lengthAdjust="spacing" textLength="266.7666" font-family="sans-serif">crearOActualizar(datosAlumno) : Alumno</text></g><!--link AlumnoRepository to Alumno--><g class="link" data-entity-1="ent0005" data-entity-2="ent0006" id="lnk11" data-source-line="20" data-link-type="association"><path d="M536.23,304.22 C536.23,321.42 536.23,347.52 536.23,364.67" style="stroke:#181818;stroke-width:1;" fill="none" id="AlumnoRepository-Alumno"/></g><?plantuml-src VP11QuD048Nlyoi6Up47Bw49ZPI0CGOAXK8BlO-w94jMHsOtAMdfVw-YQKGqUrbsttiVRyOUTLcHK856byfTAeKLcqlp012LEIhtHk53l4qsqGAzS4lsa399ZXyg4-L8D66KQYMEFIIB_uQRtia05ML7sYlKHSLIIw_QEhAHEHKbsoRiZIh-pCCVmFhq6YtdgsItmfUnmATMNqD_kaZpvHEsZfXB9soCag5jDu_YnwIplQkAhNOibxis-0MO7Xi32TRJFKESc1bWCeD1NYE7euHu9gDpaaYoWpwpJ-qzmn0tp4PHUPSvYhoMkzRgCHl4S_k_1XX6UxpR6aEibqFo5cNkL7Vz9l5pSjprQA3THc6Oh76TzWS0?></g></svg>