<svg xmlns="http://www.w3.org/2000/svg" xmlns:xlink="http://www.w3.org/1999/xlink" version="1.1" data-diagram-type="SEQUENCE" style="width:891px;height:481px;background:#FFFFFF;" width="891px" height="481px" viewBox="0 0 891 481" zoomAndPan="magnify" preserveAspectRatio="none" contentStyleType="text/css"><?plantuml 1.2026.7beta8?><defs/><g font-family="sans-serif" lengthAdjust="spacing"><g class="title" data-source-line="1"><text x="177.146" y="27.995" fill="#000" font-size="14" textLength="535.609" font-weight="700">Diagrama de Secuencia - Abrir Usuarios (Vue 3 + Express + Prisma)</text></g><g><title>Administrador</title><rect x="59.04" y="125.891" width="8" height="266.195" fill="#000" fill-opacity="0"/><line x1="62.54" y1="125.891" x2="62.54" y2="392.086" style="stroke:#181818;stroke-width:0.5;stroke-dasharray:5,5;"/></g><g><title>Frontend</title><rect x="299.938" y="125.891" width="8" height="266.195" fill="#000" fill-opacity="0"/><line x1="303.438" y1="125.891" x2="303.438" y2="392.086" style="stroke:#181818;stroke-width:0.5;stroke-dasharray:5,5;"/></g><g><title></title><rect x="298.438" y="155.023" width="10" height="219.063" fill="#FFF" style="stroke:#181818;stroke-width:1;"/></g><g><title>UsuarioController</title><rect x="487.902" y="125.891" width="8" height="266.195" fill="#000" fill-opacity="0"/><line x1="491.402" y1="125.891" x2="491.402" y2="392.086" style="stroke:#181818;stroke-width:0.5;stroke-dasharray:5,5;"/></g><g><title></title><rect x="486.402" y="184.156" width="10" height="145.664" fill="#FFF" style="stroke:#181818;stroke-width:1;"/></g><g><title>UsuarioService</title><rect x="634.105" y="125.891" width="8" height="266.195" fill="#000" fill-opacity="0"/><line x1="637.605" y1="125.891" x2="637.605" y2="392.086" style="stroke:#181818;stroke-width:0.5;stroke-dasharray:5,5;"/></g><g><title></title><rect x="632.605" y="213.289" width="10" height="87.398" fill="#FFF" style="stroke:#181818;stroke-width:1;"/></g><g><title>Base de Datos</title><rect x="823.802" y="125.891" width="8" height="266.195" fill="#000" fill-opacity="0"/><line x1="827.302" y1="125.891" x2="827.302" y2="392.086" style="stroke:#181818;stroke-width:0.5;stroke-dasharray:5,5;"/></g><g><title></title><rect x="822.302" y="242.422" width="10" height="29.133" fill="#FFF" style="stroke:#181818;stroke-width:1;"/></g><text x="10" y="122.589" fill="#000" font-size="14" textLength="99.08">Administrador</text><ellipse cx="62.54" cy="58.094" rx="8" ry="8" fill="#E2E2F0" style="stroke:#181818;stroke-width:0.5;"/><path d="M62.54,66.094 L62.54,93.094 M49.54,74.094 L75.54,74.094 M62.54,93.094 L49.54,108.094 M62.54,93.094 L75.54,108.094" style="stroke:#181818;stroke-width:0.5;" fill="none"/><rect x="264.883" y="78.297" width="77.109" height="46.594" fill="#E2E2F0" style="stroke:#181818;stroke-width:0.5;" rx="2.5" ry="2.5"/><text x="271.883" y="98.292" fill="#000" font-size="14" textLength="63.109">Frontend</text><text x="277.765" y="114.589" fill="#000" font-size="14" textLength="51.345">(Vue 3)</text><rect x="423.213" y="94.594" width="136.377" height="30.297" fill="#E2E2F0" style="stroke:#181818;stroke-width:0.5;" rx="2.5" ry="2.5"/><text x="430.213" y="114.589" fill="#000" font-size="14" textLength="122.377">UsuarioController</text><rect x="578.132" y="94.594" width="118.945" height="30.297" fill="#E2E2F0" style="stroke:#181818;stroke-width:0.5;" rx="2.5" ry="2.5"/><text x="585.132" y="114.589" fill="#000" font-size="14" textLength="104.945">UsuarioService</text><text x="773.703" y="106.292" fill="#000" font-size="14" textLength="101.199">Base de Datos</text><text x="778.464" y="122.589" fill="#000" font-size="14" textLength="91.677">(PostgreSQL)</text><path d="M809.302,57.297 C809.302,47.297 827.302,47.297 827.302,47.297 C827.302,47.297 845.302,47.297 845.302,57.297 L845.302,83.297 C845.302,93.297 827.302,93.297 827.302,93.297 C827.302,93.297 809.302,93.297 809.302,83.297 L809.302,57.297" style="stroke:#181818;stroke-width:0.5;" fill="#E2E2F0"/><path d="M809.302,57.297 C809.302,67.297 827.302,67.297 827.302,67.297 C827.302,67.297 845.302,67.297 845.302,57.297" style="stroke:#181818;stroke-width:0.5;" fill="none"/><text x="10" y="405.081" fill="#000" font-size="14" textLength="99.08">Administrador</text><ellipse cx="62.54" cy="416.883" rx="8" ry="8" fill="#E2E2F0" style="stroke:#181818;stroke-width:0.5;"/><path d="M62.54,424.883 L62.54,451.883 M49.54,432.883 L75.54,432.883 M62.54,451.883 L49.54,466.883 M62.54,451.883 L75.54,466.883" style="stroke:#181818;stroke-width:0.5;" fill="none"/><rect x="264.883" y="392.086" width="77.109" height="46.594" fill="#E2E2F0" style="stroke:#181818;stroke-width:0.5;" rx="2.5" ry="2.5"/><text x="271.883" y="412.081" fill="#000" font-size="14" textLength="63.109">Frontend</text><text x="277.765" y="428.378" fill="#000" font-size="14" textLength="51.345">(Vue 3)</text><rect x="423.213" y="392.086" width="136.377" height="30.297" fill="#E2E2F0" style="stroke:#181818;stroke-width:0.5;" rx="2.5" ry="2.5"/><text x="430.213" y="412.081" fill="#000" font-size="14" textLength="122.377">UsuarioController</text><rect x="578.132" y="392.086" width="118.945" height="30.297" fill="#E2E2F0" style="stroke:#181818;stroke-width:0.5;" rx="2.5" ry="2.5"/><text x="585.132" y="412.081" fill="#000" font-size="14" textLength="104.945">UsuarioService</text><text x="773.703" y="405.081" fill="#000" font-size="14" textLength="101.199">Base de Datos</text><text x="778.464" y="421.378" fill="#000" font-size="14" textLength="91.677">(PostgreSQL)</text><path d="M809.302,434.68 C809.302,424.68 827.302,424.68 827.302,424.68 C827.302,424.68 845.302,424.68 845.302,434.68 L845.302,460.68 C845.302,470.68 827.302,470.68 827.302,470.68 C827.302,470.68 809.302,470.68 809.302,460.68 L809.302,434.68" style="stroke:#181818;stroke-width:0.5;" fill="#E2E2F0"/><path d="M809.302,434.68 C809.302,444.68 827.302,444.68 827.302,444.68 C827.302,444.68 845.302,444.68 845.302,434.68" style="stroke:#181818;stroke-width:0.5;" fill="none"/><polygon points="286.438,151.023,296.438,155.023,286.438,159.023,290.438,155.023" fill="#181818" style="stroke:#181818;stroke-width:1;stroke-linejoin:miter;stroke-miterlimit:10;"/><line x1="62.54" y1="155.023" x2="292.438" y2="155.023" style="stroke:#181818;stroke-width:1;"/><text x="69.54" y="149.958" fill="#000" font-size="13" textLength="211.897">solicita abrir gestión de usuarios</text><polygon points="474.402,180.156,484.402,184.156,474.402,188.156,478.402,184.156" fill="#181818" style="stroke:#181818;stroke-width:1;stroke-linejoin:miter;stroke-miterlimit:10;"/><line x1="308.438" y1="184.156" x2="480.402" y2="184.156" style="stroke:#181818;stroke-width:1;"/><text x="315.438" y="179.09" fill="#000" font-size="13" textLength="158.964">GET /api/admin/usuarios</text><polygon points="620.605,209.289,630.605,213.289,620.605,217.289,624.605,213.289" fill="#181818" style="stroke:#181818;stroke-width:1;stroke-linejoin:miter;stroke-miterlimit:10;"/><line x1="496.402" y1="213.289" x2="626.605" y2="213.289" style="stroke:#181818;stroke-width:1;"/><text x="503.402" y="208.223" fill="#000" font-size="13" textLength="117.203">obtenerUsuarios()</text><polygon points="810.302,238.422,820.302,242.422,810.302,246.422,814.302,242.422" fill="#181818" style="stroke:#181818;stroke-width:1;stroke-linejoin:miter;stroke-miterlimit:10;"/><line x1="642.605" y1="242.422" x2="816.302" y2="242.422" style="stroke:#181818;stroke-width:1;"/><text x="649.605" y="237.356" fill="#000" font-size="13" textLength="160.697">SELECT * FROM usuarios</text><polygon points="653.605,267.555,643.605,271.555,653.605,275.555,649.605,271.555" fill="#181818" style="stroke:#181818;stroke-width:1;stroke-linejoin:miter;stroke-miterlimit:10;"/><line x1="647.605" y1="271.555" x2="821.302" y2="271.555" style="stroke:#181818;stroke-width:1;stroke-dasharray:2,2;"/><text x="659.605" y="266.489" fill="#000" font-size="13" textLength="93.914">List&lt;Usuario></text><polygon points="507.402,296.688,497.402,300.688,507.402,304.688,503.402,300.688" fill="#181818" style="stroke:#181818;stroke-width:1;stroke-linejoin:miter;stroke-miterlimit:10;"/><line x1="501.402" y1="300.688" x2="631.605" y2="300.688" style="stroke:#181818;stroke-width:1;stroke-dasharray:2,2;"/><text x="513.402" y="295.622" fill="#000" font-size="13" textLength="93.914">List&lt;Usuario></text><polygon points="319.438,325.82,309.438,329.82,319.438,333.82,315.438,329.82" fill="#181818" style="stroke:#181818;stroke-width:1;stroke-linejoin:miter;stroke-miterlimit:10;"/><line x1="313.438" y1="329.82" x2="485.402" y2="329.82" style="stroke:#181818;stroke-width:1;stroke-dasharray:2,2;"/><text x="325.438" y="324.754" fill="#000" font-size="13" textLength="131.542">200 OK { usuarios }</text><polygon points="73.54,370.086,63.54,374.086,73.54,378.086,69.54,374.086" fill="#181818" style="stroke:#181818;stroke-width:1;stroke-linejoin:miter;stroke-miterlimit:10;"/><line x1="67.54" y1="374.086" x2="297.438" y2="374.086" style="stroke:#181818;stroke-width:1;stroke-dasharray:2,2;"/><text x="79.54" y="353.887" fill="#000" font-size="13" textLength="164.69">muestra lista de usuarios</text><text x="79.54" y="369.02" fill="#000" font-size="13" textLength="204.369">(nombre, apellidos, rol, estado)</text><?plantuml-src TLBDJeD04BxlKqmu5MtJHc-DQT8Mwi6QLgcUl0mmQJO1bkmkZOdngNm4NypXdsgza6NvvliRhBG9WIVng355Y0a2YWhA8eamWMMefOONKw2Moi3ejI2uXMlmttDDnl1fhwL9qHK28wiqECiubPaqLcEij0DeeBeHEMeh8vbZPi7PQ9LPokAth6PqAs1xUuvjnDVyJQiaePgqVxs83aYVP4GLj3cB62s6Q0YSLVdaf1vQPTZ3NXbxr1GyRMiZtag8oZLC5fqhc8DH2GjP1AngEPAnylihAwcAfgAo1db2ItqQqJ4mM--R-Uxz0qmnbrCinQP_EGOfnM2IUPfGJA92vYRTxcZazkDjSj6YUT1RyKpWR_tr0QvWyxnxlE2T2s3Sv4ndoqkzQrGM8gOXk1Vu7V7VgSxRCDTvtJUp6UmUuACp29z3Xc4vVSLCKQzk3cb1vNy82Nl0uP9uvPbAGqrZm9oIHCRAZ86vni0J_EEwGvsM-mS0?></g></svg>