<svg xmlns="http://www.w3.org/2000/svg" xmlns:xlink="http://www.w3.org/1999/xlink" version="1.1" data-diagram-type="DESCRIPTION" style="width:525px;height:432px;background:#FFFFFF;" width="525px" height="432px" viewBox="0 0 525 432" zoomAndPan="magnify" preserveAspectRatio="none" contentStyleType="text/css"><?plantuml 1.2026.7beta8?><defs/><g font-family="sans-serif" lengthAdjust="spacing"><!--cluster abrirAlumnos--><g class="cluster" data-qualified-name="abrirAlumnos" id="ent0002" data-source-line="5"><path d="M286.06,6 L406.039,6 A3.75,3.75 0 0 1 408.539,8.5 L415.539,28.297 L485.06,28.297 A2.5,2.5 0 0 1 487.56,30.797 L487.56,414.69 A2.5,2.5 0 0 1 485.06,417.19 L286.06,417.19 A2.5,2.5 0 0 1 283.56,414.69 L283.56,8.5 A2.5,2.5 0 0 1 286.06,6" style="stroke:#000;stroke-width:1.5;" fill="none"/><line x1="283.56" y1="28.297" x2="415.539" y2="28.297" style="stroke:#000;stroke-width:1.5;"/><text x="287.56" y="20.995" fill="#000" font-size="14" textLength="118.979" font-weight="700">abrirAlumnos()</text></g><!--entity AbrirAlumnosView--><g class="entity" data-qualified-name="abrirAlumnos.AbrirAlumnosView" id="ent0003" data-source-line="6"><rect x="299.51" y="41" width="148.105" height="36.297" fill="#629EF9" style="stroke:#181818;stroke-width:0.5;" rx="2.5" ry="2.5"/><text x="309.51" y="63.995" fill="#000" font-size="14" textLength="128.105">AbrirAlumnosView</text></g><!--entity AlumnoController--><g class="entity" data-qualified-name="abrirAlumnos.AlumnoController" id="ent0004" data-source-line="7"><rect x="300.27" y="154.3" width="142.589" height="36.297" fill="#B5BD68" style="stroke:#181818;stroke-width:0.5;" rx="2.5" ry="2.5"/><text x="310.27" y="177.295" fill="#000" font-size="14" textLength="122.589">AlumnoController</text></g><!--entity AlumnoRepository--><g class="entity" data-qualified-name="abrirAlumnos.AlumnoRepository" id="ent0005" data-source-line="8"><rect x="299.32" y="267.6" width="148.488" height="36.297" fill="#F2AC4E" style="stroke:#181818;stroke-width:0.5;" rx="2.5" ry="2.5"/><text x="309.32" y="290.595" fill="#000" font-size="14" textLength="128.488">AlumnoRepository</text></g><!--entity Alumno--><g class="entity" data-qualified-name="abrirAlumnos.Alumno" id="ent0006" data-source-line="9"><rect x="336.85" y="364.89" width="73.416" height="36.297" fill="#F2AC4E" style="stroke:#181818;stroke-width:0.5;" rx="2.5" ry="2.5"/><text x="346.85" y="387.885" fill="#000" font-size="14" textLength="53.416">Alumno</text></g><!--entity SistemaDisponible--><g class="entity" data-qualified-name="SistemaDisponible" id="ent0001" data-source-line="3"><rect x="7" y="41" width="159.125" height="36.297" fill="#CDEBA5" style="stroke:#181818;stroke-width:0.5;" rx="2.5" ry="2.5"/><text x="17" y="63.995" fill="#000" font-size="14" textLength="139.125">:Sistema Disponible</text></g><!--link SistemaDisponible to AbrirAlumnosView--><g class="link" data-entity-1="ent0001" data-entity-2="ent0003" id="lnk7" data-source-line="12" data-link-type="dependency"><path d="M166.51,59.15 C208.14,59.15 253.71,59.15 294.46,59.15" style="stroke:#181818;stroke-width:1;" fill="none" id="SistemaDisponible-to-AbrirAlumnosView"/><polygon points="299.46,59.15,290.46,55.15,294.46,59.15,290.46,63.15,299.46,59.15" fill="#181818" style="stroke:#181818;stroke-width:1;stroke-linejoin:miter;stroke-miterlimit:10;"/><text x="184.32" y="52.217" fill="#000" font-size="13" textLength="97.037">abrirAlumnos()</text></g><!--link AbrirAlumnosView to AlumnoController--><g class="link" data-entity-1="ent0003" data-entity-2="ent0004" id="lnk8" data-source-line="13" data-link-type="dependency"><path d="M373.25,77.54 C372.88,98.33 372.339,127.921 371.969,148.811" style="stroke:#181818;stroke-width:1;" fill="none" id="AbrirAlumnosView-to-AlumnoController"/><polygon points="371.88,153.81,376.039,144.882,371.969,148.811,368.04,144.741,371.88,153.81" fill="#181818" style="stroke:#181818;stroke-width:1;stroke-linejoin:miter;stroke-miterlimit:10;"/><text x="373.56" y="120.367" fill="#000" font-size="13" textLength="135.891">listarAlumnos(filtros)</text></g><!--link AlumnoController to AlumnoRepository--><g class="link" data-entity-1="ent0004" data-entity-2="ent0005" id="lnk9" data-source-line="14" data-link-type="dependency"><path d="M371.87,190.84 C372.25,211.62 372.779,241.211 373.159,262.111" style="stroke:#181818;stroke-width:1;" fill="none" id="AlumnoController-to-AlumnoRepository"/><polygon points="373.25,267.11,377.086,258.039,373.159,262.111,369.087,258.184,373.25,267.11" fill="#181818" style="stroke:#181818;stroke-width:1;stroke-linejoin:miter;stroke-miterlimit:10;"/><text x="373.56" y="233.667" fill="#000" font-size="13" textLength="87.909">findAll(filtros)</text></g><!--link AlumnoRepository to Alumno--><g class="link" data-entity-1="ent0005" data-entity-2="ent0006" id="lnk10" data-source-line="15" data-link-type="association"><path d="M373.56,304.22 C373.56,321.42 373.56,347.52 373.56,364.67" style="stroke:#181818;stroke-width:1;" fill="none" id="AlumnoRepository-Alumno"/></g><?plantuml-src VP11QiCm44NtEiNWRjg5Dw49ZHS5rN4Eq4BtutWIXemb8Qa44thtojJ4hWBLJd_UGtyKpcmSUkn1s50S786pCemNfJmT8fgJ43pKk-PDhw6eFZX4wX5s79mrt0eLW06cU4wLSdWuuua0MyzUorTlR1ZHOXayFXLmLP3Euh7DQjlijw0Nt2VJ9SVQTTjjNk2NgAs9tegGpx7zIjVFpOIzaxE1e_N3lvZwLkfk9IXz-NhNgeA_-wWSWB8RjQnbbJuyHBnvHvOq2KdFG2Xlzbo-WYERJelatemaRz9-0000?></g></svg>