<svg xmlns="http://www.w3.org/2000/svg" xmlns:xlink="http://www.w3.org/1999/xlink" contentStyleType="text/css" data-diagram-type="DESCRIPTION" height="435px" preserveAspectRatio="none" style="width:869px;height:435px;background:#FFFFFF;" version="1.1" viewBox="0 0 869 435" width="869px" zoomAndPan="magnify"><?plantuml 1.2026.5?><defs/><g><!--cluster consultarSolicitudDispensa--><g class="cluster" data-qualified-name="consultarSolicitudDispensa" data-source-line="7" id="ent0004"><path d="M8.5,106.3 L237.417,106.3 A3.75,3.75 0 0 1 239.917,108.8 L246.917,128.5969 L276.5,128.5969 A2.5,2.5 0 0 1 279,131.0969 L279,417.69 A2.5,2.5 0 0 1 276.5,420.19 L8.5,420.19 A2.5,2.5 0 0 1 6,417.69 L6,108.8 A2.5,2.5 0 0 1 8.5,106.3" fill="none" style="stroke:#000000;stroke-width:1.5;"/><line style="stroke:#000000;stroke-width:1.5;" x1="6" x2="246.917" y1="128.5969" y2="128.5969"/><text fill="#000000" font-family="sans-serif" font-size="14" font-weight="700" lengthAdjust="spacing" textLength="227.917" x="10" y="121.2951">consultarSolicitudDispensa()</text></g><!--entity ConsultarDispensaView--><g class="entity" data-qualified-name="consultarSolicitudDispensa.ConsultarDispensaView" data-source-line="8" id="ent0005"><rect fill="#629EF9" height="36.2969" rx="2.5" ry="2.5" style="stroke:#181818;stroke-width:0.5;" width="184.835" x="78.58" y="141.3"/><text fill="#000000" font-family="sans-serif" font-size="14" lengthAdjust="spacing" textLength="164.835" x="88.58" y="164.2951">ConsultarDispensaView</text></g><!--entity DispensaController--><g class="entity" data-qualified-name="consultarSolicitudDispensa.DispensaController" data-source-line="9" id="ent0006"><rect fill="#B5BD68" height="36.2969" rx="2.5" ry="2.5" style="stroke:#181818;stroke-width:0.5;" width="153.3828" x="22.31" y="254.6"/><text fill="#000000" font-family="sans-serif" font-size="14" lengthAdjust="spacing" textLength="133.3828" x="32.31" y="277.5951">DispensaController</text></g><!--entity SolicitudDispensaRepository--><g class="entity" data-qualified-name="consultarSolicitudDispensa.SolicitudDispensaRepository" data-source-line="10" id="ent0007"><rect fill="#F2AC4E" height="36.2969" rx="2.5" ry="2.5" style="stroke:#181818;stroke-width:0.5;" width="219.3496" x="22.33" y="367.89"/><text fill="#000000" font-family="sans-serif" font-size="14" lengthAdjust="spacing" textLength="199.3496" x="32.33" y="390.8851">SolicitudDispensaRepository</text></g><!--entity PanelDirector--><g class="entity" data-qualified-name="PanelDirector" data-source-line="3" id="ent0001"><rect fill="#CDEBA5" height="36.2969" rx="2.5" ry="2.5" style="stroke:#181818;stroke-width:0.5;" width="149.4111" x="96.29" y="7"/><text fill="#000000" font-family="sans-serif" font-size="14" lengthAdjust="spacing" textLength="129.4111" x="106.29" y="29.9951">:PANEL_DIRECTOR</text></g><!--entity SolicitudRevisada--><g class="entity" data-qualified-name="SolicitudRevisada" data-source-line="4" id="ent0002"><rect fill="#CDEBA5" height="36.2969" rx="2.5" ry="2.5" style="stroke:#181818;stroke-width:0.5;" width="255.1563" x="295.42" y="254.6"/><text fill="#000000" font-family="sans-serif" font-size="14" lengthAdjust="spacing" textLength="235.1563" x="305.42" y="277.5951">:SOLICITUD_DISPENSA_REVISADA</text></g><!--entity CompletarGestion--><g class="entity" data-qualified-name="CompletarGestion" data-source-line="5" id="ent0003"><rect fill="#CDEBA5" height="36.2969" rx="2.5" ry="2.5" style="stroke:#181818;stroke-width:0.5;" width="249.2363" x="585.38" y="254.6"/><text fill="#000000" font-family="sans-serif" font-size="14" lengthAdjust="spacing" textLength="229.2363" x="595.38" y="277.5951">:Collaboration CompletarGestion</text></g><!--link PanelDirector to ConsultarDispensaView--><g class="link" data-entity-1="ent0001" data-entity-2="ent0005" data-link-type="dependency" data-source-line="13" id="lnk8"><path d="M171,43.72 C171,69.02 171,110.46 171,135.81" fill="none" id="PanelDirector-to-ConsultarDispensaView" style="stroke:#181818;stroke-width:1;"/><polygon fill="#181818" points="171,140.81,175,131.81,171,135.81,167,131.81,171,140.81" style="stroke:#181818;stroke-width:1;stroke-linejoin:miter;stroke-miterlimit:10;"/><text fill="#000000" font-family="sans-serif" font-size="13" lengthAdjust="spacing" textLength="185.9165" x="172" y="86.3669">consultarSolicitudDispensa()</text></g><!--link ConsultarDispensaView to DispensaController--><g class="link" data-entity-1="ent0005" data-entity-2="ent0006" data-link-type="dependency" data-source-line="15" id="lnk9"><path d="M159.75,177.84 C146.3,198.62 126.6458,229.0118 113.1258,249.9118" fill="none" id="ConsultarDispensaView-to-DispensaController" style="stroke:#181818;stroke-width:1;"/><polygon fill="#181818" points="110.41,254.11,118.6569,248.7259,113.1258,249.9118,111.9398,244.3807,110.41,254.11" style="stroke:#181818;stroke-width:1;stroke-linejoin:miter;stroke-miterlimit:10;"/><text fill="#000000" font-family="sans-serif" font-size="13" lengthAdjust="spacing" textLength="185.1421" x="141" y="220.6669">listarSolicitudesPendientes()</text></g><!--link DispensaController to SolicitudDispensaRepository--><g class="link" data-entity-1="ent0006" data-entity-2="ent0007" data-link-type="dependency" data-source-line="16" id="lnk10"><path d="M104.16,291.13 C110.32,311.92 119.1601,341.7158 125.3501,362.6158" fill="none" id="DispensaController-to-SolicitudDispensaRepository" style="stroke:#181818;stroke-width:1;"/><polygon fill="#181818" points="126.77,367.41,128.0495,357.6446,125.3501,362.6158,120.3789,359.9164,126.77,367.41" style="stroke:#181818;stroke-width:1;stroke-linejoin:miter;stroke-miterlimit:10;"/><text fill="#000000" font-family="sans-serif" font-size="13" lengthAdjust="spacing" textLength="204.9341" x="119" y="333.9569">buscarPorEstado("PENDIENTE")</text></g><!--link ConsultarDispensaView to SolicitudRevisada--><g class="link" data-entity-1="ent0005" data-entity-2="ent0002" data-link-type="dependency" data-source-line="18" id="lnk11"><path d="M232.07,178 C278.7,191.41 335,207.6 335,207.6 C335,207.6 368.8603,232.2736 394.9103,251.2736" fill="none" id="ConsultarDispensaView-to-SolicitudRevisada" style="stroke:#181818;stroke-width:1;stroke-dasharray:7,7;"/><polygon fill="#181818" points="398.95,254.22,394.0357,245.6848,394.9103,251.2736,389.3215,252.1482,398.95,254.22" style="stroke:#181818;stroke-width:1;stroke-linejoin:miter;stroke-miterlimit:10;"/><text fill="#000000" font-family="sans-serif" font-size="13" lengthAdjust="spacing" textLength="109.6367" x="358" y="220.6669">&#171;include&#187; [&#233;xito]</text></g><!--link ConsultarDispensaView to CompletarGestion--><g class="link" data-entity-1="ent0005" data-entity-2="ent0003" data-link-type="dependency" data-source-line="19" id="lnk12"><path d="M263.75,174.79 C353.48,188.66 476,207.6 476,207.6 C476,207.6 571.6579,233.8181 640.9279,252.8081" fill="none" id="ConsultarDispensaView-to-CompletarGestion" style="stroke:#181818;stroke-width:1;stroke-dasharray:7,7;"/><polygon fill="#181818" points="645.75,254.13,638.1278,247.8928,640.9279,252.8081,636.0127,255.6082,645.75,254.13" style="stroke:#181818;stroke-width:1;stroke-linejoin:miter;stroke-miterlimit:10;"/><text fill="#000000" font-family="sans-serif" font-size="13" lengthAdjust="spacing" textLength="320.7344" x="533" y="220.6669">&#171;include&#187; completarGestion() [cancelaci&#243;n/error]</text></g><?plantuml-src VPB1IWCn48RlUOfXlTH35OgABgMmxgQo87NPhLwAb6bsAA5fiYHRjOWFvDb7w8kP5fLsMvjRCl__pJzXt4pg2YtEGKbDzR8Yg8nQhY-CMH8rwgaYE8aJVXjTGX1cqO3VZvCqv_7m8Gy07MIeIILohJRseAbuk4_ZTFYOU6EHyK4HZNF-b1PH4cq8XL5Io7fHvlGY7PPua18RfN1YBDRIQ8ZDl59KexqZjtxOW9gFZ5KePZWb44QxXVALlrw9T1LfXsjVy7-vTHh0EmD_jZ9TTMvu_yQt-t7zYfyalJQrayj9UNKDlnBlgQsVX6nJsEz4yGM7lGGvLSP9_xTBzi7Opcz3kzqxd2A4OoCnTj04xTBpzfE6VZlSDebSHhgKf6jodhRls0GxCaa8auKJQ3DZkIUNfXNulKXIFXZouDzuPsUz_Lq9eTkLMYYVgjU3qUhppNTuFa9eBiakG3IghLCO2TI250gv-jBdPAsnpzy0?></g></svg>