<svg xmlns="http://www.w3.org/2000/svg" xmlns:xlink="http://www.w3.org/1999/xlink" version="1.1" data-diagram-type="SEQUENCE" style="width:1154px;height:481px;background:#FFFFFF;" width="1154px" height="481px" viewBox="0 0 1154 481" zoomAndPan="magnify" preserveAspectRatio="none" contentStyleType="text/css"><?plantuml 1.2026.7beta8?><defs/><g font-family="sans-serif" lengthAdjust="spacing"><g class="title" data-source-line="1"><text x="302.886" y="27.995" fill="#000" font-size="14" textLength="547.189" font-weight="700">Diagrama de Secuencia - Abrir Dispensas (Vue 3 + Express + Prisma)</text></g><g><title>Alumno</title><rect x="36.208" y="125.891" width="8" height="266.195" fill="#000" fill-opacity="0"/><line x1="39.708" y1="125.891" x2="39.708" y2="392.086" style="stroke:#181818;stroke-width:0.5;stroke-dasharray:5,5;"/></g><g><title>Frontend</title><rect x="326.446" y="125.891" width="8" height="266.195" fill="#000" fill-opacity="0"/><line x1="329.946" y1="125.891" x2="329.946" y2="392.086" style="stroke:#181818;stroke-width:0.5;stroke-dasharray:5,5;"/></g><g><title></title><rect x="324.946" y="155.023" width="10" height="219.063" fill="#FFF" style="stroke:#181818;stroke-width:1;"/></g><g><title>DispensaController</title><rect x="532.088" y="125.891" width="8" height="266.195" fill="#000" fill-opacity="0"/><line x1="535.588" y1="125.891" x2="535.588" y2="392.086" style="stroke:#181818;stroke-width:0.5;stroke-dasharray:5,5;"/></g><g><title></title><rect x="530.588" y="184.156" width="10" height="145.664" fill="#FFF" style="stroke:#181818;stroke-width:1;"/></g><g><title>DispensaService</title><rect x="749.271" y="125.891" width="8" height="266.195" fill="#000" fill-opacity="0"/><line x1="752.771" y1="125.891" x2="752.771" y2="392.086" style="stroke:#181818;stroke-width:0.5;stroke-dasharray:5,5;"/></g><g><title></title><rect x="747.771" y="213.289" width="10" height="87.398" fill="#FFF" style="stroke:#181818;stroke-width:1;"/></g><g><title>Base de Datos</title><rect x="1086.862" y="125.891" width="8" height="266.195" fill="#000" fill-opacity="0"/><line x1="1090.362" y1="125.891" x2="1090.362" y2="392.086" style="stroke:#181818;stroke-width:0.5;stroke-dasharray:5,5;"/></g><g><title></title><rect x="1085.362" y="242.422" width="10" height="29.133" fill="#FFF" style="stroke:#181818;stroke-width:1;"/></g><text x="10" y="122.589" fill="#000" font-size="14" textLength="53.416">Alumno</text><ellipse cx="39.708" cy="58.094" rx="8" ry="8" fill="#E2E2F0" style="stroke:#181818;stroke-width:0.5;"/><path d="M39.708,66.094 L39.708,93.094 M26.708,74.094 L52.708,74.094 M39.708,93.094 L26.708,108.094 M39.708,93.094 L52.708,108.094" style="stroke:#181818;stroke-width:0.5;" fill="none"/><rect x="291.391" y="78.297" width="77.109" height="46.594" fill="#E2E2F0" style="stroke:#181818;stroke-width:0.5;" rx="2.5" ry="2.5"/><text x="298.391" y="98.292" fill="#000" font-size="14" textLength="63.109">Frontend</text><text x="304.273" y="114.589" fill="#000" font-size="14" textLength="51.345">(Vue 3)</text><rect x="461.897" y="94.594" width="147.383" height="30.297" fill="#E2E2F0" style="stroke:#181818;stroke-width:0.5;" rx="2.5" ry="2.5"/><text x="468.897" y="114.589" fill="#000" font-size="14" textLength="133.383">DispensaController</text><rect x="687.795" y="94.594" width="129.951" height="30.297" fill="#E2E2F0" style="stroke:#181818;stroke-width:0.5;" rx="2.5" ry="2.5"/><text x="694.795" y="114.589" fill="#000" font-size="14" textLength="115.951">DispensaService</text><text x="1036.763" y="106.292" fill="#000" font-size="14" textLength="101.199">Base de Datos</text><text x="1041.524" y="122.589" fill="#000" font-size="14" textLength="91.677">(PostgreSQL)</text><path d="M1072.362,57.297 C1072.362,47.297 1090.362,47.297 1090.362,47.297 C1090.362,47.297 1108.362,47.297 1108.362,57.297 L1108.362,83.297 C1108.362,93.297 1090.362,93.297 1090.362,93.297 C1090.362,93.297 1072.362,93.297 1072.362,83.297 L1072.362,57.297" style="stroke:#181818;stroke-width:0.5;" fill="#E2E2F0"/><path d="M1072.362,57.297 C1072.362,67.297 1090.362,67.297 1090.362,67.297 C1090.362,67.297 1108.362,67.297 1108.362,57.297" style="stroke:#181818;stroke-width:0.5;" fill="none"/><text x="10" y="405.081" fill="#000" font-size="14" textLength="53.416">Alumno</text><ellipse cx="39.708" cy="416.883" rx="8" ry="8" fill="#E2E2F0" style="stroke:#181818;stroke-width:0.5;"/><path d="M39.708,424.883 L39.708,451.883 M26.708,432.883 L52.708,432.883 M39.708,451.883 L26.708,466.883 M39.708,451.883 L52.708,466.883" style="stroke:#181818;stroke-width:0.5;" fill="none"/><rect x="291.391" y="392.086" width="77.109" height="46.594" fill="#E2E2F0" style="stroke:#181818;stroke-width:0.5;" rx="2.5" ry="2.5"/><text x="298.391" y="412.081" fill="#000" font-size="14" textLength="63.109">Frontend</text><text x="304.273" y="428.378" fill="#000" font-size="14" textLength="51.345">(Vue 3)</text><rect x="461.897" y="392.086" width="147.383" height="30.297" fill="#E2E2F0" style="stroke:#181818;stroke-width:0.5;" rx="2.5" ry="2.5"/><text x="468.897" y="412.081" fill="#000" font-size="14" textLength="133.383">DispensaController</text><rect x="687.795" y="392.086" width="129.951" height="30.297" fill="#E2E2F0" style="stroke:#181818;stroke-width:0.5;" rx="2.5" ry="2.5"/><text x="694.795" y="412.081" fill="#000" font-size="14" textLength="115.951">DispensaService</text><text x="1036.763" y="405.081" fill="#000" font-size="14" textLength="101.199">Base de Datos</text><text x="1041.524" y="421.378" fill="#000" font-size="14" textLength="91.677">(PostgreSQL)</text><path d="M1072.362,434.68 C1072.362,424.68 1090.362,424.68 1090.362,424.68 C1090.362,424.68 1108.362,424.68 1108.362,434.68 L1108.362,460.68 C1108.362,470.68 1090.362,470.68 1090.362,470.68 C1090.362,470.68 1072.362,470.68 1072.362,460.68 L1072.362,434.68" style="stroke:#181818;stroke-width:0.5;" fill="#E2E2F0"/><path d="M1072.362,434.68 C1072.362,444.68 1090.362,444.68 1090.362,444.68 C1090.362,444.68 1108.362,444.68 1108.362,434.68" style="stroke:#181818;stroke-width:0.5;" fill="none"/><polygon points="312.946,151.023,322.946,155.023,312.946,159.023,316.946,155.023" fill="#181818" style="stroke:#181818;stroke-width:1;stroke-linejoin:miter;stroke-miterlimit:10;"/><line x1="39.708" y1="155.023" x2="318.946" y2="155.023" style="stroke:#181818;stroke-width:1;"/><text x="46.708" y="149.958" fill="#000" font-size="13" textLength="221.635">solicita abrir gestión de dispensas</text><polygon points="518.588,180.156,528.588,184.156,518.588,188.156,522.588,184.156" fill="#181818" style="stroke:#181818;stroke-width:1;stroke-linejoin:miter;stroke-miterlimit:10;"/><line x1="334.946" y1="184.156" x2="524.588" y2="184.156" style="stroke:#181818;stroke-width:1;"/><text x="341.946" y="179.09" fill="#000" font-size="13" textLength="176.643">GET /api/alumno/dispensas</text><polygon points="735.771,209.289,745.771,213.289,735.771,217.289,739.771,213.289" fill="#181818" style="stroke:#181818;stroke-width:1;stroke-linejoin:miter;stroke-miterlimit:10;"/><line x1="540.588" y1="213.289" x2="741.771" y2="213.289" style="stroke:#181818;stroke-width:1;"/><text x="547.588" y="208.223" fill="#000" font-size="13" textLength="188.183">obtenerDispensas(alumnoId)</text><polygon points="1073.362,238.422,1083.362,242.422,1073.362,246.422,1077.362,242.422" fill="#181818" style="stroke:#181818;stroke-width:1;stroke-linejoin:miter;stroke-miterlimit:10;"/><line x1="757.771" y1="242.422" x2="1079.362" y2="242.422" style="stroke:#181818;stroke-width:1;"/><text x="764.771" y="237.356" fill="#000" font-size="13" textLength="308.591">SELECT * FROM Dispensa WHERE alumnoId = ?</text><polygon points="768.771,267.555,758.771,271.555,768.771,275.555,764.771,271.555" fill="#181818" style="stroke:#181818;stroke-width:1;stroke-linejoin:miter;stroke-miterlimit:10;"/><line x1="762.771" y1="271.555" x2="1084.362" y2="271.555" style="stroke:#181818;stroke-width:1;stroke-dasharray:2,2;"/><text x="774.771" y="266.489" fill="#000" font-size="13" textLength="104.133">List&lt;Dispensa></text><polygon points="551.588,296.688,541.588,300.688,551.588,304.688,547.588,300.688" fill="#181818" style="stroke:#181818;stroke-width:1;stroke-linejoin:miter;stroke-miterlimit:10;"/><line x1="545.588" y1="300.688" x2="746.771" y2="300.688" style="stroke:#181818;stroke-width:1;stroke-dasharray:2,2;"/><text x="557.588" y="295.622" fill="#000" font-size="13" textLength="104.133">List&lt;Dispensa></text><polygon points="345.946,325.82,335.946,329.82,345.946,333.82,341.946,329.82" fill="#181818" style="stroke:#181818;stroke-width:1;stroke-linejoin:miter;stroke-miterlimit:10;"/><line x1="339.946" y1="329.82" x2="529.588" y2="329.82" style="stroke:#181818;stroke-width:1;stroke-dasharray:2,2;"/><text x="351.946" y="324.754" fill="#000" font-size="13" textLength="141.28">200 OK { dispensas }</text><polygon points="50.708,370.086,40.708,374.086,50.708,378.086,46.708,374.086" fill="#181818" style="stroke:#181818;stroke-width:1;stroke-linejoin:miter;stroke-miterlimit:10;"/><line x1="44.708" y1="374.086" x2="323.946" y2="374.086" style="stroke:#181818;stroke-width:1;stroke-dasharray:2,2;"/><text x="56.708" y="353.887" fill="#000" font-size="13" textLength="261.238">muestra lista de solicitudes de dispensa</text><text x="56.708" y="369.02" fill="#000" font-size="13" textLength="244.213">(asignatura, periodo, horario, estado)</text><?plantuml-src TPBBJiD034NtynLMLosqAe8TWgAMX8Seuj4ADcpSZ1L6IcSYpmGX8RwAJ-37S9FcKGIRQ9AnZw_lJJ0X8uWCfenh14smeAGWcnY44KnNR5XkVKxMeuV-Kq5m1FiGl-TCtilfderVuq0fJ89Zw4spOcrT3wIwEgeSEPZ4v6W3z2xOsK1MlzYADIWhww-xjVNSSxbabsN4PN7x-dVvWlZD95JMRizAOy0LUeBURFEKDICCpekAU-T3ohHuc5TIefbIbN0OJHfXS0pUPJ8g861fIae-cEylks7fsg2D2UOD0xKRgGOXk5Qw02_Z9OmnDsCinut_e7HMLPrU8MqN4unR2Psu2QbVuQxreENKDgYwJGZHJ9eNyJm-Ny8UN3pUtJP1m_DL_1X33O9JE6jPOf2qZdOqp8qF9tNtH6dgLhT3VplmVriZkBlrRXw71mTmTmCVhVlmsKLqlMip4COstMDO5v8X8sGYe_prjn4NcdmtLlbBq9lKOYWOXv0J6wVT45uTeno781ZKRj2TNa_y0G00?></g></svg>