<svg xmlns="http://www.w3.org/2000/svg" xmlns:xlink="http://www.w3.org/1999/xlink" version="1.1" data-diagram-type="DESCRIPTION" style="width:1651px;height:432px;background:#FFFFFF;" width="1651px" height="432px" viewBox="0 0 1651 432" zoomAndPan="magnify" preserveAspectRatio="none" contentStyleType="text/css"><?plantuml 1.2026.7beta3?><defs/><g><!--cluster cerrarSesionClase--><g class="cluster" data-qualified-name="cerrarSesionClase" id="ent0003" data-source-line="6"><path d="M243.76,6 L400.1545,6 A3.75,3.75 0 0 1 402.6545,8.5 L409.6545,28.2969 L1299.76,28.2969 A2.5,2.5 0 0 1 1302.26,30.7969 L1302.26,414.69 A2.5,2.5 0 0 1 1299.76,417.19 L243.76,417.19 A2.5,2.5 0 0 1 241.26,414.69 L241.26,8.5 A2.5,2.5 0 0 1 243.76,6" style="stroke:#000000;stroke-width:1.5;" fill="none"/><line x1="241.26" y1="28.2969" x2="409.6545" y2="28.2969" style="stroke:#000000;stroke-width:1.5;"/><text x="245.26" y="20.9951" fill="#000000" font-size="14" lengthAdjust="spacing" textLength="155.3945" font-weight="700" font-family="sans-serif">cerrarSesionClase()</text></g><!--entity CerrarSesionClaseView--><g class="entity" data-qualified-name="cerrarSesionClase.CerrarSesionClaseView" id="ent0004" data-source-line="7"><rect x="509.24" y="41" width="182.0391" height="36.2969" fill="#629EF9" style="stroke:#181818;stroke-width:0.5;" rx="2.5" ry="2.5"/><text x="519.24" y="63.9951" fill="#000000" font-size="14" lengthAdjust="spacing" textLength="162.0391" font-family="sans-serif">CerrarSesionClaseView</text></g><!--entity SesionClaseController--><g class="entity" data-qualified-name="cerrarSesionClase.SesionClaseController" id="ent0005" data-source-line="8"><rect x="508.53" y="154.3" width="173.4463" height="36.2969" fill="#B5BD68" style="stroke:#181818;stroke-width:0.5;" rx="2.5" ry="2.5"/><text x="518.53" y="177.2951" fill="#000000" font-size="14" lengthAdjust="spacing" textLength="153.4463" font-family="sans-serif">SesionClaseController</text></g><!--entity SesionClaseRepository--><g class="entity" data-qualified-name="cerrarSesionClase.SesionClaseRepository" id="ent0006" data-source-line="9"><rect x="379.58" y="267.6" width="179.3457" height="36.2969" fill="#F2AC4E" style="stroke:#181818;stroke-width:0.5;" rx="2.5" ry="2.5"/><text x="389.58" y="290.5951" fill="#000000" font-size="14" lengthAdjust="spacing" textLength="159.3457" font-family="sans-serif">SesionClaseRepository</text></g><!--entity AsistenciaRepository--><g class="entity" data-qualified-name="cerrarSesionClase.AsistenciaRepository" id="ent0007" data-source-line="10"><rect x="900.12" y="267.6" width="166.2686" height="36.2969" fill="#F2AC4E" style="stroke:#181818;stroke-width:0.5;" rx="2.5" ry="2.5"/><text x="910.12" y="290.5951" fill="#000000" font-size="14" lengthAdjust="spacing" textLength="146.2686" font-family="sans-serif">AsistenciaRepository</text></g><!--entity SesionDeClase--><g class="entity" data-qualified-name="cerrarSesionClase.SesionDeClase" id="ent0008" data-source-line="11"><rect x="407.42" y="364.89" width="123.667" height="36.2969" fill="#F2AC4E" style="stroke:#181818;stroke-width:0.5;" rx="2.5" ry="2.5"/><text x="417.42" y="387.8851" fill="#000000" font-size="14" lengthAdjust="spacing" textLength="103.667" font-family="sans-serif">SesionDeClase</text></g><!--entity Asistencia--><g class="entity" data-qualified-name="cerrarSesionClase.Asistencia" id="ent0009" data-source-line="12"><rect x="937.66" y="364.89" width="91.1963" height="36.2969" fill="#F2AC4E" style="stroke:#181818;stroke-width:0.5;" rx="2.5" ry="2.5"/><text x="947.66" y="387.8851" fill="#000000" font-size="14" lengthAdjust="spacing" textLength="71.1963" font-family="sans-serif">Asistencia</text></g><!--entity DashboardProfesorAbierto--><g class="entity" data-qualified-name="DashboardProfesorAbierto" id="ent0001" data-source-line="3"><rect x="7" y="41" width="218.5156" height="36.2969" fill="#CDEBA5" style="stroke:#181818;stroke-width:0.5;" rx="2.5" ry="2.5"/><text x="17" y="63.9951" fill="#000000" font-size="14" lengthAdjust="spacing" textLength="198.5156" font-family="sans-serif">:Dashboard Profesor Abierto</text></g><!--entity ExportarHistorialAsistencias--><g class="entity" data-qualified-name="ExportarHistorialAsistencias" id="ent0002" data-source-line="4"><rect x="1318.76" y="154.3" width="319.0039" height="36.2969" fill="#CDEBA5" style="stroke:#181818;stroke-width:0.5;" rx="2.5" ry="2.5"/><text x="1328.76" y="177.2951" fill="#000000" font-size="14" lengthAdjust="spacing" textLength="299.0039" font-family="sans-serif">:Collaboration ExportarHistorialAsistencias</text></g><!--link DashboardProfesorAbierto to CerrarSesionClaseView--><g class="link" data-entity-1="ent0001" data-entity-2="ent0004" id="lnk10" data-source-line="15" data-link-type="dependency"><path d="M225.78,59.15 C311.25,59.15 423.59,59.15 504.01,59.15" style="stroke:#181818;stroke-width:1;" fill="none" id="DashboardProfesorAbierto-to-CerrarSesionClaseView"/><polygon points="509.01,59.15,500.01,55.15,504.01,59.15,500.01,63.15,509.01,59.15" fill="#181818" style="stroke:#181818;stroke-width:1;stroke-linejoin:miter;stroke-miterlimit:10;"/><text x="303.88" y="52.2169" fill="#000000" font-size="13" lengthAdjust="spacing" textLength="127.5435" font-family="sans-serif">cerrarSesionClase()</text></g><!--link CerrarSesionClaseView to SesionClaseController--><g class="link" data-entity-1="ent0004" data-entity-2="ent0005" id="lnk11" data-source-line="17" data-link-type="dependency"><path d="M509.05,73.98 C417.28,87.89 289.26,107.3 289.26,107.3 C289.26,107.3 289.26,124.3 289.26,124.3 C289.26,124.3 412.9783,143.3586 503.4483,157.2986" style="stroke:#181818;stroke-width:1;" fill="none" id="CerrarSesionClaseView-to-SesionClaseController"/><polygon points="508.39,158.06,500.1041,152.7361,503.4483,157.2986,498.8858,160.6428,508.39,158.06" fill="#181818" style="stroke:#181818;stroke-width:1;stroke-linejoin:miter;stroke-miterlimit:10;"/><text x="290.26" y="120.3669" fill="#000000" font-size="13" lengthAdjust="spacing" textLength="266.1953" font-family="sans-serif">obtenerSesion(sesionId) : SesionDeClase</text></g><!--link CerrarSesionClaseView to SesionClaseController--><g class="link" data-entity-1="ent0004" data-entity-2="ent0005" id="lnk14" data-source-line="23" data-link-type="dependency"><path d="M599.14,77.71 C598.29,91.11 597.26,107.3 597.26,107.3 C597.26,107.3 596.5579,129.9325 595.9579,148.9225" style="stroke:#181818;stroke-width:1;" fill="none" id="CerrarSesionClaseView-to-SesionClaseController-1"/><polygon points="595.8,153.92,600.0822,145.0508,595.9579,148.9225,592.0862,144.7982,595.8,153.92" fill="#181818" style="stroke:#181818;stroke-width:1;stroke-linejoin:miter;stroke-miterlimit:10;"/><text x="598.26" y="120.3669" fill="#000000" font-size="13" lengthAdjust="spacing" textLength="310.6099" font-family="sans-serif">obtenerAsistencias(sesionId) : List&lt;Asistencia></text></g><!--link CerrarSesionClaseView to SesionClaseController--><g class="link" data-entity-1="ent0004" data-entity-2="ent0005" id="lnk17" data-source-line="29" data-link-type="dependency"><path d="M691.63,73.92 C784.02,87.83 913.26,107.3 913.26,107.3 C913.26,107.3 913.26,124.3 913.26,124.3 C913.26,124.3 781.2559,143.8667 687.0959,157.8267" style="stroke:#181818;stroke-width:1;" fill="none" id="CerrarSesionClaseView-to-SesionClaseController-2"/><polygon points="682.15,158.56,691.6393,161.1969,687.0959,157.8267,690.4661,153.2834,682.15,158.56" fill="#181818" style="stroke:#181818;stroke-width:1;stroke-linejoin:miter;stroke-miterlimit:10;"/><text x="914.26" y="120.3669" fill="#000000" font-size="13" lengthAdjust="spacing" textLength="289.8848" font-family="sans-serif">cerrarSesionClase(sesionId) : SesionDeClase</text></g><!--link SesionClaseController to SesionClaseRepository--><g class="link" data-entity-1="ent0005" data-entity-2="ent0006" id="lnk12" data-source-line="19" data-link-type="dependency"><path d="M508.39,186.83 C417.92,200.77 289.26,220.6 289.26,220.6 C289.26,220.6 289.26,237.6 289.26,237.6 C289.26,237.6 346.0131,252.4633 397.1431,265.8533" style="stroke:#181818;stroke-width:1;" fill="none" id="SesionClaseController-to-SesionClaseRepository"/><polygon points="401.98,267.12,394.287,260.9704,397.1431,265.8533,392.2602,268.7095,401.98,267.12" fill="#181818" style="stroke:#181818;stroke-width:1;stroke-linejoin:miter;stroke-miterlimit:10;"/><text x="290.26" y="233.6669" fill="#000000" font-size="13" lengthAdjust="spacing" textLength="256.5913" font-family="sans-serif">obtenerPorId(sesionId) : SesionDeClase</text></g><!--link SesionClaseController to SesionClaseRepository--><g class="link" data-entity-1="ent0005" data-entity-2="ent0006" id="lnk18" data-source-line="31" data-link-type="dependency"><path d="M583.23,190.98 C570.21,209.97 551.26,237.6 551.26,237.6 C551.26,237.6 527.4445,251.2875 504.1245,264.6975" style="stroke:#181818;stroke-width:1;" fill="none" id="SesionClaseController-to-SesionClaseRepository-1"/><polygon points="499.79,267.19,509.586,266.1711,504.1245,264.6975,505.598,259.2359,499.79,267.19" fill="#181818" style="stroke:#181818;stroke-width:1;stroke-linejoin:miter;stroke-miterlimit:10;"/><text x="562.26" y="233.6669" fill="#000000" font-size="13" lengthAdjust="spacing" textLength="351.9331" font-family="sans-serif">actualizarEstado(sesionId, CERRADA) : SesionDeClase</text></g><!--link SesionClaseRepository to SesionDeClase--><g class="link" data-entity-1="ent0006" data-entity-2="ent0008" id="lnk13" data-source-line="21" data-link-type="association"><path d="M469.26,304.22 C469.26,321.42 469.26,347.52 469.26,364.67" style="stroke:#181818;stroke-width:1;" fill="none" id="SesionClaseRepository-SesionDeClase"/></g><!--link SesionClaseController to AsistenciaRepository--><g class="link" data-entity-1="ent0005" data-entity-2="ent0007" id="lnk15" data-source-line="25" data-link-type="dependency"><path d="M682.46,186.02 C779.33,199.99 922.26,220.6 922.26,220.6 C922.26,220.6 945.0853,244.596 963.1453,263.596" style="stroke:#181818;stroke-width:1;" fill="none" id="SesionClaseController-to-AsistenciaRepository"/><polygon points="966.59,267.22,963.2887,257.9409,963.1453,263.596,957.4902,263.4525,966.59,267.22" fill="#181818" style="stroke:#181818;stroke-width:1;stroke-linejoin:miter;stroke-miterlimit:10;"/><text x="937.26" y="233.6669" fill="#000000" font-size="13" lengthAdjust="spacing" textLength="301.6914" font-family="sans-serif">obtenerPorSesion(sesionId) : List&lt;Asistencia></text></g><!--link AsistenciaRepository to Asistencia--><g class="link" data-entity-1="ent0007" data-entity-2="ent0009" id="lnk16" data-source-line="27" data-link-type="association"><path d="M983.26,304.22 C983.26,321.42 983.26,347.52 983.26,364.67" style="stroke:#181818;stroke-width:1;" fill="none" id="AsistenciaRepository-Asistencia"/></g><!--link CerrarSesionClaseView to ExportarHistorialAsistencias--><g class="link" data-entity-1="ent0004" data-entity-2="ent0002" id="lnk19" data-source-line="33" data-link-type="dependency"><path d="M691.55,67.18 C862.16,80.33 1212.26,107.3 1212.26,107.3 C1212.26,107.3 1321.6093,133.6679 1400.3593,152.6579" style="stroke:#181818;stroke-width:1;stroke-dasharray:7,7;" fill="none" id="CerrarSesionClaseView-to-ExportarHistorialAsistencias"/><polygon points="1405.22,153.83,1397.4085,147.8317,1400.3593,152.6579,1395.5331,155.6087,1405.22,153.83" fill="#181818" style="stroke:#181818;stroke-width:1;stroke-linejoin:miter;stroke-miterlimit:10;"/><text x="1277.26" y="120.3669" fill="#000000" font-size="13" lengthAdjust="spacing" textLength="259.562" font-family="sans-serif">«include» exportarHistorialAsistencias()</text></g><?plantuml-src hPJ1Ji9048Rl-nGJl40Y78WGRKYJMaeayK0myJvjHzomTflP9Oh6TtT1X58MCCPUskxyytN-cKdDN1ObChw0aWNPPKbGQhLSlGZ1b5aiPehW8Xucjr4F6i4GpNEgaNEOi7uYencYL19RtG0qi0t_H3T1BolMIc6g6QtK1IHlfMQBV2UDrInHHSOzKP59D6lsAO4G9MPpd15an8pyGCOnOuM6LgcDWzDcgm4V0jnLgQpVlKb6Dn3NnO-INklQj9Vc_Mkeg69TM7QMYElQKJUAhvAgTagbDjBPM1xHxhoTbNvZXxG6dyM9Jo6EJGdQt0xzzWFmj508hnRQkSDuEnE0JbqTj4bfclLjdBSWgFaGtdnexvDtpTcI9vh7-I_1ktG7hkl-xAsobtjrtBlZmIuOdlBect_LegT_XtWVP6MqiWt7N1utURW7_pb4pEm2bNn7Jep5N6_Xbn0dqsaqZ3nVyNleTCAJ_um01WDPP6gHKnW2dL0sMry0?></g></svg>