<svg xmlns="http://www.w3.org/2000/svg" xmlns:xlink="http://www.w3.org/1999/xlink" version="1.1" data-diagram-type="DESCRIPTION" style="width:1117px;height:432px;background:#FFFFFF;" width="1117px" height="432px" viewBox="0 0 1117 432" zoomAndPan="magnify" preserveAspectRatio="none" contentStyleType="text/css"><?plantuml 1.2026.7beta3?><defs/><g><!--cluster editarUsuario--><g class="cluster" data-qualified-name="editarUsuario" id="ent0002" data-source-line="5"><path d="M193.33,6 L314.9228,6 A3.75,3.75 0 0 1 317.4228,8.5 L324.4228,28.2969 L1100.33,28.2969 A2.5,2.5 0 0 1 1102.83,30.7969 L1102.83,414.69 A2.5,2.5 0 0 1 1100.33,417.19 L193.33,417.19 A2.5,2.5 0 0 1 190.83,414.69 L190.83,8.5 A2.5,2.5 0 0 1 193.33,6" style="stroke:#000000;stroke-width:1.5;" fill="none"/><line x1="190.83" y1="28.2969" x2="324.4228" y2="28.2969" style="stroke:#000000;stroke-width:1.5;"/><text x="194.83" y="20.9951" fill="#000000" font-size="14" lengthAdjust="spacing" textLength="120.5928" font-weight="700" font-family="sans-serif">editarUsuario()</text></g><!--entity EditarUsuarioView--><g class="entity" data-qualified-name="editarUsuario.EditarUsuarioView" id="ent0003" data-source-line="6"><rect x="350.74" y="41" width="148.1807" height="36.2969" fill="#629EF9" style="stroke:#181818;stroke-width:0.5;" rx="2.5" ry="2.5"/><text x="360.74" y="63.9951" fill="#000000" font-size="14" lengthAdjust="spacing" textLength="128.1807" font-family="sans-serif">EditarUsuarioView</text></g><!--entity UsuarioController--><g class="entity" data-qualified-name="editarUsuario.UsuarioController" id="ent0004" data-source-line="7"><rect x="396.64" y="154.3" width="142.377" height="36.2969" fill="#B5BD68" style="stroke:#181818;stroke-width:0.5;" rx="2.5" ry="2.5"/><text x="406.64" y="177.2951" fill="#000000" font-size="14" lengthAdjust="spacing" textLength="122.377" font-family="sans-serif">UsuarioController</text></g><!--entity UsuarioRepository--><g class="entity" data-qualified-name="editarUsuario.UsuarioRepository" id="ent0005" data-source-line="8"><rect x="393.69" y="267.6" width="148.2764" height="36.2969" fill="#F2AC4E" style="stroke:#181818;stroke-width:0.5;" rx="2.5" ry="2.5"/><text x="403.69" y="290.5951" fill="#000000" font-size="14" lengthAdjust="spacing" textLength="128.2764" font-family="sans-serif">UsuarioRepository</text></g><!--entity Usuario--><g class="entity" data-qualified-name="editarUsuario.Usuario" id="ent0006" data-source-line="9"><rect x="431.23" y="364.89" width="73.2041" height="36.2969" fill="#F2AC4E" style="stroke:#181818;stroke-width:0.5;" rx="2.5" ry="2.5"/><text x="441.23" y="387.8851" fill="#000000" font-size="14" lengthAdjust="spacing" textLength="53.2041" font-family="sans-serif">Usuario</text></g><!--entity PanelAdminAbierto--><g class="entity" data-qualified-name="PanelAdminAbierto" id="ent0001" data-source-line="3"><rect x="7" y="41" width="167.6563" height="36.2969" fill="#CDEBA5" style="stroke:#181818;stroke-width:0.5;" rx="2.5" ry="2.5"/><text x="17" y="63.9951" fill="#000000" font-size="14" lengthAdjust="spacing" textLength="147.6563" font-family="sans-serif">:Panel Admin Abierto</text></g><!--link PanelAdminAbierto to EditarUsuarioView--><g class="link" data-entity-1="ent0001" data-entity-2="ent0003" id="lnk7" data-source-line="12" data-link-type="dependency"><path d="M175.11,59.15 C229.03,59.15 293.33,59.15 345.25,59.15" style="stroke:#181818;stroke-width:1;" fill="none" id="PanelAdminAbierto-to-EditarUsuarioView"/><polygon points="350.25,59.15,341.25,55.15,345.25,59.15,341.25,63.15,350.25,59.15" fill="#181818" style="stroke:#181818;stroke-width:1;stroke-linejoin:miter;stroke-miterlimit:10;"/><text x="214.2" y="52.2169" fill="#000000" font-size="13" lengthAdjust="spacing" textLength="97.8174" font-family="sans-serif">editarUsuario()</text></g><!--link EditarUsuarioView to UsuarioController--><g class="link" data-entity-1="ent0003" data-entity-2="ent0004" id="lnk8" data-source-line="14" data-link-type="dependency"><path d="M355.3,77.77 C302.47,91.17 238.83,107.3 238.83,107.3 C238.83,107.3 238.83,124.3 238.83,124.3 C238.83,124.3 324.2227,141.882 391.4127,155.712" style="stroke:#181818;stroke-width:1;" fill="none" id="EditarUsuarioView-to-UsuarioController"/><polygon points="396.31,156.72,388.3012,150.9877,391.4127,155.712,386.6884,158.8234,396.31,156.72" fill="#181818" style="stroke:#181818;stroke-width:1;stroke-linejoin:miter;stroke-miterlimit:10;"/><text x="239.83" y="120.3669" fill="#000000" font-size="13" lengthAdjust="spacing" textLength="184.3423" font-family="sans-serif">obtenerUsuario(id) : Usuario</text></g><!--link EditarUsuarioView to UsuarioController--><g class="link" data-entity-1="ent0003" data-entity-2="ent0004" id="lnk11" data-source-line="20" data-link-type="dependency"><path d="M431.55,77.54 C439.58,98.33 451.1382,128.2559 459.2082,149.1459" style="stroke:#181818;stroke-width:1;" fill="none" id="EditarUsuarioView-to-UsuarioController-1"/><polygon points="461.01,153.81,461.4981,143.9732,459.2082,149.1459,454.0355,146.8561,461.01,153.81" fill="#181818" style="stroke:#181818;stroke-width:1;stroke-linejoin:miter;stroke-miterlimit:10;"/><text x="449.83" y="120.3669" fill="#000000" font-size="13" lengthAdjust="spacing" textLength="276.7515" font-family="sans-serif">validarDatos(nombre, email, rol) : boolean</text></g><!--link EditarUsuarioView to UsuarioController--><g class="link" data-entity-1="ent0003" data-entity-2="ent0004" id="lnk13" data-source-line="24" data-link-type="dependency"><path d="M499.08,71.44 C590.79,85.39 734.83,107.3 734.83,107.3 C734.83,107.3 734.83,124.3 734.83,124.3 C734.83,124.3 623.3939,143.9809 544.3039,157.9409" style="stroke:#181818;stroke-width:1;" fill="none" id="EditarUsuarioView-to-UsuarioController-2"/><polygon points="539.38,158.81,548.9383,161.1847,544.3039,157.9409,547.5477,153.3065,539.38,158.81" fill="#181818" style="stroke:#181818;stroke-width:1;stroke-linejoin:miter;stroke-miterlimit:10;"/><text x="735.83" y="120.3669" fill="#000000" font-size="13" lengthAdjust="spacing" textLength="299.7363" font-family="sans-serif">editarUsuario(id, nombre, email, rol) : Usuario</text></g><!--link UsuarioController to UsuarioRepository--><g class="link" data-entity-1="ent0004" data-entity-2="ent0005" id="lnk9" data-source-line="16" data-link-type="dependency"><path d="M396.31,189.28 C334.43,202.98 254.83,220.6 254.83,220.6 C254.83,220.6 254.83,237.6 254.83,237.6 C254.83,237.6 327.0281,253.5798 388.4481,267.1698" style="stroke:#181818;stroke-width:1;" fill="none" id="UsuarioController-to-UsuarioRepository"/><polygon points="393.33,268.25,385.4067,262.4001,388.4481,267.1698,383.6784,270.2112,393.33,268.25" fill="#181818" style="stroke:#181818;stroke-width:1;stroke-linejoin:miter;stroke-miterlimit:10;"/><text x="255.83" y="233.6669" fill="#000000" font-size="13" lengthAdjust="spacing" textLength="168.1621" font-family="sans-serif">obtenerPorId(id) : Usuario</text></g><!--link UsuarioController to UsuarioRepository--><g class="link" data-entity-1="ent0004" data-entity-2="ent0005" id="lnk12" data-source-line="22" data-link-type="dependency"><path d="M466.71,191 C465.86,204.41 464.83,220.6 464.83,220.6 C464.83,220.6 464.83,237.6 464.83,237.6 C464.83,237.6 465.5437,248.79 466.3937,262.2" style="stroke:#181818;stroke-width:1;" fill="none" id="UsuarioController-to-UsuarioRepository-1"/><polygon points="466.71,267.19,470.1327,257.955,466.3937,262.2,462.1487,258.4611,466.71,267.19" fill="#181818" style="stroke:#181818;stroke-width:1;stroke-linejoin:miter;stroke-miterlimit:10;"/><text x="465.83" y="233.6669" fill="#000000" font-size="13" lengthAdjust="spacing" textLength="240.6333" font-family="sans-serif">verificarUnicidad(email, id) : boolean</text></g><!--link UsuarioController to UsuarioRepository--><g class="link" data-entity-1="ent0004" data-entity-2="ent0005" id="lnk14" data-source-line="26" data-link-type="dependency"><path d="M539.42,187.34 C611.1,201.25 710.83,220.6 710.83,220.6 C710.83,220.6 710.83,237.6 710.83,237.6 C710.83,237.6 618.7285,255.4676 547.2985,269.3276" style="stroke:#181818;stroke-width:1;" fill="none" id="UsuarioController-to-UsuarioRepository-2"/><polygon points="542.39,270.28,551.9871,272.4924,547.2985,269.3276,550.4633,264.6389,542.39,270.28" fill="#181818" style="stroke:#181818;stroke-width:1;stroke-linejoin:miter;stroke-miterlimit:10;"/><text x="711.83" y="233.6669" fill="#000000" font-size="13" lengthAdjust="spacing" textLength="275.8374" font-family="sans-serif">actualizar(id, nombre, email, rol) : Usuario</text></g><!--link UsuarioRepository to Usuario--><g class="link" data-entity-1="ent0005" data-entity-2="ent0006" id="lnk10" data-source-line="18" data-link-type="association"><path d="M467.83,304.22 C467.83,321.42 467.83,347.52 467.83,364.67" style="stroke:#181818;stroke-width:1;" fill="none" id="UsuarioRepository-Usuario"/></g><?plantuml-src bP5DRy8m38Rl-HLMTm69Nj10euT97HHfDpHfkxkDXopIf7834vlstnSOQnbb7-GMv_6RnqczObkXO0c6BVbjHL0vizrjb18gFDgb8RYQphAxT0HHia1B1b9TieKqPnBl8i0QzlLz-L1Lgi9YXKi2qknH7kir2hiT6tshzFeHl2a8w-Y-yN2IpIUG7ODFJ2-dN3xAzVW63iJKMI_E699JRZvCfzVP5_T0bQlPEzd-pgbtfJg3GIpnRTSiWPEfbEem4ElGsf5DmEMUB3MzhFkGD1Agqm1n6zFEqiGidDph7q9QF8IqfsTKpvjkqB16cQ5tTS-wCXSQ09N8PW21sLsPEsS8xGNU6n9-vY88M2v2lEuT4ZzdQ0B_RVdzArWFuBpgvK-CXL-79tX5-Jls0m00?></g></svg>