<svg xmlns="http://www.w3.org/2000/svg" xmlns:xlink="http://www.w3.org/1999/xlink" version="1.1" data-diagram-type="DESCRIPTION" style="width:973px;height:432px;background:#FFFFFF;" width="973px" height="432px" viewBox="0 0 973 432" zoomAndPan="magnify" preserveAspectRatio="none" contentStyleType="text/css"><?plantuml 1.2026.7beta8?><defs/><g font-family="sans-serif" lengthAdjust="spacing"><!--cluster editarUsuario--><g class="cluster" data-qualified-name="editarUsuario" id="ent0002" data-source-line="5"><path d="M263.23,6 L384.823,6 A3.75,3.75 0 0 1 387.323,8.5 L394.323,28.297 L956.23,28.297 A2.5,2.5 0 0 1 958.73,30.797 L958.73,414.69 A2.5,2.5 0 0 1 956.23,417.19 L263.23,417.19 A2.5,2.5 0 0 1 260.73,414.69 L260.73,8.5 A2.5,2.5 0 0 1 263.23,6" style="stroke:#000;stroke-width:1.5;" fill="none"/><line x1="260.73" y1="28.297" x2="394.323" y2="28.297" style="stroke:#000;stroke-width:1.5;"/><text x="264.73" y="20.995" fill="#000" font-size="14" textLength="120.593" font-weight="700">editarUsuario()</text></g><!--entity EditarUsuarioView--><g class="entity" data-qualified-name="editarUsuario.EditarUsuarioView" id="ent0003" data-source-line="6"><rect x="327.64" y="41" width="148.181" height="36.297" fill="#629EF9" style="stroke:#181818;stroke-width:0.5;" rx="2.5" ry="2.5"/><text x="337.64" y="63.995" fill="#000" font-size="14" textLength="128.181">EditarUsuarioView</text></g><!--entity UsuarioController--><g class="entity" data-qualified-name="editarUsuario.UsuarioController" id="ent0004" data-source-line="7"><rect x="340.54" y="154.3" width="142.377" height="36.297" fill="#B5BD68" style="stroke:#181818;stroke-width:0.5;" rx="2.5" ry="2.5"/><text x="350.54" y="177.295" fill="#000" font-size="14" textLength="122.377">UsuarioController</text></g><!--entity UsuarioRepository--><g class="entity" data-qualified-name="editarUsuario.UsuarioRepository" id="ent0005" data-source-line="8"><rect x="348.59" y="267.6" width="148.276" height="36.297" fill="#F2AC4E" style="stroke:#181818;stroke-width:0.5;" rx="2.5" ry="2.5"/><text x="358.59" y="290.595" fill="#000" font-size="14" textLength="128.276">UsuarioRepository</text></g><!--entity Usuario--><g class="entity" data-qualified-name="editarUsuario.Usuario" id="ent0006" data-source-line="9"><rect x="386.12" y="364.89" width="73.204" height="36.297" fill="#F2AC4E" style="stroke:#181818;stroke-width:0.5;" rx="2.5" ry="2.5"/><text x="396.12" y="387.885" fill="#000" font-size="14" textLength="53.204">Usuario</text></g><!--entity UsuarioDetalleAbierto--><g class="entity" data-qualified-name="UsuarioDetalleAbierto" id="ent0001" data-source-line="3"><rect x="7" y="41" width="187.453" height="36.297" fill="#CDEBA5" style="stroke:#181818;stroke-width:0.5;" rx="2.5" ry="2.5"/><text x="17" y="63.995" fill="#000" font-size="14" textLength="167.453">:Usuario Detalle Abierto</text></g><!--link UsuarioDetalleAbierto to EditarUsuarioView--><g class="link" data-entity-1="ent0001" data-entity-2="ent0003" id="lnk7" data-source-line="12" data-link-type="dependency"><path d="M194.73,59.15 C237.51,59.15 282.41,59.15 322.5,59.15" style="stroke:#181818;stroke-width:1;" fill="none" id="UsuarioDetalleAbierto-to-EditarUsuarioView"/><polygon points="327.5,59.15,318.5,55.15,322.5,59.15,318.5,63.15,327.5,59.15" fill="#181818" style="stroke:#181818;stroke-width:1;stroke-linejoin:miter;stroke-miterlimit:10;"/><text x="212.54" y="52.217" fill="#000" font-size="13" textLength="97.817">editarUsuario()</text></g><!--link EditarUsuarioView to UsuarioController--><g class="link" data-entity-1="ent0003" data-entity-2="ent0004" id="lnk8" data-source-line="13" data-link-type="dependency"><path d="M367.1,77.71 C340.66,91.11 308.73,107.3 308.73,107.3 C308.73,107.3 308.73,124.3 308.73,124.3 C308.73,124.3 339.544,138.409 368.824,151.809" style="stroke:#181818;stroke-width:1;" fill="none" id="EditarUsuarioView-to-UsuarioController"/><polygon points="373.37,153.89,366.851,146.508,368.824,151.809,363.522,153.782,373.37,153.89" fill="#181818" style="stroke:#181818;stroke-width:1;stroke-linejoin:miter;stroke-miterlimit:10;"/><text x="309.73" y="120.367" fill="#000" font-size="13" textLength="170.644">obtenerUsuario(usuarioId)</text></g><!--link EditarUsuarioView to UsuarioController--><g class="link" data-entity-1="ent0003" data-entity-2="ent0004" id="lnk11" data-source-line="16" data-link-type="dependency"><path d="M432.63,77.71 C456.23,91.11 484.73,107.3 484.73,107.3 C484.73,107.3 484.73,124.3 484.73,124.3 C484.73,124.3 463.86,137.778 443.11,151.178" style="stroke:#181818;stroke-width:1;" fill="none" id="EditarUsuarioView-to-UsuarioController-1"/><polygon points="438.91,153.89,448.641,152.368,443.11,151.178,444.301,145.647,438.91,153.89" fill="#181818" style="stroke:#181818;stroke-width:1;stroke-linejoin:miter;stroke-miterlimit:10;"/><text x="485.73" y="120.367" fill="#000" font-size="13" textLength="417.301">editarUsuario(usuarioId, nombres, apellidos, correo, rol, estado)</text></g><!--link UsuarioController to UsuarioRepository--><g class="link" data-entity-1="ent0004" data-entity-2="ent0005" id="lnk9" data-source-line="14" data-link-type="dependency"><path d="M380.45,191 C356.57,204.41 327.73,220.6 327.73,220.6 C327.73,220.6 327.73,237.6 327.73,237.6 C327.73,237.6 355.862,251.557 382.872,264.967" style="stroke:#181818;stroke-width:1;" fill="none" id="UsuarioController-to-UsuarioRepository"/><polygon points="387.35,267.19,381.068,259.605,382.872,264.967,377.51,266.771,387.35,267.19" fill="#181818" style="stroke:#181818;stroke-width:1;stroke-linejoin:miter;stroke-miterlimit:10;"/><text x="328.73" y="233.667" fill="#000" font-size="13" textLength="123.735">findById(usuarioId)</text></g><!--link UsuarioController to UsuarioRepository--><g class="link" data-entity-1="ent0004" data-entity-2="ent0005" id="lnk12" data-source-line="17" data-link-type="dependency"><path d="M428.48,191 C441.28,204.41 456.73,220.6 456.73,220.6 C456.73,220.6 456.73,237.6 456.73,237.6 C456.73,237.6 447.972,249.723 438.312,263.133" style="stroke:#181818;stroke-width:1;" fill="none" id="UsuarioController-to-UsuarioRepository-1"/><polygon points="435.39,267.19,443.896,262.225,438.312,263.133,437.405,257.549,435.39,267.19" fill="#181818" style="stroke:#181818;stroke-width:1;stroke-linejoin:miter;stroke-miterlimit:10;"/><text x="457.73" y="233.667" fill="#000" font-size="13" textLength="160.469">update(usuarioId, datos)</text></g><!--link UsuarioRepository to Usuario--><g class="link" data-entity-1="ent0005" data-entity-2="ent0006" id="lnk10" data-source-line="15" data-link-type="association"><path d="M422.73,304.22 C422.73,321.42 422.73,347.52 422.73,364.67" style="stroke:#181818;stroke-width:1;" fill="none" id="UsuarioRepository-Usuario"/></g><?plantuml-src bO_DQiCm48JlUeh5lTHWNq8J6XyAZkD0heNsBblR8A9eXIHJJEcxLwN-YnrAgukqsczsPznPQiCjlu2I6drh40ofzhjWp6BjkJufXBjYN-xoDKJPYskubGHxz5o5Jbv9j9uYu0wwNjVgEemPNf_v2G65zDps0m8VNVtSnn5yC0XdidUpsfQ7BPHJy5NY-vohrfNOFFOE2jBUKl1WvznXbHSFPSyzeo4dFTdsTuvzCdOp7AGsVLgwos2MZ2qGI4LGBlncG9L7ZOEq-RcF8cOB6D9nn1WbWpUfnQuzYXlY4GlY8TxVtLtd6kOdeEbIMNG9S8DAIK7XMPErI0a4SGBeF1VqZnID4TpZT4UeoSLV?></g></svg>