<svg xmlns="http://www.w3.org/2000/svg" xmlns:xlink="http://www.w3.org/1999/xlink" version="1.1" data-diagram-type="DESCRIPTION" style="width:978px;height:432px;background:#FFFFFF;" width="978px" height="432px" viewBox="0 0 978 432" zoomAndPan="magnify" preserveAspectRatio="none" contentStyleType="text/css"><?plantuml 1.2026.7beta3?><defs/><g><!--cluster importarMatriculas--><g class="cluster" data-qualified-name="importarMatriculas" id="ent0002" data-source-line="5"><path d="M326.73,6 L492.1206,6 A3.75,3.75 0 0 1 494.6206,8.5 L501.6206,28.2969 L960.73,28.2969 A2.5,2.5 0 0 1 963.23,30.7969 L963.23,414.69 A2.5,2.5 0 0 1 960.73,417.19 L326.73,417.19 A2.5,2.5 0 0 1 324.23,414.69 L324.23,8.5 A2.5,2.5 0 0 1 326.73,6" style="stroke:#000000;stroke-width:1.5;" fill="none"/><line x1="324.23" y1="28.2969" x2="501.6206" y2="28.2969" style="stroke:#000000;stroke-width:1.5;"/><text x="328.23" y="20.9951" fill="#000000" font-size="14" lengthAdjust="spacing" textLength="164.3906" font-weight="700" font-family="sans-serif">importarMatriculas()</text></g><!--entity ImportarMatriculasView--><g class="entity" data-qualified-name="importarMatriculas.ImportarMatriculasView" id="ent0003" data-source-line="6"><rect x="409" y="41" width="186.4551" height="36.2969" fill="#629EF9" style="stroke:#181818;stroke-width:0.5;" rx="2.5" ry="2.5"/><text x="419" y="63.9951" fill="#000000" font-size="14" lengthAdjust="spacing" textLength="166.4551" font-family="sans-serif">ImportarMatriculasView</text></g><!--entity MatriculaController--><g class="entity" data-qualified-name="importarMatriculas.MatriculaController" id="ent0004" data-source-line="7"><rect x="433.22" y="154.3" width="154.0049" height="36.2969" fill="#B5BD68" style="stroke:#181818;stroke-width:0.5;" rx="2.5" ry="2.5"/><text x="443.22" y="177.2951" fill="#000000" font-size="14" lengthAdjust="spacing" textLength="134.0049" font-family="sans-serif">MatriculaController</text></g><!--entity AlumnoRepository--><g class="entity" data-qualified-name="importarMatriculas.AlumnoRepository" id="ent0005" data-source-line="8"><rect x="339.98" y="267.6" width="148.4883" height="36.2969" fill="#F2AC4E" style="stroke:#181818;stroke-width:0.5;" rx="2.5" ry="2.5"/><text x="349.98" y="290.5951" fill="#000000" font-size="14" lengthAdjust="spacing" textLength="128.4883" font-family="sans-serif">AlumnoRepository</text></g><!--entity MatriculaRepository--><g class="entity" data-qualified-name="importarMatriculas.MatriculaRepository" id="ent0006" data-source-line="9"><rect x="523.27" y="267.6" width="159.9043" height="36.2969" fill="#F2AC4E" style="stroke:#181818;stroke-width:0.5;" rx="2.5" ry="2.5"/><text x="533.27" y="290.5951" fill="#000000" font-size="14" lengthAdjust="spacing" textLength="139.9043" font-family="sans-serif">MatriculaRepository</text></g><!--entity Alumno--><g class="entity" data-qualified-name="importarMatriculas.Alumno" id="ent0007" data-source-line="10"><rect x="377.52" y="364.89" width="73.416" height="36.2969" fill="#F2AC4E" style="stroke:#181818;stroke-width:0.5;" rx="2.5" ry="2.5"/><text x="387.52" y="387.8851" fill="#000000" font-size="14" lengthAdjust="spacing" textLength="53.416" font-family="sans-serif">Alumno</text></g><!--entity Matricula--><g class="entity" data-qualified-name="importarMatriculas.Matricula" id="ent0008" data-source-line="11"><rect x="560.81" y="364.89" width="84.832" height="36.2969" fill="#F2AC4E" style="stroke:#181818;stroke-width:0.5;" rx="2.5" ry="2.5"/><text x="570.81" y="387.8851" fill="#000000" font-size="14" lengthAdjust="spacing" textLength="64.832" font-family="sans-serif">Matricula</text></g><!--entity DashboardSecretariaAbierto--><g class="entity" data-qualified-name="DashboardSecretariaAbierto" id="ent0001" data-source-line="3"><rect x="7" y="41" width="232.4541" height="36.2969" fill="#CDEBA5" style="stroke:#181818;stroke-width:0.5;" rx="2.5" ry="2.5"/><text x="17" y="63.9951" fill="#000000" font-size="14" lengthAdjust="spacing" textLength="212.4541" font-family="sans-serif">:Dashboard Secretaria Abierto</text></g><!--link DashboardSecretariaAbierto to ImportarMatriculasView--><g class="link" data-entity-1="ent0001" data-entity-2="ent0003" id="lnk9" data-source-line="14" data-link-type="dependency"><path d="M239.77,59.15 C294.05,59.15 352.75,59.15 403.81,59.15" style="stroke:#181818;stroke-width:1;" fill="none" id="DashboardSecretariaAbierto-to-ImportarMatriculasView"/><polygon points="408.81,59.15,399.81,55.15,403.81,59.15,399.81,63.15,408.81,59.15" fill="#181818" style="stroke:#181818;stroke-width:1;stroke-linejoin:miter;stroke-miterlimit:10;"/><text x="257.73" y="52.2169" fill="#000000" font-size="13" lengthAdjust="spacing" textLength="133.3516" font-family="sans-serif">importarMatriculas()</text></g><!--link ImportarMatriculasView to MatriculaController--><g class="link" data-entity-1="ent0003" data-entity-2="ent0004" id="lnk10" data-source-line="16" data-link-type="dependency"><path d="M456.43,77.71 C421.46,91.11 379.23,107.3 379.23,107.3 C379.23,107.3 379.23,124.3 379.23,124.3 C379.23,124.3 419.4952,138.7975 456.7452,152.1975" style="stroke:#181818;stroke-width:1;" fill="none" id="ImportarMatriculasView-to-MatriculaController"/><polygon points="461.45,153.89,454.3353,147.0797,456.7452,152.1975,451.6273,154.6074,461.45,153.89" fill="#181818" style="stroke:#181818;stroke-width:1;stroke-linejoin:miter;stroke-miterlimit:10;"/><text x="380.23" y="120.3669" fill="#000000" font-size="13" lengthAdjust="spacing" textLength="216.7153" font-family="sans-serif">validarArchivo(archivo) : Boolean</text></g><!--link ImportarMatriculasView to MatriculaController--><g class="link" data-entity-1="ent0003" data-entity-2="ent0004" id="lnk11" data-source-line="18" data-link-type="dependency"><path d="M539.09,77.71 C567.24,91.11 601.23,107.3 601.23,107.3 C601.23,107.3 601.23,124.3 601.23,124.3 C601.23,124.3 574.4198,138.1903 548.5498,151.5903" style="stroke:#181818;stroke-width:1;" fill="none" id="ImportarMatriculasView-to-MatriculaController-1"/><polygon points="544.11,153.89,553.9413,153.3024,548.5498,151.5903,550.2618,146.1988,544.11,153.89" fill="#181818" style="stroke:#181818;stroke-width:1;stroke-linejoin:miter;stroke-miterlimit:10;"/><text x="602.23" y="120.3669" fill="#000000" font-size="13" lengthAdjust="spacing" textLength="298.6636" font-family="sans-serif">importarMatriculas(archivo) : List&lt;Matricula></text></g><!--link MatriculaController to AlumnoRepository--><g class="link" data-entity-1="ent0004" data-entity-2="ent0005" id="lnk12" data-source-line="20" data-link-type="dependency"><path d="M457.35,191 C416.98,204.41 368.23,220.6 368.23,220.6 C368.23,220.6 368.23,237.6 368.23,237.6 C368.23,237.6 380.5288,250.2007 393.6088,263.6107" style="stroke:#181818;stroke-width:1;" fill="none" id="MatriculaController-to-AlumnoRepository"/><polygon points="397.1,267.19,393.6792,257.9543,393.6088,263.6107,387.9524,263.5402,397.1,267.19" fill="#181818" style="stroke:#181818;stroke-width:1;stroke-linejoin:miter;stroke-miterlimit:10;"/><text x="369.23" y="233.6669" fill="#000000" font-size="13" lengthAdjust="spacing" textLength="186.3735" font-family="sans-serif">obtenerPorDni(dni) : Alumno</text></g><!--link AlumnoRepository to Alumno--><g class="link" data-entity-1="ent0005" data-entity-2="ent0007" id="lnk13" data-source-line="22" data-link-type="association"><path d="M414.23,304.22 C414.23,321.42 414.23,347.52 414.23,364.67" style="stroke:#181818;stroke-width:1;" fill="none" id="AlumnoRepository-Alumno"/></g><!--link MatriculaController to MatriculaRepository--><g class="link" data-entity-1="ent0004" data-entity-2="ent0006" id="lnk14" data-source-line="24" data-link-type="dependency"><path d="M530.33,191 C545.69,204.41 564.23,220.6 564.23,220.6 C564.23,220.6 578.4228,243.9475 589.9728,262.9475" style="stroke:#181818;stroke-width:1;" fill="none" id="MatriculaController-to-MatriculaRepository"/><polygon points="592.57,267.22,591.313,257.4517,589.9728,262.9475,584.477,261.6073,592.57,267.22" fill="#181818" style="stroke:#181818;stroke-width:1;stroke-linejoin:miter;stroke-miterlimit:10;"/><text x="574.23" y="233.6669" fill="#000000" font-size="13" lengthAdjust="spacing" textLength="342.291" font-family="sans-serif">crearOActualizar(alumnoId, asignaturaId) : Matricula</text></g><!--link MatriculaRepository to Matricula--><g class="link" data-entity-1="ent0006" data-entity-2="ent0008" id="lnk15" data-source-line="26" data-link-type="association"><path d="M603.23,304.22 C603.23,321.42 603.23,347.52 603.23,364.67" style="stroke:#181818;stroke-width:1;" fill="none" id="MatriculaRepository-Matricula"/></g><?plantuml-src XP9VQy8m5CNVyoaktKk5-I9JPXb2_GV2niO6UxzjWWPZRhbD7MxikozLwQIc60gXEIU_Utjkowss1JBkm6YhtA5GK90vr2z2iCeTshLHS3URBwRf4A9aZkKc8sG97ofdvP0rGfffnOuYm18Qmxz-beKeCD_YMe7U5SHUUa77Eg-Cl-QVwFeuxaNm8y2lYrv6W_5YEORLbVjJgw-sEHjcSlG8ZMb6rZ4PexZjN0xIsSC2KbFjBBshWahjY0yTjWPuqta2tiA8No6weuC-zoSTNvn0A3SXmcxeIqyAn9707esMo2dd6xsd64zx3nAO4Xc5jflPXGnqTe5zrgLxQgI94076aTsUIGAKEMKLln7FhOwbrJNldBHespsZqRfA1EQPW9y2yckQkyf7yuqSuv6oalV-VzLhYwvYNCcwzlyWHG1LTz0S_m40?></g></svg>