<svg xmlns="http://www.w3.org/2000/svg" xmlns:xlink="http://www.w3.org/1999/xlink" version="1.1" data-diagram-type="DESCRIPTION" style="width:1177px;height:432px;background:#FFFFFF;" width="1177px" height="432px" viewBox="0 0 1177 432" zoomAndPan="magnify" preserveAspectRatio="none" contentStyleType="text/css"><?plantuml 1.2026.7beta3?><defs/><g><!--cluster consultarDetalleMatricula--><g class="cluster" data-qualified-name="consultarDetalleMatricula" id="ent0002" data-source-line="5"><path d="M257.73,6 L476.188,6 A3.75,3.75 0 0 1 478.688,8.5 L485.688,28.2969 L1159.73,28.2969 A2.5,2.5 0 0 1 1162.23,30.7969 L1162.23,414.69 A2.5,2.5 0 0 1 1159.73,417.19 L257.73,417.19 A2.5,2.5 0 0 1 255.23,414.69 L255.23,8.5 A2.5,2.5 0 0 1 257.73,6" style="stroke:#000000;stroke-width:1.5;" fill="none"/><line x1="255.23" y1="28.2969" x2="485.688" y2="28.2969" style="stroke:#000000;stroke-width:1.5;"/><text x="259.23" y="20.9951" fill="#000000" font-size="14" lengthAdjust="spacing" textLength="217.458" font-weight="700" font-family="sans-serif">consultarDetalleMatricula()</text></g><!--entity ConsultarDetalleMatriculaView--><g class="entity" data-qualified-name="consultarDetalleMatricula.ConsultarDetalleMatriculaView" id="ent0003" data-source-line="6"><rect x="475.57" y="41" width="235.3115" height="36.2969" fill="#629EF9" style="stroke:#181818;stroke-width:0.5;" rx="2.5" ry="2.5"/><text x="485.57" y="63.9951" fill="#000000" font-size="14" lengthAdjust="spacing" textLength="215.3115" font-family="sans-serif">ConsultarDetalleMatriculaView</text></g><!--entity MatriculaController--><g class="entity" data-qualified-name="consultarDetalleMatricula.MatriculaController" id="ent0004" data-source-line="7"><rect x="539.22" y="154.3" width="154.0049" height="36.2969" fill="#B5BD68" style="stroke:#181818;stroke-width:0.5;" rx="2.5" ry="2.5"/><text x="549.22" y="177.2951" fill="#000000" font-size="14" lengthAdjust="spacing" textLength="134.0049" font-family="sans-serif">MatriculaController</text></g><!--entity MatriculaRepository--><g class="entity" data-qualified-name="consultarDetalleMatricula.MatriculaRepository" id="ent0005" data-source-line="8"><rect x="404.27" y="267.6" width="159.9043" height="36.2969" fill="#F2AC4E" style="stroke:#181818;stroke-width:0.5;" rx="2.5" ry="2.5"/><text x="414.27" y="290.5951" fill="#000000" font-size="14" lengthAdjust="spacing" textLength="139.9043" font-family="sans-serif">MatriculaRepository</text></g><!--entity AlumnoRepository--><g class="entity" data-qualified-name="consultarDetalleMatricula.AlumnoRepository" id="ent0006" data-source-line="9"><rect x="823.98" y="267.6" width="148.4883" height="36.2969" fill="#F2AC4E" style="stroke:#181818;stroke-width:0.5;" rx="2.5" ry="2.5"/><text x="833.98" y="290.5951" fill="#000000" font-size="14" lengthAdjust="spacing" textLength="128.4883" font-family="sans-serif">AlumnoRepository</text></g><!--entity Matricula--><g class="entity" data-qualified-name="consultarDetalleMatricula.Matricula" id="ent0007" data-source-line="10"><rect x="441.81" y="364.89" width="84.832" height="36.2969" fill="#F2AC4E" style="stroke:#181818;stroke-width:0.5;" rx="2.5" ry="2.5"/><text x="451.81" y="387.8851" fill="#000000" font-size="14" lengthAdjust="spacing" textLength="64.832" font-family="sans-serif">Matricula</text></g><!--entity Alumno--><g class="entity" data-qualified-name="consultarDetalleMatricula.Alumno" id="ent0008" data-source-line="11"><rect x="861.52" y="364.89" width="73.416" height="36.2969" fill="#F2AC4E" style="stroke:#181818;stroke-width:0.5;" rx="2.5" ry="2.5"/><text x="871.52" y="387.8851" fill="#000000" font-size="14" lengthAdjust="spacing" textLength="53.416" font-family="sans-serif">Alumno</text></g><!--entity DashboardSecretariaAbierto--><g class="entity" data-qualified-name="DashboardSecretariaAbierto" id="ent0001" data-source-line="3"><rect x="7" y="41" width="232.4541" height="36.2969" fill="#CDEBA5" style="stroke:#181818;stroke-width:0.5;" rx="2.5" ry="2.5"/><text x="17" y="63.9951" fill="#000000" font-size="14" lengthAdjust="spacing" textLength="212.4541" font-family="sans-serif">:Dashboard Secretaria Abierto</text></g><!--link DashboardSecretariaAbierto to ConsultarDetalleMatriculaView--><g class="link" data-entity-1="ent0001" data-entity-2="ent0003" id="lnk9" data-source-line="14" data-link-type="dependency"><path d="M239.71,59.15 C311.48,59.15 398.22,59.15 470.27,59.15" style="stroke:#181818;stroke-width:1;" fill="none" id="DashboardSecretariaAbierto-to-ConsultarDetalleMatriculaView"/><polygon points="475.27,59.15,466.27,55.15,470.27,59.15,466.27,63.15,475.27,59.15" fill="#181818" style="stroke:#181818;stroke-width:1;stroke-linejoin:miter;stroke-miterlimit:10;"/><text x="269.01" y="52.2169" fill="#000000" font-size="13" lengthAdjust="spacing" textLength="177.0107" font-family="sans-serif">consultarDetalleMatricula()</text></g><!--link ConsultarDetalleMatriculaView to MatriculaController--><g class="link" data-entity-1="ent0003" data-entity-2="ent0004" id="lnk10" data-source-line="16" data-link-type="dependency"><path d="M484.83,77.77 C402.46,91.17 303.23,107.3 303.23,107.3 C303.23,107.3 303.23,124.3 303.23,124.3 C303.23,124.3 441.2258,145.0854 533.9158,159.0454" style="stroke:#181818;stroke-width:1;" fill="none" id="ConsultarDetalleMatriculaView-to-MatriculaController"/><polygon points="538.86,159.79,530.5561,154.4942,533.9158,159.0454,529.3647,162.405,538.86,159.79" fill="#181818" style="stroke:#181818;stroke-width:1;stroke-linejoin:miter;stroke-miterlimit:10;"/><text x="304.23" y="120.3669" fill="#000000" font-size="13" lengthAdjust="spacing" textLength="268.3916" font-family="sans-serif">buscarMatriculas(filtro) : List&lt;Matricula></text></g><!--link ConsultarDetalleMatriculaView to MatriculaController--><g class="link" data-entity-1="ent0003" data-entity-2="ent0004" id="lnk13" data-source-line="22" data-link-type="dependency"><path d="M596.82,77.54 C601.12,98.33 607.2474,128.0236 611.5674,148.9136" style="stroke:#181818;stroke-width:1;" fill="none" id="ConsultarDetalleMatriculaView-to-MatriculaController-1"/><polygon points="612.58,153.81,614.6745,144.1864,611.5674,148.9136,606.8403,145.8065,612.58,153.81" fill="#181818" style="stroke:#181818;stroke-width:1;stroke-linejoin:miter;stroke-miterlimit:10;"/><text x="606.23" y="120.3669" fill="#000000" font-size="13" lengthAdjust="spacing" textLength="253.8999" font-family="sans-serif">obtenerDetalle(matriculaId) : Matricula</text></g><!--link ConsultarDetalleMatriculaView to MatriculaController--><g class="link" data-entity-1="ent0003" data-entity-2="ent0004" id="lnk15" data-source-line="26" data-link-type="dependency"><path d="M696.02,77.77 C774.13,91.17 868.23,107.3 868.23,107.3 C868.23,107.3 868.23,124.3 868.23,124.3 C868.23,124.3 772.5347,142.2004 698.4647,156.0604" style="stroke:#181818;stroke-width:1;" fill="none" id="ConsultarDetalleMatriculaView-to-MatriculaController-2"/><polygon points="693.55,156.98,703.1322,159.2564,698.4647,156.0604,701.6607,151.3929,693.55,156.98" fill="#181818" style="stroke:#181818;stroke-width:1;stroke-linejoin:miter;stroke-miterlimit:10;"/><text x="869.23" y="120.3669" fill="#000000" font-size="13" lengthAdjust="spacing" textLength="233.6318" font-family="sans-serif">obtenerAlumno(alumnoId) : Alumno</text></g><!--link MatriculaController to MatriculaRepository--><g class="link" data-entity-1="ent0004" data-entity-2="ent0005" id="lnk11" data-source-line="18" data-link-type="dependency"><path d="M538.97,185.59 C450.08,199.56 316.23,220.6 316.23,220.6 C316.23,220.6 316.23,237.6 316.23,237.6 C316.23,237.6 369.0962,252.4284 416.8562,265.8384" style="stroke:#181818;stroke-width:1;" fill="none" id="MatriculaController-to-MatriculaRepository"/><polygon points="421.67,267.19,414.0864,260.906,416.8562,265.8384,411.9238,268.6081,421.67,267.19" fill="#181818" style="stroke:#181818;stroke-width:1;stroke-linejoin:miter;stroke-miterlimit:10;"/><text x="317.23" y="233.6669" fill="#000000" font-size="13" lengthAdjust="spacing" textLength="255.6519" font-family="sans-serif">buscarPorFiltro(filtro) : List&lt;Matricula></text></g><!--link MatriculaController to MatriculaRepository--><g class="link" data-entity-1="ent0004" data-entity-2="ent0005" id="lnk14" data-source-line="24" data-link-type="dependency"><path d="M605.57,190.98 C594.02,209.97 577.23,237.6 577.23,237.6 C577.23,237.6 549.7592,251.5183 523.3192,264.9283" style="stroke:#181818;stroke-width:1;" fill="none" id="MatriculaController-to-MatriculaRepository-1"/><polygon points="518.86,267.19,528.696,266.6864,523.3192,264.9283,525.0773,259.5516,518.86,267.19" fill="#181818" style="stroke:#181818;stroke-width:1;stroke-linejoin:miter;stroke-miterlimit:10;"/><text x="587.23" y="233.6669" fill="#000000" font-size="13" lengthAdjust="spacing" textLength="240.8301" font-family="sans-serif">obtenerPorId(matriculaId) : Matricula</text></g><!--link MatriculaRepository to Matricula--><g class="link" data-entity-1="ent0005" data-entity-2="ent0007" id="lnk12" data-source-line="20" data-link-type="association"><path d="M484.23,304.22 C484.23,321.42 484.23,347.52 484.23,364.67" style="stroke:#181818;stroke-width:1;" fill="none" id="MatriculaRepository-Matricula"/></g><!--link MatriculaController to AlumnoRepository--><g class="link" data-entity-1="ent0004" data-entity-2="ent0006" id="lnk16" data-source-line="28" data-link-type="dependency"><path d="M693.48,190 C756.87,203.59 836.23,220.6 836.23,220.6 C836.23,220.6 859.4555,244.6244 877.8155,263.6244" style="stroke:#181818;stroke-width:1;" fill="none" id="MatriculaController-to-AlumnoRepository"/><polygon points="881.29,267.22,877.9124,257.9684,877.8155,263.6244,872.1595,263.5275,881.29,267.22" fill="#181818" style="stroke:#181818;stroke-width:1;stroke-linejoin:miter;stroke-miterlimit:10;"/><text x="851.23" y="233.6669" fill="#000000" font-size="13" lengthAdjust="spacing" textLength="217.2549" font-family="sans-serif">obtenerPorId(alumnoId) : Alumno</text></g><!--link AlumnoRepository to Alumno--><g class="link" data-entity-1="ent0006" data-entity-2="ent0008" id="lnk17" data-source-line="30" data-link-type="association"><path d="M898.23,304.22 C898.23,321.42 898.23,347.52 898.23,364.67" style="stroke:#181818;stroke-width:1;" fill="none" id="AlumnoRepository-Alumno"/></g><?plantuml-src fPBDQuD04CNl-rSCzc8ENa8J6Ya1cmy8j51Qw7tKQRfauyhiIWcb_tlNVAY8cfPw4Ntl_PXvZDd9B4V6FIYPaJta1BbMX_932AR4OhPL13UBvUeXce0NBj5yn1evXLTAc2ooH8XYIMor1sYWCjJwMHOYnsI7Mu94PwPGJbiwWrBqX9PbKYWi0Lwlweyy-1BWdiPaq_5ijPx1eY_q9kcpdOadSJgzWyhZmfQrIt7RkHv7YzjLxNoXN1jfDHzwd94gzfc-Qgk0WnZnBKH_dn1mC1zUF8I1CeKOp4AGEdn7Ho74XKcGAyduxr8vSGGXF4fZxojbBaG7088ckExg0dxMl3u2VyMjyuxRAFRQTdtBwTXIHfUGlxzuDcavHuF_fytELBVQ9XrW_c_cqzNuU7oTsET3wXssVQ-jIRjGxKXP--dV3m00?></g></svg>