<svg xmlns="http://www.w3.org/2000/svg" xmlns:xlink="http://www.w3.org/1999/xlink" version="1.1" data-diagram-type="DESCRIPTION" style="width:726px;height:432px;background:#FFFFFF;" width="726px" height="432px" viewBox="0 0 726 432" zoomAndPan="magnify" preserveAspectRatio="none" contentStyleType="text/css"><?plantuml 1.2026.7beta8?><defs/><g font-family="sans-serif" lengthAdjust="spacing"><!--cluster consultarDetalleMatricula--><g class="cluster" data-qualified-name="consultarDetalleMatricula" id="ent0002" data-source-line="5"><path d="M358.54,6 L576.998,6 A3.75,3.75 0 0 1 579.498,8.5 L586.498,28.297 L659.54,28.297 A2.5,2.5 0 0 1 662.04,30.797 L662.04,414.69 A2.5,2.5 0 0 1 659.54,417.19 L358.54,417.19 A2.5,2.5 0 0 1 356.04,414.69 L356.04,8.5 A2.5,2.5 0 0 1 358.54,6" style="stroke:#000;stroke-width:1.5;" fill="none"/><line x1="356.04" y1="28.297" x2="586.498" y2="28.297" style="stroke:#000;stroke-width:1.5;"/><text x="360.04" y="20.995" fill="#000" font-size="14" textLength="217.458" font-weight="700">consultarDetalleMatricula()</text></g><!--entity ConsultarDetalleMatriculaView--><g class="entity" data-qualified-name="consultarDetalleMatricula.ConsultarDetalleMatriculaView" id="ent0003" data-source-line="6"><rect x="372.38" y="41" width="235.312" height="36.297" fill="#629EF9" style="stroke:#181818;stroke-width:0.5;" rx="2.5" ry="2.5"/><text x="382.38" y="63.995" fill="#000" font-size="14" textLength="215.312">ConsultarDetalleMatriculaView</text></g><!--entity MatriculaController--><g class="entity" data-qualified-name="consultarDetalleMatricula.MatriculaController" id="ent0004" data-source-line="7"><rect x="373.03" y="154.3" width="154.005" height="36.297" fill="#B5BD68" style="stroke:#181818;stroke-width:0.5;" rx="2.5" ry="2.5"/><text x="383.03" y="177.295" fill="#000" font-size="14" textLength="134.005">MatriculaController</text></g><!--entity MatriculaRepository--><g class="entity" data-qualified-name="consultarDetalleMatricula.MatriculaRepository" id="ent0005" data-source-line="8"><rect x="372.08" y="267.6" width="159.904" height="36.297" fill="#F2AC4E" style="stroke:#181818;stroke-width:0.5;" rx="2.5" ry="2.5"/><text x="382.08" y="290.595" fill="#000" font-size="14" textLength="139.904">MatriculaRepository</text></g><!--entity Matricula--><g class="entity" data-qualified-name="consultarDetalleMatricula.Matricula" id="ent0006" data-source-line="9"><rect x="409.62" y="364.89" width="84.832" height="36.297" fill="#F2AC4E" style="stroke:#181818;stroke-width:0.5;" rx="2.5" ry="2.5"/><text x="419.62" y="387.885" fill="#000" font-size="14" textLength="64.832">Matricula</text></g><!--entity MatriculasAbierto--><g class="entity" data-qualified-name="MatriculasAbierto" id="ent0001" data-source-line="3"><rect x="7" y="41" width="152.07" height="36.297" fill="#CDEBA5" style="stroke:#181818;stroke-width:0.5;" rx="2.5" ry="2.5"/><text x="17" y="63.995" fill="#000" font-size="14" textLength="132.07">:Matriculas Abierto</text></g><!--link MatriculasAbierto to ConsultarDetalleMatriculaView--><g class="link" data-entity-1="ent0001" data-entity-2="ent0003" id="lnk7" data-source-line="12" data-link-type="dependency"><path d="M159.11,59.15 C218.93,59.15 298.33,59.15 366.93,59.15" style="stroke:#181818;stroke-width:1;" fill="none" id="MatriculasAbierto-to-ConsultarDetalleMatriculaView"/><polygon points="371.93,59.15,362.93,55.15,366.93,59.15,362.93,63.15,371.93,59.15" fill="#181818" style="stroke:#181818;stroke-width:1;stroke-linejoin:miter;stroke-miterlimit:10;"/><text x="177.22" y="52.217" fill="#000" font-size="13" textLength="177.011">consultarDetalleMatricula()</text></g><!--link ConsultarDetalleMatriculaView to MatriculaController--><g class="link" data-entity-1="ent0003" data-entity-2="ent0004" id="lnk8" data-source-line="13" data-link-type="dependency"><path d="M483.79,77.54 C476.31,98.33 465.572,128.215 458.062,149.105" style="stroke:#181818;stroke-width:1;" fill="none" id="ConsultarDetalleMatriculaView-to-MatriculaController"/><polygon points="456.37,153.81,463.179,146.694,458.062,149.105,455.651,143.987,456.37,153.81" fill="#181818" style="stroke:#181818;stroke-width:1;stroke-linejoin:miter;stroke-miterlimit:10;"/><text x="473.04" y="120.367" fill="#000" font-size="13" textLength="237.771">consultarDetalleMatricula(alumnoId)</text></g><!--link MatriculaController to MatriculaRepository--><g class="link" data-entity-1="ent0004" data-entity-2="ent0005" id="lnk9" data-source-line="14" data-link-type="dependency"><path d="M450.35,190.84 C450.72,211.62 451.249,241.211 451.629,262.111" style="stroke:#181818;stroke-width:1;" fill="none" id="MatriculaController-to-MatriculaRepository"/><polygon points="451.72,267.11,455.556,258.039,451.629,262.111,447.557,258.184,451.72,267.11" fill="#181818" style="stroke:#181818;stroke-width:1;stroke-linejoin:miter;stroke-miterlimit:10;"/><text x="452.04" y="233.667" fill="#000" font-size="13" textLength="161.795">findByAlumno(alumnoId)</text></g><!--link MatriculaRepository to Matricula--><g class="link" data-entity-1="ent0005" data-entity-2="ent0006" id="lnk10" data-source-line="15" data-link-type="association"><path d="M452.04,304.22 C452.04,321.42 452.04,347.52 452.04,364.67" style="stroke:#181818;stroke-width:1;" fill="none" id="MatriculaRepository-Matricula"/></g><?plantuml-src XP0nRy8m48Nt-nMdiC2G1G4g6Ig542I6BXswNv8hiZ2sTN648jJ_Zgcg6j6GUhBltlVqdjkZCew4JgYLOTyxHcTrVti02DUUp44pJefjkScNc6Hlv4NLdQOMyqgnU9jWkCVnpnJ0KNsa0sDjJTjfJx9bJrhph_J69K-tqrc25y1mxcAivkjojyRY6VIX-Fp8LCkgMRt4X07sOWCbZyhTF2yMPLI-ixEjybRw_vJm1V3d2p2Lz7KyQuOZ_M4KnRG9xWEjnZn9ToTZzyqC1a1CxmrZ-Gm_bMasVVuD3tb4RV285bS0?></g></svg>