<svg xmlns="http://www.w3.org/2000/svg" xmlns:xlink="http://www.w3.org/1999/xlink" contentStyleType="text/css" data-diagram-type="DESCRIPTION" height="435px" preserveAspectRatio="none" style="width:925px;height:435px;background:#FFFFFF;" version="1.1" viewBox="0 0 925 435" width="925px" zoomAndPan="magnify"><?plantuml 1.2026.5?><defs/><g><!--cluster exportarDispensas--><g class="cluster" data-qualified-name="exportarDispensas" data-source-line="7" id="ent0004"><path d="M8.5,106.3 L170.7598,106.3 A3.75,3.75 0 0 1 173.2598,108.8 L180.2598,128.5969 L305.5,128.5969 A2.5,2.5 0 0 1 308,131.0969 L308,417.69 A2.5,2.5 0 0 1 305.5,420.19 L8.5,420.19 A2.5,2.5 0 0 1 6,417.69 L6,108.8 A2.5,2.5 0 0 1 8.5,106.3" fill="none" style="stroke:#000000;stroke-width:1.5;"/><line style="stroke:#000000;stroke-width:1.5;" x1="6" x2="180.2598" y1="128.5969" y2="128.5969"/><text fill="#000000" font-family="sans-serif" font-size="14" font-weight="700" lengthAdjust="spacing" textLength="161.2598" x="10" y="121.2951">exportarDispensas()</text></g><!--entity ExportarDispensasView--><g class="entity" data-qualified-name="exportarDispensas.ExportarDispensasView" data-source-line="8" id="ent0005"><rect fill="#629EF9" height="36.2969" rx="2.5" ry="2.5" style="stroke:#181818;stroke-width:0.5;" width="185.1973" x="106.4" y="141.3"/><text fill="#000000" font-family="sans-serif" font-size="14" lengthAdjust="spacing" textLength="165.1973" x="116.4" y="164.2951">ExportarDispensasView</text></g><!--entity ReporteController--><g class="entity" data-qualified-name="exportarDispensas.ReporteController" data-source-line="9" id="ent0006"><rect fill="#B5BD68" height="36.2969" rx="2.5" ry="2.5" style="stroke:#181818;stroke-width:0.5;" width="144.8242" x="21.59" y="254.6"/><text fill="#000000" font-family="sans-serif" font-size="14" lengthAdjust="spacing" textLength="124.8242" x="31.59" y="277.5951">ReporteController</text></g><!--entity SolicitudDispensaRepository--><g class="entity" data-qualified-name="exportarDispensas.SolicitudDispensaRepository" data-source-line="10" id="ent0007"><rect fill="#F2AC4E" height="36.2969" rx="2.5" ry="2.5" style="stroke:#181818;stroke-width:0.5;" width="219.3496" x="22.33" y="367.89"/><text fill="#000000" font-family="sans-serif" font-size="14" lengthAdjust="spacing" textLength="199.3496" x="32.33" y="390.8851">SolicitudDispensaRepository</text></g><!--entity PanelSecretaria--><g class="entity" data-qualified-name="PanelSecretaria" data-source-line="3" id="ent0001"><rect fill="#CDEBA5" height="36.2969" rx="2.5" ry="2.5" style="stroke:#181818;stroke-width:0.5;" width="164.498" x="116.75" y="7"/><text fill="#000000" font-family="sans-serif" font-size="14" lengthAdjust="spacing" textLength="144.498" x="126.75" y="29.9951">:PANEL_SECRETARIA</text></g><!--entity ReporteDescargado--><g class="entity" data-qualified-name="ReporteDescargado" data-source-line="4" id="ent0002"><rect fill="#CDEBA5" height="36.2969" rx="2.5" ry="2.5" style="stroke:#181818;stroke-width:0.5;" width="282.6025" x="323.7" y="254.6"/><text fill="#000000" font-family="sans-serif" font-size="14" lengthAdjust="spacing" textLength="262.6025" x="333.7" y="277.5951">:REPORTE_DISPENSAS_DESCARGADO</text></g><!--entity CompletarGestion--><g class="entity" data-qualified-name="CompletarGestion" data-source-line="5" id="ent0003"><rect fill="#CDEBA5" height="36.2969" rx="2.5" ry="2.5" style="stroke:#181818;stroke-width:0.5;" width="249.2363" x="641.38" y="254.6"/><text fill="#000000" font-family="sans-serif" font-size="14" lengthAdjust="spacing" textLength="229.2363" x="651.38" y="277.5951">:Collaboration CompletarGestion</text></g><!--link PanelSecretaria to ExportarDispensasView--><g class="link" data-entity-1="ent0001" data-entity-2="ent0005" data-link-type="dependency" data-source-line="13" id="lnk8"><path d="M199,43.72 C199,69.02 199,110.46 199,135.81" fill="none" id="PanelSecretaria-to-ExportarDispensasView" style="stroke:#181818;stroke-width:1;"/><polygon fill="#181818" points="199,140.81,203,131.81,199,135.81,195,131.81,199,140.81" style="stroke:#181818;stroke-width:1;stroke-linejoin:miter;stroke-miterlimit:10;"/><text fill="#000000" font-family="sans-serif" font-size="13" lengthAdjust="spacing" textLength="132.1899" x="200" y="86.3669">exportarDispensas()</text></g><!--link ExportarDispensasView to ReporteController--><g class="link" data-entity-1="ent0005" data-entity-2="ent0006" data-link-type="dependency" data-source-line="15" id="lnk9"><path d="M182.59,177.84 C162.98,198.62 133.7805,229.5724 114.0705,250.4724" fill="none" id="ExportarDispensasView-to-ReporteController" style="stroke:#181818;stroke-width:1;"/><polygon fill="#181818" points="110.64,254.11,119.7249,250.3067,114.0705,250.4724,113.9048,244.818,110.64,254.11" style="stroke:#181818;stroke-width:1;stroke-linejoin:miter;stroke-miterlimit:10;"/><text fill="#000000" font-family="sans-serif" font-size="13" lengthAdjust="spacing" textLength="233.873" x="154" y="220.6669">estructurarFicheroDispensas(filtros)</text></g><!--link ReporteController to SolicitudDispensaRepository--><g class="link" data-entity-1="ent0006" data-entity-2="ent0007" data-link-type="dependency" data-source-line="16" id="lnk10"><path d="M99.94,291.13 C107.03,311.92 117.2236,341.7785 124.3636,362.6785" fill="none" id="ReporteController-to-SolicitudDispensaRepository" style="stroke:#181818;stroke-width:1;"/><polygon fill="#181818" points="125.98,367.41,126.8557,357.6001,124.3636,362.6785,119.2852,360.1864,125.98,367.41" style="stroke:#181818;stroke-width:1;stroke-linejoin:miter;stroke-miterlimit:10;"/><text fill="#000000" font-family="sans-serif" font-size="13" lengthAdjust="spacing" textLength="217.0518" x="117" y="333.9569">extraerDispensasFiltradas(filtros)</text></g><!--link ExportarDispensasView to ReporteDescargado--><g class="link" data-entity-1="ent0005" data-entity-2="ent0002" data-link-type="dependency" data-source-line="18" id="lnk11"><path d="M272.64,178.07 C328.59,191.46 396,207.6 396,207.6 C396,207.6 422.0587,231.8149 442.4887,250.8149" fill="none" id="ExportarDispensasView-to-ReporteDescargado" style="stroke:#181818;stroke-width:1;stroke-dasharray:7,7;"/><polygon fill="#181818" points="446.15,254.22,442.2836,245.1618,442.4887,250.8149,436.8355,251.0199,446.15,254.22" style="stroke:#181818;stroke-width:1;stroke-linejoin:miter;stroke-miterlimit:10;"/><text fill="#000000" font-family="sans-serif" font-size="13" lengthAdjust="spacing" textLength="109.6367" x="414" y="220.6669">&#171;include&#187; [&#233;xito]</text></g><!--link ExportarDispensasView to CompletarGestion--><g class="link" data-entity-1="ent0005" data-entity-2="ent0003" data-link-type="dependency" data-source-line="19" id="lnk12"><path d="M291.76,173.58 C390.29,187.53 532,207.6 532,207.6 C532,207.6 627.6579,233.8181 696.9279,252.8081" fill="none" id="ExportarDispensasView-to-CompletarGestion" style="stroke:#181818;stroke-width:1;stroke-dasharray:7,7;"/><polygon fill="#181818" points="701.75,254.13,694.1278,247.8928,696.9279,252.8081,692.0127,255.6082,701.75,254.13" style="stroke:#181818;stroke-width:1;stroke-linejoin:miter;stroke-miterlimit:10;"/><text fill="#000000" font-family="sans-serif" font-size="13" lengthAdjust="spacing" textLength="320.7344" x="589" y="220.6669">&#171;include&#187; completarGestion() [cancelaci&#243;n/error]</text></g><?plantuml-src VPB1IiD048Rl-nH3lRI7LYWgMaeX9biHH4iYNaefqyrO5zVTCBj5Y_X0dds4lfX9GQffRCWbi_zyyqrO_wnjWOmlOBIbi2u82cVMrOSGJ2gWNHg2epYHbz4fj0QJw5RUp3CPf_8-Ig-Z5g272Leo6IccWAoniJ6LaxlqNiwJwsmYRxCecoSoYwFqAahkjf2K2iU14l8AUOcvQyJ4pXXSECQWdONOlHIc6df5lYfiGVMY40MgPrmIq5ir0ZdHlY3hospvjlQgxKuBtWMKpo-3i_w575-0h8SVDBtMiulJHNvs_hDHx6pWKfkudXlte_X4GkQCLZgiyXzerUXrSBmM7qBK_YvqkwDcZG4qh294OnQwUOdPComHFl1AXHKZZxLw8dOxsACsPSvtn5xVLkh07fLQOAITnBXYOVwR-ezfhpVQlnm360wrLMQLqsW4qytdMpbdTe1GlnL_0Qfsskx0LA5LP53fpPSz9cR7isy0?></g></svg>