<svg xmlns="http://www.w3.org/2000/svg" xmlns:xlink="http://www.w3.org/1999/xlink" contentStyleType="text/css" data-diagram-type="STATE" height="795px" preserveAspectRatio="none" style="width:809px;height:795px;background:#FFFFFF;" version="1.1" viewBox="0 0 809 795" width="809px" zoomAndPan="magnify"><?plantuml 1.2026.4beta2?><defs/><g><g class="title" data-source-line="2"><text fill="#000000" font-family="sans-serif" font-size="14" font-weight="700" lengthAdjust="spacing" textLength="250.0381" x="276.4159" y="22.9951">Diagrama de Estados: Dispensa</text></g><g class="start_entity" data-qualified-name=".start." data-source-line="4" id="ent0002"><ellipse cx="51.18" cy="53.2969" fill="#222222" rx="10" ry="10" style="stroke:#222222;stroke-width:1;"/></g><g class="entity" data-qualified-name="Solicitada" id="ent0003"><rect fill="#F1F1F1" height="50" rx="12.5" ry="12.5" style="stroke:#181818;stroke-width:0.5;" width="88.3525" x="7" y="140.2969"/><line style="stroke:#181818;stroke-width:0.5;" x1="7" x2="95.3525" y1="166.5938" y2="166.5938"/><text fill="#000000" font-family="sans-serif" font-size="14" lengthAdjust="spacing" textLength="68.3525" x="17" y="158.292">Solicitada</text></g><g class="entity" data-qualified-name="Aprobada" id="ent0007"><rect fill="#F1F1F1" height="50" rx="12.5" ry="12.5" style="stroke:#181818;stroke-width:0.5;" width="87.7168" x="241.32" y="521.2969"/><line style="stroke:#181818;stroke-width:0.5;" x1="241.32" x2="329.0368" y1="547.5938" y2="547.5938"/><text fill="#000000" font-family="sans-serif" font-size="14" lengthAdjust="spacing" textLength="67.7168" x="251.32" y="539.292">Aprobada</text></g><g class="entity" data-qualified-name="Rechazada" id="ent0009"><rect fill="#F1F1F1" height="50" rx="12.5" ry="12.5" style="stroke:#181818;stroke-width:0.5;" width="96.8838" x="291.73" y="267.2969"/><line style="stroke:#181818;stroke-width:0.5;" x1="291.73" x2="388.6138" y1="293.5938" y2="293.5938"/><text fill="#000000" font-family="sans-serif" font-size="14" lengthAdjust="spacing" textLength="76.8838" x="301.73" y="285.292">Rechazada</text></g><g class="entity" data-qualified-name="Cerrada" id="ent0012"><rect fill="#F1F1F1" height="50" rx="12.5" ry="12.5" style="stroke:#181818;stroke-width:0.5;" width="75.9453" x="403.2" y="648.2969"/><line style="stroke:#181818;stroke-width:0.5;" x1="403.2" x2="479.1453" y1="674.5938" y2="674.5938"/><text fill="#000000" font-family="sans-serif" font-size="14" lengthAdjust="spacing" textLength="55.9453" x="413.2" y="666.292">Cerrada</text></g><g class="entity" data-qualified-name="Apelada" id="ent0015"><rect fill="#F1F1F1" height="50" rx="12.5" ry="12.5" style="stroke:#181818;stroke-width:0.5;" width="77.0117" x="246.67" y="394.2969"/><line style="stroke:#181818;stroke-width:0.5;" x1="246.67" x2="323.6817" y1="420.5938" y2="420.5938"/><text fill="#000000" font-family="sans-serif" font-size="14" lengthAdjust="spacing" textLength="57.0117" x="256.67" y="412.292">Apelada</text></g><g class="end_entity" data-qualified-name=".end." data-source-line="22" id="ent0020"><ellipse cx="441.18" cy="770.2969" fill="none" rx="11" ry="11" style="stroke:#222222;stroke-width:1;"/><ellipse cx="441.18" cy="770.2969" fill="#222222" rx="6" ry="6" style="stroke:#222222;stroke-width:1;"/></g><!--link *start* to Solicitada--><g class="link" data-entity-1="ent0002" data-entity-2="ent0003" data-link-type="dependency" data-source-line="4" id="lnk4"><path d="M51.18,63.6769 C51.18,80.4069 51.18,109.8869 51.18,133.9269" fill="none" id="*start*-to-Solicitada" style="stroke:#181818;stroke-width:1;"/><polygon fill="#181818" points="51.18,139.9269,55.18,130.9269,51.18,134.9269,47.18,130.9269,51.18,139.9269" style="stroke:#181818;stroke-width:1;"/><text fill="#000000" font-family="sans-serif" font-size="13" lengthAdjust="spacing" textLength="159.3452" x="52.18" y="106.3638">crearSolicitudDispensa()</text></g><!--link Solicitada to Solicitada--><g class="link" data-entity-1="ent0003" data-entity-2="ent0003" data-link-type="dependency" data-source-line="6" id="lnk5"><path d="M95.54,159.4069 C114.34,158.9569 130.35,160.9269 130.35,165.2969 C130.35,169.6669 120.3383,171.7805 101.5383,171.3305" fill="none" id="Solicitada-to-Solicitada" style="stroke:#181818;stroke-width:1;"/><polygon fill="#181818" points="95.54,171.1869,104.4417,175.4011,100.5386,171.3065,104.6331,167.4034,95.54,171.1869" style="stroke:#181818;stroke-width:1;"/><text fill="#000000" font-family="sans-serif" font-size="13" lengthAdjust="spacing" textLength="163.814" x="136.35" y="169.8638">editarSolicitudDispensa()</text></g><!--link Solicitada to Solicitada--><g class="link" data-entity-1="ent0003" data-entity-2="ent0003" data-link-type="dependency" data-source-line="7" id="lnk6"><path d="M95.61,157.3469 C171.13,150.1369 305.35,152.7869 305.35,165.2969 C305.35,177.8069 177.1028,181.0271 101.5828,173.8171" fill="none" id="Solicitada-to-Solicitada-1" style="stroke:#181818;stroke-width:1;"/><polygon fill="#181818" points="95.61,173.2469,104.1891,178.0841,100.5874,173.7221,104.9494,170.1203,95.61,173.2469" style="stroke:#181818;stroke-width:1;"/><text fill="#000000" font-family="sans-serif" font-size="13" lengthAdjust="spacing" textLength="185.9165" x="311.35" y="169.8638">consultarSolicitudDispensa()</text></g><!--link Solicitada to Aprobada--><g class="link" data-entity-1="ent0003" data-entity-2="ent0007" data-link-type="dependency" data-source-line="9" id="lnk8"><path d="M43.82,190.7069 C33.51,229.7069 19,307.4669 47.18,364.2969 C87.53,445.6869 178.4885,497.8591 235.4485,524.3191" fill="none" id="Solicitada-to-Aprobada" style="stroke:#181818;stroke-width:1;"/><polygon fill="#181818" points="240.89,526.8469,234.4129,519.4275,236.3554,524.7404,231.0425,526.6829,240.89,526.8469" style="stroke:#181818;stroke-width:1;"/><text fill="#000000" font-family="sans-serif" font-size="13" lengthAdjust="spacing" textLength="176.9092" x="48.18" y="360.3638">guardarSolicitudDispensa()</text></g><!--link Solicitada to Rechazada--><g class="link" data-entity-1="ent0003" data-entity-2="ent0009" data-link-type="dependency" data-source-line="10" id="lnk10"><path d="M95.7,185.5569 C148.58,208.4269 231.0032,244.0747 285.7432,267.7547" fill="none" id="Solicitada-to-Rechazada" style="stroke:#181818;stroke-width:1;"/><polygon fill="#181818" points="291.25,270.1369,284.5779,262.8924,286.661,268.1517,281.4016,270.2348,291.25,270.1369" style="stroke:#181818;stroke-width:1;"/><text fill="#000000" font-family="sans-serif" font-size="13" lengthAdjust="spacing" textLength="176.9092" x="213.18" y="233.3638">guardarSolicitudDispensa()</text></g><!--link Aprobada to Aprobada--><g class="link" data-entity-1="ent0007" data-entity-2="ent0007" data-link-type="dependency" data-source-line="12" id="lnk11"><path d="M329.37,534.5169 C348.09,533.6269 364.03,537.5569 364.03,546.2969 C364.03,555.0369 354.0832,559.2518 335.3632,558.3618" fill="none" id="Aprobada-to-Aprobada" style="stroke:#181818;stroke-width:1;"/><polygon fill="#181818" points="329.37,558.0769,338.1699,562.4998,334.3644,558.3143,338.5498,554.5088,329.37,558.0769" style="stroke:#181818;stroke-width:1;"/><text fill="#000000" font-family="sans-serif" font-size="13" lengthAdjust="spacing" textLength="185.9165" x="370.03" y="550.8638">consultarSolicitudDispensa()</text></g><!--link Aprobada to Cerrada--><g class="link" data-entity-1="ent0007" data-entity-2="ent0012" data-link-type="dependency" data-source-line="13" id="lnk13"><path d="M315.62,571.6969 C343.11,593.7169 378.6575,622.2054 406.1175,644.2054" fill="none" id="Aprobada-to-Cerrada" style="stroke:#181818;stroke-width:1;"/><polygon fill="#181818" points="410.8,647.9569,406.2772,639.2079,406.8979,644.8306,401.2752,645.4513,410.8,647.9569" style="stroke:#181818;stroke-width:1;"/><text fill="#000000" font-family="sans-serif" font-size="13" lengthAdjust="spacing" textLength="164.6899" x="373.18" y="614.3638">cerrarSolicitudDispensa()</text></g><!--link Rechazada to Rechazada--><g class="link" data-entity-1="ent0009" data-entity-2="ent0009" data-link-type="dependency" data-source-line="15" id="lnk14"><path d="M389.03,280.4369 C407.92,279.9069 423.62,283.8669 423.62,292.2969 C423.62,300.7269 413.9176,304.8552 395.0276,304.3252" fill="none" id="Rechazada-to-Rechazada" style="stroke:#181818;stroke-width:1;"/><polygon fill="#181818" points="389.03,304.1569,397.9143,308.4077,394.028,304.2971,398.1386,300.4109,389.03,304.1569" style="stroke:#181818;stroke-width:1;"/><text fill="#000000" font-family="sans-serif" font-size="13" lengthAdjust="spacing" textLength="185.9165" x="429.62" y="296.8638">consultarSolicitudDispensa()</text></g><!--link Rechazada to Apelada--><g class="link" data-entity-1="ent0009" data-entity-2="ent0015" data-link-type="dependency" data-source-line="16" id="lnk16"><path d="M291.26,306.5269 C270.82,314.7369 249.09,327.6069 237.18,347.2969 C227.55,363.2069 234.4556,376.3473 248.4556,389.8773" fill="none" id="Rechazada-to-Apelada" style="stroke:#181818;stroke-width:1;"/><polygon fill="#181818" points="252.77,394.0469,249.0781,384.9162,249.1746,390.5722,243.5186,390.6688,252.77,394.0469" style="stroke:#181818;stroke-width:1;"/><text fill="#000000" font-family="sans-serif" font-size="13" lengthAdjust="spacing" textLength="159.3452" x="238.18" y="360.3638">crearSolicitudDispensa()</text></g><!--link Apelada to Rechazada--><g class="link" data-entity-1="ent0015" data-entity-2="ent0009" data-link-type="dependency" data-source-line="20" id="lnk19"><path d="M323.93,411.6269 C350.93,404.7469 385.05,391.0569 402.18,364.2969 C412.85,347.6169 404.3339,334.5076 387.3739,321.4476" fill="none" id="Apelada-to-Rechazada" style="stroke:#181818;stroke-width:1;"/><polygon fill="#181818" points="382.62,317.7869,387.3103,326.4472,386.5816,320.8375,392.1913,320.1087,382.62,317.7869" style="stroke:#181818;stroke-width:1;"/><text fill="#000000" font-family="sans-serif" font-size="13" lengthAdjust="spacing" textLength="176.9092" x="406.18" y="360.3638">guardarSolicitudDispensa()</text></g><!--link Rechazada to Cerrada--><g class="link" data-entity-1="ent0009" data-entity-2="ent0012" data-link-type="dependency" data-source-line="17" id="lnk17"><path d="M388.94,296.6869 C454.64,302.3869 566.25,316.4369 591.18,347.2969 C667.9,442.2769 625.05,525.0969 546.18,618.2969 C528.83,638.7969 507.3513,650.3325 485.0313,658.7825" fill="none" id="Rechazada-to-Cerrada" style="stroke:#181818;stroke-width:1;"/><polygon fill="#181818" points="479.42,660.9069,489.2532,661.4612,484.0961,659.1366,486.4208,653.9794,479.42,660.9069" style="stroke:#181818;stroke-width:1;"/><text fill="#000000" font-family="sans-serif" font-size="13" lengthAdjust="spacing" textLength="164.6899" x="629.18" y="487.3638">cerrarSolicitudDispensa()</text></g><!--link Apelada to Aprobada--><g class="link" data-entity-1="ent0015" data-entity-2="ent0007" data-link-type="dependency" data-source-line="19" id="lnk18"><path d="M285.18,444.6969 C285.18,466.7169 285.18,492.9569 285.18,514.9569" fill="none" id="Apelada-to-Aprobada" style="stroke:#181818;stroke-width:1;"/><polygon fill="#181818" points="285.18,520.9569,289.18,511.9569,285.18,515.9569,281.18,511.9569,285.18,520.9569" style="stroke:#181818;stroke-width:1;"/><text fill="#000000" font-family="sans-serif" font-size="13" lengthAdjust="spacing" textLength="176.9092" x="286.18" y="487.3638">guardarSolicitudDispensa()</text></g><!--link Cerrada to *end*--><g class="link" data-entity-1="ent0012" data-entity-2="ent0020" data-link-type="dependency" data-source-line="22" id="lnk21"><path d="M441.18,698.7569 C441.18,718.3369 441.18,738.7869 441.18,753.0969" fill="none" id="Cerrada-to-*end*" style="stroke:#181818;stroke-width:1;"/><polygon fill="#181818" points="441.18,759.0969,445.18,750.0969,441.18,754.0969,437.18,750.0969,441.18,759.0969" style="stroke:#181818;stroke-width:1;"/></g><?plantuml-src ZPB13i8W38RlF0L7DTaBx62og2-WHxD3XMOIsI053lhqihZfDfUD2objl_v_2kwX6Wi4DNV-gJ6Uf8GFjMPU-NW_AgXY5RX4Vd8Uf75vJ3gBZGF6hhkIPzcUNunMGiKoy9mBGg0k4sJVlDaoDcZxer36Q1PReeHfND0-JQ-mP6uVhWf0CadkZE8EhrMAVOTFb1OTZg034dLC6ytB_EnCpIqAZR72ebvvgp6GPAsVchxg8P6wvzvAoyJlzmO0?></g></svg>