<svg xmlns="http://www.w3.org/2000/svg" xmlns:xlink="http://www.w3.org/1999/xlink" version="1.1" data-diagram-type="DESCRIPTION" style="width:913px;height:432px;background:#FFFFFF;" width="913px" height="432px" viewBox="0 0 913 432" zoomAndPan="magnify" preserveAspectRatio="none" contentStyleType="text/css"><?plantuml 1.2026.7beta8?><defs/><g font-family="sans-serif" lengthAdjust="spacing"><!--cluster editarSolicitudDispensa--><g class="cluster" data-qualified-name="editarSolicitudDispensa" id="ent0002" data-source-line="5"><path d="M321.84,6 L524.09,6 A3.75,3.75 0 0 1 526.59,8.5 L533.59,28.297 L895.84,28.297 A2.5,2.5 0 0 1 898.34,30.797 L898.34,414.69 A2.5,2.5 0 0 1 895.84,417.19 L321.84,417.19 A2.5,2.5 0 0 1 319.34,414.69 L319.34,8.5 A2.5,2.5 0 0 1 321.84,6" style="stroke:#000;stroke-width:1.5;" fill="none"/><line x1="319.34" y1="28.297" x2="533.59" y2="28.297" style="stroke:#000;stroke-width:1.5;"/><text x="323.34" y="20.995" fill="#000" font-size="14" textLength="201.25" font-weight="700">editarSolicitudDispensa()</text></g><!--entity EditarSolicitudDispensaView--><g class="entity" data-qualified-name="editarSolicitudDispensa.EditarSolicitudDispensaView" id="ent0003" data-source-line="6"><rect x="414.72" y="41" width="219.254" height="36.297" fill="#629EF9" style="stroke:#181818;stroke-width:0.5;" rx="2.5" ry="2.5"/><text x="424.72" y="63.995" fill="#000" font-size="14" textLength="199.254">EditarSolicitudDispensaView</text></g><!--entity DispensaController--><g class="entity" data-qualified-name="editarSolicitudDispensa.DispensaController" id="ent0004" data-source-line="7"><rect x="401.65" y="154.3" width="153.383" height="36.297" fill="#B5BD68" style="stroke:#181818;stroke-width:0.5;" rx="2.5" ry="2.5"/><text x="411.65" y="177.295" fill="#000" font-size="14" textLength="133.383">DispensaController</text></g><!--entity DispensaRepository--><g class="entity" data-qualified-name="editarSolicitudDispensa.DispensaRepository" id="ent0005" data-source-line="8"><rect x="411.7" y="267.6" width="159.282" height="36.297" fill="#F2AC4E" style="stroke:#181818;stroke-width:0.5;" rx="2.5" ry="2.5"/><text x="421.7" y="290.595" fill="#000" font-size="14" textLength="139.282">DispensaRepository</text></g><!--entity Dispensa--><g class="entity" data-qualified-name="editarSolicitudDispensa.Dispensa" id="ent0006" data-source-line="9"><rect x="449.24" y="364.89" width="84.21" height="36.297" fill="#F2AC4E" style="stroke:#181818;stroke-width:0.5;" rx="2.5" ry="2.5"/><text x="459.24" y="387.885" fill="#000" font-size="14" textLength="64.21">Dispensa</text></g><!--entity SolicitudDispensaAbierta--><g class="entity" data-qualified-name="SolicitudDispensaAbierta" id="ent0001" data-source-line="3"><rect x="7" y="41" width="208.686" height="36.297" fill="#CDEBA5" style="stroke:#181818;stroke-width:0.5;" rx="2.5" ry="2.5"/><text x="17" y="63.995" fill="#000" font-size="14" textLength="188.686">:Solicitud Dispensa Abierta</text></g><!--link SolicitudDispensaAbierta to EditarSolicitudDispensaView--><g class="link" data-entity-1="ent0001" data-entity-2="ent0003" id="lnk7" data-source-line="12" data-link-type="dependency"><path d="M216.09,59.15 C276.67,59.15 347.83,59.15 409.29,59.15" style="stroke:#181818;stroke-width:1;" fill="none" id="SolicitudDispensaAbierta-to-EditarSolicitudDispensaView"/><polygon points="414.29,59.15,405.29,55.15,409.29,59.15,405.29,63.15,414.29,59.15" fill="#181818" style="stroke:#181818;stroke-width:1;stroke-linejoin:miter;stroke-miterlimit:10;"/><text x="233.7" y="52.217" fill="#000" font-size="13" textLength="163.814">editarSolicitudDispensa()</text></g><!--link EditarSolicitudDispensaView to DispensaController--><g class="link" data-entity-1="ent0003" data-entity-2="ent0004" id="lnk8" data-source-line="13" data-link-type="dependency"><path d="M465.88,77.71 C421.24,91.11 367.34,107.3 367.34,107.3 C367.34,107.3 367.34,124.3 367.34,124.3 C367.34,124.3 400.848,138.536 432.408,151.936" style="stroke:#181818;stroke-width:1;" fill="none" id="EditarSolicitudDispensaView-to-DispensaController"/><polygon points="437.01,153.89,430.289,146.691,432.408,151.936,427.163,154.054,437.01,153.89" fill="#181818" style="stroke:#181818;stroke-width:1;stroke-linejoin:miter;stroke-miterlimit:10;"/><text x="368.34" y="120.367" fill="#000" font-size="13" textLength="190.601">obtenerDispensa(dispensaId)</text></g><!--link EditarSolicitudDispensaView to DispensaController--><g class="link" data-entity-1="ent0003" data-entity-2="ent0004" id="lnk11" data-source-line="16" data-link-type="dependency"><path d="M538.86,77.71 C549.95,91.11 563.34,107.3 563.34,107.3 C563.34,107.3 563.34,124.3 563.34,124.3 C563.34,124.3 538.533,138.066 514.363,151.466" style="stroke:#181818;stroke-width:1;" fill="none" id="EditarSolicitudDispensaView-to-DispensaController-1"/><polygon points="509.99,153.89,519.801,153.024,514.363,151.466,515.922,146.028,509.99,153.89" fill="#181818" style="stroke:#181818;stroke-width:1;stroke-linejoin:miter;stroke-miterlimit:10;"/><text x="564.34" y="120.367" fill="#000" font-size="13" textLength="278.072">editarSolicitudDispensa(dispensaId, datos)</text></g><!--link DispensaController to DispensaRepository--><g class="link" data-entity-1="ent0004" data-entity-2="ent0005" id="lnk9" data-source-line="14" data-link-type="dependency"><path d="M445.2,191 C419.9,204.41 389.34,220.6 389.34,220.6 C389.34,220.6 389.34,237.6 389.34,237.6 C389.34,237.6 419.822,251.681 448.822,265.091" style="stroke:#181818;stroke-width:1;" fill="none" id="DispensaController-to-DispensaRepository"/><polygon points="453.36,267.19,446.87,259.782,448.822,265.091,443.512,267.043,453.36,267.19" fill="#181818" style="stroke:#181818;stroke-width:1;stroke-linejoin:miter;stroke-miterlimit:10;"/><text x="390.34" y="233.667" fill="#000" font-size="13" textLength="133.472">findById(dispensaId)</text></g><!--link DispensaController to DispensaRepository--><g class="link" data-entity-1="ent0004" data-entity-2="ent0005" id="lnk12" data-source-line="17" data-link-type="dependency"><path d="M496.96,191 C511.18,204.41 528.34,220.6 528.34,220.6 C528.34,220.6 528.34,237.6 528.34,237.6 C528.34,237.6 518.726,249.846 508.206,263.256" style="stroke:#181818;stroke-width:1;" fill="none" id="DispensaController-to-DispensaRepository-1"/><polygon points="505.12,267.19,513.822,262.578,508.206,263.256,507.528,257.64,505.12,267.19" fill="#181818" style="stroke:#181818;stroke-width:1;stroke-linejoin:miter;stroke-miterlimit:10;"/><text x="529.34" y="233.667" fill="#000" font-size="13" textLength="170.206">update(dispensaId, datos)</text></g><!--link DispensaRepository to Dispensa--><g class="link" data-entity-1="ent0005" data-entity-2="ent0006" id="lnk10" data-source-line="15" data-link-type="association"><path d="M491.34,304.22 C491.34,321.42 491.34,347.52 491.34,364.67" style="stroke:#181818;stroke-width:1;" fill="none" id="DispensaRepository-Dispensa"/></g><?plantuml-src dP31QiCm44Jl-nMBUscWleGcD3uK7CU1N5leVHrjmn9L4f92CQN_NWTIEyHsIgEJnCnRpMpOYt7awGEr68wrOtHMryS7WETj9BFJZ7V5gbpcCqooLwjbA_6WS2N1iGc4UINi8oL80LlvLps908wsUzenif98lkSxmic8TZz9y0kmEMU9vjD5kLvWEOoy2NzU4jMiKlEdDdTXJVHMQ_QNnlKqBnxBrlZ2pWQ9rjT_6E4RO6m1cFhq-LhQ34VRmnKCKzNCxNVAq5QH3VjsZ3fTDce2VJ-cPsEwnXc-Yr7BUgC6-SxOyDqURiexLh_xzm4LHHl-5V_W6eO7Xlm0?></g></svg>