<svg xmlns="http://www.w3.org/2000/svg" xmlns:xlink="http://www.w3.org/1999/xlink" version="1.1" data-diagram-type="DESCRIPTION" style="width:2258px;height:484px;background:#FFFFFF;" width="2258px" height="484px" viewBox="0 0 2258 484" zoomAndPan="magnify" preserveAspectRatio="none" contentStyleType="text/css"><?plantuml 1.2026.7beta3?><defs/><g><!--cluster editarSolicitudDispensa--><g class="cluster" data-qualified-name="editarSolicitudDispensa" id="ent0004" data-source-line="7"><path d="M239.51,39.5659 L441.76,39.5659 A3.75,3.75 0 0 1 444.26,42.0659 L451.26,61.8628 L1741.51,61.8628 A2.5,2.5 0 0 1 1744.01,64.3628 L1744.01,467.2559 A2.5,2.5 0 0 1 1741.51,469.7559 L239.51,469.7559 A2.5,2.5 0 0 1 237.01,467.2559 L237.01,42.0659 A2.5,2.5 0 0 1 239.51,39.5659" style="stroke:#000000;stroke-width:1.5;" fill="none"/><line x1="237.01" y1="61.8628" x2="451.26" y2="61.8628" style="stroke:#000000;stroke-width:1.5;"/><text x="241.01" y="54.561" fill="#000000" font-size="14" lengthAdjust="spacing" textLength="201.25" font-weight="700" font-family="sans-serif">editarSolicitudDispensa()</text></g><!--entity EditarSolicitudDispensaView--><g class="entity" data-qualified-name="editarSolicitudDispensa.EditarSolicitudDispensaView" id="ent0005" data-source-line="8"><rect x="1010.38" y="93.5659" width="219.2539" height="36.2969" fill="#629EF9" style="stroke:#181818;stroke-width:0.5;" rx="2.5" ry="2.5"/><text x="1020.38" y="116.561" fill="#000000" font-size="14" lengthAdjust="spacing" textLength="199.2539" font-family="sans-serif">EditarSolicitudDispensaView</text></g><!--entity DispensaController--><g class="entity" data-qualified-name="editarSolicitudDispensa.DispensaController" id="ent0006" data-source-line="9"><rect x="766.31" y="206.8659" width="153.3828" height="36.2969" fill="#B5BD68" style="stroke:#181818;stroke-width:0.5;" rx="2.5" ry="2.5"/><text x="776.31" y="229.861" fill="#000000" font-size="14" lengthAdjust="spacing" textLength="133.3828" font-family="sans-serif">DispensaController</text></g><!--entity SesionClaseRepository--><g class="entity" data-qualified-name="editarSolicitudDispensa.SesionClaseRepository" id="ent0007" data-source-line="10"><rect x="366.33" y="320.1659" width="179.3457" height="36.2969" fill="#F2AC4E" style="stroke:#181818;stroke-width:0.5;" rx="2.5" ry="2.5"/><text x="376.33" y="343.161" fill="#000000" font-size="14" lengthAdjust="spacing" textLength="159.3457" font-family="sans-serif">SesionClaseRepository</text></g><!--entity DispensaRepository--><g class="entity" data-qualified-name="editarSolicitudDispensa.DispensaRepository" id="ent0008" data-source-line="11"><rect x="902.36" y="320.1659" width="159.2822" height="36.2969" fill="#F2AC4E" style="stroke:#181818;stroke-width:0.5;" rx="2.5" ry="2.5"/><text x="912.36" y="343.161" fill="#000000" font-size="14" lengthAdjust="spacing" textLength="139.2822" font-family="sans-serif">DispensaRepository</text></g><!--entity SesionDeClase--><g class="entity" data-qualified-name="editarSolicitudDispensa.SesionDeClase" id="ent0009" data-source-line="12"><rect x="394.17" y="417.4559" width="123.667" height="36.2969" fill="#F2AC4E" style="stroke:#181818;stroke-width:0.5;" rx="2.5" ry="2.5"/><text x="404.17" y="440.451" fill="#000000" font-size="14" lengthAdjust="spacing" textLength="103.667" font-family="sans-serif">SesionDeClase</text></g><!--entity Dispensa--><g class="entity" data-qualified-name="editarSolicitudDispensa.Dispensa" id="ent0010" data-source-line="13"><rect x="939.9" y="417.4559" width="84.21" height="36.2969" fill="#F2AC4E" style="stroke:#181818;stroke-width:0.5;" rx="2.5" ry="2.5"/><text x="949.9" y="440.451" fill="#000000" font-size="14" lengthAdjust="spacing" textLength="64.21" font-family="sans-serif">Dispensa</text></g><!--entity DashboardAlumnoAbierto--><g class="entity" data-qualified-name="DashboardAlumnoAbierto" id="ent0001" data-source-line="3"><rect x="7" y="93.5659" width="214.0107" height="36.2969" fill="#CDEBA5" style="stroke:#181818;stroke-width:0.5;" rx="2.5" ry="2.5"/><text x="17" y="116.561" fill="#000000" font-size="14" lengthAdjust="spacing" textLength="194.0107" font-family="sans-serif">:Dashboard Alumno Abierto</text></g><!--entity DashboardSecretariaAbierto--><g class="entity" data-qualified-name="DashboardSecretariaAbierto" id="ent0002" data-source-line="4"><rect x="1759.78" y="93.5659" width="232.4541" height="36.2969" fill="#CDEBA5" style="stroke:#181818;stroke-width:0.5;" rx="2.5" ry="2.5"/><text x="1769.78" y="116.561" fill="#000000" font-size="14" lengthAdjust="spacing" textLength="212.4541" font-family="sans-serif">:Dashboard Secretaria Abierto</text></g><!--entity DashboardDirectorAbierto--><g class="entity" data-qualified-name="DashboardDirectorAbierto" id="ent0003" data-source-line="5"><rect x="2027.43" y="93.5659" width="217.1416" height="36.2969" fill="#CDEBA5" style="stroke:#181818;stroke-width:0.5;" rx="2.5" ry="2.5"/><text x="2037.43" y="116.561" fill="#000000" font-size="14" lengthAdjust="spacing" textLength="197.1416" font-family="sans-serif">:Dashboard Director Abierto</text></g><!--link DashboardAlumnoAbierto to EditarSolicitudDispensaView--><g class="link" data-entity-1="ent0001" data-entity-2="ent0005" id="lnk11" data-source-line="16" data-link-type="dependency"><path d="M221.19,111.7159 C413.57,111.7159 810.49,111.7159 1004.95,111.7159" style="stroke:#181818;stroke-width:1;" fill="none" id="DashboardAlumnoAbierto-to-EditarSolicitudDispensaView"/><polygon points="1009.95,111.7159,1000.95,107.7159,1004.95,111.7159,1000.95,115.7159,1009.95,111.7159" fill="#181818" style="stroke:#181818;stroke-width:1;stroke-linejoin:miter;stroke-miterlimit:10;"/><text x="534.19" y="104.7828" fill="#000000" font-size="13" lengthAdjust="spacing" textLength="163.814" font-family="sans-serif">editarSolicitudDispensa()</text></g><!--link DashboardSecretariaAbierto to EditarSolicitudDispensaView--><g class="link" data-entity-1="ent0002" data-entity-2="ent0005" id="lnk12" data-source-line="17" data-link-type="dependency"><path d="M1759.42,111.7159 C1615.09,111.7159 1376.12,111.7159 1234.93,111.7159" style="stroke:#181818;stroke-width:1;" fill="none" id="DashboardSecretariaAbierto-to-EditarSolicitudDispensaView"/><polygon points="1229.93,111.7159,1238.93,115.7159,1234.93,111.7159,1238.93,107.7159,1229.93,111.7159" fill="#181818" style="stroke:#181818;stroke-width:1;stroke-linejoin:miter;stroke-miterlimit:10;"/><text x="1413.21" y="104.7828" fill="#000000" font-size="13" lengthAdjust="spacing" textLength="163.814" font-family="sans-serif">editarSolicitudDispensa()</text></g><!--link DashboardDirectorAbierto to EditarSolicitudDispensaView--><g class="link" data-entity-1="ent0003" data-entity-2="ent0005" id="lnk13" data-source-line="18" data-link-type="dependency"><path d="M2106.46,93.2659 C2069.22,69.9959 2010.01,33.0059 2010.01,33.0059 C2010.01,33.0059 1742.01,33.0059 1742.01,33.0059 C1742.01,33.0059 1413.7404,74.5481 1235.0904,97.1581" style="stroke:#181818;stroke-width:1;" fill="none" id="DashboardDirectorAbierto-to-EditarSolicitudDispensaView"/><polygon points="1230.13,97.7859,1239.561,100.6242,1235.0904,97.1581,1238.5565,92.6875,1230.13,97.7859" fill="#181818" style="stroke:#181818;stroke-width:1;stroke-linejoin:miter;stroke-miterlimit:10;"/><text x="1628.51" y="19.6328" fill="#000000" font-size="13" lengthAdjust="spacing" textLength="163.814" font-family="sans-serif">editarSolicitudDispensa()</text></g><!--link EditarSolicitudDispensaView to DispensaController--><g class="link" data-entity-1="ent0005" data-entity-2="ent0006" id="lnk14" data-source-line="20" data-link-type="dependency"><path d="M1009.99,118.9259 C783.25,131.7359 285.01,159.8659 285.01,159.8659 C285.01,159.8659 285.01,176.8659 285.01,176.8659 C285.01,176.8659 607.9477,204.1551 761.0177,217.0851" style="stroke:#181818;stroke-width:1;" fill="none" id="EditarSolicitudDispensaView-to-DispensaController"/><polygon points="766,217.5059,757.3686,212.7626,761.0177,217.0851,756.6953,220.7342,766,217.5059" fill="#181818" style="stroke:#181818;stroke-width:1;stroke-linejoin:miter;stroke-miterlimit:10;"/><text x="286.01" y="172.9328" fill="#000000" font-size="13" lengthAdjust="spacing" textLength="262.8691" font-family="sans-serif">obtenerDispensa(dispensaId) : Dispensa</text></g><!--link EditarSolicitudDispensaView to DispensaController--><g class="link" data-entity-1="ent0005" data-entity-2="ent0006" id="lnk17" data-source-line="26" data-link-type="dependency"><path d="M1009.98,122.4859 C854.45,136.2959 589.01,159.8659 589.01,159.8659 C589.01,159.8659 589.01,176.8659 589.01,176.8659 C589.01,176.8659 686.4339,194.9538 761.1939,208.8238" style="stroke:#181818;stroke-width:1;" fill="none" id="EditarSolicitudDispensaView-to-DispensaController-1"/><polygon points="766.11,209.7359,757.9907,204.1613,761.1939,208.8238,756.5313,212.0271,766.11,209.7359" fill="#181818" style="stroke:#181818;stroke-width:1;stroke-linejoin:miter;stroke-miterlimit:10;"/><text x="590.01" y="172.9328" fill="#000000" font-size="13" lengthAdjust="spacing" textLength="323.9399" font-family="sans-serif">cargarSesiones(alumnoId) : List&lt;SesionDeClase></text></g><!--link EditarSolicitudDispensaView to DispensaController--><g class="link" data-entity-1="ent0005" data-entity-2="ent0006" id="lnk20" data-source-line="32" data-link-type="dependency"><path d="M1058.19,130.2759 C1011,143.6759 954.01,159.8659 954.01,159.8659 C954.01,159.8659 910.5291,184.9941 877.6691,203.9841" style="stroke:#181818;stroke-width:1;" fill="none" id="EditarSolicitudDispensaView-to-DispensaController-2"/><polygon points="873.34,206.4859,883.1338,205.4459,877.6691,203.9841,879.1309,198.5194,873.34,206.4859" fill="#181818" style="stroke:#181818;stroke-width:1;stroke-linejoin:miter;stroke-miterlimit:10;"/><text x="955.01" y="172.9328" fill="#000000" font-size="13" lengthAdjust="spacing" textLength="285.2256" font-family="sans-serif">validarDatos(motivo, sesionesIds) : boolean</text></g><!--link EditarSolicitudDispensaView to DispensaController--><g class="link" data-entity-1="ent0005" data-entity-2="ent0006" id="lnk21" data-source-line="34" data-link-type="dependency"><path d="M1166.55,130.2759 C1202.09,143.6759 1245.01,159.8659 1245.01,159.8659 C1245.01,159.8659 1245.01,176.8659 1245.01,176.8659 C1245.01,176.8659 1041.736,200.7035 925.006,214.3935" style="stroke:#181818;stroke-width:1;" fill="none" id="EditarSolicitudDispensaView-to-DispensaController-3"/><polygon points="920.04,214.9759,929.4447,217.9004,925.006,214.3935,928.5128,209.9548,920.04,214.9759" fill="#181818" style="stroke:#181818;stroke-width:1;stroke-linejoin:miter;stroke-miterlimit:10;"/><text x="1246.01" y="172.9328" fill="#000000" font-size="13" lengthAdjust="spacing" textLength="442.5142" font-family="sans-serif">editarSolicitudDispensa(dispensaId, motivo, sesionesIds) : Dispensa</text></g><!--link DispensaController to DispensaRepository--><g class="link" data-entity-1="ent0006" data-entity-2="ent0008" id="lnk15" data-source-line="22" data-link-type="dependency"><path d="M841.89,243.5659 C841.04,256.9759 840.01,273.1659 840.01,273.1659 C840.01,273.1659 840.01,290.1659 840.01,290.1659 C840.01,290.1659 884.0149,304.7697 924.3849,318.1797" style="stroke:#181818;stroke-width:1;" fill="none" id="DispensaController-to-DispensaRepository"/><polygon points="929.13,319.7559,921.8499,313.1227,924.3849,318.1797,919.3279,320.7148,929.13,319.7559" fill="#181818" style="stroke:#181818;stroke-width:1;stroke-linejoin:miter;stroke-miterlimit:10;"/><text x="841.01" y="286.2328" fill="#000000" font-size="13" lengthAdjust="spacing" textLength="236.4692" font-family="sans-serif">obtenerPorId(dispensaId) : Dispensa</text></g><!--link DispensaController to DispensaRepository--><g class="link" data-entity-1="ent0006" data-entity-2="ent0008" id="lnk22" data-source-line="36" data-link-type="dependency"><path d="M919.94,241.1959 C989.81,254.9759 1082.01,273.1659 1082.01,273.1659 C1082.01,273.1659 1082.01,290.1659 1082.01,290.1659 C1082.01,290.1659 1052.1922,304.2129 1023.7622,317.6229" style="stroke:#181818;stroke-width:1;" fill="none" id="DispensaController-to-DispensaRepository-1"/><polygon points="1019.24,319.7559,1029.0864,319.5342,1023.7622,317.6229,1025.6735,312.2987,1019.24,319.7559" fill="#181818" style="stroke:#181818;stroke-width:1;stroke-linejoin:miter;stroke-miterlimit:10;"/><text x="1083.01" y="286.2328" fill="#000000" font-size="13" lengthAdjust="spacing" textLength="352.6187" font-family="sans-serif">actualizar(dispensaId, motivo, sesionesIds) : Dispensa</text></g><!--link DispensaRepository to Dispensa--><g class="link" data-entity-1="ent0008" data-entity-2="ent0010" id="lnk16" data-source-line="24" data-link-type="association"><path d="M982.01,356.7859 C982.01,373.9859 982.01,400.0859 982.01,417.2359" style="stroke:#181818;stroke-width:1;" fill="none" id="DispensaRepository-Dispensa"/></g><!--link DispensaController to SesionClaseRepository--><g class="link" data-entity-1="ent0006" data-entity-2="ent0007" id="lnk18" data-source-line="28" data-link-type="dependency"><path d="M766.21,236.1259 C661.01,249.9859 485.01,273.1659 485.01,273.1659 C485.01,273.1659 474.5798,296.2299 465.9898,315.2299" style="stroke:#181818;stroke-width:1;" fill="none" id="DispensaController-to-SesionClaseRepository"/><polygon points="463.93,319.7859,471.2824,313.2329,465.9898,315.2299,463.9928,309.9373,463.93,319.7859" fill="#181818" style="stroke:#181818;stroke-width:1;stroke-linejoin:miter;stroke-miterlimit:10;"/><text x="486.01" y="286.2328" fill="#000000" font-size="13" lengthAdjust="spacing" textLength="345.9409" font-family="sans-serif">obtenerPorAlumno(alumnoId) : List&lt;SesionDeClase></text></g><!--link SesionClaseRepository to SesionDeClase--><g class="link" data-entity-1="ent0007" data-entity-2="ent0009" id="lnk19" data-source-line="30" data-link-type="association"><path d="M456.01,356.7859 C456.01,373.9859 456.01,400.0859 456.01,417.2359" style="stroke:#181818;stroke-width:1;" fill="none" id="SesionClaseRepository-SesionDeClase"/></g><?plantuml-src hP91Jy9048Nl-oicU854BaI94cE2RKb8F1XDl4-x4zoux3IxYmQD_zqjK8hOKaLxskRDVBDlvxbdPNAqE0Uj3FbbJf2pNXO_GbZAF9gP9ZY9ukHcV0wTKOpkAMMq4iPwCJSCurIHzTm1TB0Lrzf6Qk4yK6R9erLOpwhqd_5YLUXiwscbMh94ZjappWX8gZ3aWRNAb5-4EfUJSLWqTngqRgy3xmB2jtEZuU0ocLn2Kj_ogEXrloCzJ-Nm0igIY8sth3NP_SB9O1oT9U71d68JQNHqJpax5Umi6sfBQ6lX6XhJ2ji24nz2rAyQ-hP_VSZx21hVKZHl_7-mUwl_4rGSw8E-3E3lwnm1fvuCsIr7RWvJsODHzRpYUo_qTv3LChV8ExPJsSgh6WDlHp_AJ8Ps5ffMkI7NnLKErfDlbVDNNn9rtMYgDisxljO1Q-VNWWgVNwDzs6o3rnVKIgADqRFhpjch5pu5jx4-bQwuLCgi2Srn0vgILctq51hc7XKRpFmYU7f3-viHdm00?></g></svg>