<?xml version="1.0" encoding="us-ascii" standalone="no"?><svg xmlns="http://www.w3.org/2000/svg" xmlns:xlink="http://www.w3.org/1999/xlink" contentStyleType="text/css" height="773px" preserveAspectRatio="none" style="width:447px;height:773px;background:#FFFFFF;" version="1.1" viewBox="0 0 447 773" width="447px" zoomAndPan="magnify"><defs/><g><path d="M27,7 L359,7 A12.5,12.5 0 0 1 371.5,19.5 L371.5,34.6094 L14.5,34.6094 L14.5,19.5 A12.5,12.5 0 0 1 27,7 " fill="#F5F5F5" style="stroke:#F5F5F5;stroke-width:1.0;"/><rect fill="none" height="489.6094" rx="12.5" ry="12.5" style="stroke:#808080;stroke-width:0.5;" width="357" x="14.5" y="7"/><line style="stroke:#808080;stroke-width:0.5;" x1="14.5" x2="371.5" y1="34.6094" y2="34.6094"/><text fill="#000000" font-family="sans-serif" font-size="14" lengthAdjust="spacing" textLength="94" x="146" y="26.5332">abrirUsuarios()</text><g id="abrirUsuarios.Paso1"><rect fill="#F5F5F5" height="50" rx="12.5" ry="12.5" style="stroke:#808080;stroke-width:0.5;" width="50" x="26.5" y="137.6094"/><line style="stroke:#808080;stroke-width:0.5;" x1="26.5" x2="76.5" y1="165.2188" y2="165.2188"/><text fill="#000000" font-family="sans-serif" font-size="14" lengthAdjust="spacing" textLength="4" x="49.5" y="157.1426">&#160;</text></g><g id="abrirUsuarios.Paso2"><rect fill="#F5F5F5" height="50" rx="12.5" ry="12.5" style="stroke:#808080;stroke-width:0.5;" width="50" x="26.5" y="276.6094"/><line style="stroke:#808080;stroke-width:0.5;" x1="26.5" x2="76.5" y1="304.2188" y2="304.2188"/><text fill="#000000" font-family="sans-serif" font-size="14" lengthAdjust="spacing" textLength="4" x="49.5" y="296.1426">&#160;</text></g><ellipse cx="51.5" cy="55.6094" fill="#222222" rx="10" ry="10" style="stroke:#222222;stroke-width:1.0;"/><ellipse cx="51.5" cy="475.6094" fill="none" rx="11" ry="11" style="stroke:#222222;stroke-width:1.0;"/><ellipse cx="51.5" cy="475.6094" fill="#222222" rx="6" ry="6" style="stroke:#222222;stroke-width:1.0;"/><!--link *start*abrirUsuarios to Paso1--><g id="link_*start*abrirUsuarios_Paso1"><path d="M51.5,65.9294 C51.5,81.7894 51.5,108.5194 51.5,131.2494 " fill="none" id="*start*abrirUsuarios-to-Paso1" style="stroke:#008000;stroke-width:1.0;"/><polygon fill="#008000" points="51.5,137.2494,55.5,128.2494,51.5,132.2494,47.5,128.2494,51.5,137.2494" style="stroke:#008000;stroke-width:1.0;"/><path d="M56.5,88.6094 L56.5,114.6094 L293.5,114.6094 L293.5,98.6094 L283.5,88.6094 L56.5,88.6094 " fill="#FFFFE0" style="stroke:#808080;stroke-width:0.5;"/><path d="M283.5,88.6094 L283.5,98.6094 L293.5,98.6094 L283.5,88.6094 " fill="#FFFFE0" style="stroke:#808080;stroke-width:0.5;"/><text fill="#000000" font-family="sans-serif" font-size="13" font-weight="bold" lengthAdjust="spacing" textLength="89" x="62.5" y="107.1045">Administrador</text><text fill="#000000" font-family="sans-serif" font-size="13" lengthAdjust="spacing" textLength="123" x="155.5" y="107.1045">solicita abrir usuarios</text></g><!--link Paso1 to Paso2--><g id="link_Paso1_Paso2"><path d="M51.5,187.7894 C51.5,212.6794 51.5,245.2394 51.5,270.2094 " fill="none" id="Paso1-to-Paso2" style="stroke:#008000;stroke-width:1.0;"/><polygon fill="#008000" points="51.5,276.2094,55.5,267.2094,51.5,271.2094,47.5,267.2094,51.5,276.2094" style="stroke:#008000;stroke-width:1.0;"/><path d="M56.5,210.6094 L56.5,252.6094 L362.5,252.6094 L362.5,220.6094 L352.5,210.6094 L56.5,210.6094 " fill="#FFFFE0" style="stroke:#808080;stroke-width:0.5;"/><path d="M352.5,210.6094 L352.5,220.6094 L362.5,220.6094 L352.5,210.6094 " fill="#FFFFE0" style="stroke:#808080;stroke-width:0.5;"/><text fill="#000000" font-family="sans-serif" font-size="13" font-weight="bold" lengthAdjust="spacing" textLength="51" x="62.5" y="229.1045">Sistema</text><text fill="#000000" font-family="sans-serif" font-size="13" lengthAdjust="spacing" textLength="190" x="117.5" y="229.1045">permite mostrar lista de usuarios</text><text fill="#000000" font-family="sans-serif" font-size="13" lengthAdjust="spacing" textLength="285" x="62.5" y="245.4561">&#8226; Nombre, apellidos, rol y estado de cada usuario</text></g><!--link Paso2 to Paso2--><g id="link_Paso2_Paso2"><path d="M76.68,288.5394 C86.41,287.9594 94.5,292.3094 94.5,301.6094 C94.5,310.9094 92.3994,315.6164 82.6694,315.0364 " fill="none" id="Paso2-to-Paso2" style="stroke:#008000;stroke-width:1.0;"/><polygon fill="#008000" points="76.68,314.6794,85.426,319.2078,81.6711,314.9769,85.9021,311.222,76.68,314.6794" style="stroke:#008000;stroke-width:1.0;"/><path d="M99.5,280.6094 L99.5,322.6094 L336.5,322.6094 L336.5,290.6094 L326.5,280.6094 L99.5,280.6094 " fill="#FFFFE0" style="stroke:#808080;stroke-width:0.5;"/><path d="M326.5,280.6094 L326.5,290.6094 L336.5,290.6094 L326.5,280.6094 " fill="#FFFFE0" style="stroke:#808080;stroke-width:0.5;"/><text fill="#000000" font-family="sans-serif" font-size="13" font-weight="bold" lengthAdjust="spacing" textLength="89" x="105.5" y="299.1045">Administrador</text><text fill="#000000" font-family="sans-serif" font-size="13" lengthAdjust="spacing" textLength="101" x="198.5" y="299.1045">solicita filtrar lista</text><text fill="#000000" font-family="sans-serif" font-size="13" font-weight="bold" lengthAdjust="spacing" textLength="51" x="105.5" y="315.4561">Sistema</text><text fill="#000000" font-family="sans-serif" font-size="13" lengthAdjust="spacing" textLength="161" x="160.5" y="315.4561">permite mostrar lista filtrada</text></g><!--link Paso2 to *end*abrirUsuarios--><g id="link_Paso2_*end*abrirUsuarios"><path d="M51.5,326.8894 C51.5,365.0394 51.5,431.4394 51.5,458.2694 " fill="none" id="Paso2-to-*end*abrirUsuarios" style="stroke:#008000;stroke-width:1.0;"/><polygon fill="#008000" points="51.5,464.2694,55.5,455.2694,51.5,459.2694,47.5,455.2694,51.5,464.2694" style="stroke:#008000;stroke-width:1.0;"/><path d="M56.5,350.6094 L56.5,441.6094 L342.5,441.6094 L342.5,360.6094 L332.5,350.6094 L56.5,350.6094 " fill="#FFFFE0" style="stroke:#808080;stroke-width:0.5;"/><path d="M332.5,350.6094 L332.5,360.6094 L342.5,360.6094 L332.5,350.6094 " fill="#FFFFE0" style="stroke:#808080;stroke-width:0.5;"/><text fill="#000000" font-family="sans-serif" font-size="13" font-weight="bold" lengthAdjust="spacing" textLength="89" x="62.5" y="369.1045">Administrador</text><text fill="#000000" font-family="sans-serif" font-size="13" lengthAdjust="spacing" textLength="146" x="155.5" y="369.1045">revisa la lista de usuarios</text><text fill="#000000" font-family="sans-serif" font-size="13" font-weight="bold" lengthAdjust="spacing" textLength="51" x="62.5" y="385.4561">Sistema</text><text fill="#000000" font-family="sans-serif" font-size="13" lengthAdjust="spacing" textLength="210" x="117.5" y="385.4561">permite mantener la lista en pantalla</text><text fill="#000000" font-family="sans-serif" font-size="13" lengthAdjust="spacing" textLength="182" x="62.5" y="401.8076">&#8226; Permite solicitar crear usuario</text><text fill="#000000" font-family="sans-serif" font-size="13" lengthAdjust="spacing" textLength="206" x="62.5" y="418.1592">&#8226; Permite solicitar consultar usuario</text><text fill="#000000" font-family="sans-serif" font-size="13" lengthAdjust="spacing" textLength="185" x="62.5" y="434.5107">&#8226; Permite solicitar editar usuario</text></g><g id="USUARIO_ABIERTO"><rect fill="#F5F5F5" height="50" rx="12.5" ry="12.5" style="stroke:#808080;stroke-width:0.5;" width="148" x="119" y="717"/><line style="stroke:#808080;stroke-width:0.5;" x1="119" x2="267" y1="744.6094" y2="744.6094"/><text fill="#000000" font-family="sans-serif" font-size="14" lengthAdjust="spacing" textLength="128" x="129" y="736.5332">USUARIO_ABIERTO</text></g><!--link abrirUsuarios to USUARIO_ABIERTO--><g id="link_abrirUsuarios_USUARIO_ABIERTO"><path d="M57.1,497.19 C28.1,549.3 6,589 6,589 C6,589 6,625 6,625 C6,625 94.3811,679.8275 149.1511,713.7975 " fill="none" id="abrirUsuarios-to-USUARIO_ABIERTO" style="stroke:#008000;stroke-width:1.0;"/><polygon fill="#008000" points="154.25,716.96,148.71,708.817,150.0009,714.3246,144.4933,715.6155,154.25,716.96" style="stroke:#008000;stroke-width:1.0;"/><path d="M11,594 L11,620 L113,620 L113,604 L103,594 L11,594 " fill="#FFFFE0" style="stroke:#808080;stroke-width:0.5;"/><path d="M103,594 L103,604 L113,604 L103,594 " fill="#FFFFE0" style="stroke:#808080;stroke-width:0.5;"/><text fill="#000000" font-family="sans-serif" font-size="13" lengthAdjust="spacing" textLength="81" x="17" y="612.4951">crearUsuario()</text></g><!--link abrirUsuarios to USUARIO_ABIERTO--><g id="link_abrirUsuarios_USUARIO_ABIERTO"><path d="M185.73,497.19 C184.18,549.3 183,589 183,589 C183,589 183,625 183,625 C183,625 187.4844,677.0122 190.4144,710.9822 " fill="none" id="abrirUsuarios-to-USUARIO_ABIERTO-1" style="stroke:#008000;stroke-width:1.0;"/><polygon fill="#008000" points="190.93,716.96,194.1418,707.6496,190.5003,711.9785,186.1714,708.337,190.93,716.96" style="stroke:#008000;stroke-width:1.0;"/><path d="M188,594 L188,620 L314,620 L314,604 L304,594 L188,594 " fill="#FFFFE0" style="stroke:#808080;stroke-width:0.5;"/><path d="M304,594 L304,604 L314,604 L304,594 " fill="#FFFFE0" style="stroke:#808080;stroke-width:0.5;"/><text fill="#000000" font-family="sans-serif" font-size="13" lengthAdjust="spacing" textLength="105" x="194" y="612.4951">consultarUsuario()</text></g><!--link abrirUsuarios to USUARIO_ABIERTO--><g id="link_abrirUsuarios_USUARIO_ABIERTO"><path d="M292.56,497.19 C313.81,549.3 330,589 330,589 C330,589 330,625 330,625 C330,625 266.0891,679.1129 225.9691,713.0829 " fill="none" id="abrirUsuarios-to-USUARIO_ABIERTO-2" style="stroke:#008000;stroke-width:1.0;"/><polygon fill="#008000" points="221.39,716.96,230.8434,714.197,225.2059,713.7291,225.6738,708.0916,221.39,716.96" style="stroke:#008000;stroke-width:1.0;"/><path d="M335,594 L335,620 L440,620 L440,604 L430,594 L335,594 " fill="#FFFFE0" style="stroke:#808080;stroke-width:0.5;"/><path d="M430,594 L430,604 L440,604 L430,594 " fill="#FFFFE0" style="stroke:#808080;stroke-width:0.5;"/><text fill="#000000" font-family="sans-serif" font-size="13" lengthAdjust="spacing" textLength="84" x="341" y="612.4951">editarUsuario()</text></g><!--SRC=[jLHDIyD04BtdLmnwiM9H2tgIGXK5BxQqzYGYq-vObsvsmcog117yBVuqVucRJJ_In8f5J4vv- -RDcpTit5JR10LZiAp8KGAdHv5RWe9sMWEDjfHc2K729ii_IcStdD8vZgSJuPbL5snOF7_ob6Pa3BzKcIoAf61D1BFIyI35kjBkrKd-rcXLcSZbCEpWIBGCtGn5izjhx00wMCFWDOh0FtC-14OF7Hz_3xSA-jt-FJJlTYT2PE-RxLA5zLC1spoZQG00paRjZegrrIuLL2ndXwCsE3Pwh5CixC1ixYUKa5L1f-WLj6lTMZzq6_XE56Feav34sfDYphldk_0pWQBrZW2Vxnz-8_58w00myRlIYjq121l8W7oDuhngZ0eNfHkyjhRo-aCoZzgiB6ypNL6ey5S6_IgtiYVqh1s2mOrHRlA8DYLBiYeb2ua7qHWiRQ4tvozo41WBeQoblf79rirC-aisALsbBjDwMzwXuM3OwLzt7phdrvVzsswu2XKiYjOlrIhVfa-uIWv9I_vFAEKTPfmBx3MYrTR-hhp8v5_KYmphqby0]--></g></svg>