<svg xmlns="http://www.w3.org/2000/svg" xmlns:xlink="http://www.w3.org/1999/xlink" version="1.1" data-diagram-type="STATE" style="width:501px;height:770px;background:#FFFFFF;" width="501px" height="770px" viewBox="0 0 501 770" zoomAndPan="magnify" preserveAspectRatio="none" contentStyleType="text/css"><?plantuml 1.2026.7beta6?><defs/><g font-family="sans-serif" lengthAdjust="spacing"><g class="entity" data-qualified-name="abrirUsuarios" id="ent0001" data-source-line="9"><path d="M19.5,7 L404.5,7 A12.5,12.5 0 0 1 417,19.5 L417,33.297 L7,33.297 L7,19.5 A12.5,12.5 0 0 1 19.5,7" fill="#F5F5F5"/><path d="M7,33.297 L417,33.297 L417,474.797 A12.5,12.5 0 0 1 404.5,487.297 L19.5,487.297 A12.5,12.5 0 0 1 7,474.797 L7,33.297" fill="#F5F5F5"/><rect x="7" y="7" width="410" height="480.297" fill="none" style="stroke:#808080;stroke-width:0.5;" rx="12.5" ry="12.5"/><line x1="7" y1="33.297" x2="417" y2="33.297" style="stroke:#808080;stroke-width:0.5;"/><text x="159.855" y="24.995" fill="#000" font-size="14" textLength="104.289">abrirUsuarios()</text><g class="entity" data-qualified-name="abrirUsuarios.Paso1" id="ent0002" data-source-line="11"><rect x="19" y="135.297" width="50" height="50" fill="#F5F5F5" style="stroke:#808080;stroke-width:0.5;" rx="12.5" ry="12.5"/><line x1="19" y1="161.594" x2="69" y2="161.594" style="stroke:#808080;stroke-width:0.5;"/><text x="41.775" y="153.292" fill="#000" font-size="14"> </text></g><g class="entity" data-qualified-name="abrirUsuarios.Paso2" id="ent0003" data-source-line="12"><rect x="19" y="271.297" width="50" height="50" fill="#F5F5F5" style="stroke:#808080;stroke-width:0.5;" rx="12.5" ry="12.5"/><line x1="19" y1="297.594" x2="69" y2="297.594" style="stroke:#808080;stroke-width:0.5;"/><text x="41.775" y="289.292" fill="#000" font-size="14"> </text></g><g class="start_entity" data-qualified-name="abrirUsuarios..start.abrirUsuarios" id="ent0005" data-source-line="14"><ellipse cx="44" cy="54.297" rx="10" ry="10" fill="#222" style="stroke:#222;stroke-width:1;"/></g><g class="end_entity" data-qualified-name="abrirUsuarios..end.abrirUsuarios" id="ent0009" data-source-line="31"><ellipse cx="44" cy="463.297" rx="11" ry="11" fill="none" style="stroke:#222;stroke-width:1;"/><ellipse cx="44" cy="463.297" rx="6" ry="6" fill="#222" style="stroke:#222;stroke-width:1;"/></g><!--link *start*abrirUsuarios to Paso1--><g class="link" data-entity-1="ent0005" data-entity-2="ent0002" id="lnk6" data-source-line="14" data-link-type="dependency"><path d="M44,64.527 C44,80.237 44,107.657 44,130.167" style="stroke:#008000;stroke-width:1;" fill="none" id="*start*abrirUsuarios-to-Paso1"/><polygon points="44,135.167,48,126.167,44,130.167,40,126.167,44,135.167" fill="#008000" style="stroke:#008000;stroke-width:1;stroke-linejoin:miter;stroke-miterlimit:10;"/><path d="M49,87.297 L49,112.297 L318,112.297 L318,97.297 L308,87.297 L49,87.297" style="stroke:#808080;stroke-width:0.5;" fill="#FFFFE0"/><path d="M308,87.297 L308,97.297 L318,97.297 L308,87.297" style="stroke:#808080;stroke-width:0.5;" fill="#FFFFE0"/><text x="55" y="104.364" fill="#000" font-size="13" textLength="104.863" font-weight="700">Administrador</text><text x="163.996" y="104.364" fill="#000" font-size="13" textLength="139.458">solicita abrir usuarios</text></g><!--link Paso1 to Paso2--><g class="link" data-entity-1="ent0002" data-entity-2="ent0003" id="lnk7" data-source-line="19" data-link-type="dependency"><path d="M44,185.567 C44,209.847 44,241.987 44,266.207" style="stroke:#008000;stroke-width:1;" fill="none" id="Paso1-to-Paso2"/><polygon points="44,271.207,48,262.207,44,266.207,40,262.207,44,271.207" fill="#008000" style="stroke:#008000;stroke-width:1;stroke-linejoin:miter;stroke-miterlimit:10;"/><path d="M49,208.297 L49,248.297 L393,248.297 L393,218.297 L383,208.297 L49,208.297" style="stroke:#808080;stroke-width:0.5;" fill="#FFFFE0"/><path d="M383,208.297 L383,218.297 L393,218.297 L383,208.297" style="stroke:#808080;stroke-width:0.5;" fill="#FFFFE0"/><text x="55" y="225.364" fill="#000" font-size="13" textLength="58.906" font-weight="700">Sistema</text><text x="118.039" y="225.364" fill="#000" font-size="13" textLength="216.849">permite mostrar lista de usuarios</text><text x="55" y="240.497" fill="#000" font-size="13" textLength="323.312">• Nombre, apellidos, rol y estado de cada usuario</text></g><!--link Paso2 to Paso2--><g class="link" data-entity-1="ent0003" data-entity-2="ent0003" id="lnk8" data-source-line="25" data-link-type="dependency"><path d="M69.18,283.597 C78.91,283.037 87,287.267 87,296.297 C87,305.327 83.902,309.844 74.172,309.284" style="stroke:#008000;stroke-width:1;" fill="none" id="Paso2-to-Paso2"/><polygon points="69.18,308.997,77.935,313.507,74.172,309.284,78.395,305.521,69.18,308.997" fill="#008000" style="stroke:#008000;stroke-width:1;stroke-linejoin:miter;stroke-miterlimit:10;"/><path d="M92,276.297 L92,316.297 L364,316.297 L364,286.297 L354,276.297 L92,276.297" style="stroke:#808080;stroke-width:0.5;" fill="#FFFFE0"/><path d="M354,276.297 L354,286.297 L364,286.297 L354,276.297" style="stroke:#808080;stroke-width:0.5;" fill="#FFFFE0"/><text x="98" y="293.364" fill="#000" font-size="13" textLength="104.863" font-weight="700">Administrador</text><text x="206.996" y="293.364" fill="#000" font-size="13" textLength="116.651">solicita filtrar lista</text><text x="98" y="308.497" fill="#000" font-size="13" textLength="58.906" font-weight="700">Sistema</text><text x="161.039" y="308.497" fill="#000" font-size="13" textLength="187.992">permite mostrar lista filtrada</text></g><!--link Paso2 to *end*abrirUsuarios--><g class="link" data-entity-1="ent0003" data-entity-2="ent0009" id="lnk10" data-source-line="31" data-link-type="dependency"><path d="M44,321.647 C44,358.397 44,421.477 44,447.147" style="stroke:#008000;stroke-width:1;" fill="none" id="Paso2-to-*end*abrirUsuarios"/><polygon points="44,452.147,48,443.147,44,447.147,40,443.147,44,452.147" fill="#008000" style="stroke:#008000;stroke-width:1;stroke-linejoin:miter;stroke-miterlimit:10;"/><path d="M49,344.297 L49,429.297 L375,429.297 L375,354.297 L365,344.297 L49,344.297" style="stroke:#808080;stroke-width:0.5;" fill="#FFFFE0"/><path d="M365,344.297 L365,354.297 L375,354.297 L365,344.297" style="stroke:#808080;stroke-width:0.5;" fill="#FFFFE0"/><text x="55" y="361.364" fill="#000" font-size="13" textLength="104.863" font-weight="700">Administrador</text><text x="163.996" y="361.364" fill="#000" font-size="13" textLength="165.706">revisa la lista de usuarios</text><text x="55" y="376.497" fill="#000" font-size="13" textLength="58.906" font-weight="700">Sistema</text><text x="118.039" y="376.497" fill="#000" font-size="13" textLength="242.76">permite mantener la lista en pantalla</text><text x="55" y="391.629" fill="#000" font-size="13" textLength="207.797">• Permite solicitar crear usuario</text><text x="55" y="406.762" fill="#000" font-size="13" textLength="234.368">• Permite solicitar consultar usuario</text><text x="55" y="421.895" fill="#000" font-size="13" textLength="212.266">• Permite solicitar editar usuario</text></g></g><g class="entity" data-qualified-name="USUARIO_ABIERTO" id="ent0004" data-source-line="41"><rect x="135.86" y="706.3" width="152.289" height="50" fill="#F5F5F5" style="stroke:#808080;stroke-width:0.5;" rx="12.5" ry="12.5"/><line x1="135.86" y1="732.597" x2="288.149" y2="732.597" style="stroke:#808080;stroke-width:0.5;"/><text x="145.86" y="724.295" fill="#000" font-size="14" textLength="132.289">USUARIO_ABIERTO</text></g><!--link abrirUsuarios to USUARIO_ABIERTO--><g class="link" data-entity-1="ent0001" data-entity-2="ent0004" id="lnk11" data-source-line="43" data-link-type="dependency"><path d="M68.17,487.5 C36.92,539.5 13,579.3 13,579.3 C13,579.3 13,614.3 13,614.3 C13,614.3 107.61,669.452 165.96,703.462" style="stroke:#008000;stroke-width:1;" fill="none" id="abrirUsuarios-to-USUARIO_ABIERTO"/><polygon points="170.28,705.98,164.519,697.992,165.96,703.462,160.49,704.904,170.28,705.98" fill="#008000" style="stroke:#008000;stroke-width:1;stroke-linejoin:miter;stroke-miterlimit:10;"/><path d="M18,584.3 L18,609.3 L132,609.3 L132,594.3 L122,584.3 L18,584.3" style="stroke:#808080;stroke-width:0.5;" fill="#FFFFE0"/><path d="M122,584.3 L122,594.3 L132,594.3 L122,584.3" style="stroke:#808080;stroke-width:0.5;" fill="#FFFFE0"/><text x="24" y="601.367" fill="#000" font-size="13" textLength="93.349">crearUsuario()</text></g><!--link abrirUsuarios to USUARIO_ABIERTO--><g class="link" data-entity-1="ent0001" data-entity-2="ent0004" id="lnk12" data-source-line="48" data-link-type="dependency"><path d="M204.77,487.5 C203.2,539.5 202,579.3 202,579.3 C202,579.3 202,614.3 202,614.3 C202,614.3 206.541,666.988 209.471,700.998" style="stroke:#008000;stroke-width:1;" fill="none" id="abrirUsuarios-to-USUARIO_ABIERTO-1"/><polygon points="209.9,705.98,213.113,696.67,209.471,700.998,205.142,697.357,209.9,705.98" fill="#008000" style="stroke:#008000;stroke-width:1;stroke-linejoin:miter;stroke-miterlimit:10;"/><path d="M207,584.3 L207,609.3 L347,609.3 L347,594.3 L337,584.3 L207,584.3" style="stroke:#808080;stroke-width:0.5;" fill="#FFFFE0"/><path d="M337,584.3 L337,594.3 L347,594.3 L337,584.3" style="stroke:#808080;stroke-width:0.5;" fill="#FFFFE0"/><text x="213" y="601.367" fill="#000" font-size="13" textLength="119.92">consultarUsuario()</text></g><!--link abrirUsuarios to USUARIO_ABIERTO--><g class="link" data-entity-1="ent0001" data-entity-2="ent0004" id="lnk13" data-source-line="53" data-link-type="dependency"><path d="M321.14,487.5 C344.85,539.5 363,579.3 363,579.3 C363,579.3 363,614.3 363,614.3 C363,614.3 291.895,668.924 247.615,702.934" style="stroke:#008000;stroke-width:1;" fill="none" id="abrirUsuarios-to-USUARIO_ABIERTO-2"/><polygon points="243.65,705.98,253.224,703.67,247.615,702.934,248.351,697.326,243.65,705.98" fill="#008000" style="stroke:#008000;stroke-width:1;stroke-linejoin:miter;stroke-miterlimit:10;"/><path d="M368,584.3 L368,609.3 L486,609.3 L486,594.3 L476,584.3 L368,584.3" style="stroke:#808080;stroke-width:0.5;" fill="#FFFFE0"/><path d="M476,584.3 L476,594.3 L486,594.3 L476,584.3" style="stroke:#808080;stroke-width:0.5;" fill="#FFFFE0"/><text x="374" y="601.367" fill="#000" font-size="13" textLength="97.817">editarUsuario()</text></g><?plantuml-src jLJ1IiD04BtdAuRsejAY5lGaXLOKlAXOUnAHINUiIpSxOJPLWWX-Yv_cbxX9shH9RMb1Dn38cpSpRzwmSHDjOnICmB8YHp6S7WMk10NjP0KqsbAInWGncpJxM8fTSq9z74t6mbEhpjcmUFxu9Kd967whCraKIS4Q2wPBuK62gvMQboVPiqAhbmbS1aC3Gz4oT5CKpMvllm7ee8B1Un20FpC-v8nRT7pyEzmfw0y7Zz1-Q8w5o3wskqK6v27hnmAscKcJ700u2xiz5MchNIAeMCuEmouuDdga4opqm7GcA4yXguew_WJbgsXIRzlPq7NWErA4UR-O9DAU576c8bkA7muKLJi3V7z--TL4eL0BCFPBqufT2uGDf40-Ht6MDKA5yzIAvghUpavwDxZqhCr2zYuJ5eaAjnRfTxkJHA5NxH0ChhLqdKwq2LcIHIfPY3s8nk3IDcvd_BaN0YCXb8hxQvbitTGaMx99wJgrTEoZl5J3mR1tTtNprEjVNTpTt-HteuO5GVMMBVnjUuVhvDnfoNuIItxdCyuAxEq7fOu_g3ptv5-g5nwkblu1?></g></svg>