<svg xmlns="http://www.w3.org/2000/svg" xmlns:xlink="http://www.w3.org/1999/xlink" version="1.1" data-diagram-type="STATE" style="width:432px;height:785px;background:#FFFFFF;" width="432px" height="785px" viewBox="0 0 432 785" zoomAndPan="magnify" preserveAspectRatio="none" contentStyleType="text/css"><?plantuml 1.2026.7beta8?><defs/><g font-family="sans-serif" lengthAdjust="spacing"><g class="entity" data-qualified-name="consultarUsuario" id="ent0001" data-source-line="9"><path d="M19.5,7 L402.5,7 A12.5,12.5 0 0 1 415,19.5 L415,33.297 L7,33.297 L7,19.5 A12.5,12.5 0 0 1 19.5,7" fill="#F5F5F5"/><path d="M7,33.297 L415,33.297 L415,489.797 A12.5,12.5 0 0 1 402.5,502.297 L19.5,502.297 A12.5,12.5 0 0 1 7,489.797 L7,33.297" fill="#F5F5F5"/><rect x="7" y="7" width="408" height="495.297" fill="none" style="stroke:#808080;stroke-width:0.5;" rx="12.5" ry="12.5"/><line x1="7" y1="33.297" x2="415" y2="33.297" style="stroke:#808080;stroke-width:0.5;"/><text x="146.428" y="24.995" fill="#000" font-size="14" textLength="129.145">consultarUsuario()</text><g class="entity" data-qualified-name="consultarUsuario.Paso1" id="ent0002" data-source-line="12"><rect x="19" y="135.297" width="50" height="50" fill="#F5F5F5" style="stroke:#808080;stroke-width:0.5;" rx="12.5" ry="12.5"/><line x1="19" y1="161.594" x2="69" y2="161.594" style="stroke:#808080;stroke-width:0.5;"/><text x="41.775" y="153.292" fill="#000" font-size="14"> </text></g><g class="entity" data-qualified-name="consultarUsuario.Paso2" id="ent0003" data-source-line="13"><rect x="19" y="301.297" width="50" height="50" fill="#F5F5F5" style="stroke:#808080;stroke-width:0.5;" rx="12.5" ry="12.5"/><line x1="19" y1="327.594" x2="69" y2="327.594" style="stroke:#808080;stroke-width:0.5;"/><text x="41.775" y="319.292" fill="#000" font-size="14"> </text></g><g class="start_entity" data-qualified-name="consultarUsuario..start.consultarUsuario" id="ent0006" data-source-line="15"><ellipse cx="44" cy="54.297" rx="10" ry="10" fill="#222" style="stroke:#222;stroke-width:1;"/></g><g class="end_entity" data-qualified-name="consultarUsuario..end.consultarUsuario" id="ent0009" data-source-line="28"><ellipse cx="44" cy="478.297" rx="11" ry="11" fill="none" style="stroke:#222;stroke-width:1;"/><ellipse cx="44" cy="478.297" rx="6" ry="6" fill="#222" style="stroke:#222;stroke-width:1;"/></g><!--link *start*consultarUsuario to Paso1--><g class="link" data-entity-1="ent0006" data-entity-2="ent0002" id="lnk7" data-source-line="15" data-link-type="dependency"><path d="M44,64.527 C44,80.237 44,107.657 44,130.167" style="stroke:#008000;stroke-width:1;" fill="none" id="*start*consultarUsuario-to-Paso1"/><polygon points="44,135.167,48,126.167,44,130.167,40,126.167,44,135.167" fill="#008000" style="stroke:#008000;stroke-width:1;stroke-linejoin:miter;stroke-miterlimit:10;"/><path d="M49,87.297 L49,112.297 L332,112.297 L332,97.297 L322,87.297 L49,87.297" style="stroke:#808080;stroke-width:0.5;" fill="#FFFFE0"/><path d="M322,87.297 L322,97.297 L332,97.297 L322,87.297" style="stroke:#808080;stroke-width:0.5;" fill="#FFFFE0"/><text x="55" y="104.364" fill="#000" font-size="13" textLength="104.863" font-weight="700">Administrador</text><text x="163.996" y="104.364" fill="#000" font-size="13" textLength="153.309">solicita mostrar usuario</text></g><!--link Paso1 to Paso2--><g class="link" data-entity-1="ent0002" data-entity-2="ent0003" id="lnk8" data-source-line="20" data-link-type="dependency"><path d="M44,185.497 C44,216.507 44,264.947 44,295.997" style="stroke:#008000;stroke-width:1;" fill="none" id="Paso1-to-Paso2"/><polygon points="44,300.997,48,291.997,44,295.997,40,291.997,44,300.997" fill="#008000" style="stroke:#008000;stroke-width:1;stroke-linejoin:miter;stroke-miterlimit:10;"/><path d="M49,208.297 L49,278.297 L382,278.297 L382,218.297 L372,208.297 L49,208.297" style="stroke:#808080;stroke-width:0.5;" fill="#FFFFE0"/><path d="M372,208.297 L372,218.297 L382,218.297 L372,208.297" style="stroke:#808080;stroke-width:0.5;" fill="#FFFFE0"/><text x="55" y="225.364" fill="#000" font-size="13" textLength="58.906" font-weight="700">Sistema</text><text x="118.039" y="225.364" fill="#000" font-size="13" textLength="249.52">permite mostrar los datos del usuario:</text><text x="55" y="240.497" fill="#000" font-size="13" textLength="261.384">• Nombres Completos y DNI / Pasaporte</text><text x="55" y="255.629" fill="#000" font-size="13" textLength="131.923">• Correo Electrónico</text><text x="55" y="270.762" fill="#000" font-size="13" textLength="295.813">• Rol en el Sistema y Estado (Activo/Inactivo)</text></g><!--link Paso2 to *end*consultarUsuario--><g class="link" data-entity-1="ent0003" data-entity-2="ent0009" id="lnk10" data-source-line="28" data-link-type="dependency"><path d="M44,351.727 C44,385.107 44,438.477 44,462.017" style="stroke:#008000;stroke-width:1;" fill="none" id="Paso2-to-*end*consultarUsuario"/><polygon points="44,467.017,48,458.017,44,462.017,40,458.017,44,467.017" fill="#008000" style="stroke:#008000;stroke-width:1;stroke-linejoin:miter;stroke-miterlimit:10;"/><path d="M49,374.297 L49,444.297 L391,444.297 L391,384.297 L381,374.297 L49,374.297" style="stroke:#808080;stroke-width:0.5;" fill="#FFFFE0"/><path d="M381,374.297 L381,384.297 L391,384.297 L381,374.297" style="stroke:#808080;stroke-width:0.5;" fill="#FFFFE0"/><text x="55" y="391.364" fill="#000" font-size="13" textLength="104.863" font-weight="700">Administrador</text><text x="163.996" y="391.364" fill="#000" font-size="13" textLength="212.792">revisa la información del usuario</text><text x="55" y="406.497" fill="#000" font-size="13" textLength="58.906" font-weight="700">Sistema</text><text x="118.039" y="406.497" fill="#000" font-size="13" textLength="258.502">permite mantener los datos en pantalla</text><text x="55" y="421.629" fill="#000" font-size="13" textLength="212.266">• Permite solicitar editar usuario</text><text x="55" y="436.762" fill="#000" font-size="13" textLength="213.142">• Permite solicitar cerrar usuario</text></g></g><g class="entity" data-qualified-name="USUARIO_ABIERTO" id="ent0004" data-source-line="38"><rect x="26.86" y="721.3" width="152.289" height="50" fill="#F5F5F5" style="stroke:#808080;stroke-width:0.5;" rx="12.5" ry="12.5"/><line x1="26.86" y1="747.597" x2="179.149" y2="747.597" style="stroke:#808080;stroke-width:0.5;"/><text x="36.86" y="739.295" fill="#000" font-size="14" textLength="132.289">USUARIO_ABIERTO</text></g><g class="entity" data-qualified-name="USUARIOS_ABIERTO" id="ent0005" data-source-line="39"><rect x="239.41" y="721.3" width="161.176" height="50" fill="#F5F5F5" style="stroke:#808080;stroke-width:0.5;" rx="12.5" ry="12.5"/><line x1="239.41" y1="747.597" x2="400.586" y2="747.597" style="stroke:#808080;stroke-width:0.5;"/><text x="249.41" y="739.295" fill="#000" font-size="14" textLength="141.176">USUARIOS_ABIERTO</text></g><!--link consultarUsuario to USUARIO_ABIERTO--><g class="link" data-entity-1="ent0001" data-entity-2="ent0004" id="lnk11" data-source-line="41" data-link-type="dependency"><path d="M142.44,502.66 C127.98,554.74 117,594.3 117,594.3 C117,594.3 109.672,673.381 105.712,716.061" style="stroke:#008000;stroke-width:1;" fill="none" id="consultarUsuario-to-USUARIO_ABIERTO"/><polygon points="105.25,721.04,110.064,712.448,105.712,716.061,102.099,711.709,105.25,721.04" fill="#008000" style="stroke:#008000;stroke-width:1;stroke-linejoin:miter;stroke-miterlimit:10;"/><path d="M122,599.3 L122,624.3 L240,624.3 L240,609.3 L230,599.3 L122,599.3" style="stroke:#808080;stroke-width:0.5;" fill="#FFFFE0"/><path d="M230,599.3 L230,609.3 L240,609.3 L230,599.3" style="stroke:#808080;stroke-width:0.5;" fill="#FFFFE0"/><text x="128" y="616.367" fill="#000" font-size="13" textLength="97.817">editarUsuario()</text></g><!--link consultarUsuario to USUARIOS_ABIERTO--><g class="link" data-entity-1="ent0001" data-entity-2="ent0005" id="lnk12" data-source-line="46" data-link-type="dependency"><path d="M265.98,502.63 C285.71,591.28 304.284,674.679 313.494,716.079" style="stroke:#00F;stroke-width:1;" fill="none" id="consultarUsuario-to-USUARIOS_ABIERTO"/><polygon points="314.58,720.96,316.53,711.306,313.494,716.079,308.721,713.043,314.58,720.96" fill="#00F" style="stroke:#00F;stroke-width:1;stroke-linejoin:miter;stroke-miterlimit:10;"/><path d="M300,599.3 L300,624.3 L417,624.3 L417,609.3 L407,599.3 L300,599.3" style="stroke:#808080;stroke-width:0.5;" fill="#FFFFE0"/><path d="M407,599.3 L407,609.3 L417,609.3 L407,599.3" style="stroke:#808080;stroke-width:0.5;" fill="#FFFFE0"/><text x="306" y="616.367" fill="#000" font-size="13" textLength="96.84">abrirUsuarios()</text></g><?plantuml-src bLJ1Qjj04BthAuRaqAHWt1hQGma6ntN1boJOzIc4CfQcxkBLZfXTkPXIwBVqtbC_8N-IB-dkobPaoKa9nfRyzirxCs-ricjb2XJCmN16bWfu_oQnDIXerXrGAqDkMn0KhBVXJsFjYXrTOhfU2PSc6xDcyVpLDxSbhVbxcycIaLIibU2siJnts5Kw_VGkV3gqjanY0mmdAHjRQeUoi2MAuhFp4q0BRHX-900Gll0A9husOmjexlyQbVkx3QRtV_mrE89LUQdH3nK1opQMxVmWojzu-ErnU50RtRw-WzxjwKg8p5rls2WoFXXW4s9UHm3WOZaSPRaooZhnpSb5Vpa4orgboY7u7ZqiK5RJn1eoMHIg_Q9-nt7mZEFSkr6EqQiWoPKdxQt2z1cwy4jwR_nXL_lmwxVVtNmfP67CUQ4f4BVmyMeA_M2B1KlLseuzPX5Yc6XAdOJOKswipbZxUS0RxLhoMjKkmTaeTMh3_Qd1U7F-zF23W-5z_2yAMsYZB896KEOhIuwfydqsf_zFS6WS6MecvqSgF8fQOsFOcrt1VdS5A8kNGvlZr9JaoGVXPr8VYyLyCPfDhx-CBgUJsUVh-7Isi1PrVenRWqdIEL6FMVTysctncBg4rq8Z-shE-gGcTUT7rPUwf0Fn-VFgk1IrhxSDzNy0?></g></svg>