<?xml version="1.0" encoding="us-ascii" standalone="no"?><svg xmlns="http://www.w3.org/2000/svg" xmlns:xlink="http://www.w3.org/1999/xlink" contentStyleType="text/css" height="739px" preserveAspectRatio="none" style="width:429px;height:739px;background:#FFFFFF;" version="1.1" viewBox="0 0 429 739" width="429px" zoomAndPan="magnify"><defs/><g><path d="M19.5,7 L403.5,7 A12.5,12.5 0 0 1 416,19.5 L416,34.6094 L7,34.6094 L7,19.5 A12.5,12.5 0 0 1 19.5,7 " fill="#F5F5F5" style="stroke:#F5F5F5;stroke-width:1.0;"/><rect fill="none" height="455.6094" rx="12.5" ry="12.5" style="stroke:#808080;stroke-width:0.5;" width="409" x="7" y="7"/><line style="stroke:#808080;stroke-width:0.5;" x1="7" x2="416" y1="34.6094" y2="34.6094"/><text fill="#000000" font-family="sans-serif" font-size="14" lengthAdjust="spacing" textLength="116" x="153.5" y="26.5332">consultarUsuario()</text><g id="consultarUsuario.Paso1"><rect fill="#F5F5F5" height="50" rx="12.5" ry="12.5" style="stroke:#808080;stroke-width:0.5;" width="50" x="19" y="137.6094"/><line style="stroke:#808080;stroke-width:0.5;" x1="19" x2="69" y1="165.2188" y2="165.2188"/><text fill="#000000" font-family="sans-serif" font-size="14" lengthAdjust="spacing" textLength="4" x="42" y="157.1426">&#160;</text></g><g id="consultarUsuario.Paso2"><rect fill="#F5F5F5" height="50" rx="12.5" ry="12.5" style="stroke:#808080;stroke-width:0.5;" width="50" x="19" y="259.6094"/><line style="stroke:#808080;stroke-width:0.5;" x1="19" x2="69" y1="287.2188" y2="287.2188"/><text fill="#000000" font-family="sans-serif" font-size="14" lengthAdjust="spacing" textLength="4" x="42" y="279.1426">&#160;</text></g><ellipse cx="44" cy="55.6094" fill="#222222" rx="10" ry="10" style="stroke:#222222;stroke-width:1.0;"/><ellipse cx="44" cy="441.6094" fill="none" rx="11" ry="11" style="stroke:#222222;stroke-width:1.0;"/><ellipse cx="44" cy="441.6094" fill="#222222" rx="6" ry="6" style="stroke:#222222;stroke-width:1.0;"/><!--link *start*consultarUsuario to Paso1--><g id="link_*start*consultarUsuario_Paso1"><path d="M44,65.9294 C44,81.7894 44,108.5194 44,131.2494 " fill="none" id="*start*consultarUsuario-to-Paso1" style="stroke:#008000;stroke-width:1.0;"/><polygon fill="#008000" points="44,137.2494,48,128.2494,44,132.2494,40,128.2494,44,137.2494" style="stroke:#008000;stroke-width:1.0;"/><path d="M49,88.6094 L49,114.6094 L298,114.6094 L298,98.6094 L288,88.6094 L49,88.6094 " fill="#FFFFE0" style="stroke:#808080;stroke-width:0.5;"/><path d="M288,88.6094 L288,98.6094 L298,98.6094 L288,88.6094 " fill="#FFFFE0" style="stroke:#808080;stroke-width:0.5;"/><text fill="#000000" font-family="sans-serif" font-size="13" font-weight="bold" lengthAdjust="spacing" textLength="89" x="55" y="107.1045">Administrador</text><text fill="#000000" font-family="sans-serif" font-size="13" lengthAdjust="spacing" textLength="135" x="148" y="107.1045">solicita mostrar usuario</text></g><!--link Paso1 to Paso2--><g id="link_Paso1_Paso2"><path d="M44,187.8894 C44,208.7094 44,232.5494 44,253.3594 " fill="none" id="Paso1-to-Paso2" style="stroke:#008000;stroke-width:1.0;"/><polygon fill="#008000" points="44,259.3594,48,250.3594,44,254.3594,40,250.3594,44,259.3594" style="stroke:#008000;stroke-width:1.0;"/><path d="M49,210.6094 L49,236.6094 L407,236.6094 L407,220.6094 L397,210.6094 L49,210.6094 " fill="#FFFFE0" style="stroke:#808080;stroke-width:0.5;"/><path d="M397,210.6094 L397,220.6094 L407,220.6094 L397,210.6094 " fill="#FFFFE0" style="stroke:#808080;stroke-width:0.5;"/><text fill="#000000" font-family="sans-serif" font-size="13" font-weight="bold" lengthAdjust="spacing" textLength="51" x="55" y="229.1045">Sistema</text><text fill="#000000" font-family="sans-serif" font-size="13" lengthAdjust="spacing" textLength="282" x="110" y="229.1045">permite mostrar credenciales y datos del usuario</text></g><!--link Paso2 to *end*consultarUsuario--><g id="link_Paso2_*end*consultarUsuario"><path d="M44,309.8294 C44,344.3994 44,400.3794 44,424.5594 " fill="none" id="Paso2-to-*end*consultarUsuario" style="stroke:#008000;stroke-width:1.0;"/><polygon fill="#008000" points="44,430.5594,48,421.5594,44,425.5594,40,421.5594,44,430.5594" style="stroke:#008000;stroke-width:1.0;"/><path d="M49,332.6094 L49,407.6094 L350,407.6094 L350,342.6094 L340,332.6094 L49,332.6094 " fill="#FFFFE0" style="stroke:#808080;stroke-width:0.5;"/><path d="M340,332.6094 L340,342.6094 L350,342.6094 L340,332.6094 " fill="#FFFFE0" style="stroke:#808080;stroke-width:0.5;"/><text fill="#000000" font-family="sans-serif" font-size="13" font-weight="bold" lengthAdjust="spacing" textLength="89" x="55" y="351.1045">Administrador</text><text fill="#000000" font-family="sans-serif" font-size="13" lengthAdjust="spacing" textLength="184" x="148" y="351.1045">revisa la informaci&#243;n del usuario</text><text fill="#000000" font-family="sans-serif" font-size="13" font-weight="bold" lengthAdjust="spacing" textLength="51" x="55" y="367.4561">Sistema</text><text fill="#000000" font-family="sans-serif" font-size="13" lengthAdjust="spacing" textLength="225" x="110" y="367.4561">permite mantener los datos en pantalla</text><text fill="#000000" font-family="sans-serif" font-size="13" lengthAdjust="spacing" textLength="185" x="55" y="383.8076">&#8226; Permite solicitar editar usuario</text><text fill="#000000" font-family="sans-serif" font-size="13" lengthAdjust="spacing" textLength="186" x="55" y="400.1592">&#8226; Permite solicitar cerrar usuario</text></g><g id="USUARIO_ABIERTO"><rect fill="#F5F5F5" height="50" rx="12.5" ry="12.5" style="stroke:#808080;stroke-width:0.5;" width="148" x="31.5" y="683"/><line style="stroke:#808080;stroke-width:0.5;" x1="31.5" x2="179.5" y1="710.6094" y2="710.6094"/><text fill="#000000" font-family="sans-serif" font-size="14" lengthAdjust="spacing" textLength="128" x="41.5" y="702.5332">USUARIO_ABIERTO</text></g><g id="USUARIOS_ABIERTO"><rect fill="#F5F5F5" height="50" rx="12.5" ry="12.5" style="stroke:#808080;stroke-width:0.5;" width="157" x="240" y="683"/><line style="stroke:#808080;stroke-width:0.5;" x1="240" x2="397" y1="710.6094" y2="710.6094"/><text fill="#000000" font-family="sans-serif" font-size="14" lengthAdjust="spacing" textLength="137" x="250" y="702.5332">USUARIOS_ABIERTO</text></g><!--link consultarUsuario to USUARIO_ABIERTO--><g id="link_consultarUsuario_USUARIO_ABIERTO"><path d="M152.4,463.16 C138.93,514.91 128.5,555 128.5,555 C128.5,555 116.5283,634.1276 110.0383,676.9876 " fill="none" id="consultarUsuario-to-USUARIO_ABIERTO" style="stroke:#008000;stroke-width:1.0;"/><polygon fill="#008000" points="109.14,682.92,114.4424,674.6203,109.8886,677.9764,106.5325,673.4226,109.14,682.92" style="stroke:#008000;stroke-width:1.0;"/><path d="M133.5,560 L133.5,586 L238.5,586 L238.5,570 L228.5,560 L133.5,560 " fill="#FFFFE0" style="stroke:#808080;stroke-width:0.5;"/><path d="M228.5,560 L228.5,570 L238.5,570 L228.5,560 " fill="#FFFFE0" style="stroke:#808080;stroke-width:0.5;"/><text fill="#000000" font-family="sans-serif" font-size="13" lengthAdjust="spacing" textLength="84" x="139.5" y="578.4951">editarUsuario()</text></g><!--link consultarUsuario to USUARIOS_ABIERTO--><g id="link_consultarUsuario_USUARIOS_ABIERTO"><path d="M263.12,463.22 C283.16,551.44 302.2208,635.3491 311.7008,677.0791 " fill="none" id="consultarUsuario-to-USUARIOS_ABIERTO" style="stroke:#0000FF;stroke-width:1.0;"/><polygon fill="#0000FF" points="313.03,682.93,314.9368,673.2675,311.9223,678.0542,307.1356,675.0397,313.03,682.93" style="stroke:#0000FF;stroke-width:1.0;"/><path d="M297.5,560 L297.5,586 L404.5,586 L404.5,570 L394.5,560 L297.5,560 " fill="#FFFFE0" style="stroke:#808080;stroke-width:0.5;"/><path d="M394.5,560 L394.5,570 L404.5,570 L394.5,560 " fill="#FFFFE0" style="stroke:#808080;stroke-width:0.5;"/><text fill="#000000" font-family="sans-serif" font-size="13" lengthAdjust="spacing" textLength="86" x="303.5" y="578.4951">cerrar consulta</text></g><!--SRC=[bLFDQjj04BxhAORaq1ymRGtjAHYSaa8kJOZgKmXbh9swYrUpOdQL8agXpz9xJts4l4cV9AELhTYIarBfiDAtCzytyyrkM5kkKB04zeO2LV3kTHPwK93N8z1PfjXK19LtJVkpi_VHHph5OhqINxDvxvqNZLzzZGqvvxyD8xqOaYvg9TZiRESHnqp77zwsxoXiI9E55eQZmdEeNKHPX1h5-kSlZW03367udcMWppCuqqJZ0o3V_M5RwjSj5dU_TMtb8DYoTgWT9I3uaD8sOf2uBnL-SnYUTYhNBszWSdsy4YA-cSnsCbWj0S-jmUi409miPtDJMhOXYbOc9w-MCmZUsS9612rGOO6wwoFb49j4r8abyf7Sz0cvNAMen2HKaPHMWxOwXP0XBYmw2j20mQX667B_A62wLu3s_r_T2jtQWE0GB7_nKc9XTJWZsSUBHux4r4sjAvbOnySHdSDDxj-Vl-1oax2rLu1CMlPb3eSM98zEuaVMdyX5lfXVdLzydf-UdrrzkaXdOu0DGlD3iJsOPQF3_E3rHDqUaYVNfRsHEzvtVVQN97iOuI7sfQjfZpn_cdrZpPQgPxy7]--></g></svg>