<?xml version="1.0" encoding="us-ascii" standalone="no"?><svg xmlns="http://www.w3.org/2000/svg" xmlns:xlink="http://www.w3.org/1999/xlink" contentStyleType="text/css" height="755px" preserveAspectRatio="none" style="width:403px;height:755px;background:#FFFFFF;" version="1.1" viewBox="0 0 403 755" width="403px" zoomAndPan="magnify"><defs/><g><path d="M37.5,7 L336.5,7 A12.5,12.5 0 0 1 349,19.5 L349,34.6094 L25,34.6094 L25,19.5 A12.5,12.5 0 0 1 37.5,7 " fill="#F5F5F5" style="stroke:#F5F5F5;stroke-width:1.0;"/><rect fill="none" height="471.6094" rx="12.5" ry="12.5" style="stroke:#808080;stroke-width:0.5;" width="324" x="25" y="7"/><line style="stroke:#808080;stroke-width:0.5;" x1="25" x2="349" y1="34.6094" y2="34.6094"/><text fill="#000000" font-family="sans-serif" font-size="14" lengthAdjust="spacing" textLength="91" x="141.5" y="26.5332">crearUsuario()</text><g id="crearUsuario.Paso1"><rect fill="#F5F5F5" height="50" rx="12.5" ry="12.5" style="stroke:#808080;stroke-width:0.5;" width="50" x="37" y="137.6094"/><line style="stroke:#808080;stroke-width:0.5;" x1="37" x2="87" y1="165.2188" y2="165.2188"/><text fill="#000000" font-family="sans-serif" font-size="14" lengthAdjust="spacing" textLength="4" x="60" y="157.1426">&#160;</text></g><g id="crearUsuario.Paso2"><rect fill="#F5F5F5" height="50" rx="12.5" ry="12.5" style="stroke:#808080;stroke-width:0.5;" width="50" x="37" y="275.6094"/><line style="stroke:#808080;stroke-width:0.5;" x1="37" x2="87" y1="303.2188" y2="303.2188"/><text fill="#000000" font-family="sans-serif" font-size="14" lengthAdjust="spacing" textLength="4" x="60" y="295.1426">&#160;</text></g><ellipse cx="62" cy="55.6094" fill="#222222" rx="10" ry="10" style="stroke:#222222;stroke-width:1.0;"/><ellipse cx="62" cy="457.6094" fill="none" rx="11" ry="11" style="stroke:#222222;stroke-width:1.0;"/><ellipse cx="62" cy="457.6094" fill="#222222" rx="6" ry="6" style="stroke:#222222;stroke-width:1.0;"/><!--link *start*crearUsuario to Paso1--><g id="link_*start*crearUsuario_Paso1"><path d="M62,65.9294 C62,81.7894 62,108.5194 62,131.2494 " fill="none" id="*start*crearUsuario-to-Paso1" style="stroke:#008000;stroke-width:1.0;"/><polygon fill="#008000" points="62,137.2494,66,128.2494,62,132.2494,58,128.2494,62,137.2494" style="stroke:#008000;stroke-width:1.0;"/><path d="M67,88.6094 L67,114.6094 L338,114.6094 L338,98.6094 L328,88.6094 L67,88.6094 " fill="#FFFFE0" style="stroke:#808080;stroke-width:0.5;"/><path d="M328,88.6094 L328,98.6094 L338,98.6094 L328,88.6094 " fill="#FFFFE0" style="stroke:#808080;stroke-width:0.5;"/><text fill="#000000" font-family="sans-serif" font-size="13" font-weight="bold" lengthAdjust="spacing" textLength="89" x="73" y="107.1045">Administrador</text><text fill="#000000" font-family="sans-serif" font-size="13" lengthAdjust="spacing" textLength="157" x="166" y="107.1045">solicita crear usuario nuevo</text></g><!--link Paso1 to Paso2--><g id="link_Paso1_Paso2"><path d="M62,187.6094 C62,212.3194 62,244.6094 62,269.3894 " fill="none" id="Paso1-to-Paso2" style="stroke:#008000;stroke-width:1.0;"/><polygon fill="#008000" points="62,275.3894,66,266.3894,62,270.3894,58,266.3894,62,275.3894" style="stroke:#008000;stroke-width:1.0;"/><path d="M67,210.6094 L67,252.6094 L340,252.6094 L340,220.6094 L330,210.6094 L67,210.6094 " fill="#FFFFE0" style="stroke:#808080;stroke-width:0.5;"/><path d="M330,210.6094 L330,220.6094 L340,220.6094 L330,210.6094 " fill="#FFFFE0" style="stroke:#808080;stroke-width:0.5;"/><text fill="#000000" font-family="sans-serif" font-size="13" font-weight="bold" lengthAdjust="spacing" textLength="51" x="73" y="229.1045">Sistema</text><text fill="#000000" font-family="sans-serif" font-size="13" lengthAdjust="spacing" textLength="197" x="128" y="229.1045">solicita datos m&#237;nimos del usuario</text><text fill="#000000" font-family="sans-serif" font-size="13" lengthAdjust="spacing" textLength="209" x="73" y="245.4561">&#8226; Correo o ID de usuario (obligatorio)</text></g><!--link Paso2 to *end*crearUsuario--><g id="link_Paso2_*end*crearUsuario"><path d="M62,325.8294 C62,360.3994 62,416.3794 62,440.5594 " fill="none" id="Paso2-to-*end*crearUsuario" style="stroke:#008000;stroke-width:1.0;"/><polygon fill="#008000" points="62,446.5594,66,437.5594,62,441.5594,58,437.5594,62,446.5594" style="stroke:#008000;stroke-width:1.0;"/><path d="M67,348.6094 L67,423.6094 L337,423.6094 L337,358.6094 L327,348.6094 L67,348.6094 " fill="#FFFFE0" style="stroke:#808080;stroke-width:0.5;"/><path d="M327,348.6094 L327,358.6094 L337,358.6094 L327,348.6094 " fill="#FFFFE0" style="stroke:#808080;stroke-width:0.5;"/><text fill="#000000" font-family="sans-serif" font-size="13" font-weight="bold" lengthAdjust="spacing" textLength="89" x="73" y="367.1045">Administrador</text><text fill="#000000" font-family="sans-serif" font-size="13" lengthAdjust="spacing" textLength="156" x="166" y="367.1045">proporciona datos m&#237;nimos</text><text fill="#000000" font-family="sans-serif" font-size="13" font-weight="bold" lengthAdjust="spacing" textLength="51" x="73" y="383.4561">Sistema</text><text fill="#000000" font-family="sans-serif" font-size="13" lengthAdjust="spacing" textLength="122" x="128" y="383.4561">permite crear usuario</text><text fill="#000000" font-family="sans-serif" font-size="13" lengthAdjust="spacing" textLength="182" x="73" y="399.8076">&#8226; Permite solicitar crear usuario</text><text fill="#000000" font-family="sans-serif" font-size="13" lengthAdjust="spacing" textLength="209" x="73" y="416.1592">&#8226; Permite solicitar cancelar creaci&#243;n</text></g><g id="USUARIO_ABIERTO"><rect fill="#F5F5F5" height="50" rx="12.5" ry="12.5" style="stroke:#808080;stroke-width:0.5;" width="148" x="7" y="699"/><line style="stroke:#808080;stroke-width:0.5;" x1="7" x2="155" y1="726.6094" y2="726.6094"/><text fill="#000000" font-family="sans-serif" font-size="14" lengthAdjust="spacing" textLength="128" x="17" y="718.5332">USUARIO_ABIERTO</text></g><g id="USUARIOS_ABIERTO"><rect fill="#F5F5F5" height="50" rx="12.5" ry="12.5" style="stroke:#808080;stroke-width:0.5;" width="157" x="215.5" y="699"/><line style="stroke:#808080;stroke-width:0.5;" x1="215.5" x2="372.5" y1="726.6094" y2="726.6094"/><text fill="#000000" font-family="sans-serif" font-size="14" lengthAdjust="spacing" textLength="137" x="225.5" y="718.5332">USUARIOS_ABIERTO</text></g><!--link crearUsuario to USUARIO_ABIERTO--><g id="link_crearUsuario_USUARIO_ABIERTO"><path d="M127.34,479.04 C114.14,531.03 104,571 104,571 C104,571 92.0283,650.1276 85.5383,692.9876 " fill="none" id="crearUsuario-to-USUARIO_ABIERTO" style="stroke:#008000;stroke-width:1.0;"/><polygon fill="#008000" points="84.64,698.92,89.9424,690.6203,85.3886,693.9764,82.0325,689.4226,84.64,698.92" style="stroke:#008000;stroke-width:1.0;"/><path d="M109,576 L109,602 L214,602 L214,586 L204,576 L109,576 " fill="#FFFFE0" style="stroke:#808080;stroke-width:0.5;"/><path d="M204,576 L204,586 L214,586 L204,576 " fill="#FFFFE0" style="stroke:#808080;stroke-width:0.5;"/><text fill="#000000" font-family="sans-serif" font-size="13" lengthAdjust="spacing" textLength="84" x="115" y="594.4951">editarUsuario()</text></g><!--link crearUsuario to USUARIOS_ABIERTO--><g id="link_crearUsuario_USUARIOS_ABIERTO"><path d="M239.56,479.29 C259.33,567.78 277.9507,651.1746 287.2707,692.8546 " fill="none" id="crearUsuario-to-USUARIOS_ABIERTO" style="stroke:#0000FF;stroke-width:1.0;"/><polygon fill="#0000FF" points="288.58,698.71,290.5196,689.054,287.4889,693.8305,282.7124,690.7998,288.58,698.71" style="stroke:#0000FF;stroke-width:1.0;"/><path d="M273,576 L273,602 L396,602 L396,586 L386,576 L273,576 " fill="#FFFFE0" style="stroke:#808080;stroke-width:0.5;"/><path d="M386,576 L386,586 L396,586 L386,576 " fill="#FFFFE0" style="stroke:#808080;stroke-width:0.5;"/><text fill="#000000" font-family="sans-serif" font-size="13" lengthAdjust="spacing" textLength="102" x="279" y="594.4951">cancelar creaci&#243;n</text></g><!--SRC=[bLFBQkD04BphAvhaa0UO98RTKp0uB_0b2T7w5C8orZJEuD6qw94IJ0ZaM_QUqtw2_sI_P5iZMP5a9n3f8AcckwghDECNncMALGgED7hCuETnv1kGbLjiWDOup9SPGaPsMNwqrgufnpELBEPCXTFdP8cbVlwOBz5QUkvN4clagchEQjbQZdEroRHxzQEyDyhwD94lOTX961LFVQ7OqFx13YWFRGXUeWZaseDBQT3aGRdLNsTIUNjIoUfTdgKCU9CMLecJ07ZoeQqMWS1xA_39TdXOgTmVFi3WVdVEYEvXC6frE8a2o9N1BW80S3eRZNLgdF4vosHyUZGRWITh4fEhoWGKjGjNu1E5FdGwa5M2GM13SlY5P2nocAgkc5Qvs4vNxrKm6krQkMxyz_O7peaP2GWc5rBHZBPFC_dxGY0V1v-CEEoCA2bzAvECAIDE3Bd-fDjjPSYf4UfEX2qZj_NwsZv_frAv16tTaXZPIbtBhyt6dCRJyTtavlVuR79vz-icR9KUrYkDjzKsO1HrzlL7e0E9j4ySekNoKBO2HbrQQCvAzF6V-impMs27EFwQUKigQ_B_]--></g></svg>