<svg xmlns="http://www.w3.org/2000/svg" xmlns:xlink="http://www.w3.org/1999/xlink" version="1.1" data-diagram-type="STATE" style="width:435px;height:785px;background:#FFFFFF;" width="435px" height="785px" viewBox="0 0 435 785" zoomAndPan="magnify" preserveAspectRatio="none" contentStyleType="text/css"><?plantuml 1.2026.7beta8?><defs/><g font-family="sans-serif" lengthAdjust="spacing"><g class="entity" data-qualified-name="crearUsuario" id="ent0001" data-source-line="9"><path d="M19.5,7 L373.5,7 A12.5,12.5 0 0 1 386,19.5 L386,33.297 L7,33.297 L7,19.5 A12.5,12.5 0 0 1 19.5,7" fill="#F5F5F5"/><path d="M7,33.297 L386,33.297 L386,489.797 A12.5,12.5 0 0 1 373.5,502.297 L19.5,502.297 A12.5,12.5 0 0 1 7,489.797 L7,33.297" fill="#F5F5F5"/><rect x="7" y="7" width="379" height="495.297" fill="none" style="stroke:#808080;stroke-width:0.5;" rx="12.5" ry="12.5"/><line x1="7" y1="33.297" x2="386" y2="33.297" style="stroke:#808080;stroke-width:0.5;"/><text x="146.235" y="24.995" fill="#000" font-size="14" textLength="100.529">crearUsuario()</text><g class="entity" data-qualified-name="crearUsuario.Paso1" id="ent0002" data-source-line="12"><rect x="19" y="135.297" width="50" height="50" fill="#F5F5F5" style="stroke:#808080;stroke-width:0.5;" rx="12.5" ry="12.5"/><line x1="19" y1="161.594" x2="69" y2="161.594" style="stroke:#808080;stroke-width:0.5;"/><text x="41.775" y="153.292" fill="#000" font-size="14"> </text></g><g class="entity" data-qualified-name="crearUsuario.Paso2" id="ent0003" data-source-line="13"><rect x="19" y="301.297" width="50" height="50" fill="#F5F5F5" style="stroke:#808080;stroke-width:0.5;" rx="12.5" ry="12.5"/><line x1="19" y1="327.594" x2="69" y2="327.594" style="stroke:#808080;stroke-width:0.5;"/><text x="41.775" y="319.292" fill="#000" font-size="14"> </text></g><g class="start_entity" data-qualified-name="crearUsuario..start.crearUsuario" id="ent0006" data-source-line="15"><ellipse cx="44" cy="54.297" rx="10" ry="10" fill="#222" style="stroke:#222;stroke-width:1;"/></g><g class="end_entity" data-qualified-name="crearUsuario..end.crearUsuario" id="ent0009" data-source-line="28"><ellipse cx="44" cy="478.297" rx="11" ry="11" fill="none" style="stroke:#222;stroke-width:1;"/><ellipse cx="44" cy="478.297" rx="6" ry="6" fill="#222" style="stroke:#222;stroke-width:1;"/></g><!--link *start*crearUsuario to Paso1--><g class="link" data-entity-1="ent0006" data-entity-2="ent0002" id="lnk7" data-source-line="15" data-link-type="dependency"><path d="M44,64.527 C44,80.237 44,107.657 44,130.167" style="stroke:#008000;stroke-width:1;" fill="none" id="*start*crearUsuario-to-Paso1"/><polygon points="44,135.167,48,126.167,44,130.167,40,126.167,44,135.167" fill="#008000" style="stroke:#008000;stroke-width:1;stroke-linejoin:miter;stroke-miterlimit:10;"/><path d="M49,87.297 L49,112.297 L359,112.297 L359,97.297 L349,87.297 L49,87.297" style="stroke:#808080;stroke-width:0.5;" fill="#FFFFE0"/><path d="M349,87.297 L349,97.297 L359,97.297 L349,87.297" style="stroke:#808080;stroke-width:0.5;" fill="#FFFFE0"/><text x="55" y="104.364" fill="#000" font-size="13" textLength="104.863" font-weight="700">Administrador</text><text x="163.996" y="104.364" fill="#000" font-size="13" textLength="180.223">solicita crear usuario nuevo</text></g><!--link Paso1 to Paso2--><g class="link" data-entity-1="ent0002" data-entity-2="ent0003" id="lnk8" data-source-line="20" data-link-type="dependency"><path d="M44,185.497 C44,216.507 44,264.947 44,295.997" style="stroke:#008000;stroke-width:1;" fill="none" id="Paso1-to-Paso2"/><polygon points="44,300.997,48,291.997,44,295.997,40,291.997,44,300.997" fill="#008000" style="stroke:#008000;stroke-width:1;stroke-linejoin:miter;stroke-miterlimit:10;"/><path d="M49,208.297 L49,278.297 L362,278.297 L362,218.297 L352,208.297 L49,208.297" style="stroke:#808080;stroke-width:0.5;" fill="#FFFFE0"/><path d="M352,208.297 L352,218.297 L362,218.297 L352,208.297" style="stroke:#808080;stroke-width:0.5;" fill="#FFFFE0"/><text x="55" y="225.364" fill="#000" font-size="13" textLength="58.906" font-weight="700">Sistema</text><text x="118.039" y="225.364" fill="#000" font-size="13" textLength="219.864">solicita ingresar datos del usuario</text><text x="55" y="240.497" fill="#000" font-size="13" textLength="292.449">• Nombres Completos y Apellidos Completos</text><text x="55" y="255.629" fill="#000" font-size="13" textLength="249.285">• DNI / Pasaporte y Correo Electrónico</text><text x="55" y="270.762" fill="#000" font-size="13" textLength="125.004">• Rol en el Sistema</text></g><!--link Paso2 to *end*crearUsuario--><g class="link" data-entity-1="ent0003" data-entity-2="ent0009" id="lnk10" data-source-line="28" data-link-type="dependency"><path d="M44,351.727 C44,385.107 44,438.477 44,462.017" style="stroke:#008000;stroke-width:1;" fill="none" id="Paso2-to-*end*crearUsuario"/><polygon points="44,467.017,48,458.017,44,462.017,40,458.017,44,467.017" fill="#008000" style="stroke:#008000;stroke-width:1;stroke-linejoin:miter;stroke-miterlimit:10;"/><path d="M49,374.297 L49,444.297 L356,444.297 L356,384.297 L346,374.297 L49,374.297" style="stroke:#808080;stroke-width:0.5;" fill="#FFFFE0"/><path d="M346,374.297 L346,384.297 L356,384.297 L346,374.297" style="stroke:#808080;stroke-width:0.5;" fill="#FFFFE0"/><text x="55" y="391.364" fill="#000" font-size="13" textLength="104.863" font-weight="700">Administrador</text><text x="163.996" y="391.364" fill="#000" font-size="13" textLength="177.842">proporciona datos mínimos</text><text x="55" y="406.497" fill="#000" font-size="13" textLength="58.906" font-weight="700">Sistema</text><text x="118.039" y="406.497" fill="#000" font-size="13" textLength="141.159">permite crear usuario</text><text x="55" y="421.629" fill="#000" font-size="13" textLength="207.797">• Permite solicitar crear usuario</text><text x="55" y="436.762" fill="#000" font-size="13" textLength="236.698">• Permite solicitar cancelar creación</text></g></g><g class="entity" data-qualified-name="USUARIO_ABIERTO" id="ent0004" data-source-line="37"><rect x="12.36" y="721.3" width="152.289" height="50" fill="#F5F5F5" style="stroke:#808080;stroke-width:0.5;" rx="12.5" ry="12.5"/><line x1="12.36" y1="747.597" x2="164.649" y2="747.597" style="stroke:#808080;stroke-width:0.5;"/><text x="22.36" y="739.295" fill="#000" font-size="14" textLength="132.289">USUARIO_ABIERTO</text></g><g class="entity" data-qualified-name="USUARIOS_ABIERTO" id="ent0005" data-source-line="38"><rect x="224.91" y="721.3" width="161.176" height="50" fill="#F5F5F5" style="stroke:#808080;stroke-width:0.5;" rx="12.5" ry="12.5"/><line x1="224.91" y1="747.597" x2="386.086" y2="747.597" style="stroke:#808080;stroke-width:0.5;"/><text x="234.91" y="739.295" fill="#000" font-size="14" textLength="141.176">USUARIOS_ABIERTO</text></g><!--link crearUsuario to USUARIO_ABIERTO--><g class="link" data-entity-1="ent0001" data-entity-2="ent0004" id="lnk11" data-source-line="40" data-link-type="dependency"><path d="M127.94,502.66 C113.48,554.74 102.5,594.3 102.5,594.3 C102.5,594.3 95.172,673.381 91.212,716.061" style="stroke:#008000;stroke-width:1;" fill="none" id="crearUsuario-to-USUARIO_ABIERTO"/><polygon points="90.75,721.04,95.564,712.448,91.212,716.061,87.599,711.709,90.75,721.04" fill="#008000" style="stroke:#008000;stroke-width:1;stroke-linejoin:miter;stroke-miterlimit:10;"/><path d="M107.5,599.3 L107.5,624.3 L225.5,624.3 L225.5,609.3 L215.5,599.3 L107.5,599.3" style="stroke:#808080;stroke-width:0.5;" fill="#FFFFE0"/><path d="M215.5,599.3 L215.5,609.3 L225.5,609.3 L215.5,599.3" style="stroke:#808080;stroke-width:0.5;" fill="#FFFFE0"/><text x="113.5" y="616.367" fill="#000" font-size="13" textLength="97.817">editarUsuario()</text></g><!--link crearUsuario to USUARIOS_ABIERTO--><g class="link" data-entity-1="ent0001" data-entity-2="ent0005" id="lnk12" data-source-line="45" data-link-type="dependency"><path d="M251.48,502.63 C271.21,591.28 289.784,674.679 298.994,716.079" style="stroke:#00F;stroke-width:1;" fill="none" id="crearUsuario-to-USUARIOS_ABIERTO"/><polygon points="300.08,720.96,302.03,711.306,298.994,716.079,294.221,713.043,300.08,720.96" fill="#00F" style="stroke:#00F;stroke-width:1;stroke-linejoin:miter;stroke-miterlimit:10;"/><path d="M285.5,599.3 L285.5,624.3 L420.5,624.3 L420.5,609.3 L410.5,599.3 L285.5,599.3" style="stroke:#808080;stroke-width:0.5;" fill="#FFFFE0"/><path d="M410.5,599.3 L410.5,609.3 L420.5,609.3 L410.5,599.3" style="stroke:#808080;stroke-width:0.5;" fill="#FFFFE0"/><text x="291.5" y="616.367" fill="#000" font-size="13" textLength="114.962">cancelar creación</text></g><?plantuml-src bLFRQjj047tNLmp9GozWqXhQfs1mKXVyaWIhVWgXhBM3ktYr8sQb554A_PQ-vwcVu3_fbsHs8wkwk84WZEIpPywPERlhTyOLYbKEZZHwBE3ZkyIt82kt6u7ME2ph0g4WMuS_dRKhAl52PRijK-Nq9LbYuM-_bJLQIz-7J6AD_CJQigexoscfnagddp-4PqGRoYG-m72ICIfU-qgneTTlJa1vw4Bm8m60y8DNi90QJHwKs_zn9fUlUvNj7-GTdC2RlB9AXec09n_B6X-8qZS2lpyEJrkZsxTtCBaztJAYkvlCEaLE0W5o8TvT103EDxEvpeqplcHfZi_FDZFmP4rcIlKq2bJDBAx2Uufrw7GKQpsZnyXr-enhAewOgxwVSLBlnLAhKbBGQ0_cJU7VNxzbM_EDiE2Iyi9YuDKmBsJpJGYtHJiLdwwMS1OwKWMnD5CBYna95XQpaiDkP5s75LaP4SIzwVB_GqzxGqlqBmgwO9AECaDEDIFd-uTuD8u7LI3dHgHx-z9f_APPFmJABs4gbw5jIZ8ZeVId_jcU-NMwdg-Mrr_d5yl5wijrF883R41DZt5RC4bwL-PVe1E9T2WSe-Lmtpi1emuZjDSmQPiUAMziXJtXz7db8waSn1y1?></g></svg>