<svg xmlns="http://www.w3.org/2000/svg" xmlns:xlink="http://www.w3.org/1999/xlink" version="1.1" data-diagram-type="STATE" style="width:421px;height:785px;background:#FFFFFF;" width="421px" height="785px" viewBox="0 0 421 785" zoomAndPan="magnify" preserveAspectRatio="none" contentStyleType="text/css"><?plantuml 1.2026.7beta8?><defs/><g font-family="sans-serif" lengthAdjust="spacing"><g class="entity" data-qualified-name="editarUsuario" id="ent0001" data-source-line="9"><path d="M19.5,7 L393.5,7 A12.5,12.5 0 0 1 406,19.5 L406,33.297 L7,33.297 L7,19.5 A12.5,12.5 0 0 1 19.5,7" fill="#F5F5F5"/><path d="M7,33.297 L406,33.297 L406,489.797 A12.5,12.5 0 0 1 393.5,502.297 L19.5,502.297 A12.5,12.5 0 0 1 7,489.797 L7,33.297" fill="#F5F5F5"/><rect x="7" y="7" width="399" height="495.297" fill="none" style="stroke:#808080;stroke-width:0.5;" rx="12.5" ry="12.5"/><line x1="7" y1="33.297" x2="406" y2="33.297" style="stroke:#808080;stroke-width:0.5;"/><text x="153.829" y="24.995" fill="#000" font-size="14" textLength="105.342">editarUsuario()</text><g class="entity" data-qualified-name="editarUsuario.Paso1" id="ent0002" data-source-line="12"><rect x="19" y="135.297" width="50" height="50" fill="#F5F5F5" style="stroke:#808080;stroke-width:0.5;" rx="12.5" ry="12.5"/><line x1="19" y1="161.594" x2="69" y2="161.594" style="stroke:#808080;stroke-width:0.5;"/><text x="41.775" y="153.292" fill="#000" font-size="14"> </text></g><g class="entity" data-qualified-name="editarUsuario.Paso2" id="ent0003" data-source-line="13"><rect x="19" y="301.297" width="50" height="50" fill="#F5F5F5" style="stroke:#808080;stroke-width:0.5;" rx="12.5" ry="12.5"/><line x1="19" y1="327.594" x2="69" y2="327.594" style="stroke:#808080;stroke-width:0.5;"/><text x="41.775" y="319.292" fill="#000" font-size="14"> </text></g><g class="start_entity" data-qualified-name="editarUsuario..start.editarUsuario" id="ent0005" data-source-line="15"><ellipse cx="44" cy="54.297" rx="10" ry="10" fill="#222" style="stroke:#222;stroke-width:1;"/></g><g class="end_entity" data-qualified-name="editarUsuario..end.editarUsuario" id="ent0008" data-source-line="28"><ellipse cx="44" cy="478.297" rx="11" ry="11" fill="none" style="stroke:#222;stroke-width:1;"/><ellipse cx="44" cy="478.297" rx="6" ry="6" fill="#222" style="stroke:#222;stroke-width:1;"/></g><!--link *start*editarUsuario to Paso1--><g class="link" data-entity-1="ent0005" data-entity-2="ent0002" id="lnk6" data-source-line="15" data-link-type="dependency"><path d="M44,64.527 C44,80.237 44,107.657 44,130.167" style="stroke:#008000;stroke-width:1;" fill="none" id="*start*editarUsuario-to-Paso1"/><polygon points="44,135.167,48,126.167,44,130.167,40,126.167,44,135.167" fill="#008000" style="stroke:#008000;stroke-width:1;stroke-linejoin:miter;stroke-miterlimit:10;"/><path d="M49,87.297 L49,112.297 L319,112.297 L319,97.297 L309,87.297 L49,87.297" style="stroke:#808080;stroke-width:0.5;" fill="#FFFFE0"/><path d="M309,87.297 L309,97.297 L319,97.297 L309,87.297" style="stroke:#808080;stroke-width:0.5;" fill="#FFFFE0"/><text x="55" y="104.364" fill="#000" font-size="13" textLength="104.863" font-weight="700">Administrador</text><text x="163.996" y="104.364" fill="#000" font-size="13" textLength="140.436">solicita editar usuario</text></g><!--link Paso1 to Paso2--><g class="link" data-entity-1="ent0002" data-entity-2="ent0003" id="lnk7" data-source-line="20" data-link-type="dependency"><path d="M44,185.497 C44,216.507 44,264.947 44,295.997" style="stroke:#008000;stroke-width:1;" fill="none" id="Paso1-to-Paso2"/><polygon points="44,300.997,48,291.997,44,295.997,40,291.997,44,300.997" fill="#008000" style="stroke:#008000;stroke-width:1;stroke-linejoin:miter;stroke-miterlimit:10;"/><path d="M49,208.297 L49,278.297 L362,278.297 L362,218.297 L352,208.297 L49,208.297" style="stroke:#808080;stroke-width:0.5;" fill="#FFFFE0"/><path d="M352,208.297 L352,218.297 L362,218.297 L352,208.297" style="stroke:#808080;stroke-width:0.5;" fill="#FFFFE0"/><text x="55" y="225.364" fill="#000" font-size="13" textLength="58.906" font-weight="700">Sistema</text><text x="118.039" y="225.364" fill="#000" font-size="13" textLength="220.968">solicita ingresar datos a modificar</text><text x="55" y="240.497" fill="#000" font-size="13" textLength="292.449">• Nombres Completos y Apellidos Completos</text><text x="55" y="255.629" fill="#000" font-size="13" textLength="131.923">• Correo Electrónico</text><text x="55" y="270.762" fill="#000" font-size="13" textLength="185.218">• Rol en el Sistema y Estado</text></g><!--link Paso2 to *end*editarUsuario--><g class="link" data-entity-1="ent0003" data-entity-2="ent0008" id="lnk9" data-source-line="28" data-link-type="dependency"><path d="M44,351.727 C44,385.107 44,438.477 44,462.017" style="stroke:#008000;stroke-width:1;" fill="none" id="Paso2-to-*end*editarUsuario"/><polygon points="44,467.017,48,458.017,44,462.017,40,458.017,44,467.017" fill="#008000" style="stroke:#008000;stroke-width:1;stroke-linejoin:miter;stroke-miterlimit:10;"/><path d="M49,374.297 L49,444.297 L382,444.297 L382,384.297 L372,374.297 L49,374.297" style="stroke:#808080;stroke-width:0.5;" fill="#FFFFE0"/><path d="M372,374.297 L372,384.297 L382,384.297 L372,374.297" style="stroke:#808080;stroke-width:0.5;" fill="#FFFFE0"/><text x="55" y="391.364" fill="#000" font-size="13" textLength="104.863" font-weight="700">Administrador</text><text x="163.996" y="391.364" fill="#000" font-size="13" textLength="203.734">proporciona datos actualizados</text><text x="55" y="406.497" fill="#000" font-size="13" textLength="58.906" font-weight="700">Sistema</text><text x="118.039" y="406.497" fill="#000" font-size="13" textLength="145.628">permite editar usuario</text><text x="55" y="421.629" fill="#000" font-size="13" textLength="231.601">• Permite solicitar guardar cambios</text><text x="55" y="436.762" fill="#000" font-size="13" textLength="213.142">• Permite solicitar cerrar usuario</text></g></g><g class="entity" data-qualified-name="USUARIOS_ABIERTO" id="ent0004" data-source-line="38"><rect x="125.91" y="721.3" width="161.176" height="50" fill="#F5F5F5" style="stroke:#808080;stroke-width:0.5;" rx="12.5" ry="12.5"/><line x1="125.91" y1="747.597" x2="287.086" y2="747.597" style="stroke:#808080;stroke-width:0.5;"/><text x="135.91" y="739.295" fill="#000" font-size="14" textLength="141.176">USUARIOS_ABIERTO</text></g><!--link editarUsuario to USUARIOS_ABIERTO--><g class="link" data-entity-1="ent0001" data-entity-2="ent0004" id="lnk10" data-source-line="40" data-link-type="dependency"><path d="M129.19,502.66 C112.88,554.74 100.5,594.3 100.5,594.3 C100.5,594.3 100.5,629.3 100.5,629.3 C100.5,629.3 149.827,683.279 180.907,717.289" style="stroke:#008000;stroke-width:1;" fill="none" id="editarUsuario-to-USUARIOS_ABIERTO"/><polygon points="184.28,720.98,181.161,711.638,180.907,717.289,175.256,717.035,184.28,720.98" fill="#008000" style="stroke:#008000;stroke-width:1;stroke-linejoin:miter;stroke-miterlimit:10;"/><path d="M105.5,599.3 L105.5,624.3 L222.5,624.3 L222.5,609.3 L212.5,599.3 L105.5,599.3" style="stroke:#808080;stroke-width:0.5;" fill="#FFFFE0"/><path d="M212.5,599.3 L212.5,609.3 L222.5,609.3 L212.5,599.3" style="stroke:#808080;stroke-width:0.5;" fill="#FFFFE0"/><text x="111.5" y="616.367" fill="#000" font-size="13" textLength="96.84">abrirUsuarios()</text></g><!--link editarUsuario to USUARIOS_ABIERTO--><g class="link" data-entity-1="ent0001" data-entity-2="ent0004" id="lnk11" data-source-line="45" data-link-type="dependency"><path d="M229.84,502.66 C234.76,554.74 238.5,594.3 238.5,594.3 C238.5,594.3 238.5,629.3 238.5,629.3 C238.5,629.3 223.919,682.15 214.539,716.16" style="stroke:#00F;stroke-width:1;" fill="none" id="editarUsuario-to-USUARIOS_ABIERTO-1"/><polygon points="213.21,720.98,219.459,713.367,214.539,716.16,211.747,711.24,213.21,720.98" fill="#00F" style="stroke:#00F;stroke-width:1;stroke-linejoin:miter;stroke-miterlimit:10;"/><path d="M243.5,599.3 L243.5,624.3 L370.5,624.3 L370.5,609.3 L360.5,599.3 L243.5,599.3" style="stroke:#808080;stroke-width:0.5;" fill="#FFFFE0"/><path d="M360.5,599.3 L360.5,609.3 L370.5,609.3 L360.5,599.3" style="stroke:#808080;stroke-width:0.5;" fill="#FFFFE0"/><text x="249.5" y="616.367" fill="#000" font-size="13" textLength="106.368">cancelar edición</text></g><?plantuml-src bLF1Qjj04BthAuRaqAHWsXhQKp0uneLScc3Nfn3AQdVgBDxT4RDIYriA_PRUU-edv4_w9PsLPLMod40mHlRRD-_jl1d5ZGs5OkKXaC681RnxdSKMP1Ks0z3PWEMsG2Z8RTEVpja7Al5IwSsQgGfcHevO-ElxSelEqTT39h51th7MhBQTusMfXagdxz-cpu1sA9F51CC96bigNiLAiQMpynDG4NeOVCy087tX1Sobob045Hx-1ElbrnUb7txBCtb1jBvoIjgfWKYnBckSeDQ-4VZDSNZS6js-l8FHxUcQ4SFTQD8f2X89K4W1Rse0u2AVJ8stmSQIvN9yyIgVG2HdjNJHz0BLhfcw18EfTLgxMdvWE7x2S2bcw5NVoWQfZs9cL9ao0a_6VhPQSLFuz-SlcQdFXGKpyeN3nDl2j939svHhYtOgPiIC17E7kkGKkwREwOASD0JeeBcJwEscz7Ylurwl4lQpeYsO2c9jAQXzfxgibBFVqceSpwX0zbRaZqnZryPDGzY7ALig52DFhNnkUu4CkHgP7nloZwpTzTLoDLrSNIy_JI-lvekFr_Nc7O9Prb___r6D9Am1kqwDq-lRoKxbRFS2yUmyQoyprCvTXS-HrYfeJE-OA6ahwz2A_mC0?></g></svg>