<?xml version="1.0" encoding="us-ascii" standalone="no"?><svg xmlns="http://www.w3.org/2000/svg" xmlns:xlink="http://www.w3.org/1999/xlink" contentStyleType="text/css" height="739px" preserveAspectRatio="none" style="width:415px;height:739px;background:#FFFFFF;" version="1.1" viewBox="0 0 415 739" width="415px" zoomAndPan="magnify"><defs/><g><path d="M19.5,7 L389.5,7 A12.5,12.5 0 0 1 402,19.5 L402,34.6094 L7,34.6094 L7,19.5 A12.5,12.5 0 0 1 19.5,7 " fill="#F5F5F5" style="stroke:#F5F5F5;stroke-width:1.0;"/><rect fill="none" height="455.6094" rx="12.5" ry="12.5" style="stroke:#808080;stroke-width:0.5;" width="395" x="7" y="7"/><line style="stroke:#808080;stroke-width:0.5;" x1="7" x2="402" y1="34.6094" y2="34.6094"/><text fill="#000000" font-family="sans-serif" font-size="14" lengthAdjust="spacing" textLength="94" x="157.5" y="26.5332">editarUsuario()</text><g id="editarUsuario.Paso1"><rect fill="#F5F5F5" height="50" rx="12.5" ry="12.5" style="stroke:#808080;stroke-width:0.5;" width="50" x="19" y="137.6094"/><line style="stroke:#808080;stroke-width:0.5;" x1="19" x2="69" y1="165.2188" y2="165.2188"/><text fill="#000000" font-family="sans-serif" font-size="14" lengthAdjust="spacing" textLength="4" x="42" y="157.1426">&#160;</text></g><g id="editarUsuario.Paso2"><rect fill="#F5F5F5" height="50" rx="12.5" ry="12.5" style="stroke:#808080;stroke-width:0.5;" width="50" x="19" y="259.6094"/><line style="stroke:#808080;stroke-width:0.5;" x1="19" x2="69" y1="287.2188" y2="287.2188"/><text fill="#000000" font-family="sans-serif" font-size="14" lengthAdjust="spacing" textLength="4" x="42" y="279.1426">&#160;</text></g><ellipse cx="44" cy="55.6094" fill="#222222" rx="10" ry="10" style="stroke:#222222;stroke-width:1.0;"/><ellipse cx="44" cy="441.6094" fill="none" rx="11" ry="11" style="stroke:#222222;stroke-width:1.0;"/><ellipse cx="44" cy="441.6094" fill="#222222" rx="6" ry="6" style="stroke:#222222;stroke-width:1.0;"/><!--link *start*editarUsuario to Paso1--><g id="link_*start*editarUsuario_Paso1"><path d="M44,65.9294 C44,81.7894 44,108.5194 44,131.2494 " fill="none" id="*start*editarUsuario-to-Paso1" style="stroke:#008000;stroke-width:1.0;"/><polygon fill="#008000" points="44,137.2494,48,128.2494,44,132.2494,40,128.2494,44,137.2494" style="stroke:#008000;stroke-width:1.0;"/><path d="M49,88.6094 L49,114.6094 L286,114.6094 L286,98.6094 L276,88.6094 L49,88.6094 " fill="#FFFFE0" style="stroke:#808080;stroke-width:0.5;"/><path d="M276,88.6094 L276,98.6094 L286,98.6094 L276,88.6094 " fill="#FFFFE0" style="stroke:#808080;stroke-width:0.5;"/><text fill="#000000" font-family="sans-serif" font-size="13" font-weight="bold" lengthAdjust="spacing" textLength="89" x="55" y="107.1045">Administrador</text><text fill="#000000" font-family="sans-serif" font-size="13" lengthAdjust="spacing" textLength="123" x="148" y="107.1045">solicita editar usuario</text></g><!--link Paso1 to Paso2--><g id="link_Paso1_Paso2"><path d="M44,187.8894 C44,208.7094 44,232.5494 44,253.3594 " fill="none" id="Paso1-to-Paso2" style="stroke:#008000;stroke-width:1.0;"/><polygon fill="#008000" points="44,259.3594,48,250.3594,44,254.3594,40,250.3594,44,259.3594" style="stroke:#008000;stroke-width:1.0;"/><path d="M49,210.6094 L49,236.6094 L393,236.6094 L393,220.6094 L383,210.6094 L49,210.6094 " fill="#FFFFE0" style="stroke:#808080;stroke-width:0.5;"/><path d="M383,210.6094 L383,220.6094 L393,220.6094 L383,210.6094 " fill="#FFFFE0" style="stroke:#808080;stroke-width:0.5;"/><text fill="#000000" font-family="sans-serif" font-size="13" font-weight="bold" lengthAdjust="spacing" textLength="51" x="55" y="229.1045">Sistema</text><text fill="#000000" font-family="sans-serif" font-size="13" lengthAdjust="spacing" textLength="268" x="110" y="229.1045">permite mostrar los datos actuales del usuario</text></g><!--link Paso2 to *end*editarUsuario--><g id="link_Paso2_*end*editarUsuario"><path d="M44,309.8294 C44,344.3994 44,400.3794 44,424.5594 " fill="none" id="Paso2-to-*end*editarUsuario" style="stroke:#008000;stroke-width:1.0;"/><polygon fill="#008000" points="44,430.5594,48,421.5594,44,425.5594,40,421.5594,44,430.5594" style="stroke:#008000;stroke-width:1.0;"/><path d="M49,332.6094 L49,407.6094 L343,407.6094 L343,342.6094 L333,332.6094 L49,332.6094 " fill="#FFFFE0" style="stroke:#808080;stroke-width:0.5;"/><path d="M333,332.6094 L333,342.6094 L343,342.6094 L333,332.6094 " fill="#FFFFE0" style="stroke:#808080;stroke-width:0.5;"/><text fill="#000000" font-family="sans-serif" font-size="13" font-weight="bold" lengthAdjust="spacing" textLength="89" x="55" y="351.1045">Administrador</text><text fill="#000000" font-family="sans-serif" font-size="13" lengthAdjust="spacing" textLength="180" x="148" y="351.1045">proporciona datos actualizados</text><text fill="#000000" font-family="sans-serif" font-size="13" font-weight="bold" lengthAdjust="spacing" textLength="51" x="55" y="367.4561">Sistema</text><text fill="#000000" font-family="sans-serif" font-size="13" lengthAdjust="spacing" textLength="125" x="110" y="367.4561">permite editar usuario</text><text fill="#000000" font-family="sans-serif" font-size="13" lengthAdjust="spacing" textLength="203" x="55" y="383.8076">&#8226; Permite solicitar guardar cambios</text><text fill="#000000" font-family="sans-serif" font-size="13" lengthAdjust="spacing" textLength="186" x="55" y="400.1592">&#8226; Permite solicitar cerrar usuario</text></g><g id="USUARIOS_ABIERTO"><rect fill="#F5F5F5" height="50" rx="12.5" ry="12.5" style="stroke:#808080;stroke-width:0.5;" width="157" x="126" y="683"/><line style="stroke:#808080;stroke-width:0.5;" x1="126" x2="283" y1="710.6094" y2="710.6094"/><text fill="#000000" font-family="sans-serif" font-size="14" lengthAdjust="spacing" textLength="137" x="136" y="702.5332">USUARIOS_ABIERTO</text></g><!--link editarUsuario to USUARIOS_ABIERTO--><g id="link_editarUsuario_USUARIOS_ABIERTO"><path d="M133.29,463.16 C117.07,514.91 104.5,555 104.5,555 C104.5,555 104.5,591 104.5,591 C104.5,591 150.5719,644.4459 179.8619,678.4159 " fill="none" id="editarUsuario-to-USUARIOS_ABIERTO" style="stroke:#008000;stroke-width:1.0;"/><polygon fill="#008000" points="183.78,682.96,180.9323,673.5318,180.5149,679.1733,174.8735,678.7559,183.78,682.96" style="stroke:#008000;stroke-width:1.0;"/><path d="M109.5,560 L109.5,586 L214.5,586 L214.5,570 L204.5,560 L109.5,560 " fill="#FFFFE0" style="stroke:#808080;stroke-width:0.5;"/><path d="M204.5,560 L204.5,570 L214.5,570 L204.5,560 " fill="#FFFFE0" style="stroke:#808080;stroke-width:0.5;"/><text fill="#000000" font-family="sans-serif" font-size="13" lengthAdjust="spacing" textLength="84" x="115.5" y="578.4951">abrirUsuarios()</text></g><!--link editarUsuario to USUARIOS_ABIERTO--><g id="link_editarUsuario_USUARIOS_ABIERTO"><path d="M223.01,463.16 C227.23,514.91 230.5,555 230.5,555 C230.5,555 230.5,591 230.5,591 C230.5,591 218.8116,643.1351 211.2016,677.1051 " fill="none" id="editarUsuario-to-USUARIOS_ABIERTO-1" style="stroke:#0000FF;stroke-width:1.0;"/><polygon fill="#0000FF" points="209.89,682.96,215.7607,675.0521,210.983,678.0809,207.9542,673.3033,209.89,682.96" style="stroke:#0000FF;stroke-width:1.0;"/><path d="M235.5,560 L235.5,586 L350.5,586 L350.5,570 L340.5,560 L235.5,560 " fill="#FFFFE0" style="stroke:#808080;stroke-width:0.5;"/><path d="M340.5,560 L340.5,570 L350.5,570 L340.5,560 " fill="#FFFFE0" style="stroke:#808080;stroke-width:0.5;"/><text fill="#000000" font-family="sans-serif" font-size="13" lengthAdjust="spacing" textLength="94" x="241.5" y="578.4951">cancelar edici&#243;n</text></g><!--SRC=[bLDDQnin4BtlhnYIG-E2IMDeJy7WX0HyYKCSdq88izBW26kbPRJRufP2VqlkFVKdv9_qbsIazVUwATuzxEhfwJtDqoZCZ2kHiG3dDGKguSkdBAn0HZThWTOugkObGUdjF0usvcvyHHUePbFsjTENtdeM_lIvcfEr_jikqxCcRbXJnld6zBZ2jjBnzUVujcYxCbc8C1oHDXNo9DJ8nfzqZW03R67m8yj0dWzm9Kkq3u3kzOypXVnzHVNwMxxH288fQejIImA23sdPmWQIyAt0P_lXNkFoyF4HkW_7KoPoZzt-nWedOO1tCTfP0W3Ey_v05yQPKB7iZCzFypu4RusI_I-gWBef8oqXfvDEuvMqMswzTzp6uaG59f-Ik312aXp4lIbROnNpKLMDbcH8zZ_slIrxAVwWKalsfMTblCCjQ_CzdjFxszwJ3i3VNozmko0iSvH-4OgMhy8YDolT_Ln5pFyA_MUswhh9U3Au6ux6JuEBuTNT_IYrmIwOPTkDk8wgAs6rs2arZXTf8plCsIm5maadMnz1IpktDHqYhT0fYWqlIih8bLY9lm40]--></g></svg>