<svg xmlns="http://www.w3.org/2000/svg" xmlns:xlink="http://www.w3.org/1999/xlink" contentStyleType="text/css" data-diagram-type="DESCRIPTION" height="435px" preserveAspectRatio="none" style="width:943px;height:435px;background:#FFFFFF;" version="1.1" viewBox="0 0 943 435" width="943px" zoomAndPan="magnify"><?plantuml 1.2026.5?><defs/><g><!--cluster importarMatricula--><g class="cluster" data-qualified-name="importarMatricula" data-source-line="7" id="ent0004"><path d="M8.5,106.3 L165.5576,106.3 A3.75,3.75 0 0 1 168.0576,108.8 L175.0576,128.5969 L350.5,128.5969 A2.5,2.5 0 0 1 353,131.0969 L353,417.69 A2.5,2.5 0 0 1 350.5,420.19 L8.5,420.19 A2.5,2.5 0 0 1 6,417.69 L6,108.8 A2.5,2.5 0 0 1 8.5,106.3" fill="none" style="stroke:#000000;stroke-width:1.5;"/><line style="stroke:#000000;stroke-width:1.5;" x1="6" x2="175.0576" y1="128.5969" y2="128.5969"/><text fill="#000000" font-family="sans-serif" font-size="14" font-weight="700" lengthAdjust="spacing" textLength="156.0576" x="10" y="121.2951">importarMatricula()</text></g><!--entity ImportarMatriculaView--><g class="entity" data-qualified-name="importarMatricula.ImportarMatriculaView" data-source-line="8" id="ent0005"><rect fill="#629EF9" height="36.2969" rx="2.5" ry="2.5" style="stroke:#181818;stroke-width:0.5;" width="179.1611" x="157.42" y="141.3"/><text fill="#000000" font-family="sans-serif" font-size="14" lengthAdjust="spacing" textLength="159.1611" x="167.42" y="164.2951">ImportarMatriculaView</text></g><!--entity ImportacionController--><g class="entity" data-qualified-name="importarMatricula.ImportacionController" data-source-line="9" id="ent0006"><rect fill="#B5BD68" height="36.2969" rx="2.5" ry="2.5" style="stroke:#181818;stroke-width:0.5;" width="173.2412" x="28.38" y="254.6"/><text fill="#000000" font-family="sans-serif" font-size="14" lengthAdjust="spacing" textLength="153.2412" x="38.38" y="277.5951">ImportacionController</text></g><!--entity MatriculaRepository--><g class="entity" data-qualified-name="importarMatricula.MatriculaRepository" data-source-line="10" id="ent0007"><rect fill="#F2AC4E" height="36.2969" rx="2.5" ry="2.5" style="stroke:#181818;stroke-width:0.5;" width="159.9043" x="22.05" y="367.89"/><text fill="#000000" font-family="sans-serif" font-size="14" lengthAdjust="spacing" textLength="139.9043" x="32.05" y="390.8851">MatriculaRepository</text></g><!--entity PanelSecretaria--><g class="entity" data-qualified-name="PanelSecretaria" data-source-line="3" id="ent0001"><rect fill="#CDEBA5" height="36.2969" rx="2.5" ry="2.5" style="stroke:#181818;stroke-width:0.5;" width="164.498" x="164.75" y="7"/><text fill="#000000" font-family="sans-serif" font-size="14" lengthAdjust="spacing" textLength="144.498" x="174.75" y="29.9951">:PANEL_SECRETARIA</text></g><!--entity MatriculasCargadas--><g class="entity" data-qualified-name="MatriculasCargadas" data-source-line="4" id="ent0002"><rect fill="#CDEBA5" height="36.2969" rx="2.5" ry="2.5" style="stroke:#181818;stroke-width:0.5;" width="249.9541" x="369.02" y="254.6"/><text fill="#000000" font-family="sans-serif" font-size="14" lengthAdjust="spacing" textLength="229.9541" x="379.02" y="277.5951">:MATRICULAS_CARGADAS_EXITO</text></g><!--entity CompletarGestion--><g class="entity" data-qualified-name="CompletarGestion" data-source-line="5" id="ent0003"><rect fill="#CDEBA5" height="36.2969" rx="2.5" ry="2.5" style="stroke:#181818;stroke-width:0.5;" width="249.2363" x="654.38" y="254.6"/><text fill="#000000" font-family="sans-serif" font-size="14" lengthAdjust="spacing" textLength="229.2363" x="664.38" y="277.5951">:Collaboration CompletarGestion</text></g><!--link PanelSecretaria to ImportarMatriculaView--><g class="link" data-entity-1="ent0001" data-entity-2="ent0005" data-link-type="dependency" data-source-line="13" id="lnk8"><path d="M247,43.72 C247,69.02 247,110.46 247,135.81" fill="none" id="PanelSecretaria-to-ImportarMatriculaView" style="stroke:#181818;stroke-width:1;"/><polygon fill="#181818" points="247,140.81,251,131.81,247,135.81,243,131.81,247,140.81" style="stroke:#181818;stroke-width:1;stroke-linejoin:miter;stroke-miterlimit:10;"/><text fill="#000000" font-family="sans-serif" font-size="13" lengthAdjust="spacing" textLength="126.5786" x="248" y="86.3669">importarMatricula()</text></g><!--link ImportarMatriculaView to ImportacionController--><g class="link" data-entity-1="ent0005" data-entity-2="ent0006" data-link-type="dependency" data-source-line="15" id="lnk9"><path d="M226.08,178.08 C201.37,198.92 164.3126,230.167 139.6426,250.967" fill="none" id="ImportarMatriculaView-to-ImportacionController" style="stroke:#181818;stroke-width:1;"/><polygon fill="#181818" points="135.82,254.19,145.2791,251.4468,139.6426,250.967,140.1224,245.3306,135.82,254.19" style="stroke:#181818;stroke-width:1;stroke-linejoin:miter;stroke-miterlimit:10;"/><text fill="#000000" font-family="sans-serif" font-size="13" lengthAdjust="spacing" textLength="213.4336" x="190" y="220.6669">procesarExcelMatriculas(fichero)</text></g><!--link ImportacionController to MatriculaRepository--><g class="link" data-entity-1="ent0006" data-entity-2="ent0007" data-link-type="dependency" data-source-line="16" id="lnk10"><path d="M112.97,291.13 C110.54,311.92 107.0798,341.5437 104.6398,362.4437" fill="none" id="ImportacionController-to-MatriculaRepository" style="stroke:#181818;stroke-width:1;"/><polygon fill="#181818" points="104.06,367.41,109.0766,358.9345,104.6398,362.4437,101.1306,358.0069,104.06,367.41" style="stroke:#181818;stroke-width:1;stroke-linejoin:miter;stroke-miterlimit:10;"/><text fill="#000000" font-family="sans-serif" font-size="13" lengthAdjust="spacing" textLength="278.8843" x="111" y="333.9569">registrarMatriculasMasivas(listaMatriculas)</text></g><!--link ImportarMatriculaView to MatriculasCargadas--><g class="link" data-entity-1="ent0005" data-entity-2="ent0002" data-link-type="dependency" data-source-line="18" id="lnk11"><path d="M308.44,178 C355.35,191.41 412,207.6 412,207.6 C412,207.6 443.3723,232.1386 467.6523,251.1386" fill="none" id="ImportarMatriculaView-to-MatriculasCargadas" style="stroke:#181818;stroke-width:1;stroke-dasharray:7,7;"/><polygon fill="#181818" points="471.59,254.22,466.9673,245.5234,467.6523,251.1386,462.0371,251.8237,471.59,254.22" style="stroke:#181818;stroke-width:1;stroke-linejoin:miter;stroke-miterlimit:10;"/><text fill="#000000" font-family="sans-serif" font-size="13" lengthAdjust="spacing" textLength="109.6367" x="433" y="220.6669">&#171;include&#187; [&#233;xito]</text></g><!--link ImportarMatriculaView to CompletarGestion--><g class="link" data-entity-1="ent0005" data-entity-2="ent0003" data-link-type="dependency" data-source-line="19" id="lnk12"><path d="M336.98,174.4 C426.62,188.31 551,207.6 551,207.6 C551,207.6 644.0868,233.7859 711.5868,252.7759" fill="none" id="ImportarMatriculaView-to-CompletarGestion" style="stroke:#181818;stroke-width:1;stroke-dasharray:7,7;"/><polygon fill="#181818" points="716.4,254.13,708.8196,247.8421,711.5868,252.7759,706.6531,255.5431,716.4,254.13" style="stroke:#181818;stroke-width:1;stroke-linejoin:miter;stroke-miterlimit:10;"/><text fill="#000000" font-family="sans-serif" font-size="13" lengthAdjust="spacing" textLength="320.7344" x="607" y="220.6669">&#171;include&#187; completarGestion() [cancelaci&#243;n/error]</text></g><?plantuml-src VLB1IWCn4BtdAuPwQGzLA5fqaKACgnIiohQAK8fCqx46qsIPRDKYVf1dFy4VCorexRgQKpBpvirxamaFnkN8E0Dh71MBd23tTh5y2C6a2tHJIx2bZjCZkGUrv5AUfsUt_LHbwK1cNLa33729ZcoVD5E1RB2oi2S7MLTTdSd-hPBPgJoEb_IcExXOCVImOAFd5eD2dk84GoM9yjRYs3CMnZjGVfRRPSjJ2il0YgaS5297_O1J0ZFBFSV4TwyblFOhMc_Ku4L0F3yKj5i7wSa1TClWQqDFPUnuRpnfxtzXTTIWl2iuIYSkOqzQKkscQ_iPvJwOmlD2l0fHcYiqcvrg2GbKs12Y4WlDoPfcKrq2ENjD0JbzrcJNdrA_C_gUs3T4PTrAM8M795gTcb3m3mcXXy4yHaeR4xWE_obtUxjJiHu971uQf-ryGfqE33_UdcF7qJyKvRtO9D2bRBq1Guqk3Y5Q_NXtEyJiUVG9?></g></svg>