<svg xmlns="http://www.w3.org/2000/svg" xmlns:xlink="http://www.w3.org/1999/xlink" contentStyleType="text/css" data-diagram-type="DESCRIPTION" height="435px" preserveAspectRatio="none" style="width:993px;height:435px;background:#FFFFFF;" version="1.1" viewBox="0 0 993 435" width="993px" zoomAndPan="magnify"><?plantuml 1.2026.5?><defs/><g><!--cluster editarSesionClase--><g class="cluster" data-qualified-name="editarSesionClase" data-source-line="7" id="ent0004"><path d="M8.5,106.3 L164.2998,106.3 A3.75,3.75 0 0 1 166.7998,108.8 L173.7998,128.5969 L441.5,128.5969 A2.5,2.5 0 0 1 444,131.0969 L444,417.69 A2.5,2.5 0 0 1 441.5,420.19 L8.5,420.19 A2.5,2.5 0 0 1 6,417.69 L6,108.8 A2.5,2.5 0 0 1 8.5,106.3" fill="none" style="stroke:#000000;stroke-width:1.5;"/><line style="stroke:#000000;stroke-width:1.5;" x1="6" x2="173.7998" y1="128.5969" y2="128.5969"/><text fill="#000000" font-family="sans-serif" font-size="14" font-weight="700" lengthAdjust="spacing" textLength="154.7998" x="10" y="121.2951">editarSesionClase()</text></g><!--entity EditarSesionView--><g class="entity" data-qualified-name="editarSesionClase.EditarSesionView" data-source-line="8" id="ent0005"><rect fill="#629EF9" height="36.2969" rx="2.5" ry="2.5" style="stroke:#181818;stroke-width:0.5;" width="141.0986" x="286.45" y="141.3"/><text fill="#000000" font-family="sans-serif" font-size="14" lengthAdjust="spacing" textLength="121.0986" x="296.45" y="164.2951">EditarSesionView</text></g><!--entity SesionClaseController--><g class="entity" data-qualified-name="editarSesionClase.SesionClaseController" data-source-line="9" id="ent0006"><rect fill="#B5BD68" height="36.2969" rx="2.5" ry="2.5" style="stroke:#181818;stroke-width:0.5;" width="173.4463" x="23.28" y="254.6"/><text fill="#000000" font-family="sans-serif" font-size="14" lengthAdjust="spacing" textLength="153.4463" x="33.28" y="277.5951">SesionClaseController</text></g><!--entity SesionClaseRepository--><g class="entity" data-qualified-name="editarSesionClase.SesionClaseRepository" data-source-line="10" id="ent0007"><rect fill="#F2AC4E" height="36.2969" rx="2.5" ry="2.5" style="stroke:#181818;stroke-width:0.5;" width="179.3457" x="22.33" y="367.89"/><text fill="#000000" font-family="sans-serif" font-size="14" lengthAdjust="spacing" textLength="159.3457" x="32.33" y="390.8851">SesionClaseRepository</text></g><!--entity SesionActiva--><g class="entity" data-qualified-name="SesionActiva" data-source-line="3" id="ent0001"><rect fill="#CDEBA5" height="36.2969" rx="2.5" ry="2.5" style="stroke:#181818;stroke-width:0.5;" width="187.0293" x="263.49" y="7"/><text fill="#000000" font-family="sans-serif" font-size="14" lengthAdjust="spacing" textLength="167.0293" x="273.49" y="29.9951">:SESION_CLASE_ACTIVA</text></g><!--entity SesionModificada--><g class="entity" data-qualified-name="SesionModificada" data-source-line="4" id="ent0002"><rect fill="#CDEBA5" height="36.2969" rx="2.5" ry="2.5" style="stroke:#181818;stroke-width:0.5;" width="225.7412" x="460.13" y="254.6"/><text fill="#000000" font-family="sans-serif" font-size="14" lengthAdjust="spacing" textLength="205.7412" x="470.13" y="277.5951">:SESION_CLASE_MODIFICADA</text></g><!--entity CompletarGestion--><g class="entity" data-qualified-name="CompletarGestion" data-source-line="5" id="ent0003"><rect fill="#CDEBA5" height="36.2969" rx="2.5" ry="2.5" style="stroke:#181818;stroke-width:0.5;" width="249.2363" x="720.38" y="254.6"/><text fill="#000000" font-family="sans-serif" font-size="14" lengthAdjust="spacing" textLength="229.2363" x="730.38" y="277.5951">:Collaboration CompletarGestion</text></g><!--link SesionActiva to EditarSesionView--><g class="link" data-entity-1="ent0001" data-entity-2="ent0005" data-link-type="dependency" data-source-line="13" id="lnk8"><path d="M357,43.72 C357,69.02 357,110.46 357,135.81" fill="none" id="SesionActiva-to-EditarSesionView" style="stroke:#181818;stroke-width:1;"/><polygon fill="#181818" points="357,140.81,361,131.81,357,135.81,353,131.81,357,140.81" style="stroke:#181818;stroke-width:1;stroke-linejoin:miter;stroke-miterlimit:10;"/><text fill="#000000" font-family="sans-serif" font-size="13" lengthAdjust="spacing" textLength="126.6675" x="358" y="86.3669">editarSesionClase()</text></g><!--link EditarSesionView to SesionClaseController--><g class="link" data-entity-1="ent0005" data-entity-2="ent0006" data-link-type="dependency" data-source-line="15" id="lnk9"><path d="M285.95,172.28 C202.12,186.25 74,207.6 74,207.6 C74,207.6 74,224.6 74,224.6 C74,224.6 83.3274,236.8047 93.5574,250.2147" fill="none" id="EditarSesionView-to-SesionClaseController" style="stroke:#181818;stroke-width:1;"/><polygon fill="#181818" points="96.59,254.19,94.3115,244.6083,93.5574,250.2147,87.951,249.4605,96.59,254.19" style="stroke:#181818;stroke-width:1;stroke-linejoin:miter;stroke-miterlimit:10;"/><text fill="#000000" font-family="sans-serif" font-size="13" lengthAdjust="spacing" textLength="369.8018" x="75" y="220.6669">reajustarParametrosSesion(sesionId, nuevosParametros)</text></g><!--link SesionClaseController to SesionClaseRepository--><g class="link" data-entity-1="ent0006" data-entity-2="ent0007" data-link-type="dependency" data-source-line="16" id="lnk10"><path d="M110.31,291.13 C110.69,311.92 111.2215,341.5108 111.5915,362.4108" fill="none" id="SesionClaseController-to-SesionClaseRepository" style="stroke:#181818;stroke-width:1;"/><polygon fill="#181818" points="111.68,367.41,115.5201,358.3406,111.5915,362.4108,107.5213,358.4822,111.68,367.41" style="stroke:#181818;stroke-width:1;stroke-linejoin:miter;stroke-miterlimit:10;"/><text fill="#000000" font-family="sans-serif" font-size="13" lengthAdjust="spacing" textLength="195.895" x="113" y="333.9569">actualizarDatosSesion(sesion)</text></g><!--link EditarSesionView to SesionModificada--><g class="link" data-entity-1="ent0005" data-entity-2="ent0002" data-link-type="dependency" data-source-line="18" id="lnk11"><path d="M391.23,178.08 C431.67,198.92 494.1153,231.0999 534.4853,251.8999" fill="none" id="EditarSesionView-to-SesionModificada" style="stroke:#181818;stroke-width:1;stroke-dasharray:7,7;"/><polygon fill="#181818" points="538.93,254.19,532.7616,246.5121,534.4853,251.8999,529.0974,253.6236,538.93,254.19" style="stroke:#181818;stroke-width:1;stroke-linejoin:miter;stroke-miterlimit:10;"/><text fill="#000000" font-family="sans-serif" font-size="13" lengthAdjust="spacing" textLength="109.6367" x="479" y="220.6669">&#171;include&#187; [&#233;xito]</text></g><!--link EditarSesionView to CompletarGestion--><g class="link" data-entity-1="ent0005" data-entity-2="ent0003" data-link-type="dependency" data-source-line="19" id="lnk12"><path d="M428.03,174.4 C498.8,188.31 597,207.6 597,207.6 C597,207.6 698.6493,233.8878 772.0593,252.8778" fill="none" id="EditarSesionView-to-CompletarGestion" style="stroke:#181818;stroke-width:1;stroke-dasharray:7,7;"/><polygon fill="#181818" points="776.9,254.13,769.1886,248.0035,772.0593,252.8778,767.1851,255.7486,776.9,254.13" style="stroke:#181818;stroke-width:1;stroke-linejoin:miter;stroke-miterlimit:10;"/><text fill="#000000" font-family="sans-serif" font-size="13" lengthAdjust="spacing" textLength="320.7344" x="657" y="220.6669">&#171;include&#187; completarGestion() [cancelaci&#243;n/error]</text></g><?plantuml-src XPBHJi8m58Rl-nGdU0E9O4A4o698PXbcYQWHuuqnvD0TIQMqIrjGD3wGrpu2BsQ12-TOucwQ_Vl-__nhZfjBdQF51IYfoQzpWjoezVQ5CKl2evufWYC-I2xY3jIYSJ9ERwud_2eU9vEOtwSFSGtGmPYSD3eMNgxmV-FePf0EKnuFYkQHoUIp59XL1t2Z54wDHHzOu6QHA_9eBybjXLrEMMGiHp776G5bCiZxELoXeorUEr3hZHfyC0XFeK6ttKk6FKWAy8Earp8sxKopxXaKqhZHteRMPClii1tpqwJ8tb5kdFJ6hjadOyNRX6QpVp0yWehkZ9KnQ6R1N5af2dtmPUa2VxjT00gwsvDrjplIx1ZqabR6_G8DLXcswrZvDn6Wy4jKyXtj07rfH5NbLgj_i10Hd9zBBTGoetuV7ZTVRo7ygTfRNeA_Nb7wMc_0eq0jIA6GcszzGjOQ-_G3?></g></svg>