<svg xmlns="http://www.w3.org/2000/svg" xmlns:xlink="http://www.w3.org/1999/xlink" version="1.1" data-diagram-type="DESCRIPTION" style="width:734px;height:432px;background:#FFFFFF;" width="734px" height="432px" viewBox="0 0 734 432" zoomAndPan="magnify" preserveAspectRatio="none" contentStyleType="text/css"><?plantuml 1.2026.7beta8?><defs/><g font-family="sans-serif" lengthAdjust="spacing"><!--cluster consultarDetalleAlumno--><g class="cluster" data-qualified-name="consultarDetalleAlumno" id="ent0002" data-source-line="5"><path d="M325.83,6 L529.775,6 A3.75,3.75 0 0 1 532.275,8.5 L539.275,28.297 L716.83,28.297 A2.5,2.5 0 0 1 719.33,30.797 L719.33,414.69 A2.5,2.5 0 0 1 716.83,417.19 L325.83,417.19 A2.5,2.5 0 0 1 323.33,414.69 L323.33,8.5 A2.5,2.5 0 0 1 325.83,6" style="stroke:#000;stroke-width:1.5;" fill="none"/><line x1="323.33" y1="28.297" x2="539.275" y2="28.297" style="stroke:#000;stroke-width:1.5;"/><text x="327.33" y="20.995" fill="#000" font-size="14" textLength="202.945" font-weight="700">consultarDetalleAlumno()</text></g><!--entity ConsultarDetalleAlumnoView--><g class="entity" data-qualified-name="consultarDetalleAlumno.ConsultarDetalleAlumnoView" id="ent0003" data-source-line="6"><rect x="350.38" y="41" width="223.896" height="36.297" fill="#629EF9" style="stroke:#181818;stroke-width:0.5;" rx="2.5" ry="2.5"/><text x="360.38" y="63.995" fill="#000" font-size="14" textLength="203.896">ConsultarDetalleAlumnoView</text></g><!--entity AlumnoController--><g class="entity" data-qualified-name="consultarDetalleAlumno.AlumnoController" id="ent0004" data-source-line="7"><rect x="391.03" y="154.3" width="142.589" height="36.297" fill="#B5BD68" style="stroke:#181818;stroke-width:0.5;" rx="2.5" ry="2.5"/><text x="401.03" y="177.295" fill="#000" font-size="14" textLength="122.589">AlumnoController</text></g><!--entity AlumnoRepository--><g class="entity" data-qualified-name="consultarDetalleAlumno.AlumnoRepository" id="ent0005" data-source-line="8"><rect x="339.08" y="267.6" width="148.488" height="36.297" fill="#F2AC4E" style="stroke:#181818;stroke-width:0.5;" rx="2.5" ry="2.5"/><text x="349.08" y="290.595" fill="#000" font-size="14" textLength="128.488">AlumnoRepository</text></g><!--entity AsistenciaRepository--><g class="entity" data-qualified-name="consultarDetalleAlumno.AsistenciaRepository" id="ent0006" data-source-line="9"><rect x="522.19" y="267.6" width="166.269" height="36.297" fill="#F2AC4E" style="stroke:#181818;stroke-width:0.5;" rx="2.5" ry="2.5"/><text x="532.19" y="290.595" fill="#000" font-size="14" textLength="146.269">AsistenciaRepository</text></g><!--entity Alumno--><g class="entity" data-qualified-name="consultarDetalleAlumno.Alumno" id="ent0007" data-source-line="10"><rect x="376.62" y="364.89" width="73.416" height="36.297" fill="#F2AC4E" style="stroke:#181818;stroke-width:0.5;" rx="2.5" ry="2.5"/><text x="386.62" y="387.885" fill="#000" font-size="14" textLength="53.416">Alumno</text></g><!--entity Asistencia--><g class="entity" data-qualified-name="consultarDetalleAlumno.Asistencia" id="ent0008" data-source-line="11"><rect x="559.73" y="364.89" width="91.196" height="36.297" fill="#F2AC4E" style="stroke:#181818;stroke-width:0.5;" rx="2.5" ry="2.5"/><text x="569.73" y="387.885" fill="#000" font-size="14" textLength="71.196">Asistencia</text></g><!--entity AlumnosAbierto--><g class="entity" data-qualified-name="AlumnosAbierto" id="ent0001" data-source-line="3"><rect x="7" y="41" width="140.654" height="36.297" fill="#CDEBA5" style="stroke:#181818;stroke-width:0.5;" rx="2.5" ry="2.5"/><text x="17" y="63.995" fill="#000" font-size="14" textLength="120.654">:Alumnos Abierto</text></g><!--link AlumnosAbierto to ConsultarDetalleAlumnoView--><g class="link" data-entity-1="ent0001" data-entity-2="ent0003" id="lnk9" data-source-line="14" data-link-type="dependency"><path d="M147.94,59.15 C204.49,59.15 279.88,59.15 345.21,59.15" style="stroke:#181818;stroke-width:1;" fill="none" id="AlumnosAbierto-to-ConsultarDetalleAlumnoView"/><polygon points="350.21,59.15,341.21,55.15,345.21,59.15,341.21,63.15,350.21,59.15" fill="#181818" style="stroke:#181818;stroke-width:1;stroke-linejoin:miter;stroke-miterlimit:10;"/><text x="166.02" y="52.217" fill="#000" font-size="13" textLength="166.41">consultarDetalleAlumno()</text></g><!--link ConsultarDetalleAlumnoView to AlumnoController--><g class="link" data-entity-1="ent0003" data-entity-2="ent0004" id="lnk10" data-source-line="15" data-link-type="dependency"><path d="M462.33,77.54 C462.33,98.33 462.33,127.92 462.33,148.81" style="stroke:#181818;stroke-width:1;" fill="none" id="ConsultarDetalleAlumnoView-to-AlumnoController"/><polygon points="462.33,153.81,466.33,144.81,462.33,148.81,458.33,144.81,462.33,153.81" fill="#181818" style="stroke:#181818;stroke-width:1;stroke-linejoin:miter;stroke-miterlimit:10;"/><text x="463.33" y="120.367" fill="#000" font-size="13" textLength="227.17">consultarDetalleAlumno(alumnoId)</text></g><!--link AlumnoController to AlumnoRepository--><g class="link" data-entity-1="ent0004" data-entity-2="ent0005" id="lnk11" data-source-line="16" data-link-type="dependency"><path d="M428.44,191 C402.57,204.41 371.33,220.6 371.33,220.6 C371.33,220.6 371.33,237.6 371.33,237.6 C371.33,237.6 382.425,250.046 394.365,263.456" style="stroke:#181818;stroke-width:1;" fill="none" id="AlumnoController-to-AlumnoRepository"/><polygon points="397.69,267.19,394.693,257.808,394.365,263.456,388.718,263.128,397.69,267.19" fill="#181818" style="stroke:#181818;stroke-width:1;stroke-linejoin:miter;stroke-miterlimit:10;"/><text x="372.33" y="233.667" fill="#000" font-size="13" textLength="124.281">findById(alumnoId)</text></g><!--link AlumnoRepository to Alumno--><g class="link" data-entity-1="ent0005" data-entity-2="ent0007" id="lnk12" data-source-line="17" data-link-type="association"><path d="M413.33,304.22 C413.33,321.42 413.33,347.52 413.33,364.67" style="stroke:#181818;stroke-width:1;" fill="none" id="AlumnoRepository-Alumno"/></g><!--link AlumnoController to AsistenciaRepository--><g class="link" data-entity-1="ent0004" data-entity-2="ent0006" id="lnk13" data-source-line="18" data-link-type="dependency"><path d="M484.99,191.08 C511.76,211.92 552.094,243.319 578.824,264.119" style="stroke:#181818;stroke-width:1;" fill="none" id="AlumnoController-to-AsistenciaRepository"/><polygon points="582.77,267.19,578.124,258.506,578.824,264.119,573.211,264.82,582.77,267.19" fill="#181818" style="stroke:#181818;stroke-width:1;stroke-linejoin:miter;stroke-miterlimit:10;"/><text x="543.33" y="233.667" fill="#000" font-size="13" textLength="161.795">findByAlumno(alumnoId)</text></g><!--link AsistenciaRepository to Asistencia--><g class="link" data-entity-1="ent0006" data-entity-2="ent0008" id="lnk14" data-source-line="19" data-link-type="association"><path d="M605.33,304.22 C605.33,321.42 605.33,347.52 605.33,364.67" style="stroke:#181818;stroke-width:1;" fill="none" id="AsistenciaRepository-Asistencia"/></g><?plantuml-src XP0nRy8m48Nt-nMdT2b35WIePAWKGf1OEtI_n5TaOUp8DggYgl-z9WHeWrEys3v_xztvkRtK3Lawe9AQVTimDaQrfmk0vTgJtYd6fs9Thl8v9bckZWTj7EQLPEjDWXJEvrfV0cYetjEEiJRQ7PKdksPFIl6PEocI-DFp9C4lmB1-jLvCb-LcYKLKyIxvSoYevfLOlFHJ1Pct9l1sY6scUJ4hU-oD6-EaDxOTmvnqddKjwJ7QEJxqWM-0lybXQjFNVpwQuLXiC2x2L0JJOHYZLjHjMp61eGJJgyyjWWm_f1QhTYlkb3SeA2-Xn4qZsLwCxyUAm5s3Q_q7?></g></svg>