<svg xmlns="http://www.w3.org/2000/svg" xmlns:xlink="http://www.w3.org/1999/xlink" version="1.1" data-diagram-type="DESCRIPTION" style="width:1002px;height:432px;background:#FFFFFF;" width="1002px" height="432px" viewBox="0 0 1002 432" zoomAndPan="magnify" preserveAspectRatio="none" contentStyleType="text/css"><?plantuml 1.2026.7beta3?><defs/><g><!--cluster consultarDetalleAlumno--><g class="cluster" data-qualified-name="consultarDetalleAlumno" id="ent0002" data-source-line="5"><path d="M328.76,6 L532.7053,6 A3.75,3.75 0 0 1 535.2053,8.5 L542.2053,28.2969 L984.76,28.2969 A2.5,2.5 0 0 1 987.26,30.7969 L987.26,414.69 A2.5,2.5 0 0 1 984.76,417.19 L328.76,417.19 A2.5,2.5 0 0 1 326.26,414.69 L326.26,8.5 A2.5,2.5 0 0 1 328.76,6" style="stroke:#000000;stroke-width:1.5;" fill="none"/><line x1="326.26" y1="28.2969" x2="542.2053" y2="28.2969" style="stroke:#000000;stroke-width:1.5;"/><text x="330.26" y="20.9951" fill="#000000" font-size="14" lengthAdjust="spacing" textLength="202.9453" font-weight="700" font-family="sans-serif">consultarDetalleAlumno()</text></g><!--entity ConsultarDetalleAlumnoView--><g class="entity" data-qualified-name="consultarDetalleAlumno.ConsultarDetalleAlumnoView" id="ent0003" data-source-line="6"><rect x="428.31" y="41" width="223.8955" height="36.2969" fill="#629EF9" style="stroke:#181818;stroke-width:0.5;" rx="2.5" ry="2.5"/><text x="438.31" y="63.9951" fill="#000000" font-size="14" lengthAdjust="spacing" textLength="203.8955" font-family="sans-serif">ConsultarDetalleAlumnoView</text></g><!--entity AlumnoController--><g class="entity" data-qualified-name="consultarDetalleAlumno.AlumnoController" id="ent0004" data-source-line="7"><rect x="460.96" y="154.3" width="142.5889" height="36.2969" fill="#B5BD68" style="stroke:#181818;stroke-width:0.5;" rx="2.5" ry="2.5"/><text x="470.96" y="177.2951" fill="#000000" font-size="14" lengthAdjust="spacing" textLength="122.5889" font-family="sans-serif">AlumnoController</text></g><!--entity AlumnoRepository--><g class="entity" data-qualified-name="consultarDetalleAlumno.AlumnoRepository" id="ent0005" data-source-line="8"><rect x="342.01" y="267.6" width="148.4883" height="36.2969" fill="#F2AC4E" style="stroke:#181818;stroke-width:0.5;" rx="2.5" ry="2.5"/><text x="352.01" y="290.5951" fill="#000000" font-size="14" lengthAdjust="spacing" textLength="128.4883" font-family="sans-serif">AlumnoRepository</text></g><!--entity AsistenciaRepository--><g class="entity" data-qualified-name="consultarDetalleAlumno.AsistenciaRepository" id="ent0006" data-source-line="9"><rect x="571.12" y="267.6" width="166.2686" height="36.2969" fill="#F2AC4E" style="stroke:#181818;stroke-width:0.5;" rx="2.5" ry="2.5"/><text x="581.12" y="290.5951" fill="#000000" font-size="14" lengthAdjust="spacing" textLength="146.2686" font-family="sans-serif">AsistenciaRepository</text></g><!--entity Alumno--><g class="entity" data-qualified-name="consultarDetalleAlumno.Alumno" id="ent0007" data-source-line="10"><rect x="379.55" y="364.89" width="73.416" height="36.2969" fill="#F2AC4E" style="stroke:#181818;stroke-width:0.5;" rx="2.5" ry="2.5"/><text x="389.55" y="387.8851" fill="#000000" font-size="14" lengthAdjust="spacing" textLength="53.416" font-family="sans-serif">Alumno</text></g><!--entity Asistencia--><g class="entity" data-qualified-name="consultarDetalleAlumno.Asistencia" id="ent0008" data-source-line="11"><rect x="608.66" y="364.89" width="91.1963" height="36.2969" fill="#F2AC4E" style="stroke:#181818;stroke-width:0.5;" rx="2.5" ry="2.5"/><text x="618.66" y="387.8851" fill="#000000" font-size="14" lengthAdjust="spacing" textLength="71.1963" font-family="sans-serif">Asistencia</text></g><!--entity DashboardProfesorAbierto--><g class="entity" data-qualified-name="DashboardProfesorAbierto" id="ent0001" data-source-line="3"><rect x="7" y="41" width="218.5156" height="36.2969" fill="#CDEBA5" style="stroke:#181818;stroke-width:0.5;" rx="2.5" ry="2.5"/><text x="17" y="63.9951" fill="#000000" font-size="14" lengthAdjust="spacing" textLength="198.5156" font-family="sans-serif">:Dashboard Profesor Abierto</text></g><!--link DashboardProfesorAbierto to ConsultarDetalleAlumnoView--><g class="link" data-entity-1="ent0001" data-entity-2="ent0003" id="lnk9" data-source-line="14" data-link-type="dependency"><path d="M226,59.15 C288.08,59.15 360.54,59.15 423.02,59.15" style="stroke:#181818;stroke-width:1;" fill="none" id="DashboardProfesorAbierto-to-ConsultarDetalleAlumnoView"/><polygon points="428.02,59.15,419.02,55.15,423.02,59.15,419.02,63.15,428.02,59.15" fill="#181818" style="stroke:#181818;stroke-width:1;stroke-linejoin:miter;stroke-miterlimit:10;"/><text x="243.91" y="52.2169" fill="#000000" font-size="13" lengthAdjust="spacing" textLength="166.4102" font-family="sans-serif">consultarDetalleAlumno()</text></g><!--link ConsultarDetalleAlumnoView to AlumnoController--><g class="link" data-entity-1="ent0003" data-entity-2="ent0004" id="lnk10" data-source-line="16" data-link-type="dependency"><path d="M478.45,77.71 C431.25,91.11 374.26,107.3 374.26,107.3 C374.26,107.3 374.26,124.3 374.26,124.3 C374.26,124.3 423.7086,139.0607 468.6286,152.4607" style="stroke:#181818;stroke-width:1;" fill="none" id="ConsultarDetalleAlumnoView-to-AlumnoController"/><polygon points="473.42,153.89,465.939,147.4842,468.6286,152.4607,463.6521,155.1503,473.42,153.89" fill="#181818" style="stroke:#181818;stroke-width:1;stroke-linejoin:miter;stroke-miterlimit:10;"/><text x="375.26" y="120.3669" fill="#000000" font-size="13" lengthAdjust="spacing" textLength="233.6318" font-family="sans-serif">obtenerAlumno(alumnoId) : Alumno</text></g><!--link ConsultarDetalleAlumnoView to AlumnoController--><g class="link" data-entity-1="ent0003" data-entity-2="ent0004" id="lnk13" data-source-line="22" data-link-type="dependency"><path d="M567.44,77.71 C588.2,91.11 613.26,107.3 613.26,107.3 C613.26,107.3 613.26,124.3 613.26,124.3 C613.26,124.3 589.7717,137.9754 566.7417,151.3754" style="stroke:#181818;stroke-width:1;" fill="none" id="ConsultarDetalleAlumnoView-to-AlumnoController-1"/><polygon points="562.42,153.89,572.2107,152.8211,566.7417,151.3754,568.1874,145.9064,562.42,153.89" fill="#181818" style="stroke:#181818;stroke-width:1;stroke-linejoin:miter;stroke-miterlimit:10;"/><text x="614.26" y="120.3669" fill="#000000" font-size="13" lengthAdjust="spacing" textLength="317.9351" font-family="sans-serif">obtenerAsistencias(alumnoId) : List&lt;Asistencia></text></g><!--link AlumnoController to AlumnoRepository--><g class="link" data-entity-1="ent0004" data-entity-2="ent0005" id="lnk11" data-source-line="18" data-link-type="dependency"><path d="M480.13,191 C440.32,204.41 392.26,220.6 392.26,220.6 C392.26,220.6 392.26,237.6 392.26,237.6 C392.26,237.6 398.2334,249.3233 405.0534,262.7333" style="stroke:#181818;stroke-width:1;" fill="none" id="AlumnoController-to-AlumnoRepository"/><polygon points="407.32,267.19,406.8055,257.3546,405.0534,262.7333,399.6747,260.9811,407.32,267.19" fill="#181818" style="stroke:#181818;stroke-width:1;stroke-linejoin:miter;stroke-miterlimit:10;"/><text x="393.26" y="233.6669" fill="#000000" font-size="13" lengthAdjust="spacing" textLength="217.2549" font-family="sans-serif">obtenerPorId(alumnoId) : Alumno</text></g><!--link AlumnoRepository to Alumno--><g class="link" data-entity-1="ent0005" data-entity-2="ent0007" id="lnk12" data-source-line="20" data-link-type="association"><path d="M416.26,304.22 C416.26,321.42 416.26,347.52 416.26,364.67" style="stroke:#181818;stroke-width:1;" fill="none" id="AlumnoRepository-Alumno"/></g><!--link AlumnoController to AsistenciaRepository--><g class="link" data-entity-1="ent0004" data-entity-2="ent0006" id="lnk14" data-source-line="24" data-link-type="dependency"><path d="M563.16,191 C586.76,204.41 615.26,220.6 615.26,220.6 C615.26,220.6 629.4528,243.9475 641.0028,262.9475" style="stroke:#181818;stroke-width:1;" fill="none" id="AlumnoController-to-AsistenciaRepository"/><polygon points="643.6,267.22,642.343,257.4517,641.0028,262.9475,635.507,261.6073,643.6,267.22" fill="#181818" style="stroke:#181818;stroke-width:1;stroke-linejoin:miter;stroke-miterlimit:10;"/><text x="625.26" y="233.6669" fill="#000000" font-size="13" lengthAdjust="spacing" textLength="315.7896" font-family="sans-serif">obtenerPorAlumno(alumnoId) : List&lt;Asistencia></text></g><!--link AsistenciaRepository to Asistencia--><g class="link" data-entity-1="ent0006" data-entity-2="ent0008" id="lnk15" data-source-line="26" data-link-type="association"><path d="M654.26,304.22 C654.26,321.42 654.26,347.52 654.26,364.67" style="stroke:#181818;stroke-width:1;" fill="none" id="AsistenciaRepository-Asistencia"/></g><?plantuml-src XP4nRuCm48Lt_ueJNPg19MgY1bMHA10fKeUeGtS3bzIAOwEpemfL_UzrA84K6SA2y7llyzt378MgEF4JIA7GrXL2fMLz-M2CiB1S7IJ2Gv9ch_42WYZbvZFNd4hOaTwZqGHnBf2i3e0RwEIhsegCLRmuyWD2ePKvIyifHSkbn5YUJqfVie5VUfm5yCt0FJVpBEUhRBE2n9lu4FWr3EIBl5m-mv_1nInfvwUXRJEFawUijRrZfOsmckencn76eYe4lszjY7Svx8UniGuXf70ziN84OmKoDfw2i7JKOIyHwDnDXDGYUFFQbZE8hgkmOGR23jJNqO5schRb1AUFE4wdJSqzENRNgFbtvvixVkd5zTWMdXzxkucd5G_P0sbswyv_0G00?></g></svg>