<svg xmlns="http://www.w3.org/2000/svg" xmlns:xlink="http://www.w3.org/1999/xlink" contentStyleType="text/css" data-diagram-type="STATE" height="668px" preserveAspectRatio="none" style="width:578px;height:668px;background:#FFFFFF;" version="1.1" viewBox="0 0 578 668" width="578px" zoomAndPan="magnify"><?plantuml 1.2026.4beta2?><defs/><g><g class="title" data-source-line="2"><text fill="#000000" font-family="sans-serif" font-size="14" font-weight="700" lengthAdjust="spacing" textLength="259.0205" x="156.4865" y="22.9951">Diagrama de Estados: Asistencia</text></g><g class="start_entity" data-qualified-name=".start." data-source-line="4" id="ent0002"><ellipse cx="334.45" cy="53.2969" fill="#222222" rx="10" ry="10" style="stroke:#222222;stroke-width:1;"/></g><g class="entity" data-qualified-name="Programada" id="ent0003"><rect fill="#F1F1F1" height="50" rx="12.5" ry="12.5" style="stroke:#181818;stroke-width:0.5;" width="105.668" x="281.61" y="140.2969"/><line style="stroke:#181818;stroke-width:0.5;" x1="281.61" x2="387.278" y1="166.5938" y2="166.5938"/><text fill="#000000" font-family="sans-serif" font-size="14" lengthAdjust="spacing" textLength="85.668" x="291.61" y="158.292">Programada</text></g><g class="entity" data-qualified-name="AsistenciaPendiente" id="ent0006"><rect fill="#F1F1F1" height="50" rx="12.5" ry="12.5" style="stroke:#181818;stroke-width:0.5;" width="161.4902" x="148.7" y="267.2969"/><line style="stroke:#181818;stroke-width:0.5;" x1="148.7" x2="310.1902" y1="293.5938" y2="293.5938"/><text fill="#000000" font-family="sans-serif" font-size="14" lengthAdjust="spacing" textLength="141.4902" x="158.7" y="285.292">AsistenciaPendiente</text></g><g class="entity" data-qualified-name="Cerrada" id="ent0008"><rect fill="#F1F1F1" height="50" rx="12.5" ry="12.5" style="stroke:#181818;stroke-width:0.5;" width="75.9453" x="219.48" y="521.2969"/><line style="stroke:#181818;stroke-width:0.5;" x1="219.48" x2="295.4253" y1="547.5938" y2="547.5938"/><text fill="#000000" font-family="sans-serif" font-size="14" lengthAdjust="spacing" textLength="55.9453" x="229.48" y="539.292">Cerrada</text></g><g class="entity" data-qualified-name="AsistenciaRegistrada" id="ent0010"><rect fill="#F1F1F1" height="50" rx="12.5" ry="12.5" style="stroke:#181818;stroke-width:0.5;" width="166.8975" x="7" y="394.2969"/><line style="stroke:#181818;stroke-width:0.5;" x1="7" x2="173.8975" y1="420.5938" y2="420.5938"/><text fill="#000000" font-family="sans-serif" font-size="14" lengthAdjust="spacing" textLength="146.8975" x="17" y="412.292">AsistenciaRegistrada</text></g><g class="end_entity" data-qualified-name=".end." data-source-line="18" id="ent0015"><ellipse cx="257.45" cy="643.2969" fill="none" rx="11" ry="11" style="stroke:#222222;stroke-width:1;"/><ellipse cx="257.45" cy="643.2969" fill="#222222" rx="6" ry="6" style="stroke:#222222;stroke-width:1;"/></g><!--link *start* to Programada--><g class="link" data-entity-1="ent0002" data-entity-2="ent0003" data-link-type="dependency" data-source-line="4" id="lnk4"><path d="M334.45,63.6769 C334.45,80.4069 334.45,109.8869 334.45,133.9269" fill="none" id="*start*-to-Programada" style="stroke:#181818;stroke-width:1;"/><polygon fill="#181818" points="334.45,139.9269,338.45,130.9269,334.45,134.9269,330.45,130.9269,334.45,139.9269" style="stroke:#181818;stroke-width:1;"/><text fill="#000000" font-family="sans-serif" font-size="13" lengthAdjust="spacing" textLength="122.1987" x="335.45" y="106.3638">crearSesionClase()</text></g><!--link Programada to Programada--><g class="link" data-entity-1="ent0003" data-entity-2="ent0003" data-link-type="dependency" data-source-line="6" id="lnk5"><path d="M387.62,153.4069 C406.71,153.1469 422.28,157.1069 422.28,165.2969 C422.28,173.4869 412.7094,177.5286 393.6194,177.2686" fill="none" id="Programada-to-Programada" style="stroke:#181818;stroke-width:1;"/><polygon fill="#181818" points="387.62,177.1869,396.5647,181.3091,392.6195,177.255,396.6736,173.3098,387.62,177.1869" style="stroke:#181818;stroke-width:1;"/><text fill="#000000" font-family="sans-serif" font-size="13" lengthAdjust="spacing" textLength="126.6675" x="428.28" y="169.8638">editarSesionClase()</text></g><!--link Programada to AsistenciaPendiente--><g class="link" data-entity-1="ent0003" data-entity-2="ent0006" data-link-type="dependency" data-source-line="7" id="lnk7"><path d="M300.59,190.5369 C289.87,199.1869 278.47,209.4869 269.45,220.2969 C257.67,234.4169 250.2008,247.1291 243.0808,261.5191" fill="none" id="Programada-to-AsistenciaPendiente" style="stroke:#181818;stroke-width:1;"/><polygon fill="#181818" points="240.42,266.8969,247.9964,260.6042,242.6374,262.4154,240.8261,257.0564,240.42,266.8969" style="stroke:#181818;stroke-width:1;"/><text fill="#000000" font-family="sans-serif" font-size="13" lengthAdjust="spacing" textLength="127.9307" x="270.45" y="233.3638">iniciarSesionClase()</text></g><!--link Programada to Cerrada--><g class="link" data-entity-1="ent0003" data-entity-2="ent0008" data-link-type="dependency" data-source-line="8" id="lnk9"><path d="M377.12,190.6669 C387.29,198.6969 396.81,208.6269 402.45,220.2969 C414.41,245.0569 526.43,187.6069 389.45,444.2969 C369,482.6069 332.268,507.952 301.098,524.662" fill="none" id="Programada-to-Cerrada" style="stroke:#181818;stroke-width:1;"/><polygon fill="#181818" points="295.81,527.4969,305.632,526.7699,300.2167,525.1345,301.8521,519.7192,295.81,527.4969" style="stroke:#181818;stroke-width:1;"/><text fill="#000000" font-family="sans-serif" font-size="13" lengthAdjust="spacing" textLength="127.5435" x="435.45" y="360.3638">cerrarSesionClase()</text></g><!--link AsistenciaPendiente to AsistenciaRegistrada--><g class="link" data-entity-1="ent0006" data-entity-2="ent0010" data-link-type="dependency" data-source-line="11" id="lnk11"><path d="M202.32,317.6969 C177.83,339.7169 146.4418,367.9454 121.9718,389.9454" fill="none" id="AsistenciaPendiente-to-AsistenciaRegistrada" style="stroke:#181818;stroke-width:1;"/><polygon fill="#181818" points="117.51,393.9569,126.8771,390.9142,121.2282,390.614,121.5285,384.9651,117.51,393.9569" style="stroke:#181818;stroke-width:1;"/><text fill="#000000" font-family="sans-serif" font-size="13" lengthAdjust="spacing" textLength="168.5112" x="169.45" y="360.3638">registrarTomaAsistencia()</text></g><!--link AsistenciaRegistrada to AsistenciaRegistrada--><g class="link" data-entity-1="ent0010" data-entity-2="ent0010" data-link-type="dependency" data-source-line="12" id="lnk12"><path d="M174.29,407.6169 C194.19,408.5469 208.9,412.4469 208.9,419.2969 C208.9,426.1469 200.1835,429.7668 180.2835,430.6968" fill="none" id="AsistenciaRegistrada-to-AsistenciaRegistrada" style="stroke:#181818;stroke-width:1;"/><polygon fill="#181818" points="174.29,430.9769,183.4669,434.5524,179.2845,430.7435,183.0935,426.5611,174.29,430.9769" style="stroke:#181818;stroke-width:1;"/><text fill="#000000" font-family="sans-serif" font-size="13" lengthAdjust="spacing" textLength="168.5112" x="214.9" y="423.8638">registrarTomaAsistencia()</text></g><!--link AsistenciaRegistrada to Cerrada--><g class="link" data-entity-1="ent0010" data-entity-2="ent0008" data-link-type="dependency" data-source-line="15" id="lnk13"><path d="M123.04,444.6969 C152.47,466.7169 190.7255,495.3629 220.1355,517.3629" fill="none" id="AsistenciaRegistrada-to-Cerrada" style="stroke:#181818;stroke-width:1;"/><polygon fill="#181818" points="224.94,520.9569,220.1292,512.3629,220.9362,517.9619,215.3373,518.7689,224.94,520.9569" style="stroke:#181818;stroke-width:1;"/><text fill="#000000" font-family="sans-serif" font-size="13" lengthAdjust="spacing" textLength="127.5435" x="185.45" y="487.3638">cerrarSesionClase()</text></g><!--link Cerrada to Cerrada--><g class="link" data-entity-1="ent0008" data-entity-2="ent0008" data-link-type="dependency" data-source-line="16" id="lnk14"><path d="M295.74,536.1469 C314.16,534.8869 330.42,538.2769 330.42,546.2969 C330.42,554.3169 320.146,558.1163 301.726,556.8563" fill="none" id="Cerrada-to-Cerrada" style="stroke:#181818;stroke-width:1;"/><polygon fill="#181818" points="295.74,556.4469,304.446,561.0517,300.7283,556.7881,304.992,553.0704,295.74,556.4469" style="stroke:#181818;stroke-width:1;"/><text fill="#000000" font-family="sans-serif" font-size="13" lengthAdjust="spacing" textLength="192.4229" x="336.42" y="550.8638">exportarHistorialAsistencias()</text></g><!--link Cerrada to *end*--><g class="link" data-entity-1="ent0008" data-entity-2="ent0015" data-link-type="dependency" data-source-line="18" id="lnk16"><path d="M257.45,571.7569 C257.45,591.3369 257.45,611.7869 257.45,626.0969" fill="none" id="Cerrada-to-*end*" style="stroke:#181818;stroke-width:1;"/><polygon fill="#181818" points="257.45,632.0969,261.45,623.0969,257.45,627.0969,253.45,623.0969,257.45,632.0969" style="stroke:#181818;stroke-width:1;"/></g><?plantuml-src dP5D2y8m38Rl_HKzgh0_u46GANWSwaqyX3MCuDQEf8B-UpEPxCEvWvUIZ_TzahPo8ry3GsKbFalKaocFzweqaQBcEu92ks0Tshr4S47MTYia4NrEOCnbTRL9ih4PXxVGWLtRd17uX4B1foK8BfR6z0HVUdGKnuQHlfkPeNU4Fg8QoPDMvfqfChThDT5uBpD57auyOg5X2-4suNEeeDCeQjBm5ydyPitVvjCTAl5H1zO7FYWeC47PqQMPrdVfVxu0?></g></svg>