<svg xmlns="http://www.w3.org/2000/svg" xmlns:xlink="http://www.w3.org/1999/xlink" contentStyleType="text/css" data-diagram-type="CLASS" height="773px" preserveAspectRatio="none" style="width:848px;height:773px;background:#FFFFFF;" version="1.1" viewBox="0 0 848 773" width="848px" zoomAndPan="magnify"><?plantuml 1.2026.4beta2?><defs/><g><g class="title" data-source-line="1"><text fill="#000000" font-family="sans-serif" font-size="14" font-weight="700" lengthAdjust="spacing" textLength="425.1611" x="208.1907" y="22.9951">Diagrama de Objetos - Sistema de Gesti&#243;n Acad&#233;mica</text></g><g class="entity" data-qualified-name="alumno1" data-source-line="5" id="ent0002"><rect fill="#F1F1F1" height="60.8906" rx="2.5" ry="2.5" style="stroke:#181818;stroke-width:0.5;" width="183.3291" x="409.08" y="181.4769"/><text fill="#000000" font-family="sans-serif" font-size="14" lengthAdjust="spacing" textLength="119.458" x="441.0155" y="196.472">alumno1:Alumno</text><line style="stroke:#181818;stroke-width:0.5;" x1="410.08" x2="591.4091" y1="201.7738" y2="201.7738"/><text fill="#000000" font-family="sans-serif" font-size="14" lengthAdjust="spacing" textLength="171.3291" x="415.08" y="218.7689">nombre = "Pedro Perez"</text><text fill="#000000" font-family="sans-serif" font-size="14" lengthAdjust="spacing" textLength="116.2998" x="415.08" y="235.0657">codigo = "A001"</text></g><g class="entity" data-qualified-name="matricula1" data-source-line="10" id="ent0003"><rect fill="#F1F1F1" height="60.8906" rx="2.5" ry="2.5" style="stroke:#181818;stroke-width:0.5;" width="165.5625" x="186.96" y="310.5169"/><text fill="#000000" font-family="sans-serif" font-size="14" lengthAdjust="spacing" textLength="144.8467" x="197.3179" y="325.512">matricula1:Matricula</text><line style="stroke:#181818;stroke-width:0.5;" x1="187.96" x2="351.5225" y1="330.8138" y2="330.8138"/><text fill="#000000" font-family="sans-serif" font-size="14" lengthAdjust="spacing" textLength="153.5625" x="192.96" y="347.8089">fecha = "2024-09-01"</text><text fill="#000000" font-family="sans-serif" font-size="14" lengthAdjust="spacing" textLength="123.457" x="192.96" y="364.1057">estado = "activa"</text></g><g class="entity" data-qualified-name="grado1" data-source-line="15" id="ent0004"><rect fill="#F1F1F1" height="60.8906" rx="2.5" ry="2.5" style="stroke:#181818;stroke-width:0.5;" width="254.5186" x="10.49" y="447.7069"/><text fill="#000000" font-family="sans-serif" font-size="14" lengthAdjust="spacing" textLength="96.9336" x="89.2825" y="462.702">grado1:Grado</text><line style="stroke:#181818;stroke-width:0.5;" x1="11.49" x2="264.0086" y1="468.0038" y2="468.0038"/><text fill="#000000" font-family="sans-serif" font-size="14" lengthAdjust="spacing" textLength="242.5186" x="16.49" y="484.9989">nombre = "Ingenier&#237;a Inform&#225;tica"</text><text fill="#000000" font-family="sans-serif" font-size="14" lengthAdjust="spacing" textLength="99.1074" x="16.49" y="501.2957">codigo = "GII"</text></g><g class="entity" data-qualified-name="asignatura1" data-source-line="20" id="ent0005"><rect fill="#F1F1F1" height="77.1875" rx="2.5" ry="2.5" style="stroke:#181818;stroke-width:0.5;" width="294.8916" x="436.3" y="44.2969"/><text fill="#000000" font-family="sans-serif" font-size="14" lengthAdjust="spacing" textLength="164.2197" x="501.6359" y="59.292">asignatura1:Asignatura</text><line style="stroke:#181818;stroke-width:0.5;" x1="437.3" x2="730.1916" y1="64.5938" y2="64.5938"/><text fill="#000000" font-family="sans-serif" font-size="14" lengthAdjust="spacing" textLength="282.8916" x="442.3" y="81.5889">nombre = "Lenguajes de Programaci&#243;n"</text><text fill="#000000" font-family="sans-serif" font-size="14" lengthAdjust="spacing" textLength="122.9648" x="442.3" y="97.8857">codigo = "LP101"</text><text fill="#000000" font-family="sans-serif" font-size="14" lengthAdjust="spacing" textLength="85.7295" x="442.3" y="114.1826">creditos = 6</text></g><g class="entity" data-qualified-name="profesor1" data-source-line="26" id="ent0006"><rect fill="#F1F1F1" height="60.8906" rx="2.5" ry="2.5" style="stroke:#181818;stroke-width:0.5;" width="225.6025" x="607.94" y="697.6369"/><text fill="#000000" font-family="sans-serif" font-size="14" lengthAdjust="spacing" textLength="129.9102" x="655.7862" y="712.632">profesor1:Profesor</text><line style="stroke:#181818;stroke-width:0.5;" x1="608.94" x2="832.5425" y1="717.9338" y2="717.9338"/><text fill="#000000" font-family="sans-serif" font-size="14" lengthAdjust="spacing" textLength="178.1787" x="613.94" y="734.9289">nombre = "Jose Bre&#241;osa"</text><text fill="#000000" font-family="sans-serif" font-size="14" lengthAdjust="spacing" textLength="213.6025" x="613.94" y="751.2257">departamento = "Inform&#225;tica"</text></g><g class="entity" data-qualified-name="directorGrado1" data-source-line="31" id="ent0007"><rect fill="#F1F1F1" height="60.8906" rx="2.5" ry="2.5" style="stroke:#181818;stroke-width:0.5;" width="243.4893" x="7" y="576.7469"/><text fill="#000000" font-family="sans-serif" font-size="14" lengthAdjust="spacing" textLength="229.4893" x="14" y="591.742">directorGrado1:DirectorDeGrado</text><line style="stroke:#181818;stroke-width:0.5;" x1="8" x2="249.4893" y1="597.0438" y2="597.0438"/><text fill="#000000" font-family="sans-serif" font-size="14" lengthAdjust="spacing" textLength="190.9141" x="13" y="614.0389">nombre = "Manuel Mas&#237;as"</text><text fill="#000000" font-family="sans-serif" font-size="14" lengthAdjust="spacing" textLength="213.6025" x="13" y="630.3357">departamento = "Inform&#225;tica"</text></g><g class="entity" data-qualified-name="secretaria1" data-source-line="36" id="ent0008"><rect fill="#F1F1F1" height="60.8906" rx="2.5" ry="2.5" style="stroke:#181818;stroke-width:0.5;" width="246.9072" x="285.29" y="576.7469"/><text fill="#000000" font-family="sans-serif" font-size="14" lengthAdjust="spacing" textLength="232.9072" x="292.29" y="591.742">secretaria1:SecretariaAcademica</text><line style="stroke:#181818;stroke-width:0.5;" x1="286.29" x2="531.1972" y1="597.0438" y2="597.0438"/><text fill="#000000" font-family="sans-serif" font-size="14" lengthAdjust="spacing" textLength="200.0537" x="291.29" y="614.0389">nombre = "Rosa Fern&#225;ndez"</text><text fill="#000000" font-family="sans-serif" font-size="14" lengthAdjust="spacing" textLength="121.3105" x="291.29" y="630.3357">oficina = "B-201"</text></g><g class="entity" data-qualified-name="sesion1" data-source-line="41" id="ent0009"><rect fill="#F1F1F1" height="77.1875" rx="2.5" ry="2.5" style="stroke:#181818;stroke-width:0.5;" width="175.8203" x="560.83" y="439.5569"/><text fill="#000000" font-family="sans-serif" font-size="14" lengthAdjust="spacing" textLength="161.8203" x="567.83" y="454.552">sesion1:SesionDeClase</text><line style="stroke:#181818;stroke-width:0.5;" x1="561.83" x2="735.6503" y1="459.8538" y2="459.8538"/><text fill="#000000" font-family="sans-serif" font-size="14" lengthAdjust="spacing" textLength="153.5625" x="566.83" y="476.8489">fecha = "2024-11-15"</text><text fill="#000000" font-family="sans-serif" font-size="14" lengthAdjust="spacing" textLength="105.6289" x="566.83" y="493.1457">hora = "10:00"</text><text fill="#000000" font-family="sans-serif" font-size="14" lengthAdjust="spacing" textLength="104.7813" x="566.83" y="509.4426">aula = "A-301"</text></g><g class="entity" data-qualified-name="asistencia1" data-source-line="47" id="ent0010"><rect fill="#F1F1F1" height="60.8906" rx="2.5" ry="2.5" style="stroke:#181818;stroke-width:0.5;" width="169.0186" x="567.24" y="576.7469"/><text fill="#000000" font-family="sans-serif" font-size="14" lengthAdjust="spacing" textLength="155.0186" x="574.24" y="591.742">asistencia1:Asistencia</text><line style="stroke:#181818;stroke-width:0.5;" x1="568.24" x2="735.2586" y1="597.0438" y2="597.0438"/><text fill="#000000" font-family="sans-serif" font-size="14" lengthAdjust="spacing" textLength="153.5625" x="573.24" y="614.0389">fecha = "2024-11-15"</text><text fill="#000000" font-family="sans-serif" font-size="14" lengthAdjust="spacing" textLength="111.501" x="573.24" y="630.3357">presente = true</text></g><g class="entity" data-qualified-name="dispensa1" data-source-line="52" id="ent0011"><rect fill="#F1F1F1" height="77.1875" rx="2.5" ry="2.5" style="stroke:#181818;stroke-width:0.5;" width="225.6299" x="387.93" y="302.3669"/><text fill="#000000" font-family="sans-serif" font-size="14" lengthAdjust="spacing" textLength="140.1504" x="430.6697" y="317.362">dispensa1:Dispensa</text><line style="stroke:#181818;stroke-width:0.5;" x1="388.93" x2="612.5599" y1="322.6638" y2="322.6638"/><text fill="#000000" font-family="sans-serif" font-size="14" lengthAdjust="spacing" textLength="203.9844" x="393.93" y="339.6589">motivo = "Clases Solapadas"</text><text fill="#000000" font-family="sans-serif" font-size="14" lengthAdjust="spacing" textLength="213.6299" x="393.93" y="355.9557">fechaSolicitud = "2024-11-14"</text><text fill="#000000" font-family="sans-serif" font-size="14" lengthAdjust="spacing" textLength="147.6563" x="393.93" y="372.2526">estado = "aprobada"</text></g><!--link alumno1 to matricula1--><g class="link" data-entity-1="ent0002" data-entity-2="ent0003" data-link-type="dependency" data-source-line="60" id="lnk12"><path codeLine="60" d="M446.59,242.7069 C409.65,263.0269 366.1778,286.9362 329.2178,307.2562" fill="none" id="alumno1-to-matricula1" style="stroke:#181818;stroke-width:1;"/><polygon fill="#181818" points="323.96,310.1469,333.7738,309.3161,328.3415,307.738,329.9196,302.3057,323.96,310.1469" style="stroke:#181818;stroke-width:1;"/></g><!--link matricula1 to grado1--><g class="link" data-entity-1="ent0003" data-entity-2="ent0004" data-link-type="dependency" data-source-line="61" id="lnk13"><path codeLine="61" d="M240.78,371.6269 C218.77,394.1669 192.8309,420.7331 170.8409,443.2631" fill="none" id="matricula1-to-grado1" style="stroke:#181818;stroke-width:1;"/><polygon fill="#181818" points="166.65,447.5569,175.7988,443.9101,170.1424,443.9787,170.0738,438.3223,166.65,447.5569" style="stroke:#181818;stroke-width:1;"/></g><!--link matricula1 to secretaria1--><g class="link" data-entity-1="ent0003" data-entity-2="ent0008" data-link-type="dependency" data-source-line="62" id="lnk14"><path codeLine="62" d="M285.42,371.7569 C312.19,422.6469 363.6065,520.3868 390.3365,571.1968" fill="none" id="matricula1-to-secretaria1" style="stroke:#181818;stroke-width:1;"/><polygon fill="#181818" points="393.13,576.5069,392.4798,566.6795,390.8021,572.0818,385.3997,570.4042,393.13,576.5069" style="stroke:#181818;stroke-width:1;"/></g><!--link asignatura1 to grado1--><g class="link" data-entity-1="ent0005" data-entity-2="ent0004" data-link-type="dependency" data-source-line="64" id="lnk15"><path codeLine="64" d="M444.37,121.9169 C351.93,154.5169 235.87,211.0269 169.74,302.3669 C138.54,345.4769 134.7125,403.8487 135.6325,441.2587" fill="none" id="asignatura1-to-grado1" style="stroke:#181818;stroke-width:1;"/><polygon fill="#181818" points="135.78,447.2569,139.5575,438.1613,135.6571,442.2584,131.5599,438.3579,135.78,447.2569" style="stroke:#181818;stroke-width:1;"/></g><!--link asignatura1 to profesor1--><g class="link" data-entity-1="ent0005" data-entity-2="ent0006" data-link-type="dependency" data-source-line="65" id="lnk16"><path codeLine="65" d="M642.78,121.8669 C703.65,166.1769 789.74,245.5369 789.74,339.9669 C789.74,339.9669 789.74,339.9669 789.74,479.1569 C789.74,560.4669 757.2864,645.9849 737.1264,691.8049" fill="none" id="asignatura1-to-profesor1" style="stroke:#181818;stroke-width:1;"/><polygon fill="#181818" points="734.71,697.2969,741.9958,690.6699,736.7236,692.7203,734.6732,687.4481,734.71,697.2969" style="stroke:#181818;stroke-width:1;"/></g><!--reverse link asignatura1 to alumno1--><g class="link" data-entity-1="ent0005" data-entity-2="ent0002" data-link-type="aggregation" data-source-line="68" id="lnk17"><path codeLine="68" d="M552.5053,131.702 C540.0753,150.722 531.8,163.3969 520.19,181.1569" fill="none" id="asignatura1-backto-alumno1" style="stroke:#181818;stroke-width:1;"/><polygon fill="none" points="559.07,121.6569,552.4393,124.4912,552.5053,131.702,559.136,128.8677,559.07,121.6569" style="stroke:#181818;stroke-width:1;"/></g><!--reverse link asignatura1 to sesion1--><g class="link" data-entity-1="ent0005" data-entity-2="ent0009" data-link-type="composition" data-source-line="70" id="lnk18"><path codeLine="70" d="M597.8465,133.2633 C602.8265,151.2833 605.38,161.6169 609.74,181.4769 C621.44,234.7469 623.28,248.3469 630.74,302.3669 C637.24,349.3569 642.48,403.7469 645.6,439.2169" fill="none" id="asignatura1-backto-sesion1" style="stroke:#181818;stroke-width:1;"/><polygon fill="#181818" points="594.65,121.6969,592.3928,128.5456,597.8465,133.2633,600.1037,126.4146,594.65,121.6969" style="stroke:#181818;stroke-width:1;"/></g><!--reverse link sesion1 to asistencia1--><g class="link" data-entity-1="ent0009" data-entity-2="ent0010" data-link-type="composition" data-source-line="71" id="lnk19"><path codeLine="71" d="M649.924,528.9235 C650.374,547.9335 650.62,558.6669 651.04,576.4269" fill="none" id="sesion1-backto-asistencia1" style="stroke:#181818;stroke-width:1;"/><polygon fill="#181818" points="649.64,516.9269,645.7831,523.0199,649.924,528.9235,653.7809,522.8305,649.64,516.9269" style="stroke:#181818;stroke-width:1;"/></g><!--link asistencia1 to profesor1--><g class="link" data-entity-1="ent0010" data-entity-2="ent0006" data-link-type="dependency" data-source-line="72" id="lnk20"><path codeLine="72" d="M668.98,637.8869 C679.52,656.0469 689.9394,673.9969 700.4794,692.1669" fill="none" id="asistencia1-to-profesor1" style="stroke:#181818;stroke-width:1;"/><polygon fill="#181818" points="703.49,697.3569,702.4341,687.5648,700.9812,693.0319,695.5141,691.5789,703.49,697.3569" style="stroke:#181818;stroke-width:1;"/></g><!--link alumno1 to dispensa1--><g class="link" data-entity-1="ent0002" data-entity-2="ent0011" data-link-type="dependency" data-source-line="74" id="lnk21"><path codeLine="74" d="M500.74,242.7069 C500.74,260.4569 500.74,277.1569 500.74,296.1569" fill="none" id="alumno1-to-dispensa1" style="stroke:#181818;stroke-width:1;"/><polygon fill="#181818" points="500.74,302.1569,504.74,293.1569,500.74,297.1569,496.74,293.1569,500.74,302.1569" style="stroke:#181818;stroke-width:1;"/></g><!--link dispensa1 to sesion1--><g class="link" data-entity-1="ent0011" data-entity-2="ent0009" data-link-type="dependency" data-source-line="75" id="lnk22"><path codeLine="75" d="M542.36,379.9769 C562.63,398.4869 582.5003,416.64 602.7503,435.14" fill="none" id="dispensa1-to-sesion1" style="stroke:#181818;stroke-width:1;"/><polygon fill="#181818" points="607.18,439.1869,603.2333,430.1634,603.4886,435.8144,597.8375,436.0697,607.18,439.1869" style="stroke:#181818;stroke-width:1;"/></g><!--link dispensa1 to directorGrado1--><g class="link" data-entity-1="ent0011" data-entity-2="ent0007" data-link-type="dependency" data-source-line="76" id="lnk23"><path codeLine="76" d="M457.56,379.7869 C414.62,416.6269 346.16,473.2669 282.74,516.7469 C251.38,538.2469 219.8444,556.822 190.1044,573.352" fill="none" id="dispensa1-to-directorGrado1" style="stroke:#181818;stroke-width:1;"/><polygon fill="#181818" points="184.86,576.2669,194.6698,575.3908,189.2303,573.8378,190.7833,568.3983,184.86,576.2669" style="stroke:#181818;stroke-width:1;"/></g><!--link dispensa1 to secretaria1--><g class="link" data-entity-1="ent0011" data-entity-2="ent0008" data-link-type="dependency" data-source-line="77" id="lnk24"><path codeLine="77" d="M487.56,379.8169 C469.08,432.9069 437.8226,522.6804 421.0326,570.9104" fill="none" id="dispensa1-to-secretaria1" style="stroke:#181818;stroke-width:1;"/><polygon fill="#181818" points="419.06,576.5769,425.7966,569.3923,420.7039,571.8548,418.2413,566.7621,419.06,576.5769" style="stroke:#181818;stroke-width:1;"/></g><!--link grado1 to directorGrado1--><g class="link" data-entity-1="ent0004" data-entity-2="ent0007" data-link-type="dependency" data-source-line="79" id="lnk25"><path codeLine="79" d="M135.63,508.9369 C134.19,529.3269 132.7035,550.2618 131.2635,570.6118" fill="none" id="grado1-to-directorGrado1" style="stroke:#181818;stroke-width:1;"/><polygon fill="#181818" points="130.84,576.5969,135.4653,567.9017,131.1929,571.6093,127.4852,567.337,130.84,576.5969" style="stroke:#181818;stroke-width:1;"/></g><!--link grado1 to secretaria1--><g class="link" data-entity-1="ent0004" data-entity-2="ent0008" data-link-type="dependency" data-source-line="80" id="lnk26"><path codeLine="80" d="M201.28,508.9369 C244.62,529.2469 296.3577,553.4993 339.7077,573.8293" fill="none" id="grado1-to-secretaria1" style="stroke:#181818;stroke-width:1;"/><polygon fill="#181818" points="345.14,576.3769,338.69,568.934,340.6131,574.2539,335.2932,576.177,345.14,576.3769" style="stroke:#181818;stroke-width:1;"/></g><?plantuml-src bLJDRjf04BxxAKPS8bMoXDEqKf5IYG15ZeX1a3x0O0za8tiNxIuzjEfJz0boxA67ge_0YtN_36k8L9NBBZFU-MQ--MOqqpN1cE5MOeDG4SpNpwI5WXHMJ6donYafpGv_E0nBh0u_6rPYabn1cgQG5wl7OJ7AXwFyyAE0yGJcT_UJn_dAUfD4c72bXXxM-uQBR31qPmzGGJ31jmJCZujcBGbkeRUWIWfOaAIlFUSgHSMsmhg6_NxMIxwVmZQe9IltDMQ3X_RgWfyS8Vw6oYUqCQxxrpTf_qDg8rc7AGqh5nrBpRvW9xwXfJ9PJ-tXudh3HSuvtn9d90-_47A-4R8vl6Z3qda1qppln4V5jXprNfe2XiUxf-Vake2R4T_kyPcKRSv22jUzqdRe772soDf2IqaLiwszXVTn3ZifDgI4p0QBS7FuH_C5-hrG17UI3h-52XLMj4EfiI6kXUSZvY02gvWqfv1JJ-mu_1tJYUBk9nVe3yZtLCC3AaEs-azuHOO5ZP8PlbV7krKrML4x_EYR2_2bgHW-aUI75rwr-XGRLZBkn7MNNfyfL95YWbiqUuvfLAEYWECyh-epozBidO_-9AIpP_r1l-zDQ7JjnY5zUuPcH6E6bfVCwodSMpsrhdz1xYGfGwMjMCizTVkdTiGLsjRvM-XPC8VGZJ2Zv5hXwbMm4ZNki6eRvg2DpH2dzrKdXvkBiJHAN9kdhb2_T9QJcTatysAoWaa1dmkOh4QJOhZCvp2Q5wEbsJz-_RGx9aq_HYiXYRQ3zVYXFhT6EZ21eccCdfoRZqDZCrrIxOSoI1hDN4f9MrRX06OOJRXnSCs8qob9KplMOKV2LGT860P2OTt4tXX7K5NIgilQejOdiGpECex9EZOqERNMa-B3TwtTaRru4l4OzkShZo9FzE8l?></g></svg>