<svg xmlns="http://www.w3.org/2000/svg" xmlns:xlink="http://www.w3.org/1999/xlink" version="1.1" data-diagram-type="SEQUENCE" style="width:1310px;height:790px;background:#FFFFFF;" width="1310px" height="790px" viewBox="0 0 1310 790" zoomAndPan="magnify" preserveAspectRatio="none" contentStyleType="text/css"><?plantuml 1.2026.7beta8?><defs/><g font-family="sans-serif" lengthAdjust="spacing"><g class="title" data-source-line="1"><text x="322.635" y="27.995" fill="#000" font-size="14" textLength="663.277" font-weight="700">Diagrama de Secuencia - Consultar Detalle de Matrícula (Vue 3 + Express + Prisma)</text></g><g><title>Secretaria</title><rect x="45.43" y="125.891" width="8" height="574.922" fill="#000" fill-opacity="0"/><line x1="48.93" y1="125.891" x2="48.93" y2="700.813" style="stroke:#181818;stroke-width:0.5;stroke-dasharray:5,5;"/></g><g><title>Frontend</title><rect x="365.609" y="125.891" width="8" height="574.922" fill="#000" fill-opacity="0"/><line x1="369.109" y1="125.891" x2="369.109" y2="700.813" style="stroke:#181818;stroke-width:0.5;stroke-dasharray:5,5;"/></g><g><title></title><rect x="364.109" y="170.156" width="10" height="530.656" fill="#FFF" style="stroke:#181818;stroke-width:1;"/></g><g><title></title><rect x="369.109" y="418.352" width="10" height="264.461" fill="#FFF" style="stroke:#181818;stroke-width:1;"/></g><g><title>SecretariaController</title><rect x="720.955" y="125.891" width="8" height="574.922" fill="#000" fill-opacity="0"/><line x1="724.455" y1="125.891" x2="724.455" y2="700.813" style="stroke:#181818;stroke-width:0.5;stroke-dasharray:5,5;"/></g><g><title></title><rect x="719.455" y="199.289" width="10" height="160.797" fill="#FFF" style="stroke:#181818;stroke-width:1;"/></g><g><title></title><rect x="719.455" y="447.484" width="10" height="191.063" fill="#FFF" style="stroke:#181818;stroke-width:1;"/></g><g><title>SecretariaService</title><rect x="975.392" y="125.891" width="8" height="574.922" fill="#000" fill-opacity="0"/><line x1="978.892" y1="125.891" x2="978.892" y2="700.813" style="stroke:#181818;stroke-width:0.5;stroke-dasharray:5,5;"/></g><g><title></title><rect x="973.892" y="228.422" width="10" height="102.531" fill="#FFF" style="stroke:#181818;stroke-width:1;"/></g><g><title></title><rect x="973.892" y="476.617" width="10" height="132.797" fill="#FFF" style="stroke:#181818;stroke-width:1;"/></g><g><title>Base de Datos</title><rect x="1242.448" y="125.891" width="8" height="574.922" fill="#000" fill-opacity="0"/><line x1="1245.948" y1="125.891" x2="1245.948" y2="700.813" style="stroke:#181818;stroke-width:0.5;stroke-dasharray:5,5;"/></g><g><title></title><rect x="1240.948" y="272.688" width="10" height="29.133" fill="#FFF" style="stroke:#181818;stroke-width:1;"/></g><g><title></title><rect x="1240.948" y="551.148" width="10" height="29.133" fill="#FFF" style="stroke:#181818;stroke-width:1;"/></g><text x="10" y="122.589" fill="#000" font-size="14" textLength="71.859">Secretaria</text><ellipse cx="48.93" cy="58.094" rx="8" ry="8" fill="#E2E2F0" style="stroke:#181818;stroke-width:0.5;"/><path d="M48.93,66.094 L48.93,93.094 M35.93,74.094 L61.93,74.094 M48.93,93.094 L35.93,108.094 M48.93,93.094 L61.93,108.094" style="stroke:#181818;stroke-width:0.5;" fill="none"/><rect x="330.555" y="78.297" width="77.109" height="46.594" fill="#E2E2F0" style="stroke:#181818;stroke-width:0.5;" rx="2.5" ry="2.5"/><text x="337.555" y="98.292" fill="#000" font-size="14" textLength="63.109">Frontend</text><text x="343.437" y="114.589" fill="#000" font-size="14" textLength="51.345">(Vue 3)</text><rect x="646.939" y="94.594" width="155.032" height="30.297" fill="#E2E2F0" style="stroke:#181818;stroke-width:0.5;" rx="2.5" ry="2.5"/><text x="653.939" y="114.589" fill="#000" font-size="14" textLength="141.032">SecretariaController</text><rect x="910.092" y="94.594" width="137.601" height="30.297" fill="#E2E2F0" style="stroke:#181818;stroke-width:0.5;" rx="2.5" ry="2.5"/><text x="917.092" y="114.589" fill="#000" font-size="14" textLength="123.601">SecretariaService</text><text x="1192.349" y="106.292" fill="#000" font-size="14" textLength="101.199">Base de Datos</text><text x="1197.11" y="122.589" fill="#000" font-size="14" textLength="91.677">(PostgreSQL)</text><path d="M1227.948,57.297 C1227.948,47.297 1245.948,47.297 1245.948,47.297 C1245.948,47.297 1263.948,47.297 1263.948,57.297 L1263.948,83.297 C1263.948,93.297 1245.948,93.297 1245.948,93.297 C1245.948,93.297 1227.948,93.297 1227.948,83.297 L1227.948,57.297" style="stroke:#181818;stroke-width:0.5;" fill="#E2E2F0"/><path d="M1227.948,57.297 C1227.948,67.297 1245.948,67.297 1245.948,67.297 C1245.948,67.297 1263.948,67.297 1263.948,57.297" style="stroke:#181818;stroke-width:0.5;" fill="none"/><text x="10" y="713.808" fill="#000" font-size="14" textLength="71.859">Secretaria</text><ellipse cx="48.93" cy="725.609" rx="8" ry="8" fill="#E2E2F0" style="stroke:#181818;stroke-width:0.5;"/><path d="M48.93,733.609 L48.93,760.609 M35.93,741.609 L61.93,741.609 M48.93,760.609 L35.93,775.609 M48.93,760.609 L61.93,775.609" style="stroke:#181818;stroke-width:0.5;" fill="none"/><rect x="330.555" y="700.813" width="77.109" height="46.594" fill="#E2E2F0" style="stroke:#181818;stroke-width:0.5;" rx="2.5" ry="2.5"/><text x="337.555" y="720.808" fill="#000" font-size="14" textLength="63.109">Frontend</text><text x="343.437" y="737.104" fill="#000" font-size="14" textLength="51.345">(Vue 3)</text><rect x="646.939" y="700.813" width="155.032" height="30.297" fill="#E2E2F0" style="stroke:#181818;stroke-width:0.5;" rx="2.5" ry="2.5"/><text x="653.939" y="720.808" fill="#000" font-size="14" textLength="141.032">SecretariaController</text><rect x="910.092" y="700.813" width="137.601" height="30.297" fill="#E2E2F0" style="stroke:#181818;stroke-width:0.5;" rx="2.5" ry="2.5"/><text x="917.092" y="720.808" fill="#000" font-size="14" textLength="123.601">SecretariaService</text><text x="1192.349" y="713.808" fill="#000" font-size="14" textLength="101.199">Base de Datos</text><text x="1197.11" y="730.104" fill="#000" font-size="14" textLength="91.677">(PostgreSQL)</text><path d="M1227.948,743.406 C1227.948,733.406 1245.948,733.406 1245.948,733.406 C1245.948,733.406 1263.948,733.406 1263.948,743.406 L1263.948,769.406 C1263.948,779.406 1245.948,779.406 1245.948,779.406 C1245.948,779.406 1227.948,779.406 1227.948,769.406 L1227.948,743.406" style="stroke:#181818;stroke-width:0.5;" fill="#E2E2F0"/><path d="M1227.948,743.406 C1227.948,753.406 1245.948,753.406 1245.948,753.406 C1245.948,753.406 1263.948,753.406 1263.948,743.406" style="stroke:#181818;stroke-width:0.5;" fill="none"/><polygon points="352.109,166.156,362.109,170.156,352.109,174.156,356.109,170.156" fill="#181818" style="stroke:#181818;stroke-width:1;stroke-linejoin:miter;stroke-miterlimit:10;"/><line x1="48.93" y1="170.156" x2="358.109" y2="170.156" style="stroke:#181818;stroke-width:1;"/><text x="55.93" y="149.958" fill="#000" font-size="13" textLength="220.257">accede a la sección de matrículas</text><text x="55.93" y="165.09" fill="#000" font-size="13" textLength="197.063">y busca por nombre o registro</text><polygon points="707.455,195.289,717.455,199.289,707.455,203.289,711.455,199.289" fill="#181818" style="stroke:#181818;stroke-width:1;stroke-linejoin:miter;stroke-miterlimit:10;"/><line x1="374.109" y1="199.289" x2="713.455" y2="199.289" style="stroke:#181818;stroke-width:1;"/><text x="381.109" y="194.223" fill="#000" font-size="13" textLength="184.025">GET /api/secretaria/alumnos</text><polygon points="961.892,224.422,971.892,228.422,961.892,232.422,965.892,228.422" fill="#181818" style="stroke:#181818;stroke-width:1;stroke-linejoin:miter;stroke-miterlimit:10;"/><line x1="729.455" y1="228.422" x2="967.892" y2="228.422" style="stroke:#181818;stroke-width:1;"/><text x="736.455" y="223.356" fill="#000" font-size="13" textLength="103.981">getAllAlumnos()</text><polygon points="1228.948,268.688,1238.948,272.688,1228.948,276.688,1232.948,272.688" fill="#181818" style="stroke:#181818;stroke-width:1;stroke-linejoin:miter;stroke-miterlimit:10;"/><line x1="983.892" y1="272.688" x2="1234.948" y2="272.688" style="stroke:#181818;stroke-width:1;"/><text x="990.892" y="252.489" fill="#000" font-size="13" textLength="155.397">SELECT * FROM Alumno</text><text x="990.892" y="267.622" fill="#000" font-size="13" textLength="178.083">INCLUDE matriculas(grado)</text><polygon points="994.892,297.82,984.892,301.82,994.892,305.82,990.892,301.82" fill="#181818" style="stroke:#181818;stroke-width:1;stroke-linejoin:miter;stroke-miterlimit:10;"/><line x1="988.892" y1="301.82" x2="1239.948" y2="301.82" style="stroke:#181818;stroke-width:1;stroke-dasharray:2,2;"/><text x="1000.892" y="296.754" fill="#000" font-size="13" textLength="127.835">alumnos : Alumno[]</text><polygon points="740.455,326.953,730.455,330.953,740.455,334.953,736.455,330.953" fill="#181818" style="stroke:#181818;stroke-width:1;stroke-linejoin:miter;stroke-miterlimit:10;"/><line x1="734.455" y1="330.953" x2="972.892" y2="330.953" style="stroke:#181818;stroke-width:1;stroke-dasharray:2,2;"/><text x="746.455" y="325.887" fill="#000" font-size="13" textLength="127.835">alumnos : Alumno[]</text><polygon points="385.109,356.086,375.109,360.086,385.109,364.086,381.109,360.086" fill="#181818" style="stroke:#181818;stroke-width:1;stroke-linejoin:miter;stroke-miterlimit:10;"/><line x1="379.109" y1="360.086" x2="718.455" y2="360.086" style="stroke:#181818;stroke-width:1;stroke-dasharray:2,2;"/><text x="391.109" y="355.02" fill="#000" font-size="13" textLength="132.088">200 OK { alumnos }</text><polygon points="59.93,385.219,49.93,389.219,59.93,393.219,55.93,389.219" fill="#181818" style="stroke:#181818;stroke-width:1;stroke-linejoin:miter;stroke-miterlimit:10;"/><line x1="53.93" y1="389.219" x2="363.109" y2="389.219" style="stroke:#181818;stroke-width:1;stroke-dasharray:2,2;"/><text x="65.93" y="384.153" fill="#000" font-size="13" textLength="291.18">muestra lista de alumnos con sus matrículas</text><polygon points="357.109,414.352,367.109,418.352,357.109,422.352,361.109,418.352" fill="#181818" style="stroke:#181818;stroke-width:1;stroke-linejoin:miter;stroke-miterlimit:10;"/><line x1="48.93" y1="418.352" x2="363.109" y2="418.352" style="stroke:#181818;stroke-width:1;"/><text x="55.93" y="413.286" fill="#000" font-size="13" textLength="265.104">selecciona un alumno para ver el detalle</text><polygon points="707.455,443.484,717.455,447.484,707.455,451.484,711.455,447.484" fill="#181818" style="stroke:#181818;stroke-width:1;stroke-linejoin:miter;stroke-miterlimit:10;"/><line x1="379.109" y1="447.484" x2="713.455" y2="447.484" style="stroke:#181818;stroke-width:1;"/><text x="386.109" y="442.418" fill="#000" font-size="13" textLength="326.346">GET /api/secretaria/alumnos/:alumnoId/matriculas</text><polygon points="961.892,472.617,971.892,476.617,961.892,480.617,965.892,476.617" fill="#181818" style="stroke:#181818;stroke-width:1;stroke-linejoin:miter;stroke-miterlimit:10;"/><line x1="729.455" y1="476.617" x2="967.892" y2="476.617" style="stroke:#181818;stroke-width:1;"/><text x="736.455" y="471.551" fill="#000" font-size="13" textLength="225.437">getMatriculasByAlumno(alumnoId)</text><polygon points="1228.948,547.148,1238.948,551.148,1228.948,555.148,1232.948,551.148" fill="#181818" style="stroke:#181818;stroke-width:1;stroke-linejoin:miter;stroke-miterlimit:10;"/><line x1="983.892" y1="551.148" x2="1234.948" y2="551.148" style="stroke:#181818;stroke-width:1;"/><text x="990.892" y="500.684" fill="#000" font-size="13" textLength="165.998">SELECT * FROM Matricula</text><text x="990.892" y="515.817" fill="#000" font-size="13" textLength="139.039">WHERE alumnoId = ?</text><text x="990.892" y="530.95" fill="#000" font-size="13" textLength="238.056">INCLUDE grado(director, secretaria),</text><text x="990.892" y="546.083" fill="#000" font-size="13" textLength="76.229">asignaturas</text><polygon points="994.892,576.281,984.892,580.281,994.892,584.281,990.892,580.281" fill="#181818" style="stroke:#181818;stroke-width:1;stroke-linejoin:miter;stroke-miterlimit:10;"/><line x1="988.892" y1="580.281" x2="1239.948" y2="580.281" style="stroke:#181818;stroke-width:1;stroke-dasharray:2,2;"/><text x="1000.892" y="575.215" fill="#000" font-size="13" textLength="151.411">matriculas : Matricula[]</text><polygon points="740.455,605.414,730.455,609.414,740.455,613.414,736.455,609.414" fill="#181818" style="stroke:#181818;stroke-width:1;stroke-linejoin:miter;stroke-miterlimit:10;"/><line x1="734.455" y1="609.414" x2="972.892" y2="609.414" style="stroke:#181818;stroke-width:1;stroke-dasharray:2,2;"/><text x="746.455" y="604.348" fill="#000" font-size="13" textLength="151.411">matriculas : Matricula[]</text><polygon points="390.109,634.547,380.109,638.547,390.109,642.547,386.109,638.547" fill="#181818" style="stroke:#181818;stroke-width:1;stroke-linejoin:miter;stroke-miterlimit:10;"/><line x1="384.109" y1="638.547" x2="718.455" y2="638.547" style="stroke:#181818;stroke-width:1;stroke-dasharray:2,2;"/><text x="396.109" y="633.481" fill="#000" font-size="13" textLength="145.063">200 OK { matriculas }</text><polygon points="59.93,678.813,49.93,682.813,59.93,686.813,55.93,682.813" fill="#181818" style="stroke:#181818;stroke-width:1;stroke-linejoin:miter;stroke-miterlimit:10;"/><line x1="53.93" y1="682.813" x2="368.109" y2="682.813" style="stroke:#181818;stroke-width:1;stroke-dasharray:2,2;"/><text x="65.93" y="662.614" fill="#000" font-size="13" textLength="193.292">muestra detalle de matrícula:</text><text x="65.93" y="677.747" fill="#000" font-size="13" textLength="224.155">grado, asignaturas y responsables</text><?plantuml-src hLJ1RjD04BtxAqOv9P385TmYGTN4BbGaj3Gj70Y7oNfahMJlMhlhY0ZnIJtn2Vqn9dRitI2eYE0IxKRpthnvyxnEke8WaPWRB14oWXM9cfIG21EOQsNhmg61X1mMNCa5ItJcyK7K1SBmOqtm4fv3-hKoP2sVReoq9OwY28NJ1WPCPnXh90u0BVXhLA5nKiWAbOF1fT7AaShMgkKSDTNTlyUrdeFrEQDPbsdA_VLFW1MPhHHqaDASemmTRj0I36RxNvumGQSjAxdHrkM6LXyMhPna5aMU2oQlUu4m1HI268l0lbWIGZx-K7koihUBANUmgQr0gDWQfSkD8T1WA9UMXUyjarjqvEUE-WRSp8_7xTwaTn1Z9MFR2ugng4kbhUS938a2D7CTXcUYdDn5KLoqqE78Wpj_egwMOScC4QjqaSxlu1bStbuleKMkrTNx-U8-IPjvPJFka3ELwO2H_ME2oL7xWsO-jKIVlqGPXGZV_bSBdeRsyiF1ZrVsukmChj_1jvxfUqWGckVNq8Zl8p25iYRU7M-TLzXyFnsNq0fiRSFzFv4UIyK-CreXrEh00HnYX2thfeAPcm_mVsKadhQ7gops2pivECiUEjkrEnXsjAS7gITRgqzlqziKEYfu1US-NqseXfaqj7zWnk1d6utN2gtC5RhQXDFyBdT-QhxqhKz8tzyGd9B1WEyVOfZvTze7RxfMZMjZ2Eo17Jyyjk8N7ZS5sR1br-Od?></g></svg>