<svg xmlns="http://www.w3.org/2000/svg" xmlns:xlink="http://www.w3.org/1999/xlink" contentStyleType="text/css" data-diagram-type="DESCRIPTION" height="435px" preserveAspectRatio="none" style="width:879px;height:435px;background:#FFFFFF;" version="1.1" viewBox="0 0 879 435" width="879px" zoomAndPan="magnify"><?plantuml 1.2026.5?><defs/><g><!--cluster consultarSolicitudDispensa--><g class="cluster" data-qualified-name="consultarSolicitudDispensa" data-source-line="7" id="ent0004"><path d="M8.5,106.3 L237.417,106.3 A3.75,3.75 0 0 1 239.917,108.8 L246.917,128.5969 L289.5,128.5969 A2.5,2.5 0 0 1 292,131.0969 L292,417.69 A2.5,2.5 0 0 1 289.5,420.19 L8.5,420.19 A2.5,2.5 0 0 1 6,417.69 L6,108.8 A2.5,2.5 0 0 1 8.5,106.3" fill="none" style="stroke:#000000;stroke-width:1.5;"/><line style="stroke:#000000;stroke-width:1.5;" x1="6" x2="246.917" y1="128.5969" y2="128.5969"/><text fill="#000000" font-family="sans-serif" font-size="14" font-weight="700" lengthAdjust="spacing" textLength="227.917" x="10" y="121.2951">consultarSolicitudDispensa()</text></g><!--entity ConsultarDispensasView--><g class="entity" data-qualified-name="consultarSolicitudDispensa.ConsultarDispensasView" data-source-line="8" id="ent0005"><rect fill="#629EF9" height="36.2969" rx="2.5" ry="2.5" style="stroke:#181818;stroke-width:0.5;" width="192.1289" x="83.94" y="141.3"/><text fill="#000000" font-family="sans-serif" font-size="14" lengthAdjust="spacing" textLength="172.1289" x="93.94" y="164.2951">ConsultarDispensasView</text></g><!--entity DispensaController--><g class="entity" data-qualified-name="consultarSolicitudDispensa.DispensaController" data-source-line="9" id="ent0006"><rect fill="#B5BD68" height="36.2969" rx="2.5" ry="2.5" style="stroke:#181818;stroke-width:0.5;" width="153.3828" x="25.31" y="254.6"/><text fill="#000000" font-family="sans-serif" font-size="14" lengthAdjust="spacing" textLength="133.3828" x="35.31" y="277.5951">DispensaController</text></g><!--entity SolicitudDispensaRepository--><g class="entity" data-qualified-name="consultarSolicitudDispensa.SolicitudDispensaRepository" data-source-line="10" id="ent0007"><rect fill="#F2AC4E" height="36.2969" rx="2.5" ry="2.5" style="stroke:#181818;stroke-width:0.5;" width="219.3496" x="22.33" y="367.89"/><text fill="#000000" font-family="sans-serif" font-size="14" lengthAdjust="spacing" textLength="199.3496" x="32.33" y="390.8851">SolicitudDispensaRepository</text></g><!--entity PanelSecretaria--><g class="entity" data-qualified-name="PanelSecretaria" data-source-line="3" id="ent0001"><rect fill="#CDEBA5" height="36.2969" rx="2.5" ry="2.5" style="stroke:#181818;stroke-width:0.5;" width="164.498" x="97.75" y="7"/><text fill="#000000" font-family="sans-serif" font-size="14" lengthAdjust="spacing" textLength="144.498" x="107.75" y="29.9951">:PANEL_SECRETARIA</text></g><!--entity HistorialDispensas--><g class="entity" data-qualified-name="HistorialDispensas" data-source-line="4" id="ent0002"><rect fill="#CDEBA5" height="36.2969" rx="2.5" ry="2.5" style="stroke:#181818;stroke-width:0.5;" width="273.6133" x="308.19" y="254.6"/><text fill="#000000" font-family="sans-serif" font-size="14" lengthAdjust="spacing" textLength="253.6133" x="318.19" y="277.5951">:HISTORIAL_DISPENSAS_MOSTRADO</text></g><!--entity CompletarGestion--><g class="entity" data-qualified-name="CompletarGestion" data-source-line="5" id="ent0003"><rect fill="#CDEBA5" height="36.2969" rx="2.5" ry="2.5" style="stroke:#181818;stroke-width:0.5;" width="249.2363" x="616.38" y="254.6"/><text fill="#000000" font-family="sans-serif" font-size="14" lengthAdjust="spacing" textLength="229.2363" x="626.38" y="277.5951">:Collaboration CompletarGestion</text></g><!--link PanelSecretaria to ConsultarDispensasView--><g class="link" data-entity-1="ent0001" data-entity-2="ent0005" data-link-type="dependency" data-source-line="13" id="lnk8"><path d="M180,43.72 C180,69.02 180,110.46 180,135.81" fill="none" id="PanelSecretaria-to-ConsultarDispensasView" style="stroke:#181818;stroke-width:1;"/><polygon fill="#181818" points="180,140.81,184,131.81,180,135.81,176,131.81,180,140.81" style="stroke:#181818;stroke-width:1;stroke-linejoin:miter;stroke-miterlimit:10;"/><text fill="#000000" font-family="sans-serif" font-size="13" lengthAdjust="spacing" textLength="185.9165" x="181" y="86.3669">consultarSolicitudDispensa()</text></g><!--link ConsultarDispensasView to DispensaController--><g class="link" data-entity-1="ent0005" data-entity-2="ent0006" data-link-type="dependency" data-source-line="15" id="lnk9"><path d="M167.81,177.84 C153.24,198.62 131.8686,229.1148 117.2286,250.0148" fill="none" id="ConsultarDispensasView-to-DispensaController" style="stroke:#181818;stroke-width:1;"/><polygon fill="#181818" points="114.36,254.11,122.7997,249.0335,117.2286,250.0148,116.2473,244.4437,114.36,254.11" style="stroke:#181818;stroke-width:1;stroke-linejoin:miter;stroke-miterlimit:10;"/><text fill="#000000" font-family="sans-serif" font-size="13" lengthAdjust="spacing" textLength="169.8125" x="147" y="220.6669">listarTodasLasDispensas()</text></g><!--link DispensaController to SolicitudDispensaRepository--><g class="link" data-entity-1="ent0006" data-entity-2="ent0007" data-link-type="dependency" data-source-line="16" id="lnk10"><path d="M106.69,291.13 C112.29,311.92 120.3073,341.6827 125.9473,362.5827" fill="none" id="DispensaController-to-SolicitudDispensaRepository" style="stroke:#181818;stroke-width:1;"/><polygon fill="#181818" points="127.25,367.41,128.767,357.6787,125.9473,362.5827,121.0433,359.763,127.25,367.41" style="stroke:#181818;stroke-width:1;stroke-linejoin:miter;stroke-miterlimit:10;"/><text fill="#000000" font-family="sans-serif" font-size="13" lengthAdjust="spacing" textLength="217.8706" x="120" y="333.9569">obtenerCatalogoTotalDispensas()</text></g><!--link ConsultarDispensasView to HistorialDispensas--><g class="link" data-entity-1="ent0005" data-entity-2="ent0002" data-link-type="dependency" data-source-line="18" id="lnk11"><path d="M233.99,178 C275.22,191.41 325,207.6 325,207.6 C325,207.6 372.2708,232.8622 407.8008,251.8622" fill="none" id="ConsultarDispensasView-to-HistorialDispensas" style="stroke:#181818;stroke-width:1;stroke-dasharray:7,7;"/><polygon fill="#181818" points="412.21,254.22,406.1598,246.4486,407.8008,251.8622,402.3873,253.5032,412.21,254.22" style="stroke:#181818;stroke-width:1;stroke-linejoin:miter;stroke-miterlimit:10;"/><text fill="#000000" font-family="sans-serif" font-size="13" lengthAdjust="spacing" textLength="109.6367" x="355" y="220.6669">&#171;include&#187; [&#233;xito]</text></g><!--link ConsultarDispensasView to CompletarGestion--><g class="link" data-entity-1="ent0005" data-entity-2="ent0003" data-link-type="dependency" data-source-line="19" id="lnk12"><path d="M276.34,175.95 C361.74,189.69 473,207.6 473,207.6 C473,207.6 583.2073,233.9761 662.5473,252.9661" fill="none" id="ConsultarDispensasView-to-CompletarGestion" style="stroke:#181818;stroke-width:1;stroke-dasharray:7,7;"/><polygon fill="#181818" points="667.41,254.13,659.5883,248.1449,662.5473,252.9661,657.7261,255.9251,667.41,254.13" style="stroke:#181818;stroke-width:1;stroke-linejoin:miter;stroke-miterlimit:10;"/><text fill="#000000" font-family="sans-serif" font-size="13" lengthAdjust="spacing" textLength="320.7344" x="538" y="220.6669">&#171;include&#187; completarGestion() [cancelaci&#243;n/error]</text></g><?plantuml-src VLBDQW8n4BxdAGPxqOCjI9Ls4M6xhbMmAhjBBqLap0uIZCcIH5efVQ2U-mY-MAFKqgu_kMNc-vjXx5Ae0WskG0f5RbCG55fkTX_63767QY49hg9k_10seH9Cmb4ydALnbCHPc0p22g252IgIAN533et0ayJ-8Ct6dZ2STGVf91wbOJfx6gTP4dR7Uv6-i4vxjkmAMv2oQ4_gH5fAd6k3JcW5aLuLSkVwI7PNs2kLYumLo9Uu8E1QsRNqdLHBmOLRvmUp7QzolbsjLU2TWNz_ChKQzt7ltjlzi7w3FmjwBOFdpNdUkeC3nfESyQEGAGDxZJ2wZU4eGaA5jiAlQCC-62kj7EhrpfaW0LmQYx7JBAZdNl4uRU0FnNfmfdEqGxI_92zrZDx7kZ1907hkI969qA7K2vrfz-S0BiIxlkwSk9W0scsXk5pdrEd0o_RppTjCBscKR-M_0YzrgpLuuQWuIUHY-wLko1Xjfjy0?></g></svg>