<svg xmlns="http://www.w3.org/2000/svg" xmlns:xlink="http://www.w3.org/1999/xlink" contentStyleType="text/css" data-diagram-type="DESCRIPTION" height="435px" preserveAspectRatio="none" style="width:935px;height:435px;background:#FFFFFF;" version="1.1" viewBox="0 0 935 435" width="935px" zoomAndPan="magnify"><?plantuml 1.2026.5?><defs/><g><!--cluster consultarSolicitudDispensa--><g class="cluster" data-qualified-name="consultarSolicitudDispensa" data-source-line="7" id="ent0004"><path d="M8.5,106.3 L237.417,106.3 A3.75,3.75 0 0 1 239.917,108.8 L246.917,128.5969 L313.5,128.5969 A2.5,2.5 0 0 1 316,131.0969 L316,417.69 A2.5,2.5 0 0 1 313.5,420.19 L8.5,420.19 A2.5,2.5 0 0 1 6,417.69 L6,108.8 A2.5,2.5 0 0 1 8.5,106.3" fill="none" style="stroke:#000000;stroke-width:1.5;"/><line style="stroke:#000000;stroke-width:1.5;" x1="6" x2="246.917" y1="128.5969" y2="128.5969"/><text fill="#000000" font-family="sans-serif" font-size="14" font-weight="700" lengthAdjust="spacing" textLength="227.917" x="10" y="121.2951">consultarSolicitudDispensa()</text></g><!--entity ConsultarDispensaView--><g class="entity" data-qualified-name="consultarSolicitudDispensa.ConsultarDispensaView" data-source-line="8" id="ent0005"><rect fill="#629EF9" height="36.2969" rx="2.5" ry="2.5" style="stroke:#181818;stroke-width:0.5;" width="184.835" x="115.58" y="141.3"/><text fill="#000000" font-family="sans-serif" font-size="14" lengthAdjust="spacing" textLength="164.835" x="125.58" y="164.2951">ConsultarDispensaView</text></g><!--entity DispensaController--><g class="entity" data-qualified-name="consultarSolicitudDispensa.DispensaController" data-source-line="9" id="ent0006"><rect fill="#B5BD68" height="36.2969" rx="2.5" ry="2.5" style="stroke:#181818;stroke-width:0.5;" width="153.3828" x="29.31" y="254.6"/><text fill="#000000" font-family="sans-serif" font-size="14" lengthAdjust="spacing" textLength="133.3828" x="39.31" y="277.5951">DispensaController</text></g><!--entity SolicitudDispensaRepository--><g class="entity" data-qualified-name="consultarSolicitudDispensa.SolicitudDispensaRepository" data-source-line="10" id="ent0007"><rect fill="#F2AC4E" height="36.2969" rx="2.5" ry="2.5" style="stroke:#181818;stroke-width:0.5;" width="219.3496" x="22.33" y="367.89"/><text fill="#000000" font-family="sans-serif" font-size="14" lengthAdjust="spacing" textLength="199.3496" x="32.33" y="390.8851">SolicitudDispensaRepository</text></g><!--entity PanelAlumno--><g class="entity" data-qualified-name="PanelAlumno" data-source-line="3" id="ent0001"><rect fill="#CDEBA5" height="36.2969" rx="2.5" ry="2.5" style="stroke:#181818;stroke-width:0.5;" width="138.0498" x="138.98" y="7"/><text fill="#000000" font-family="sans-serif" font-size="14" lengthAdjust="spacing" textLength="118.0498" x="148.98" y="29.9951">:PANEL_ALUMNO</text></g><!--entity SolicitudDetallada--><g class="entity" data-qualified-name="SolicitudDetallada" data-source-line="4" id="ent0002"><rect fill="#CDEBA5" height="36.2969" rx="2.5" ry="2.5" style="stroke:#181818;stroke-width:0.5;" width="267.3447" x="332.33" y="254.6"/><text fill="#000000" font-family="sans-serif" font-size="14" lengthAdjust="spacing" textLength="247.3447" x="342.33" y="277.5951">:SOLICITUD_DISPENSA_DETALLADA</text></g><!--entity CompletarGestion--><g class="entity" data-qualified-name="CompletarGestion" data-source-line="5" id="ent0003"><rect fill="#CDEBA5" height="36.2969" rx="2.5" ry="2.5" style="stroke:#181818;stroke-width:0.5;" width="249.2363" x="634.38" y="254.6"/><text fill="#000000" font-family="sans-serif" font-size="14" lengthAdjust="spacing" textLength="229.2363" x="644.38" y="277.5951">:Collaboration CompletarGestion</text></g><!--link PanelAlumno to ConsultarDispensaView--><g class="link" data-entity-1="ent0001" data-entity-2="ent0005" data-link-type="dependency" data-source-line="13" id="lnk8"><path d="M208,43.72 C208,69.02 208,110.46 208,135.81" fill="none" id="PanelAlumno-to-ConsultarDispensaView" style="stroke:#181818;stroke-width:1;"/><polygon fill="#181818" points="208,140.81,212,131.81,208,135.81,204,131.81,208,140.81" style="stroke:#181818;stroke-width:1;stroke-linejoin:miter;stroke-miterlimit:10;"/><text fill="#000000" font-family="sans-serif" font-size="13" lengthAdjust="spacing" textLength="185.9165" x="209" y="86.3669">consultarSolicitudDispensa()</text></g><!--link ConsultarDispensaView to DispensaController--><g class="link" data-entity-1="ent0005" data-entity-2="ent0006" data-link-type="dependency" data-source-line="15" id="lnk9"><path d="M192.06,177.84 C173.01,198.62 144.6878,229.5235 125.5378,250.4235" fill="none" id="ConsultarDispensaView-to-DispensaController" style="stroke:#181818;stroke-width:1;"/><polygon fill="#181818" points="122.16,254.11,131.1893,250.1766,125.5378,250.4235,125.2909,244.772,122.16,254.11" style="stroke:#181818;stroke-width:1;stroke-linejoin:miter;stroke-miterlimit:10;"/><text fill="#000000" font-family="sans-serif" font-size="13" lengthAdjust="spacing" textLength="241.9282" x="165" y="220.6669">obtenerHistorialDispensas(alumnoId)</text></g><!--link DispensaController to SolicitudDispensaRepository--><g class="link" data-entity-1="ent0006" data-entity-2="ent0007" data-link-type="dependency" data-source-line="16" id="lnk10"><path d="M110.06,291.13 C114.92,311.92 121.8631,341.641 126.7431,362.541" fill="none" id="DispensaController-to-SolicitudDispensaRepository" style="stroke:#181818;stroke-width:1;"/><polygon fill="#181818" points="127.88,367.41,129.7288,357.7362,126.7431,362.541,121.9384,359.5552,127.88,367.41" style="stroke:#181818;stroke-width:1;stroke-linejoin:miter;stroke-miterlimit:10;"/><text fill="#000000" font-family="sans-serif" font-size="13" lengthAdjust="spacing" textLength="185.3643" x="122" y="333.9569">buscarPorAlumno(alumnoId)</text></g><!--link ConsultarDispensaView to SolicitudDetallada--><g class="link" data-entity-1="ent0005" data-entity-2="ent0002" data-link-type="dependency" data-source-line="18" id="lnk11"><path d="M285.37,178.07 C344.17,191.46 415,207.6 415,207.6 C415,207.6 433.8491,231.3056 448.9491,250.3056" fill="none" id="ConsultarDispensaView-to-SolicitudDetallada" style="stroke:#181818;stroke-width:1;stroke-dasharray:7,7;"/><polygon fill="#181818" points="452.06,254.22,449.5919,244.6854,448.9491,250.3056,443.3289,249.6628,452.06,254.22" style="stroke:#181818;stroke-width:1;stroke-linejoin:miter;stroke-miterlimit:10;"/><text fill="#000000" font-family="sans-serif" font-size="13" lengthAdjust="spacing" textLength="109.6367" x="429" y="220.6669">&#171;include&#187; [&#233;xito]</text></g><!--link ConsultarDispensaView to CompletarGestion--><g class="link" data-entity-1="ent0005" data-entity-2="ent0003" data-link-type="dependency" data-source-line="19" id="lnk12"><path d="M300.63,173.33 C401,187.29 547,207.6 547,207.6 C547,207.6 633.2443,233.6919 696.0043,252.6819" fill="none" id="ConsultarDispensaView-to-CompletarGestion" style="stroke:#181818;stroke-width:1;stroke-dasharray:7,7;"/><polygon fill="#181818" points="700.79,254.13,693.3342,247.6949,696.0043,252.6819,691.0173,255.3521,700.79,254.13" style="stroke:#181818;stroke-width:1;stroke-linejoin:miter;stroke-miterlimit:10;"/><text fill="#000000" font-family="sans-serif" font-size="13" lengthAdjust="spacing" textLength="320.7344" x="599" y="220.6669">&#171;include&#187; completarGestion() [cancelaci&#243;n/error]</text></g><?plantuml-src VLBTJi8m5BxlKvpW3Lo02L6Z2o6fsrIIYKJ06qF8MNTY6akxj5kK61_8Qn-15xEWH1oJthNVp_c-vhXdgNEqk00bDHNBd20tQhc-C6P95AYV5C5H6CMN_1GQmOWFusJEa-djyAu1w624cXHNvKARMi7uBXc4WyaqcaU3yIWUZlayYYSyINZ4DmPZewIGHPb5LA1Ic66jJsWybXgBXJGQGhF8bUVRQtBhXurJzP6n7CKpFX48ersfFF8xJBgSjCErhl4_t6mru8s1FpkPpheNyTM57_UZsf8V9BrKkUbfcfsTmvRYDONrJSXMYLTT7fx4i9VWddBZP67iahqpjlFRq6xtwpC4SAWGOxKYQ6VURpzd02OjI9EzaSwdaAYs7DV4JP11rcBxkasy0sq2I4idq8wC_Uwpu_PFmawdNxCj0VHwKWjLPjJlm-FguzNxpmvOLDVahu6eeCqMF0hKWXGAkVhKnsIjiRCl?></g></svg>