<svg xmlns="http://www.w3.org/2000/svg" xmlns:xlink="http://www.w3.org/1999/xlink" version="1.1" data-diagram-type="SEQUENCE" style="width:1147px;height:1042px;background:#FFFFFF;" width="1147px" height="1042px" viewBox="0 0 1147 1042" zoomAndPan="magnify" preserveAspectRatio="none" contentStyleType="text/css"><?plantuml 1.2026.7beta8?><defs/><g font-family="sans-serif" lengthAdjust="spacing"><g class="title" data-source-line="1"><text x="305.086" y="27.995" fill="#000" font-size="14" textLength="535.24" font-weight="700">Diagrama de Secuencia - Editar Usuario (Vue 3 + Express + Prisma)</text></g><g><title>Administrador</title><rect x="59.04" y="125.891" width="8" height="826.789" fill="#000" fill-opacity="0"/><line x1="62.54" y1="125.891" x2="62.54" y2="952.68" style="stroke:#181818;stroke-width:0.5;stroke-dasharray:5,5;"/></g><g><title>Frontend</title><rect x="340.099" y="125.891" width="8" height="826.789" fill="#000" fill-opacity="0"/><line x1="343.599" y1="125.891" x2="343.599" y2="952.68" style="stroke:#181818;stroke-width:0.5;stroke-dasharray:5,5;"/></g><g><title></title><rect x="338.599" y="170.156" width="10" height="617.188" fill="#FFF" style="stroke:#181818;stroke-width:1;"/></g><g><title>UsuarioController</title><rect x="574.431" y="125.891" width="8" height="826.789" fill="#000" fill-opacity="0"/><line x1="577.931" y1="125.891" x2="577.931" y2="952.68" style="stroke:#181818;stroke-width:0.5;stroke-dasharray:5,5;"/></g><g><title></title><rect x="572.931" y="199.289" width="10" height="160.797" fill="#FFF" style="stroke:#181818;stroke-width:1;"/></g><g><title></title><rect x="572.931" y="477.75" width="10" height="280.461" fill="#FFF" style="stroke:#181818;stroke-width:1;"/></g><g><title>UsuarioService</title><rect x="848.654" y="125.891" width="8" height="826.789" fill="#000" fill-opacity="0"/><line x1="852.154" y1="125.891" x2="852.154" y2="952.68" style="stroke:#181818;stroke-width:0.5;stroke-dasharray:5,5;"/></g><g><title></title><rect x="847.154" y="228.422" width="10" height="102.531" fill="#FFF" style="stroke:#181818;stroke-width:1;"/></g><g><title></title><rect x="847.154" y="506.883" width="10" height="222.195" fill="#FFF" style="stroke:#181818;stroke-width:1;"/></g><g><title>Base de Datos</title><rect x="1079.313" y="125.891" width="8" height="826.789" fill="#000" fill-opacity="0"/><line x1="1082.813" y1="125.891" x2="1082.813" y2="952.68" style="stroke:#181818;stroke-width:0.5;stroke-dasharray:5,5;"/></g><g><title></title><rect x="1077.813" y="272.688" width="10" height="29.133" fill="#FFF" style="stroke:#181818;stroke-width:1;"/></g><g><title></title><rect x="1077.813" y="551.148" width="10" height="29.133" fill="#FFF" style="stroke:#181818;stroke-width:1;"/></g><g><title></title><rect x="1077.813" y="670.813" width="10" height="29.133" fill="#FFF" style="stroke:#181818;stroke-width:1;"/></g><text x="10" y="122.589" fill="#000" font-size="14" textLength="99.08">Administrador</text><ellipse cx="62.54" cy="58.094" rx="8" ry="8" fill="#E2E2F0" style="stroke:#181818;stroke-width:0.5;"/><path d="M62.54,66.094 L62.54,93.094 M49.54,74.094 L75.54,74.094 M62.54,93.094 L49.54,108.094 M62.54,93.094 L75.54,108.094" style="stroke:#181818;stroke-width:0.5;" fill="none"/><rect x="305.044" y="78.297" width="77.109" height="46.594" fill="#E2E2F0" style="stroke:#181818;stroke-width:0.5;" rx="2.5" ry="2.5"/><text x="312.044" y="98.292" fill="#000" font-size="14" textLength="63.109">Frontend</text><text x="317.927" y="114.589" fill="#000" font-size="14" textLength="51.345">(Vue 3)</text><rect x="509.743" y="94.594" width="136.377" height="30.297" fill="#E2E2F0" style="stroke:#181818;stroke-width:0.5;" rx="2.5" ry="2.5"/><text x="516.743" y="114.589" fill="#000" font-size="14" textLength="122.377">UsuarioController</text><rect x="792.681" y="94.594" width="118.945" height="30.297" fill="#E2E2F0" style="stroke:#181818;stroke-width:0.5;" rx="2.5" ry="2.5"/><text x="799.681" y="114.589" fill="#000" font-size="14" textLength="104.945">UsuarioService</text><text x="1029.213" y="106.292" fill="#000" font-size="14" textLength="101.199">Base de Datos</text><text x="1033.974" y="122.589" fill="#000" font-size="14" textLength="91.677">(PostgreSQL)</text><path d="M1064.813,57.297 C1064.813,47.297 1082.813,47.297 1082.813,47.297 C1082.813,47.297 1100.813,47.297 1100.813,57.297 L1100.813,83.297 C1100.813,93.297 1082.813,93.297 1082.813,93.297 C1082.813,93.297 1064.813,93.297 1064.813,83.297 L1064.813,57.297" style="stroke:#181818;stroke-width:0.5;" fill="#E2E2F0"/><path d="M1064.813,57.297 C1064.813,67.297 1082.813,67.297 1082.813,67.297 C1082.813,67.297 1100.813,67.297 1100.813,57.297" style="stroke:#181818;stroke-width:0.5;" fill="none"/><text x="10" y="965.675" fill="#000" font-size="14" textLength="99.08">Administrador</text><ellipse cx="62.54" cy="977.477" rx="8" ry="8" fill="#E2E2F0" style="stroke:#181818;stroke-width:0.5;"/><path d="M62.54,985.477 L62.54,1012.477 M49.54,993.477 L75.54,993.477 M62.54,1012.477 L49.54,1027.477 M62.54,1012.477 L75.54,1027.477" style="stroke:#181818;stroke-width:0.5;" fill="none"/><rect x="305.044" y="952.68" width="77.109" height="46.594" fill="#E2E2F0" style="stroke:#181818;stroke-width:0.5;" rx="2.5" ry="2.5"/><text x="312.044" y="972.675" fill="#000" font-size="14" textLength="63.109">Frontend</text><text x="317.927" y="988.972" fill="#000" font-size="14" textLength="51.345">(Vue 3)</text><rect x="509.743" y="952.68" width="136.377" height="30.297" fill="#E2E2F0" style="stroke:#181818;stroke-width:0.5;" rx="2.5" ry="2.5"/><text x="516.743" y="972.675" fill="#000" font-size="14" textLength="122.377">UsuarioController</text><rect x="792.681" y="952.68" width="118.945" height="30.297" fill="#E2E2F0" style="stroke:#181818;stroke-width:0.5;" rx="2.5" ry="2.5"/><text x="799.681" y="972.675" fill="#000" font-size="14" textLength="104.945">UsuarioService</text><text x="1029.213" y="965.675" fill="#000" font-size="14" textLength="101.199">Base de Datos</text><text x="1033.974" y="981.972" fill="#000" font-size="14" textLength="91.677">(PostgreSQL)</text><path d="M1064.813,995.273 C1064.813,985.273 1082.813,985.273 1082.813,985.273 C1082.813,985.273 1100.813,985.273 1100.813,995.273 L1100.813,1021.273 C1100.813,1031.273 1082.813,1031.273 1082.813,1031.273 C1082.813,1031.273 1064.813,1031.273 1064.813,1021.273 L1064.813,995.273" style="stroke:#181818;stroke-width:0.5;" fill="#E2E2F0"/><path d="M1064.813,995.273 C1064.813,1005.273 1082.813,1005.273 1082.813,1005.273 C1082.813,1005.273 1100.813,1005.273 1100.813,995.273" style="stroke:#181818;stroke-width:0.5;" fill="none"/><polygon points="326.599,166.156,336.599,170.156,326.599,174.156,330.599,170.156" fill="#181818" style="stroke:#181818;stroke-width:1;stroke-linejoin:miter;stroke-miterlimit:10;"/><line x1="62.54" y1="170.156" x2="332.599" y2="170.156" style="stroke:#181818;stroke-width:1;"/><text x="69.54" y="149.958" fill="#000" font-size="13" textLength="247.336">selecciona usuario y modifica campos</text><text x="69.54" y="165.09" fill="#000" font-size="13" textLength="129.886">(nombre, email, rol)</text><polygon points="560.931,195.289,570.931,199.289,560.931,203.289,564.931,199.289" fill="#181818" style="stroke:#181818;stroke-width:1;stroke-linejoin:miter;stroke-miterlimit:10;"/><line x1="348.599" y1="199.289" x2="566.931" y2="199.289" style="stroke:#181818;stroke-width:1;"/><text x="355.599" y="194.223" fill="#000" font-size="13" textLength="134.475">GET /api/usuarios/:id</text><polygon points="835.154,224.422,845.154,228.422,835.154,232.422,839.154,228.422" fill="#181818" style="stroke:#181818;stroke-width:1;stroke-linejoin:miter;stroke-miterlimit:10;"/><line x1="582.931" y1="228.422" x2="841.154" y2="228.422" style="stroke:#181818;stroke-width:1;"/><text x="589.931" y="223.356" fill="#000" font-size="13" textLength="92.758">getUsuario(id)</text><polygon points="1065.813,268.688,1075.813,272.688,1065.813,276.688,1069.813,272.688" fill="#181818" style="stroke:#181818;stroke-width:1;stroke-linejoin:miter;stroke-miterlimit:10;"/><line x1="857.154" y1="272.688" x2="1071.813" y2="272.688" style="stroke:#181818;stroke-width:1;"/><text x="864.154" y="252.489" fill="#000" font-size="13" textLength="172.244">SELECT * FROM [tabla_rol]</text><text x="864.154" y="267.622" fill="#000" font-size="13" textLength="90.143">WHERE id = ?</text><polygon points="868.154,297.82,858.154,301.82,868.154,305.82,864.154,301.82" fill="#181818" style="stroke:#181818;stroke-width:1;stroke-linejoin:miter;stroke-miterlimit:10;"/><line x1="862.154" y1="301.82" x2="1076.813" y2="301.82" style="stroke:#181818;stroke-width:1;stroke-dasharray:2,2;"/><text x="874.154" y="296.754" fill="#000" font-size="13" textLength="110.176">usuario : Usuario</text><polygon points="593.931,326.953,583.931,330.953,593.931,334.953,589.931,330.953" fill="#181818" style="stroke:#181818;stroke-width:1;stroke-linejoin:miter;stroke-miterlimit:10;"/><line x1="587.931" y1="330.953" x2="846.154" y2="330.953" style="stroke:#181818;stroke-width:1;stroke-dasharray:2,2;"/><text x="599.931" y="325.887" fill="#000" font-size="13" textLength="110.176">usuario : Usuario</text><polygon points="359.599,356.086,349.599,360.086,359.599,364.086,355.599,360.086" fill="#181818" style="stroke:#181818;stroke-width:1;stroke-linejoin:miter;stroke-miterlimit:10;"/><line x1="353.599" y1="360.086" x2="571.931" y2="360.086" style="stroke:#181818;stroke-width:1;stroke-dasharray:2,2;"/><text x="365.599" y="355.02" fill="#000" font-size="13" textLength="124.77">200 OK { usuario }</text><polygon points="73.54,385.219,63.54,389.219,73.54,393.219,69.54,389.219" fill="#181818" style="stroke:#181818;stroke-width:1;stroke-linejoin:miter;stroke-miterlimit:10;"/><line x1="67.54" y1="389.219" x2="337.599" y2="389.219" style="stroke:#181818;stroke-width:1;stroke-dasharray:2,2;"/><text x="79.54" y="384.153" fill="#000" font-size="13" textLength="252.059">muestra formulario con datos actuales</text><polygon points="326.599,429.484,336.599,433.484,326.599,437.484,330.599,433.484" fill="#181818" style="stroke:#181818;stroke-width:1;stroke-linejoin:miter;stroke-miterlimit:10;"/><line x1="62.54" y1="433.484" x2="332.599" y2="433.484" style="stroke:#181818;stroke-width:1;"/><text x="69.54" y="413.286" fill="#000" font-size="13" textLength="116.003">confirma cambios</text><text x="69.54" y="428.418" fill="#000" font-size="13" textLength="129.886">(nombre, email, rol)</text><polygon points="560.931,473.75,570.931,477.75,560.931,481.75,564.931,477.75" fill="#181818" style="stroke:#181818;stroke-width:1;stroke-linejoin:miter;stroke-miterlimit:10;"/><line x1="348.599" y1="477.75" x2="566.931" y2="477.75" style="stroke:#181818;stroke-width:1;"/><text x="355.599" y="457.551" fill="#000" font-size="13" textLength="133.542">PUT /api/usuarios/:id</text><text x="355.599" y="472.684" fill="#000" font-size="13" textLength="144.549">{ nombre, email, rol }</text><polygon points="835.154,502.883,845.154,506.883,835.154,510.883,839.154,506.883" fill="#181818" style="stroke:#181818;stroke-width:1;stroke-linejoin:miter;stroke-miterlimit:10;"/><line x1="582.931" y1="506.883" x2="841.154" y2="506.883" style="stroke:#181818;stroke-width:1;"/><text x="589.931" y="501.817" fill="#000" font-size="13" textLength="245.223">updateUsuario(id, nombre, email, rol)</text><polygon points="1065.813,547.148,1075.813,551.148,1065.813,555.148,1069.813,551.148" fill="#181818" style="stroke:#181818;stroke-width:1;stroke-linejoin:miter;stroke-miterlimit:10;"/><line x1="857.154" y1="551.148" x2="1071.813" y2="551.148" style="stroke:#181818;stroke-width:1;"/><text x="864.154" y="530.95" fill="#000" font-size="13" textLength="155.2">SELECT * FROM Usuario</text><text x="864.154" y="546.083" fill="#000" font-size="13" textLength="194.156">WHERE email = ? AND id != ?</text><polygon points="868.154,576.281,858.154,580.281,868.154,584.281,864.154,580.281" fill="#181818" style="stroke:#181818;stroke-width:1;stroke-linejoin:miter;stroke-miterlimit:10;"/><line x1="862.154" y1="580.281" x2="1076.813" y2="580.281" style="stroke:#181818;stroke-width:1;stroke-dasharray:2,2;"/><text x="874.154" y="575.215" fill="#000" font-size="13" textLength="126.153">Optional&lt;Usuario></text><path d="M46.54,592.281 L110.983,592.281 L110.983,599.414 L100.983,609.414 L46.54,609.414 L46.54,592.281" style="stroke:#000;stroke-width:1.5;" fill="#EEE"/><rect x="46.54" y="592.281" width="1057.272" height="336.398" fill="none" style="stroke:#000;stroke-width:1.5;"/><text x="61.54" y="605.348" fill="#000" font-size="13" textLength="19.443" font-weight="700">alt</text><text x="125.983" y="604.492" fill="#000" font-size="11" textLength="108.045" font-weight="700">[email no en uso]</text><line x1="46.54" y1="806.344" x2="1103.813" y2="806.344" style="stroke:#000;stroke-width:1;stroke-dasharray:2,2;"/><text x="51.54" y="818.554" fill="#000" font-size="11" textLength="107.25" font-weight="700">[email ya en uso]</text><polygon points="1065.813,666.813,1075.813,670.813,1065.813,674.813,1069.813,670.813" fill="#181818" style="stroke:#181818;stroke-width:1;stroke-linejoin:miter;stroke-miterlimit:10;"/><line x1="857.154" y1="670.813" x2="1071.813" y2="670.813" style="stroke:#181818;stroke-width:1;"/><text x="864.154" y="635.481" fill="#000" font-size="13" textLength="122.992">UPDATE [tabla_rol]</text><text x="864.154" y="650.614" fill="#000" font-size="13" textLength="201.659">SET nombre=?, email=?, rol=?</text><text x="864.154" y="665.747" fill="#000" font-size="13" textLength="81.878">WHERE id=?</text><polygon points="868.154,695.945,858.154,699.945,868.154,703.945,864.154,699.945" fill="#181818" style="stroke:#181818;stroke-width:1;stroke-linejoin:miter;stroke-miterlimit:10;"/><line x1="862.154" y1="699.945" x2="1076.813" y2="699.945" style="stroke:#181818;stroke-width:1;stroke-dasharray:2,2;"/><text x="874.154" y="694.879" fill="#000" font-size="13" textLength="185.739">usuarioActualizado : Usuario</text><polygon points="593.931,725.078,583.931,729.078,593.931,733.078,589.931,729.078" fill="#181818" style="stroke:#181818;stroke-width:1;stroke-linejoin:miter;stroke-miterlimit:10;"/><line x1="587.931" y1="729.078" x2="846.154" y2="729.078" style="stroke:#181818;stroke-width:1;stroke-dasharray:2,2;"/><text x="599.931" y="724.012" fill="#000" font-size="13" textLength="185.739">usuarioActualizado : Usuario</text><polygon points="359.599,754.211,349.599,758.211,359.599,762.211,355.599,758.211" fill="#181818" style="stroke:#181818;stroke-width:1;stroke-linejoin:miter;stroke-miterlimit:10;"/><line x1="353.599" y1="758.211" x2="571.931" y2="758.211" style="stroke:#181818;stroke-width:1;stroke-dasharray:2,2;"/><text x="365.599" y="753.145" fill="#000" font-size="13" textLength="200.332">200 OK { usuarioActualizado }</text><polygon points="73.54,783.344,63.54,787.344,73.54,791.344,69.54,787.344" fill="#181818" style="stroke:#181818;stroke-width:1;stroke-linejoin:miter;stroke-miterlimit:10;"/><line x1="67.54" y1="787.344" x2="337.599" y2="787.344" style="stroke:#181818;stroke-width:1;stroke-dasharray:2,2;"/><text x="79.54" y="782.278" fill="#000" font-size="13" textLength="227.024">usuario actualizado correctamente</text><polygon points="588.931,843.281,578.931,847.281,588.931,851.281,584.931,847.281" fill="#181818" style="stroke:#181818;stroke-width:1;stroke-linejoin:miter;stroke-miterlimit:10;"/><line x1="582.931" y1="847.281" x2="851.154" y2="847.281" style="stroke:#181818;stroke-width:1;stroke-dasharray:2,2;"/><text x="594.931" y="842.215" fill="#000" font-size="13" textLength="199.031">throw Error("Email ya en uso")</text><polygon points="354.599,887.547,344.599,891.547,354.599,895.547,350.599,891.547" fill="#181818" style="stroke:#181818;stroke-width:1;stroke-linejoin:miter;stroke-miterlimit:10;"/><line x1="348.599" y1="891.547" x2="576.931" y2="891.547" style="stroke:#181818;stroke-width:1;stroke-dasharray:2,2;"/><text x="360.599" y="871.348" fill="#000" font-size="13" textLength="111.604">400 Bad Request</text><text x="360.599" y="886.481" fill="#000" font-size="13" textLength="207.029">{ message: "Email ya en uso" }</text><polygon points="73.54,916.68,63.54,920.68,73.54,924.68,69.54,920.68" fill="#181818" style="stroke:#181818;stroke-width:1;stroke-linejoin:miter;stroke-miterlimit:10;"/><line x1="67.54" y1="920.68" x2="342.599" y2="920.68" style="stroke:#181818;stroke-width:1;stroke-dasharray:2,2;"/><text x="79.54" y="915.614" fill="#000" font-size="13" textLength="209.619">muestra error "Email ya en uso"</text><?plantuml-src bPLDRzD048Rl_XM3JmsqQWMS8j8egLsGA4re4ZXGXARUILZ9tZNhTQ5K_U_CEdRyqIGjEKJ-s7bctfbtrrRQc22Gk3AO80Y26KKvgKWY744ef4K3Yon78pKSVCa9ti0h2F-aXhAChwP6PWdsF0yZgmtu8v589JDhK6ZZ0sPGFF5ID5P6CaLbmJytMbbIubgjYRrYOVMqlRRCVSRlZ8vZMaFhswshPsHkPKJ5qlBQ4sZn1ZC2V-p-MMc0LcTSmrHdTcLezlbYNKWmzhoYQZWwtLG5VSWefYYIMY7aPKVk8D52BcM4466I5ZYbanj3Xq09olWGkCoUwuwyHKkrI6y3vYIr74xpFfp3CQRok4oI7VUbg0aDwLuZZYcbKaQio9QTE92YaRtgXLSjvQXWp06py28ycyDBEB-QV89ltAaOVp3v-xNw-Y6y2a4A6C2m9d6FEF2ebRLgIhyoZ2Ue6L1dxKhU6xafkgcsFPdN9oSm-GZt6z134z3iMDrr9go7t8Sa9-TOM6gJv741YBG2uVm1ZCanfcox9tZTKfga6F-Dt3d_tTEUBhPC-rhTmsCCg_el5-GfAw3Q28UmrvhFD4V9gunHe9mtO7GPE9kyUD8dazIwJHI_Ar6dNPzWR4kkqa2Afwez3_ZNhMmn3KRpiEtN6M-VjSx1i5JgBlZbO5YxUJ0iWCsqxdwNfqU52UHVFjKQ9dKHdT9RLUwm-RDWcscuvyztVfFzq6KsJUDURTqCrHR21YdInb1aCI5UtwNMHnh5VB2k1tU7smVNROdzQVHl28tHvi0Fsw5-xmdnRrdy60LSqI-tWzskIVYpX2lgmoDOsOwz1m2vEXw7iZ8b_W40?></g></svg>