<svg xmlns="http://www.w3.org/2000/svg" xmlns:xlink="http://www.w3.org/1999/xlink" contentStyleType="text/css" data-diagram-type="STATE" height="1593px" preserveAspectRatio="none" style="width:1339px;height:1593px;background:#FFFFFF;" version="1.1" viewBox="0 0 1339 1593" width="1339px" zoomAndPan="magnify"><title>Exportar dispensas</title><defs/><g><g class="title" data-source-line="1"><text fill="#000000" font-family="sans-serif" font-size="14" font-weight="bold" lengthAdjust="spacing" textLength="151.8057" x="586.7295" y="32.9951">Exportar dispensas</text></g><g id="DISPENSAS_ABIERTO_INICIAL"><rect fill="#F1F1F1" height="76.2969" rx="12.5" ry="12.5" style="stroke:#181818;stroke-width:0.5;" width="187.3623" x="610.5" y="203.2969"/><line style="stroke:#181818;stroke-width:0.5;" x1="610.5" x2="797.8623" y1="249.5938" y2="249.5938"/><text fill="#000000" font-family="sans-serif" font-size="14" lengthAdjust="spacing" textLength="147.3623" x="630.5" y="231.292">DISPENSAS_ABIERTO</text></g><path d="M353,399.2969 L1055.4346,399.2969 A12.5,12.5 0 0 1 1067.9346,411.7969 L1067.9346,445.5938 L340.5,445.5938 L340.5,411.7969 A12.5,12.5 0 0 1 353,399.2969" fill="#F1F1F1"/><rect fill="none" height="608.2969" rx="12.5" ry="12.5" style="stroke:#181818;stroke-width:0.5;" width="727.4346" x="340.5" y="399.2969"/><line style="stroke:#181818;stroke-width:0.5;" x1="340.5" x2="1067.9346" y1="445.5938" y2="445.5938"/><text fill="#000000" font-family="sans-serif" font-size="14" lengthAdjust="spacing" textLength="161.3896" x="623.5225" y="427.292">EXPORTAR_DISPENSAS</text><g id="EXPORTAR_DISPENSAS_COMP.SolicitudFiltros"><rect fill="#F1F1F1" height="76.2969" rx="12.5" ry="12.5" style="stroke:#181818;stroke-width:0.5;" width="176.0625" x="623" y="512.5938"/><line style="stroke:#181818;stroke-width:0.5;" x1="623" x2="799.0625" y1="558.8906" y2="558.8906"/><text fill="#000000" font-family="sans-serif" font-size="14" lengthAdjust="spacing" textLength="136.0625" x="643" y="540.5889">Selecci&#243;n de Filtros</text></g><g id="EXPORTAR_DISPENSAS_COMP.ValidarFiltros"><rect fill="#F1F1F1" height="76.2969" rx="12.5" ry="12.5" style="stroke:#181818;stroke-width:0.5;" width="181.7637" x="620" y="632.0938"/><line style="stroke:#181818;stroke-width:0.5;" x1="620" x2="801.7637" y1="678.3906" y2="678.3906"/><text fill="#000000" font-family="sans-serif" font-size="14" lengthAdjust="spacing" textLength="141.7637" x="640" y="660.0889">Validaci&#243;n de Filtros</text></g><g id="EXPORTAR_DISPENSAS_COMP.SolicitudFormato"><rect fill="#F1F1F1" height="76.2969" rx="12.5" ry="12.5" style="stroke:#181818;stroke-width:0.5;" width="191.7715" x="615" y="751.5938"/><line style="stroke:#181818;stroke-width:0.5;" x1="615" x2="806.7715" y1="797.8906" y2="797.8906"/><text fill="#000000" font-family="sans-serif" font-size="14" lengthAdjust="spacing" textLength="151.7715" x="635" y="779.5889">Selecci&#243;n de Formato</text></g><g id="EXPORTAR_DISPENSAS_COMP.Descarga"><rect fill="#F1F1F1" height="76.2969" rx="12.5" ry="12.5" style="stroke:#181818;stroke-width:0.5;" width="185.2295" x="618.5" y="863.5938"/><line style="stroke:#181818;stroke-width:0.5;" x1="618.5" x2="803.7295" y1="909.8906" y2="909.8906"/><text fill="#000000" font-family="sans-serif" font-size="14" lengthAdjust="spacing" textLength="145.2295" x="638.5" y="891.5889">Descarga de Archivo</text></g><ellipse cx="711" cy="466.5938" fill="#222222" rx="10" ry="10" style="stroke:#222222;stroke-width:1;"/><ellipse cx="711" cy="986.5938" fill="none" rx="11" ry="11" style="stroke:#222222;stroke-width:1;"/><ellipse cx="711" cy="986.5938" fill="#222222" rx="6" ry="6" style="stroke:#222222;stroke-width:1;"/><g class="entity" data-entity="GMN5" data-source-line="38" data-uid="ent0006" id="entity_GMN5"><path d="M817.5,513.0938 L817.5,546.5938 L799.21,550.5938 L817.5,554.5938 L817.5,588.4922 A0,0 0 0 0 817.5,588.4922 L1044.7466,588.4922 A0,0 0 0 0 1044.7466,588.4922 L1044.7466,523.0938 L1034.7466,513.0938 L817.5,513.0938 A0,0 0 0 0 817.5,513.0938" fill="#FEFFDD" style="stroke:#181818;stroke-width:0.5;"/><path d="M1034.7466,513.0938 L1034.7466,523.0938 L1044.7466,523.0938 L1034.7466,513.0938" fill="#FEFFDD" style="stroke:#181818;stroke-width:0.5;"/><text fill="#000000" font-family="sans-serif" font-size="13" font-weight="bold" lengthAdjust="spacing" textLength="124.1855" x="833.5" y="540.1606">Sistema muestra</text><text fill="#000000" font-family="sans-serif" font-size="13" lengthAdjust="spacing" textLength="57.9287" x="961.8179" y="540.1606">opciones</text><text fill="#000000" font-family="sans-serif" font-size="13" lengthAdjust="spacing" textLength="120.25" x="833.5" y="555.2935">de filtrado y bot&#243;n</text><text fill="#000000" font-family="sans-serif" font-size="13" lengthAdjust="spacing" textLength="101.772" x="833.5" y="570.4263">de exportaci&#243;n.</text></g><g class="entity" data-entity="GMN8" data-source-line="46" data-uid="ent0009" id="entity_GMN8"><path d="M400,624.5938 L400,715.125 A0,0 0 0 0 400,715.125 L601.7925,715.125 A0,0 0 0 0 601.7925,715.125 L601.7925,674.5938 L619.94,670.5938 L601.7925,666.5938 L601.7925,634.5938 L591.7925,624.5938 L400,624.5938 A0,0 0 0 0 400,624.5938" fill="#FEFFDD" style="stroke:#181818;stroke-width:0.5;"/><path d="M591.7925,624.5938 L591.7925,634.5938 L601.7925,634.5938 L591.7925,624.5938" fill="#FEFFDD" style="stroke:#181818;stroke-width:0.5;"/><text fill="#000000" font-family="sans-serif" font-size="13" font-weight="bold" lengthAdjust="spacing" textLength="112.7598" x="416" y="651.6606">Alumno solicita</text><text fill="#000000" font-family="sans-serif" font-size="13" lengthAdjust="spacing" textLength="43.9004" x="532.8921" y="651.6606">aplicar</text><text fill="#000000" font-family="sans-serif" font-size="13" lengthAdjust="spacing" textLength="145.7485" x="416" y="666.7935">criterios de b&#250;squeda:</text><text fill="#000000" font-family="sans-serif" font-size="13" lengthAdjust="spacing" textLength="117.311" x="416" y="681.9263">curso, asignatura,</text><text fill="#000000" font-family="sans-serif" font-size="13" lengthAdjust="spacing" textLength="152.5088" x="416" y="697.0591">nombre e identificador.</text></g><g class="entity" data-entity="GMN11" data-source-line="56" data-uid="ent0012" id="entity_GMN11"><path d="M820,624.5938 L820,666.5938 L802.08,670.5938 L820,674.5938 L820,715.125 A0,0 0 0 0 820,715.125 L1036.373,715.125 A0,0 0 0 0 1036.373,715.125 L1036.373,634.5938 L1026.373,624.5938 L820,624.5938 A0,0 0 0 0 820,624.5938" fill="#FEFFDD" style="stroke:#181818;stroke-width:0.5;"/><path d="M1026.373,624.5938 L1026.373,634.5938 L1036.373,634.5938 L1026.373,624.5938" fill="#FEFFDD" style="stroke:#181818;stroke-width:0.5;"/><text fill="#000000" font-family="sans-serif" font-size="13" font-weight="bold" lengthAdjust="spacing" textLength="107.6689" x="836" y="651.6606">Sistema valida</text><text fill="#000000" font-family="sans-serif" font-size="13" lengthAdjust="spacing" textLength="63.5718" x="947.8013" y="651.6606">los filtros.</text><text fill="#000000" font-family="sans-serif" font-size="13" font-weight="bold" lengthAdjust="spacing" textLength="91.5522" x="836" y="666.7935">Si hay error:</text><text fill="#000000" font-family="sans-serif" font-size="13" lengthAdjust="spacing" textLength="165.4961" x="836" y="681.9263">informa inconsistencias y</text><text fill="#000000" font-family="sans-serif" font-size="13" lengthAdjust="spacing" textLength="121.9258" x="836" y="697.0591">solicita correcci&#243;n.</text></g><g class="entity" data-entity="GMN14" data-source-line="66" data-uid="ent0015" id="entity_GMN14"><path d="M367.5,752.0938 L367.5,827.4922 A0,0 0 0 0 367.5,827.4922 L596.0923,827.4922 A0,0 0 0 0 596.0923,827.4922 L596.0923,793.5938 L614.84,789.5938 L596.0923,785.5938 L596.0923,762.0938 L586.0923,752.0938 L367.5,752.0938 A0,0 0 0 0 367.5,752.0938" fill="#FEFFDD" style="stroke:#181818;stroke-width:0.5;"/><path d="M586.0923,752.0938 L586.0923,762.0938 L596.0923,762.0938 L586.0923,752.0938" fill="#FEFFDD" style="stroke:#181818;stroke-width:0.5;"/><text fill="#000000" font-family="sans-serif" font-size="13" font-weight="bold" lengthAdjust="spacing" textLength="116.1621" x="383.5" y="779.1606">Sistema solicita</text><text fill="#000000" font-family="sans-serif" font-size="13" lengthAdjust="spacing" textLength="67.2979" x="503.7944" y="779.1606">el formato</text><text fill="#000000" font-family="sans-serif" font-size="13" lengthAdjust="spacing" textLength="165.293" x="383.5" y="794.2935">de salida (PDF, CSV, etc.)</text><text fill="#000000" font-family="sans-serif" font-size="13" lengthAdjust="spacing" textLength="158.2344" x="383.5" y="809.4263">y el nombre del archivo.</text></g><g class="entity" data-entity="GMN17" data-source-line="74" data-uid="ent0018" id="entity_GMN17"><path d="M821.5,864.0938 L821.5,897.5938 L803.81,901.5938 L821.5,905.5938 L821.5,939.4922 A0,0 0 0 0 821.5,939.4922 L1058.9346,939.4922 A0,0 0 0 0 1058.9346,939.4922 L1058.9346,874.0938 L1048.9346,864.0938 L821.5,864.0938 A0,0 0 0 0 821.5,864.0938" fill="#FEFFDD" style="stroke:#181818;stroke-width:0.5;"/><path d="M1048.9346,864.0938 L1048.9346,874.0938 L1058.9346,874.0938 L1048.9346,864.0938" fill="#FEFFDD" style="stroke:#181818;stroke-width:0.5;"/><text fill="#000000" font-family="sans-serif" font-size="13" font-weight="bold" lengthAdjust="spacing" textLength="112.7598" x="837.5" y="891.1606">Alumno solicita</text><text fill="#000000" font-family="sans-serif" font-size="13" lengthAdjust="spacing" textLength="79.5425" x="954.3921" y="891.1606">la descarga.</text><text fill="#000000" font-family="sans-serif" font-size="13" font-weight="bold" lengthAdjust="spacing" textLength="120.999" x="837.5" y="906.2935">Sistema permite</text><text fill="#000000" font-family="sans-serif" font-size="13" lengthAdjust="spacing" textLength="51.1431" x="962.6313" y="906.2935">generar</text><text fill="#000000" font-family="sans-serif" font-size="13" lengthAdjust="spacing" textLength="178.166" x="837.5" y="921.4263">el archivo correspondiente.</text></g><g class="entity" data-entity="GMN20" data-source-line="82" data-uid="ent0021" id="entity_GMN20"><path d="M351.5,871.5938 L351.5,931.8594 A0,0 0 0 0 351.5,931.8594 L600.208,931.8594 A0,0 0 0 0 600.208,931.8594 L600.208,905.5938 L618.39,901.5938 L600.208,897.5938 L600.208,881.5938 L590.208,871.5938 L351.5,871.5938 A0,0 0 0 0 351.5,871.5938" fill="#FEFFDD" style="stroke:#181818;stroke-width:0.5;"/><path d="M590.208,871.5938 L590.208,881.5938 L600.208,881.5938 L590.208,871.5938" fill="#FEFFDD" style="stroke:#181818;stroke-width:0.5;"/><text fill="#000000" font-family="sans-serif" font-size="13" font-weight="bold" lengthAdjust="spacing" textLength="128.1655" x="367.5" y="898.6606">Sistema confirma</text><text fill="#000000" font-family="sans-serif" font-size="13" lengthAdjust="spacing" textLength="75.4102" x="499.7979" y="898.6606">la descarga</text><text fill="#000000" font-family="sans-serif" font-size="13" lengthAdjust="spacing" textLength="142.2192" x="367.5" y="913.7935">del archivo generado.</text></g><!--link *start*EXPORTAR_DISPENSAS_COMP to SolicitudFiltros--><g class="link" data-entity-1=".start.EXPORTAR_DISPENSAS_COMP" data-entity-2="SolicitudFiltros" data-source-line="35" data-uid="lnk6" id="link_.start.EXPORTAR_DISPENSAS_COMP_SolicitudFiltros"><path d="M711,476.8937 C711,485.8338 711,493.3438 711,506.3738" fill="none" id="*start*EXPORTAR_DISPENSAS_COMP-to-SolicitudFiltros" style="stroke:#008000;stroke-width:1;"/><polygon fill="#008000" points="711,512.3738,715,503.3738,711,507.3738,707,503.3738,711,512.3738" style="stroke:#008000;stroke-width:1;"/></g><!--link SolicitudFiltros to ValidarFiltros--><g class="link" data-entity-1="SolicitudFiltros" data-entity-2="ValidarFiltros" data-source-line="43" data-uid="lnk7" id="link_SolicitudFiltros_ValidarFiltros"><path d="M681.67,588.7338 C681.67,602.5338 681.67,612.1038 681.67,625.9038" fill="none" id="SolicitudFiltros-to-ValidarFiltros" style="stroke:#008000;stroke-width:1;"/><polygon fill="#008000" points="681.67,631.9038,685.67,622.9038,681.67,626.9038,677.67,622.9038,681.67,631.9038" style="stroke:#008000;stroke-width:1;"/></g><!--link ValidarFiltros to SolicitudFiltros--><g class="link" data-entity-1="ValidarFiltros" data-entity-2="SolicitudFiltros" data-source-line="53" data-uid="lnk8" id="link_ValidarFiltros_SolicitudFiltros"><path d="M740.33,631.9538 C740.33,618.1538 740.33,608.5838 740.33,594.7838" fill="none" id="ValidarFiltros-to-SolicitudFiltros" style="stroke:#FF0000;stroke-width:1;"/><polygon fill="#FF0000" points="740.33,588.7838,736.33,597.7838,740.33,593.7838,744.33,597.7838,740.33,588.7838" style="stroke:#FF0000;stroke-width:1;"/></g><!--link ValidarFiltros to SolicitudFormato--><g class="link" data-entity-1="ValidarFiltros" data-entity-2="SolicitudFormato" data-source-line="63" data-uid="lnk9" id="link_ValidarFiltros_SolicitudFormato"><path d="M711,708.2338 C711,722.0338 711,731.6038 711,745.4038" fill="none" id="ValidarFiltros-to-SolicitudFormato" style="stroke:#008000;stroke-width:1;"/><polygon fill="#008000" points="711,751.4038,715,742.4038,711,746.4038,707,742.4038,711,751.4038" style="stroke:#008000;stroke-width:1;"/></g><!--link SolicitudFormato to Descarga--><g class="link" data-entity-1="SolicitudFormato" data-entity-2="Descarga" data-source-line="71" data-uid="lnk10" id="link_SolicitudFormato_Descarga"><path d="M711,827.8238 C711,839.3538 711,846.0138 711,857.5338" fill="none" id="SolicitudFormato-to-Descarga" style="stroke:#008000;stroke-width:1;"/><polygon fill="#008000" points="711,863.5338,715,854.5338,711,858.5338,707,854.5338,711,863.5338" style="stroke:#008000;stroke-width:1;"/></g><!--link Descarga to *end*EXPORTAR_DISPENSAS_COMP--><g class="link" data-entity-1="Descarga" data-entity-2=".end.EXPORTAR_DISPENSAS_COMP" data-source-line="79" data-uid="lnk12" id="link_Descarga_.end.EXPORTAR_DISPENSAS_COMP"><path d="M711,939.6138 C711,952.7038 711,960.3538 711,969.5538" fill="none" id="Descarga-to-*end*EXPORTAR_DISPENSAS_COMP" style="stroke:#008000;stroke-width:1;"/><polygon fill="#008000" points="711,975.5538,715,966.5538,711,970.5538,707,966.5538,711,975.5538" style="stroke:#008000;stroke-width:1;"/></g><g id="DISPENSAS_ABIERTO_FINAL"><rect fill="#F1F1F1" height="76.2969" rx="12.5" ry="12.5" style="stroke:#181818;stroke-width:0.5;" width="187.3623" x="427.5" y="1369.2969"/><line style="stroke:#181818;stroke-width:0.5;" x1="427.5" x2="614.8623" y1="1415.5938" y2="1415.5938"/><text fill="#000000" font-family="sans-serif" font-size="14" lengthAdjust="spacing" textLength="147.3623" x="447.5" y="1397.292">DISPENSAS_ABIERTO</text></g><g id="SOLICITUD_DISPENSA_ABIERTA_FINAL"><rect fill="#F1F1F1" height="76.2969" rx="12.5" ry="12.5" style="stroke:#181818;stroke-width:0.5;" width="259.3516" x="734.5" y="1369.2969"/><line style="stroke:#181818;stroke-width:0.5;" x1="734.5" x2="993.8516" y1="1415.5938" y2="1415.5938"/><text fill="#000000" font-family="sans-serif" font-size="14" lengthAdjust="spacing" textLength="219.3516" x="754.5" y="1397.292">SOLICITUD_DISPENSA_ABIERTA</text></g><ellipse cx="704" cy="73.2969" fill="#222222" rx="10" ry="10" style="stroke:#222222;stroke-width:1;"/><ellipse cx="521" cy="1576.2969" fill="none" rx="11" ry="11" style="stroke:#222222;stroke-width:1;"/><ellipse cx="521" cy="1576.2969" fill="#222222" rx="6" ry="6" style="stroke:#222222;stroke-width:1;"/><g class="entity" data-entity="GMN2" data-source-line="21" data-uid="ent0003" id="entity_GMN2"><path d="M6,657.7969 L6,748.3281 A0,0 0 0 0 6,748.3281 L219.542,748.3281 A0,0 0 0 0 219.542,748.3281 L219.542,707.2969 L340.49,703.2969 L219.542,699.2969 L219.542,667.7969 L209.542,657.7969 L6,657.7969 A0,0 0 0 0 6,657.7969" fill="#FEFFDD" style="stroke:#181818;stroke-width:0.5;"/><path d="M209.542,657.7969 L209.542,667.7969 L219.542,667.7969 L209.542,657.7969" fill="#FEFFDD" style="stroke:#181818;stroke-width:0.5;"/><text fill="#000000" font-family="sans-serif" font-size="13" font-weight="bold" lengthAdjust="spacing" textLength="112.7598" x="22" y="684.8638">Alumno solicita</text><text fill="#000000" font-family="sans-serif" font-size="13" lengthAdjust="spacing" textLength="55.6499" x="138.8921" y="684.8638">exportar</text><text fill="#000000" font-family="sans-serif" font-size="13" lengthAdjust="spacing" textLength="168.7651" x="22" y="699.9966">las dispensas registradas.</text><text fill="#000000" font-family="sans-serif" font-size="13" font-weight="bold" lengthAdjust="spacing" textLength="120.999" x="22" y="715.1294">Sistema permite</text><text fill="#000000" font-family="sans-serif" font-size="13" lengthAdjust="spacing" textLength="41.6343" x="147.1313" y="715.1294">definir</text><text fill="#000000" font-family="sans-serif" font-size="13" lengthAdjust="spacing" textLength="158.7866" x="22" y="730.2622">criterios de exportaci&#243;n.</text></g><g class="entity" data-entity="GMN23" data-source-line="92" data-uid="ent0024" id="entity_GMN23"><path d="M94.5,1377.2969 L94.5,1437.5625 A0,0 0 0 0 94.5,1437.5625 L307.4136,1437.5625 A0,0 0 0 0 307.4136,1437.5625 L307.4136,1411.2969 L427.26,1407.2969 L307.4136,1403.2969 L307.4136,1387.2969 L297.4136,1377.2969 L94.5,1377.2969 A0,0 0 0 0 94.5,1377.2969" fill="#FEFFDD" style="stroke:#181818;stroke-width:0.5;"/><path d="M297.4136,1377.2969 L297.4136,1387.2969 L307.4136,1387.2969 L297.4136,1377.2969" fill="#FEFFDD" style="stroke:#181818;stroke-width:0.5;"/><text fill="#000000" font-family="sans-serif" font-size="13" font-weight="bold" lengthAdjust="spacing" textLength="112.7598" x="110.5" y="1404.3638">Alumno solicita</text><text fill="#000000" font-family="sans-serif" font-size="13" lengthAdjust="spacing" textLength="55.0215" x="227.3921" y="1404.3638">regresar</text><text fill="#000000" font-family="sans-serif" font-size="13" lengthAdjust="spacing" textLength="152.2612" x="110.5" y="1419.4966">al listado de dispensas.</text></g><g class="entity" data-entity="GMN26" data-source-line="100" data-uid="ent0027" id="entity_GMN26"><path d="M1114,1369.7969 L1114,1403.2969 L993.61,1407.2969 L1114,1411.2969 L1114,1445.1953 A0,0 0 0 0 1114,1445.1953 L1332.2646,1445.1953 A0,0 0 0 0 1332.2646,1445.1953 L1332.2646,1379.7969 L1322.2646,1369.7969 L1114,1369.7969 A0,0 0 0 0 1114,1369.7969" fill="#FEFFDD" style="stroke:#181818;stroke-width:0.5;"/><path d="M1322.2646,1369.7969 L1322.2646,1379.7969 L1332.2646,1379.7969 L1322.2646,1369.7969" fill="#FEFFDD" style="stroke:#181818;stroke-width:0.5;"/><text fill="#000000" font-family="sans-serif" font-size="13" font-weight="bold" lengthAdjust="spacing" textLength="112.7598" x="1130" y="1396.8638">Alumno solicita</text><text fill="#000000" font-family="sans-serif" font-size="13" lengthAdjust="spacing" textLength="60.3726" x="1246.8921" y="1396.8638">consultar</text><text fill="#000000" font-family="sans-serif" font-size="13" lengthAdjust="spacing" textLength="167.667" x="1130" y="1411.9966">el detalle de una solicitud</text><text fill="#000000" font-family="sans-serif" font-size="13" lengthAdjust="spacing" textLength="69.2148" x="1130" y="1427.1294">espec&#237;fica.</text></g><!--link *start* to DISPENSAS_ABIERTO_INICIAL--><g class="link" data-entity-1=".start." data-entity-2="DISPENSAS_ABIERTO_INICIAL" data-source-line="15" data-uid="lnk3" id="link_.start._DISPENSAS_ABIERTO_INICIAL"><path d="M704,83.3069 C704,106.3269 704,158.0869 704,197.0069" fill="none" id="*start*-to-DISPENSAS_ABIERTO_INICIAL" style="stroke:#008000;stroke-width:1;"/><polygon fill="#008000" points="704,203.0069,708,194.0069,704,198.0069,700,194.0069,704,203.0069" style="stroke:#008000;stroke-width:1;"/></g><!--link DISPENSAS_ABIERTO_INICIAL to EXPORTAR_DISPENSAS_COMP--><g class="link" data-entity-1="DISPENSAS_ABIERTO_INICIAL" data-entity-2="EXPORTAR_DISPENSAS_COMP" data-source-line="18" data-uid="lnk4" id="link_DISPENSAS_ABIERTO_INICIAL_EXPORTAR_DISPENSAS_COMP"><path d="M704,279.4969 C704,308.5769 704,345.6169 704,393.2869" fill="none" id="DISPENSAS_ABIERTO_INICIAL-to-EXPORTAR_DISPENSAS_COMP" style="stroke:#008000;stroke-width:1;"/><polygon fill="#008000" points="704,399.2869,708,390.2869,704,394.2869,700,390.2869,704,399.2869" style="stroke:#008000;stroke-width:1;"/><text fill="#000000" font-family="sans-serif" font-size="13" lengthAdjust="spacing" textLength="132.1899" x="561" y="325.4638">exportarDispensas()</text></g><!--link EXPORTAR_DISPENSAS_COMP to DISPENSAS_ABIERTO_FINAL--><g class="link" data-entity-1="EXPORTAR_DISPENSAS_COMP" data-entity-2="DISPENSAS_ABIERTO_FINAL" data-source-line="89" data-uid="lnk13" id="link_EXPORTAR_DISPENSAS_COMP_DISPENSAS_ABIERTO_FINAL"><path d="M521,1007.4769 C521,1148.6069 521,1294.1769 521,1363.1769" fill="none" id="EXPORTAR_DISPENSAS_COMP-to-DISPENSAS_ABIERTO_FINAL" style="stroke:#008000;stroke-width:1;"/><polygon fill="#008000" points="521,1369.1769,525,1360.1769,521,1364.1769,517,1360.1769,521,1369.1769" style="stroke:#008000;stroke-width:1;"/></g><!--link EXPORTAR_DISPENSAS_COMP to SOLICITUD_DISPENSA_ABIERTA_FINAL--><g class="link" data-entity-1="EXPORTAR_DISPENSAS_COMP" data-entity-2="SOLICITUD_DISPENSA_ABIERTA_FINAL" data-source-line="97" data-uid="lnk14" id="link_EXPORTAR_DISPENSAS_COMP_SOLICITUD_DISPENSA_ABIERTA_FINAL"><path d="M864,1007.4769 C864,1148.6069 864,1294.1769 864,1363.1769" fill="none" id="EXPORTAR_DISPENSAS_COMP-to-SOLICITUD_DISPENSA_ABIERTA_FINAL" style="stroke:#008000;stroke-width:1;"/><polygon fill="#008000" points="864,1369.1769,868,1360.1769,864,1364.1769,860,1360.1769,864,1369.1769" style="stroke:#008000;stroke-width:1;"/><text fill="#000000" font-family="sans-serif" font-size="13" lengthAdjust="spacing" textLength="185.9165" x="668" y="1174.3938">consultarSolicitudDispensa()</text></g><!--link DISPENSAS_ABIERTO_FINAL to *end*--><g class="link" data-entity-1="DISPENSAS_ABIERTO_FINAL" data-entity-2=".end." data-source-line="106" data-uid="lnk16" id="link_DISPENSAS_ABIERTO_FINAL_.end."><path d="M521,1445.6469 C521,1484.2069 521,1535.2769 521,1559.1569" fill="none" id="DISPENSAS_ABIERTO_FINAL-to-*end*" style="stroke:#0000FF;stroke-width:1;"/><polygon fill="#0000FF" points="521,1565.1569,525,1556.1569,521,1560.1569,517,1556.1569,521,1565.1569" style="stroke:#0000FF;stroke-width:1;"/></g><!--SRC=[ZLRBZjCm5DtdAwxAWeUcvR4SeP527oXIQQl93492QEJ6RiVWsi5sHbI8h-0B-01MxDZsnxXEd4VRfAMRjlPzd7lkiQyjjuB1-5kgj2KQA3SfauQO87WC_NuVXlFP97fxUnqEeztF6Op6C8vlekdSRGQ1-S9bIZJPW5IK6PR2orSl6gkQo2_7gu9BPhSf0ynvhneR2q8fbsju-G93Ms8PZA9uCPx5ONmNled6rpVpksWM3QDm2lc76EWTcVIyx_Z3Odvz4rxVrHR3-Ri5GErxRDBhJ3o9PcNQCudZ-HGntjoEgh3U8lH1d7UtKIy8FZxx1FsFZzQQCVcfVzLDWslJM5fDA04Y82560MMG6HLqKzUCt4NI9J2lYL4fYITFWq0gh4-mbGMrwl8D746lbrUXo3PIWL629zoIry-NLrNGt4OW3vNWGBCrDtabPb26Y765RGYaJ6-uPNa8obPSyY92ed5LSsLSqJvsmdT_v21Wae936mHdvF0zo4FvrXLWCphXmcgCMxGwPe8bUM2NoE_r6dxlYU2KwDghy2kMJpdM2PNU4AlQ4nPxJRyHCmdHQmBr9zTakOnUeKxk-GDwvMw7aZgijB3A-wlv-Zvly95DcQhHcat6NDVorgWquKgosWvHh9mheGgsi5GM2sfkxhVCBTPjS_-Esj6iO9_p1lvIdmS63V1jqYGf_l7AFDBMSlVNVCqO9PVrVgQDka3M-LeIcsboKMr9jLbgh0uuPTBo5SQbIhSL-1Wc8lkiyEnYBWo3_SAJfxNIQ5Xmvv4VA0o9q8p-RoExcIZR-91Rv4G83Eyp3_PDuPvi2tINphBQv7Bb58hVYPB6HPG9HpbkAukIQKYKrbxPf_XOxduPdY0N7WWyx7uXm4ukMcHTd9aMMHoPjD2nVsa9M1sOeYHC3WAUB4QJ2nZ6xo-0sMJmj3BPEZ-l18e_IN4SJylSNm9xTxy_qcrzhVREQ5ku2w4m7RILsxnVrqmotJW7DVIYUIPLadBKDMihfRg0cYNWtTFIXpRm9I3KqOeZ5uVe6mseOHM8wI6rFyetJ1nEer4Ou-Db2iCmdhjNp6tidp1TOw76tsyTmFaaFnY8NLOdEeDJ3odrTEC45qY0korHODLet1jc_uVtx1Faqb5iCe6pk59VEUchGLyFWZFXJbLOvGcycYYpH0YMlrDaTTGoMkmZX6JtsrsPUsLtlSUmxAN8c5VPFm00]--></g></svg>