<svg xmlns="http://www.w3.org/2000/svg" xmlns:xlink="http://www.w3.org/1999/xlink" version="1.1" data-diagram-type="DESCRIPTION" style="width:1159px;height:432px;background:#FFFFFF;" width="1159px" height="432px" viewBox="0 0 1159 432" zoomAndPan="magnify" preserveAspectRatio="none" contentStyleType="text/css"><?plantuml 1.2026.7beta3?><defs/><g><!--cluster consultarSolicitudDispensa--><g class="cluster" data-qualified-name="consultarSolicitudDispensa" id="ent0003" data-source-line="6"><path d="M244.76,6 L473.677,6 A3.75,3.75 0 0 1 476.177,8.5 L483.177,28.2969 L892.76,28.2969 A2.5,2.5 0 0 1 895.26,30.7969 L895.26,414.69 A2.5,2.5 0 0 1 892.76,417.19 L244.76,417.19 A2.5,2.5 0 0 1 242.26,414.69 L242.26,8.5 A2.5,2.5 0 0 1 244.76,6" style="stroke:#000000;stroke-width:1.5;" fill="none"/><line x1="242.26" y1="28.2969" x2="483.177" y2="28.2969" style="stroke:#000000;stroke-width:1.5;"/><text x="246.26" y="20.9951" fill="#000000" font-size="14" lengthAdjust="spacing" textLength="227.917" font-weight="700" font-family="sans-serif">consultarSolicitudDispensa()</text></g><!--entity ConsultarSolicitudDispensaView--><g class="entity" data-qualified-name="consultarSolicitudDispensa.ConsultarSolicitudDispensaView" id="ent0004" data-source-line="7"><rect x="446.81" y="41" width="244.9023" height="36.2969" fill="#629EF9" style="stroke:#181818;stroke-width:0.5;" rx="2.5" ry="2.5"/><text x="456.81" y="63.9951" fill="#000000" font-size="14" lengthAdjust="spacing" textLength="224.9023" font-family="sans-serif">ConsultarSolicitudDispensaView</text></g><!--entity DispensaController--><g class="entity" data-qualified-name="consultarSolicitudDispensa.DispensaController" id="ent0005" data-source-line="8"><rect x="397.57" y="154.3" width="153.3828" height="36.2969" fill="#B5BD68" style="stroke:#181818;stroke-width:0.5;" rx="2.5" ry="2.5"/><text x="407.57" y="177.2951" fill="#000000" font-size="14" lengthAdjust="spacing" textLength="133.3828" font-family="sans-serif">DispensaController</text></g><!--entity DispensaRepository--><g class="entity" data-qualified-name="consultarSolicitudDispensa.DispensaRepository" id="ent0006" data-source-line="9"><rect x="402.62" y="267.6" width="159.2822" height="36.2969" fill="#F2AC4E" style="stroke:#181818;stroke-width:0.5;" rx="2.5" ry="2.5"/><text x="412.62" y="290.5951" fill="#000000" font-size="14" lengthAdjust="spacing" textLength="139.2822" font-family="sans-serif">DispensaRepository</text></g><!--entity Dispensa--><g class="entity" data-qualified-name="consultarSolicitudDispensa.Dispensa" id="ent0007" data-source-line="10"><rect x="440.15" y="364.89" width="84.21" height="36.2969" fill="#F2AC4E" style="stroke:#181818;stroke-width:0.5;" rx="2.5" ry="2.5"/><text x="450.15" y="387.8851" fill="#000000" font-size="14" lengthAdjust="spacing" textLength="64.21" font-family="sans-serif">Dispensa</text></g><!--entity DashboardProfesorAbierto--><g class="entity" data-qualified-name="DashboardProfesorAbierto" id="ent0001" data-source-line="3"><rect x="7" y="41" width="218.5156" height="36.2969" fill="#CDEBA5" style="stroke:#181818;stroke-width:0.5;" rx="2.5" ry="2.5"/><text x="17" y="63.9951" fill="#000000" font-size="14" lengthAdjust="spacing" textLength="198.5156" font-family="sans-serif">:Dashboard Profesor Abierto</text></g><!--entity DashboardSecretariaAbierto--><g class="entity" data-qualified-name="DashboardSecretariaAbierto" id="ent0002" data-source-line="4"><rect x="913.03" y="41" width="232.4541" height="36.2969" fill="#CDEBA5" style="stroke:#181818;stroke-width:0.5;" rx="2.5" ry="2.5"/><text x="923.03" y="63.9951" fill="#000000" font-size="14" lengthAdjust="spacing" textLength="212.4541" font-family="sans-serif">:Dashboard Secretaria Abierto</text></g><!--link DashboardProfesorAbierto to ConsultarSolicitudDispensaView--><g class="link" data-entity-1="ent0001" data-entity-2="ent0004" id="lnk8" data-source-line="13" data-link-type="dependency"><path d="M225.92,59.15 C292.56,59.15 372.78,59.15 441.65,59.15" style="stroke:#181818;stroke-width:1;" fill="none" id="DashboardProfesorAbierto-to-ConsultarSolicitudDispensaView"/><polygon points="446.65,59.15,437.65,55.15,441.65,59.15,437.65,63.15,446.65,59.15" fill="#181818" style="stroke:#181818;stroke-width:1;stroke-linejoin:miter;stroke-miterlimit:10;"/><text x="243.66" y="52.2169" fill="#000000" font-size="13" lengthAdjust="spacing" textLength="185.9165" font-family="sans-serif">consultarSolicitudDispensa()</text></g><!--link DashboardSecretariaAbierto to ConsultarSolicitudDispensaView--><g class="link" data-entity-1="ent0002" data-entity-2="ent0004" id="lnk9" data-source-line="14" data-link-type="dependency"><path d="M912.87,59.15 C845.38,59.15 765.46,59.15 696.93,59.15" style="stroke:#181818;stroke-width:1;" fill="none" id="DashboardSecretariaAbierto-to-ConsultarSolicitudDispensaView"/><polygon points="691.93,59.15,700.93,63.15,696.93,59.15,700.93,55.15,691.93,59.15" fill="#181818" style="stroke:#181818;stroke-width:1;stroke-linejoin:miter;stroke-miterlimit:10;"/><text x="709.87" y="52.2169" fill="#000000" font-size="13" lengthAdjust="spacing" textLength="185.9165" font-family="sans-serif">consultarSolicitudDispensa()</text></g><!--link ConsultarSolicitudDispensaView to DispensaController--><g class="link" data-entity-1="ent0004" data-entity-2="ent0005" id="lnk10" data-source-line="16" data-link-type="dependency"><path d="M464.97,77.77 C385.73,91.17 290.26,107.3 290.26,107.3 C290.26,107.3 290.26,124.3 290.26,124.3 C290.26,124.3 348.3765,139.189 400.6365,152.579" style="stroke:#181818;stroke-width:1;" fill="none" id="ConsultarSolicitudDispensaView-to-DispensaController"/><polygon points="405.48,153.82,397.7544,147.7114,400.6365,152.579,395.7688,155.461,405.48,153.82" fill="#181818" style="stroke:#181818;stroke-width:1;stroke-linejoin:miter;stroke-miterlimit:10;"/><text x="291.26" y="120.3669" fill="#000000" font-size="13" lengthAdjust="spacing" textLength="293.9473" font-family="sans-serif">obtenerSolicitudes(actorId) : List&lt;Dispensa></text></g><!--link ConsultarSolicitudDispensaView to DispensaController--><g class="link" data-entity-1="ent0004" data-entity-2="ent0005" id="lnk12" data-source-line="20" data-link-type="dependency"><path d="M576.71,77.71 C582.39,91.11 589.26,107.3 589.26,107.3 C589.26,107.3 589.26,124.3 589.26,124.3 C589.26,124.3 554.4066,138.5941 521.7066,151.9941" style="stroke:#181818;stroke-width:1;" fill="none" id="ConsultarSolicitudDispensaView-to-DispensaController-1"/><polygon points="517.08,153.89,526.9246,154.1786,521.7066,151.9941,523.8912,146.7761,517.08,153.89" fill="#181818" style="stroke:#181818;stroke-width:1;stroke-linejoin:miter;stroke-miterlimit:10;"/><text x="590.26" y="120.3669" fill="#000000" font-size="13" lengthAdjust="spacing" textLength="249.5391" font-family="sans-serif">obtenerDetalle(dispensaId) : Dispensa</text></g><!--link DispensaController to DispensaRepository--><g class="link" data-entity-1="ent0005" data-entity-2="ent0006" id="lnk11" data-source-line="18" data-link-type="dependency"><path d="M410.96,191 C362.62,204.41 304.26,220.6 304.26,220.6 C304.26,220.6 304.26,237.6 304.26,237.6 C304.26,237.6 360.3367,252.4497 410.8867,265.8397" style="stroke:#181818;stroke-width:1;" fill="none" id="DispensaController-to-DispensaRepository"/><polygon points="415.72,267.12,408.0443,260.9489,410.8867,265.8397,405.9958,268.6821,415.72,267.12" fill="#181818" style="stroke:#181818;stroke-width:1;stroke-linejoin:miter;stroke-miterlimit:10;"/><text x="305.26" y="233.6669" fill="#000000" font-size="13" lengthAdjust="spacing" textLength="278.9731" font-family="sans-serif">obtenerPorActor(actorId) : List&lt;Dispensa></text></g><!--link DispensaController to DispensaRepository--><g class="link" data-entity-1="ent0005" data-entity-2="ent0006" id="lnk13" data-source-line="22" data-link-type="dependency"><path d="M516.71,191 C549.12,204.41 588.26,220.6 588.26,220.6 C588.26,220.6 588.26,237.6 588.26,237.6 C588.26,237.6 556.4382,251.7475 526.2982,265.1575" style="stroke:#181818;stroke-width:1;" fill="none" id="DispensaController-to-DispensaRepository-1"/><polygon points="521.73,267.19,531.5789,267.1861,526.2982,265.1575,528.3268,259.8769,521.73,267.19" fill="#181818" style="stroke:#181818;stroke-width:1;stroke-linejoin:miter;stroke-miterlimit:10;"/><text x="589.26" y="233.6669" fill="#000000" font-size="13" lengthAdjust="spacing" textLength="236.4692" font-family="sans-serif">obtenerPorId(dispensaId) : Dispensa</text></g><!--link DispensaRepository to Dispensa--><g class="link" data-entity-1="ent0006" data-entity-2="ent0007" id="lnk14" data-source-line="24" data-link-type="association"><path d="M482.26,304.22 C482.26,321.42 482.26,347.52 482.26,364.67" style="stroke:#181818;stroke-width:1;" fill="none" id="DispensaRepository-Dispensa"/></g><?plantuml-src hP71Qy8m6CNl-Ii-kaizz29JPXb2rrOGTf09kwV9DnVCaf14HXdxtnUPRKNN5cIvDU-zNnwlRY-KePP-W1GAVMqGZ9RryOCGYynJjPC8TtbHFcKpYDA2klTAKyjXO_KREcqXgmHQhoEW3bgvKK_Y26kBpAAdLj2_QPtUy8YXR4zt24mhTv11ssefcF07NWXdK3bw94JzSZo9u8j0E6VTvjD5kLf0tfjw5VXv6Qfc5Py_G6C9OM-rb6WlZQjfbj-NhV45ZNR2QrkF6Cat8NtBGcAJvKZX58Pc8Fqp_mES3ASXuU65w-bIq9L7XLqANKnP66lD9v32it3-iOajmpnN14ZEmDtKBNWJ9ZpoXgXZtOUh5s7BS17pa-NtZVQdtjPvpKTvNJ3mMlq7?></g></svg>