<svg xmlns="http://www.w3.org/2000/svg" xmlns:xlink="http://www.w3.org/1999/xlink" version="1.1" data-diagram-type="SEQUENCE" style="width:1463px;height:790px;background:#FFFFFF;" width="1463px" height="790px" viewBox="0 0 1463 790" zoomAndPan="magnify" preserveAspectRatio="none" contentStyleType="text/css"><?plantuml 1.2026.7beta8?><defs/><g font-family="sans-serif" lengthAdjust="spacing"><g class="title" data-source-line="1"><text x="433.431" y="27.995" fill="#000" font-size="14" textLength="594.31" font-weight="700">Diagrama de Secuencia - Crear Sesión de Clase (Vue 3 + Express + Prisma)</text></g><g><title>Profesor</title><rect x="38.46" y="125.891" width="8" height="574.922" fill="#000" fill-opacity="0"/><line x1="41.96" y1="125.891" x2="41.96" y2="700.813" style="stroke:#181818;stroke-width:0.5;stroke-dasharray:5,5;"/></g><g><title>Frontend</title><rect x="354.793" y="125.891" width="8" height="574.922" fill="#000" fill-opacity="0"/><line x1="358.293" y1="125.891" x2="358.293" y2="700.813" style="stroke:#181818;stroke-width:0.5;stroke-dasharray:5,5;"/></g><g><title></title><rect x="353.293" y="155.023" width="10" height="545.789" fill="#FFF" style="stroke:#181818;stroke-width:1;"/></g><g><title></title><rect x="358.293" y="433.484" width="10" height="249.328" fill="#FFF" style="stroke:#181818;stroke-width:1;"/></g><g><title>AcademicController</title><rect x="719.724" y="125.891" width="8" height="574.922" fill="#000" fill-opacity="0"/><line x1="723.224" y1="125.891" x2="723.224" y2="700.813" style="stroke:#181818;stroke-width:0.5;stroke-dasharray:5,5;"/></g><g><title></title><rect x="718.224" y="184.156" width="10" height="175.93" fill="#FFF" style="stroke:#181818;stroke-width:1;"/></g><g><title></title><rect x="718.224" y="477.75" width="10" height="175.93" fill="#FFF" style="stroke:#181818;stroke-width:1;"/></g><g><title>AcademicService</title><rect x="1076.822" y="125.891" width="8" height="574.922" fill="#000" fill-opacity="0"/><line x1="1080.322" y1="125.891" x2="1080.322" y2="700.813" style="stroke:#181818;stroke-width:0.5;stroke-dasharray:5,5;"/></g><g><title></title><rect x="1075.322" y="213.289" width="10" height="117.664" fill="#FFF" style="stroke:#181818;stroke-width:1;"/></g><g><title></title><rect x="1075.322" y="506.883" width="10" height="117.664" fill="#FFF" style="stroke:#181818;stroke-width:1;"/></g><g><title>Base de Datos</title><rect x="1395.072" y="125.891" width="8" height="574.922" fill="#000" fill-opacity="0"/><line x1="1398.572" y1="125.891" x2="1398.572" y2="700.813" style="stroke:#181818;stroke-width:0.5;stroke-dasharray:5,5;"/></g><g><title></title><rect x="1393.572" y="272.688" width="10" height="29.133" fill="#FFF" style="stroke:#181818;stroke-width:1;"/></g><g><title></title><rect x="1393.572" y="566.281" width="10" height="29.133" fill="#FFF" style="stroke:#181818;stroke-width:1;"/></g><text x="10" y="122.589" fill="#000" font-size="14" textLength="57.921">Profesor</text><ellipse cx="41.96" cy="58.094" rx="8" ry="8" fill="#E2E2F0" style="stroke:#181818;stroke-width:0.5;"/><path d="M41.96,66.094 L41.96,93.094 M28.96,74.094 L54.96,74.094 M41.96,93.094 L28.96,108.094 M41.96,93.094 L54.96,108.094" style="stroke:#181818;stroke-width:0.5;" fill="none"/><rect x="319.739" y="78.297" width="77.109" height="46.594" fill="#E2E2F0" style="stroke:#181818;stroke-width:0.5;" rx="2.5" ry="2.5"/><text x="326.739" y="98.292" fill="#000" font-size="14" textLength="63.109">Frontend</text><text x="332.621" y="114.589" fill="#000" font-size="14" textLength="51.345">(Vue 3)</text><rect x="647.349" y="94.594" width="151.751" height="30.297" fill="#E2E2F0" style="stroke:#181818;stroke-width:0.5;" rx="2.5" ry="2.5"/><text x="654.349" y="114.589" fill="#000" font-size="14" textLength="137.751">AcademicController</text><rect x="1013.162" y="94.594" width="134.319" height="30.297" fill="#E2E2F0" style="stroke:#181818;stroke-width:0.5;" rx="2.5" ry="2.5"/><text x="1020.162" y="114.589" fill="#000" font-size="14" textLength="120.319">AcademicService</text><text x="1344.972" y="106.292" fill="#000" font-size="14" textLength="101.199">Base de Datos</text><text x="1349.733" y="122.589" fill="#000" font-size="14" textLength="91.677">(PostgreSQL)</text><path d="M1380.572,57.297 C1380.572,47.297 1398.572,47.297 1398.572,47.297 C1398.572,47.297 1416.572,47.297 1416.572,57.297 L1416.572,83.297 C1416.572,93.297 1398.572,93.297 1398.572,93.297 C1398.572,93.297 1380.572,93.297 1380.572,83.297 L1380.572,57.297" style="stroke:#181818;stroke-width:0.5;" fill="#E2E2F0"/><path d="M1380.572,57.297 C1380.572,67.297 1398.572,67.297 1398.572,67.297 C1398.572,67.297 1416.572,67.297 1416.572,57.297" style="stroke:#181818;stroke-width:0.5;" fill="none"/><text x="10" y="713.808" fill="#000" font-size="14" textLength="57.921">Profesor</text><ellipse cx="41.96" cy="725.609" rx="8" ry="8" fill="#E2E2F0" style="stroke:#181818;stroke-width:0.5;"/><path d="M41.96,733.609 L41.96,760.609 M28.96,741.609 L54.96,741.609 M41.96,760.609 L28.96,775.609 M41.96,760.609 L54.96,775.609" style="stroke:#181818;stroke-width:0.5;" fill="none"/><rect x="319.739" y="700.813" width="77.109" height="46.594" fill="#E2E2F0" style="stroke:#181818;stroke-width:0.5;" rx="2.5" ry="2.5"/><text x="326.739" y="720.808" fill="#000" font-size="14" textLength="63.109">Frontend</text><text x="332.621" y="737.104" fill="#000" font-size="14" textLength="51.345">(Vue 3)</text><rect x="647.349" y="700.813" width="151.751" height="30.297" fill="#E2E2F0" style="stroke:#181818;stroke-width:0.5;" rx="2.5" ry="2.5"/><text x="654.349" y="720.808" fill="#000" font-size="14" textLength="137.751">AcademicController</text><rect x="1013.162" y="700.813" width="134.319" height="30.297" fill="#E2E2F0" style="stroke:#181818;stroke-width:0.5;" rx="2.5" ry="2.5"/><text x="1020.162" y="720.808" fill="#000" font-size="14" textLength="120.319">AcademicService</text><text x="1344.972" y="713.808" fill="#000" font-size="14" textLength="101.199">Base de Datos</text><text x="1349.733" y="730.104" fill="#000" font-size="14" textLength="91.677">(PostgreSQL)</text><path d="M1380.572,743.406 C1380.572,733.406 1398.572,733.406 1398.572,733.406 C1398.572,733.406 1416.572,733.406 1416.572,743.406 L1416.572,769.406 C1416.572,779.406 1398.572,779.406 1398.572,779.406 C1398.572,779.406 1380.572,779.406 1380.572,769.406 L1380.572,743.406" style="stroke:#181818;stroke-width:0.5;" fill="#E2E2F0"/><path d="M1380.572,743.406 C1380.572,753.406 1398.572,753.406 1398.572,753.406 C1398.572,753.406 1416.572,753.406 1416.572,743.406" style="stroke:#181818;stroke-width:0.5;" fill="none"/><polygon points="341.293,151.023,351.293,155.023,341.293,159.023,345.293,155.023" fill="#181818" style="stroke:#181818;stroke-width:1;stroke-linejoin:miter;stroke-miterlimit:10;"/><line x1="41.96" y1="155.023" x2="347.293" y2="155.023" style="stroke:#181818;stroke-width:1;"/><text x="48.96" y="149.958" fill="#000" font-size="13" textLength="211.091">abre formulario de nueva sesión</text><polygon points="706.224,180.156,716.224,184.156,706.224,188.156,710.224,184.156" fill="#181818" style="stroke:#181818;stroke-width:1;stroke-linejoin:miter;stroke-miterlimit:10;"/><line x1="363.293" y1="184.156" x2="712.224" y2="184.156" style="stroke:#181818;stroke-width:1;"/><text x="370.293" y="179.09" fill="#000" font-size="13" textLength="335.931">GET /api/academic/profesor/:profesorId/asignaturas</text><polygon points="1063.322,209.289,1073.322,213.289,1063.322,217.289,1067.322,213.289" fill="#181818" style="stroke:#181818;stroke-width:1;stroke-linejoin:miter;stroke-miterlimit:10;"/><line x1="728.224" y1="213.289" x2="1069.322" y2="213.289" style="stroke:#181818;stroke-width:1;"/><text x="735.224" y="208.223" fill="#000" font-size="13" textLength="227.563">getTeacherAsignaturas(profesorId)</text><polygon points="1381.572,268.688,1391.572,272.688,1381.572,276.688,1385.572,272.688" fill="#181818" style="stroke:#181818;stroke-width:1;stroke-linejoin:miter;stroke-miterlimit:10;"/><line x1="1085.322" y1="272.688" x2="1387.572" y2="272.688" style="stroke:#181818;stroke-width:1;"/><text x="1092.322" y="237.356" fill="#000" font-size="13" textLength="176.179">SELECT * FROM Asignatura</text><text x="1092.322" y="252.489" fill="#000" font-size="13" textLength="144.562">WHERE profesorId = ?</text><text x="1092.322" y="267.622" fill="#000" font-size="13" textLength="101.34">INCLUDE Grado</text><polygon points="1096.322,297.82,1086.322,301.82,1096.322,305.82,1092.322,301.82" fill="#181818" style="stroke:#181818;stroke-width:1;stroke-linejoin:miter;stroke-miterlimit:10;"/><line x1="1090.322" y1="301.82" x2="1392.572" y2="301.82" style="stroke:#181818;stroke-width:1;stroke-dasharray:2,2;"/><text x="1102.322" y="296.754" fill="#000" font-size="13" textLength="80.526">Asignatura[]</text><polygon points="739.224,326.953,729.224,330.953,739.224,334.953,735.224,330.953" fill="#181818" style="stroke:#181818;stroke-width:1;stroke-linejoin:miter;stroke-miterlimit:10;"/><line x1="733.224" y1="330.953" x2="1074.322" y2="330.953" style="stroke:#181818;stroke-width:1;stroke-dasharray:2,2;"/><text x="745.224" y="325.887" fill="#000" font-size="13" textLength="169.4">asignaturas : Asignatura[]</text><polygon points="374.293,356.086,364.293,360.086,374.293,364.086,370.293,360.086" fill="#181818" style="stroke:#181818;stroke-width:1;stroke-linejoin:miter;stroke-miterlimit:10;"/><line x1="368.293" y1="360.086" x2="717.224" y2="360.086" style="stroke:#181818;stroke-width:1;stroke-dasharray:2,2;"/><text x="380.293" y="355.02" fill="#000" font-size="13" textLength="152.871">200 OK { asignaturas }</text><polygon points="52.96,385.219,42.96,389.219,52.96,393.219,48.96,389.219" fill="#181818" style="stroke:#181818;stroke-width:1;stroke-linejoin:miter;stroke-miterlimit:10;"/><line x1="46.96" y1="389.219" x2="352.293" y2="389.219" style="stroke:#181818;stroke-width:1;stroke-dasharray:2,2;"/><text x="58.96" y="384.153" fill="#000" font-size="13" textLength="287.333">muestra selector de asignatura y formulario</text><polygon points="346.293,429.484,356.293,433.484,346.293,437.484,350.293,433.484" fill="#181818" style="stroke:#181818;stroke-width:1;stroke-linejoin:miter;stroke-miterlimit:10;"/><line x1="41.96" y1="433.484" x2="352.293" y2="433.484" style="stroke:#181818;stroke-width:1;"/><text x="48.96" y="413.286" fill="#000" font-size="13" textLength="220.181">selecciona asignatura e introduce</text><text x="48.96" y="428.418" fill="#000" font-size="13" textLength="147.139">(fecha, aula, duracion)</text><polygon points="706.224,473.75,716.224,477.75,706.224,481.75,710.224,477.75" fill="#181818" style="stroke:#181818;stroke-width:1;stroke-linejoin:miter;stroke-miterlimit:10;"/><line x1="368.293" y1="477.75" x2="712.224" y2="477.75" style="stroke:#181818;stroke-width:1;"/><text x="375.293" y="457.551" fill="#000" font-size="13" textLength="189.014">POST /api/academic/sessions</text><text x="375.293" y="472.684" fill="#000" font-size="13" textLength="251.608">{ asignaturaId, fecha, aula, duracion }</text><polygon points="1063.322,502.883,1073.322,506.883,1063.322,510.883,1067.322,506.883" fill="#181818" style="stroke:#181818;stroke-width:1;stroke-linejoin:miter;stroke-miterlimit:10;"/><line x1="728.224" y1="506.883" x2="1069.322" y2="506.883" style="stroke:#181818;stroke-width:1;"/><text x="735.224" y="501.817" fill="#000" font-size="13" textLength="328.098">createSession(asignaturaId, fecha, aula, duracion)</text><polygon points="1381.572,562.281,1391.572,566.281,1381.572,570.281,1385.572,566.281" fill="#181818" style="stroke:#181818;stroke-width:1;stroke-linejoin:miter;stroke-miterlimit:10;"/><line x1="1085.322" y1="566.281" x2="1387.572" y2="566.281" style="stroke:#181818;stroke-width:1;"/><text x="1092.322" y="530.95" fill="#000" font-size="13" textLength="183.257">INSERT INTO SesionDeClase</text><text x="1092.322" y="546.083" fill="#000" font-size="13" textLength="289.25">(asignaturaId, fecha, aula, duracion, estado)</text><text x="1092.322" y="561.215" fill="#000" font-size="13" textLength="180.623">VALUES (?, ?, ?, ?, 'ACTIVA')</text><polygon points="1096.322,591.414,1086.322,595.414,1096.322,599.414,1092.322,595.414" fill="#181818" style="stroke:#181818;stroke-width:1;stroke-linejoin:miter;stroke-miterlimit:10;"/><line x1="1090.322" y1="595.414" x2="1392.572" y2="595.414" style="stroke:#181818;stroke-width:1;stroke-dasharray:2,2;"/><text x="1102.322" y="590.348" fill="#000" font-size="13" textLength="196.86">sesionCreada : SesionDeClase</text><polygon points="739.224,620.547,729.224,624.547,739.224,628.547,735.224,624.547" fill="#181818" style="stroke:#181818;stroke-width:1;stroke-linejoin:miter;stroke-miterlimit:10;"/><line x1="733.224" y1="624.547" x2="1074.322" y2="624.547" style="stroke:#181818;stroke-width:1;stroke-dasharray:2,2;"/><text x="745.224" y="619.481" fill="#000" font-size="13" textLength="196.86">sesionCreada : SesionDeClase</text><polygon points="379.293,649.68,369.293,653.68,379.293,657.68,375.293,653.68" fill="#181818" style="stroke:#181818;stroke-width:1;stroke-linejoin:miter;stroke-miterlimit:10;"/><line x1="373.293" y1="653.68" x2="717.224" y2="653.68" style="stroke:#181818;stroke-width:1;stroke-dasharray:2,2;"/><text x="385.293" y="648.614" fill="#000" font-size="13" textLength="197.571">201 Created { sesionCreada }</text><polygon points="52.96,678.813,42.96,682.813,52.96,686.813,48.96,682.813" fill="#181818" style="stroke:#181818;stroke-width:1;stroke-linejoin:miter;stroke-miterlimit:10;"/><line x1="46.96" y1="682.813" x2="357.293" y2="682.813" style="stroke:#181818;stroke-width:1;stroke-dasharray:2,2;"/><text x="58.96" y="677.747" fill="#000" font-size="13" textLength="190.284">sesión creada correctamente</text><?plantuml-src bPJDRXen4CVl-nGZBc5R46bxGseZFZOfAWsK9VHGUfXu1sA9jP7jZLfLVQe-Gb-iimkBJPH68A75kvxvpOV_7YVTXc0eSMqmHyW8KX85AI4HsZ0mX8Q_MFdtZoet1nkq1Cr5GV0ENaFoOsl8MbvDZRGvnb64mca3ZQdHAxBQD00jr2_H5esJGcvHEMXS6wqSgMofThouigs_7jls16QKIp7WJQCt6zg1_UlpvYcPHoceijslemmTtfTLDFhbauiQejEMivXgwzQ6qY_ZNIh3VXJLgKFxmo4rw0BU6uALDdcnGIDrIL45FIBONQ_ADiX7TEJhYGxkZFA9C-mccKC7jxA3-xGxsttKJhTUZR8EMhbMw0g3rkE33aG1b4FiwsN-cjoSK3oGwNb4qvDZZwkR5DNU31hscP4cusGmXrTmFPjy1izPggyVara2dWRluMgfHhU3yTqmWHk3cVPyRYdZsaVfUTYtxr56eQrFusdFWcQyW3YK4xRc-2JVNbx2v1FyEYB-3Y5XY_qPCkMWZIxa1LbdokFVK7K1M10U23y3hVnNKvMla5fXw4eWo_1P8OWbkYBnW2r0HhKWu_tIFZvBRTD9-bHkB5hB7Bu3OHj6MGkUZSVjEKj_WgU8etGNf7b2W5C4ERfDazcS_-QJQa1fDQHgEYrF2j42FZ2MPhnKYzxuBacXUTM2m--YDvYF5hsB-6NfsYfmEIKpB2z9cCV9KZuLSfAOtrGpsr76YZu2dotf_IIhJe_zXJQ6fOqviNN8glt_0G00?></g></svg>