<svg xmlns="http://www.w3.org/2000/svg" xmlns:xlink="http://www.w3.org/1999/xlink" version="1.1" data-diagram-type="DESCRIPTION" style="width:1389px;height:432px;background:#FFFFFF;" width="1389px" height="432px" viewBox="0 0 1389 432" zoomAndPan="magnify" preserveAspectRatio="none" contentStyleType="text/css"><?plantuml 1.2026.7beta3?><defs/><g><!--cluster registrarTomaAsistencia--><g class="cluster" data-qualified-name="registrarTomaAsistencia" id="ent0003" data-source-line="6"><path d="M312.11,6 L519.61,6 A3.75,3.75 0 0 1 522.11,8.5 L529.11,28.2969 L1106.11,28.2969 A2.5,2.5 0 0 1 1108.61,30.7969 L1108.61,414.69 A2.5,2.5 0 0 1 1106.11,417.19 L312.11,417.19 A2.5,2.5 0 0 1 309.61,414.69 L309.61,8.5 A2.5,2.5 0 0 1 312.11,6" style="stroke:#000000;stroke-width:1.5;" fill="none"/><line x1="309.61" y1="28.2969" x2="529.11" y2="28.2969" style="stroke:#000000;stroke-width:1.5;"/><text x="313.61" y="20.9951" fill="#000000" font-size="14" lengthAdjust="spacing" textLength="206.5" font-weight="700" font-family="sans-serif">registrarTomaAsistencia()</text></g><!--entity RegistrarTomaAsistenciaView--><g class="entity" data-qualified-name="registrarTomaAsistencia.RegistrarTomaAsistenciaView" id="ent0004" data-source-line="7"><rect x="577.59" y="41" width="228.0518" height="36.2969" fill="#629EF9" style="stroke:#181818;stroke-width:0.5;" rx="2.5" ry="2.5"/><text x="587.59" y="63.9951" fill="#000000" font-size="14" lengthAdjust="spacing" textLength="208.0518" font-family="sans-serif">RegistrarTomaAsistenciaView</text></g><!--entity AsistenciaController--><g class="entity" data-qualified-name="registrarTomaAsistencia.AsistenciaController" id="ent0005" data-source-line="8"><rect x="466.43" y="154.3" width="160.3691" height="36.2969" fill="#B5BD68" style="stroke:#181818;stroke-width:0.5;" rx="2.5" ry="2.5"/><text x="476.43" y="177.2951" fill="#000000" font-size="14" lengthAdjust="spacing" textLength="140.3691" font-family="sans-serif">AsistenciaController</text></g><!--entity AlumnoRepository--><g class="entity" data-qualified-name="registrarTomaAsistencia.AlumnoRepository" id="ent0006" data-source-line="9"><rect x="325.37" y="267.6" width="148.4883" height="36.2969" fill="#F2AC4E" style="stroke:#181818;stroke-width:0.5;" rx="2.5" ry="2.5"/><text x="335.37" y="290.5951" fill="#000000" font-size="14" lengthAdjust="spacing" textLength="128.4883" font-family="sans-serif">AlumnoRepository</text></g><!--entity AsistenciaRepository--><g class="entity" data-qualified-name="registrarTomaAsistencia.AsistenciaRepository" id="ent0007" data-source-line="10"><rect x="604.48" y="267.6" width="166.2686" height="36.2969" fill="#F2AC4E" style="stroke:#181818;stroke-width:0.5;" rx="2.5" ry="2.5"/><text x="614.48" y="290.5951" fill="#000000" font-size="14" lengthAdjust="spacing" textLength="146.2686" font-family="sans-serif">AsistenciaRepository</text></g><!--entity Alumno--><g class="entity" data-qualified-name="registrarTomaAsistencia.Alumno" id="ent0008" data-source-line="11"><rect x="362.9" y="364.89" width="73.416" height="36.2969" fill="#F2AC4E" style="stroke:#181818;stroke-width:0.5;" rx="2.5" ry="2.5"/><text x="372.9" y="387.8851" fill="#000000" font-size="14" lengthAdjust="spacing" textLength="53.416" font-family="sans-serif">Alumno</text></g><!--entity Asistencia--><g class="entity" data-qualified-name="registrarTomaAsistencia.Asistencia" id="ent0009" data-source-line="12"><rect x="642.01" y="364.89" width="91.1963" height="36.2969" fill="#F2AC4E" style="stroke:#181818;stroke-width:0.5;" rx="2.5" ry="2.5"/><text x="652.01" y="387.8851" fill="#000000" font-size="14" lengthAdjust="spacing" textLength="71.1963" font-family="sans-serif">Asistencia</text></g><!--entity CrearSesionClase--><g class="entity" data-qualified-name="CrearSesionClase" id="ent0001" data-source-line="3"><rect x="7" y="41" width="245.2236" height="36.2969" fill="#CDEBA5" style="stroke:#181818;stroke-width:0.5;" rx="2.5" ry="2.5"/><text x="17" y="63.9951" fill="#000000" font-size="14" lengthAdjust="spacing" textLength="225.2236" font-family="sans-serif">:Collaboration CrearSesionClase</text></g><!--entity CerrarSesionClase--><g class="entity" data-qualified-name="CerrarSesionClase" id="ent0002" data-source-line="4"><rect x="1124.12" y="154.3" width="250.9795" height="36.2969" fill="#CDEBA5" style="stroke:#181818;stroke-width:0.5;" rx="2.5" ry="2.5"/><text x="1134.12" y="177.2951" fill="#000000" font-size="14" lengthAdjust="spacing" textLength="230.9795" font-family="sans-serif">:Collaboration CerrarSesionClase</text></g><!--link CrearSesionClase to RegistrarTomaAsistenciaView--><g class="link" data-entity-1="ent0001" data-entity-2="ent0004" id="lnk10" data-source-line="15" data-link-type="dependency"><path d="M252.6,59.15 C349.35,59.15 478.13,59.15 572.51,59.15" style="stroke:#181818;stroke-width:1;" fill="none" id="CrearSesionClase-to-RegistrarTomaAsistenciaView"/><polygon points="577.51,59.15,568.51,55.15,572.51,59.15,568.51,63.15,577.51,59.15" fill="#181818" style="stroke:#181818;stroke-width:1;stroke-linejoin:miter;stroke-miterlimit:10;"/><text x="270.4" y="52.2169" fill="#000000" font-size="13" lengthAdjust="spacing" textLength="289.085" font-family="sans-serif">«include» registrarTomaAsistencia(sesionId)</text></g><!--link RegistrarTomaAsistenciaView to AsistenciaController--><g class="link" data-entity-1="ent0004" data-entity-2="ent0005" id="lnk11" data-source-line="17" data-link-type="dependency"><path d="M577.28,77.37 C487.87,90.84 378.61,107.3 378.61,107.3 C378.61,107.3 378.61,124.3 378.61,124.3 C378.61,124.3 431.4759,139.1393 479.2359,152.5393" style="stroke:#181818;stroke-width:1;" fill="none" id="RegistrarTomaAsistenciaView-to-AsistenciaController"/><polygon points="484.05,153.89,476.4652,147.6075,479.2359,152.5393,474.3041,155.31,484.05,153.89" fill="#181818" style="stroke:#181818;stroke-width:1;stroke-linejoin:miter;stroke-miterlimit:10;"/><text x="379.61" y="120.3669" fill="#000000" font-size="13" lengthAdjust="spacing" textLength="268.728" font-family="sans-serif">cargarAlumnos(sesionId) : List&lt;Alumno></text></g><!--link RegistrarTomaAsistenciaView to AsistenciaController--><g class="link" data-entity-1="ent0004" data-entity-2="ent0005" id="lnk14" data-source-line="23" data-link-type="dependency"><path d="M680.95,77.68 C669.41,96.67 652.61,124.3 652.61,124.3 C652.61,124.3 620.7888,138.4587 590.6488,151.8587" style="stroke:#181818;stroke-width:1;" fill="none" id="RegistrarTomaAsistenciaView-to-AsistenciaController-1"/><polygon points="586.08,153.89,595.9289,153.8888,590.6488,151.8587,592.6788,146.5787,586.08,153.89" fill="#181818" style="stroke:#181818;stroke-width:1;stroke-linejoin:miter;stroke-miterlimit:10;"/><text x="662.61" y="120.3669" fill="#000000" font-size="13" lengthAdjust="spacing" textLength="399.166" font-family="sans-serif">registrarAsistencia(sesionId, alumnoId, presente) : Asistencia</text></g><!--link AsistenciaController to AlumnoRepository--><g class="link" data-entity-1="ent0005" data-entity-2="ent0006" id="lnk12" data-source-line="19" data-link-type="dependency"><path d="M474.47,191.07 C419.65,204.46 353.61,220.6 353.61,220.6 C353.61,220.6 353.61,237.6 353.61,237.6 C353.61,237.6 365.9088,250.2007 378.9888,263.6107" style="stroke:#181818;stroke-width:1;" fill="none" id="AsistenciaController-to-AlumnoRepository"/><polygon points="382.48,267.19,379.0592,257.9543,378.9888,263.6107,373.3324,263.5402,382.48,267.19" fill="#181818" style="stroke:#181818;stroke-width:1;stroke-linejoin:miter;stroke-miterlimit:10;"/><text x="354.61" y="233.6669" fill="#000000" font-size="13" lengthAdjust="spacing" textLength="285.1812" font-family="sans-serif">obtenerPorSesion(sesionId) : List&lt;Alumno></text></g><!--link AlumnoRepository to Alumno--><g class="link" data-entity-1="ent0006" data-entity-2="ent0008" id="lnk13" data-source-line="21" data-link-type="association"><path d="M399.61,304.22 C399.61,321.42 399.61,347.52 399.61,364.67" style="stroke:#181818;stroke-width:1;" fill="none" id="AlumnoRepository-Alumno"/></g><!--link AsistenciaController to AsistenciaRepository--><g class="link" data-entity-1="ent0005" data-entity-2="ent0007" id="lnk15" data-source-line="25" data-link-type="dependency"><path d="M584.59,191 C613.59,204.41 648.61,220.6 648.61,220.6 C648.61,220.6 662.8144,243.9465 674.3544,262.9465" style="stroke:#181818;stroke-width:1;" fill="none" id="AsistenciaController-to-AsistenciaRepository"/><polygon points="676.95,267.22,675.6967,257.4512,674.3544,262.9465,668.8591,261.6042,676.95,267.22" fill="#181818" style="stroke:#181818;stroke-width:1;stroke-linejoin:miter;stroke-miterlimit:10;"/><text x="658.61" y="233.6669" fill="#000000" font-size="13" lengthAdjust="spacing" textLength="403.6221" font-family="sans-serif">guardarOActualizar(sesionId, alumnoId, presente) : Asistencia</text></g><!--link AsistenciaRepository to Asistencia--><g class="link" data-entity-1="ent0007" data-entity-2="ent0009" id="lnk16" data-source-line="27" data-link-type="association"><path d="M687.61,304.22 C687.61,321.42 687.61,347.52 687.61,364.67" style="stroke:#181818;stroke-width:1;" fill="none" id="AsistenciaRepository-Asistencia"/></g><!--link RegistrarTomaAsistenciaView to CerrarSesionClase--><g class="link" data-entity-1="ent0004" data-entity-2="ent0002" id="lnk17" data-source-line="29" data-link-type="dependency"><path d="M806.1,74.39 C917.67,88.27 1070.61,107.3 1070.61,107.3 C1070.61,107.3 1142.993,133.2435 1195.993,152.2335" style="stroke:#181818;stroke-width:1;stroke-dasharray:7,7;" fill="none" id="RegistrarTomaAsistenciaView-to-CerrarSesionClase"/><polygon points="1200.7,153.92,1193.5767,147.1187,1195.993,152.2335,1190.8782,154.6498,1200.7,153.92" fill="#181818" style="stroke:#181818;stroke-width:1;stroke-linejoin:miter;stroke-miterlimit:10;"/><text x="1114.61" y="120.3669" fill="#000000" font-size="13" lengthAdjust="spacing" textLength="248.1172" font-family="sans-serif">«include» cerrarSesionClase(sesionId)</text></g><?plantuml-src dPDHIyCm58NVyoikzMK3kuVXXfPHg7K3GL2c-7xRNafObfIR5fdYVpVTT9jTsubzIdFF_P9pajYLr0Koha59JUMc82YCsjG_GZ2b9UfS4Lp4T_FRQ09U41kbC36CfJGQOYRaPx9k72kqv07Qayc_S8Yv1TIS5QB0T8Kv0LCkRUcgBsQDaNLZqgd4kilhg0s67dm8SD_HVgRZc_dY1fRjBQ-ItfeToIJ9fjTm4CL6b-pS43UbYt4KNyqXKjLQcoKLnihIyAPBjYUUbsw9PpdYKuZcOO3FVjZdDu3PJEfKLHc5OLVE0xibtcT38NfOu6TkiRQe0aYHS-IT4tlWGG0FJZxR5K8Xshh1hx6DM0CmYHCIFvblmttKHhCZ_gJQRwZJppwfbfGk0RViUbGmMT8brNiwEgeUdott8e2yGiwG7wEqh539T-H_hjR8u4ZJbyDe59u-pzzN9ssM3yVn1G00?></g></svg>