<svg xmlns="http://www.w3.org/2000/svg" xmlns:xlink="http://www.w3.org/1999/xlink" version="1.1" data-diagram-type="DESCRIPTION" style="width:948px;height:432px;background:#FFFFFF;" width="948px" height="432px" viewBox="0 0 948 432" zoomAndPan="magnify" preserveAspectRatio="none" contentStyleType="text/css"><?plantuml 1.2026.7beta8?><defs/><g font-family="sans-serif" lengthAdjust="spacing"><!--cluster registrarTomaAsistencia--><g class="cluster" data-qualified-name="registrarTomaAsistencia" id="ent0002" data-source-line="5"><path d="M357.84,6 L565.34,6 A3.75,3.75 0 0 1 567.84,8.5 L574.84,28.297 L930.84,28.297 A2.5,2.5 0 0 1 933.34,30.797 L933.34,414.69 A2.5,2.5 0 0 1 930.84,417.19 L357.84,417.19 A2.5,2.5 0 0 1 355.34,414.69 L355.34,8.5 A2.5,2.5 0 0 1 357.84,6" style="stroke:#000;stroke-width:1.5;" fill="none"/><line x1="355.34" y1="28.297" x2="574.84" y2="28.297" style="stroke:#000;stroke-width:1.5;"/><text x="359.34" y="20.995" fill="#000" font-size="14" textLength="206.5" font-weight="700">registrarTomaAsistencia()</text></g><!--entity RegistrarTomaAsistenciaView--><g class="entity" data-qualified-name="registrarTomaAsistencia.RegistrarTomaAsistenciaView" id="ent0003" data-source-line="6"><rect x="433.31" y="41" width="228.052" height="36.297" fill="#629EF9" style="stroke:#181818;stroke-width:0.5;" rx="2.5" ry="2.5"/><text x="443.31" y="63.995" fill="#000" font-size="14" textLength="208.052">RegistrarTomaAsistenciaView</text></g><!--entity AsistenciaController--><g class="entity" data-qualified-name="registrarTomaAsistencia.AsistenciaController" id="ent0004" data-source-line="7"><rect x="450.16" y="154.3" width="160.369" height="36.297" fill="#B5BD68" style="stroke:#181818;stroke-width:0.5;" rx="2.5" ry="2.5"/><text x="460.16" y="177.295" fill="#000" font-size="14" textLength="140.369">AsistenciaController</text></g><!--entity AlumnoRepository--><g class="entity" data-qualified-name="registrarTomaAsistencia.AlumnoRepository" id="ent0005" data-source-line="8"><rect x="371.1" y="267.6" width="148.488" height="36.297" fill="#F2AC4E" style="stroke:#181818;stroke-width:0.5;" rx="2.5" ry="2.5"/><text x="381.1" y="290.595" fill="#000" font-size="14" textLength="128.488">AlumnoRepository</text></g><!--entity AsistenciaRepository--><g class="entity" data-qualified-name="registrarTomaAsistencia.AsistenciaRepository" id="ent0006" data-source-line="9"><rect x="554.21" y="267.6" width="166.269" height="36.297" fill="#F2AC4E" style="stroke:#181818;stroke-width:0.5;" rx="2.5" ry="2.5"/><text x="564.21" y="290.595" fill="#000" font-size="14" textLength="146.269">AsistenciaRepository</text></g><!--entity Alumno--><g class="entity" data-qualified-name="registrarTomaAsistencia.Alumno" id="ent0007" data-source-line="10"><rect x="408.63" y="364.89" width="73.416" height="36.297" fill="#F2AC4E" style="stroke:#181818;stroke-width:0.5;" rx="2.5" ry="2.5"/><text x="418.63" y="387.885" fill="#000" font-size="14" textLength="53.416">Alumno</text></g><!--entity Asistencia--><g class="entity" data-qualified-name="registrarTomaAsistencia.Asistencia" id="ent0008" data-source-line="11"><rect x="591.74" y="364.89" width="91.196" height="36.297" fill="#F2AC4E" style="stroke:#181818;stroke-width:0.5;" rx="2.5" ry="2.5"/><text x="601.74" y="387.885" fill="#000" font-size="14" textLength="71.196">Asistencia</text></g><!--entity SesionClaseAbierta--><g class="entity" data-qualified-name="SesionClaseAbierta" id="ent0001" data-source-line="3"><rect x="7" y="41" width="168.682" height="36.297" fill="#CDEBA5" style="stroke:#181818;stroke-width:0.5;" rx="2.5" ry="2.5"/><text x="17" y="63.995" fill="#000" font-size="14" textLength="148.682">:Sesion Clase Abierta</text></g><!--link SesionClaseAbierta to RegistrarTomaAsistenciaView--><g class="link" data-entity-1="ent0001" data-entity-2="ent0003" id="lnk9" data-source-line="14" data-link-type="dependency"><path d="M176.04,59.15 C248.42,59.15 348.19,59.15 428,59.15" style="stroke:#181818;stroke-width:1;" fill="none" id="SesionClaseAbierta-to-RegistrarTomaAsistenciaView"/><polygon points="433,59.15,424,55.15,428,59.15,424,63.15,433,59.15" fill="#181818" style="stroke:#181818;stroke-width:1;stroke-linejoin:miter;stroke-miterlimit:10;"/><text x="194" y="52.217" fill="#000" font-size="13" textLength="221.946">registrarTomaAsistencia(sesionId)</text></g><!--link RegistrarTomaAsistenciaView to AsistenciaController--><g class="link" data-entity-1="ent0003" data-entity-2="ent0004" id="lnk10" data-source-line="15" data-link-type="dependency"><path d="M493.72,77.71 C452.78,91.11 403.34,107.3 403.34,107.3 C403.34,107.3 403.34,124.3 403.34,124.3 C403.34,124.3 442.252,138.75 478.362,152.15" style="stroke:#181818;stroke-width:1;" fill="none" id="RegistrarTomaAsistenciaView-to-AsistenciaController"/><polygon points="483.05,153.89,476.004,147.009,478.362,152.15,473.221,154.509,483.05,153.89" fill="#181818" style="stroke:#181818;stroke-width:1;stroke-linejoin:miter;stroke-miterlimit:10;"/><text x="404.34" y="120.367" fill="#000" font-size="13" textLength="161.973">cargarAlumnos(sesionId)</text></g><!--link RegistrarTomaAsistenciaView to AsistenciaController--><g class="link" data-entity-1="ent0003" data-entity-2="ent0004" id="lnk13" data-source-line="18" data-link-type="dependency"><path d="M555.91,77.71 C562.44,91.11 570.34,107.3 570.34,107.3 C570.34,107.3 570.34,124.3 570.34,124.3 C570.34,124.3 559.845,136.677 548.475,150.077" style="stroke:#181818;stroke-width:1;" fill="none" id="RegistrarTomaAsistenciaView-to-AsistenciaController-1"/><polygon points="545.24,153.89,554.113,149.615,548.475,150.077,548.013,144.44,545.24,153.89" fill="#181818" style="stroke:#181818;stroke-width:1;stroke-linejoin:miter;stroke-miterlimit:10;"/><text x="571.34" y="120.367" fill="#000" font-size="13" textLength="306.75">registrarAsistencia(sesionId, alumnoId, estado)</text></g><!--link AsistenciaController to AlumnoRepository--><g class="link" data-entity-1="ent0004" data-entity-2="ent0005" id="lnk11" data-source-line="16" data-link-type="dependency"><path d="M493.1,191 C464.67,204.41 430.34,220.6 430.34,220.6 C430.34,220.6 430.34,237.6 430.34,237.6 C430.34,237.6 433.973,249.016 438.243,262.426" style="stroke:#181818;stroke-width:1;" fill="none" id="AsistenciaController-to-AlumnoRepository"/><polygon points="439.76,267.19,440.841,257.401,438.243,262.426,433.218,259.828,439.76,267.19" fill="#181818" style="stroke:#181818;stroke-width:1;stroke-linejoin:miter;stroke-miterlimit:10;"/><text x="431.34" y="233.667" fill="#000" font-size="13" textLength="147.697">findBySesion(sesionId)</text></g><!--link AlumnoRepository to Alumno--><g class="link" data-entity-1="ent0005" data-entity-2="ent0007" id="lnk12" data-source-line="17" data-link-type="association"><path d="M445.34,304.22 C445.34,321.42 445.34,347.52 445.34,364.67" style="stroke:#181818;stroke-width:1;" fill="none" id="AlumnoRepository-Alumno"/></g><!--link AsistenciaController to AsistenciaRepository--><g class="link" data-entity-1="ent0004" data-entity-2="ent0006" id="lnk14" data-source-line="19" data-link-type="dependency"><path d="M550.08,191 C565.14,204.41 583.34,220.6 583.34,220.6 C583.34,220.6 603.38,244.394 619.37,263.394" style="stroke:#181818;stroke-width:1;" fill="none" id="AsistenciaController-to-AsistenciaRepository"/><polygon points="622.59,267.22,619.855,257.758,619.37,263.394,613.734,262.91,622.59,267.22" fill="#181818" style="stroke:#181818;stroke-width:1;stroke-linejoin:miter;stroke-miterlimit:10;"/><text x="597.34" y="233.667" fill="#000" font-size="13" textLength="293.643">crearOActualizar(sesionId, alumnoId, estado)</text></g><!--link AsistenciaRepository to Asistencia--><g class="link" data-entity-1="ent0006" data-entity-2="ent0008" id="lnk15" data-source-line="20" data-link-type="association"><path d="M637.34,304.22 C637.34,321.42 637.34,347.52 637.34,364.67" style="stroke:#181818;stroke-width:1;" fill="none" id="AsistenciaRepository-Asistencia"/></g><?plantuml-src dP5FIyD04CNl-oc6U6d1N8ejDeT26bFm95JnFat6i7Ip6sQtI1I_k_cZiSGa5VUqE_FUZvctzYXrWOmvAAd9bGL1OLHPFuHWIXpgJ15SHNVnDbo25poIbKP3fD0IX0T9xD03jD0sclfNMOW2aoDc14oPj8wHdqoEeQtkf1E9jSqRwStc7hmBgCxP5Al5EjwjOJziUPRqsdSSbeTqTGi_eiXenqOfuhvqjmYZcnX2TSgrsLDXh7I6op5PHxmiROWNEU93YDyXWi_-PchZO2pTcMrWz-bSJDZ1Jol-K3u19CWPSZk-FSCDgS6lCRti0dYHEjsMxLhdX9wmSd_7zCzPkn060hW6RDZrZQp3r4pjCF2nLHHCo0zXuawev1lo7zcz3Rlw9m00?></g></svg>