<svg xmlns="http://www.w3.org/2000/svg" xmlns:xlink="http://www.w3.org/1999/xlink" version="1.1" data-diagram-type="DESCRIPTION" style="width:1004px;height:432px;background:#FFFFFF;" width="1004px" height="432px" viewBox="0 0 1004 432" zoomAndPan="magnify" preserveAspectRatio="none" contentStyleType="text/css"><?plantuml 1.2026.7beta3?><defs/><g><!--cluster exportarDispensas--><g class="cluster" data-qualified-name="exportarDispensas" id="ent0002" data-source-line="5"><path d="M325.73,6 L487.9898,6 A3.75,3.75 0 0 1 490.4898,8.5 L497.4898,28.2969 L986.73,28.2969 A2.5,2.5 0 0 1 989.23,30.7969 L989.23,414.69 A2.5,2.5 0 0 1 986.73,417.19 L325.73,417.19 A2.5,2.5 0 0 1 323.23,414.69 L323.23,8.5 A2.5,2.5 0 0 1 325.73,6" style="stroke:#000000;stroke-width:1.5;" fill="none"/><line x1="323.23" y1="28.2969" x2="497.4898" y2="28.2969" style="stroke:#000000;stroke-width:1.5;"/><text x="327.23" y="20.9951" fill="#000000" font-size="14" lengthAdjust="spacing" textLength="161.2598" font-weight="700" font-family="sans-serif">exportarDispensas()</text></g><!--entity ExportarDispensasView--><g class="entity" data-qualified-name="exportarDispensas.ExportarDispensasView" id="ent0003" data-source-line="6"><rect x="407.63" y="41" width="185.1973" height="36.2969" fill="#629EF9" style="stroke:#181818;stroke-width:0.5;" rx="2.5" ry="2.5"/><text x="417.63" y="63.9951" fill="#000000" font-size="14" lengthAdjust="spacing" textLength="165.1973" font-family="sans-serif">ExportarDispensasView</text></g><!--entity DispensaController--><g class="entity" data-qualified-name="exportarDispensas.DispensaController" id="ent0004" data-source-line="7"><rect x="473.54" y="154.3" width="153.3828" height="36.2969" fill="#B5BD68" style="stroke:#181818;stroke-width:0.5;" rx="2.5" ry="2.5"/><text x="483.54" y="177.2951" fill="#000000" font-size="14" lengthAdjust="spacing" textLength="133.3828" font-family="sans-serif">DispensaController</text></g><!--entity DispensaRepository--><g class="entity" data-qualified-name="exportarDispensas.DispensaRepository" id="ent0005" data-source-line="8"><rect x="470.59" y="267.6" width="159.2822" height="36.2969" fill="#F2AC4E" style="stroke:#181818;stroke-width:0.5;" rx="2.5" ry="2.5"/><text x="480.59" y="290.5951" fill="#000000" font-size="14" lengthAdjust="spacing" textLength="139.2822" font-family="sans-serif">DispensaRepository</text></g><!--entity Dispensa--><g class="entity" data-qualified-name="exportarDispensas.Dispensa" id="ent0006" data-source-line="9"><rect x="508.12" y="364.89" width="84.21" height="36.2969" fill="#F2AC4E" style="stroke:#181818;stroke-width:0.5;" rx="2.5" ry="2.5"/><text x="518.12" y="387.8851" fill="#000000" font-size="14" lengthAdjust="spacing" textLength="64.21" font-family="sans-serif">Dispensa</text></g><!--entity DashboardSecretariaAbierto--><g class="entity" data-qualified-name="DashboardSecretariaAbierto" id="ent0001" data-source-line="3"><rect x="7" y="41" width="232.4541" height="36.2969" fill="#CDEBA5" style="stroke:#181818;stroke-width:0.5;" rx="2.5" ry="2.5"/><text x="17" y="63.9951" fill="#000000" font-size="14" lengthAdjust="spacing" textLength="212.4541" font-family="sans-serif">:Dashboard Secretaria Abierto</text></g><!--link DashboardSecretariaAbierto to ExportarDispensasView--><g class="link" data-entity-1="ent0001" data-entity-2="ent0003" id="lnk7" data-source-line="12" data-link-type="dependency"><path d="M239.93,59.15 C293.78,59.15 351.81,59.15 402.37,59.15" style="stroke:#181818;stroke-width:1;" fill="none" id="DashboardSecretariaAbierto-to-ExportarDispensasView"/><polygon points="407.37,59.15,398.37,55.15,402.37,59.15,398.37,63.15,407.37,59.15" fill="#181818" style="stroke:#181818;stroke-width:1;stroke-linejoin:miter;stroke-miterlimit:10;"/><text x="257.54" y="52.2169" fill="#000000" font-size="13" lengthAdjust="spacing" textLength="132.1899" font-family="sans-serif">exportarDispensas()</text></g><!--link ExportarDispensasView to DispensaController--><g class="link" data-entity-1="ent0003" data-entity-2="ent0004" id="lnk8" data-source-line="14" data-link-type="dependency"><path d="M452.19,77.71 C415.52,91.11 371.23,107.3 371.23,107.3 C371.23,107.3 371.23,124.3 371.23,124.3 C371.23,124.3 427.6449,139.1566 478.4849,152.5466" style="stroke:#181818;stroke-width:1;" fill="none" id="ExportarDispensasView-to-DispensaController"/><polygon points="483.32,153.82,475.6356,147.6597,478.4849,152.5466,473.598,155.3959,483.32,153.82" fill="#181818" style="stroke:#181818;stroke-width:1;stroke-linejoin:miter;stroke-miterlimit:10;"/><text x="372.23" y="120.3669" fill="#000000" font-size="13" lengthAdjust="spacing" textLength="265.8398" font-family="sans-serif">filtrarDispensas(filtros) : List&lt;Dispensa></text></g><!--link ExportarDispensasView to DispensaController--><g class="link" data-entity-1="ent0003" data-entity-2="ent0004" id="lnk11" data-source-line="20" data-link-type="dependency"><path d="M553.1,77.71 C593.48,91.11 642.23,107.3 642.23,107.3 C642.23,107.3 642.23,124.3 642.23,124.3 C642.23,124.3 615.0901,138.2105 588.9301,151.6105" style="stroke:#181818;stroke-width:1;" fill="none" id="ExportarDispensasView-to-DispensaController-1"/><polygon points="584.48,153.89,594.3139,153.347,588.9301,151.6105,590.6667,146.2268,584.48,153.89" fill="#181818" style="stroke:#181818;stroke-width:1;stroke-linejoin:miter;stroke-miterlimit:10;"/><text x="643.23" y="120.3669" fill="#000000" font-size="13" lengthAdjust="spacing" textLength="290.5068" font-family="sans-serif">exportarDispensas(filtros, formato) : Archivo</text></g><!--link DispensaController to DispensaRepository--><g class="link" data-entity-1="ent0004" data-entity-2="ent0005" id="lnk9" data-source-line="16" data-link-type="dependency"><path d="M550.23,190.84 C550.23,211.62 550.23,241.21 550.23,262.11" style="stroke:#181818;stroke-width:1;" fill="none" id="DispensaController-to-DispensaRepository"/><polygon points="550.23,267.11,554.23,258.11,550.23,262.11,546.23,258.11,550.23,267.11" fill="#181818" style="stroke:#181818;stroke-width:1;stroke-linejoin:miter;stroke-miterlimit:10;"/><text x="551.23" y="233.6669" fill="#000000" font-size="13" lengthAdjust="spacing" textLength="261.8472" font-family="sans-serif">buscarPorFiltro(filtros) : List&lt;Dispensa></text></g><!--link DispensaRepository to Dispensa--><g class="link" data-entity-1="ent0005" data-entity-2="ent0006" id="lnk10" data-source-line="18" data-link-type="association"><path d="M550.23,304.22 C550.23,321.42 550.23,347.52 550.23,364.67" style="stroke:#181818;stroke-width:1;" fill="none" id="DispensaRepository-Dispensa"/></g><?plantuml-src ZP3BQiCm44Nt-eh1tJHGRq8J6bC2hX-hBaeBtSls915HF6AaFapflrS9IMnYcrHeevapL_UEtQhQI9OxqAf6rnW4GxhPFuHWB9sirnhX9acpftW6GPHAkob8SWLlM38woKf2N2XaHm582sUWxH_RGXXPRkKQ0RyDiM-boXgihP_oD-XLRoS1_0Zmf-DaFbra-GAoI_XTuTSbMyoAQlu09oQXsZ5fZNm9vjCukS_Eu2iQiieHDrT0yIl4U608ELmEEurW8AqGWoo4bPVfXuXWfRJZhiIXG7O24JmhwnvFdQMtsPk7i2FRHewW-B2bv1VY_23t7zLstAkswnaBD9AdlvFZrtUm8jv9HtiFCPSRzKb_?></g></svg>