<svg xmlns="http://www.w3.org/2000/svg" xmlns:xlink="http://www.w3.org/1999/xlink" contentStyleType="text/css" data-diagram-type="DESCRIPTION" height="435px" preserveAspectRatio="none" style="width:964px;height:435px;background:#FFFFFF;" version="1.1" viewBox="0 0 964 435" width="964px" zoomAndPan="magnify"><?plantuml 1.2026.5?><defs/><g><!--cluster importarListasAlumnos--><g class="cluster" data-qualified-name="importarListasAlumnos" data-source-line="7" id="ent0004"><path d="M8.5,106.3 L205.9033,106.3 A3.75,3.75 0 0 1 208.4033,108.8 L215.4033,128.5969 L338.5,128.5969 A2.5,2.5 0 0 1 341,131.0969 L341,417.69 A2.5,2.5 0 0 1 338.5,420.19 L8.5,420.19 A2.5,2.5 0 0 1 6,417.69 L6,108.8 A2.5,2.5 0 0 1 8.5,106.3" fill="none" style="stroke:#000000;stroke-width:1.5;"/><line style="stroke:#000000;stroke-width:1.5;" x1="6" x2="215.4033" y1="128.5969" y2="128.5969"/><text fill="#000000" font-family="sans-serif" font-size="14" font-weight="700" lengthAdjust="spacing" textLength="196.4033" x="10" y="121.2951">importarListasAlumnos()</text></g><!--entity ImportarListasView--><g class="entity" data-qualified-name="importarListasAlumnos.ImportarListasView" data-source-line="8" id="ent0005"><rect fill="#629EF9" height="36.2969" rx="2.5" ry="2.5" style="stroke:#181818;stroke-width:0.5;" width="154.6748" x="170.66" y="141.3"/><text fill="#000000" font-family="sans-serif" font-size="14" lengthAdjust="spacing" textLength="134.6748" x="180.66" y="164.2951">ImportarListasView</text></g><!--entity ImportacionController--><g class="entity" data-qualified-name="importarListasAlumnos.ImportacionController" data-source-line="9" id="ent0006"><rect fill="#B5BD68" height="36.2969" rx="2.5" ry="2.5" style="stroke:#181818;stroke-width:0.5;" width="173.2412" x="22.38" y="254.6"/><text fill="#000000" font-family="sans-serif" font-size="14" lengthAdjust="spacing" textLength="153.2412" x="32.38" y="277.5951">ImportacionController</text></g><!--entity AlumnoRepository--><g class="entity" data-qualified-name="importarListasAlumnos.AlumnoRepository" data-source-line="10" id="ent0007"><rect fill="#F2AC4E" height="36.2969" rx="2.5" ry="2.5" style="stroke:#181818;stroke-width:0.5;" width="148.4883" x="21.76" y="367.89"/><text fill="#000000" font-family="sans-serif" font-size="14" lengthAdjust="spacing" textLength="128.4883" x="31.76" y="390.8851">AlumnoRepository</text></g><!--entity PanelSecretaria--><g class="entity" data-qualified-name="PanelSecretaria" data-source-line="3" id="ent0001"><rect fill="#CDEBA5" height="36.2969" rx="2.5" ry="2.5" style="stroke:#181818;stroke-width:0.5;" width="164.498" x="165.75" y="7"/><text fill="#000000" font-family="sans-serif" font-size="14" lengthAdjust="spacing" textLength="144.498" x="175.75" y="29.9951">:PANEL_SECRETARIA</text></g><!--entity AlumnosImportados--><g class="entity" data-qualified-name="AlumnosImportados" data-source-line="4" id="ent0002"><rect fill="#CDEBA5" height="36.2969" rx="2.5" ry="2.5" style="stroke:#181818;stroke-width:0.5;" width="263.9678" x="357.02" y="254.6"/><text fill="#000000" font-family="sans-serif" font-size="14" lengthAdjust="spacing" textLength="243.9678" x="367.02" y="277.5951">:ALUMNOS_IMPORTADOS_SISTEMA</text></g><!--entity CompletarGestion--><g class="entity" data-qualified-name="CompletarGestion" data-source-line="5" id="ent0003"><rect fill="#CDEBA5" height="36.2969" rx="2.5" ry="2.5" style="stroke:#181818;stroke-width:0.5;" width="249.2363" x="656.38" y="254.6"/><text fill="#000000" font-family="sans-serif" font-size="14" lengthAdjust="spacing" textLength="229.2363" x="666.38" y="277.5951">:Collaboration CompletarGestion</text></g><!--link PanelSecretaria to ImportarListasView--><g class="link" data-entity-1="ent0001" data-entity-2="ent0005" data-link-type="dependency" data-source-line="13" id="lnk8"><path d="M248,43.72 C248,69.02 248,110.46 248,135.81" fill="none" id="PanelSecretaria-to-ImportarListasView" style="stroke:#181818;stroke-width:1;"/><polygon fill="#181818" points="248,140.81,252,131.81,248,135.81,244,131.81,248,140.81" style="stroke:#181818;stroke-width:1;stroke-linejoin:miter;stroke-miterlimit:10;"/><text fill="#000000" font-family="sans-serif" font-size="13" lengthAdjust="spacing" textLength="160.2148" x="249" y="86.3669">importarListasAlumnos()</text></g><!--link ImportarListasView to ImportacionController--><g class="link" data-entity-1="ent0005" data-entity-2="ent0006" data-link-type="dependency" data-source-line="15" id="lnk9"><path d="M221.93,178 C202.03,191.41 178,207.6 178,207.6 C178,207.6 151.9413,231.8149 131.5113,250.8149" fill="none" id="ImportarListasView-to-ImportacionController" style="stroke:#181818;stroke-width:1;"/><polygon fill="#181818" points="127.85,254.22,137.1645,251.0199,131.5113,250.8149,131.7164,245.1618,127.85,254.22" style="stroke:#181818;stroke-width:1;stroke-linejoin:miter;stroke-miterlimit:10;"/><text fill="#000000" font-family="sans-serif" font-size="13" lengthAdjust="spacing" textLength="266.9063" x="179" y="220.6669">procesarArchivoAlumnos(streamArchivo)</text></g><!--link ImportacionController to AlumnoRepository--><g class="link" data-entity-1="ent0006" data-entity-2="ent0007" data-link-type="dependency" data-source-line="16" id="lnk10"><path d="M106.97,291.13 C104.54,311.92 101.0798,341.5437 98.6398,362.4437" fill="none" id="ImportacionController-to-AlumnoRepository" style="stroke:#181818;stroke-width:1;"/><polygon fill="#181818" points="98.06,367.41,103.0766,358.9345,98.6398,362.4437,95.1306,358.0069,98.06,367.41" style="stroke:#181818;stroke-width:1;stroke-linejoin:miter;stroke-miterlimit:10;"/><text fill="#000000" font-family="sans-serif" font-size="13" lengthAdjust="spacing" textLength="229.6074" x="105" y="333.9569">guardarLoteAlumnos(listaAlumnos)</text></g><!--link ImportarListasView to AlumnosImportados--><g class="link" data-entity-1="ent0005" data-entity-2="ent0002" data-link-type="dependency" data-source-line="18" id="lnk11"><path d="M323.5,178.07 C380.88,191.46 450,207.6 450,207.6 C450,207.6 464.2044,230.9465 475.7444,249.9465" fill="none" id="ImportarListasView-to-AlumnosImportados" style="stroke:#181818;stroke-width:1;stroke-dasharray:7,7;"/><polygon fill="#181818" points="478.34,254.22,477.0867,244.4512,475.7444,249.9465,470.2491,248.6042,478.34,254.22" style="stroke:#181818;stroke-width:1;stroke-linejoin:miter;stroke-miterlimit:10;"/><text fill="#000000" font-family="sans-serif" font-size="13" lengthAdjust="spacing" textLength="109.6367" x="461" y="220.6669">&#171;include&#187; [&#233;xito]</text></g><!--link ImportarListasView to CompletarGestion--><g class="link" data-entity-1="ent0005" data-entity-2="ent0003" data-link-type="dependency" data-source-line="19" id="lnk12"><path d="M325.6,171.5 C423.44,185.44 579,207.6 579,207.6 C579,207.6 660.9745,233.6267 720.7745,252.6167" fill="none" id="ImportarListasView-to-CompletarGestion" style="stroke:#181818;stroke-width:1;stroke-dasharray:7,7;"/><polygon fill="#181818" points="725.54,254.13,718.1728,247.5936,720.7745,252.6167,715.7515,255.2184,725.54,254.13" style="stroke:#181818;stroke-width:1;stroke-linejoin:miter;stroke-miterlimit:10;"/><text fill="#000000" font-family="sans-serif" font-size="13" lengthAdjust="spacing" textLength="320.7344" x="628" y="220.6669">&#171;include&#187; completarGestion() [cancelaci&#243;n/error]</text></g><?plantuml-src TLBDIiD04BxlKmprOWzL41KDKbXZb42hfQbUH6Iw6UhYPZVCRjKYFf1d7w4lPg8jsXZtjFFp_Smm_b7R4XaBCDfIM9G4fJEBEX22IGMqCqEm5Pybf_80Ej58NYQ3-oo9nyb4ZbFP0VGmGaic8yKKa3Ms0kNWUdXvbTsdmz7LU2BFgc-MPfDa-4qXpRompgT5wJXWxdmhIUoCmQbZ3DfPY5rHcbhoWdoT-29g9eKeKJtYZ41_S_D0-u1-9LX3EgsLxMu7NWLKxvUJmxtZvFmOqWt0ZQRdPkFqO9eV7gqRLMKaTZPmvP-usNk-9-FzPBM2CPNEw-1u8Tw4Q6mMUhr-YtW4_qmWnDzcwEK_99l68YZPAVB8ajM3Vd9h8X-Oi5Wbkw8L_EMjEKC4ipboNkcxG6isKtjP1UqMTtRwVoyYWfCJRPMPvzJlm-to_QMIkFiFtho3JRHgLBUxSAlGAZBLLCiFkqlCZky-0G00?></g></svg>