<svg xmlns="http://www.w3.org/2000/svg" xmlns:xlink="http://www.w3.org/1999/xlink" version="1.1" data-diagram-type="DESCRIPTION" style="width:598px;height:432px;background:#FFFFFF;" width="598px" height="432px" viewBox="0 0 598 432" zoomAndPan="magnify" preserveAspectRatio="none" contentStyleType="text/css"><?plantuml 1.2026.7beta8?><defs/><g font-family="sans-serif" lengthAdjust="spacing"><!--cluster importarAlumnos--><g class="cluster" data-qualified-name="importarAlumnos" id="ent0002" data-source-line="5"><path d="M291.83,6 L442.708,6 A3.75,3.75 0 0 1 445.208,8.5 L452.208,28.297 L559.83,28.297 A2.5,2.5 0 0 1 562.33,30.797 L562.33,414.69 A2.5,2.5 0 0 1 559.83,417.19 L291.83,417.19 A2.5,2.5 0 0 1 289.33,414.69 L289.33,8.5 A2.5,2.5 0 0 1 291.83,6" style="stroke:#000;stroke-width:1.5;" fill="none"/><line x1="289.33" y1="28.297" x2="452.208" y2="28.297" style="stroke:#000;stroke-width:1.5;"/><text x="293.33" y="20.995" fill="#000" font-size="14" textLength="149.878" font-weight="700">importarAlumnos()</text></g><!--entity ImportarAlumnosView--><g class="entity" data-qualified-name="importarAlumnos.ImportarAlumnosView" id="ent0003" data-source-line="6"><rect x="305.81" y="41" width="175.039" height="36.297" fill="#629EF9" style="stroke:#181818;stroke-width:0.5;" rx="2.5" ry="2.5"/><text x="315.81" y="63.995" fill="#000" font-size="14" textLength="155.039">ImportarAlumnosView</text></g><!--entity AlumnoController--><g class="entity" data-qualified-name="importarAlumnos.AlumnoController" id="ent0004" data-source-line="7"><rect x="305.03" y="154.3" width="142.589" height="36.297" fill="#B5BD68" style="stroke:#181818;stroke-width:0.5;" rx="2.5" ry="2.5"/><text x="315.03" y="177.295" fill="#000" font-size="14" textLength="122.589">AlumnoController</text></g><!--entity AlumnoRepository--><g class="entity" data-qualified-name="importarAlumnos.AlumnoRepository" id="ent0005" data-source-line="8"><rect x="305.08" y="267.6" width="148.488" height="36.297" fill="#F2AC4E" style="stroke:#181818;stroke-width:0.5;" rx="2.5" ry="2.5"/><text x="315.08" y="290.595" fill="#000" font-size="14" textLength="128.488">AlumnoRepository</text></g><!--entity Alumno--><g class="entity" data-qualified-name="importarAlumnos.Alumno" id="ent0006" data-source-line="9"><rect x="342.62" y="364.89" width="73.416" height="36.297" fill="#F2AC4E" style="stroke:#181818;stroke-width:0.5;" rx="2.5" ry="2.5"/><text x="352.62" y="387.885" fill="#000" font-size="14" textLength="53.416">Alumno</text></g><!--entity AlumnosAbierto--><g class="entity" data-qualified-name="AlumnosAbierto" id="ent0001" data-source-line="3"><rect x="7" y="41" width="140.654" height="36.297" fill="#CDEBA5" style="stroke:#181818;stroke-width:0.5;" rx="2.5" ry="2.5"/><text x="17" y="63.995" fill="#000" font-size="14" textLength="120.654">:Alumnos Abierto</text></g><!--link AlumnosAbierto to ImportarAlumnosView--><g class="link" data-entity-1="ent0001" data-entity-2="ent0003" id="lnk7" data-source-line="12" data-link-type="dependency"><path d="M147.85,59.15 C194.42,59.15 250.79,59.15 300.51,59.15" style="stroke:#181818;stroke-width:1;" fill="none" id="AlumnosAbierto-to-ImportarAlumnosView"/><polygon points="305.51,59.15,296.51,55.15,300.51,59.15,296.51,63.15,305.51,59.15" fill="#181818" style="stroke:#181818;stroke-width:1;stroke-linejoin:miter;stroke-miterlimit:10;"/><text x="165.73" y="52.217" fill="#000" font-size="13" textLength="122.751">importarAlumnos()</text></g><!--link ImportarAlumnosView to AlumnoController--><g class="link" data-entity-1="ent0003" data-entity-2="ent0004" id="lnk8" data-source-line="13" data-link-type="dependency"><path d="M390.67,77.54 C387.5,98.33 382.965,127.977 379.775,148.867" style="stroke:#181818;stroke-width:1;" fill="none" id="ImportarAlumnosView-to-AlumnoController"/><polygon points="379.02,153.81,384.333,145.517,379.775,148.867,376.424,144.309,379.02,153.81" fill="#181818" style="stroke:#181818;stroke-width:1;stroke-linejoin:miter;stroke-miterlimit:10;"/><text x="386.33" y="120.367" fill="#000" font-size="13" textLength="170.708">importarAlumnos(archivo)</text></g><!--link AlumnoController to AlumnoRepository--><g class="link" data-entity-1="ent0004" data-entity-2="ent0005" id="lnk9" data-source-line="14" data-link-type="dependency"><path d="M376.8,190.84 C377.36,211.62 378.156,241.212 378.716,262.112" style="stroke:#181818;stroke-width:1;" fill="none" id="AlumnoController-to-AlumnoRepository"/><polygon points="378.85,267.11,382.608,258.006,378.716,262.112,374.61,258.22,378.85,267.11" fill="#181818" style="stroke:#181818;stroke-width:1;stroke-linejoin:miter;stroke-miterlimit:10;"/><text x="378.33" y="233.667" fill="#000" font-size="13" textLength="204.521">crearOActualizar(datosAlumno)</text></g><!--link AlumnoRepository to Alumno--><g class="link" data-entity-1="ent0005" data-entity-2="ent0006" id="lnk10" data-source-line="15" data-link-type="association"><path d="M379.33,304.22 C379.33,321.42 379.33,347.52 379.33,364.67" style="stroke:#181818;stroke-width:1;" fill="none" id="AlumnoRepository-Alumno"/></g><?plantuml-src VOynJyCm48Nt-nMdT6c7B1MjQ0Oa4rA92Oc1_UASYbN7jYvkKK3yTmoabAPLFTbFttj-hziQ5qYeHMiSnpum1c_xxmU0i8xaDfPnKZvKzsg1MQ7ihdM-GrKRbkWpf7J_rGO9893UqeRHjC5B93bu4fgDjEaimm_0TFvzjfolglKA7q_H5yDlOx9UrCtoTYXGUXV5MyionjPpLTvK0_RCmNScUkclOl09S3eCSydlBhKgy6mLNC0mRv9_tFNSJA9VpTxFO8nY_kS_ZYXG2vCyAHrtPCqxoRIXc4h_S8UG8vz2Xeml?></g></svg>