<svg xmlns="http://www.w3.org/2000/svg" xmlns:xlink="http://www.w3.org/1999/xlink" contentStyleType="text/css" data-diagram-type="DESCRIPTION" height="435px" preserveAspectRatio="none" style="width:875px;height:435px;background:#FFFFFF;" version="1.1" viewBox="0 0 875 435" width="875px" zoomAndPan="magnify"><?plantuml 1.2026.5?><defs/><g><!--cluster editarUsuario--><g class="cluster" data-qualified-name="editarUsuario" data-source-line="7" id="ent0004"><path d="M8.5,106.3 L130.0928,106.3 A3.75,3.75 0 0 1 132.5928,108.8 L139.5928,128.5969 L297.5,128.5969 A2.5,2.5 0 0 1 300,131.0969 L300,417.69 A2.5,2.5 0 0 1 297.5,420.19 L8.5,420.19 A2.5,2.5 0 0 1 6,417.69 L6,108.8 A2.5,2.5 0 0 1 8.5,106.3" fill="none" style="stroke:#000000;stroke-width:1.5;"/><line style="stroke:#000000;stroke-width:1.5;" x1="6" x2="139.5928" y1="128.5969" y2="128.5969"/><text fill="#000000" font-family="sans-serif" font-size="14" font-weight="700" lengthAdjust="spacing" textLength="120.5928" x="10" y="121.2951">editarUsuario()</text></g><!--entity EditarUsuarioView--><g class="entity" data-qualified-name="editarUsuario.EditarUsuarioView" data-source-line="8" id="ent0005"><rect fill="#629EF9" height="36.2969" rx="2.5" ry="2.5" style="stroke:#181818;stroke-width:0.5;" width="148.1807" x="135.91" y="141.3"/><text fill="#000000" font-family="sans-serif" font-size="14" lengthAdjust="spacing" textLength="128.1807" x="145.91" y="164.2951">EditarUsuarioView</text></g><!--entity UsuarioController--><g class="entity" data-qualified-name="editarUsuario.UsuarioController" data-source-line="9" id="ent0006"><rect fill="#B5BD68" height="36.2969" rx="2.5" ry="2.5" style="stroke:#181818;stroke-width:0.5;" width="142.377" x="21.81" y="254.6"/><text fill="#000000" font-family="sans-serif" font-size="14" lengthAdjust="spacing" textLength="122.377" x="31.81" y="277.5951">UsuarioController</text></g><!--entity UsuarioRepository--><g class="entity" data-qualified-name="editarUsuario.UsuarioRepository" data-source-line="10" id="ent0007"><rect fill="#F2AC4E" height="36.2969" rx="2.5" ry="2.5" style="stroke:#181818;stroke-width:0.5;" width="148.2764" x="21.86" y="367.89"/><text fill="#000000" font-family="sans-serif" font-size="14" lengthAdjust="spacing" textLength="128.2764" x="31.86" y="390.8851">UsuarioRepository</text></g><!--entity DetalleMostrado--><g class="entity" data-qualified-name="DetalleMostrado" data-source-line="3" id="ent0001"><rect fill="#CDEBA5" height="36.2969" rx="2.5" ry="2.5" style="stroke:#181818;stroke-width:0.5;" width="246.3926" x="86.8" y="7"/><text fill="#000000" font-family="sans-serif" font-size="14" lengthAdjust="spacing" textLength="226.3926" x="96.8" y="29.9951">:DETALLE_USUARIO_MOSTRADO</text></g><!--entity UsuarioModificado--><g class="entity" data-qualified-name="UsuarioModificado" data-source-line="4" id="ent0002"><rect fill="#CDEBA5" height="36.2969" rx="2.5" ry="2.5" style="stroke:#181818;stroke-width:0.5;" width="186.8926" x="315.55" y="254.6"/><text fill="#000000" font-family="sans-serif" font-size="14" lengthAdjust="spacing" textLength="166.8926" x="325.55" y="277.5951">:USUARIO_MODIFICADO</text></g><!--entity CompletarGestion--><g class="entity" data-qualified-name="CompletarGestion" data-source-line="5" id="ent0003"><rect fill="#CDEBA5" height="36.2969" rx="2.5" ry="2.5" style="stroke:#181818;stroke-width:0.5;" width="249.2363" x="537.38" y="254.6"/><text fill="#000000" font-family="sans-serif" font-size="14" lengthAdjust="spacing" textLength="229.2363" x="547.38" y="277.5951">:Collaboration CompletarGestion</text></g><!--link DetalleMostrado to EditarUsuarioView--><g class="link" data-entity-1="ent0001" data-entity-2="ent0005" data-link-type="dependency" data-source-line="13" id="lnk8"><path d="M210,43.72 C210,69.02 210,110.46 210,135.81" fill="none" id="DetalleMostrado-to-EditarUsuarioView" style="stroke:#181818;stroke-width:1;"/><polygon fill="#181818" points="210,140.81,214,131.81,210,135.81,206,131.81,210,140.81" style="stroke:#181818;stroke-width:1;stroke-linejoin:miter;stroke-miterlimit:10;"/><text fill="#000000" font-family="sans-serif" font-size="13" lengthAdjust="spacing" textLength="97.8174" x="211" y="86.3669">editarUsuario()</text></g><!--link EditarUsuarioView to UsuarioController--><g class="link" data-entity-1="ent0005" data-entity-2="ent0006" data-link-type="dependency" data-source-line="15" id="lnk9"><path d="M183.56,178 C163.38,191.41 139,207.6 139,207.6 C139,207.6 122.1031,231.1563 108.4831,250.1563" fill="none" id="EditarUsuarioView-to-UsuarioController" style="stroke:#181818;stroke-width:1;"/><polygon fill="#181818" points="105.57,254.22,114.0645,249.2357,108.4831,250.1563,107.5625,244.5748,105.57,254.22" style="stroke:#181818;stroke-width:1;stroke-linejoin:miter;stroke-miterlimit:10;"/><text fill="#000000" font-family="sans-serif" font-size="13" lengthAdjust="spacing" textLength="225.5005" x="140" y="220.6669">modificarUsuario(id, nuevosDatos)</text></g><!--link UsuarioController to UsuarioRepository--><g class="link" data-entity-1="ent0006" data-entity-2="ent0007" data-link-type="dependency" data-source-line="16" id="lnk10"><path d="M93.47,291.13 C94.03,311.92 94.8261,341.5118 95.3861,362.4118" fill="none" id="UsuarioController-to-UsuarioRepository" style="stroke:#181818;stroke-width:1;"/><polygon fill="#181818" points="95.52,367.41,99.2775,358.3061,95.3861,362.4118,91.2804,358.5204,95.52,367.41" style="stroke:#181818;stroke-width:1;stroke-linejoin:miter;stroke-miterlimit:10;"/><text fill="#000000" font-family="sans-serif" font-size="13" lengthAdjust="spacing" textLength="209.2505" x="96" y="333.9569">actualizarDatosUsuario(usuario)</text></g><!--link EditarUsuarioView to UsuarioModificado--><g class="link" data-entity-1="ent0005" data-entity-2="ent0002" data-link-type="dependency" data-source-line="18" id="lnk11"><path d="M269.58,178 C315.07,191.41 370,207.6 370,207.6 C370,207.6 384.2044,230.9465 395.7444,249.9465" fill="none" id="EditarUsuarioView-to-UsuarioModificado" style="stroke:#181818;stroke-width:1;stroke-dasharray:7,7;"/><polygon fill="#181818" points="398.34,254.22,397.0867,244.4512,395.7444,249.9465,390.2491,248.6042,398.34,254.22" style="stroke:#181818;stroke-width:1;stroke-linejoin:miter;stroke-miterlimit:10;"/><text fill="#000000" font-family="sans-serif" font-size="13" lengthAdjust="spacing" textLength="109.6367" x="381" y="220.6669">&#171;include&#187; [&#233;xito]</text></g><!--link EditarUsuarioView to CompletarGestion--><g class="link" data-entity-1="ent0005" data-entity-2="ent0003" data-link-type="dependency" data-source-line="19" id="lnk12"><path d="M284.42,172.59 C370.05,186.56 499,207.6 499,207.6 C499,207.6 564.5476,233.3883 612.8076,252.3883" fill="none" id="EditarUsuarioView-to-CompletarGestion" style="stroke:#181818;stroke-width:1;stroke-dasharray:7,7;"/><polygon fill="#181818" points="617.46,254.22,610.551,247.2011,612.8076,252.3883,607.6203,254.6449,617.46,254.22" style="stroke:#181818;stroke-width:1;stroke-linejoin:miter;stroke-miterlimit:10;"/><text fill="#000000" font-family="sans-serif" font-size="13" lengthAdjust="spacing" textLength="320.7344" x="539" y="220.6669">&#171;include&#187; completarGestion() [cancelaci&#243;n/error]</text></g><?plantuml-src TP7VQi8m5CRlynI7xaPXEf0vPf52rzOXA89_TYCYnpIJO4nAacvpOm-qwps2BxRgxAQjvYRavFkTxyk9MN6PeCOr22wPtIGC4YKskmCXcb6BSYaON0LXzE0tmN73QEptUj5yCfhum-vWtX-CnaC_73Y01a9cKGZMLyPgZDNP1lzWsErqWnoTc1GrLtqLysTEBy614W8NIgFbIaAWred8BFKZCxl2lb6nI4Y2T8LB1YpcMVbWj9Cw9vLArO4F0jawShvhjA9E2w9ZuHDdhqNTehc8x-xpLmHAMfr5PRgewpJyu3RATKEMACEjqXloIKXXUb2hUMLZ5mgX2Ibfe1PdQ2cB2-l3TFze7b-3JDcBCY5QPQga1ErJbEAwWDIcAFWxwZsPDqn_zxEfwdMl_CqkjDjSKf76pFDWklrwomnc5-ZYtvx2j71RgSAKegHC8ENRRtd3j5PwzWC0?></g></svg>