<svg xmlns="http://www.w3.org/2000/svg" xmlns:xlink="http://www.w3.org/1999/xlink" contentStyleType="text/css" data-diagram-type="DESCRIPTION" height="435px" preserveAspectRatio="none" style="width:926px;height:435px;background:#FFFFFF;" version="1.1" viewBox="0 0 926 435" width="926px" zoomAndPan="magnify"><?plantuml 1.2026.5?><defs/><g><!--cluster consultarDetalleMatricula--><g class="cluster" data-qualified-name="consultarDetalleMatricula" data-source-line="7" id="ent0004"><path d="M8.5,106.3 L226.958,106.3 A3.75,3.75 0 0 1 229.458,108.8 L236.458,128.5969 L303.5,128.5969 A2.5,2.5 0 0 1 306,131.0969 L306,417.69 A2.5,2.5 0 0 1 303.5,420.19 L8.5,420.19 A2.5,2.5 0 0 1 6,417.69 L6,108.8 A2.5,2.5 0 0 1 8.5,106.3" fill="none" style="stroke:#000000;stroke-width:1.5;"/><line style="stroke:#000000;stroke-width:1.5;" x1="6" x2="236.458" y1="128.5969" y2="128.5969"/><text fill="#000000" font-family="sans-serif" font-size="14" font-weight="700" lengthAdjust="spacing" textLength="217.458" x="10" y="121.2951">consultarDetalleMatricula()</text></g><!--entity MatriculaView--><g class="entity" data-qualified-name="consultarDetalleMatricula.MatriculaView" data-source-line="8" id="ent0005"><rect fill="#629EF9" height="36.2969" rx="2.5" ry="2.5" style="stroke:#181818;stroke-width:0.5;" width="118.3623" x="171.82" y="141.3"/><text fill="#000000" font-family="sans-serif" font-size="14" lengthAdjust="spacing" textLength="98.3623" x="181.82" y="164.2951">MatriculaView</text></g><!--entity MatriculaController--><g class="entity" data-qualified-name="consultarDetalleMatricula.MatriculaController" data-source-line="9" id="ent0006"><rect fill="#B5BD68" height="36.2969" rx="2.5" ry="2.5" style="stroke:#181818;stroke-width:0.5;" width="154.0049" x="22" y="254.6"/><text fill="#000000" font-family="sans-serif" font-size="14" lengthAdjust="spacing" textLength="134.0049" x="32" y="277.5951">MatriculaController</text></g><!--entity MatriculaRepository--><g class="entity" data-qualified-name="consultarDetalleMatricula.MatriculaRepository" data-source-line="10" id="ent0007"><rect fill="#F2AC4E" height="36.2969" rx="2.5" ry="2.5" style="stroke:#181818;stroke-width:0.5;" width="159.9043" x="22.05" y="367.89"/><text fill="#000000" font-family="sans-serif" font-size="14" lengthAdjust="spacing" textLength="139.9043" x="32.05" y="390.8851">MatriculaRepository</text></g><!--entity PanelSecretaria--><g class="entity" data-qualified-name="PanelSecretaria" data-source-line="3" id="ent0001"><rect fill="#CDEBA5" height="36.2969" rx="2.5" ry="2.5" style="stroke:#181818;stroke-width:0.5;" width="164.498" x="148.75" y="7"/><text fill="#000000" font-family="sans-serif" font-size="14" lengthAdjust="spacing" textLength="144.498" x="158.75" y="29.9951">:PANEL_SECRETARIA</text></g><!--entity DetalleMatricula--><g class="entity" data-qualified-name="DetalleMatricula" data-source-line="4" id="ent0002"><rect fill="#CDEBA5" height="36.2969" rx="2.5" ry="2.5" style="stroke:#181818;stroke-width:0.5;" width="264.0225" x="321.99" y="254.6"/><text fill="#000000" font-family="sans-serif" font-size="14" lengthAdjust="spacing" textLength="244.0225" x="331.99" y="277.5951">:DETALLE_MATRICULA_MOSTRADO</text></g><!--entity CompletarGestion--><g class="entity" data-qualified-name="CompletarGestion" data-source-line="5" id="ent0003"><rect fill="#CDEBA5" height="36.2969" rx="2.5" ry="2.5" style="stroke:#181818;stroke-width:0.5;" width="249.2363" x="621.38" y="254.6"/><text fill="#000000" font-family="sans-serif" font-size="14" lengthAdjust="spacing" textLength="229.2363" x="631.38" y="277.5951">:Collaboration CompletarGestion</text></g><!--link PanelSecretaria to MatriculaView--><g class="link" data-entity-1="ent0001" data-entity-2="ent0005" data-link-type="dependency" data-source-line="13" id="lnk8"><path d="M231,43.72 C231,69.02 231,110.46 231,135.81" fill="none" id="PanelSecretaria-to-MatriculaView" style="stroke:#181818;stroke-width:1;"/><polygon fill="#181818" points="231,140.81,235,131.81,231,135.81,227,131.81,231,140.81" style="stroke:#181818;stroke-width:1;stroke-linejoin:miter;stroke-miterlimit:10;"/><text fill="#000000" font-family="sans-serif" font-size="13" lengthAdjust="spacing" textLength="177.0107" x="232" y="86.3669">consultarDetalleMatricula()</text></g><!--link MatriculaView to MatriculaController--><g class="link" data-entity-1="ent0005" data-entity-2="ent0006" data-link-type="dependency" data-source-line="15" id="lnk9"><path d="M210.08,178.08 C185.37,198.92 148.3126,230.167 123.6426,250.967" fill="none" id="MatriculaView-to-MatriculaController" style="stroke:#181818;stroke-width:1;"/><polygon fill="#181818" points="119.82,254.19,129.2791,251.4468,123.6426,250.967,124.1224,245.3306,119.82,254.19" style="stroke:#181818;stroke-width:1;stroke-linejoin:miter;stroke-miterlimit:10;"/><text fill="#000000" font-family="sans-serif" font-size="13" lengthAdjust="spacing" textLength="226.2432" x="174" y="220.6669">obtenerEstadoMatricula(alumnoId)</text></g><!--link MatriculaController to MatriculaRepository--><g class="link" data-entity-1="ent0006" data-entity-2="ent0007" data-link-type="dependency" data-source-line="16" id="lnk10"><path d="M99.47,291.13 C100.03,311.92 100.8261,341.5118 101.3861,362.4118" fill="none" id="MatriculaController-to-MatriculaRepository" style="stroke:#181818;stroke-width:1;"/><polygon fill="#181818" points="101.52,367.41,105.2775,358.3061,101.3861,362.4118,97.2804,358.5204,101.52,367.41" style="stroke:#181818;stroke-width:1;stroke-linejoin:miter;stroke-miterlimit:10;"/><text fill="#000000" font-family="sans-serif" font-size="13" lengthAdjust="spacing" textLength="231.2959" x="102" y="333.9569">buscarRegistroCompleto(alumnoId)</text></g><!--link MatriculaView to DetalleMatricula--><g class="link" data-entity-1="ent0005" data-entity-2="ent0002" data-link-type="dependency" data-source-line="18" id="lnk11"><path d="M290.27,176.15 C342.05,189.86 409,207.6 409,207.6 C409,207.6 425.5098,231.1259 438.8298,250.1259" fill="none" id="MatriculaView-to-DetalleMatricula" style="stroke:#181818;stroke-width:1;stroke-dasharray:7,7;"/><polygon fill="#181818" points="441.7,254.22,439.8089,244.5544,438.8298,250.1259,433.2583,249.1467,441.7,254.22" style="stroke:#181818;stroke-width:1;stroke-linejoin:miter;stroke-miterlimit:10;"/><text fill="#000000" font-family="sans-serif" font-size="13" lengthAdjust="spacing" textLength="109.6367" x="421" y="220.6669">&#171;include&#187; [&#233;xito]</text></g><!--link MatriculaView to CompletarGestion--><g class="link" data-entity-1="ent0005" data-entity-2="ent0003" data-link-type="dependency" data-source-line="19" id="lnk12"><path d="M290.39,169.54 C379.89,183.24 539,207.6 539,207.6 C539,207.6 623.1041,233.66 684.3841,252.65" fill="none" id="MatriculaView-to-CompletarGestion" style="stroke:#181818;stroke-width:1;stroke-dasharray:7,7;"/><polygon fill="#181818" points="689.16,254.13,681.7473,247.6452,684.3841,252.65,679.3793,255.2867,689.16,254.13" style="stroke:#181818;stroke-width:1;stroke-linejoin:miter;stroke-miterlimit:10;"/><text fill="#000000" font-family="sans-serif" font-size="13" lengthAdjust="spacing" textLength="320.7344" x="590" y="220.6669">&#171;include&#187; completarGestion() [cancelaci&#243;n/error]</text></g><?plantuml-src VPBHQi8m58RlynG7TwCNEf0fiuZGjNK8EaTrkn6Hq_GWmPYKD6MJiGVQzHx15rkLiTgkM-wIy_t_-PEJT2TKWWRt88KYUqW84YqFfmrZXhX5jPK4LvuVtBazQ3YFxaCmtIm2BmoMRZXn6u0fFA8YkI1koA8HM2lqStuw3JOpTnbElAUfkvdD5ylGzUTd2p-NIaapj4RmJDPxU5fAZBH1AxG2J-yJUUfuJ-dfuEnJFMGiGRx3BG7NAiraNgcsEiaQVrQRhGQyCSZNHQ9-Tn2C1_03FGjwgJ9HBuhxjmNZQMLDVW4oLNBSTRsRe213IdGgh3O7zivOvN6XtHwL6plmJtZ6IYoquqjvaSa17LbIP8BKOgmB1vJPNkb9t68rgdAO8hS3KPPoD25jHPgptrFH5swLN9tEwDSVS60u58hBBARH25R7ZzVSV5qZh0wzBEILQhC5AuwAaqGkZf_gcepHPlq5?></g></svg>