<svg xmlns="http://www.w3.org/2000/svg" xmlns:xlink="http://www.w3.org/1999/xlink" version="1.1" data-diagram-type="SEQUENCE" style="width:1047px;height:767px;background:#FFFFFF;" width="1047px" height="767px" viewBox="0 0 1047 767" zoomAndPan="magnify" preserveAspectRatio="none" contentStyleType="text/css"><?plantuml 1.2026.7beta3?><defs/><g><g class="title" data-source-line="1"><text x="238.2803" y="27.9951" fill="#000000" font-size="14" lengthAdjust="spacing" textLength="563.8145" font-weight="700" font-family="sans-serif">Diagrama de Secuencia - Consultar Usuario (Vue 3 + Express + Prisma)</text></g><g><title>Frontend</title><rect x="332.4312" y="152.0234" width="10" height="521.6563" fill="#FFFFFF" style="stroke:#181818;stroke-width:1;"/></g><g><title>Frontend</title><rect x="337.4312" y="445.6172" width="10" height="219.0625" fill="#FFFFFF" style="stroke:#181818;stroke-width:1;"/></g><g><title>UsuarioController</title><rect x="535.668" y="181.1563" width="10" height="206.1953" fill="#FFFFFF" style="stroke:#181818;stroke-width:1;"/></g><g><title>UsuarioController</title><rect x="535.668" y="474.75" width="10" height="160.7969" fill="#FFFFFF" style="stroke:#181818;stroke-width:1;"/></g><g><title>UsuarioService</title><rect x="696.7607" y="210.2891" width="10" height="147.9297" fill="#FFFFFF" style="stroke:#181818;stroke-width:1;"/></g><g><title>UsuarioService</title><rect x="696.7607" y="503.8828" width="10" height="102.5313" fill="#FFFFFF" style="stroke:#181818;stroke-width:1;"/></g><g><title>Base de Datos</title><rect x="977.7754" y="299.9531" width="10" height="29.1328" fill="#FFFFFF" style="stroke:#181818;stroke-width:1;"/></g><g><title>Base de Datos</title><rect x="977.7754" y="548.1484" width="10" height="29.1328" fill="#FFFFFF" style="stroke:#181818;stroke-width:1;"/></g><g class="participant-lifeline" data-qualified-name="Admin" data-entity-uid="part1" id="part1-lifeline" data-source-line="3"><g><title>Administrador</title><rect x="53.54" y="120.8906" width="8" height="561.7891" fill="#000000" fill-opacity="0.00000"/><line x1="57" y1="120.8906" x2="57" y2="682.6797" style="stroke:#181818;stroke-width:0.5;stroke-dasharray:5,5;"/></g></g><g class="participant-lifeline" data-qualified-name="Frontend" data-entity-uid="part2" id="part2-lifeline" data-source-line="4"><g><title>Frontend</title><rect x="333.4312" y="120.8906" width="8" height="561.7891" fill="#000000" fill-opacity="0.00000"/><line x1="336.8765" y1="120.8906" x2="336.8765" y2="682.6797" style="stroke:#181818;stroke-width:0.5;stroke-dasharray:5,5;"/></g></g><g class="participant-lifeline" data-qualified-name="Controller" data-entity-uid="part3" id="part3-lifeline" data-source-line="5"><g><title>UsuarioController</title><rect x="536.668" y="120.8906" width="8" height="561.7891" fill="#000000" fill-opacity="0.00000"/><line x1="540.4795" y1="120.8906" x2="540.4795" y2="682.6797" style="stroke:#181818;stroke-width:0.5;stroke-dasharray:5,5;"/></g></g><g class="participant-lifeline" data-qualified-name="Service" data-entity-uid="part4" id="part4-lifeline" data-source-line="6"><g><title>UsuarioService</title><rect x="697.7607" y="120.8906" width="8" height="561.7891" fill="#000000" fill-opacity="0.00000"/><line x1="701.2881" y1="120.8906" x2="701.2881" y2="682.6797" style="stroke:#181818;stroke-width:0.5;stroke-dasharray:5,5;"/></g></g><g class="participant-lifeline" data-qualified-name="DB" data-entity-uid="part5" id="part5-lifeline" data-source-line="7"><g><title>Base de Datos</title><rect x="978.7754" y="120.8906" width="8" height="561.7891" fill="#000000" fill-opacity="0.00000"/><line x1="982.1758" y1="120.8906" x2="982.1758" y2="682.6797" style="stroke:#181818;stroke-width:0.5;stroke-dasharray:5,5;"/></g></g><g class="participant participant-head" data-qualified-name="Admin" data-entity-uid="part1" id="part1-head" data-source-line="3"><text x="5" y="117.5889" fill="#000000" font-size="14" lengthAdjust="spacing" textLength="99.0801" font-family="sans-serif">Administrador</text><ellipse cx="57.54" cy="53.0938" rx="8" ry="8" fill="#E2E2F0" style="stroke:#181818;stroke-width:0.5;"/><path d="M57.54,61.0938 L57.54,88.0938 M44.54,69.0938 L70.54,69.0938 M57.54,88.0938 L44.54,103.0938 M57.54,88.0938 L70.54,103.0938" style="stroke:#181818;stroke-width:0.5;" fill="none"/></g><g class="participant participant-tail" data-qualified-name="Admin" data-entity-uid="part1" id="part1-tail" data-source-line="3"><text x="5" y="694.6748" fill="#000000" font-size="14" lengthAdjust="spacing" textLength="99.0801" font-family="sans-serif">Administrador</text><ellipse cx="57.54" cy="706.4766" rx="8" ry="8" fill="#E2E2F0" style="stroke:#181818;stroke-width:0.5;"/><path d="M57.54,714.4766 L57.54,741.4766 M44.54,722.4766 L70.54,722.4766 M57.54,741.4766 L44.54,756.4766 M57.54,741.4766 L70.54,756.4766" style="stroke:#181818;stroke-width:0.5;" fill="none"/></g><g class="participant participant-head" data-qualified-name="Frontend" data-entity-uid="part2" id="part2-head" data-source-line="4"><rect x="298.8765" y="73.2969" width="77.1094" height="46.5938" fill="#E2E2F0" style="stroke:#181818;stroke-width:0.5;" rx="2.5" ry="2.5"/><text x="305.8765" y="93.292" fill="#000000" font-size="14" lengthAdjust="spacing" textLength="63.1094" font-family="sans-serif">Frontend</text><text x="311.7588" y="109.5889" fill="#000000" font-size="14" lengthAdjust="spacing" textLength="51.3447" font-family="sans-serif">(Vue 3)</text></g><g class="participant participant-tail" data-qualified-name="Frontend" data-entity-uid="part2" id="part2-tail" data-source-line="4"><rect x="298.8765" y="681.6797" width="77.1094" height="46.5938" fill="#E2E2F0" style="stroke:#181818;stroke-width:0.5;" rx="2.5" ry="2.5"/><text x="305.8765" y="701.6748" fill="#000000" font-size="14" lengthAdjust="spacing" textLength="63.1094" font-family="sans-serif">Frontend</text><text x="311.7588" y="717.9717" fill="#000000" font-size="14" lengthAdjust="spacing" textLength="51.3447" font-family="sans-serif">(Vue 3)</text></g><g class="participant participant-head" data-qualified-name="Controller" data-entity-uid="part3" id="part3-head" data-source-line="5"><rect x="472.4795" y="89.5938" width="136.377" height="30.2969" fill="#E2E2F0" style="stroke:#181818;stroke-width:0.5;" rx="2.5" ry="2.5"/><text x="479.4795" y="109.5889" fill="#000000" font-size="14" lengthAdjust="spacing" textLength="122.377" font-family="sans-serif">UsuarioController</text></g><g class="participant participant-tail" data-qualified-name="Controller" data-entity-uid="part3" id="part3-tail" data-source-line="5"><rect x="472.4795" y="681.6797" width="136.377" height="30.2969" fill="#E2E2F0" style="stroke:#181818;stroke-width:0.5;" rx="2.5" ry="2.5"/><text x="479.4795" y="701.6748" fill="#000000" font-size="14" lengthAdjust="spacing" textLength="122.377" font-family="sans-serif">UsuarioController</text></g><g class="participant participant-head" data-qualified-name="Service" data-entity-uid="part4" id="part4-head" data-source-line="6"><rect x="642.2881" y="89.5938" width="118.9453" height="30.2969" fill="#E2E2F0" style="stroke:#181818;stroke-width:0.5;" rx="2.5" ry="2.5"/><text x="649.2881" y="109.5889" fill="#000000" font-size="14" lengthAdjust="spacing" textLength="104.9453" font-family="sans-serif">UsuarioService</text></g><g class="participant participant-tail" data-qualified-name="Service" data-entity-uid="part4" id="part4-tail" data-source-line="6"><rect x="642.2881" y="681.6797" width="118.9453" height="30.2969" fill="#E2E2F0" style="stroke:#181818;stroke-width:0.5;" rx="2.5" ry="2.5"/><text x="649.2881" y="701.6748" fill="#000000" font-size="14" lengthAdjust="spacing" textLength="104.9453" font-family="sans-serif">UsuarioService</text></g><g class="participant participant-head" data-qualified-name="DB" data-entity-uid="part5" id="part5-head" data-source-line="7"><text x="929.1758" y="101.292" fill="#000000" font-size="14" lengthAdjust="spacing" textLength="101.1992" font-family="sans-serif">Base de Datos</text><text x="933.937" y="117.5889" fill="#000000" font-size="14" lengthAdjust="spacing" textLength="91.6768" font-family="sans-serif">(PostgreSQL)</text><path d="M964.7754,52.2969 C964.7754,42.2969 982.7754,42.2969 982.7754,42.2969 C982.7754,42.2969 1000.7754,42.2969 1000.7754,52.2969 L1000.7754,78.2969 C1000.7754,88.2969 982.7754,88.2969 982.7754,88.2969 C982.7754,88.2969 964.7754,88.2969 964.7754,78.2969 L964.7754,52.2969" style="stroke:#181818;stroke-width:0.5;" fill="#E2E2F0"/><path d="M964.7754,52.2969 C964.7754,62.2969 982.7754,62.2969 982.7754,62.2969 C982.7754,62.2969 1000.7754,62.2969 1000.7754,52.2969" style="stroke:#181818;stroke-width:0.5;" fill="none"/></g><g class="participant participant-tail" data-qualified-name="DB" data-entity-uid="part5" id="part5-tail" data-source-line="7"><text x="929.1758" y="694.6748" fill="#000000" font-size="14" lengthAdjust="spacing" textLength="101.1992" font-family="sans-serif">Base de Datos</text><text x="933.937" y="710.9717" fill="#000000" font-size="14" lengthAdjust="spacing" textLength="91.6768" font-family="sans-serif">(PostgreSQL)</text><path d="M964.7754,724.2734 C964.7754,714.2734 982.7754,714.2734 982.7754,714.2734 C982.7754,714.2734 1000.7754,714.2734 1000.7754,724.2734 L1000.7754,750.2734 C1000.7754,760.2734 982.7754,760.2734 982.7754,760.2734 C982.7754,760.2734 964.7754,760.2734 964.7754,750.2734 L964.7754,724.2734" style="stroke:#181818;stroke-width:0.5;" fill="#E2E2F0"/><path d="M964.7754,724.2734 C964.7754,734.2734 982.7754,734.2734 982.7754,734.2734 C982.7754,734.2734 1000.7754,734.2734 1000.7754,724.2734" style="stroke:#181818;stroke-width:0.5;" fill="none"/></g><g><title>Frontend</title><rect x="332.4312" y="152.0234" width="10" height="521.6563" fill="#FFFFFF" style="stroke:#181818;stroke-width:1;"/></g><g><title>Frontend</title><rect x="337.4312" y="445.6172" width="10" height="219.0625" fill="#FFFFFF" style="stroke:#181818;stroke-width:1;"/></g><g><title>UsuarioController</title><rect x="535.668" y="181.1563" width="10" height="206.1953" fill="#FFFFFF" style="stroke:#181818;stroke-width:1;"/></g><g><title>UsuarioController</title><rect x="535.668" y="474.75" width="10" height="160.7969" fill="#FFFFFF" style="stroke:#181818;stroke-width:1;"/></g><g><title>UsuarioService</title><rect x="696.7607" y="210.2891" width="10" height="147.9297" fill="#FFFFFF" style="stroke:#181818;stroke-width:1;"/></g><g><title>UsuarioService</title><rect x="696.7607" y="503.8828" width="10" height="102.5313" fill="#FFFFFF" style="stroke:#181818;stroke-width:1;"/></g><g><title>Base de Datos</title><rect x="977.7754" y="299.9531" width="10" height="29.1328" fill="#FFFFFF" style="stroke:#181818;stroke-width:1;"/></g><g><title>Base de Datos</title><rect x="977.7754" y="548.1484" width="10" height="29.1328" fill="#FFFFFF" style="stroke:#181818;stroke-width:1;"/></g><g class="message" data-entity-1="part1" data-entity-2="part2" id="msg1" data-source-line="9"><polygon points="320.4312,148.0234,330.4312,152.0234,320.4312,156.0234,324.4312,152.0234" fill="#181818" style="stroke:#181818;stroke-width:1;stroke-linejoin:miter;stroke-miterlimit:10;"/><line x1="57.54" y1="152.0234" x2="326.4312" y2="152.0234" style="stroke:#181818;stroke-width:1;"/><text x="64.54" y="146.9575" fill="#000000" font-size="13" lengthAdjust="spacing" textLength="184.3867" font-family="sans-serif">busca usuario por email o id</text></g><g class="message" data-entity-1="part2" data-entity-2="part3" id="msg2" data-source-line="12"><polygon points="523.668,177.1563,533.668,181.1563,523.668,185.1563,527.668,181.1563" fill="#181818" style="stroke:#181818;stroke-width:1;stroke-linejoin:miter;stroke-miterlimit:10;"/><line x1="342.4312" y1="181.1563" x2="529.668" y2="181.1563" style="stroke:#181818;stroke-width:1;"/><text x="349.4312" y="176.0903" fill="#000000" font-size="13" lengthAdjust="spacing" textLength="174.2368" font-family="sans-serif">GET /api/usuarios?filtro=...</text></g><g class="message" data-entity-1="part3" data-entity-2="part4" id="msg3" data-source-line="15"><polygon points="684.7607,206.2891,694.7607,210.2891,684.7607,214.2891,688.7607,210.2891" fill="#181818" style="stroke:#181818;stroke-width:1;stroke-linejoin:miter;stroke-miterlimit:10;"/><line x1="545.668" y1="210.2891" x2="690.7607" y2="210.2891" style="stroke:#181818;stroke-width:1;"/><text x="552.668" y="205.2231" fill="#000000" font-size="13" lengthAdjust="spacing" textLength="117.8633" font-family="sans-serif">getUsuarios(filtro)</text></g><g class="message" data-entity-1="part4" data-entity-2="part5" id="msg4" data-source-line="18"><polygon points="965.7754,295.9531,975.7754,299.9531,965.7754,303.9531,969.7754,299.9531" fill="#181818" style="stroke:#181818;stroke-width:1;stroke-linejoin:miter;stroke-miterlimit:10;"/><line x1="706.7607" y1="299.9531" x2="971.7754" y2="299.9531" style="stroke:#181818;stroke-width:1;"/><text x="713.7607" y="234.356" fill="#000000" font-size="13" lengthAdjust="spacing" textLength="155.397" font-family="sans-serif">SELECT * FROM Alumno</text><text x="713.7607" y="249.4888" fill="#000000" font-size="13" lengthAdjust="spacing" textLength="100.9468" font-family="sans-serif">UNION Profesor</text><text x="713.7607" y="264.6216" fill="#000000" font-size="13" lengthAdjust="spacing" textLength="157.2695" font-family="sans-serif">UNION DirectorDeGrado</text><text x="713.7607" y="279.7544" fill="#000000" font-size="13" lengthAdjust="spacing" textLength="185.5356" font-family="sans-serif">UNION SecretariaAcademica</text><text x="713.7607" y="294.8872" fill="#000000" font-size="13" lengthAdjust="spacing" textLength="252.0146" font-family="sans-serif">WHERE nombre LIKE ? OR email LIKE ?</text></g><g class="message" data-entity-1="part5" data-entity-2="part4" id="msg5" data-source-line="20"><polygon points="717.7607,325.0859,707.7607,329.0859,717.7607,333.0859,713.7607,329.0859" fill="#181818" style="stroke:#181818;stroke-width:1;stroke-linejoin:miter;stroke-miterlimit:10;"/><line x1="711.7607" y1="329.0859" x2="981.7754" y2="329.0859" style="stroke:#181818;stroke-width:1;stroke-dasharray:2,2;"/><text x="723.7607" y="324.02" fill="#000000" font-size="13" lengthAdjust="spacing" textLength="127.0928" font-family="sans-serif">usuarios : Usuario[]</text></g><g class="message" data-entity-1="part4" data-entity-2="part3" id="msg6" data-source-line="23"><polygon points="556.668,354.2188,546.668,358.2188,556.668,362.2188,552.668,358.2188" fill="#181818" style="stroke:#181818;stroke-width:1;stroke-linejoin:miter;stroke-miterlimit:10;"/><line x1="550.668" y1="358.2188" x2="700.7607" y2="358.2188" style="stroke:#181818;stroke-width:1;stroke-dasharray:2,2;"/><text x="562.668" y="353.1528" fill="#000000" font-size="13" lengthAdjust="spacing" textLength="127.0928" font-family="sans-serif">usuarios : Usuario[]</text></g><g class="message" data-entity-1="part3" data-entity-2="part2" id="msg7" data-source-line="26"><polygon points="353.4312,383.3516,343.4312,387.3516,353.4312,391.3516,349.4312,387.3516" fill="#181818" style="stroke:#181818;stroke-width:1;stroke-linejoin:miter;stroke-miterlimit:10;"/><line x1="347.4312" y1="387.3516" x2="539.668" y2="387.3516" style="stroke:#181818;stroke-width:1;stroke-dasharray:2,2;"/><text x="359.4312" y="382.2856" fill="#000000" font-size="13" lengthAdjust="spacing" textLength="131.5425" font-family="sans-serif">200 OK { usuarios }</text></g><g class="message" data-entity-1="part2" data-entity-2="part1" id="msg8" data-source-line="29"><polygon points="68.54,412.4844,58.54,416.4844,68.54,420.4844,64.54,416.4844" fill="#181818" style="stroke:#181818;stroke-width:1;stroke-linejoin:miter;stroke-miterlimit:10;"/><line x1="62.54" y1="416.4844" x2="331.4312" y2="416.4844" style="stroke:#181818;stroke-width:1;stroke-dasharray:2,2;"/><text x="74.54" y="411.4185" fill="#000000" font-size="13" lengthAdjust="spacing" textLength="250.8911" font-family="sans-serif">muestra lista de usuarios coincidentes</text></g><g class="message" data-entity-1="part1" data-entity-2="part2" id="msg9" data-source-line="31"><polygon points="325.4312,441.6172,335.4312,445.6172,325.4312,449.6172,329.4312,445.6172" fill="#181818" style="stroke:#181818;stroke-width:1;stroke-linejoin:miter;stroke-miterlimit:10;"/><line x1="57.54" y1="445.6172" x2="331.4312" y2="445.6172" style="stroke:#181818;stroke-width:1;"/><text x="64.54" y="440.5513" fill="#000000" font-size="13" lengthAdjust="spacing" textLength="141.3179" font-family="sans-serif">selecciona un usuario</text></g><g class="message" data-entity-1="part2" data-entity-2="part3" id="msg10" data-source-line="34"><polygon points="523.668,470.75,533.668,474.75,523.668,478.75,527.668,474.75" fill="#181818" style="stroke:#181818;stroke-width:1;stroke-linejoin:miter;stroke-miterlimit:10;"/><line x1="347.4312" y1="474.75" x2="529.668" y2="474.75" style="stroke:#181818;stroke-width:1;"/><text x="354.4312" y="469.6841" fill="#000000" font-size="13" lengthAdjust="spacing" textLength="134.4751" font-family="sans-serif">GET /api/usuarios/:id</text></g><g class="message" data-entity-1="part3" data-entity-2="part4" id="msg11" data-source-line="37"><polygon points="684.7607,499.8828,694.7607,503.8828,684.7607,507.8828,688.7607,503.8828" fill="#181818" style="stroke:#181818;stroke-width:1;stroke-linejoin:miter;stroke-miterlimit:10;"/><line x1="545.668" y1="503.8828" x2="690.7607" y2="503.8828" style="stroke:#181818;stroke-width:1;"/><text x="552.668" y="498.8169" fill="#000000" font-size="13" lengthAdjust="spacing" textLength="92.7583" font-family="sans-serif">getUsuario(id)</text></g><g class="message" data-entity-1="part4" data-entity-2="part5" id="msg12" data-source-line="40"><polygon points="965.7754,544.1484,975.7754,548.1484,965.7754,552.1484,969.7754,548.1484" fill="#181818" style="stroke:#181818;stroke-width:1;stroke-linejoin:miter;stroke-miterlimit:10;"/><line x1="706.7607" y1="548.1484" x2="971.7754" y2="548.1484" style="stroke:#181818;stroke-width:1;"/><text x="713.7607" y="527.9497" fill="#000000" font-size="13" lengthAdjust="spacing" textLength="172.2437" font-family="sans-serif">SELECT * FROM [tabla_rol]</text><text x="713.7607" y="543.0825" fill="#000000" font-size="13" lengthAdjust="spacing" textLength="90.1431" font-family="sans-serif">WHERE id = ?</text></g><g class="message" data-entity-1="part5" data-entity-2="part4" id="msg13" data-source-line="42"><polygon points="717.7607,573.2813,707.7607,577.2813,717.7607,581.2813,713.7607,577.2813" fill="#181818" style="stroke:#181818;stroke-width:1;stroke-linejoin:miter;stroke-miterlimit:10;"/><line x1="711.7607" y1="577.2813" x2="981.7754" y2="577.2813" style="stroke:#181818;stroke-width:1;stroke-dasharray:2,2;"/><text x="723.7607" y="572.2153" fill="#000000" font-size="13" lengthAdjust="spacing" textLength="110.1763" font-family="sans-serif">usuario : Usuario</text></g><g class="message" data-entity-1="part4" data-entity-2="part3" id="msg14" data-source-line="45"><polygon points="556.668,602.4141,546.668,606.4141,556.668,610.4141,552.668,606.4141" fill="#181818" style="stroke:#181818;stroke-width:1;stroke-linejoin:miter;stroke-miterlimit:10;"/><line x1="550.668" y1="606.4141" x2="700.7607" y2="606.4141" style="stroke:#181818;stroke-width:1;stroke-dasharray:2,2;"/><text x="562.668" y="601.3481" fill="#000000" font-size="13" lengthAdjust="spacing" textLength="110.1763" font-family="sans-serif">usuario : Usuario</text></g><g class="message" data-entity-1="part3" data-entity-2="part2" id="msg15" data-source-line="48"><polygon points="358.4312,631.5469,348.4312,635.5469,358.4312,639.5469,354.4312,635.5469" fill="#181818" style="stroke:#181818;stroke-width:1;stroke-linejoin:miter;stroke-miterlimit:10;"/><line x1="352.4312" y1="635.5469" x2="539.668" y2="635.5469" style="stroke:#181818;stroke-width:1;stroke-dasharray:2,2;"/><text x="364.4312" y="630.481" fill="#000000" font-size="13" lengthAdjust="spacing" textLength="124.7695" font-family="sans-serif">200 OK { usuario }</text></g><g class="message" data-entity-1="part2" data-entity-2="part1" id="msg16" data-source-line="51"><polygon points="68.54,660.6797,58.54,664.6797,68.54,668.6797,64.54,664.6797" fill="#181818" style="stroke:#181818;stroke-width:1;stroke-linejoin:miter;stroke-miterlimit:10;"/><line x1="62.54" y1="664.6797" x2="331.4312" y2="664.6797" style="stroke:#181818;stroke-width:1;stroke-dasharray:2,2;"/><text x="74.54" y="659.6138" fill="#000000" font-size="13" lengthAdjust="spacing" textLength="179.0039" font-family="sans-serif">muestra detalle del usuario</text></g><?plantuml-src fLF1RXen4BtlLumuGIiWQcz8QKIocpGA3IaaxI54rM1Fq4XU6zdUg5ALV-_0xh9BXTIINi0synxpvhs970r1ohZoc2DeWZcfWgnYX3vSE1iA4z73GoZGiuFkjuBW8xo7xEVQKmXoklCSSkmb2QheF7J6EcVB8NhKpdS00snVaZNwo8hNQ2DqBhspaQnUs9AnjosiN_Thg_-MPg9tnb19sbmFLi_9lx2YRMbrJZH6N68Ww9nlFaLiYj45wU7EXRZoDFywAHj9pvDaspNqF-swWX4iYw0GYceOQv5BER811wmt-la58pKoaXrKQ9g6XUWgkuSXhdbOSOMpPpRoy-bWC6Y8MXgJ5bp8Aad2jA9OIGxTagFN4DJAaxfUeEcveERP9BkuXtTmEPj-WR4fSkiMzk7sUdehXhfd2ixNzvGzRQnDwMhZQVqiGV4asM0SAzIKiyA5_VuvcsLWNRxq19FhcmpEO3ghfbJUc-vaoj9CVqzEFGyvLh8Udn9DRKmZvi-f_Wsy6qTxcFiEVpWvWUaD_6guNjiCRKSQSuMYJCi8ye8sqGSZ6x3TfnsFSYnhfKamuN2w0XbIYfsLYDaQ-7-n6exQmJmkJrtMnqVfKLRCu0zXVghJm1fE_z7snhXZFJ-CV8FXR_HRoof8cNoRdNCjdXhx6m00?></g></svg>