<svg xmlns="http://www.w3.org/2000/svg" xmlns:xlink="http://www.w3.org/1999/xlink" version="1.1" data-diagram-type="SEQUENCE" style="width:1052px;height:775px;background:#FFFFFF;" width="1052px" height="775px" viewBox="0 0 1052 775" zoomAndPan="magnify" preserveAspectRatio="none" contentStyleType="text/css"><?plantuml 1.2026.7beta8?><defs/><g font-family="sans-serif" lengthAdjust="spacing"><g class="title" data-source-line="1"><text x="243.28" y="27.995" fill="#000" font-size="14" textLength="563.814" font-weight="700">Diagrama de Secuencia - Consultar Usuario (Vue 3 + Express + Prisma)</text></g><g><title>Administrador</title><rect x="59.04" y="125.891" width="8" height="559.789" fill="#000" fill-opacity="0"/><line x1="62.54" y1="125.891" x2="62.54" y2="685.68" style="stroke:#181818;stroke-width:0.5;stroke-dasharray:5,5;"/></g><g><title>Frontend</title><rect x="338.931" y="125.891" width="8" height="559.789" fill="#000" fill-opacity="0"/><line x1="342.431" y1="125.891" x2="342.431" y2="685.68" style="stroke:#181818;stroke-width:0.5;stroke-dasharray:5,5;"/></g><g><title></title><rect x="337.431" y="155.023" width="10" height="530.656" fill="#FFF" style="stroke:#181818;stroke-width:1;"/></g><g><title></title><rect x="342.431" y="448.617" width="10" height="219.063" fill="#FFF" style="stroke:#181818;stroke-width:1;"/></g><g><title>UsuarioController</title><rect x="542.168" y="125.891" width="8" height="559.789" fill="#000" fill-opacity="0"/><line x1="545.668" y1="125.891" x2="545.668" y2="685.68" style="stroke:#181818;stroke-width:0.5;stroke-dasharray:5,5;"/></g><g><title></title><rect x="540.668" y="184.156" width="10" height="206.195" fill="#FFF" style="stroke:#181818;stroke-width:1;"/></g><g><title></title><rect x="540.668" y="477.75" width="10" height="160.797" fill="#FFF" style="stroke:#181818;stroke-width:1;"/></g><g><title>UsuarioService</title><rect x="703.261" y="125.891" width="8" height="559.789" fill="#000" fill-opacity="0"/><line x1="706.761" y1="125.891" x2="706.761" y2="685.68" style="stroke:#181818;stroke-width:0.5;stroke-dasharray:5,5;"/></g><g><title></title><rect x="701.761" y="213.289" width="10" height="147.93" fill="#FFF" style="stroke:#181818;stroke-width:1;"/></g><g><title></title><rect x="701.761" y="506.883" width="10" height="102.531" fill="#FFF" style="stroke:#181818;stroke-width:1;"/></g><g><title>Base de Datos</title><rect x="984.275" y="125.891" width="8" height="559.789" fill="#000" fill-opacity="0"/><line x1="987.775" y1="125.891" x2="987.775" y2="685.68" style="stroke:#181818;stroke-width:0.5;stroke-dasharray:5,5;"/></g><g><title></title><rect x="982.775" y="302.953" width="10" height="29.133" fill="#FFF" style="stroke:#181818;stroke-width:1;"/></g><g><title></title><rect x="982.775" y="551.148" width="10" height="29.133" fill="#FFF" style="stroke:#181818;stroke-width:1;"/></g><text x="10" y="122.589" fill="#000" font-size="14" textLength="99.08">Administrador</text><ellipse cx="62.54" cy="58.094" rx="8" ry="8" fill="#E2E2F0" style="stroke:#181818;stroke-width:0.5;"/><path d="M62.54,66.094 L62.54,93.094 M49.54,74.094 L75.54,74.094 M62.54,93.094 L49.54,108.094 M62.54,93.094 L75.54,108.094" style="stroke:#181818;stroke-width:0.5;" fill="none"/><rect x="303.876" y="78.297" width="77.109" height="46.594" fill="#E2E2F0" style="stroke:#181818;stroke-width:0.5;" rx="2.5" ry="2.5"/><text x="310.876" y="98.292" fill="#000" font-size="14" textLength="63.109">Frontend</text><text x="316.759" y="114.589" fill="#000" font-size="14" textLength="51.345">(Vue 3)</text><rect x="477.479" y="94.594" width="136.377" height="30.297" fill="#E2E2F0" style="stroke:#181818;stroke-width:0.5;" rx="2.5" ry="2.5"/><text x="484.479" y="114.589" fill="#000" font-size="14" textLength="122.377">UsuarioController</text><rect x="647.288" y="94.594" width="118.945" height="30.297" fill="#E2E2F0" style="stroke:#181818;stroke-width:0.5;" rx="2.5" ry="2.5"/><text x="654.288" y="114.589" fill="#000" font-size="14" textLength="104.945">UsuarioService</text><text x="934.176" y="106.292" fill="#000" font-size="14" textLength="101.199">Base de Datos</text><text x="938.937" y="122.589" fill="#000" font-size="14" textLength="91.677">(PostgreSQL)</text><path d="M969.775,57.297 C969.775,47.297 987.775,47.297 987.775,47.297 C987.775,47.297 1005.775,47.297 1005.775,57.297 L1005.775,83.297 C1005.775,93.297 987.775,93.297 987.775,93.297 C987.775,93.297 969.775,93.297 969.775,83.297 L969.775,57.297" style="stroke:#181818;stroke-width:0.5;" fill="#E2E2F0"/><path d="M969.775,57.297 C969.775,67.297 987.775,67.297 987.775,67.297 C987.775,67.297 1005.775,67.297 1005.775,57.297" style="stroke:#181818;stroke-width:0.5;" fill="none"/><text x="10" y="698.675" fill="#000" font-size="14" textLength="99.08">Administrador</text><ellipse cx="62.54" cy="710.477" rx="8" ry="8" fill="#E2E2F0" style="stroke:#181818;stroke-width:0.5;"/><path d="M62.54,718.477 L62.54,745.477 M49.54,726.477 L75.54,726.477 M62.54,745.477 L49.54,760.477 M62.54,745.477 L75.54,760.477" style="stroke:#181818;stroke-width:0.5;" fill="none"/><rect x="303.876" y="685.68" width="77.109" height="46.594" fill="#E2E2F0" style="stroke:#181818;stroke-width:0.5;" rx="2.5" ry="2.5"/><text x="310.876" y="705.675" fill="#000" font-size="14" textLength="63.109">Frontend</text><text x="316.759" y="721.972" fill="#000" font-size="14" textLength="51.345">(Vue 3)</text><rect x="477.479" y="685.68" width="136.377" height="30.297" fill="#E2E2F0" style="stroke:#181818;stroke-width:0.5;" rx="2.5" ry="2.5"/><text x="484.479" y="705.675" fill="#000" font-size="14" textLength="122.377">UsuarioController</text><rect x="647.288" y="685.68" width="118.945" height="30.297" fill="#E2E2F0" style="stroke:#181818;stroke-width:0.5;" rx="2.5" ry="2.5"/><text x="654.288" y="705.675" fill="#000" font-size="14" textLength="104.945">UsuarioService</text><text x="934.176" y="698.675" fill="#000" font-size="14" textLength="101.199">Base de Datos</text><text x="938.937" y="714.972" fill="#000" font-size="14" textLength="91.677">(PostgreSQL)</text><path d="M969.775,728.273 C969.775,718.273 987.775,718.273 987.775,718.273 C987.775,718.273 1005.775,718.273 1005.775,728.273 L1005.775,754.273 C1005.775,764.273 987.775,764.273 987.775,764.273 C987.775,764.273 969.775,764.273 969.775,754.273 L969.775,728.273" style="stroke:#181818;stroke-width:0.5;" fill="#E2E2F0"/><path d="M969.775,728.273 C969.775,738.273 987.775,738.273 987.775,738.273 C987.775,738.273 1005.775,738.273 1005.775,728.273" style="stroke:#181818;stroke-width:0.5;" fill="none"/><polygon points="325.431,151.023,335.431,155.023,325.431,159.023,329.431,155.023" fill="#181818" style="stroke:#181818;stroke-width:1;stroke-linejoin:miter;stroke-miterlimit:10;"/><line x1="62.54" y1="155.023" x2="331.431" y2="155.023" style="stroke:#181818;stroke-width:1;"/><text x="69.54" y="149.958" fill="#000" font-size="13" textLength="184.387">busca usuario por email o id</text><polygon points="528.668,180.156,538.668,184.156,528.668,188.156,532.668,184.156" fill="#181818" style="stroke:#181818;stroke-width:1;stroke-linejoin:miter;stroke-miterlimit:10;"/><line x1="347.431" y1="184.156" x2="534.668" y2="184.156" style="stroke:#181818;stroke-width:1;"/><text x="354.431" y="179.09" fill="#000" font-size="13" textLength="174.237">GET /api/usuarios?filtro=...</text><polygon points="689.761,209.289,699.761,213.289,689.761,217.289,693.761,213.289" fill="#181818" style="stroke:#181818;stroke-width:1;stroke-linejoin:miter;stroke-miterlimit:10;"/><line x1="550.668" y1="213.289" x2="695.761" y2="213.289" style="stroke:#181818;stroke-width:1;"/><text x="557.668" y="208.223" fill="#000" font-size="13" textLength="117.863">getUsuarios(filtro)</text><polygon points="970.775,298.953,980.775,302.953,970.775,306.953,974.775,302.953" fill="#181818" style="stroke:#181818;stroke-width:1;stroke-linejoin:miter;stroke-miterlimit:10;"/><line x1="711.761" y1="302.953" x2="976.775" y2="302.953" style="stroke:#181818;stroke-width:1;"/><text x="718.761" y="237.356" fill="#000" font-size="13" textLength="155.397">SELECT * FROM Alumno</text><text x="718.761" y="252.489" fill="#000" font-size="13" textLength="100.947">UNION Profesor</text><text x="718.761" y="267.622" fill="#000" font-size="13" textLength="157.27">UNION DirectorDeGrado</text><text x="718.761" y="282.754" fill="#000" font-size="13" textLength="185.536">UNION SecretariaAcademica</text><text x="718.761" y="297.887" fill="#000" font-size="13" textLength="252.015">WHERE nombre LIKE ? OR email LIKE ?</text><polygon points="722.761,328.086,712.761,332.086,722.761,336.086,718.761,332.086" fill="#181818" style="stroke:#181818;stroke-width:1;stroke-linejoin:miter;stroke-miterlimit:10;"/><line x1="716.761" y1="332.086" x2="981.775" y2="332.086" style="stroke:#181818;stroke-width:1;stroke-dasharray:2,2;"/><text x="728.761" y="327.02" fill="#000" font-size="13" textLength="127.093">usuarios : Usuario[]</text><polygon points="561.668,357.219,551.668,361.219,561.668,365.219,557.668,361.219" fill="#181818" style="stroke:#181818;stroke-width:1;stroke-linejoin:miter;stroke-miterlimit:10;"/><line x1="555.668" y1="361.219" x2="700.761" y2="361.219" style="stroke:#181818;stroke-width:1;stroke-dasharray:2,2;"/><text x="567.668" y="356.153" fill="#000" font-size="13" textLength="127.093">usuarios : Usuario[]</text><polygon points="358.431,386.352,348.431,390.352,358.431,394.352,354.431,390.352" fill="#181818" style="stroke:#181818;stroke-width:1;stroke-linejoin:miter;stroke-miterlimit:10;"/><line x1="352.431" y1="390.352" x2="539.668" y2="390.352" style="stroke:#181818;stroke-width:1;stroke-dasharray:2,2;"/><text x="364.431" y="385.286" fill="#000" font-size="13" textLength="131.542">200 OK { usuarios }</text><polygon points="73.54,415.484,63.54,419.484,73.54,423.484,69.54,419.484" fill="#181818" style="stroke:#181818;stroke-width:1;stroke-linejoin:miter;stroke-miterlimit:10;"/><line x1="67.54" y1="419.484" x2="336.431" y2="419.484" style="stroke:#181818;stroke-width:1;stroke-dasharray:2,2;"/><text x="79.54" y="414.418" fill="#000" font-size="13" textLength="250.891">muestra lista de usuarios coincidentes</text><polygon points="330.431,444.617,340.431,448.617,330.431,452.617,334.431,448.617" fill="#181818" style="stroke:#181818;stroke-width:1;stroke-linejoin:miter;stroke-miterlimit:10;"/><line x1="62.54" y1="448.617" x2="336.431" y2="448.617" style="stroke:#181818;stroke-width:1;"/><text x="69.54" y="443.551" fill="#000" font-size="13" textLength="141.318">selecciona un usuario</text><polygon points="528.668,473.75,538.668,477.75,528.668,481.75,532.668,477.75" fill="#181818" style="stroke:#181818;stroke-width:1;stroke-linejoin:miter;stroke-miterlimit:10;"/><line x1="352.431" y1="477.75" x2="534.668" y2="477.75" style="stroke:#181818;stroke-width:1;"/><text x="359.431" y="472.684" fill="#000" font-size="13" textLength="134.475">GET /api/usuarios/:id</text><polygon points="689.761,502.883,699.761,506.883,689.761,510.883,693.761,506.883" fill="#181818" style="stroke:#181818;stroke-width:1;stroke-linejoin:miter;stroke-miterlimit:10;"/><line x1="550.668" y1="506.883" x2="695.761" y2="506.883" style="stroke:#181818;stroke-width:1;"/><text x="557.668" y="501.817" fill="#000" font-size="13" textLength="92.758">getUsuario(id)</text><polygon points="970.775,547.148,980.775,551.148,970.775,555.148,974.775,551.148" fill="#181818" style="stroke:#181818;stroke-width:1;stroke-linejoin:miter;stroke-miterlimit:10;"/><line x1="711.761" y1="551.148" x2="976.775" y2="551.148" style="stroke:#181818;stroke-width:1;"/><text x="718.761" y="530.95" fill="#000" font-size="13" textLength="172.244">SELECT * FROM [tabla_rol]</text><text x="718.761" y="546.083" fill="#000" font-size="13" textLength="90.143">WHERE id = ?</text><polygon points="722.761,576.281,712.761,580.281,722.761,584.281,718.761,580.281" fill="#181818" style="stroke:#181818;stroke-width:1;stroke-linejoin:miter;stroke-miterlimit:10;"/><line x1="716.761" y1="580.281" x2="981.775" y2="580.281" style="stroke:#181818;stroke-width:1;stroke-dasharray:2,2;"/><text x="728.761" y="575.215" fill="#000" font-size="13" textLength="110.176">usuario : Usuario</text><polygon points="561.668,605.414,551.668,609.414,561.668,613.414,557.668,609.414" fill="#181818" style="stroke:#181818;stroke-width:1;stroke-linejoin:miter;stroke-miterlimit:10;"/><line x1="555.668" y1="609.414" x2="700.761" y2="609.414" style="stroke:#181818;stroke-width:1;stroke-dasharray:2,2;"/><text x="567.668" y="604.348" fill="#000" font-size="13" textLength="110.176">usuario : Usuario</text><polygon points="363.431,634.547,353.431,638.547,363.431,642.547,359.431,638.547" fill="#181818" style="stroke:#181818;stroke-width:1;stroke-linejoin:miter;stroke-miterlimit:10;"/><line x1="357.431" y1="638.547" x2="539.668" y2="638.547" style="stroke:#181818;stroke-width:1;stroke-dasharray:2,2;"/><text x="369.431" y="633.481" fill="#000" font-size="13" textLength="124.77">200 OK { usuario }</text><polygon points="73.54,663.68,63.54,667.68,73.54,671.68,69.54,667.68" fill="#181818" style="stroke:#181818;stroke-width:1;stroke-linejoin:miter;stroke-miterlimit:10;"/><line x1="67.54" y1="667.68" x2="341.431" y2="667.68" style="stroke:#181818;stroke-width:1;stroke-dasharray:2,2;"/><text x="79.54" y="662.614" fill="#000" font-size="13" textLength="179.004">muestra detalle del usuario</text><?plantuml-src fLF1RXen4BtlLumuGIiWQcz8QKIocpGA3IaaxI54rM1Fq4XU6zdUg5ALV-_0xh9BXTIINi0synxpvhs970r1ohZoc2DeWZcfWgnYX3vSE1iA4z73GoZGiuFkjuBW8xo7xEVQKmXoklCSSkmb2QheF7J6EcVB8NhKpdS00snVaZNwo8hNQ2DqBhspaQnUs9AnjosiN_Thg_-MPg9tnb19sbmFLi_9lx2YRMbrJZH6N68Ww9nlFaLiYj45wU7EXRZoDFywAHj9pvDaspNqF-swWX4iYw0GYceOQv5BER811wmt-la58pKoaXrKQ9g6XUWgkuSXhdbOSOMpPpRoy-bWC6Y8MXgJ5bp8Aad2jA9OIGxTagFN4DJAaxfUeEcveERP9BkuXtTmEPj-WR4fSkiMzk7sUdehXhfd2ixNzvGzRQnDwMhZQVqiGV4asM0SAzIKiyA5_VuvcsLWNRxq19FhcmpEO3ghfbJUc-vaoj9CVqzEFGyvLh8Udn9DRKmZvi-f_Wsy6qTxcFiEVpWvWUaD_6guNjiCRKSQSuMYJCi8ye8sqGSZ6x3TfnsFSYnhfKamuN2w0XbIYfsLYDaQ-7-n6exQmJmkJrtMnqVfKLRCu0zXVghJm1fE_z7snhXZFJ-CV8FXR_HRoof8cNoRdNCjdXhx6m00?></g></svg>