<svg xmlns="http://www.w3.org/2000/svg" xmlns:xlink="http://www.w3.org/1999/xlink" contentStyleType="text/css" data-diagram-type="DESCRIPTION" height="435px" preserveAspectRatio="none" style="width:809px;height:435px;background:#FFFFFF;" version="1.1" viewBox="0 0 809 435" width="809px" zoomAndPan="magnify"><?plantuml 1.2026.5?><defs/><g><!--cluster consultarUsuario--><g class="cluster" data-qualified-name="consultarUsuario" data-source-line="7" id="ent0004"><path d="M8.5,106.3 L156.7598,106.3 A3.75,3.75 0 0 1 159.2598,108.8 L166.2598,128.5969 L227.5,128.5969 A2.5,2.5 0 0 1 230,131.0969 L230,417.69 A2.5,2.5 0 0 1 227.5,420.19 L8.5,420.19 A2.5,2.5 0 0 1 6,417.69 L6,108.8 A2.5,2.5 0 0 1 8.5,106.3" fill="none" style="stroke:#000000;stroke-width:1.5;"/><line style="stroke:#000000;stroke-width:1.5;" x1="6" x2="166.2598" y1="128.5969" y2="128.5969"/><text fill="#000000" font-family="sans-serif" font-size="14" font-weight="700" lengthAdjust="spacing" textLength="147.2598" x="10" y="121.2951">consultarUsuario()</text></g><!--entity ConsultarUsuarioView--><g class="entity" data-qualified-name="consultarUsuario.ConsultarUsuarioView" data-source-line="8" id="ent0005"><rect fill="#629EF9" height="36.2969" rx="2.5" ry="2.5" style="stroke:#181818;stroke-width:0.5;" width="173.8291" x="40.09" y="141.3"/><text fill="#000000" font-family="sans-serif" font-size="14" lengthAdjust="spacing" textLength="153.8291" x="50.09" y="164.2951">ConsultarUsuarioView</text></g><!--entity UsuarioController--><g class="entity" data-qualified-name="consultarUsuario.UsuarioController" data-source-line="9" id="ent0006"><rect fill="#B5BD68" height="36.2969" rx="2.5" ry="2.5" style="stroke:#181818;stroke-width:0.5;" width="142.377" x="21.81" y="254.6"/><text fill="#000000" font-family="sans-serif" font-size="14" lengthAdjust="spacing" textLength="122.377" x="31.81" y="277.5951">UsuarioController</text></g><!--entity UsuarioRepository--><g class="entity" data-qualified-name="consultarUsuario.UsuarioRepository" data-source-line="10" id="ent0007"><rect fill="#F2AC4E" height="36.2969" rx="2.5" ry="2.5" style="stroke:#181818;stroke-width:0.5;" width="148.2764" x="21.86" y="367.89"/><text fill="#000000" font-family="sans-serif" font-size="14" lengthAdjust="spacing" textLength="128.2764" x="31.86" y="390.8851">UsuarioRepository</text></g><!--entity PanelAdmin--><g class="entity" data-qualified-name="PanelAdmin" data-source-line="3" id="ent0001"><rect fill="#CDEBA5" height="36.2969" rx="2.5" ry="2.5" style="stroke:#181818;stroke-width:0.5;" width="200.1611" x="26.92" y="7"/><text fill="#000000" font-family="sans-serif" font-size="14" lengthAdjust="spacing" textLength="180.1611" x="36.92" y="29.9951">:PANEL_ADMINISTRACION</text></g><!--entity DetalleMostrado--><g class="entity" data-qualified-name="DetalleMostrado" data-source-line="4" id="ent0002"><rect fill="#CDEBA5" height="36.2969" rx="2.5" ry="2.5" style="stroke:#181818;stroke-width:0.5;" width="246.3926" x="245.8" y="254.6"/><text fill="#000000" font-family="sans-serif" font-size="14" lengthAdjust="spacing" textLength="226.3926" x="255.8" y="277.5951">:DETALLE_USUARIO_MOSTRADO</text></g><!--entity CompletarGestion--><g class="entity" data-qualified-name="CompletarGestion" data-source-line="5" id="ent0003"><rect fill="#CDEBA5" height="36.2969" rx="2.5" ry="2.5" style="stroke:#181818;stroke-width:0.5;" width="249.2363" x="527.38" y="254.6"/><text fill="#000000" font-family="sans-serif" font-size="14" lengthAdjust="spacing" textLength="229.2363" x="537.38" y="277.5951">:Collaboration CompletarGestion</text></g><!--link PanelAdmin to ConsultarUsuarioView--><g class="link" data-entity-1="ent0001" data-entity-2="ent0005" data-link-type="dependency" data-source-line="13" id="lnk8"><path d="M127,43.72 C127,69.02 127,110.46 127,135.81" fill="none" id="PanelAdmin-to-ConsultarUsuarioView" style="stroke:#181818;stroke-width:1;"/><polygon fill="#181818" points="127,140.81,131,131.81,127,135.81,123,131.81,127,140.81" style="stroke:#181818;stroke-width:1;stroke-linejoin:miter;stroke-miterlimit:10;"/><text fill="#000000" font-family="sans-serif" font-size="13" lengthAdjust="spacing" textLength="119.9199" x="128" y="86.3669">consultarUsuario()</text></g><!--link ConsultarUsuarioView to UsuarioController--><g class="link" data-entity-1="ent0005" data-entity-2="ent0006" data-link-type="dependency" data-source-line="15" id="lnk9"><path d="M121.69,177.84 C115.34,198.62 106.2298,228.4279 99.8498,249.3279" fill="none" id="ConsultarUsuarioView-to-UsuarioController" style="stroke:#181818;stroke-width:1;"/><polygon fill="#181818" points="98.39,254.11,104.8434,246.67,99.8498,249.3279,97.1919,244.3343,98.39,254.11" style="stroke:#181818;stroke-width:1;stroke-linejoin:miter;stroke-miterlimit:10;"/><text fill="#000000" font-family="sans-serif" font-size="13" lengthAdjust="spacing" textLength="149.3794" x="114" y="220.6669">buscarUsuario(criterio)</text></g><!--link UsuarioController to UsuarioRepository--><g class="link" data-entity-1="ent0006" data-entity-2="ent0007" data-link-type="dependency" data-source-line="16" id="lnk10"><path d="M93.47,291.13 C94.03,311.92 94.8261,341.5118 95.3861,362.4118" fill="none" id="UsuarioController-to-UsuarioRepository" style="stroke:#181818;stroke-width:1;"/><polygon fill="#181818" points="95.52,367.41,99.2775,358.3061,95.3861,362.4118,91.2804,358.5204,95.52,367.41" style="stroke:#181818;stroke-width:1;stroke-linejoin:miter;stroke-miterlimit:10;"/><text fill="#000000" font-family="sans-serif" font-size="13" lengthAdjust="spacing" textLength="155.5176" x="96" y="333.9569">obtenerUsuarioPorId(id)</text></g><!--link ConsultarUsuarioView to DetalleMostrado--><g class="link" data-entity-1="ent0005" data-entity-2="ent0002" data-link-type="dependency" data-source-line="18" id="lnk11"><path d="M180.99,178 C222.22,191.41 272,207.6 272,207.6 C272,207.6 309.5999,232.4613 338.3199,251.4613" fill="none" id="ConsultarUsuarioView-to-DetalleMostrado" style="stroke:#181818;stroke-width:1;stroke-dasharray:7,7;"/><polygon fill="#181818" points="342.49,254.22,337.1909,245.9182,338.3199,251.4613,332.7769,252.5903,342.49,254.22" style="stroke:#181818;stroke-width:1;stroke-linejoin:miter;stroke-miterlimit:10;"/><text fill="#000000" font-family="sans-serif" font-size="13" lengthAdjust="spacing" textLength="109.6367" x="297" y="220.6669">&#171;include&#187; [&#233;xito]</text></g><!--link ConsultarUsuarioView to CompletarGestion--><g class="link" data-entity-1="ent0005" data-entity-2="ent0003" data-link-type="dependency" data-source-line="19" id="lnk12"><path d="M214.19,174.72 C298.96,188.6 415,207.6 415,207.6 C415,207.6 511.9336,233.8338 582.1036,252.8238" fill="none" id="ConsultarUsuarioView-to-CompletarGestion" style="stroke:#181818;stroke-width:1;stroke-dasharray:7,7;"/><polygon fill="#181818" points="586.93,254.13,579.2874,247.9178,582.1036,252.8238,577.1976,255.64,586.93,254.13" style="stroke:#181818;stroke-width:1;stroke-linejoin:miter;stroke-miterlimit:10;"/><text fill="#000000" font-family="sans-serif" font-size="13" lengthAdjust="spacing" textLength="320.7344" x="473" y="220.6669">&#171;include&#187; completarGestion() [cancelaci&#243;n/error]</text></g><?plantuml-src TP7VQi8m5CRlynI7xaOlT21JPX6XQ-ie-0__x4P4qlGWmPYKD6MJiGVQzHx15rig4sUjkKhE-NxV-SZ9TbocLDCz22xH75A4L8b3yI148pDKRWN2Wn-4BruR77VgZSFXnWj6qJYQBsQU7qt63j0CfbIYy98zbvLS42wyuJ3SBETBRnPDDgD9GGUJ4nkWeKBWI6L6qqHL6lXA21ehJGrN4dorJuMbz2jcHU5aKouIabAseri4fcIM2zjPPZdLN1LgfroirHtu963Fl_cTLZSSTAtrjVQDutjP6hVZfFCCVmfB66qpeoxh1YtFVmhFkXccAkD6wGFv8kJoYz1ez2l7kd0Rd90g9JGIwt6JnuKupzY5PfeRj9SwkP6UGjm4TK751YMU7QPAHqcD9_TYD9lzyefTwFMuP29FiD-7rV7xmpglx-FbrLxphDIjrM75g6GeAEF77_c8MYkz_WK0?></g></svg>