<svg xmlns="http://www.w3.org/2000/svg" xmlns:xlink="http://www.w3.org/1999/xlink" version="1.1" data-diagram-type="SEQUENCE" style="width:1144px;height:714px;background:#FFFFFF;" width="1144px" height="714px" viewBox="0 0 1144 714" zoomAndPan="magnify" preserveAspectRatio="none" contentStyleType="text/css"><?plantuml 1.2026.7beta8?><defs/><g font-family="sans-serif" lengthAdjust="spacing"><g class="title" data-source-line="1"><text x="234.215" y="27.995" fill="#000" font-size="14" textLength="673.736" font-weight="700">Diagrama de Secuencia - Consultar Solicitud de Dispensa (Vue 3 + Express + Prisma)</text></g><g><title>Usuario</title><rect x="36.102" y="125.891" width="8" height="499.258" fill="#000" fill-opacity="0"/><line x1="39.602" y1="125.891" x2="39.602" y2="625.148" style="stroke:#181818;stroke-width:0.5;stroke-dasharray:5,5;"/></g><g><title>Frontend</title><rect x="343.796" y="125.891" width="8" height="499.258" fill="#000" fill-opacity="0"/><line x1="347.296" y1="125.891" x2="347.296" y2="625.148" style="stroke:#181818;stroke-width:0.5;stroke-dasharray:5,5;"/></g><g><title></title><rect x="342.296" y="155.023" width="10" height="452.125" fill="#FFF" style="stroke:#181818;stroke-width:1;"/></g><g><title>DispensaController</title><rect x="575.096" y="125.891" width="8" height="499.258" fill="#000" fill-opacity="0"/><line x1="578.596" y1="125.891" x2="578.596" y2="625.148" style="stroke:#181818;stroke-width:0.5;stroke-dasharray:5,5;"/></g><g><title></title><rect x="573.596" y="184.156" width="10" height="160.797" fill="#FFF" style="stroke:#181818;stroke-width:1;"/></g><g><title></title><rect x="573.596" y="432.352" width="10" height="145.664" fill="#FFF" style="stroke:#181818;stroke-width:1;"/></g><g><title>DispensaService</title><rect x="787.372" y="125.891" width="8" height="499.258" fill="#000" fill-opacity="0"/><line x1="790.872" y1="125.891" x2="790.872" y2="625.148" style="stroke:#181818;stroke-width:0.5;stroke-dasharray:5,5;"/></g><g><title></title><rect x="785.872" y="213.289" width="10" height="102.531" fill="#FFF" style="stroke:#181818;stroke-width:1;"/></g><g><title></title><rect x="785.872" y="461.484" width="10" height="87.398" fill="#FFF" style="stroke:#181818;stroke-width:1;"/></g><g><title>Base de Datos</title><rect x="1076.067" y="125.891" width="8" height="499.258" fill="#000" fill-opacity="0"/><line x1="1079.567" y1="125.891" x2="1079.567" y2="625.148" style="stroke:#181818;stroke-width:0.5;stroke-dasharray:5,5;"/></g><g><title></title><rect x="1074.567" y="257.555" width="10" height="29.133" fill="#FFF" style="stroke:#181818;stroke-width:1;"/></g><g><title></title><rect x="1074.567" y="490.617" width="10" height="29.133" fill="#FFF" style="stroke:#181818;stroke-width:1;"/></g><text x="10" y="122.589" fill="#000" font-size="14" textLength="53.204">Usuario</text><ellipse cx="39.602" cy="58.094" rx="8" ry="8" fill="#E2E2F0" style="stroke:#181818;stroke-width:0.5;"/><path d="M39.602,66.094 L39.602,93.094 M26.602,74.094 L52.602,74.094 M39.602,93.094 L26.602,108.094 M39.602,93.094 L52.602,108.094" style="stroke:#181818;stroke-width:0.5;" fill="none"/><rect x="308.741" y="78.297" width="77.109" height="46.594" fill="#E2E2F0" style="stroke:#181818;stroke-width:0.5;" rx="2.5" ry="2.5"/><text x="315.741" y="98.292" fill="#000" font-size="14" textLength="63.109">Frontend</text><text x="321.624" y="114.589" fill="#000" font-size="14" textLength="51.345">(Vue 3)</text><rect x="504.904" y="94.594" width="147.383" height="30.297" fill="#E2E2F0" style="stroke:#181818;stroke-width:0.5;" rx="2.5" ry="2.5"/><text x="511.904" y="114.589" fill="#000" font-size="14" textLength="133.383">DispensaController</text><rect x="725.896" y="94.594" width="129.951" height="30.297" fill="#E2E2F0" style="stroke:#181818;stroke-width:0.5;" rx="2.5" ry="2.5"/><text x="732.896" y="114.589" fill="#000" font-size="14" textLength="115.951">DispensaService</text><text x="1025.967" y="106.292" fill="#000" font-size="14" textLength="101.199">Base de Datos</text><text x="1030.729" y="122.589" fill="#000" font-size="14" textLength="91.677">(PostgreSQL)</text><path d="M1061.567,57.297 C1061.567,47.297 1079.567,47.297 1079.567,47.297 C1079.567,47.297 1097.567,47.297 1097.567,57.297 L1097.567,83.297 C1097.567,93.297 1079.567,93.297 1079.567,93.297 C1079.567,93.297 1061.567,93.297 1061.567,83.297 L1061.567,57.297" style="stroke:#181818;stroke-width:0.5;" fill="#E2E2F0"/><path d="M1061.567,57.297 C1061.567,67.297 1079.567,67.297 1079.567,67.297 C1079.567,67.297 1097.567,67.297 1097.567,57.297" style="stroke:#181818;stroke-width:0.5;" fill="none"/><text x="10" y="638.144" fill="#000" font-size="14" textLength="53.204">Usuario</text><ellipse cx="39.602" cy="649.945" rx="8" ry="8" fill="#E2E2F0" style="stroke:#181818;stroke-width:0.5;"/><path d="M39.602,657.945 L39.602,684.945 M26.602,665.945 L52.602,665.945 M39.602,684.945 L26.602,699.945 M39.602,684.945 L52.602,699.945" style="stroke:#181818;stroke-width:0.5;" fill="none"/><rect x="308.741" y="625.148" width="77.109" height="46.594" fill="#E2E2F0" style="stroke:#181818;stroke-width:0.5;" rx="2.5" ry="2.5"/><text x="315.741" y="645.144" fill="#000" font-size="14" textLength="63.109">Frontend</text><text x="321.624" y="661.44" fill="#000" font-size="14" textLength="51.345">(Vue 3)</text><rect x="504.904" y="625.148" width="147.383" height="30.297" fill="#E2E2F0" style="stroke:#181818;stroke-width:0.5;" rx="2.5" ry="2.5"/><text x="511.904" y="645.144" fill="#000" font-size="14" textLength="133.383">DispensaController</text><rect x="725.896" y="625.148" width="129.951" height="30.297" fill="#E2E2F0" style="stroke:#181818;stroke-width:0.5;" rx="2.5" ry="2.5"/><text x="732.896" y="645.144" fill="#000" font-size="14" textLength="115.951">DispensaService</text><text x="1025.967" y="638.144" fill="#000" font-size="14" textLength="101.199">Base de Datos</text><text x="1030.729" y="654.44" fill="#000" font-size="14" textLength="91.677">(PostgreSQL)</text><path d="M1061.567,667.742 C1061.567,657.742 1079.567,657.742 1079.567,657.742 C1079.567,657.742 1097.567,657.742 1097.567,667.742 L1097.567,693.742 C1097.567,703.742 1079.567,703.742 1079.567,703.742 C1079.567,703.742 1061.567,703.742 1061.567,693.742 L1061.567,667.742" style="stroke:#181818;stroke-width:0.5;" fill="#E2E2F0"/><path d="M1061.567,667.742 C1061.567,677.742 1079.567,677.742 1079.567,677.742 C1079.567,677.742 1097.567,677.742 1097.567,667.742" style="stroke:#181818;stroke-width:0.5;" fill="none"/><polygon points="330.296,151.023,340.296,155.023,330.296,159.023,334.296,155.023" fill="#181818" style="stroke:#181818;stroke-width:1;stroke-linejoin:miter;stroke-miterlimit:10;"/><line x1="39.602" y1="155.023" x2="336.296" y2="155.023" style="stroke:#181818;stroke-width:1;"/><text x="46.602" y="149.958" fill="#000" font-size="13" textLength="278.694">accede a consultar solicitudes de dispensa</text><polygon points="561.596,180.156,571.596,184.156,561.596,188.156,565.596,184.156" fill="#181818" style="stroke:#181818;stroke-width:1;stroke-linejoin:miter;stroke-miterlimit:10;"/><line x1="352.296" y1="184.156" x2="567.596" y2="184.156" style="stroke:#181818;stroke-width:1;"/><text x="359.296" y="179.09" fill="#000" font-size="13" textLength="123.589">GET /api/dispensas</text><polygon points="773.872,209.289,783.872,213.289,773.872,217.289,777.872,213.289" fill="#181818" style="stroke:#181818;stroke-width:1;stroke-linejoin:miter;stroke-miterlimit:10;"/><line x1="583.596" y1="213.289" x2="779.872" y2="213.289" style="stroke:#181818;stroke-width:1;"/><text x="590.596" y="208.223" fill="#000" font-size="13" textLength="183.276">getDispensas(usuarioId, rol)</text><polygon points="1062.567,253.555,1072.567,257.555,1062.567,261.555,1066.567,257.555" fill="#181818" style="stroke:#181818;stroke-width:1;stroke-linejoin:miter;stroke-miterlimit:10;"/><line x1="795.872" y1="257.555" x2="1068.567" y2="257.555" style="stroke:#181818;stroke-width:1;"/><text x="802.872" y="237.356" fill="#000" font-size="13" textLength="165.42">SELECT * FROM Dispensa</text><text x="802.872" y="252.489" fill="#000" font-size="13" textLength="139.261">(con filtros según rol)</text><polygon points="806.872,282.688,796.872,286.688,806.872,290.688,802.872,286.688" fill="#181818" style="stroke:#181818;stroke-width:1;stroke-linejoin:miter;stroke-miterlimit:10;"/><line x1="800.872" y1="286.688" x2="1073.567" y2="286.688" style="stroke:#181818;stroke-width:1;stroke-dasharray:2,2;"/><text x="812.872" y="281.622" fill="#000" font-size="13" textLength="147.05">dispensas : Dispensa[]</text><polygon points="594.596,311.82,584.596,315.82,594.596,319.82,590.596,315.82" fill="#181818" style="stroke:#181818;stroke-width:1;stroke-linejoin:miter;stroke-miterlimit:10;"/><line x1="588.596" y1="315.82" x2="784.872" y2="315.82" style="stroke:#181818;stroke-width:1;stroke-dasharray:2,2;"/><text x="600.596" y="310.754" fill="#000" font-size="13" textLength="147.05">dispensas : Dispensa[]</text><polygon points="363.296,340.953,353.296,344.953,363.296,348.953,359.296,344.953" fill="#181818" style="stroke:#181818;stroke-width:1;stroke-linejoin:miter;stroke-miterlimit:10;"/><line x1="357.296" y1="344.953" x2="572.596" y2="344.953" style="stroke:#181818;stroke-width:1;stroke-dasharray:2,2;"/><text x="369.296" y="339.887" fill="#000" font-size="13" textLength="141.28">200 OK { dispensas }</text><polygon points="50.602,370.086,40.602,374.086,50.602,378.086,46.602,374.086" fill="#181818" style="stroke:#181818;stroke-width:1;stroke-linejoin:miter;stroke-miterlimit:10;"/><line x1="44.602" y1="374.086" x2="341.296" y2="374.086" style="stroke:#181818;stroke-width:1;stroke-dasharray:2,2;"/><text x="56.602" y="369.02" fill="#000" font-size="13" textLength="178.858">muestra lista de solicitudes</text><polygon points="330.296,399.219,340.296,403.219,330.296,407.219,334.296,403.219" fill="#181818" style="stroke:#181818;stroke-width:1;stroke-linejoin:miter;stroke-miterlimit:10;"/><line x1="39.602" y1="403.219" x2="336.296" y2="403.219" style="stroke:#181818;stroke-width:1;"/><text x="46.602" y="398.153" fill="#000" font-size="13" textLength="239.681">selecciona una solicitud (dispensaId)</text><polygon points="561.596,428.352,571.596,432.352,561.596,436.352,565.596,432.352" fill="#181818" style="stroke:#181818;stroke-width:1;stroke-linejoin:miter;stroke-miterlimit:10;"/><line x1="352.296" y1="432.352" x2="567.596" y2="432.352" style="stroke:#181818;stroke-width:1;"/><text x="359.296" y="427.286" fill="#000" font-size="13" textLength="202.3">GET /api/dispensas/:dispensaId</text><polygon points="773.872,457.484,783.872,461.484,773.872,465.484,777.872,461.484" fill="#181818" style="stroke:#181818;stroke-width:1;stroke-linejoin:miter;stroke-miterlimit:10;"/><line x1="583.596" y1="461.484" x2="779.872" y2="461.484" style="stroke:#181818;stroke-width:1;"/><text x="590.596" y="456.418" fill="#000" font-size="13" textLength="161.065">getDispensa(dispensaId)</text><polygon points="1062.567,486.617,1072.567,490.617,1062.567,494.617,1066.567,490.617" fill="#181818" style="stroke:#181818;stroke-width:1;stroke-linejoin:miter;stroke-miterlimit:10;"/><line x1="795.872" y1="490.617" x2="1068.567" y2="490.617" style="stroke:#181818;stroke-width:1;"/><text x="802.872" y="485.551" fill="#000" font-size="13" textLength="259.695">SELECT * FROM Dispensa WHERE id = ?</text><polygon points="806.872,515.75,796.872,519.75,806.872,523.75,802.872,519.75" fill="#181818" style="stroke:#181818;stroke-width:1;stroke-linejoin:miter;stroke-miterlimit:10;"/><line x1="800.872" y1="519.75" x2="1073.567" y2="519.75" style="stroke:#181818;stroke-width:1;stroke-dasharray:2,2;"/><text x="812.872" y="514.684" fill="#000" font-size="13" textLength="130.133">dispensa : Dispensa</text><polygon points="594.596,544.883,584.596,548.883,594.596,552.883,590.596,548.883" fill="#181818" style="stroke:#181818;stroke-width:1;stroke-linejoin:miter;stroke-miterlimit:10;"/><line x1="588.596" y1="548.883" x2="784.872" y2="548.883" style="stroke:#181818;stroke-width:1;stroke-dasharray:2,2;"/><text x="600.596" y="543.817" fill="#000" font-size="13" textLength="130.133">dispensa : Dispensa</text><polygon points="363.296,574.016,353.296,578.016,363.296,582.016,359.296,578.016" fill="#181818" style="stroke:#181818;stroke-width:1;stroke-linejoin:miter;stroke-miterlimit:10;"/><line x1="357.296" y1="578.016" x2="572.596" y2="578.016" style="stroke:#181818;stroke-width:1;stroke-dasharray:2,2;"/><text x="369.296" y="572.95" fill="#000" font-size="13" textLength="134.507">200 OK { dispensa }</text><polygon points="50.602,603.148,40.602,607.148,50.602,611.148,46.602,607.148" fill="#181818" style="stroke:#181818;stroke-width:1;stroke-linejoin:miter;stroke-miterlimit:10;"/><line x1="44.602" y1="607.148" x2="341.296" y2="607.148" style="stroke:#181818;stroke-width:1;stroke-dasharray:2,2;"/><text x="56.602" y="602.083" fill="#000" font-size="13" textLength="197.272">muestra detalle de la solicitud</text><?plantuml-src dLDDRnCn4BtxLunoIe0e5TmY0LAQBLGKjNGB7833O0-H9STUURmL4kAFSUMFCPkiTvsA2fh3HjvetlFxc4qsEOArnKt4BO8Xg4ctvBL5cCDfyDowX17guAosgJNToDfoGvuHfXzQWcVm6AhlJIHcELr5orkSAOKwXGYJzznYj642oD2VLOCn2Lk3Fi7aB0QVo9lFViyssutcVmzdyyMYAyNW7CNTyFZwz_6QugtLj9ljpyfWmg_819DLzzkvmXHOL5m5Jfj8zRkBlPJrIgbUESnV3CfW2QWr2H113pbnpecuupIzWYuDUuk9HcDg81BIqO7GlgfkO86DNMGqZ_32gYf0Gj4R4_o6KdREqtQl_Dmy0PcTZKmv29M1mh5U2RokBghJ6tW4PzUNRuUk9HXn2T-iapiPc3Q_V_axb9AKCCmFn0mUv9ovFdrHXahKgE5k5l-63pxAE0vxUdfo0fTlu4V1zhEaA4CTMn6ENFiIjYrnYWZESjfz9aNHzwq7aoEjRV08hJm30gPPnxcPFMWF5iiHUVHE7Dn-x3h0nzVLTGNMm7Du-NyRK3JuuFhlmHxJ_T7L6qeeWrtvhcYpPCiCVm00?></g></svg>