<svg xmlns="http://www.w3.org/2000/svg" xmlns:xlink="http://www.w3.org/1999/xlink" contentStyleType="text/css" data-diagram-type="DESCRIPTION" height="435px" preserveAspectRatio="none" style="width:960px;height:435px;background:#FFFFFF;" version="1.1" viewBox="0 0 960 435" width="960px" zoomAndPan="magnify"><?plantuml 1.2026.5?><defs/><g><!--cluster consultarSolicitudDispensa--><g class="cluster" data-qualified-name="consultarSolicitudDispensa" data-source-line="7" id="ent0004"><path d="M8.5,106.3 L237.417,106.3 A3.75,3.75 0 0 1 239.917,108.8 L246.917,128.5969 L351.5,128.5969 A2.5,2.5 0 0 1 354,131.0969 L354,417.69 A2.5,2.5 0 0 1 351.5,420.19 L8.5,420.19 A2.5,2.5 0 0 1 6,417.69 L6,108.8 A2.5,2.5 0 0 1 8.5,106.3" fill="none" style="stroke:#000000;stroke-width:1.5;"/><line style="stroke:#000000;stroke-width:1.5;" x1="6" x2="246.917" y1="128.5969" y2="128.5969"/><text fill="#000000" font-family="sans-serif" font-size="14" font-weight="700" lengthAdjust="spacing" textLength="227.917" x="10" y="121.2951">consultarSolicitudDispensa()</text></g><!--entity ConsultarDispensasView--><g class="entity" data-qualified-name="consultarSolicitudDispensa.ConsultarDispensasView" data-source-line="8" id="ent0005"><rect fill="#629EF9" height="36.2969" rx="2.5" ry="2.5" style="stroke:#181818;stroke-width:0.5;" width="192.1289" x="145.94" y="141.3"/><text fill="#000000" font-family="sans-serif" font-size="14" lengthAdjust="spacing" textLength="172.1289" x="155.94" y="164.2951">ConsultarDispensasView</text></g><!--entity DispensaController--><g class="entity" data-qualified-name="consultarSolicitudDispensa.DispensaController" data-source-line="9" id="ent0006"><rect fill="#B5BD68" height="36.2969" rx="2.5" ry="2.5" style="stroke:#181818;stroke-width:0.5;" width="153.3828" x="22.31" y="254.6"/><text fill="#000000" font-family="sans-serif" font-size="14" lengthAdjust="spacing" textLength="133.3828" x="32.31" y="277.5951">DispensaController</text></g><!--entity SolicitudDispensaRepository--><g class="entity" data-qualified-name="consultarSolicitudDispensa.SolicitudDispensaRepository" data-source-line="10" id="ent0007"><rect fill="#F2AC4E" height="36.2969" rx="2.5" ry="2.5" style="stroke:#181818;stroke-width:0.5;" width="219.3496" x="22.33" y="367.89"/><text fill="#000000" font-family="sans-serif" font-size="14" lengthAdjust="spacing" textLength="199.3496" x="32.33" y="390.8851">SolicitudDispensaRepository</text></g><!--entity PanelProfesor--><g class="entity" data-qualified-name="PanelProfesor" data-source-line="3" id="ent0001"><rect fill="#CDEBA5" height="36.2969" rx="2.5" ry="2.5" style="stroke:#181818;stroke-width:0.5;" width="152.5762" x="165.71" y="7"/><text fill="#000000" font-family="sans-serif" font-size="14" lengthAdjust="spacing" textLength="132.5762" x="175.71" y="29.9951">:PANEL_PROFESOR</text></g><!--entity DispensasListadas--><g class="entity" data-qualified-name="DispensasListadas" data-source-line="4" id="ent0002"><rect fill="#CDEBA5" height="36.2969" rx="2.5" ry="2.5" style="stroke:#181818;stroke-width:0.5;" width="236.0977" x="369.95" y="254.6"/><text fill="#000000" font-family="sans-serif" font-size="14" lengthAdjust="spacing" textLength="216.0977" x="379.95" y="277.5951">:DISPENSAS_GRUPO_LISTADAS</text></g><!--entity CompletarGestion--><g class="entity" data-qualified-name="CompletarGestion" data-source-line="5" id="ent0003"><rect fill="#CDEBA5" height="36.2969" rx="2.5" ry="2.5" style="stroke:#181818;stroke-width:0.5;" width="249.2363" x="641.38" y="254.6"/><text fill="#000000" font-family="sans-serif" font-size="14" lengthAdjust="spacing" textLength="229.2363" x="651.38" y="277.5951">:Collaboration CompletarGestion</text></g><!--link PanelProfesor to ConsultarDispensasView--><g class="link" data-entity-1="ent0001" data-entity-2="ent0005" data-link-type="dependency" data-source-line="13" id="lnk8"><path d="M242,43.72 C242,69.02 242,110.46 242,135.81" fill="none" id="PanelProfesor-to-ConsultarDispensasView" style="stroke:#181818;stroke-width:1;"/><polygon fill="#181818" points="242,140.81,246,131.81,242,135.81,238,131.81,242,140.81" style="stroke:#181818;stroke-width:1;stroke-linejoin:miter;stroke-miterlimit:10;"/><text fill="#000000" font-family="sans-serif" font-size="13" lengthAdjust="spacing" textLength="185.9165" x="243" y="86.3669">consultarSolicitudDispensa()</text></g><!--link ConsultarDispensasView to DispensaController--><g class="link" data-entity-1="ent0005" data-entity-2="ent0006" data-link-type="dependency" data-source-line="15" id="lnk9"><path d="M212.96,178 C190.78,191.41 164,207.6 164,207.6 C164,207.6 139.5686,231.7076 120.3186,250.7076" fill="none" id="ConsultarDispensasView-to-DispensaController" style="stroke:#181818;stroke-width:1;"/><polygon fill="#181818" points="116.76,254.22,125.9753,250.7446,120.3186,250.7076,120.3555,245.0509,116.76,254.22" style="stroke:#181818;stroke-width:1;stroke-linejoin:miter;stroke-miterlimit:10;"/><text fill="#000000" font-family="sans-serif" font-size="13" lengthAdjust="spacing" textLength="279.0493" x="165" y="220.6669">obtenerDispensasAfectanClase(profesorId)</text></g><!--link DispensaController to SolicitudDispensaRepository--><g class="link" data-entity-1="ent0006" data-entity-2="ent0007" data-link-type="dependency" data-source-line="16" id="lnk10"><path d="M104.16,291.13 C110.32,311.92 119.1601,341.7158 125.3501,362.6158" fill="none" id="DispensaController-to-SolicitudDispensaRepository" style="stroke:#181818;stroke-width:1;"/><polygon fill="#181818" points="126.77,367.41,128.0495,357.6446,125.3501,362.6158,120.3789,359.9164,126.77,367.41" style="stroke:#181818;stroke-width:1;stroke-linejoin:miter;stroke-miterlimit:10;"/><text fill="#000000" font-family="sans-serif" font-size="13" lengthAdjust="spacing" textLength="264.7227" x="119" y="333.9569">buscarAprobadasPorProfesor(profesorId)</text></g><!--link ConsultarDispensasView to DispensasListadas--><g class="link" data-entity-1="ent0005" data-entity-2="ent0002" data-link-type="dependency" data-source-line="18" id="lnk11"><path d="M319.37,178.07 C378.17,191.46 449,207.6 449,207.6 C449,207.6 463.2044,230.9465 474.7444,249.9465" fill="none" id="ConsultarDispensasView-to-DispensasListadas" style="stroke:#181818;stroke-width:1;stroke-dasharray:7,7;"/><polygon fill="#181818" points="477.34,254.22,476.0867,244.4512,474.7444,249.9465,469.2491,248.6042,477.34,254.22" style="stroke:#181818;stroke-width:1;stroke-linejoin:miter;stroke-miterlimit:10;"/><text fill="#000000" font-family="sans-serif" font-size="13" lengthAdjust="spacing" textLength="109.6367" x="460" y="220.6669">&#171;include&#187; [&#233;xito]</text></g><!--link ConsultarDispensasView to CompletarGestion--><g class="link" data-entity-1="ent0005" data-entity-2="ent0003" data-link-type="dependency" data-source-line="19" id="lnk12"><path d="M338.28,173.96 C437.57,187.89 578,207.6 578,207.6 C578,207.6 654.228,233.605 709.898,252.605" fill="none" id="ConsultarDispensasView-to-CompletarGestion" style="stroke:#181818;stroke-width:1;stroke-dasharray:7,7;"/><polygon fill="#181818" points="714.63,254.22,707.4044,247.5274,709.898,252.605,704.8204,255.0986,714.63,254.22" style="stroke:#181818;stroke-width:1;stroke-linejoin:miter;stroke-miterlimit:10;"/><text fill="#000000" font-family="sans-serif" font-size="13" lengthAdjust="spacing" textLength="320.7344" x="624" y="220.6669">&#171;include&#187; completarGestion() [cancelaci&#243;n/error]</text></g><?plantuml-src VPBHJi8m58Rl-nGdU0CNO6B4w498vZO82P65gJV6aBFkQ1fBkxGbIemFvBMFm8kv4K3PWDwrv_p_-Vwszase70tEGGf5RfaJv5ekomrZXhX3zIe9pe8mklMxqF1Y_ouQp-BfP10basa3q4ACYcHiz0jPRGwAmb4IHtU9dyo6quTuCXkFadi_z9ErF1Gs9sNHZeLrcA4zQ15eAJ7L1ftG2W8zpoKvD4EovS7Qg7h8M8xy3Ly9k5Ps8OjAegNWmYsoxT1IrpXURhOQyCcWMF-OhYvkei5DCMwZsWLu5FHURKwxQNPrlGjPY9mfef2fDWuk_E0oWXh2b79jXTDcoRuOsxjhQBVxHp0yE1MAiSCgQ6U5OvtL0vqwKlJNxR-ioGE9bfhvXcUKjLXTlAOy4Sk3T64v6h-mISltZxNP9jopFWRTwVJhdyY3NayeBXSPzVlmjFh-A8OzdxAeVfzz1rwfDblmn55naiZ5waUTap7QFFy2?></g></svg>