<svg xmlns="http://www.w3.org/2000/svg" xmlns:xlink="http://www.w3.org/1999/xlink" version="1.1" data-diagram-type="DESCRIPTION" style="width:1191px;height:432px;background:#FFFFFF;" width="1191px" height="432px" viewBox="0 0 1191 432" zoomAndPan="magnify" preserveAspectRatio="none" contentStyleType="text/css"><?plantuml 1.2026.7beta3?><defs/><g><!--cluster consultarListaAlumnos--><g class="cluster" data-qualified-name="consultarListaAlumnos" id="ent0003" data-source-line="6"><path d="M243.76,6 L437.8821,6 A3.75,3.75 0 0 1 440.3821,8.5 L447.3821,28.2969 L926.76,28.2969 A2.5,2.5 0 0 1 929.26,30.7969 L929.26,414.69 A2.5,2.5 0 0 1 926.76,417.19 L243.76,417.19 A2.5,2.5 0 0 1 241.26,414.69 L241.26,8.5 A2.5,2.5 0 0 1 243.76,6" style="stroke:#000000;stroke-width:1.5;" fill="none"/><line x1="241.26" y1="28.2969" x2="447.3821" y2="28.2969" style="stroke:#000000;stroke-width:1.5;"/><text x="245.26" y="20.9951" fill="#000000" font-size="14" lengthAdjust="spacing" textLength="193.1221" font-weight="700" font-family="sans-serif">consultarListaAlumnos()</text></g><!--entity ConsultarListaAlumnosView--><g class="entity" data-qualified-name="consultarListaAlumnos.ConsultarListaAlumnosView" id="ent0004" data-source-line="7"><rect x="459.06" y="41" width="214.3867" height="36.2969" fill="#629EF9" style="stroke:#181818;stroke-width:0.5;" rx="2.5" ry="2.5"/><text x="469.06" y="63.9951" fill="#000000" font-size="14" lengthAdjust="spacing" textLength="194.3867" font-family="sans-serif">ConsultarListaAlumnosView</text></g><!--entity AlumnoController--><g class="entity" data-qualified-name="consultarListaAlumnos.AlumnoController" id="ent0005" data-source-line="8"><rect x="494.96" y="154.3" width="142.5889" height="36.2969" fill="#B5BD68" style="stroke:#181818;stroke-width:0.5;" rx="2.5" ry="2.5"/><text x="504.96" y="177.2951" fill="#000000" font-size="14" lengthAdjust="spacing" textLength="122.5889" font-family="sans-serif">AlumnoController</text></g><!--entity MatriculaRepository--><g class="entity" data-qualified-name="consultarListaAlumnos.MatriculaRepository" id="ent0006" data-source-line="9"><rect x="257.31" y="267.6" width="159.9043" height="36.2969" fill="#F2AC4E" style="stroke:#181818;stroke-width:0.5;" rx="2.5" ry="2.5"/><text x="267.31" y="290.5951" fill="#000000" font-size="14" lengthAdjust="spacing" textLength="139.9043" font-family="sans-serif">MatriculaRepository</text></g><!--entity AlumnoRepository--><g class="entity" data-qualified-name="consultarListaAlumnos.AlumnoRepository" id="ent0007" data-source-line="10"><rect x="611.01" y="267.6" width="148.4883" height="36.2969" fill="#F2AC4E" style="stroke:#181818;stroke-width:0.5;" rx="2.5" ry="2.5"/><text x="621.01" y="290.5951" fill="#000000" font-size="14" lengthAdjust="spacing" textLength="128.4883" font-family="sans-serif">AlumnoRepository</text></g><!--entity Matricula--><g class="entity" data-qualified-name="consultarListaAlumnos.Matricula" id="ent0008" data-source-line="11"><rect x="294.84" y="364.89" width="84.832" height="36.2969" fill="#F2AC4E" style="stroke:#181818;stroke-width:0.5;" rx="2.5" ry="2.5"/><text x="304.84" y="387.8851" fill="#000000" font-size="14" lengthAdjust="spacing" textLength="64.832" font-family="sans-serif">Matricula</text></g><!--entity Alumno--><g class="entity" data-qualified-name="consultarListaAlumnos.Alumno" id="ent0009" data-source-line="12"><rect x="648.55" y="364.89" width="73.416" height="36.2969" fill="#F2AC4E" style="stroke:#181818;stroke-width:0.5;" rx="2.5" ry="2.5"/><text x="658.55" y="387.8851" fill="#000000" font-size="14" lengthAdjust="spacing" textLength="53.416" font-family="sans-serif">Alumno</text></g><!--entity DashboardProfesorAbierto--><g class="entity" data-qualified-name="DashboardProfesorAbierto" id="ent0001" data-source-line="3"><rect x="7" y="41" width="218.5156" height="36.2969" fill="#CDEBA5" style="stroke:#181818;stroke-width:0.5;" rx="2.5" ry="2.5"/><text x="17" y="63.9951" fill="#000000" font-size="14" lengthAdjust="spacing" textLength="198.5156" font-family="sans-serif">:Dashboard Profesor Abierto</text></g><!--entity DashboardSecretariaAbierto--><g class="entity" data-qualified-name="DashboardSecretariaAbierto" id="ent0002" data-source-line="4"><rect x="945.03" y="41" width="232.4541" height="36.2969" fill="#CDEBA5" style="stroke:#181818;stroke-width:0.5;" rx="2.5" ry="2.5"/><text x="955.03" y="63.9951" fill="#000000" font-size="14" lengthAdjust="spacing" textLength="212.4541" font-family="sans-serif">:Dashboard Secretaria Abierto</text></g><!--link DashboardProfesorAbierto to ConsultarListaAlumnosView--><g class="link" data-entity-1="ent0001" data-entity-2="ent0004" id="lnk10" data-source-line="15" data-link-type="dependency"><path d="M225.76,59.15 C296.53,59.15 383.2,59.15 453.6,59.15" style="stroke:#181818;stroke-width:1;" fill="none" id="DashboardProfesorAbierto-to-ConsultarListaAlumnosView"/><polygon points="458.6,59.15,449.6,55.15,453.6,59.15,449.6,63.15,458.6,59.15" fill="#181818" style="stroke:#181818;stroke-width:1;stroke-linejoin:miter;stroke-miterlimit:10;"/><text x="263.79" y="52.2169" fill="#000000" font-size="13" lengthAdjust="spacing" textLength="157.5806" font-family="sans-serif">consultarListaAlumnos()</text></g><!--link DashboardSecretariaAbierto to ConsultarListaAlumnosView--><g class="link" data-entity-1="ent0002" data-entity-2="ent0004" id="lnk11" data-source-line="16" data-link-type="dependency"><path d="M944.55,59.15 C862.51,59.15 758.57,59.15 678.67,59.15" style="stroke:#181818;stroke-width:1;" fill="none" id="DashboardSecretariaAbierto-to-ConsultarListaAlumnosView"/><polygon points="673.67,59.15,682.67,63.15,678.67,59.15,682.67,55.15,673.67,59.15" fill="#181818" style="stroke:#181818;stroke-width:1;stroke-linejoin:miter;stroke-miterlimit:10;"/><text x="730.74" y="52.2169" fill="#000000" font-size="13" lengthAdjust="spacing" textLength="157.5806" font-family="sans-serif">consultarListaAlumnos()</text></g><!--link ConsultarListaAlumnosView to AlumnoController--><g class="link" data-entity-1="ent0004" data-entity-2="ent0005" id="lnk12" data-source-line="18" data-link-type="dependency"><path d="M566.26,77.54 C566.26,98.33 566.26,127.92 566.26,148.81" style="stroke:#181818;stroke-width:1;" fill="none" id="ConsultarListaAlumnosView-to-AlumnoController"/><polygon points="566.26,153.81,570.26,144.81,566.26,148.81,562.26,144.81,566.26,153.81" fill="#181818" style="stroke:#181818;stroke-width:1;stroke-linejoin:miter;stroke-miterlimit:10;"/><text x="567.26" y="120.3669" fill="#000000" font-size="13" lengthAdjust="spacing" textLength="305.6968" font-family="sans-serif">obtenerAlumnos(asignaturaId) : List&lt;Alumno></text></g><!--link AlumnoController to MatriculaRepository--><g class="link" data-entity-1="ent0005" data-entity-2="ent0006" id="lnk13" data-source-line="20" data-link-type="dependency"><path d="M494.62,185.47 C411.37,199.44 285.26,220.6 285.26,220.6 C285.26,220.6 285.26,237.6 285.26,237.6 C285.26,237.6 299.407,250.4203 314.187,263.8303" style="stroke:#181818;stroke-width:1;" fill="none" id="AlumnoController-to-MatriculaRepository"/><polygon points="317.89,267.19,313.9124,258.1801,314.187,263.8303,308.5368,264.1048,317.89,267.19" fill="#181818" style="stroke:#181818;stroke-width:1;stroke-linejoin:miter;stroke-miterlimit:10;"/><text x="286.26" y="233.6669" fill="#000000" font-size="13" lengthAdjust="spacing" textLength="351.4443" font-family="sans-serif">obtenerPorAsignatura(asignaturaId) : List&lt;Matricula></text></g><!--link MatriculaRepository to Matricula--><g class="link" data-entity-1="ent0006" data-entity-2="ent0008" id="lnk14" data-source-line="22" data-link-type="association"><path d="M337.26,304.22 C337.26,321.42 337.26,347.52 337.26,364.67" style="stroke:#181818;stroke-width:1;" fill="none" id="MatriculaRepository-Matricula"/></g><!--link AlumnoController to AlumnoRepository--><g class="link" data-entity-1="ent0005" data-entity-2="ent0007" id="lnk15" data-source-line="24" data-link-type="dependency"><path d="M596.05,191 C618.79,204.41 646.26,220.6 646.26,220.6 C646.26,220.6 660.4528,243.9475 672.0028,262.9475" style="stroke:#181818;stroke-width:1;" fill="none" id="AlumnoController-to-AlumnoRepository"/><polygon points="674.6,267.22,673.343,257.4517,672.0028,262.9475,666.507,261.6073,674.6,267.22" fill="#181818" style="stroke:#181818;stroke-width:1;stroke-linejoin:miter;stroke-miterlimit:10;"/><text x="656.26" y="233.6669" fill="#000000" font-size="13" lengthAdjust="spacing" textLength="226.4146" font-family="sans-serif">obtenerPorIds(ids) : List&lt;Alumno></text></g><!--link AlumnoRepository to Alumno--><g class="link" data-entity-1="ent0007" data-entity-2="ent0009" id="lnk16" data-source-line="26" data-link-type="association"><path d="M685.26,304.22 C685.26,321.42 685.26,347.52 685.26,364.67" style="stroke:#181818;stroke-width:1;" fill="none" id="AlumnoRepository-Alumno"/></g><?plantuml-src dP7DQiCm48JlUeh5lIG7Nq8J6bC2RduWq49eeVUrlKr55CciP4eeVVSgk75J8oLGt-IP-LRQiJkfQsJSWvAQtA4cg8qw70z2C9KEzLOHtCmNouTy34csGFjU6EGADcpUo1g6l934pYI05ZhvfFw8LrWlL38vP8bXsgz-ueaQonrk2KgZRQEyzYYjmrmrUstiCPm4bS4mWKy1_ZkxqMGqNQwcC0y5NYLzzFt5kAWcTz0wVCgnKOguRrkDyldj4fxGiImRXSzK6okTuKF4sGAlsZhWHOpu4Y9M1wISpkBlpI2oEn5lvDz84Sr0MdbaVyiPcCAH9ZuXqCgjHjSmhgiXP734tBVYJ8X-75BF35JIOJT-Inqn3E_YdXz0-H5d7OLlqA_wVFowiWDPsTXR_Wvg_tq3?></g></svg>