<svg xmlns="http://www.w3.org/2000/svg" xmlns:xlink="http://www.w3.org/1999/xlink" version="1.1" data-diagram-type="SEQUENCE" style="width:1507px;height:965px;background:#FFFFFF;" width="1507px" height="965px" viewBox="0 0 1507 965" zoomAndPan="magnify" preserveAspectRatio="none" contentStyleType="text/css"><?plantuml 1.2026.7beta8?><defs/><g font-family="sans-serif" lengthAdjust="spacing"><g class="title" data-source-line="1"><text x="412.056" y="27.995" fill="#000" font-size="14" textLength="681.263" font-weight="700">Diagrama de Secuencia - Exportar Historial de Asistencias (Vue 3 + Express + Prisma)</text></g><g><title>Profesor</title><rect x="38.46" y="125.891" width="8" height="749.719" fill="#000" fill-opacity="0"/><line x1="41.96" y1="125.891" x2="41.96" y2="875.609" style="stroke:#181818;stroke-width:0.5;stroke-dasharray:5,5;"/></g><g><title>Frontend</title><rect x="325.829" y="125.891" width="8" height="749.719" fill="#000" fill-opacity="0"/><line x1="329.329" y1="125.891" x2="329.329" y2="875.609" style="stroke:#181818;stroke-width:0.5;stroke-dasharray:5,5;"/></g><g><title></title><rect x="324.329" y="155.023" width="10" height="702.586" fill="#FFF" style="stroke:#181818;stroke-width:1;"/></g><g><title>AttendanceController</title><rect x="730.94" y="125.891" width="8" height="749.719" fill="#000" fill-opacity="0"/><line x1="734.44" y1="125.891" x2="734.44" y2="875.609" style="stroke:#181818;stroke-width:0.5;stroke-dasharray:5,5;"/></g><g><title></title><rect x="729.44" y="184.156" width="10" height="160.797" fill="#FFF" style="stroke:#181818;stroke-width:1;"/></g><g><title></title><rect x="729.44" y="637.414" width="10" height="191.063" fill="#FFF" style="stroke:#181818;stroke-width:1;"/></g><g><title>AcademicController</title><rect x="898.748" y="125.891" width="8" height="749.719" fill="#000" fill-opacity="0"/><line x1="902.248" y1="125.891" x2="902.248" y2="875.609" style="stroke:#181818;stroke-width:0.5;stroke-dasharray:5,5;"/></g><g><title></title><rect x="897.248" y="374.086" width="10" height="160.797" fill="#FFF" style="stroke:#181818;stroke-width:1;"/></g><g><title>AttendanceService</title><rect x="1057.84" y="125.891" width="8" height="749.719" fill="#000" fill-opacity="0"/><line x1="1061.34" y1="125.891" x2="1061.34" y2="875.609" style="stroke:#181818;stroke-width:0.5;stroke-dasharray:5,5;"/></g><g><title></title><rect x="1056.34" y="213.289" width="10" height="102.531" fill="#FFF" style="stroke:#181818;stroke-width:1;"/></g><g><title></title><rect x="1056.34" y="666.547" width="10" height="117.664" fill="#FFF" style="stroke:#181818;stroke-width:1;"/></g><g><title>AcademicService</title><rect x="1208.216" y="125.891" width="8" height="749.719" fill="#000" fill-opacity="0"/><line x1="1211.716" y1="125.891" x2="1211.716" y2="875.609" style="stroke:#181818;stroke-width:0.5;stroke-dasharray:5,5;"/></g><g><title></title><rect x="1206.716" y="403.219" width="10" height="102.531" fill="#FFF" style="stroke:#181818;stroke-width:1;"/></g><g><title>Base de Datos</title><rect x="1439.274" y="125.891" width="8" height="749.719" fill="#000" fill-opacity="0"/><line x1="1442.774" y1="125.891" x2="1442.774" y2="875.609" style="stroke:#181818;stroke-width:0.5;stroke-dasharray:5,5;"/></g><g><title></title><rect x="1437.774" y="257.555" width="10" height="29.133" fill="#FFF" style="stroke:#181818;stroke-width:1;"/></g><g><title></title><rect x="1437.774" y="447.484" width="10" height="29.133" fill="#FFF" style="stroke:#181818;stroke-width:1;"/></g><g><title></title><rect x="1437.774" y="725.945" width="10" height="29.133" fill="#FFF" style="stroke:#181818;stroke-width:1;"/></g><text x="10" y="122.589" fill="#000" font-size="14" textLength="57.921">Profesor</text><ellipse cx="41.96" cy="58.094" rx="8" ry="8" fill="#E2E2F0" style="stroke:#181818;stroke-width:0.5;"/><path d="M41.96,66.094 L41.96,93.094 M28.96,74.094 L54.96,74.094 M41.96,93.094 L28.96,108.094 M41.96,93.094 L54.96,108.094" style="stroke:#181818;stroke-width:0.5;" fill="none"/><rect x="290.774" y="78.297" width="77.109" height="46.594" fill="#E2E2F0" style="stroke:#181818;stroke-width:0.5;" rx="2.5" ry="2.5"/><text x="297.774" y="98.292" fill="#000" font-size="14" textLength="63.109">Frontend</text><text x="303.657" y="114.589" fill="#000" font-size="14" textLength="51.345">(Vue 3)</text><rect x="652.508" y="94.594" width="163.864" height="30.297" fill="#E2E2F0" style="stroke:#181818;stroke-width:0.5;" rx="2.5" ry="2.5"/><text x="659.508" y="114.589" fill="#000" font-size="14" textLength="149.864">AttendanceController</text><rect x="826.373" y="94.594" width="151.751" height="30.297" fill="#E2E2F0" style="stroke:#181818;stroke-width:0.5;" rx="2.5" ry="2.5"/><text x="833.373" y="114.589" fill="#000" font-size="14" textLength="137.751">AcademicController</text><rect x="988.124" y="94.594" width="146.433" height="30.297" fill="#E2E2F0" style="stroke:#181818;stroke-width:0.5;" rx="2.5" ry="2.5"/><text x="995.124" y="114.589" fill="#000" font-size="14" textLength="132.433">AttendanceService</text><rect x="1144.556" y="94.594" width="134.319" height="30.297" fill="#E2E2F0" style="stroke:#181818;stroke-width:0.5;" rx="2.5" ry="2.5"/><text x="1151.556" y="114.589" fill="#000" font-size="14" textLength="120.319">AcademicService</text><text x="1389.175" y="106.292" fill="#000" font-size="14" textLength="101.199">Base de Datos</text><text x="1393.936" y="122.589" fill="#000" font-size="14" textLength="91.677">(PostgreSQL)</text><path d="M1424.774,57.297 C1424.774,47.297 1442.774,47.297 1442.774,47.297 C1442.774,47.297 1460.774,47.297 1460.774,57.297 L1460.774,83.297 C1460.774,93.297 1442.774,93.297 1442.774,93.297 C1442.774,93.297 1424.774,93.297 1424.774,83.297 L1424.774,57.297" style="stroke:#181818;stroke-width:0.5;" fill="#E2E2F0"/><path d="M1424.774,57.297 C1424.774,67.297 1442.774,67.297 1442.774,67.297 C1442.774,67.297 1460.774,67.297 1460.774,57.297" style="stroke:#181818;stroke-width:0.5;" fill="none"/><text x="10" y="888.604" fill="#000" font-size="14" textLength="57.921">Profesor</text><ellipse cx="41.96" cy="900.406" rx="8" ry="8" fill="#E2E2F0" style="stroke:#181818;stroke-width:0.5;"/><path d="M41.96,908.406 L41.96,935.406 M28.96,916.406 L54.96,916.406 M41.96,935.406 L28.96,950.406 M41.96,935.406 L54.96,950.406" style="stroke:#181818;stroke-width:0.5;" fill="none"/><rect x="290.774" y="875.609" width="77.109" height="46.594" fill="#E2E2F0" style="stroke:#181818;stroke-width:0.5;" rx="2.5" ry="2.5"/><text x="297.774" y="895.604" fill="#000" font-size="14" textLength="63.109">Frontend</text><text x="303.657" y="911.901" fill="#000" font-size="14" textLength="51.345">(Vue 3)</text><rect x="652.508" y="875.609" width="163.864" height="30.297" fill="#E2E2F0" style="stroke:#181818;stroke-width:0.5;" rx="2.5" ry="2.5"/><text x="659.508" y="895.604" fill="#000" font-size="14" textLength="149.864">AttendanceController</text><rect x="826.373" y="875.609" width="151.751" height="30.297" fill="#E2E2F0" style="stroke:#181818;stroke-width:0.5;" rx="2.5" ry="2.5"/><text x="833.373" y="895.604" fill="#000" font-size="14" textLength="137.751">AcademicController</text><rect x="988.124" y="875.609" width="146.433" height="30.297" fill="#E2E2F0" style="stroke:#181818;stroke-width:0.5;" rx="2.5" ry="2.5"/><text x="995.124" y="895.604" fill="#000" font-size="14" textLength="132.433">AttendanceService</text><rect x="1144.556" y="875.609" width="134.319" height="30.297" fill="#E2E2F0" style="stroke:#181818;stroke-width:0.5;" rx="2.5" ry="2.5"/><text x="1151.556" y="895.604" fill="#000" font-size="14" textLength="120.319">AcademicService</text><text x="1389.175" y="888.604" fill="#000" font-size="14" textLength="101.199">Base de Datos</text><text x="1393.936" y="904.901" fill="#000" font-size="14" textLength="91.677">(PostgreSQL)</text><path d="M1424.774,918.203 C1424.774,908.203 1442.774,908.203 1442.774,908.203 C1442.774,908.203 1460.774,908.203 1460.774,918.203 L1460.774,944.203 C1460.774,954.203 1442.774,954.203 1442.774,954.203 C1442.774,954.203 1424.774,954.203 1424.774,944.203 L1424.774,918.203" style="stroke:#181818;stroke-width:0.5;" fill="#E2E2F0"/><path d="M1424.774,918.203 C1424.774,928.203 1442.774,928.203 1442.774,928.203 C1442.774,928.203 1460.774,928.203 1460.774,918.203" style="stroke:#181818;stroke-width:0.5;" fill="none"/><polygon points="312.329,151.023,322.329,155.023,312.329,159.023,316.329,155.023" fill="#181818" style="stroke:#181818;stroke-width:1;stroke-linejoin:miter;stroke-miterlimit:10;"/><line x1="41.96" y1="155.023" x2="318.329" y2="155.023" style="stroke:#181818;stroke-width:1;"/><text x="48.96" y="149.958" fill="#000" font-size="13" textLength="258.369">solicita exportar historial de asistencias</text><polygon points="717.44,180.156,727.44,184.156,717.44,188.156,721.44,184.156" fill="#181818" style="stroke:#181818;stroke-width:1;stroke-linejoin:miter;stroke-miterlimit:10;"/><line x1="334.329" y1="184.156" x2="723.44" y2="184.156" style="stroke:#181818;stroke-width:1;"/><text x="341.329" y="179.09" fill="#000" font-size="13" textLength="247.647">GET /api/attendance/session/:sesionId</text><polygon points="1044.34,209.289,1054.34,213.289,1044.34,217.289,1048.34,213.289" fill="#181818" style="stroke:#181818;stroke-width:1;stroke-linejoin:miter;stroke-miterlimit:10;"/><line x1="739.44" y1="213.289" x2="1050.34" y2="213.289" style="stroke:#181818;stroke-width:1;"/><text x="746.44" y="208.223" fill="#000" font-size="13" textLength="226.065">getAttendanceBySession(sesionId)</text><polygon points="1425.774,253.555,1435.774,257.555,1425.774,261.555,1429.774,257.555" fill="#181818" style="stroke:#181818;stroke-width:1;stroke-linejoin:miter;stroke-miterlimit:10;"/><line x1="1066.34" y1="257.555" x2="1431.774" y2="257.555" style="stroke:#181818;stroke-width:1;"/><text x="1073.34" y="237.356" fill="#000" font-size="13" textLength="171.907">SELECT * FROM Asistencia</text><text x="1073.34" y="252.489" fill="#000" font-size="13" textLength="131.714">WHERE sesionId = ?</text><polygon points="1077.34,282.688,1067.34,286.688,1077.34,290.688,1073.34,286.688" fill="#181818" style="stroke:#181818;stroke-width:1;stroke-linejoin:miter;stroke-miterlimit:10;"/><line x1="1071.34" y1="286.688" x2="1436.774" y2="286.688" style="stroke:#181818;stroke-width:1;stroke-dasharray:2,2;"/><text x="1083.34" y="281.622" fill="#000" font-size="13" textLength="160.856">asistencias : Asistencia[]</text><polygon points="750.44,311.82,740.44,315.82,750.44,319.82,746.44,315.82" fill="#181818" style="stroke:#181818;stroke-width:1;stroke-linejoin:miter;stroke-miterlimit:10;"/><line x1="744.44" y1="315.82" x2="1055.34" y2="315.82" style="stroke:#181818;stroke-width:1;stroke-dasharray:2,2;"/><text x="756.44" y="310.754" fill="#000" font-size="13" textLength="160.856">asistencias : Asistencia[]</text><polygon points="345.329,340.953,335.329,344.953,345.329,348.953,341.329,344.953" fill="#181818" style="stroke:#181818;stroke-width:1;stroke-linejoin:miter;stroke-miterlimit:10;"/><line x1="339.329" y1="344.953" x2="728.44" y2="344.953" style="stroke:#181818;stroke-width:1;stroke-dasharray:2,2;"/><text x="351.329" y="339.887" fill="#000" font-size="13" textLength="148.599">200 OK { asistencias }</text><polygon points="885.248,370.086,895.248,374.086,885.248,378.086,889.248,374.086" fill="#181818" style="stroke:#181818;stroke-width:1;stroke-linejoin:miter;stroke-miterlimit:10;"/><line x1="334.329" y1="374.086" x2="891.248" y2="374.086" style="stroke:#181818;stroke-width:1;"/><text x="341.329" y="369.02" fill="#000" font-size="13" textLength="243.172">GET /api/academic/sessions/:sesionId</text><polygon points="1194.716,399.219,1204.716,403.219,1194.716,407.219,1198.716,403.219" fill="#181818" style="stroke:#181818;stroke-width:1;stroke-linejoin:miter;stroke-miterlimit:10;"/><line x1="907.248" y1="403.219" x2="1200.716" y2="403.219" style="stroke:#181818;stroke-width:1;"/><text x="914.248" y="398.153" fill="#000" font-size="13" textLength="134.526">getSession(sesionId)</text><polygon points="1425.774,443.484,1435.774,447.484,1425.774,451.484,1429.774,447.484" fill="#181818" style="stroke:#181818;stroke-width:1;stroke-linejoin:miter;stroke-miterlimit:10;"/><line x1="1216.716" y1="447.484" x2="1431.774" y2="447.484" style="stroke:#181818;stroke-width:1;"/><text x="1223.716" y="427.286" fill="#000" font-size="13" textLength="202.059">SELECT * FROM SesionDeClase</text><text x="1223.716" y="442.418" fill="#000" font-size="13" textLength="90.143">WHERE id = ?</text><polygon points="1227.716,472.617,1217.716,476.617,1227.716,480.617,1223.716,476.617" fill="#181818" style="stroke:#181818;stroke-width:1;stroke-linejoin:miter;stroke-miterlimit:10;"/><line x1="1221.716" y1="476.617" x2="1436.774" y2="476.617" style="stroke:#181818;stroke-width:1;stroke-dasharray:2,2;"/><text x="1233.716" y="471.551" fill="#000" font-size="13" textLength="150.255">sesion : SesionDeClase</text><polygon points="918.248,501.75,908.248,505.75,918.248,509.75,914.248,505.75" fill="#181818" style="stroke:#181818;stroke-width:1;stroke-linejoin:miter;stroke-miterlimit:10;"/><line x1="912.248" y1="505.75" x2="1205.716" y2="505.75" style="stroke:#181818;stroke-width:1;stroke-dasharray:2,2;"/><text x="924.248" y="500.684" fill="#000" font-size="13" textLength="150.255">sesion : SesionDeClase</text><polygon points="345.329,530.883,335.329,534.883,345.329,538.883,341.329,534.883" fill="#181818" style="stroke:#181818;stroke-width:1;stroke-linejoin:miter;stroke-miterlimit:10;"/><line x1="339.329" y1="534.883" x2="896.248" y2="534.883" style="stroke:#181818;stroke-width:1;stroke-dasharray:2,2;"/><text x="351.329" y="529.817" fill="#000" font-size="13" textLength="117.99">200 OK { sesion }</text><polygon points="52.96,575.148,42.96,579.148,52.96,583.148,48.96,579.148" fill="#181818" style="stroke:#181818;stroke-width:1;stroke-linejoin:miter;stroke-miterlimit:10;"/><line x1="46.96" y1="579.148" x2="323.329" y2="579.148" style="stroke:#181818;stroke-width:1;stroke-dasharray:2,2;"/><text x="58.96" y="558.95" fill="#000" font-size="13" textLength="206.896">muestra historial de asistencias</text><text x="58.96" y="574.083" fill="#000" font-size="13" textLength="226.732">y selector de formato (PDF / Excel)</text><polygon points="312.329,604.281,322.329,608.281,312.329,612.281,316.329,608.281" fill="#181818" style="stroke:#181818;stroke-width:1;stroke-linejoin:miter;stroke-miterlimit:10;"/><line x1="41.96" y1="608.281" x2="318.329" y2="608.281" style="stroke:#181818;stroke-width:1;"/><text x="48.96" y="603.215" fill="#000" font-size="13" textLength="249.698">selecciona formato y solicita descarga</text><polygon points="717.44,633.414,727.44,637.414,717.44,641.414,721.44,637.414" fill="#181818" style="stroke:#181818;stroke-width:1;stroke-linejoin:miter;stroke-miterlimit:10;"/><line x1="334.329" y1="637.414" x2="723.44" y2="637.414" style="stroke:#181818;stroke-width:1;"/><text x="341.329" y="632.348" fill="#000" font-size="13" textLength="376.111">GET /api/attendance/session/:sesionId/export?formato=...</text><polygon points="1044.34,662.547,1054.34,666.547,1044.34,670.547,1048.34,666.547" fill="#181818" style="stroke:#181818;stroke-width:1;stroke-linejoin:miter;stroke-miterlimit:10;"/><line x1="739.44" y1="666.547" x2="1050.34" y2="666.547" style="stroke:#181818;stroke-width:1;"/><text x="746.44" y="661.481" fill="#000" font-size="13" textLength="219.483">exportHistorial(sesionId, formato)</text><polygon points="1425.774,721.945,1435.774,725.945,1425.774,729.945,1429.774,725.945" fill="#181818" style="stroke:#181818;stroke-width:1;stroke-linejoin:miter;stroke-miterlimit:10;"/><line x1="1066.34" y1="725.945" x2="1431.774" y2="725.945" style="stroke:#181818;stroke-width:1;"/><text x="1073.34" y="690.614" fill="#000" font-size="13" textLength="171.907">SELECT * FROM Asistencia</text><text x="1073.34" y="705.747" fill="#000" font-size="13" textLength="121.977">JOIN Alumno ON ...</text><text x="1073.34" y="720.879" fill="#000" font-size="13" textLength="131.714">WHERE sesionId = ?</text><polygon points="1077.34,751.078,1067.34,755.078,1077.34,759.078,1073.34,755.078" fill="#181818" style="stroke:#181818;stroke-width:1;stroke-linejoin:miter;stroke-miterlimit:10;"/><line x1="1071.34" y1="755.078" x2="1436.774" y2="755.078" style="stroke:#181818;stroke-width:1;stroke-dasharray:2,2;"/><text x="1083.34" y="750.012" fill="#000" font-size="13" textLength="124.941">datos : Asistencia[]</text><polygon points="750.44,780.211,740.44,784.211,750.44,788.211,746.44,784.211" fill="#181818" style="stroke:#181818;stroke-width:1;stroke-linejoin:miter;stroke-miterlimit:10;"/><line x1="744.44" y1="784.211" x2="1055.34" y2="784.211" style="stroke:#181818;stroke-width:1;stroke-dasharray:2,2;"/><text x="756.44" y="779.145" fill="#000" font-size="13" textLength="89.337">archivo : Blob</text><polygon points="345.329,824.477,335.329,828.477,345.329,832.477,341.329,828.477" fill="#181818" style="stroke:#181818;stroke-width:1;stroke-linejoin:miter;stroke-miterlimit:10;"/><line x1="339.329" y1="828.477" x2="728.44" y2="828.477" style="stroke:#181818;stroke-width:1;stroke-dasharray:2,2;"/><text x="351.329" y="808.278" fill="#000" font-size="13" textLength="47.703">200 OK</text><text x="351.329" y="823.411" fill="#000" font-size="13" textLength="222.447">(Content-Disposition: attachment)</text><polygon points="52.96,853.609,42.96,857.609,52.96,861.609,48.96,857.609" fill="#181818" style="stroke:#181818;stroke-width:1;stroke-linejoin:miter;stroke-miterlimit:10;"/><line x1="46.96" y1="857.609" x2="323.329" y2="857.609" style="stroke:#181818;stroke-width:1;stroke-dasharray:2,2;"/><text x="58.96" y="852.543" fill="#000" font-size="13" textLength="177.925">descarga archivo generado</text><?plantuml-src hLLDRnen4BtlhnXnWhP0rDuYfH6mqAHD0yr6xQ7qCF5EmDBk6ja65KNvxvrbsI_mfgdA1TPZptlsc-UnbJOYy2KkDCO88K50Oas9a0XT6FzUAMrHmvKqLcc9KRfYO7YqMsAW_NrDy07Ufair6SDVCorDZ1tFGy4vq9ffzKX6wHRm-dpWhL1RAUGA4mkjYLO98uRp9CFhxDRcqVhQWKrZc0WQyRHMKKGPj6lY85LWIB4KXub7uIR6WFH62ZgWsqVTNBMKUimBqU836eBMCFrbQNsqoh0ACsNiGbFmxIQJmXzwNYuTT3yMqi0v61KngKMWl5ZBQh6mB5PQ4Bb1IwMoNW74e2u1cU3J-1xwk99zBERxXaijLT8_vm_-lmvBR6SPF2TsZNCl2XCko9RXuJR8kDevLSV5bKlg7GCoYpzas61yCnxTmnkOt4s_LamyJtvSZU_6aEF31LoM5AmyPtSRjbfHbqSbvizVNaXL3DU-cYL_7UoBfw_AN3VC-xCpc7w1fnhBinkuMiAQLOwkJCqe-zdS9iRfa-DRvpbWAsGrXxpaYeDhvXq2k1qHx91y6aLy6NDJo6Ox7EqgsqgAMqKwCiBXPfha_3jSuq5VKVmz-hCBprrr1YfQq3d4Qp9MOsEpcITRveXezmRmrAFICJStQC_y2VJvkH0KTPgRMfefU8DO96xBJXUI4QWNUBhsrS-Qv-MUxABNwvsoesNenIDQcFPTVhhJzxJFq-jR64JhE54mlGK-qF_qkJ1zbqxQuRHOoetYhs6a7axMrVZf7Er2jkjBir96MZuhqrcBOXbplFClZQvk-TnsnUONb936K5KXy-G_?></g></svg>