<svg xmlns="http://www.w3.org/2000/svg" xmlns:xlink="http://www.w3.org/1999/xlink" version="1.1" data-diagram-type="SEQUENCE" style="width:1132px;height:794px;background:#FFFFFF;" width="1132px" height="794px" viewBox="0 0 1132 794" zoomAndPan="magnify" preserveAspectRatio="none" contentStyleType="text/css"><?plantuml 1.2026.7beta8?><defs/><g font-family="sans-serif" lengthAdjust="spacing"><g class="title" data-source-line="1"><text x="299.953" y="27.995" fill="#000" font-size="14" textLength="530.838" font-weight="700">Diagrama de Secuencia - Crear Usuario (Vue 3 + Express + Prisma)</text></g><g><title>Administrador</title><rect x="59.04" y="125.891" width="8" height="578.594" fill="#000" fill-opacity="0"/><line x1="62.54" y1="125.891" x2="62.54" y2="704.484" style="stroke:#181818;stroke-width:0.5;stroke-dasharray:5,5;"/></g><g><title>Frontend</title><rect x="296.91" y="125.891" width="8" height="578.594" fill="#000" fill-opacity="0"/><line x1="300.41" y1="125.891" x2="300.41" y2="704.484" style="stroke:#181818;stroke-width:0.5;stroke-dasharray:5,5;"/></g><g><title></title><rect x="295.41" y="170.156" width="10" height="368.992" fill="#FFF" style="stroke:#181818;stroke-width:1;"/></g><g><title>UsuarioController</title><rect x="540.67" y="125.891" width="8" height="578.594" fill="#000" fill-opacity="0"/><line x1="544.17" y1="125.891" x2="544.17" y2="704.484" style="stroke:#181818;stroke-width:0.5;stroke-dasharray:5,5;"/></g><g><title></title><rect x="539.17" y="214.422" width="10" height="295.594" fill="#FFF" style="stroke:#181818;stroke-width:1;"/></g><g><title>UsuarioService</title><rect x="860.723" y="125.891" width="8" height="578.594" fill="#000" fill-opacity="0"/><line x1="864.223" y1="125.891" x2="864.223" y2="704.484" style="stroke:#181818;stroke-width:0.5;stroke-dasharray:5,5;"/></g><g><title></title><rect x="859.223" y="243.555" width="10" height="222.195" fill="#FFF" style="stroke:#181818;stroke-width:1;"/></g><g><title>Base de Datos</title><rect x="1064.645" y="125.891" width="8" height="578.594" fill="#000" fill-opacity="0"/><line x1="1068.145" y1="125.891" x2="1068.145" y2="704.484" style="stroke:#181818;stroke-width:0.5;stroke-dasharray:5,5;"/></g><g><title></title><rect x="1063.145" y="287.82" width="10" height="29.133" fill="#FFF" style="stroke:#181818;stroke-width:1;"/></g><g><title></title><rect x="1063.145" y="407.484" width="10" height="29.133" fill="#FFF" style="stroke:#181818;stroke-width:1;"/></g><text x="10" y="122.589" fill="#000" font-size="14" textLength="99.08">Administrador</text><ellipse cx="62.54" cy="58.094" rx="8" ry="8" fill="#E2E2F0" style="stroke:#181818;stroke-width:0.5;"/><path d="M62.54,66.094 L62.54,93.094 M49.54,74.094 L75.54,74.094 M62.54,93.094 L49.54,108.094 M62.54,93.094 L75.54,108.094" style="stroke:#181818;stroke-width:0.5;" fill="none"/><rect x="261.855" y="78.297" width="77.109" height="46.594" fill="#E2E2F0" style="stroke:#181818;stroke-width:0.5;" rx="2.5" ry="2.5"/><text x="268.855" y="98.292" fill="#000" font-size="14" textLength="63.109">Frontend</text><text x="274.737" y="114.589" fill="#000" font-size="14" textLength="51.345">(Vue 3)</text><rect x="475.981" y="94.594" width="136.377" height="30.297" fill="#E2E2F0" style="stroke:#181818;stroke-width:0.5;" rx="2.5" ry="2.5"/><text x="482.981" y="114.589" fill="#000" font-size="14" textLength="122.377">UsuarioController</text><rect x="804.75" y="94.594" width="118.945" height="30.297" fill="#E2E2F0" style="stroke:#181818;stroke-width:0.5;" rx="2.5" ry="2.5"/><text x="811.75" y="114.589" fill="#000" font-size="14" textLength="104.945">UsuarioService</text><text x="1014.545" y="106.292" fill="#000" font-size="14" textLength="101.199">Base de Datos</text><text x="1019.307" y="122.589" fill="#000" font-size="14" textLength="91.677">(PostgreSQL)</text><path d="M1050.145,57.297 C1050.145,47.297 1068.145,47.297 1068.145,47.297 C1068.145,47.297 1086.145,47.297 1086.145,57.297 L1086.145,83.297 C1086.145,93.297 1068.145,93.297 1068.145,93.297 C1068.145,93.297 1050.145,93.297 1050.145,83.297 L1050.145,57.297" style="stroke:#181818;stroke-width:0.5;" fill="#E2E2F0"/><path d="M1050.145,57.297 C1050.145,67.297 1068.145,67.297 1068.145,67.297 C1068.145,67.297 1086.145,67.297 1086.145,57.297" style="stroke:#181818;stroke-width:0.5;" fill="none"/><text x="10" y="717.479" fill="#000" font-size="14" textLength="99.08">Administrador</text><ellipse cx="62.54" cy="729.281" rx="8" ry="8" fill="#E2E2F0" style="stroke:#181818;stroke-width:0.5;"/><path d="M62.54,737.281 L62.54,764.281 M49.54,745.281 L75.54,745.281 M62.54,764.281 L49.54,779.281 M62.54,764.281 L75.54,779.281" style="stroke:#181818;stroke-width:0.5;" fill="none"/><rect x="261.855" y="704.484" width="77.109" height="46.594" fill="#E2E2F0" style="stroke:#181818;stroke-width:0.5;" rx="2.5" ry="2.5"/><text x="268.855" y="724.479" fill="#000" font-size="14" textLength="63.109">Frontend</text><text x="274.737" y="740.776" fill="#000" font-size="14" textLength="51.345">(Vue 3)</text><rect x="475.981" y="704.484" width="136.377" height="30.297" fill="#E2E2F0" style="stroke:#181818;stroke-width:0.5;" rx="2.5" ry="2.5"/><text x="482.981" y="724.479" fill="#000" font-size="14" textLength="122.377">UsuarioController</text><rect x="804.75" y="704.484" width="118.945" height="30.297" fill="#E2E2F0" style="stroke:#181818;stroke-width:0.5;" rx="2.5" ry="2.5"/><text x="811.75" y="724.479" fill="#000" font-size="14" textLength="104.945">UsuarioService</text><text x="1014.545" y="717.479" fill="#000" font-size="14" textLength="101.199">Base de Datos</text><text x="1019.307" y="733.776" fill="#000" font-size="14" textLength="91.677">(PostgreSQL)</text><path d="M1050.145,747.078 C1050.145,737.078 1068.145,737.078 1068.145,737.078 C1068.145,737.078 1086.145,737.078 1086.145,747.078 L1086.145,773.078 C1086.145,783.078 1068.145,783.078 1068.145,783.078 C1068.145,783.078 1050.145,783.078 1050.145,773.078 L1050.145,747.078" style="stroke:#181818;stroke-width:0.5;" fill="#E2E2F0"/><path d="M1050.145,747.078 C1050.145,757.078 1068.145,757.078 1068.145,757.078 C1068.145,757.078 1086.145,757.078 1086.145,747.078" style="stroke:#181818;stroke-width:0.5;" fill="none"/><polygon points="283.41,166.156,293.41,170.156,283.41,174.156,287.41,170.156" fill="#181818" style="stroke:#181818;stroke-width:1;stroke-linejoin:miter;stroke-miterlimit:10;"/><line x1="62.54" y1="170.156" x2="289.41" y2="170.156" style="stroke:#181818;stroke-width:1;"/><text x="69.54" y="149.958" fill="#000" font-size="13" textLength="208.87">ingresa datos del nuevo usuario</text><text x="69.54" y="165.09" fill="#000" font-size="13" textLength="200.097">(nombre, email, password, rol)</text><polygon points="527.17,210.422,537.17,214.422,527.17,218.422,531.17,214.422" fill="#181818" style="stroke:#181818;stroke-width:1;stroke-linejoin:miter;stroke-miterlimit:10;"/><line x1="305.41" y1="214.422" x2="533.17" y2="214.422" style="stroke:#181818;stroke-width:1;"/><text x="312.41" y="194.223" fill="#000" font-size="13" textLength="167">POST /api/admin/usuarios</text><text x="312.41" y="209.356" fill="#000" font-size="13" textLength="214.76">{ nombre, email, password, rol }</text><polygon points="847.223,239.555,857.223,243.555,847.223,247.555,851.223,243.555" fill="#181818" style="stroke:#181818;stroke-width:1;stroke-linejoin:miter;stroke-miterlimit:10;"/><line x1="549.17" y1="243.555" x2="853.223" y2="243.555" style="stroke:#181818;stroke-width:1;"/><text x="556.17" y="238.489" fill="#000" font-size="13" textLength="291.053">createUsuario(nombre, email, password, rol)</text><polygon points="1051.145,283.82,1061.145,287.82,1051.145,291.82,1055.145,287.82" fill="#181818" style="stroke:#181818;stroke-width:1;stroke-linejoin:miter;stroke-miterlimit:10;"/><line x1="869.223" y1="287.82" x2="1057.145" y2="287.82" style="stroke:#181818;stroke-width:1;"/><text x="876.223" y="267.622" fill="#000" font-size="13" textLength="172.244">SELECT * FROM [tabla_rol]</text><text x="876.223" y="282.754" fill="#000" font-size="13" textLength="114.131">WHERE email = ?</text><polygon points="880.223,312.953,870.223,316.953,880.223,320.953,876.223,316.953" fill="#181818" style="stroke:#181818;stroke-width:1;stroke-linejoin:miter;stroke-miterlimit:10;"/><line x1="874.223" y1="316.953" x2="1062.145" y2="316.953" style="stroke:#181818;stroke-width:1;stroke-dasharray:2,2;"/><text x="886.223" y="311.887" fill="#000" font-size="13" textLength="126.153">Optional&lt;Usuario></text><path d="M46.54,328.953 L110.983,328.953 L110.983,336.086 L100.983,346.086 L46.54,346.086 L46.54,328.953" style="stroke:#000;stroke-width:1.5;" fill="#EEE"/><rect x="46.54" y="328.953" width="1042.605" height="351.531" fill="none" style="stroke:#000;stroke-width:1.5;"/><text x="61.54" y="342.02" fill="#000" font-size="13" textLength="19.443" font-weight="700">alt</text><text x="125.983" y="341.164" fill="#000" font-size="11" textLength="93.887" font-weight="700">[no registrado]</text><line x1="46.54" y1="558.148" x2="1089.145" y2="558.148" style="stroke:#000;stroke-width:1;stroke-dasharray:2,2;"/><text x="51.54" y="570.359" fill="#000" font-size="11" textLength="93.092" font-weight="700">[ya registrado]</text><polygon points="1051.145,403.484,1061.145,407.484,1051.145,411.484,1055.145,407.484" fill="#181818" style="stroke:#181818;stroke-width:1;stroke-linejoin:miter;stroke-miterlimit:10;"/><line x1="869.223" y1="407.484" x2="1057.145" y2="407.484" style="stroke:#181818;stroke-width:1;"/><text x="876.223" y="372.153" fill="#000" font-size="13" textLength="153.442">INSERT INTO [tabla_rol]</text><text x="876.223" y="387.286" fill="#000" font-size="13" textLength="174.922">(nombre, email, password)</text><text x="876.223" y="402.418" fill="#000" font-size="13" textLength="102.515">VALUES (?, ?, ?)</text><polygon points="880.223,432.617,870.223,436.617,880.223,440.617,876.223,436.617" fill="#181818" style="stroke:#181818;stroke-width:1;stroke-linejoin:miter;stroke-miterlimit:10;"/><line x1="874.223" y1="436.617" x2="1062.145" y2="436.617" style="stroke:#181818;stroke-width:1;stroke-dasharray:2,2;"/><text x="886.223" y="431.551" fill="#000" font-size="13" textLength="138.106">usuarioCreado : [Rol]</text><polygon points="560.17,461.75,550.17,465.75,560.17,469.75,556.17,465.75" fill="#181818" style="stroke:#181818;stroke-width:1;stroke-linejoin:miter;stroke-miterlimit:10;"/><line x1="554.17" y1="465.75" x2="858.223" y2="465.75" style="stroke:#181818;stroke-width:1;stroke-dasharray:2,2;"/><text x="566.17" y="460.684" fill="#000" font-size="13" textLength="138.106">usuarioCreado : [Rol]</text><polygon points="316.41,506.016,306.41,510.016,316.41,514.016,312.41,510.016" fill="#181818" style="stroke:#181818;stroke-width:1;stroke-linejoin:miter;stroke-miterlimit:10;"/><line x1="310.41" y1="510.016" x2="538.17" y2="510.016" style="stroke:#181818;stroke-width:1;stroke-dasharray:2,2;"/><text x="322.41" y="489.817" fill="#000" font-size="13" textLength="80.679">201 Created</text><text x="322.41" y="504.95" fill="#000" font-size="13" textLength="119.526">{ usuarioCreado }</text><polygon points="73.54,535.148,63.54,539.148,73.54,543.148,69.54,539.148" fill="#181818" style="stroke:#181818;stroke-width:1;stroke-linejoin:miter;stroke-miterlimit:10;"/><line x1="67.54" y1="539.148" x2="294.41" y2="539.148" style="stroke:#181818;stroke-width:1;stroke-dasharray:2,2;"/><text x="79.54" y="534.083" fill="#000" font-size="13" textLength="197.05">usuario creado correctamente</text><polygon points="555.17,595.086,545.17,599.086,555.17,603.086,551.17,599.086" fill="#181818" style="stroke:#181818;stroke-width:1;stroke-linejoin:miter;stroke-miterlimit:10;"/><line x1="549.17" y1="599.086" x2="863.223" y2="599.086" style="stroke:#181818;stroke-width:1;stroke-dasharray:2,2;"/><text x="561.17" y="594.02" fill="#000" font-size="13" textLength="222.289">throw Error("Email ya registrado")</text><polygon points="311.41,639.352,301.41,643.352,311.41,647.352,307.41,643.352" fill="#181818" style="stroke:#181818;stroke-width:1;stroke-linejoin:miter;stroke-miterlimit:10;"/><line x1="305.41" y1="643.352" x2="543.17" y2="643.352" style="stroke:#181818;stroke-width:1;stroke-dasharray:2,2;"/><text x="317.41" y="623.153" fill="#000" font-size="13" textLength="111.604">400 Bad Request</text><text x="317.41" y="638.286" fill="#000" font-size="13" textLength="207.029">{ message: "Email ya en uso" }</text><polygon points="73.54,668.484,63.54,672.484,73.54,676.484,69.54,672.484" fill="#181818" style="stroke:#181818;stroke-width:1;stroke-linejoin:miter;stroke-miterlimit:10;"/><line x1="67.54" y1="672.484" x2="299.41" y2="672.484" style="stroke:#181818;stroke-width:1;stroke-dasharray:2,2;"/><text x="79.54" y="667.418" fill="#000" font-size="13" textLength="205.232">Mostrar error "Email ya en uso"</text><?plantuml-src ZLHTRzf047o_Nx7o4sv1q8-dg4qKm54haK8nIHz2LMti5Jt9ldFlpYHLbV_UFMEmJP8s5ZA-y-xCxEoUdNGPmLJYnc2Ea1B4b9Ia4eamW8aXD71bIpHIG--w97W7ho6wBmnPoqyB8ssEeH2OE6qWE4zpgQHr1bDj0a0BrOueq3YPo0ALW-32QEL8fMkrGmohmFrkDxRcdl0xexECTg3DyidecCnM9bI5riyYHOUtQ0c2iRzpeLDqshA6XRPkOoZ-Eji9cOw5g5J3uFIW2av0Aewox97FOu0CL4bR3UMEb96KpcyDzO5ob5aV2hJsJfkq3wmrz1R9BJfgAXK7T6PgQcAknJnUmH0BEKIlP5XpiDm_y2yMU6XeMYQ95ZXJrPumJy8DTbJRzbBzUql57eSXfsD6YwDPD5d1AxXOpY_XXWtFy0VdVb-hRv-YPRG3Xezmre2nsvmxwAYQ5qvgXTc7MjYfIAcT831pR0COsjIp9WJmTQpdyvSuMgxuRpNlgdckqd2jhizdLr4ClRC--5zO0RV9_VgHuhe__hoacjStI-QfGe-KTsGUT_r5A0Vt_NwxhzrfVJjwKnrVHwaVcYxqmp5eUrRygsOm6NLt60xogg5Xa4GRGud3d3Zq6B2PSShukFt6vvjrx8BxQVGTHCPeqmkYQc8wwK7udzBVZqOmnXIMzAiawtpvEN-kS4Cdq02Iue9qK7lnPC6NsZCQ8A_bSIhNfjA_?></g></svg>