<svg xmlns="http://www.w3.org/2000/svg" xmlns:xlink="http://www.w3.org/1999/xlink" contentStyleType="text/css" data-diagram-type="DESCRIPTION" height="435px" preserveAspectRatio="none" style="width:946px;height:435px;background:#FFFFFF;" version="1.1" viewBox="0 0 946 435" width="946px" zoomAndPan="magnify"><?plantuml 1.2026.5?><defs/><g><!--cluster crearSesionClase--><g class="cluster" data-qualified-name="crearSesionClase" data-source-line="7" id="ent0004"><path d="M8.5,106.3 L157.9902,106.3 A3.75,3.75 0 0 1 160.4902,108.8 L167.4902,128.5969 L410.5,128.5969 A2.5,2.5 0 0 1 413,131.0969 L413,417.69 A2.5,2.5 0 0 1 410.5,420.19 L8.5,420.19 A2.5,2.5 0 0 1 6,417.69 L6,108.8 A2.5,2.5 0 0 1 8.5,106.3" fill="none" style="stroke:#000000;stroke-width:1.5;"/><line style="stroke:#000000;stroke-width:1.5;" x1="6" x2="167.4902" y1="128.5969" y2="128.5969"/><text fill="#000000" font-family="sans-serif" font-size="14" font-weight="700" lengthAdjust="spacing" textLength="148.4902" x="10" y="121.2951">crearSesionClase()</text></g><!--entity CrearSesionView--><g class="entity" data-qualified-name="crearSesionClase.CrearSesionView" data-source-line="8" id="ent0005"><rect fill="#629EF9" height="36.2969" rx="2.5" ry="2.5" style="stroke:#181818;stroke-width:0.5;" width="138.1318" x="258.93" y="141.3"/><text fill="#000000" font-family="sans-serif" font-size="14" lengthAdjust="spacing" textLength="118.1318" x="268.93" y="164.2951">CrearSesionView</text></g><!--entity SesionClaseController--><g class="entity" data-qualified-name="crearSesionClase.SesionClaseController" data-source-line="9" id="ent0006"><rect fill="#B5BD68" height="36.2969" rx="2.5" ry="2.5" style="stroke:#181818;stroke-width:0.5;" width="173.4463" x="23.28" y="254.6"/><text fill="#000000" font-family="sans-serif" font-size="14" lengthAdjust="spacing" textLength="153.4463" x="33.28" y="277.5951">SesionClaseController</text></g><!--entity SesionClaseRepository--><g class="entity" data-qualified-name="crearSesionClase.SesionClaseRepository" data-source-line="10" id="ent0007"><rect fill="#F2AC4E" height="36.2969" rx="2.5" ry="2.5" style="stroke:#181818;stroke-width:0.5;" width="179.3457" x="22.33" y="367.89"/><text fill="#000000" font-family="sans-serif" font-size="14" lengthAdjust="spacing" textLength="159.3457" x="32.33" y="390.8851">SesionClaseRepository</text></g><!--entity PanelProfesor--><g class="entity" data-qualified-name="PanelProfesor" data-source-line="3" id="ent0001"><rect fill="#CDEBA5" height="36.2969" rx="2.5" ry="2.5" style="stroke:#181818;stroke-width:0.5;" width="152.5762" x="251.71" y="7"/><text fill="#000000" font-family="sans-serif" font-size="14" lengthAdjust="spacing" textLength="132.5762" x="261.71" y="29.9951">:PANEL_PROFESOR</text></g><!--entity SesionActiva--><g class="entity" data-qualified-name="SesionActiva" data-source-line="4" id="ent0002"><rect fill="#CDEBA5" height="36.2969" rx="2.5" ry="2.5" style="stroke:#181818;stroke-width:0.5;" width="187.0293" x="429.49" y="254.6"/><text fill="#000000" font-family="sans-serif" font-size="14" lengthAdjust="spacing" textLength="167.0293" x="439.49" y="277.5951">:SESION_CLASE_ACTIVA</text></g><!--entity CompletarGestion--><g class="entity" data-qualified-name="CompletarGestion" data-source-line="5" id="ent0003"><rect fill="#CDEBA5" height="36.2969" rx="2.5" ry="2.5" style="stroke:#181818;stroke-width:0.5;" width="249.2363" x="651.38" y="254.6"/><text fill="#000000" font-family="sans-serif" font-size="14" lengthAdjust="spacing" textLength="229.2363" x="661.38" y="277.5951">:Collaboration CompletarGestion</text></g><!--link PanelProfesor to CrearSesionView--><g class="link" data-entity-1="ent0001" data-entity-2="ent0005" data-link-type="dependency" data-source-line="13" id="lnk8"><path d="M328,43.72 C328,69.02 328,110.46 328,135.81" fill="none" id="PanelProfesor-to-CrearSesionView" style="stroke:#181818;stroke-width:1;"/><polygon fill="#181818" points="328,140.81,332,131.81,328,135.81,324,131.81,328,140.81" style="stroke:#181818;stroke-width:1;stroke-linejoin:miter;stroke-miterlimit:10;"/><text fill="#000000" font-family="sans-serif" font-size="13" lengthAdjust="spacing" textLength="122.1987" x="329" y="86.3669">crearSesionClase()</text></g><!--link CrearSesionView to SesionClaseController--><g class="link" data-entity-1="ent0005" data-entity-2="ent0006" data-link-type="dependency" data-source-line="15" id="lnk9"><path d="M258.48,172.96 C180.86,186.93 66,207.6 66,207.6 C66,207.6 66,224.6 66,224.6 C66,224.6 77.6993,237.1239 90.2093,250.5339" fill="none" id="CrearSesionView-to-SesionClaseController" style="stroke:#181818;stroke-width:1;"/><polygon fill="#181818" points="93.62,254.19,90.4056,244.8805,90.2093,250.5339,84.5558,250.3376,93.62,254.19" style="stroke:#181818;stroke-width:1;stroke-linejoin:miter;stroke-miterlimit:10;"/><text fill="#000000" font-family="sans-serif" font-size="13" lengthAdjust="spacing" textLength="338.7554" x="67" y="220.6669">aperturarNuevaSesion(asignaturaId, aula, duracion)</text></g><!--link SesionClaseController to SesionClaseRepository--><g class="link" data-entity-1="ent0006" data-entity-2="ent0007" data-link-type="dependency" data-source-line="16" id="lnk10"><path d="M110.31,291.13 C110.69,311.92 111.2215,341.5108 111.5915,362.4108" fill="none" id="SesionClaseController-to-SesionClaseRepository" style="stroke:#181818;stroke-width:1;"/><polygon fill="#181818" points="111.68,367.41,115.5201,358.3406,111.5915,362.4108,107.5213,358.4822,111.68,367.41" style="stroke:#181818;stroke-width:1;stroke-linejoin:miter;stroke-miterlimit:10;"/><text fill="#000000" font-family="sans-serif" font-size="13" lengthAdjust="spacing" textLength="184.4502" x="113" y="333.9569">registrarInicioSesion(sesion)</text></g><!--link CrearSesionView to SesionActiva--><g class="link" data-entity-1="ent0005" data-entity-2="ent0002" data-link-type="dependency" data-source-line="18" id="lnk11"><path d="M358.9,178.08 C395.41,198.92 451.4573,230.9119 487.9073,251.7119" fill="none" id="CrearSesionView-to-SesionActiva" style="stroke:#181818;stroke-width:1;stroke-dasharray:7,7;"/><polygon fill="#181818" points="492.25,254.19,486.4157,246.2552,487.9073,251.7119,482.4507,253.2035,492.25,254.19" style="stroke:#181818;stroke-width:1;stroke-linejoin:miter;stroke-miterlimit:10;"/><text fill="#000000" font-family="sans-serif" font-size="13" lengthAdjust="spacing" textLength="109.6367" x="439" y="220.6669">&#171;include&#187; [&#233;xito]</text></g><!--link CrearSesionView to CompletarGestion--><g class="link" data-entity-1="ent0005" data-entity-2="ent0003" data-link-type="dependency" data-source-line="19" id="lnk12"><path d="M397.33,174.72 C464.73,188.6 557,207.6 557,207.6 C557,207.6 646.2316,233.7347 711.0716,252.7247" fill="none" id="CrearSesionView-to-CompletarGestion" style="stroke:#181818;stroke-width:1;stroke-dasharray:7,7;"/><polygon fill="#181818" points="715.87,254.13,708.3571,247.7616,711.0716,252.7247,706.1085,255.4391,715.87,254.13" style="stroke:#181818;stroke-width:1;stroke-linejoin:miter;stroke-miterlimit:10;"/><text fill="#000000" font-family="sans-serif" font-size="13" lengthAdjust="spacing" textLength="320.7344" x="610" y="220.6669">&#171;include&#187; completarGestion() [cancelaci&#243;n/error]</text></g><?plantuml-src RLBDIWCn4BxdAOPwQS4gY1QxI66DMocKjdJ5YqYPPiSIZCaoITKYFf1d7w4lPjeAjklc4ZBp_KqI_wnjYOmlOBIbi2e9IcTMcuCGJ2gWNHY28tcJNQSNq4WcwIWRpYRJSJ_BnzC6e8S9MZ8JTa_a7TUIyYmVZ4SpEKppR9RAky5zkcNcvBMpgGhw5Mk9qXc3SySO8WwaUoaD1UHRyfl2LgDQ5A94zOmB0iM4lBEG1Zrjq8rgiTbgm8U0kFRyEsVThDy5-OUzr_HMHSqlvaNd4lR4fBE1OsJYAhP_bihpR1yxfT9v7HolnASG1tS8xNQlQfx0_-H2L43GBYApDb02M1A79IEFblIAEr0JlLvOt9G7nJ7Wqk0n5F6aOhCbQfMswMe7IUB42-r3z1XO7IL-JVnsgubxSj8x-0C9N5rfgyooe5uF7jPVxr7tiPPMVVP3ggfqcoruK6WLcJZP-jkU4hFZnny0?></g></svg>