<svg xmlns="http://www.w3.org/2000/svg" xmlns:xlink="http://www.w3.org/1999/xlink" version="1.1" data-diagram-type="DESCRIPTION" style="width:975px;height:432px;background:#FFFFFF;" width="975px" height="432px" viewBox="0 0 975 432" zoomAndPan="magnify" preserveAspectRatio="none" contentStyleType="text/css"><?plantuml 1.2026.7beta8?><defs/><g font-family="sans-serif" lengthAdjust="spacing"><!--cluster crearSesionClase--><g class="cluster" data-qualified-name="crearSesionClase" id="ent0002" data-source-line="5"><path d="M246.72,6 L396.21,6 A3.75,3.75 0 0 1 398.71,8.5 L405.71,28.297 L957.72,28.297 A2.5,2.5 0 0 1 960.22,30.797 L960.22,414.69 A2.5,2.5 0 0 1 957.72,417.19 L246.72,417.19 A2.5,2.5 0 0 1 244.22,414.69 L244.22,8.5 A2.5,2.5 0 0 1 246.72,6" style="stroke:#000;stroke-width:1.5;" fill="none"/><line x1="244.22" y1="28.297" x2="405.71" y2="28.297" style="stroke:#000;stroke-width:1.5;"/><text x="248.22" y="20.995" fill="#000" font-size="14" textLength="148.49" font-weight="700">crearSesionClase()</text></g><!--entity CrearSesionClaseView--><g class="entity" data-qualified-name="crearSesionClase.CrearSesionClaseView" id="ent0003" data-source-line="6"><rect x="324.08" y="41" width="176.283" height="36.297" fill="#629EF9" style="stroke:#181818;stroke-width:0.5;" rx="2.5" ry="2.5"/><text x="334.08" y="63.995" fill="#000" font-size="14" textLength="156.283">CrearSesionClaseView</text></g><!--entity SesionClaseController--><g class="entity" data-qualified-name="crearSesionClase.SesionClaseController" id="ent0004" data-source-line="7"><rect x="352.49" y="154.3" width="173.446" height="36.297" fill="#B5BD68" style="stroke:#181818;stroke-width:0.5;" rx="2.5" ry="2.5"/><text x="362.49" y="177.295" fill="#000" font-size="14" textLength="153.446">SesionClaseController</text></g><!--entity AsignaturaRepository--><g class="entity" data-qualified-name="crearSesionClase.AsignaturaRepository" id="ent0005" data-source-line="8"><rect x="281.78" y="267.6" width="170.869" height="36.297" fill="#F2AC4E" style="stroke:#181818;stroke-width:0.5;" rx="2.5" ry="2.5"/><text x="291.78" y="290.595" fill="#000" font-size="14" textLength="150.869">AsignaturaRepository</text></g><!--entity SesionClaseRepository--><g class="entity" data-qualified-name="crearSesionClase.SesionClaseRepository" id="ent0006" data-source-line="9"><rect x="490.54" y="267.6" width="179.346" height="36.297" fill="#F2AC4E" style="stroke:#181818;stroke-width:0.5;" rx="2.5" ry="2.5"/><text x="500.54" y="290.595" fill="#000" font-size="14" textLength="159.346">SesionClaseRepository</text></g><!--entity Asignatura--><g class="entity" data-qualified-name="crearSesionClase.Asignatura" id="ent0007" data-source-line="10"><rect x="319.32" y="364.89" width="95.797" height="36.297" fill="#F2AC4E" style="stroke:#181818;stroke-width:0.5;" rx="2.5" ry="2.5"/><text x="329.32" y="387.885" fill="#000" font-size="14" textLength="75.797">Asignatura</text></g><!--entity SesionDeClase--><g class="entity" data-qualified-name="crearSesionClase.SesionDeClase" id="ent0008" data-source-line="11"><rect x="518.38" y="364.89" width="123.667" height="36.297" fill="#F2AC4E" style="stroke:#181818;stroke-width:0.5;" rx="2.5" ry="2.5"/><text x="528.38" y="387.885" fill="#000" font-size="14" textLength="103.667">SesionDeClase</text></g><!--entity AsistenciasAbierto--><g class="entity" data-qualified-name="AsistenciasAbierto" id="ent0001" data-source-line="3"><rect x="7" y="41" width="158.435" height="36.297" fill="#CDEBA5" style="stroke:#181818;stroke-width:0.5;" rx="2.5" ry="2.5"/><text x="17" y="63.995" fill="#000" font-size="14" textLength="138.435">:Asistencias Abierto</text></g><!--link AsistenciasAbierto to CrearSesionClaseView--><g class="link" data-entity-1="ent0001" data-entity-2="ent0003" id="lnk9" data-source-line="14" data-link-type="dependency"><path d="M165.55,59.15 C213.33,59.15 269.26,59.15 318.61,59.15" style="stroke:#181818;stroke-width:1;" fill="none" id="AsistenciasAbierto-to-CrearSesionClaseView"/><polygon points="323.61,59.15,314.61,55.15,318.61,59.15,314.61,63.15,323.61,59.15" fill="#181818" style="stroke:#181818;stroke-width:1;stroke-linejoin:miter;stroke-miterlimit:10;"/><text x="183.76" y="52.217" fill="#000" font-size="13" textLength="122.199">crearSesionClase()</text></g><!--link CrearSesionClaseView to SesionClaseController--><g class="link" data-entity-1="ent0003" data-entity-2="ent0004" id="lnk10" data-source-line="15" data-link-type="dependency"><path d="M367.53,77.71 C333.42,91.11 292.22,107.3 292.22,107.3 C292.22,107.3 292.22,124.3 292.22,124.3 C292.22,124.3 337.929,138.963 379.719,152.363" style="stroke:#181818;stroke-width:1;" fill="none" id="CrearSesionClaseView-to-SesionClaseController"/><polygon points="384.48,153.89,377.131,147.333,379.719,152.363,374.688,154.951,384.48,153.89" fill="#181818" style="stroke:#181818;stroke-width:1;stroke-linejoin:miter;stroke-miterlimit:10;"/><text x="293.22" y="120.367" fill="#000" font-size="13" textLength="195.603">cargarAsignaturas(profesorId)</text></g><!--link CrearSesionClaseView to SesionClaseController--><g class="link" data-entity-1="ent0003" data-entity-2="ent0004" id="lnk13" data-source-line="18" data-link-type="dependency"><path d="M442.38,77.71 C465.41,91.11 493.22,107.3 493.22,107.3 C493.22,107.3 493.22,124.3 493.22,124.3 C493.22,124.3 478.448,137.203 463.088,150.603" style="stroke:#181818;stroke-width:1;" fill="none" id="CrearSesionClaseView-to-SesionClaseController-1"/><polygon points="459.32,153.89,468.732,150.988,463.088,150.603,463.472,144.959,459.32,153.89" fill="#181818" style="stroke:#181818;stroke-width:1;stroke-linejoin:miter;stroke-miterlimit:10;"/><text x="494.22" y="120.367" fill="#000" font-size="13" textLength="410.376">crearSesionClase(asignaturaId, fecha, horaInicio, horaFin, tipo)</text></g><!--link SesionClaseController to AsignaturaRepository--><g class="link" data-entity-1="ent0004" data-entity-2="ent0005" id="lnk11" data-source-line="16" data-link-type="dependency"><path d="M411.29,191 C389.97,204.41 364.22,220.6 364.22,220.6 C364.22,220.6 364.22,237.6 364.22,237.6 C364.22,237.6 364.934,248.79 365.784,262.2" style="stroke:#181818;stroke-width:1;" fill="none" id="SesionClaseController-to-AsignaturaRepository"/><polygon points="366.1,267.19,369.523,257.955,365.784,262.2,361.539,258.461,366.1,267.19" fill="#181818" style="stroke:#181818;stroke-width:1;stroke-linejoin:miter;stroke-miterlimit:10;"/><text x="365.22" y="233.667" fill="#000" font-size="13" textLength="171.501">findByProfesor(profesorId)</text></g><!--link AsignaturaRepository to Asignatura--><g class="link" data-entity-1="ent0005" data-entity-2="ent0007" id="lnk12" data-source-line="17" data-link-type="association"><path d="M367.22,304.22 C367.22,321.42 367.22,347.52 367.22,364.67" style="stroke:#181818;stroke-width:1;" fill="none" id="AsignaturaRepository-Asignatura"/></g><!--link SesionClaseController to SesionClaseRepository--><g class="link" data-entity-1="ent0004" data-entity-2="ent0006" id="lnk14" data-source-line="19" data-link-type="dependency"><path d="M477.2,191 C506.2,204.41 541.22,220.6 541.22,220.6 C541.22,220.6 555.413,243.947 566.963,262.947" style="stroke:#181818;stroke-width:1;" fill="none" id="SesionClaseController-to-SesionClaseRepository"/><polygon points="569.56,267.22,568.303,257.452,566.963,262.947,561.467,261.607,569.56,267.22" fill="#181818" style="stroke:#181818;stroke-width:1;stroke-linejoin:miter;stroke-miterlimit:10;"/><text x="551.22" y="233.667" fill="#000" font-size="13" textLength="339.873">create(asignaturaId, fecha, horaInicio, horaFin, tipo)</text></g><!--link SesionClaseRepository to SesionDeClase--><g class="link" data-entity-1="ent0006" data-entity-2="ent0008" id="lnk15" data-source-line="20" data-link-type="association"><path d="M580.22,304.22 C580.22,321.42 580.22,347.52 580.22,364.67" style="stroke:#181818;stroke-width:1;" fill="none" id="SesionClaseRepository-SesionDeClase"/></g><?plantuml-src fPB1Ri8m38RlUGghku14BsYWmM5IAKNYDctIxgOrnQ9B8YVJL4rxzxK3ZL8ofcavsTQVp_QVk3rhYu8lKB4cNri2QwgwJPGIoZtgiYAuIPVP8fb0D4ySEqywPtIGR9Z4cmZQ-5G_bfMocE-n9CY5K9x8iT5fXOvQVTGl3eOHl2jeJgVjT3pBLZD8UzfdfhU-T3FP5DCxwAXIexsOgYBfQrVZ9BtDsfbBZVvLy96iSUoDr3z8EzXVjIViLTYIld3gGwbByo2M-3wuznmkdLCX8SH5WmZwqJ1GIfJJf6vWnMp96LaNGnMy17632rasXothOb4_70bdgD25XjGrwU_3zmt0RzYw6C6MyXsEO6UQL7FEvX2lM8_0ipNNzWk-yw6Z_rUVy-tFVi0d?></g></svg>