<svg xmlns="http://www.w3.org/2000/svg" xmlns:xlink="http://www.w3.org/1999/xlink" version="1.1" data-diagram-type="DESCRIPTION" style="width:1830px;height:432px;background:#FFFFFF;" width="1830px" height="432px" viewBox="0 0 1830 432" zoomAndPan="magnify" preserveAspectRatio="none" contentStyleType="text/css"><?plantuml 1.2026.7beta3?><defs/><g><!--cluster crearSesionClase--><g class="cluster" data-qualified-name="crearSesionClase" id="ent0003" data-source-line="6"><path d="M243.76,6 L393.2502,6 A3.75,3.75 0 0 1 395.7502,8.5 L402.7502,28.2969 L1489.76,28.2969 A2.5,2.5 0 0 1 1492.26,30.7969 L1492.26,414.69 A2.5,2.5 0 0 1 1489.76,417.19 L243.76,417.19 A2.5,2.5 0 0 1 241.26,414.69 L241.26,8.5 A2.5,2.5 0 0 1 243.76,6" style="stroke:#000000;stroke-width:1.5;" fill="none"/><line x1="241.26" y1="28.2969" x2="402.7502" y2="28.2969" style="stroke:#000000;stroke-width:1.5;"/><text x="245.26" y="20.9951" fill="#000000" font-size="14" lengthAdjust="spacing" textLength="148.4902" font-weight="700" font-family="sans-serif">crearSesionClase()</text></g><!--entity CrearSesionClaseView--><g class="entity" data-qualified-name="crearSesionClase.CrearSesionClaseView" id="ent0004" data-source-line="7"><rect x="569.12" y="41" width="176.2832" height="36.2969" fill="#629EF9" style="stroke:#181818;stroke-width:0.5;" rx="2.5" ry="2.5"/><text x="579.12" y="63.9951" fill="#000000" font-size="14" lengthAdjust="spacing" textLength="156.2832" font-family="sans-serif">CrearSesionClaseView</text></g><!--entity SesionClaseController--><g class="entity" data-qualified-name="crearSesionClase.SesionClaseController" id="ent0005" data-source-line="8"><rect x="570.53" y="154.3" width="173.4463" height="36.2969" fill="#B5BD68" style="stroke:#181818;stroke-width:0.5;" rx="2.5" ry="2.5"/><text x="580.53" y="177.2951" fill="#000000" font-size="14" lengthAdjust="spacing" textLength="153.4463" font-family="sans-serif">SesionClaseController</text></g><!--entity AsignaturaRepository--><g class="entity" data-qualified-name="crearSesionClase.AsignaturaRepository" id="ent0006" data-source-line="9"><rect x="413.82" y="267.6" width="170.8691" height="36.2969" fill="#F2AC4E" style="stroke:#181818;stroke-width:0.5;" rx="2.5" ry="2.5"/><text x="423.82" y="290.5951" fill="#000000" font-size="14" lengthAdjust="spacing" textLength="150.8691" font-family="sans-serif">AsignaturaRepository</text></g><!--entity SesionClaseRepository--><g class="entity" data-qualified-name="crearSesionClase.SesionClaseRepository" id="ent0007" data-source-line="10"><rect x="780.58" y="267.6" width="179.3457" height="36.2969" fill="#F2AC4E" style="stroke:#181818;stroke-width:0.5;" rx="2.5" ry="2.5"/><text x="790.58" y="290.5951" fill="#000000" font-size="14" lengthAdjust="spacing" textLength="159.3457" font-family="sans-serif">SesionClaseRepository</text></g><!--entity Asignatura--><g class="entity" data-qualified-name="crearSesionClase.Asignatura" id="ent0008" data-source-line="11"><rect x="451.36" y="364.89" width="95.7969" height="36.2969" fill="#F2AC4E" style="stroke:#181818;stroke-width:0.5;" rx="2.5" ry="2.5"/><text x="461.36" y="387.8851" fill="#000000" font-size="14" lengthAdjust="spacing" textLength="75.7969" font-family="sans-serif">Asignatura</text></g><!--entity SesionDeClase--><g class="entity" data-qualified-name="crearSesionClase.SesionDeClase" id="ent0009" data-source-line="12"><rect x="808.42" y="364.89" width="123.667" height="36.2969" fill="#F2AC4E" style="stroke:#181818;stroke-width:0.5;" rx="2.5" ry="2.5"/><text x="818.42" y="387.8851" fill="#000000" font-size="14" lengthAdjust="spacing" textLength="103.667" font-family="sans-serif">SesionDeClase</text></g><!--entity DashboardProfesorAbierto--><g class="entity" data-qualified-name="DashboardProfesorAbierto" id="ent0001" data-source-line="3"><rect x="7" y="41" width="218.5156" height="36.2969" fill="#CDEBA5" style="stroke:#181818;stroke-width:0.5;" rx="2.5" ry="2.5"/><text x="17" y="63.9951" fill="#000000" font-size="14" lengthAdjust="spacing" textLength="198.5156" font-family="sans-serif">:Dashboard Profesor Abierto</text></g><!--entity RegistrarTomaAsistencia--><g class="entity" data-qualified-name="RegistrarTomaAsistencia" id="ent0002" data-source-line="4"><rect x="1507.76" y="154.3" width="296.9922" height="36.2969" fill="#CDEBA5" style="stroke:#181818;stroke-width:0.5;" rx="2.5" ry="2.5"/><text x="1517.76" y="177.2951" fill="#000000" font-size="14" lengthAdjust="spacing" textLength="276.9922" font-family="sans-serif">:Collaboration RegistrarTomaAsistencia</text></g><!--link DashboardProfesorAbierto to CrearSesionClaseView--><g class="link" data-entity-1="ent0001" data-entity-2="ent0004" id="lnk10" data-source-line="15" data-link-type="dependency"><path d="M225.74,59.15 C326.85,59.15 470.17,59.15 563.93,59.15" style="stroke:#181818;stroke-width:1;" fill="none" id="DashboardProfesorAbierto-to-CrearSesionClaseView"/><polygon points="568.93,59.15,559.93,55.15,563.93,59.15,559.93,63.15,568.93,59.15" fill="#181818" style="stroke:#181818;stroke-width:1;stroke-linejoin:miter;stroke-miterlimit:10;"/><text x="336.32" y="52.2169" fill="#000000" font-size="13" lengthAdjust="spacing" textLength="122.1987" font-family="sans-serif">crearSesionClase()</text></g><!--link CrearSesionClaseView to SesionClaseController--><g class="link" data-entity-1="ent0004" data-entity-2="ent0005" id="lnk11" data-source-line="17" data-link-type="dependency"><path d="M568.64,71.5 C459.75,85.46 289.26,107.3 289.26,107.3 C289.26,107.3 289.26,124.3 289.26,124.3 C289.26,124.3 456.2605,145.6947 565.0905,159.6347" style="stroke:#181818;stroke-width:1;" fill="none" id="CrearSesionClaseView-to-SesionClaseController"/><polygon points="570.05,160.27,561.6311,155.159,565.0905,159.6347,560.6147,163.0941,570.05,160.27" fill="#181818" style="stroke:#181818;stroke-width:1;stroke-linejoin:miter;stroke-miterlimit:10;"/><text x="290.26" y="120.3669" fill="#000000" font-size="13" lengthAdjust="spacing" textLength="323.1401" font-family="sans-serif">cargarAsignaturas(profesorId) : List&lt;Asignatura></text></g><!--link CrearSesionClaseView to SesionClaseController--><g class="link" data-entity-1="ent0004" data-entity-2="ent0005" id="lnk14" data-source-line="23" data-link-type="dependency"><path d="M656.14,77.71 C655.29,91.11 654.26,107.3 654.26,107.3 C654.26,107.3 654.26,124.3 654.26,124.3 C654.26,124.3 654.9735,135.5 655.8235,148.9" style="stroke:#181818;stroke-width:1;" fill="none" id="CrearSesionClaseView-to-SesionClaseController-1"/><polygon points="656.14,153.89,659.5622,144.6548,655.8235,148.9,651.5783,145.1613,656.14,153.89" fill="#181818" style="stroke:#181818;stroke-width:1;stroke-linejoin:miter;stroke-miterlimit:10;"/><text x="655.26" y="120.3669" fill="#000000" font-size="13" lengthAdjust="spacing" textLength="318.792" font-family="sans-serif">validarDatos(asignaturaId, fecha, aula) : boolean</text></g><!--link CrearSesionClaseView to SesionClaseController--><g class="link" data-entity-1="ent0004" data-entity-2="ent0005" id="lnk15" data-source-line="25" data-link-type="dependency"><path d="M745.82,73.16 C840.84,87.11 978.26,107.3 978.26,107.3 C978.26,107.3 978.26,124.3 978.26,124.3 C978.26,124.3 844.1369,144.0035 749.0769,157.9635" style="stroke:#181818;stroke-width:1;" fill="none" id="CrearSesionClaseView-to-SesionClaseController-2"/><polygon points="744.13,158.69,753.6157,161.3399,749.0769,157.9635,752.4533,153.4248,744.13,158.69" fill="#181818" style="stroke:#181818;stroke-width:1;stroke-linejoin:miter;stroke-miterlimit:10;"/><text x="979.26" y="120.3669" fill="#000000" font-size="13" lengthAdjust="spacing" textLength="457.9072" font-family="sans-serif">crearSesionClase(asignaturaId, fecha, aula, duracion) : SesionDeClase</text></g><!--link SesionClaseController to AsignaturaRepository--><g class="link" data-entity-1="ent0005" data-entity-2="ent0006" id="lnk12" data-source-line="19" data-link-type="dependency"><path d="M597.31,191 C551.53,204.41 496.26,220.6 496.26,220.6 C496.26,220.6 496.26,237.6 496.26,237.6 C496.26,237.6 496.9737,248.79 497.8237,262.2" style="stroke:#181818;stroke-width:1;" fill="none" id="SesionClaseController-to-AsignaturaRepository"/><polygon points="498.14,267.19,501.5627,257.955,497.8237,262.2,493.5787,258.4611,498.14,267.19" fill="#181818" style="stroke:#181818;stroke-width:1;stroke-linejoin:miter;stroke-miterlimit:10;"/><text x="497.26" y="233.6669" fill="#000000" font-size="13" lengthAdjust="spacing" textLength="329.7671" font-family="sans-serif">obtenerPorProfesor(profesorId) : List&lt;Asignatura></text></g><!--link AsignaturaRepository to Asignatura--><g class="link" data-entity-1="ent0006" data-entity-2="ent0008" id="lnk13" data-source-line="21" data-link-type="association"><path d="M499.26,304.22 C499.26,321.42 499.26,347.52 499.26,364.67" style="stroke:#181818;stroke-width:1;" fill="none" id="AsignaturaRepository-Asignatura"/></g><!--link SesionClaseController to SesionClaseRepository--><g class="link" data-entity-1="ent0005" data-entity-2="ent0007" id="lnk16" data-source-line="27" data-link-type="dependency"><path d="M722.05,191 C771.52,204.41 831.26,220.6 831.26,220.6 C831.26,220.6 845.4528,243.9475 857.0028,262.9475" style="stroke:#181818;stroke-width:1;" fill="none" id="SesionClaseController-to-SesionClaseRepository"/><polygon points="859.6,267.22,858.343,257.4517,857.0028,262.9475,851.507,261.6073,859.6,267.22" fill="#181818" style="stroke:#181818;stroke-width:1;stroke-linejoin:miter;stroke-miterlimit:10;"/><text x="841.26" y="233.6669" fill="#000000" font-size="13" lengthAdjust="spacing" textLength="379.6533" font-family="sans-serif">crear(asignaturaId, fecha, aula, duracion) : SesionDeClase</text></g><!--link SesionClaseRepository to SesionDeClase--><g class="link" data-entity-1="ent0007" data-entity-2="ent0009" id="lnk17" data-source-line="29" data-link-type="association"><path d="M870.26,304.22 C870.26,321.42 870.26,347.52 870.26,364.67" style="stroke:#181818;stroke-width:1;" fill="none" id="SesionClaseRepository-SesionDeClase"/></g><!--link CrearSesionClaseView to RegistrarTomaAsistencia--><g class="link" data-entity-1="ent0004" data-entity-2="ent0002" id="lnk18" data-source-line="31" data-link-type="dependency"><path d="M745.74,65.45 C951.59,77.76 1445.26,107.3 1445.26,107.3 C1445.26,107.3 1531.0762,133.3856 1593.5362,152.3756" style="stroke:#181818;stroke-width:1;stroke-dasharray:7,7;" fill="none" id="CrearSesionClaseView-to-RegistrarTomaAsistencia"/><polygon points="1598.32,153.83,1590.8727,147.385,1593.5362,152.3756,1588.5456,155.039,1598.32,153.83" fill="#181818" style="stroke:#181818;stroke-width:1;stroke-linejoin:miter;stroke-miterlimit:10;"/><text x="1496.26" y="120.3669" fill="#000000" font-size="13" lengthAdjust="spacing" textLength="318.6206" font-family="sans-serif">«include» registrarTomaAsistencia(sesionNueva)</text></g><?plantuml-src fPFHIyCm4CRVyrSSysM3pGTnecKKPhV1G4HKVB-sPmrckNB9b27-xsPZkbdJYTYdDlVrzzrzITopjZKABi1eItvL4zHiLkiFfOGAZxOo14VPP7ev7a8dcQ1xoXcbX1lXHt8iCCurYUSEe8ElycTrMuooCZO6SnRqcYtSKgMT5vHxNk3OXNUoXSODjgMcL8t5CrO4XH3A7Ra0oWmwMl_KQIvsUnruKn2UlMxEJYwciml86je7JQzDQJxCoxDps5DbRBs4AKYQsjd9E3kTGkYrikYNWhTKizEUPTKYtSF-gjrX3y8cjC6fTwNQDWO6CaYZqoVmCp-bOaeOb84HZIL0K2gKNSEkMsyxc9SzIE0gREPeLqwLYe9W42nYQIR0UJWD93SidxFzQX431OVzNFy-wGiQNQ9CqBFhuXTfNlRXaOedx0Ck3QuRofaDeMtpE11cSqTQRVfGXiKY2DU6tu_3WOIZXt3h-t-pxs4tTD4iZe_JjikVm6YaRM6M9QLfk09HKTTjWDTBUi7U1m00?></g></svg>