<svg xmlns="http://www.w3.org/2000/svg" xmlns:xlink="http://www.w3.org/1999/xlink" contentStyleType="text/css" data-diagram-type="DESCRIPTION" height="435px" preserveAspectRatio="none" style="width:992px;height:435px;background:#FFFFFF;" version="1.1" viewBox="0 0 992 435" width="992px" zoomAndPan="magnify"><?plantuml 1.2026.5?><defs/><g><!--cluster crearSolicitudDispensa--><g class="cluster" data-qualified-name="crearSolicitudDispensa" data-source-line="7" id="ent0004"><path d="M8.5,106.3 L204.4404,106.3 A3.75,3.75 0 0 1 206.9404,108.8 L213.9404,128.5969 L345.5,128.5969 A2.5,2.5 0 0 1 348,131.0969 L348,417.69 A2.5,2.5 0 0 1 345.5,420.19 L8.5,420.19 A2.5,2.5 0 0 1 6,417.69 L6,108.8 A2.5,2.5 0 0 1 8.5,106.3" fill="none" style="stroke:#000000;stroke-width:1.5;"/><line style="stroke:#000000;stroke-width:1.5;" x1="6" x2="213.9404" y1="128.5969" y2="128.5969"/><text fill="#000000" font-family="sans-serif" font-size="14" font-weight="700" lengthAdjust="spacing" textLength="194.9404" x="10" y="121.2951">crearSolicitudDispensa()</text></g><!--entity RegistrarDispensaView--><g class="entity" data-qualified-name="crearSolicitudDispensa.RegistrarDispensaView" data-source-line="8" id="ent0005"><rect fill="#629EF9" height="36.2969" rx="2.5" ry="2.5" style="stroke:#181818;stroke-width:0.5;" width="181.7314" x="150.13" y="141.3"/><text fill="#000000" font-family="sans-serif" font-size="14" lengthAdjust="spacing" textLength="161.7314" x="160.13" y="164.2951">RegistrarDispensaView</text></g><!--entity DispensaController--><g class="entity" data-qualified-name="crearSolicitudDispensa.DispensaController" data-source-line="9" id="ent0006"><rect fill="#B5BD68" height="36.2969" rx="2.5" ry="2.5" style="stroke:#181818;stroke-width:0.5;" width="153.3828" x="38.31" y="254.6"/><text fill="#000000" font-family="sans-serif" font-size="14" lengthAdjust="spacing" textLength="133.3828" x="48.31" y="277.5951">DispensaController</text></g><!--entity SolicitudDispensaRepository--><g class="entity" data-qualified-name="crearSolicitudDispensa.SolicitudDispensaRepository" data-source-line="10" id="ent0007"><rect fill="#F2AC4E" height="36.2969" rx="2.5" ry="2.5" style="stroke:#181818;stroke-width:0.5;" width="219.3496" x="22.33" y="367.89"/><text fill="#000000" font-family="sans-serif" font-size="14" lengthAdjust="spacing" textLength="199.3496" x="32.33" y="390.8851">SolicitudDispensaRepository</text></g><!--entity PanelSecretaria--><g class="entity" data-qualified-name="PanelSecretaria" data-source-line="3" id="ent0001"><rect fill="#CDEBA5" height="36.2969" rx="2.5" ry="2.5" style="stroke:#181818;stroke-width:0.5;" width="164.498" x="158.75" y="7"/><text fill="#000000" font-family="sans-serif" font-size="14" lengthAdjust="spacing" textLength="144.498" x="168.75" y="29.9951">:PANEL_SECRETARIA</text></g><!--entity DispensaInstitucional--><g class="entity" data-qualified-name="DispensaInstitucional" data-source-line="4" id="ent0002"><rect fill="#CDEBA5" height="36.2969" rx="2.5" ry="2.5" style="stroke:#181818;stroke-width:0.5;" width="307.1299" x="364.44" y="254.6"/><text fill="#000000" font-family="sans-serif" font-size="14" lengthAdjust="spacing" textLength="287.1299" x="374.44" y="277.5951">:DISPENSA_INSTITUCIONAL_REGISTRADA</text></g><!--entity CompletarGestion--><g class="entity" data-qualified-name="CompletarGestion" data-source-line="5" id="ent0003"><rect fill="#CDEBA5" height="36.2969" rx="2.5" ry="2.5" style="stroke:#181818;stroke-width:0.5;" width="249.2363" x="706.38" y="254.6"/><text fill="#000000" font-family="sans-serif" font-size="14" lengthAdjust="spacing" textLength="229.2363" x="716.38" y="277.5951">:Collaboration CompletarGestion</text></g><!--link PanelSecretaria to RegistrarDispensaView--><g class="link" data-entity-1="ent0001" data-entity-2="ent0005" data-link-type="dependency" data-source-line="13" id="lnk8"><path d="M241,43.72 C241,69.02 241,110.46 241,135.81" fill="none" id="PanelSecretaria-to-RegistrarDispensaView" style="stroke:#181818;stroke-width:1;"/><polygon fill="#181818" points="241,140.81,245,131.81,241,135.81,237,131.81,241,140.81" style="stroke:#181818;stroke-width:1;stroke-linejoin:miter;stroke-miterlimit:10;"/><text fill="#000000" font-family="sans-serif" font-size="13" lengthAdjust="spacing" textLength="159.3452" x="242" y="86.3669">crearSolicitudDispensa()</text></g><!--link RegistrarDispensaView to DispensaController--><g class="link" data-entity-1="ent0005" data-entity-2="ent0006" data-link-type="dependency" data-source-line="15" id="lnk9"><path d="M221.03,178.08 C197.44,198.92 162.1676,230.0801 138.6176,250.8801" fill="none" id="RegistrarDispensaView-to-DispensaController" style="stroke:#181818;stroke-width:1;"/><polygon fill="#181818" points="134.87,254.19,144.2636,251.2301,138.6176,250.8801,138.9677,245.234,134.87,254.19" style="stroke:#181818;stroke-width:1;stroke-linejoin:miter;stroke-miterlimit:10;"/><text fill="#000000" font-family="sans-serif" font-size="13" lengthAdjust="spacing" textLength="273.9585" x="187" y="220.6669">inyectarSolicitud DeOficio(datosDispensa)</text></g><!--link DispensaController to SolicitudDispensaRepository--><g class="link" data-entity-1="ent0006" data-entity-2="ent0007" data-link-type="dependency" data-source-line="16" id="lnk10"><path d="M117.66,291.13 C120.83,311.92 125.3533,341.5676 128.5533,362.4676" fill="none" id="DispensaController-to-SolicitudDispensaRepository" style="stroke:#181818;stroke-width:1;"/><polygon fill="#181818" points="129.31,367.41,131.9018,357.9083,128.5533,362.4676,123.994,359.1191,129.31,367.41" style="stroke:#181818;stroke-width:1;stroke-linejoin:miter;stroke-miterlimit:10;"/><text fill="#000000" font-family="sans-serif" font-size="13" lengthAdjust="spacing" textLength="171.5835" x="126" y="333.9569">guardarSolicitud(solicitud)</text></g><!--link RegistrarDispensaView to DispensaInstitucional--><g class="link" data-entity-1="ent0005" data-entity-2="ent0002" data-link-type="dependency" data-source-line="18" id="lnk11"><path d="M326.22,178.07 C390.98,191.46 469,207.6 469,207.6 C469,207.6 487.0653,231.2463 501.5753,250.2463" fill="none" id="RegistrarDispensaView-to-DispensaInstitucional" style="stroke:#181818;stroke-width:1;stroke-dasharray:7,7;"/><polygon fill="#181818" points="504.61,254.22,502.3266,244.6395,501.5753,250.2463,495.9686,249.495,504.61,254.22" style="stroke:#181818;stroke-width:1;stroke-linejoin:miter;stroke-miterlimit:10;"/><text fill="#000000" font-family="sans-serif" font-size="13" lengthAdjust="spacing" textLength="109.6367" x="482" y="220.6669">&#171;include&#187; [&#233;xito]</text></g><!--link RegistrarDispensaView to CompletarGestion--><g class="link" data-entity-1="ent0005" data-entity-2="ent0003" data-link-type="dependency" data-source-line="19" id="lnk12"><path d="M332.05,172.41 C438.41,186.37 600,207.6 600,207.6 C600,207.6 694.3723,233.8021 762.7523,252.7921" fill="none" id="RegistrarDispensaView-to-CompletarGestion" style="stroke:#181818;stroke-width:1;stroke-dasharray:7,7;"/><polygon fill="#181818" points="767.57,254.13,759.9685,247.8676,762.7523,252.7921,757.8279,255.5759,767.57,254.13" style="stroke:#181818;stroke-width:1;stroke-linejoin:miter;stroke-miterlimit:10;"/><text fill="#000000" font-family="sans-serif" font-size="13" lengthAdjust="spacing" textLength="320.7344" x="656" y="220.6669">&#171;include&#187; completarGestion() [cancelaci&#243;n/error]</text></g><?plantuml-src VL9VIyCm47_FfpZco_Qm2KD5Ymngsus2pD5MNyOOj_GSmPYK94E7-85yzYFiYzagqzbrozFbxdx_GkoJK0KQV0Of5BbrGL1ekQukZ1dY3jLI4fm4ONJZdqFBc_ZZw7QUHa4IPNuI-or02nDK95FYXXmQWOt0C4udqJZrv_4upUBiFeZlnlxjF8b6SPebVlZ350fRaB8OA-k4Mt6X5Sf6la1BYGjjq9Kx4EZdGbRg8x9LuvkitcIiGFw4IuBIAPfKIy5BaNmhMc5QpQDsfmLl3Cgpu-MYVnKDho2XfR3EeDakFmXwgUykpXVvnULlla0hPye4PEgBmxuVd4Mmvo2XGblXj5cpTyPgBmxTxg3PXmU70Z7M281kNdBj-_H0g7LbyuyBGhfxB4lTpj5fkyLqs3xws-2HJ1uiLsZo7VAstLO7dVPwW-OFuy7rjL1Shd8Q362w-NWjHMP7MEe_vJy1hqtR7PXoL9maSh7vLATaZ3QpBm00?></g></svg>