<svg xmlns="http://www.w3.org/2000/svg" xmlns:xlink="http://www.w3.org/1999/xlink" version="1.1" data-diagram-type="DESCRIPTION" style="width:1188px;height:432px;background:#FFFFFF;" width="1188px" height="432px" viewBox="0 0 1188 432" zoomAndPan="magnify" preserveAspectRatio="none" contentStyleType="text/css"><?plantuml 1.2026.7beta3?><defs/><g><!--cluster crearUsuario--><g class="cluster" data-qualified-name="crearUsuario" id="ent0003" data-source-line="6"><path d="M193.33,6 L308.6132,6 A3.75,3.75 0 0 1 311.1132,8.5 L318.1132,28.2969 L920.33,28.2969 A2.5,2.5 0 0 1 922.83,30.7969 L922.83,414.69 A2.5,2.5 0 0 1 920.33,417.19 L193.33,417.19 A2.5,2.5 0 0 1 190.83,414.69 L190.83,8.5 A2.5,2.5 0 0 1 193.33,6" style="stroke:#000000;stroke-width:1.5;" fill="none"/><line x1="190.83" y1="28.2969" x2="318.1132" y2="28.2969" style="stroke:#000000;stroke-width:1.5;"/><text x="194.83" y="20.9951" fill="#000000" font-size="14" lengthAdjust="spacing" textLength="114.2832" font-weight="700" font-family="sans-serif">crearUsuario()</text></g><!--entity CrearUsuarioView--><g class="entity" data-qualified-name="crearUsuario.CrearUsuarioView" id="ent0004" data-source-line="7"><rect x="395.22" y="41" width="145.2139" height="36.2969" fill="#629EF9" style="stroke:#181818;stroke-width:0.5;" rx="2.5" ry="2.5"/><text x="405.22" y="63.9951" fill="#000000" font-size="14" lengthAdjust="spacing" textLength="125.2139" font-family="sans-serif">CrearUsuarioView</text></g><!--entity UsuarioController--><g class="entity" data-qualified-name="crearUsuario.UsuarioController" id="ent0005" data-source-line="8"><rect x="319.64" y="154.3" width="142.377" height="36.2969" fill="#B5BD68" style="stroke:#181818;stroke-width:0.5;" rx="2.5" ry="2.5"/><text x="329.64" y="177.2951" fill="#000000" font-size="14" lengthAdjust="spacing" textLength="122.377" font-family="sans-serif">UsuarioController</text></g><!--entity UsuarioRepository--><g class="entity" data-qualified-name="crearUsuario.UsuarioRepository" id="ent0006" data-source-line="9"><rect x="327.69" y="267.6" width="148.2764" height="36.2969" fill="#F2AC4E" style="stroke:#181818;stroke-width:0.5;" rx="2.5" ry="2.5"/><text x="337.69" y="290.5951" fill="#000000" font-size="14" lengthAdjust="spacing" textLength="128.2764" font-family="sans-serif">UsuarioRepository</text></g><!--entity Usuario--><g class="entity" data-qualified-name="crearUsuario.Usuario" id="ent0007" data-source-line="10"><rect x="365.23" y="364.89" width="73.2041" height="36.2969" fill="#F2AC4E" style="stroke:#181818;stroke-width:0.5;" rx="2.5" ry="2.5"/><text x="375.23" y="387.8851" fill="#000000" font-size="14" lengthAdjust="spacing" textLength="53.2041" font-family="sans-serif">Usuario</text></g><!--entity PanelAdminAbierto--><g class="entity" data-qualified-name="PanelAdminAbierto" id="ent0001" data-source-line="3"><rect x="7" y="41" width="167.6563" height="36.2969" fill="#CDEBA5" style="stroke:#181818;stroke-width:0.5;" rx="2.5" ry="2.5"/><text x="17" y="63.9951" fill="#000000" font-size="14" lengthAdjust="spacing" textLength="147.6563" font-family="sans-serif">:Panel Admin Abierto</text></g><!--entity EditarUsuario--><g class="entity" data-qualified-name="EditarUsuario" id="ent0002" data-source-line="4"><rect x="939.27" y="154.3" width="217.1211" height="36.2969" fill="#CDEBA5" style="stroke:#181818;stroke-width:0.5;" rx="2.5" ry="2.5"/><text x="949.27" y="177.2951" fill="#000000" font-size="14" lengthAdjust="spacing" textLength="197.1211" font-family="sans-serif">:Collaboration EditarUsuario</text></g><!--link PanelAdminAbierto to CrearUsuarioView--><g class="link" data-entity-1="ent0001" data-entity-2="ent0004" id="lnk8" data-source-line="13" data-link-type="dependency"><path d="M174.97,59.15 C240.94,59.15 326.81,59.15 389.76,59.15" style="stroke:#181818;stroke-width:1;" fill="none" id="PanelAdminAbierto-to-CrearUsuarioView"/><polygon points="394.76,59.15,385.76,55.15,389.76,59.15,385.76,63.15,394.76,59.15" fill="#181818" style="stroke:#181818;stroke-width:1;stroke-linejoin:miter;stroke-miterlimit:10;"/><text x="238.44" y="52.2169" fill="#000000" font-size="13" lengthAdjust="spacing" textLength="93.3486" font-family="sans-serif">crearUsuario()</text></g><!--link CrearUsuarioView to UsuarioController--><g class="link" data-entity-1="ent0004" data-entity-2="ent0005" id="lnk9" data-source-line="15" data-link-type="dependency"><path d="M394.74,75.2 C327.72,89 238.83,107.3 238.83,107.3 C238.83,107.3 238.83,124.3 238.83,124.3 C238.83,124.3 286.2343,139.0093 329.4543,152.4093" style="stroke:#181818;stroke-width:1;" fill="none" id="CrearUsuarioView-to-UsuarioController"/><polygon points="334.23,153.89,326.8182,147.4042,329.4543,152.4093,324.4491,155.0454,334.23,153.89" fill="#181818" style="stroke:#181818;stroke-width:1;stroke-linejoin:miter;stroke-miterlimit:10;"/><text x="239.83" y="120.3669" fill="#000000" font-size="13" lengthAdjust="spacing" textLength="276.7515" font-family="sans-serif">validarDatos(nombre, email, rol) : boolean</text></g><!--link CrearUsuarioView to UsuarioController--><g class="link" data-entity-1="ent0004" data-entity-2="ent0005" id="lnk11" data-source-line="19" data-link-type="dependency"><path d="M487.56,77.71 C502.63,91.11 520.83,107.3 520.83,107.3 C520.83,107.3 520.83,124.3 520.83,124.3 C520.83,124.3 480.9006,138.7858 443.9406,152.1858" style="stroke:#181818;stroke-width:1;" fill="none" id="CrearUsuarioView-to-UsuarioController-1"/><polygon points="439.24,153.89,449.0645,154.5829,443.9406,152.1858,446.3377,147.0619,439.24,153.89" fill="#181818" style="stroke:#181818;stroke-width:1;stroke-linejoin:miter;stroke-miterlimit:10;"/><text x="521.83" y="120.3669" fill="#000000" font-size="13" lengthAdjust="spacing" textLength="345.3506" font-family="sans-serif">crearUsuario(nombre, email, password, rol) : Usuario</text></g><!--link UsuarioController to UsuarioRepository--><g class="link" data-entity-1="ent0005" data-entity-2="ent0006" id="lnk10" data-source-line="17" data-link-type="dependency"><path d="M341.3,191 C303.49,204.41 257.83,220.6 257.83,220.6 C257.83,220.6 257.83,237.6 257.83,237.6 C257.83,237.6 302.5184,252.2236 343.4584,265.6336" style="stroke:#181818;stroke-width:1;" fill="none" id="UsuarioController-to-UsuarioRepository"/><polygon points="348.21,267.19,340.9023,260.5872,343.4584,265.6336,338.412,268.1898,348.21,267.19" fill="#181818" style="stroke:#181818;stroke-width:1;stroke-linejoin:miter;stroke-miterlimit:10;"/><text x="258.83" y="233.6669" fill="#000000" font-size="13" lengthAdjust="spacing" textLength="220.5049" font-family="sans-serif">verificarUnicidad(email) : boolean</text></g><!--link UsuarioController to UsuarioRepository--><g class="link" data-entity-1="ent0005" data-entity-2="ent0006" id="lnk12" data-source-line="21" data-link-type="dependency"><path d="M425.46,191 C451.9,204.41 483.83,220.6 483.83,220.6 C483.83,220.6 483.83,237.6 483.83,237.6 C483.83,237.6 460.0145,251.2875 436.6945,264.6975" style="stroke:#181818;stroke-width:1;" fill="none" id="UsuarioController-to-UsuarioRepository-1"/><polygon points="432.36,267.19,442.156,266.1711,436.6945,264.6975,438.168,259.2359,432.36,267.19" fill="#181818" style="stroke:#181818;stroke-width:1;stroke-linejoin:miter;stroke-miterlimit:10;"/><text x="484.83" y="233.6669" fill="#000000" font-size="13" lengthAdjust="spacing" textLength="295.9468" font-family="sans-serif">crear(nombre, email, password, rol) : Usuario</text></g><!--link UsuarioRepository to Usuario--><g class="link" data-entity-1="ent0006" data-entity-2="ent0007" id="lnk13" data-source-line="23" data-link-type="association"><path d="M401.83,304.22 C401.83,321.42 401.83,347.52 401.83,364.67" style="stroke:#181818;stroke-width:1;" fill="none" id="UsuarioRepository-Usuario"/></g><!--link CrearUsuarioView to EditarUsuario--><g class="link" data-entity-1="ent0004" data-entity-2="ent0002" id="lnk14" data-source-line="25" data-link-type="dependency"><path d="M540.77,68.58 C658.13,82.14 875.83,107.3 875.83,107.3 C875.83,107.3 945.2151,133.1832 996.1451,152.1732" style="stroke:#181818;stroke-width:1;stroke-dasharray:7,7;" fill="none" id="CrearUsuarioView-to-EditarUsuario"/><polygon points="1000.83,153.92,993.7946,147.0277,996.1451,152.1732,990.9997,154.5236,1000.83,153.92" fill="#181818" style="stroke:#181818;stroke-width:1;stroke-linejoin:miter;stroke-miterlimit:10;"/><text x="917.83" y="120.3669" fill="#000000" font-size="13" lengthAdjust="spacing" textLength="254.6934" font-family="sans-serif">«include» editarUsuario(usuarioNuevo)</text></g><?plantuml-src bP9VQy8m5CNVyoaktKi5wuDCsOeKkbeVnnXixxVDdGJJfAIf8cFVVR4w-q_6bfUGatD_EJT9jHEgH8C5IA787ak2KilZQS6OeToYsag2ksITFiKByC8NL2GXveLG46U2ZDKUO0MDtiWNzMPregN4J1kqGYj8kR1etgeQZJXJUWfZ9UOxt1BaXgxgoUPr1N_YmIS3DpedBkUFwUOHaexlNT1XQCiM6Ly-mCMHQ6MDIqXcwDlCu-G-_V6zKgahORKv_kvZNuoDxWK24qIZO27qMs9iw820kxfHqX3sA0L7iqQhAr_f8ZCq1IfGo2aupmH2oBIMX8gnKJa4BRHjoq79Y0-HkmHAv0xF_OROWuqJtWxOwsmGiCIgEcZ3hr6lR__dg0t-tzoMuBZjxgYdsIpg_yeGLYkXSbbpYYAWxfPVd-VdclPwyWq0?></g></svg>