<?xml version="1.0" encoding="us-ascii" standalone="no"?><svg xmlns="http://www.w3.org/2000/svg" xmlns:xlink="http://www.w3.org/1999/xlink" contentStyleType="text/css" height="277px" preserveAspectRatio="none" style="width:344px;height:277px;background:#FFFFFF;" version="1.1" viewBox="0 0 344 277" width="344px" zoomAndPan="magnify"><defs/><g><text fill="#000000" font-family="sans-serif" font-size="14" font-weight="bold" lengthAdjust="spacing" textLength="223" x="53.5" y="24.5332">Casos de uso del Administrador</text><!--cluster Usuarios y roles--><g id="cluster_Usuarios y roles"><polygon fill="none" points="137,44.6094,256,44.6094,263,68.2188,327,68.2188,327,270.6094,137,270.6094,137,44.6094" style="stroke:#000000;stroke-width:1.5;"/><line style="stroke:#000000;stroke-width:1.5;" x1="137" x2="263" y1="68.2188" y2="68.2188"/><text fill="#000000" font-family="sans-serif" font-size="14" font-weight="bold" lengthAdjust="spacing" textLength="113" x="141" y="61.1426">Usuarios y roles</text></g><g id="elem_UsuariosCrear"><ellipse cx="231.8041" cy="97.4702" fill="#F1F1F1" rx="69.8041" ry="16.3608" style="stroke:#181818;stroke-width:0.5;"/><text fill="#000000" font-family="sans-serif" font-size="14" lengthAdjust="spacing" textLength="87" x="185.3041" y="101.9868">Crear usuario</text></g><g id="elem_UsuariosConsultar"><ellipse cx="232.0785" cy="167.8251" fill="#F1F1F1" rx="79.0785" ry="18.2157" style="stroke:#181818;stroke-width:0.5;"/><text fill="#000000" font-family="sans-serif" font-size="14" lengthAdjust="spacing" textLength="112" x="174.6751" y="171.9489">Consultar usuario</text></g><g id="elem_UsuariosEditar"><ellipse cx="232.1531" cy="237.54" fill="#F1F1F1" rx="70.1531" ry="16.4306" style="stroke:#181818;stroke-width:0.5;"/><text fill="#000000" font-family="sans-serif" font-size="14" lengthAdjust="spacing" textLength="88" x="185.1531" y="242.0566">Editar usuario</text></g><!--entity Administrador--><g id="elem_Administrador"><ellipse cx="49.5" cy="137.1094" fill="#F1F1F1" rx="8" ry="8" style="stroke:#181818;stroke-width:0.5;"/><path d="M49.5,145.1094 L49.5,172.1094 M36.5,153.1094 L62.5,153.1094 M49.5,172.1094 L36.5,187.1094 M49.5,172.1094 L62.5,187.1094 " fill="none" style="stroke:#181818;stroke-width:0.5;"/><text fill="#000000" font-family="sans-serif" font-size="14" lengthAdjust="spacing" textLength="87" x="6" y="203.1426">Administrador</text></g><!--link Administrador to UsuariosCrear--><g id="link_Administrador_UsuariosCrear"><path d="M93.33,146.9594 C104.81,141.6994 117.28,136.2294 129,131.6094 C148.27,123.9994 164.299,118.439 182.739,112.499 " fill="none" id="Administrador-to-UsuariosCrear" style="stroke:#181818;stroke-width:1.0;"/><polygon fill="#181818" points="188.45,110.6594,178.657,109.6115,183.6908,112.1924,181.1099,117.2262,188.45,110.6594" style="stroke:#181818;stroke-width:1.0;"/></g><!--link Administrador to UsuariosConsultar--><g id="link_Administrador_UsuariosConsultar"><path d="M93.28,167.6094 C111.1,167.6094 126.38,167.6094 146.82,167.6094 " fill="none" id="Administrador-to-UsuariosConsultar" style="stroke:#181818;stroke-width:1.0;"/><polygon fill="#181818" points="152.82,167.6094,143.82,163.6094,147.82,167.6094,143.82,171.6094,152.82,167.6094" style="stroke:#181818;stroke-width:1.0;"/></g><!--link Administrador to UsuariosEditar--><g id="link_Administrador_UsuariosEditar"><path d="M93.4,187.5594 C104.88,192.6694 117.34,198.0194 129,202.6094 C148.69,210.3594 165.1779,216.192 183.8079,222.402 " fill="none" id="Administrador-to-UsuariosEditar" style="stroke:#181818;stroke-width:1.0;"/><polygon fill="#181818" points="189.5,224.2994,182.2268,217.6586,184.7566,222.7182,179.6969,225.2481,189.5,224.2994" style="stroke:#181818;stroke-width:1.0;"/></g><!--SRC=[VOv12eD034NtEKLmxnKAHNg3zW1XPcg3uumacOMKths3Oa71PXF2Vp__tzbYm8uqA_g0HNDT4Qz-vCHgGZuBnF0qj8p2_SlGimHdd1Fem6aYeH7LvlgcykoiZ160d6Kvl869t41zmEQXXOHhv8oIOz06tu1rYWP7Me5E0aaz5wn1KjmiYtA0Sz8IxSomgNlJpVEPOvNW0x3hZsrxETJue_zIpvarvmi0]--></g></svg>