<?plantuml 1.2026.1beta5?><svg xmlns="http://www.w3.org/2000/svg" xmlns:xlink="http://www.w3.org/1999/xlink" contentStyleType="text/css" data-diagram-type="DESCRIPTION" height="457px" preserveAspectRatio="none" style="width:554px;height:457px;background:#FFFFFF;" version="1.1" viewBox="0 0 554 457" width="554px" zoomAndPan="magnify"><title>Casos de uso del Administrador</title><defs/><g><g class="title" data-source-line="1"><text fill="#000000" font-family="sans-serif" font-size="14" font-weight="bold" lengthAdjust="spacing" textLength="250.1816" x="145.3092" y="22.9951">Casos de uso del Administrador</text></g><!--cluster Usuarios y roles--><g class="cluster" data-qualified-name="Usuarios y roles" data-source-line="17" id="ent0011"><rect fill="none" height="222" rx="2.5" ry="2.5" style="stroke:#181818;stroke-width:1;" width="190.7" x="358.1" y="126.9469"/><text fill="#000000" font-family="sans-serif" font-size="14" font-weight="bold" lengthAdjust="spacing" textLength="126.793" x="390.0535" y="141.942">Usuarios y roles</text></g><!--entity UsuariosCrear--><g class="entity" data-qualified-name="Usuarios y roles.UsuariosCrear" data-source-line="18" id="ent0012"><ellipse cx="453.4529" cy="316.9474" fill="#F1F1F1" rx="67.7029" ry="15.9406" style="stroke:#181818;stroke-width:0.5;"/><text fill="#000000" font-family="sans-serif" font-size="14" lengthAdjust="spacing" textLength="100.5293" x="403.1882" y="321.5959">crearUsuario()</text></g><!--entity UsuariosConsultar--><g class="entity" data-qualified-name="Usuarios y roles.UsuariosConsultar" data-source-line="19" id="ent0013"><ellipse cx="453.4512" cy="247.9471" fill="#F1F1F1" rx="79.3512" ry="18.2702" style="stroke:#181818;stroke-width:0.5;"/><text fill="#000000" font-family="sans-serif" font-size="14" lengthAdjust="spacing" textLength="129.1445" x="388.8789" y="252.5955">consultarUsuario()</text></g><!--entity UsuariosEditar--><g class="entity" data-qualified-name="Usuarios y roles.UsuariosEditar" data-source-line="20" id="ent0014"><ellipse cx="453.4494" cy="177.9448" fill="#F1F1F1" rx="69.5894" ry="16.3179" style="stroke:#181818;stroke-width:0.5;"/><text fill="#000000" font-family="sans-serif" font-size="14" lengthAdjust="spacing" textLength="105.3418" x="400.7785" y="182.5932">editarUsuario()</text></g><!--entity Alumno--><g class="entity" data-qualified-name="Alumno" data-source-line="5" id="ent0002"><ellipse cx="80.508" cy="51.2969" fill="#F1F1F1" rx="8" ry="8" style="stroke:#181818;stroke-width:0.5;"/><path d="M80.508,59.2969 L80.508,86.2969 M67.508,67.2969 L93.508,67.2969 M80.508,86.2969 L67.508,101.2969 M80.508,86.2969 L93.508,101.2969" fill="none" style="stroke:#181818;stroke-width:0.5;"/><text fill="#000000" font-family="sans-serif" font-size="14" lengthAdjust="spacing" textLength="53.416" x="53.8" y="115.792">Alumno</text></g><!--entity Profesor--><g class="entity" data-qualified-name="Profesor" data-source-line="6" id="ent0003"><ellipse cx="80.5104" cy="162.2969" fill="#F1F1F1" rx="8" ry="8" style="stroke:#181818;stroke-width:0.5;"/><path d="M80.5104,170.2969 L80.5104,197.2969 M67.5104,178.2969 L93.5104,178.2969 M80.5104,197.2969 L67.5104,212.2969 M80.5104,197.2969 L93.5104,212.2969" fill="none" style="stroke:#181818;stroke-width:0.5;"/><text fill="#000000" font-family="sans-serif" font-size="14" lengthAdjust="spacing" textLength="57.9209" x="51.55" y="226.792">Profesor</text></g><!--entity DirectorDeGrado--><g class="entity" data-qualified-name="DirectorDeGrado" data-source-line="7" id="ent0004"><ellipse cx="80.5081" cy="273.2969" fill="#F1F1F1" rx="8" ry="8" style="stroke:#181818;stroke-width:0.5;"/><path d="M80.5081,281.2969 L80.5081,308.2969 M67.5081,289.2969 L93.5081,289.2969 M80.5081,308.2969 L67.5081,323.2969 M80.5081,308.2969 L93.5081,323.2969" fill="none" style="stroke:#181818;stroke-width:0.5;"/><text fill="#000000" font-family="sans-serif" font-size="14" lengthAdjust="spacing" textLength="118.5762" x="21.22" y="337.792">DirectorDeGrado</text></g><!--entity SecretariaAcademica--><g class="entity" data-qualified-name="SecretariaAcademica" data-source-line="8" id="ent0005"><ellipse cx="80.5083" cy="384.2969" fill="#F1F1F1" rx="8" ry="8" style="stroke:#181818;stroke-width:0.5;"/><path d="M80.5083,392.2969 L80.5083,419.2969 M67.5083,400.2969 L93.5083,400.2969 M80.5083,419.2969 L67.5083,434.2969 M80.5083,419.2969 L93.5083,434.2969" fill="none" style="stroke:#181818;stroke-width:0.5;"/><text fill="#000000" font-family="sans-serif" font-size="14" lengthAdjust="spacing" textLength="149.0166" x="6" y="448.792">SecretariaAcademica</text></g><!--entity Administrador--><g class="entity" data-qualified-name="Administrador" data-source-line="9" id="ent0006"><ellipse cx="264.56" cy="218.2969" fill="#F1F1F1" rx="8" ry="8" style="stroke:#181818;stroke-width:0.5;"/><path d="M264.56,226.2969 L264.56,253.2969 M251.56,234.2969 L277.56,234.2969 M264.56,253.2969 L251.56,268.2969 M264.56,253.2969 L277.56,268.2969" fill="none" style="stroke:#181818;stroke-width:0.5;"/><text fill="#000000" font-family="sans-serif" font-size="14" lengthAdjust="spacing" textLength="99.0801" x="215.02" y="282.792">Administrador</text></g><!--reverse link Alumno to Administrador--><g class="link" data-entity-1="ent0002" data-entity-2="ent0006" data-link-type="extension" data-source-line="12" id="lnk7"><path d="M122.1045,109.293 C136.5445,119.613 139.94,122.6769 155.02,135.9469 C181.14,158.9369 208.38,187.0669 229.04,209.3869" fill="none" id="Alumno-backto-Administrador" style="stroke:#181818;stroke-width:1;"/><polygon fill="none" points="107.46,98.8269,118.6158,114.1745,125.5932,104.4115,107.46,98.8269" style="stroke:#181818;stroke-width:1;"/></g><!--reverse link Profesor to Administrador--><g class="link" data-entity-1="ent0003" data-entity-2="ent0006" data-link-type="extension" data-source-line="13" id="lnk8"><path d="M127.155,205.9874 C155.155,214.5974 181.27,222.6369 214.77,232.9369" fill="none" id="Profesor-backto-Administrador" style="stroke:#181818;stroke-width:1;"/><polygon fill="none" points="109.95,200.6969,125.3914,211.7224,128.9185,200.2524,109.95,200.6969" style="stroke:#181818;stroke-width:1;"/></g><!--reverse link DirectorDeGrado to Administrador--><g class="link" data-entity-1="ent0004" data-entity-2="ent0006" data-link-type="extension" data-source-line="14" id="lnk9"><path d="M157.3396,280.0371 C181.3496,272.7771 191.6,269.6869 214.52,262.7669" fill="none" id="DirectorDeGrado-backto-Administrador" style="stroke:#181818;stroke-width:1;"/><polygon fill="none" points="140.11,285.2469,159.0762,285.7803,155.603,274.2939,140.11,285.2469" style="stroke:#181818;stroke-width:1;"/></g><!--reverse link SecretariaAcademica to Administrador--><g class="link" data-entity-1="ent0005" data-entity-2="ent0006" data-link-type="extension" data-source-line="15" id="lnk10"><path d="M149.0529,364.4506 C155.9629,359.0406 148.66,364.5169 155.02,358.9469 C180.97,336.2169 208.1,308.4669 228.75,286.3969" fill="none" id="SecretariaAcademica-backto-Administrador" style="stroke:#181818;stroke-width:1;"/><polygon fill="none" points="134.88,375.5469,152.7517,369.1749,145.3542,359.7263,134.88,375.5469" style="stroke:#181818;stroke-width:1;"/></g><!--link Administrador to UsuariosCrear--><g class="link" data-entity-1="ent0006" data-entity-2="ent0012" data-link-type="dependency" data-source-line="23" id="lnk15"><path d="M314.43,269.6469 C326.04,274.5569 338.44,279.5969 350.1,283.9469 C369.69,291.2569 386.0041,296.6942 404.5941,302.5142" fill="none" id="Administrador-to-UsuariosCrear" style="stroke:#181818;stroke-width:1;"/><polygon fill="#181818" points="410.32,304.3069,402.9262,297.8006,405.5484,302.813,400.536,305.4352,410.32,304.3069" style="stroke:#181818;stroke-width:1;"/></g><!--link Administrador to UsuariosConsultar--><g class="link" data-entity-1="ent0006" data-entity-2="ent0013" data-link-type="dependency" data-source-line="24" id="lnk16"><path d="M314.17,247.9469 C332.34,247.9469 347.48,247.9469 367.67,247.9469" fill="none" id="Administrador-to-UsuariosConsultar" style="stroke:#181818;stroke-width:1;"/><polygon fill="#181818" points="373.67,247.9469,364.67,243.9469,368.67,247.9469,364.67,251.9469,373.67,247.9469" style="stroke:#181818;stroke-width:1;"/></g><!--link Administrador to UsuariosEditar--><g class="link" data-entity-1="ent0006" data-entity-2="ent0014" data-link-type="dependency" data-source-line="25" id="lnk17"><path d="M314.45,226.3269 C326.06,221.4169 338.46,216.3469 350.1,211.9469 C369.62,204.5569 385.8515,199.0043 404.3915,193.0043" fill="none" id="Administrador-to-UsuariosEditar" style="stroke:#181818;stroke-width:1;"/><polygon fill="#181818" points="410.1,191.1569,400.3056,190.1223,405.3429,192.6964,402.7688,197.7337,410.1,191.1569" style="stroke:#181818;stroke-width:1;"/></g><?plantuml-src VL5BJiCm4Dtx5ADiW4KkW11Ir2AwH2eSO6HFKwkE7StOYmguEtO-KXC2tbZs-ynxzhkDZc274WGCGPAGDmUDwQot4XbDOENe5246ODkU8nZBfACDNid5-XuPE-XHNx2bOxncjmAZRnqfXJe6XiQbpeVfyCRXH99Tn-D-S0kyfzSoRBezacQAo1ORZOOwgt7sMYHJTt0W9gyjblWS7CdZaWDzeWoTKHFd4YQ0Ans19EREWoc96YF2qrTThqRCURUmLVWjoaQJBPg2lAPNXEf3KbRaUDUnKWMV0w6i9AHHCYdx8a_C-uTg055WrkuAlA4ANfAB2-MjQeP_AydOk1vuetmPu47sFTPPVaDTFsza-uUpIF8tRvpx0m00?></g></svg>
