<svg xmlns="http://www.w3.org/2000/svg" xmlns:xlink="http://www.w3.org/1999/xlink" version="1.1" data-diagram-type="DESCRIPTION" style="width:408px;height:325px;background:#FFFFFF;" width="408px" height="325px" viewBox="0 0 408 325" zoomAndPan="magnify" preserveAspectRatio="none" contentStyleType="text/css"><?plantuml 1.2026.7beta3?><defs/><g><g class="title" data-source-line="1"><text x="113.342" y="22.9951" fill="#000000" font-size="14" lengthAdjust="spacing" textLength="174.8359" font-weight="700" font-family="sans-serif">Casos de Uso: Alumno</text></g><!--cluster Módulo Dispensas (Vista Alumno)--><g class="cluster" data-qualified-name="M.dulo Dispensas .Vista Alumno." id="ent0002" data-source-line="7"><polygon points="103.42,43.2969,375.0235,43.2969,382.0235,65.5938,383.52,65.5938,383.52,310.2969,103.42,310.2969,103.42,43.2969" fill="none" style="stroke:#000000;stroke-width:1.5;stroke-linejoin:miter;stroke-miterlimit:10;"/><line x1="103.42" y1="65.5938" x2="382.0235" y2="65.5938" style="stroke:#000000;stroke-width:1.5;"/><text x="107.42" y="58.292" fill="#000000" font-size="14" lengthAdjust="spacing" textLength="265.6035" font-weight="700" font-family="sans-serif">Módulo Dispensas (Vista Alumno)</text></g><!--entity CrearSolicitudDispensa--><g class="entity" data-qualified-name="M.dulo Dispensas .Vista Alumno..CrearSolicitudDispensa" id="ent0003" data-source-line="8"><ellipse cx="242.9736" cy="270.3016" rx="106.4236" ry="23.6847" fill="#F1F1F1" style="stroke:#181818;stroke-width:0.5;"/><text x="147.913" y="274.95" fill="#000000" font-size="14" lengthAdjust="spacing" textLength="190.1211" font-family="sans-serif">Crear solicitud de dispensa</text></g><!--entity ConsultarEstadoDispensa--><g class="entity" data-qualified-name="M.dulo Dispensas .Vista Alumno..ConsultarEstadoDispensa" id="ent0004" data-source-line="9"><ellipse cx="242.9711" cy="186.2971" rx="114.5511" ry="25.3102" fill="#F1F1F1" style="stroke:#181818;stroke-width:0.5;"/><text x="139.1264" y="190.9455" fill="#000000" font-size="14" lengthAdjust="spacing" textLength="207.6895" font-family="sans-serif">Consultar estado de dispensa</text></g><!--entity EditarSolicitudDispensa--><g class="entity" data-qualified-name="M.dulo Dispensas .Vista Alumno..EditarSolicitudDispensa" id="ent0005" data-source-line="10"><ellipse cx="242.9686" cy="102.2946" rx="107.7886" ry="23.9577" fill="#F1F1F1" style="stroke:#181818;stroke-width:0.5;"/><text x="146.4247" y="106.943" fill="#000000" font-size="14" lengthAdjust="spacing" textLength="193.0879" font-family="sans-serif">Editar solicitud de dispensa</text></g><!--entity Alumno--><g class="entity" data-qualified-name="Alumno" id="ent0001" data-source-line="5"><ellipse cx="32.708" cy="156.6469" rx="8" ry="8" fill="#F1F1F1" style="stroke:#181818;stroke-width:0.5;"/><path d="M32.708,164.6469 L32.708,191.6469 M19.708,172.6469 L45.708,172.6469 M32.708,191.6469 L19.708,206.6469 M32.708,191.6469 L45.708,206.6469" style="stroke:#181818;stroke-width:0.5;" fill="none"/><text x="6" y="221.142" fill="#000000" font-size="14" lengthAdjust="spacing" textLength="53.416" font-family="sans-serif">Alumno</text></g><!--link Alumno to CrearSolicitudDispensa--><g class="link" data-entity-1="ent0001" data-entity-2="ent0003" id="lnk6" data-source-line="13" data-link-type="dependency"><path d="M59.85,207.4269 C70.41,215.1669 83.02,223.4469 95.42,229.2969 C117.16,239.5569 137.1353,246.3845 160.0753,252.6245" style="stroke:#181818;stroke-width:1;" fill="none" id="Alumno-to-CrearSolicitudDispensa"/><polygon points="164.9,253.9369,157.2655,247.7148,160.0753,252.6245,155.1656,255.4343,164.9,253.9369" fill="#181818" style="stroke:#181818;stroke-width:1;stroke-linejoin:miter;stroke-miterlimit:10;"/></g><!--link Alumno to ConsultarEstadoDispensa--><g class="link" data-entity-1="ent0001" data-entity-2="ent0004" id="lnk7" data-source-line="14" data-link-type="dependency"><path d="M59.66,186.2969 C77.44,186.2969 97.37,186.2969 123.1,186.2969" style="stroke:#181818;stroke-width:1;" fill="none" id="Alumno-to-ConsultarEstadoDispensa"/><polygon points="128.1,186.2969,119.1,182.2969,123.1,186.2969,119.1,190.2969,128.1,186.2969" fill="#181818" style="stroke:#181818;stroke-width:1;stroke-linejoin:miter;stroke-miterlimit:10;"/></g><!--link Alumno to EditarSolicitudDispensa--><g class="link" data-entity-1="ent0001" data-entity-2="ent0005" id="lnk8" data-source-line="15" data-link-type="dependency"><path d="M59.85,165.1669 C70.41,157.4269 83.02,149.1469 95.42,143.2969 C116.8,133.2069 136.3279,126.4886 158.9479,120.2886" style="stroke:#181818;stroke-width:1;" fill="none" id="Alumno-to-EditarSolicitudDispensa"/><polygon points="163.77,118.9669,154.0328,117.4883,158.9479,120.2886,156.1475,125.2037,163.77,118.9669" fill="#181818" style="stroke:#181818;stroke-width:1;stroke-linejoin:miter;stroke-miterlimit:10;"/></g><?plantuml-src VOynRiCm34LtdOBmr0o-G8S0XUCnKvhiXCIcH6JH4AcXA7gg7Y4NYnh7GD3KrVh_VtnwPOi47Qee18AzoZEyn38aSP7U34mWy_7T870cRop9wOdJY1a7KFkeOxNCtieGdKDlakUz6z6Vy4ZGRC_VeKI13Uj8IL7XwS1gU6kk6lXqK5zHygXrq6N232gHFLi9FsRXjcsWpg_vRevdx2-692tHAeVggI2FaBdGN_E_ANrW-rTbAZowV3at_GxQThqaVDzOiBchB9ow0000?></g></svg>