<?xml version="1.0" encoding="us-ascii" standalone="no"?><svg xmlns="http://www.w3.org/2000/svg" xmlns:xlink="http://www.w3.org/1999/xlink" contentStyleType="text/css" height="771px" preserveAspectRatio="none" style="width:439px;height:771px;background:#FFFFFF;" version="1.1" viewBox="0 0 439 771" width="439px" zoomAndPan="magnify"><defs/><g><text fill="#000000" font-family="sans-serif" font-size="14" font-weight="bold" lengthAdjust="spacing" textLength="255" x="85" y="24.5332">Casos de Uso: Secretar&#237;a Acad&#233;mica</text><!--cluster M?dulo Alumnos--><g id="cluster_M&#243;dulo Alumnos"><rect fill="none" height="162" rx="2.5" ry="2.5" style="stroke:#181818;stroke-width:1.0;" width="193" x="212" y="45.6094"/><text fill="#000000" font-family="sans-serif" font-size="14" font-weight="bold" lengthAdjust="spacing" textLength="117" x="250" y="62.1426">M&#243;dulo Alumnos</text></g><!--cluster M?dulo Matr?culas--><g id="cluster_M&#243;dulo Matr&#237;culas"><rect fill="none" height="252" rx="2.5" ry="2.5" style="stroke:#181818;stroke-width:1.0;" width="239" x="189" y="231.6094"/><text fill="#000000" font-family="sans-serif" font-size="14" font-weight="bold" lengthAdjust="spacing" textLength="130" x="243.5" y="248.1426">M&#243;dulo Matr&#237;culas</text></g><!--cluster M?dulo Dispensas--><g id="cluster_M&#243;dulo Dispensas"><rect fill="none" height="258" rx="2.5" ry="2.5" style="stroke:#181818;stroke-width:1.0;" width="249" x="184" y="507.6094"/><text fill="#000000" font-family="sans-serif" font-size="14" font-weight="bold" lengthAdjust="spacing" textLength="130" x="243.5" y="524.1426">M&#243;dulo Dispensas</text></g><g id="elem_AlumnosImportar"><ellipse cx="308.6887" cy="100.6471" fill="#F1F1F1" rx="80.6887" ry="18.5377" style="stroke:#181818;stroke-width:0.5;"/><text fill="#000000" font-family="sans-serif" font-size="14" lengthAdjust="spacing" textLength="116" x="250.0015" y="104.5754">importarAlumnos()</text></g><g id="elem_AlumnosConsultar"><ellipse cx="308.2827" cy="172.5659" fill="#F1F1F1" rx="80.2827" ry="18.4565" style="stroke:#181818;stroke-width:0.5;"/><text fill="#000000" font-family="sans-serif" font-size="14" lengthAdjust="spacing" textLength="115" x="249.9192" y="176.5435">consultarAlumno()</text></g><g id="elem_MatriculasImportar"><ellipse cx="308.3478" cy="287.4789" fill="#F1F1F1" rx="84.8478" ry="19.3696" style="stroke:#181818;stroke-width:0.5;"/><text fill="#000000" font-family="sans-serif" font-size="14" lengthAdjust="spacing" textLength="126" x="245.3478" y="291.2075">importarMatriculas()</text></g><g id="elem_MatriculasVerDetalle"><ellipse cx="308.6395" cy="365.7373" fill="#F1F1F1" rx="103.6395" ry="23.1279" style="stroke:#181818;stroke-width:0.5;"/><text fill="#000000" font-family="sans-serif" font-size="14" lengthAdjust="spacing" textLength="169" x="224.1395" y="369.4658">consultarDetalleMatricula()</text></g><g id="elem_MatriculasCerrarCiclo"><ellipse cx="308.313" cy="445.372" fill="#F1F1F1" rx="94.313" ry="21.2626" style="stroke:#181818;stroke-width:0.5;"/><text fill="#000000" font-family="sans-serif" font-size="14" lengthAdjust="spacing" textLength="148" x="234.313" y="449.1005">cerrarCicloAcademico()</text></g><g id="elem_DispensasCrear"><ellipse cx="308.3945" cy="565.4883" fill="#F1F1F1" rx="97.3945" ry="21.8789" style="stroke:#181818;stroke-width:0.5;"/><text fill="#000000" font-family="sans-serif" font-size="14" lengthAdjust="spacing" textLength="155" x="230.8945" y="569.2168">crearSolicitudDispensa()</text></g><g id="elem_DispensasConsultar"><ellipse cx="308.6128" cy="646.7319" fill="#F1F1F1" rx="108.6128" ry="24.1226" style="stroke:#181818;stroke-width:0.5;"/><text fill="#000000" font-family="sans-serif" font-size="14" lengthAdjust="spacing" textLength="180" x="218.6128" y="650.4605">consultarSolicitudDispensa()</text></g><g id="elem_DispensasEditar"><ellipse cx="308.7239" cy="727.7542" fill="#F1F1F1" rx="98.7239" ry="22.1448" style="stroke:#181818;stroke-width:0.5;"/><text fill="#000000" font-family="sans-serif" font-size="14" lengthAdjust="spacing" textLength="158" x="229.7239" y="731.4827">editarSolicitudDispensa()</text></g><!--entity SecretariaAcademica--><g id="elem_SecretariaAcademica"><ellipse cx="73" cy="375.1094" fill="#F1F1F1" rx="8" ry="8" style="stroke:#181818;stroke-width:0.5;"/><path d="M73,383.1094 L73,410.1094 M60,391.1094 L86,391.1094 M73,410.1094 L60,425.1094 M73,410.1094 L86,425.1094 " fill="none" style="stroke:#181818;stroke-width:0.5;"/><text fill="#000000" font-family="sans-serif" font-size="14" lengthAdjust="spacing" textLength="134" x="6" y="441.1426">SecretariaAcademica</text></g><!--link SecretariaAcademica to AlumnosImportar--><g id="link_SecretariaAcademica_AlumnosImportar"><path d="M77.78,366.4994 C85.56,307.9194 108.74,197.7594 176,136.6094 C192.11,121.9594 207.808,114.64 228.758,109.42 " fill="none" id="SecretariaAcademica-to-AlumnosImportar" style="stroke:#181818;stroke-width:1.0;"/><polygon fill="#181818" points="234.58,107.9694,224.8799,106.264,229.7283,109.1782,226.8141,114.0267,234.58,107.9694" style="stroke:#181818;stroke-width:1.0;"/></g><!--link SecretariaAcademica to AlumnosConsultar--><g id="link_SecretariaAcademica_AlumnosConsultar"><path d="M93.57,366.3694 C111.62,332.9694 140.9,285.1994 176,251.6094 C204,224.8194 237.2679,205.6113 265.4179,191.7413 " fill="none" id="SecretariaAcademica-to-AlumnosConsultar" style="stroke:#181818;stroke-width:1.0;"/><polygon fill="#181818" points="270.8,189.0894,260.9589,189.4791,266.3149,191.2993,264.4947,196.6553,270.8,189.0894" style="stroke:#181818;stroke-width:1.0;"/></g><!--link SecretariaAcademica to MatriculasImportar--><g id="link_SecretariaAcademica_MatriculasImportar"><path d="M115.55,366.4294 C133.1,351.5794 154.46,335.6294 176,324.6094 C196.9,313.9194 215.5027,307.4678 237.5627,301.7378 " fill="none" id="SecretariaAcademica-to-MatriculasImportar" style="stroke:#181818;stroke-width:1.0;"/><polygon fill="#181818" points="243.37,300.2294,233.6534,298.6205,238.5306,301.4864,235.6647,306.3635,243.37,300.2294" style="stroke:#181818;stroke-width:1.0;"/></g><!--link SecretariaAcademica to MatriculasVerDetalle--><g id="link_SecretariaAcademica_MatriculasVerDetalle"><path d="M140.29,394.2494 C166.98,389.6794 192.126,385.3714 220.176,380.5714 " fill="none" id="SecretariaAcademica-to-MatriculasVerDetalle" style="stroke:#181818;stroke-width:1.0;"/><polygon fill="#181818" points="226.09,379.5594,216.5443,377.1347,221.1616,380.4027,217.8936,385.0201,226.09,379.5594" style="stroke:#181818;stroke-width:1.0;"/></g><!--link SecretariaAcademica to MatriculasCerrarCiclo--><g id="link_SecretariaAcademica_MatriculasCerrarCiclo"><path d="M140.29,416.9694 C169.01,421.8894 196.8562,426.6558 226.4962,431.7358 " fill="none" id="SecretariaAcademica-to-MatriculasCerrarCiclo" style="stroke:#181818;stroke-width:1.0;"/><polygon fill="#181818" points="232.41,432.7494,224.2151,427.2865,227.4819,431.9047,222.8636,435.1715,232.41,432.7494" style="stroke:#181818;stroke-width:1.0;"/></g><!--link SecretariaAcademica to DispensasCrear--><g id="link_SecretariaAcademica_DispensasCrear"><path d="M123.1,444.6594 C139.66,457.4194 158.4,471.4294 176,483.6094 C207.97,505.7294 240.603,525.9158 267.443,541.9958 " fill="none" id="SecretariaAcademica-to-DispensasCrear" style="stroke:#181818;stroke-width:1.0;"/><polygon fill="#181818" points="272.59,545.0794,266.9252,537.0227,268.3008,542.5097,262.8138,543.8853,272.59,545.0794" style="stroke:#181818;stroke-width:1.0;"/></g><!--link SecretariaAcademica to DispensasConsultar--><g id="link_SecretariaAcademica_DispensasConsultar"><path d="M84.11,444.6394 C97.7,489.4794 126.1,562.3094 176,604.6094 C190.08,616.5394 201.9138,623.1259 219.5138,629.2559 " fill="none" id="SecretariaAcademica-to-DispensasConsultar" style="stroke:#181818;stroke-width:1.0;"/><polygon fill="#181818" points="225.18,631.2294,217.9964,624.4917,220.4582,629.5848,215.3651,632.0466,225.18,631.2294" style="stroke:#181818;stroke-width:1.0;"/></g><!--link SecretariaAcademica to DispensasEditar--><g id="link_SecretariaAcademica_DispensasEditar"><path d="M77.24,444.8194 C84.35,505.4594 106.72,621.8294 176,687.6094 C189.84,700.7494 202.1746,707.7324 220.4246,713.6724 " fill="none" id="SecretariaAcademica-to-DispensasEditar" style="stroke:#181818;stroke-width:1.0;"/><polygon fill="#181818" points="226.13,715.5294,218.8099,708.9403,221.3755,713.9819,216.3339,716.5475,226.13,715.5294" style="stroke:#181818;stroke-width:1.0;"/></g><!--SRC=[ZP8zJiGm48Nxd6AK2egz00NIAaj1iLM0VcGFORIE7TbEWH07eg3Y2BaOTfHVDZ-uz7pl-SsCdzWhWWoTSI09dfsvWvo49O-s-KOu2fJDLya24qMl7hm1oyMR1ycMX6UZ4tTXNQ754YeK5omez-_1CvPH5ugI18KtTh1bZARKUYOGJYU3zDpyo5ePEAgwrCQbyD7MuwaT2NI1uR8oDhXqpCrj6ileUj5ZLxzM2gDThGRfbJBhwwtqSoNR6NqOZAWLRkUB7BTOzr3ts7Z_ZwIdC2-bQD14gvd72_NCWWjPYpPZeKm_S3DacRba8xdP-ubTHTgjT1wsYpOtYWNxMlRiEEP1dKLme-j5Zvd1R5Cp4vBiLrDCFHvQSDhkml-4m-5-yMFji6F0JNhbB-pZVzQ-BvXkU5EoiAHzTBQENRoR_2y0]--></g></svg>