<svg xmlns="http://www.w3.org/2000/svg" xmlns:xlink="http://www.w3.org/1999/xlink" contentStyleType="text/css" data-diagram-type="DESCRIPTION" height="419px" preserveAspectRatio="none" style="width:554px;height:419px;background:#FFFFFF;" version="1.1" viewBox="0 0 554 419" width="554px" zoomAndPan="magnify"><defs/><g><!--cluster Usuarios y roles--><g class="cluster" data-qualified-name="Usuarios y roles" data-source-line="16" id="ent0011"><rect fill="none" height="360" rx="2.5" ry="2.5" style="stroke:#181818;stroke-width:1;" width="190.7" x="358.1" y="21.65"/><text fill="#000000" font-family="sans-serif" font-size="14" font-weight="bold" lengthAdjust="spacing" textLength="126.793" x="390.0535" y="36.6451">Usuarios y roles</text></g><!--entity UsuariosCrear--><g class="entity" data-qualified-name="Usuarios y roles.UsuariosCrear" data-source-line="17" id="ent0012"><ellipse cx="453.4529" cy="349.6506" fill="#F1F1F1" rx="67.7029" ry="15.9406" style="stroke:#181818;stroke-width:0.5;"/><text fill="#000000" font-family="sans-serif" font-size="14" lengthAdjust="spacing" textLength="100.5293" x="403.1882" y="354.299">crearUsuario()</text></g><!--entity UsuariosConsultar--><g class="entity" data-qualified-name="Usuarios y roles.UsuariosConsultar" data-source-line="18" id="ent0013"><ellipse cx="453.4512" cy="280.6502" fill="#F1F1F1" rx="79.3512" ry="18.2702" style="stroke:#181818;stroke-width:0.5;"/><text fill="#000000" font-family="sans-serif" font-size="14" lengthAdjust="spacing" textLength="129.1445" x="388.8789" y="285.2987">consultarUsuario()</text></g><!--entity UsuariosEditar--><g class="entity" data-qualified-name="Usuarios y roles.UsuariosEditar" data-source-line="19" id="ent0014"><ellipse cx="453.4494" cy="210.6479" fill="#F1F1F1" rx="69.5894" ry="16.3179" style="stroke:#181818;stroke-width:0.5;"/><text fill="#000000" font-family="sans-serif" font-size="14" lengthAdjust="spacing" textLength="105.3418" x="400.7785" y="215.2963">editarUsuario()</text></g><!--entity UsuariosGuardar--><g class="entity" data-qualified-name="Usuarios y roles.UsuariosGuardar" data-source-line="20" id="ent0015"><ellipse cx="453.4457" cy="141.6491" fill="#F1F1F1" rx="75.2957" ry="17.4591" style="stroke:#181818;stroke-width:0.5;"/><text fill="#000000" font-family="sans-serif" font-size="14" lengthAdjust="spacing" textLength="119.4443" x="393.7235" y="146.2976">guardarUsuario()</text></g><!--entity UsuariosCerrar--><g class="entity" data-qualified-name="Usuarios y roles.UsuariosCerrar" data-source-line="21" id="ent0016"><ellipse cx="453.4531" cy="72.6526" fill="#F1F1F1" rx="69.9631" ry="16.3926" style="stroke:#181818;stroke-width:0.5;"/><text fill="#000000" font-family="sans-serif" font-size="14" lengthAdjust="spacing" textLength="106.2852" x="400.3105" y="77.3011">cerrarUsuario()</text></g><!--entity Alumno--><g class="entity" data-qualified-name="Alumno" data-source-line="4" id="ent0002"><ellipse cx="80.508" cy="14" fill="#F1F1F1" rx="8" ry="8" style="stroke:#181818;stroke-width:0.5;"/><path d="M80.508,22 L80.508,49 M67.508,30 L93.508,30 M80.508,49 L67.508,64 M80.508,49 L93.508,64" fill="none" style="stroke:#181818;stroke-width:0.5;"/><text fill="#000000" font-family="sans-serif" font-size="14" lengthAdjust="spacing" textLength="53.416" x="53.8" y="78.4951">Alumno</text></g><!--entity Profesor--><g class="entity" data-qualified-name="Profesor" data-source-line="5" id="ent0003"><ellipse cx="80.5104" cy="125" fill="#F1F1F1" rx="8" ry="8" style="stroke:#181818;stroke-width:0.5;"/><path d="M80.5104,133 L80.5104,160 M67.5104,141 L93.5104,141 M80.5104,160 L67.5104,175 M80.5104,160 L93.5104,175" fill="none" style="stroke:#181818;stroke-width:0.5;"/><text fill="#000000" font-family="sans-serif" font-size="14" lengthAdjust="spacing" textLength="57.9209" x="51.55" y="189.4951">Profesor</text></g><!--entity DirectorDeGrado--><g class="entity" data-qualified-name="DirectorDeGrado" data-source-line="6" id="ent0004"><ellipse cx="80.5081" cy="236" fill="#F1F1F1" rx="8" ry="8" style="stroke:#181818;stroke-width:0.5;"/><path d="M80.5081,244 L80.5081,271 M67.5081,252 L93.5081,252 M80.5081,271 L67.5081,286 M80.5081,271 L93.5081,286" fill="none" style="stroke:#181818;stroke-width:0.5;"/><text fill="#000000" font-family="sans-serif" font-size="14" lengthAdjust="spacing" textLength="118.5762" x="21.22" y="300.4951">DirectorDeGrado</text></g><!--entity SecretariaAcademica--><g class="entity" data-qualified-name="SecretariaAcademica" data-source-line="7" id="ent0005"><ellipse cx="80.5083" cy="347" fill="#F1F1F1" rx="8" ry="8" style="stroke:#181818;stroke-width:0.5;"/><path d="M80.5083,355 L80.5083,382 M67.5083,363 L93.5083,363 M80.5083,382 L67.5083,397 M80.5083,382 L93.5083,397" fill="none" style="stroke:#181818;stroke-width:0.5;"/><text fill="#000000" font-family="sans-serif" font-size="14" lengthAdjust="spacing" textLength="149.0166" x="6" y="411.4951">SecretariaAcademica</text></g><!--entity Administrador--><g class="entity" data-qualified-name="Administrador" data-source-line="8" id="ent0006"><ellipse cx="264.56" cy="181" fill="#F1F1F1" rx="8" ry="8" style="stroke:#181818;stroke-width:0.5;"/><path d="M264.56,189 L264.56,216 M251.56,197 L277.56,197 M264.56,216 L251.56,231 M264.56,216 L277.56,231" fill="none" style="stroke:#181818;stroke-width:0.5;"/><text fill="#000000" font-family="sans-serif" font-size="14" lengthAdjust="spacing" textLength="99.0801" x="215.02" y="245.4951">Administrador</text></g><!--reverse link Alumno to Administrador--><g class="link" data-entity-1="ent0002" data-entity-2="ent0006" data-link-type="extension" data-source-line="11" id="lnk7"><path d="M122.1045,71.9961 C136.5445,82.3161 139.94,85.38 155.02,98.65 C181.14,121.64 208.38,149.77 229.04,172.09" fill="none" id="Alumno-backto-Administrador" style="stroke:#181818;stroke-width:1;"/><polygon fill="none" points="107.46,61.53,118.6158,76.8776,125.5932,67.1146,107.46,61.53" style="stroke:#181818;stroke-width:1;"/></g><!--reverse link Profesor to Administrador--><g class="link" data-entity-1="ent0003" data-entity-2="ent0006" data-link-type="extension" data-source-line="12" id="lnk8"><path d="M127.155,168.6905 C155.155,177.3005 181.27,185.34 214.77,195.64" fill="none" id="Profesor-backto-Administrador" style="stroke:#181818;stroke-width:1;"/><polygon fill="none" points="109.95,163.4,125.3914,174.4255,128.9185,162.9555,109.95,163.4" style="stroke:#181818;stroke-width:1;"/></g><!--reverse link DirectorDeGrado to Administrador--><g class="link" data-entity-1="ent0004" data-entity-2="ent0006" data-link-type="extension" data-source-line="13" id="lnk9"><path d="M157.3396,242.7402 C181.3496,235.4802 191.6,232.39 214.52,225.47" fill="none" id="DirectorDeGrado-backto-Administrador" style="stroke:#181818;stroke-width:1;"/><polygon fill="none" points="140.11,247.95,159.0762,248.4834,155.603,236.997,140.11,247.95" style="stroke:#181818;stroke-width:1;"/></g><!--reverse link SecretariaAcademica to Administrador--><g class="link" data-entity-1="ent0005" data-entity-2="ent0006" data-link-type="extension" data-source-line="14" id="lnk10"><path d="M149.0529,327.1537 C155.9629,321.7437 148.66,327.22 155.02,321.65 C180.97,298.92 208.1,271.17 228.75,249.1" fill="none" id="SecretariaAcademica-backto-Administrador" style="stroke:#181818;stroke-width:1;"/><polygon fill="none" points="134.88,338.25,152.7517,331.878,145.3542,322.4294,134.88,338.25" style="stroke:#181818;stroke-width:1;"/></g><!--link Administrador to UsuariosCrear--><g class="link" data-entity-1="ent0006" data-entity-2="ent0012" data-link-type="dependency" data-source-line="24" id="lnk17"><path d="M288.2,249.25 C303.19,271.77 324.73,299.12 350.1,316.65 C365.15,327.05 377.9212,332.6457 395.0512,337.6557" fill="none" id="Administrador-to-UsuariosCrear" style="stroke:#181818;stroke-width:1;"/><polygon fill="#181818" points="400.81,339.34,393.2947,332.9744,396.011,337.9365,391.049,340.6528,400.81,339.34" style="stroke:#181818;stroke-width:1;"/></g><!--link Administrador to UsuariosConsultar--><g class="link" data-entity-1="ent0006" data-entity-2="ent0013" data-link-type="dependency" data-source-line="25" id="lnk18"><path d="M314.59,230.8 C326.19,235.45 338.55,240.3 350.1,244.65 C368.87,251.72 384.074,257.1662 402.044,263.4262" fill="none" id="Administrador-to-UsuariosConsultar" style="stroke:#181818;stroke-width:1;"/><polygon fill="#181818" points="407.71,265.4,400.5268,258.6619,402.9883,263.7552,397.8951,266.2166,407.71,265.4" style="stroke:#181818;stroke-width:1;"/></g><!--link Administrador to UsuariosEditar--><g class="link" data-entity-1="ent0006" data-entity-2="ent0014" data-link-type="dependency" data-source-line="26" id="lnk19"><path d="M314.17,210.65 C335.37,210.65 354.6,210.65 377.67,210.65" fill="none" id="Administrador-to-UsuariosEditar" style="stroke:#181818;stroke-width:1;"/><polygon fill="#181818" points="383.67,210.65,374.67,206.65,378.67,210.65,374.67,214.65,383.67,210.65" style="stroke:#181818;stroke-width:1;"/></g><!--link Administrador to UsuariosGuardar--><g class="link" data-entity-1="ent0006" data-entity-2="ent0015" data-link-type="dependency" data-source-line="27" id="lnk20"><path d="M314.56,190.43 C326.16,185.79 338.53,180.95 350.1,176.65 C369.2,169.55 384.8039,164.0952 403.0039,157.9652" fill="none" id="Administrador-to-UsuariosGuardar" style="stroke:#181818;stroke-width:1;"/><polygon fill="#181818" points="408.69,156.05,398.884,155.132,403.9516,157.646,401.4376,162.7135,408.69,156.05" style="stroke:#181818;stroke-width:1;"/></g><!--link Administrador to UsuariosCerrar--><g class="link" data-entity-1="ent0006" data-entity-2="ent0016" data-link-type="dependency" data-source-line="28" id="lnk21"><path d="M288.92,172.11 C303.96,150.19 325.3,123.78 350.1,106.65 C365.12,96.28 377.7998,90.6163 394.8598,85.4263" fill="none" id="Administrador-to-UsuariosCerrar" style="stroke:#181818;stroke-width:1;"/><polygon fill="#181818" points="400.6,83.68,390.8254,82.4726,395.8165,85.1353,393.1538,90.1263,400.6,83.68" style="stroke:#181818;stroke-width:1;"/></g><!--SRC=[VP71QiCm38RlVWhHoxP3Nc2CGMb7TnoKFO2mrTJKiOFa7CgsTv_Z992aRdqJ__TB-cL7fmWn0Dlw7C5O9Xrjy4ekrhV8s42B-e8r7UFL4VGo-jgHKgXZODYwhl5XBBuud4W2Z-K-TmkyfmEZcQ0ZQQQ8R76hqL1ZDKwzJ6EzbTZ3hDGJV1AJrnR1fCd1aRmk6MWxIj8PDN4AOGAuqBCaCGZafYHgM17UVgjgDMBQjwIjbYyXXIGbJ45wunLXyorTSgJrhaEa3Vnae7-Ta4P9KEgBF9BFBviiei3atVLomHMyT2ukd7FN9DywoTYu7ZXpVcJvrbOdsQnyCzjXa0kB4lE3SRiiPzlVSBtbhrVLU-4K3vX5yFlSBEPzQ1xgmSWSuHy0]--></g></svg>