<?xml version="1.0" encoding="us-ascii" standalone="no"?><svg xmlns="http://www.w3.org/2000/svg" xmlns:xlink="http://www.w3.org/1999/xlink" contentStyleType="text/css" height="278px" preserveAspectRatio="none" style="width:336px;height:278px;background:#FFFFFF;" version="1.1" viewBox="0 0 336 278" width="336px" zoomAndPan="magnify"><defs/><g><text fill="#000000" font-family="sans-serif" font-size="14" font-weight="bold" lengthAdjust="spacing" textLength="223" x="49.5" y="24.5332">Casos de uso del Administrador</text><!--cluster Usuarios y roles--><g id="cluster_Usuarios y roles"><rect fill="none" height="227" rx="2.5" ry="2.5" style="stroke:#181818;stroke-width:1.0;" width="193" x="137" y="45.6094"/><text fill="#000000" font-family="sans-serif" font-size="14" font-weight="bold" lengthAdjust="spacing" textLength="113" x="177" y="62.1426">Usuarios y roles</text></g><g id="elem_UsuariosCrear"><ellipse cx="233.7113" cy="98.7516" fill="#F1F1F1" rx="71.2113" ry="16.6423" style="stroke:#181818;stroke-width:0.5;"/><text fill="#000000" font-family="sans-serif" font-size="14" lengthAdjust="spacing" textLength="91" x="185.2113" y="103.2682">crearUsuario()</text></g><g id="elem_UsuariosConsultar"><ellipse cx="233.6887" cy="168.6471" fill="#F1F1F1" rx="80.6887" ry="18.5377" style="stroke:#181818;stroke-width:0.5;"/><text fill="#000000" font-family="sans-serif" font-size="14" lengthAdjust="spacing" textLength="116" x="175.0015" y="172.5754">consultarUsuario()</text></g><g id="elem_UsuariosEditar"><ellipse cx="233.2859" cy="239.4666" fill="#F1F1F1" rx="72.2859" ry="16.8572" style="stroke:#181818;stroke-width:0.5;"/><text fill="#000000" font-family="sans-serif" font-size="14" lengthAdjust="spacing" textLength="94" x="183.2859" y="243.9832">editarUsuario()</text></g><!--entity Administrador--><g id="elem_Administrador"><ellipse cx="49.5" cy="138.1094" fill="#F1F1F1" rx="8" ry="8" style="stroke:#181818;stroke-width:0.5;"/><path d="M49.5,146.1094 L49.5,173.1094 M36.5,154.1094 L62.5,154.1094 M49.5,173.1094 L36.5,188.1094 M49.5,173.1094 L62.5,188.1094 " fill="none" style="stroke:#181818;stroke-width:0.5;"/><text fill="#000000" font-family="sans-serif" font-size="14" lengthAdjust="spacing" textLength="87" x="6" y="204.1426">Administrador</text></g><!--link Administrador to UsuariosCrear--><g id="link_Administrador_UsuariosCrear"><path d="M93.31,147.9194 C104.79,142.6594 117.27,137.2094 129,132.6094 C148.55,124.9494 164.8813,119.3549 183.5913,113.4149 " fill="none" id="Administrador-to-UsuariosCrear" style="stroke:#181818;stroke-width:1.0;"/><polygon fill="#181818" points="189.31,111.5994,179.5215,110.5102,184.5444,113.1123,181.9423,118.1352,189.31,111.5994" style="stroke:#181818;stroke-width:1.0;"/></g><!--link Administrador to UsuariosConsultar--><g id="link_Administrador_UsuariosConsultar"><path d="M93.17,168.6094 C111.03,168.6094 126.39,168.6094 146.96,168.6094 " fill="none" id="Administrador-to-UsuariosConsultar" style="stroke:#181818;stroke-width:1.0;"/><polygon fill="#181818" points="152.96,168.6094,143.96,164.6094,147.96,168.6094,143.96,172.6094,152.96,168.6094" style="stroke:#181818;stroke-width:1.0;"/></g><!--link Administrador to UsuariosEditar--><g id="link_Administrador_UsuariosEditar"><path d="M93.34,189.2294 C104.82,194.4894 117.29,199.9594 129,204.6094 C148.57,212.3794 164.9285,218.1204 183.6285,224.2504 " fill="none" id="Administrador-to-UsuariosEditar" style="stroke:#181818;stroke-width:1.0;"/><polygon fill="#181818" points="189.33,226.1194,182.0238,219.5149,184.5788,224.5619,179.5318,227.1169,189.33,226.1194" style="stroke:#181818;stroke-width:1.0;"/></g><!--SRC=[VOyn3i8m34NtdCBg10DNG4A84m07i19JhAP9PRi3GjoTj814eU35m__F__l05Wcsg5aX4FIQougm2IqdLXCCMLoaau5b4AxF1e65l75EJXjE7GgsqA5liAQzNSgrGSPKHt8ElMNvkEQWp1E0wgWz2fVq2qYEf1LSHyCmlP97BIOlXF9qBfRLAAB2YzqEyWoLa_RH9kGxzPA_IGfidu5lv6wKH-psU6Vo8QnMwvbkVpoJ9hzzZzmx]--></g></svg>