<?xml version="1.0" encoding="us-ascii" standalone="no"?><svg xmlns="http://www.w3.org/2000/svg" xmlns:xlink="http://www.w3.org/1999/xlink" contentStyleType="text/css" height="319px" preserveAspectRatio="none" style="width:371px;height:319px;background:#FFFFFF;" version="1.1" viewBox="0 0 371 319" width="371px" zoomAndPan="magnify"><defs/><g><text fill="#000000" font-family="sans-serif" font-size="14" font-weight="bold" lengthAdjust="spacing" textLength="156" x="100.5" y="24.5332">Casos de Uso: Alumno</text><!--cluster M?dulo Dispensas (Vista Alumno)--><g id="cluster_M&#243;dulo Dispensas (Vista Alumno)"><polygon fill="none" points="97,44.6094,337,44.6094,344,68.2188,354,68.2188,354,312.6094,97,312.6094,97,44.6094" style="stroke:#000000;stroke-width:1.5;"/><line style="stroke:#000000;stroke-width:1.5;" x1="97" x2="344" y1="68.2188" y2="68.2188"/><text fill="#000000" font-family="sans-serif" font-size="14" font-weight="bold" lengthAdjust="spacing" textLength="234" x="101" y="61.1426">M&#243;dulo Dispensas (Vista Alumno)</text></g><g id="elem_CrearSolicitudDispensa"><ellipse cx="225.4905" cy="104.5075" fill="#F1F1F1" rx="104.9905" ry="23.3981" style="stroke:#181818;stroke-width:0.5;"/><text fill="#000000" font-family="sans-serif" font-size="14" lengthAdjust="spacing" textLength="172" x="139.4905" y="108.236">Crear solicitud de dispensa</text></g><g id="elem_ConsultarEstadoDispensa"><ellipse cx="225.7192" cy="188.5532" fill="#F1F1F1" rx="112.7192" ry="24.9438" style="stroke:#181818;stroke-width:0.5;"/><text fill="#000000" font-family="sans-serif" font-size="14" lengthAdjust="spacing" textLength="189" x="131.2192" y="192.2817">Consultar estado de dispensa</text></g><g id="elem_EditarSolicitudDispensa"><ellipse cx="225.4418" cy="272.5977" fill="#F1F1F1" rx="105.4418" ry="23.4884" style="stroke:#181818;stroke-width:0.5;"/><text fill="#000000" font-family="sans-serif" font-size="14" lengthAdjust="spacing" textLength="173" x="138.9418" y="276.3262">Editar solicitud de dispensa</text></g><!--entity Alumno--><g id="elem_Alumno"><ellipse cx="29.5" cy="158.1094" fill="#F1F1F1" rx="8" ry="8" style="stroke:#181818;stroke-width:0.5;"/><path d="M29.5,166.1094 L29.5,193.1094 M16.5,174.1094 L42.5,174.1094 M29.5,193.1094 L16.5,208.1094 M29.5,193.1094 L42.5,208.1094 " fill="none" style="stroke:#181818;stroke-width:0.5;"/><text fill="#000000" font-family="sans-serif" font-size="14" lengthAdjust="spacing" textLength="47" x="6" y="224.1426">Alumno</text></g><!--link Alumno to CrearSolicitudDispensa--><g id="link_Alumno_CrearSolicitudDispensa"><path d="M53.22,169.0894 C63.6,160.9494 76.37,151.9294 89,145.6094 C108.78,135.7094 125.6466,129.4119 146.6666,123.1919 " fill="none" id="Alumno-to-CrearSolicitudDispensa" style="stroke:#181818;stroke-width:1.0;"/><polygon fill="#181818" points="152.42,121.4894,142.6549,120.2075,147.6255,122.9081,144.9249,127.8787,152.42,121.4894" style="stroke:#181818;stroke-width:1.0;"/></g><!--link Alumno to ConsultarEstadoDispensa--><g id="link_Alumno_ConsultarEstadoDispensa"><path d="M53.13,188.6094 C68.53,188.6094 84.16,188.6094 106.89,188.6094 " fill="none" id="Alumno-to-ConsultarEstadoDispensa" style="stroke:#181818;stroke-width:1.0;"/><polygon fill="#181818" points="112.89,188.6094,103.89,184.6094,107.89,188.6094,103.89,192.6094,112.89,188.6094" style="stroke:#181818;stroke-width:1.0;"/></g><!--link Alumno to EditarSolicitudDispensa--><g id="link_Alumno_EditarSolicitudDispensa"><path d="M53.03,207.3894 C63.47,215.3994 76.35,224.3194 89,230.6094 C109.18,240.6494 126.4958,247.1361 147.8058,253.5661 " fill="none" id="Alumno-to-EditarSolicitudDispensa" style="stroke:#181818;stroke-width:1.0;"/><polygon fill="#181818" points="153.55,255.2994,146.0892,248.8701,148.7632,253.855,143.7782,256.529,153.55,255.2994" style="stroke:#181818;stroke-width:1.0;"/></g><!--SRC=[VOynRiCm34LtdOBmr0o-G8S0XUCnKvhiXCIcH6JH4AcXA7gg7Y4NYnh7GD3KrVh_VtnwPOi47Qee18AzoZEyn38aSP7U34mWy_7T870cRop9wOdJY1a7KFkeOxNCtieGdKDlakUz6z6Vy4ZGRC_VeKI13Uj8IL7XwS1gU6kk6lXqK5zHygXrq6N232gHFLi9FsRXjcsWpg_vRevdx2-692tHAeVggI2FaBdGN_E_ANrW-rTbAZowV3at_GxQThqaVDzOiBchB9ow0000]--></g></svg>