<svg xmlns="http://www.w3.org/2000/svg" xmlns:xlink="http://www.w3.org/1999/xlink" version="1.1" data-diagram-type="STATE" style="width:1512px;height:764px;background:#FFFFFF;" width="1512px" height="764px" viewBox="0 0 1512 764" zoomAndPan="magnify" preserveAspectRatio="none" contentStyleType="text/css"><?plantuml 1.2026.7beta6?><defs/><g font-family="sans-serif" lengthAdjust="spacing"><g class="title" data-source-line="1"><text x="664.457" y="22.995" fill="#000" font-size="14" textLength="176.928" font-weight="700">Diagrama de Contexto</text></g><g class="start_entity" data-qualified-name=".start." id="ent0001" data-source-line="6"><ellipse cx="16" cy="407.297" rx="10" ry="10" fill="#222" style="stroke:#222;stroke-width:1;"/></g><g class="entity" data-qualified-name="SESION_CERRADA" id="ent0002" data-source-line="6"><rect x="87" y="382.297" width="147.251" height="50" fill="#F1F1F1" style="stroke:#181818;stroke-width:0.5;" rx="12.5" ry="12.5"/><line x1="87" y1="408.594" x2="234.251" y2="408.594" style="stroke:#181818;stroke-width:0.5;"/><text x="97" y="400.292" fill="#000" font-size="14" textLength="127.251">SESION_CERRADA</text></g><g class="entity" data-qualified-name="SISTEMA_DISPONIBLE" id="ent0004" data-source-line="9"><rect x="399.25" y="382.297" width="172.065" height="50" fill="#F1F1F1" style="stroke:#181818;stroke-width:0.5;" rx="12.5" ry="12.5"/><line x1="399.25" y1="408.594" x2="571.315" y2="408.594" style="stroke:#181818;stroke-width:0.5;"/><text x="409.25" y="400.292" fill="#000" font-size="14" textLength="152.065">SISTEMA_DISPONIBLE</text></g><g class="entity" data-qualified-name="ALUMNOS_ABIERTO" id="ent0008" data-source-line="16"><rect x="842.13" y="105.297" width="158.537" height="50" fill="#F1F1F1" style="stroke:#181818;stroke-width:0.5;" rx="12.5" ry="12.5"/><line x1="842.13" y1="131.594" x2="1000.667" y2="131.594" style="stroke:#181818;stroke-width:0.5;"/><text x="852.13" y="123.292" fill="#000" font-size="14" textLength="138.537">ALUMNOS_ABIERTO</text></g><g class="entity" data-qualified-name="ALUMNO_DETALLE_ABIERTO" id="ent0012" data-source-line="20"><rect x="1268.74" y="122.297" width="218.851" height="50" fill="#F1F1F1" style="stroke:#181818;stroke-width:0.5;" rx="12.5" ry="12.5"/><line x1="1268.74" y1="148.594" x2="1487.591" y2="148.594" style="stroke:#181818;stroke-width:0.5;"/><text x="1278.74" y="140.292" fill="#000" font-size="14" textLength="198.851">ALUMNO_DETALLE_ABIERTO</text></g><g class="entity" data-qualified-name="MATRICULAS_ABIERTO" id="ent0015" data-source-line="26"><rect x="832" y="280.297" width="178.806" height="50" fill="#F1F1F1" style="stroke:#181818;stroke-width:0.5;" rx="12.5" ry="12.5"/><line x1="832" y1="306.594" x2="1010.806" y2="306.594" style="stroke:#181818;stroke-width:0.5;"/><text x="842" y="298.292" fill="#000" font-size="14" textLength="158.806">MATRICULAS_ABIERTO</text></g><g class="entity" data-qualified-name="MATRICULA_DETALLE_ABIERTA" id="ent0020" data-source-line="31"><rect x="1259.33" y="223.297" width="237.677" height="50" fill="#F1F1F1" style="stroke:#181818;stroke-width:0.5;" rx="12.5" ry="12.5"/><line x1="1259.33" y1="249.594" x2="1497.007" y2="249.594" style="stroke:#181818;stroke-width:0.5;"/><text x="1269.33" y="241.292" fill="#000" font-size="14" textLength="217.677">MATRICULA_DETALLE_ABIERTA</text></g><g class="entity" data-qualified-name="ASISTENCIAS_ABIERTO" id="ent0023" data-source-line="37"><rect x="831.32" y="410.297" width="180.173" height="50" fill="#F1F1F1" style="stroke:#181818;stroke-width:0.5;" rx="12.5" ry="12.5"/><line x1="831.32" y1="436.594" x2="1011.493" y2="436.594" style="stroke:#181818;stroke-width:0.5;"/><text x="841.32" y="428.292" fill="#000" font-size="14" textLength="160.173">ASISTENCIAS_ABIERTO</text></g><g class="entity" data-qualified-name="SESION_CLASE_ABIERTA" id="ent0027" data-source-line="41"><rect x="1282.6" y="398.297" width="191.138" height="50" fill="#F1F1F1" style="stroke:#181818;stroke-width:0.5;" rx="12.5" ry="12.5"/><line x1="1282.6" y1="424.594" x2="1473.738" y2="424.594" style="stroke:#181818;stroke-width:0.5;"/><text x="1292.6" y="416.292" fill="#000" font-size="14" textLength="171.138">SESION_CLASE_ABIERTA</text></g><g class="entity" data-qualified-name="DISPENSAS_ABIERTO" id="ent0032" data-source-line="50"><rect x="837.72" y="524.297" width="167.362" height="50" fill="#F1F1F1" style="stroke:#181818;stroke-width:0.5;" rx="12.5" ry="12.5"/><line x1="837.72" y1="550.594" x2="1005.082" y2="550.594" style="stroke:#181818;stroke-width:0.5;"/><text x="847.72" y="542.292" fill="#000" font-size="14" textLength="147.362">DISPENSAS_ABIERTO</text></g><g class="entity" data-qualified-name="SOLICITUD_DISPENSA_ABIERTA" id="ent0035" data-source-line="53"><rect x="1258.49" y="528.297" width="239.352" height="50" fill="#F1F1F1" style="stroke:#181818;stroke-width:0.5;" rx="12.5" ry="12.5"/><line x1="1258.49" y1="554.594" x2="1497.842" y2="554.594" style="stroke:#181818;stroke-width:0.5;"/><text x="1268.49" y="546.292" fill="#000" font-size="14" textLength="219.352">SOLICITUD_DISPENSA_ABIERTA</text></g><g class="entity" data-qualified-name="USUARIOS_ABIERTO" id="ent0040" data-source-line="62"><rect x="840.81" y="638.297" width="161.176" height="50" fill="#F1F1F1" style="stroke:#181818;stroke-width:0.5;" rx="12.5" ry="12.5"/><line x1="840.81" y1="664.594" x2="1001.986" y2="664.594" style="stroke:#181818;stroke-width:0.5;"/><text x="850.81" y="656.292" fill="#000" font-size="14" textLength="141.176">USUARIOS_ABIERTO</text></g><g class="entity" data-qualified-name="USUARIO_DETALLE_ABIERTO" id="ent0043" data-source-line="65"><rect x="1267.42" y="695.297" width="221.489" height="50" fill="#F1F1F1" style="stroke:#181818;stroke-width:0.5;" rx="12.5" ry="12.5"/><line x1="1267.42" y1="721.594" x2="1488.909" y2="721.594" style="stroke:#181818;stroke-width:0.5;"/><text x="1277.42" y="713.292" fill="#000" font-size="14" textLength="201.489">USUARIO_DETALLE_ABIERTO</text></g><!--link *start* to SESION_CERRADA--><g class="link" data-entity-1="ent0001" data-entity-2="ent0002" id="lnk3" data-source-line="6" data-link-type="dependency"><path d="M26.36,407.297 C39,407.297 57.73,407.297 81.69,407.297" style="stroke:#181818;stroke-width:1;" fill="none" id="*start*-to-SESION_CERRADA"/><polygon points="86.69,407.297,77.69,403.297,81.69,407.297,77.69,411.297,86.69,407.297" fill="#181818" style="stroke:#181818;stroke-width:1;stroke-linejoin:miter;stroke-miterlimit:10;"/></g><!--link SESION_CERRADA to SISTEMA_DISPONIBLE--><g class="link" data-entity-1="ent0002" data-entity-2="ent0004" id="lnk5" data-source-line="9" data-link-type="dependency"><path d="M234.57,394.507 C251.28,391.567 264.25,389.297 264.25,389.297 C264.25,389.297 369.25,389.297 369.25,389.297 C369.25,389.297 376.991,390.501 393.931,393.161" style="stroke:#181818;stroke-width:1;" fill="none" id="SESION_CERRADA-to-SISTEMA_DISPONIBLE"/><polygon points="398.87,393.937,390.599,388.589,393.931,393.161,389.358,396.492,398.87,393.937" fill="#181818" style="stroke:#181818;stroke-width:1;stroke-linejoin:miter;stroke-miterlimit:10;"/><text x="270.75" y="385.364" fill="#000" font-size="13" textLength="92.504">iniciarSesion()</text></g><!--link SISTEMA_DISPONIBLE to SESION_CERRADA--><g class="link" data-entity-1="ent0004" data-entity-2="ent0002" id="lnk6" data-source-line="10" data-link-type="dependency"><path d="M398.87,412.497 C381.93,413.527 369.25,414.297 369.25,414.297 C369.25,414.297 264.25,414.297 264.25,414.297 C264.25,414.297 256.268,413.757 239.558,412.617" style="stroke:#181818;stroke-width:1;" fill="none" id="SISTEMA_DISPONIBLE-to-SESION_CERRADA"/><polygon points="234.57,412.277,243.277,416.88,239.558,412.617,243.821,408.899,234.57,412.277" fill="#181818" style="stroke:#181818;stroke-width:1;stroke-linejoin:miter;stroke-miterlimit:10;"/><text x="270.75" y="410.364" fill="#000" font-size="13" textLength="92.117">cerrarSesion()</text></g><!--link SISTEMA_DISPONIBLE to SESION_CERRADA--><g class="link" data-entity-1="ent0004" data-entity-2="ent0002" id="lnk7" data-source-line="11" data-link-type="dependency"><path d="M398.87,431.057 C381.93,435.767 369.25,439.297 369.25,439.297 C369.25,439.297 264.25,439.297 264.25,439.297 C264.25,439.297 256.053,436.748 239.343,431.528" style="stroke:#181818;stroke-width:1;" fill="none" id="SISTEMA_DISPONIBLE-to-SESION_CERRADA-1"/><polygon points="234.57,430.037,241.968,436.539,239.343,431.528,244.353,428.902,234.57,430.037" fill="#181818" style="stroke:#181818;stroke-width:1;stroke-linejoin:miter;stroke-miterlimit:10;"/><text x="265.25" y="435.364" fill="#000" font-size="13" textLength="103.048">sesionInactiva()</text></g><!--link SISTEMA_DISPONIBLE to ALUMNOS_ABIERTO--><g class="link" data-entity-1="ent0004" data-entity-2="ent0008" id="lnk9" data-source-line="16" data-link-type="dependency"><path d="M499.03,381.807 C528.98,321.917 601.32,177.297 601.32,177.297 C601.32,177.297 742.513,156.495 836.993,142.585" style="stroke:#181818;stroke-width:1;" fill="none" id="SISTEMA_DISPONIBLE-to-ALUMNOS_ABIERTO"/><polygon points="841.94,141.857,832.453,139.21,836.993,142.585,833.619,147.125,841.94,141.857" fill="#181818" style="stroke:#181818;stroke-width:1;stroke-linejoin:miter;stroke-miterlimit:10;"/><text x="652.82" y="144.364" fill="#000" font-size="13" textLength="97.037">abrirAlumnos()</text></g><!--link ALUMNOS_ABIERTO to SISTEMA_DISPONIBLE--><g class="link" data-entity-1="ent0008" data-entity-2="ent0004" id="lnk10" data-source-line="17" data-link-type="dependency"><path d="M867.81,155.687 C848.52,164.997 831.32,173.297 831.32,173.297 C831.32,173.297 801.32,202.297 801.32,202.297 C801.32,202.297 601.32,278.297 601.32,278.297 C601.32,278.297 545.858,340.485 512.338,378.075" style="stroke:#181818;stroke-width:1;" fill="none" id="ALUMNOS_ABIERTO-to-SISTEMA_DISPONIBLE"/><polygon points="509.01,381.807,517.985,377.752,512.338,378.075,512.014,372.427,509.01,381.807" fill="#181818" style="stroke:#181818;stroke-width:1;stroke-linejoin:miter;stroke-miterlimit:10;"/><text x="610.32" y="198.364" fill="#000" font-size="13" textLength="182.298">completarGestionAlumnos()</text></g><!--link ALUMNOS_ABIERTO to ALUMNOS_ABIERTO--><g class="link" data-entity-1="ent0008" data-entity-2="ent0008" id="lnk11" data-source-line="19" data-link-type="dependency"><path d="M885.27,105.017 C874.32,87.527 886.36,70.297 921.4,70.297 C956.44,70.297 971.143,83.289 960.193,100.779" style="stroke:#181818;stroke-width:1;" fill="none" id="ALUMNOS_ABIERTO-to-ALUMNOS_ABIERTO"/><polygon points="957.54,105.017,965.706,99.511,960.193,100.779,958.926,95.266,957.54,105.017" fill="#181818" style="stroke:#181818;stroke-width:1;stroke-linejoin:miter;stroke-miterlimit:10;"/><text x="860.4" y="61.364" fill="#000" font-size="13" textLength="122.751">importarAlumnos()</text></g><!--link ALUMNOS_ABIERTO to ALUMNO_DETALLE_ABIERTO--><g class="link" data-entity-1="ent0008" data-entity-2="ent0012" id="lnk13" data-source-line="20" data-link-type="dependency"><path d="M1001.1,133.237 C1074.95,135.997 1181.063,139.971 1263.383,143.041" style="stroke:#181818;stroke-width:1;" fill="none" id="ALUMNOS_ABIERTO-to-ALUMNO_DETALLE_ABIERTO"/><polygon points="1268.38,143.227,1259.535,138.894,1263.383,143.041,1259.237,146.889,1268.38,143.227" fill="#181818" style="stroke:#181818;stroke-width:1;stroke-linejoin:miter;stroke-miterlimit:10;"/><text x="1074.99" y="131.364" fill="#000" font-size="13" textLength="120.117">consultarAlumno()</text></g><!--link ALUMNO_DETALLE_ABIERTO to ALUMNOS_ABIERTO--><g class="link" data-entity-1="ent0012" data-entity-2="ent0008" id="lnk14" data-source-line="21" data-link-type="dependency"><path d="M1268.33,161.937 C1245.66,164.987 1228.49,167.297 1228.49,167.297 C1228.49,167.297 1041.49,167.297 1041.49,167.297 C1041.49,167.297 1027.915,163.081 1005.615,156.151" style="stroke:#181818;stroke-width:1;" fill="none" id="ALUMNO_DETALLE_ABIERTO-to-ALUMNOS_ABIERTO"/><polygon points="1000.84,154.667,1008.248,161.158,1005.615,156.151,1010.622,153.518,1000.84,154.667" fill="#181818" style="stroke:#181818;stroke-width:1;stroke-linejoin:miter;stroke-miterlimit:10;"/><text x="1086.49" y="163.364" fill="#000" font-size="13" textLength="97.037">abrirAlumnos()</text></g><!--link SISTEMA_DISPONIBLE to MATRICULAS_ABIERTO--><g class="link" data-entity-1="ent0004" data-entity-2="ent0015" id="lnk16" data-source-line="26" data-link-type="dependency"><path d="M514.42,381.857 C548.48,351.067 601.32,303.297 601.32,303.297 C601.32,303.297 801.32,303.297 801.32,303.297 C801.32,303.297 809.291,303.434 826.681,303.724" style="stroke:#181818;stroke-width:1;" fill="none" id="SISTEMA_DISPONIBLE-to-MATRICULAS_ABIERTO"/><polygon points="831.68,303.807,822.748,299.657,826.681,303.724,822.615,307.656,831.68,303.807" fill="#181818" style="stroke:#181818;stroke-width:1;stroke-linejoin:miter;stroke-miterlimit:10;"/><text x="647.82" y="299.364" fill="#000" font-size="13" textLength="107.637">abrirMatriculas()</text></g><!--link MATRICULAS_ABIERTO to SISTEMA_DISPONIBLE--><g class="link" data-entity-1="ent0015" data-entity-2="ent0004" id="lnk17" data-source-line="27" data-link-type="dependency"><path d="M831.73,326.137 C755.7,343.997 651.758,368.424 576.658,386.064" style="stroke:#181818;stroke-width:1;" fill="none" id="MATRICULAS_ABIERTO-to-SISTEMA_DISPONIBLE"/><polygon points="571.79,387.207,581.466,389.043,576.658,386.064,579.637,381.255,571.79,387.207" fill="#181818" style="stroke:#181818;stroke-width:1;stroke-linejoin:miter;stroke-miterlimit:10;"/><text x="605.32" y="332.364" fill="#000" font-size="13" textLength="192.899">completarGestionMatriculas()</text></g><!--link MATRICULAS_ABIERTO to MATRICULAS_ABIERTO--><g class="link" data-entity-1="ent0015" data-entity-2="ent0015" id="lnk18" data-source-line="29" data-link-type="dependency"><path d="M903.33,280.017 C897.86,262.527 903.88,245.297 921.4,245.297 C938.92,245.297 946.445,257.756 940.965,275.246" style="stroke:#181818;stroke-width:1;" fill="none" id="MATRICULAS_ABIERTO-to-MATRICULAS_ABIERTO"/><polygon points="939.47,280.017,945.978,272.625,940.965,275.246,938.344,270.233,939.47,280.017" fill="#181818" style="stroke:#181818;stroke-width:1;stroke-linejoin:miter;stroke-miterlimit:10;"/><text x="854.9" y="236.364" fill="#000" font-size="13" textLength="133.352">importarMatriculas()</text></g><!--link MATRICULAS_ABIERTO to MATRICULAS_ABIERTO--><g class="link" data-entity-1="ent0015" data-entity-2="ent0015" id="lnk19" data-source-line="30" data-link-type="dependency"><path d="M893.33,279.997 C870.75,248.187 880.1,210.297 921.4,210.297 C962.7,210.297 974.955,244.11 952.365,275.92" style="stroke:#181818;stroke-width:1;" fill="none" id="MATRICULAS_ABIERTO-to-MATRICULAS_ABIERTO-1"/><polygon points="949.47,279.997,957.942,274.975,952.365,275.92,951.42,270.343,949.47,279.997" fill="#181818" style="stroke:#181818;stroke-width:1;stroke-linejoin:miter;stroke-miterlimit:10;"/><text x="845.4" y="201.364" fill="#000" font-size="13" textLength="152.325">cerrarCicloAcademico()</text></g><!--link MATRICULAS_ABIERTO to MATRICULA_DETALLE_ABIERTA--><g class="link" data-entity-1="ent0015" data-entity-2="ent0020" id="lnk21" data-source-line="31" data-link-type="dependency"><path d="M1011.13,291.887 C1028.51,289.257 1041.49,287.297 1041.49,287.297 C1041.49,287.297 1157.603,273.804 1254.323,262.574" style="stroke:#181818;stroke-width:1;" fill="none" id="MATRICULAS_ABIERTO-to-MATRICULA_DETALLE_ABIERTA"/><polygon points="1259.29,261.997,1249.889,259.062,1254.323,262.574,1250.811,267.008,1259.29,261.997" fill="#181818" style="stroke:#181818;stroke-width:1;stroke-linejoin:miter;stroke-miterlimit:10;"/><text x="1046.49" y="263.364" fill="#000" font-size="13" textLength="177.011">consultarDetalleMatricula()</text></g><!--link MATRICULA_DETALLE_ABIERTA to MATRICULAS_ABIERTO--><g class="link" data-entity-1="ent0020" data-entity-2="ent0015" id="lnk22" data-source-line="32" data-link-type="dependency"><path d="M1307.1,273.687 C1281.41,282.997 1258.49,291.297 1258.49,291.297 C1258.49,291.297 1228.49,312.297 1228.49,312.297 C1228.49,312.297 1041.49,312.297 1041.49,312.297 C1041.49,312.297 1033.501,311.83 1016.121,310.81" style="stroke:#181818;stroke-width:1;" fill="none" id="MATRICULA_DETALLE_ABIERTA-to-MATRICULAS_ABIERTO"/><polygon points="1011.13,310.517,1019.88,315.037,1016.121,310.81,1020.349,307.051,1011.13,310.517" fill="#181818" style="stroke:#181818;stroke-width:1;stroke-linejoin:miter;stroke-miterlimit:10;"/><text x="1081.49" y="308.364" fill="#000" font-size="13" textLength="107.637">abrirMatriculas()</text></g><!--link SISTEMA_DISPONIBLE to ASISTENCIAS_ABIERTO--><g class="link" data-entity-1="ent0004" data-entity-2="ent0023" id="lnk24" data-source-line="37" data-link-type="dependency"><path d="M571.54,410.007 C664.83,412.967 801.32,417.297 801.32,417.297 C801.32,417.297 809.047,418.457 826.117,421.047" style="stroke:#181818;stroke-width:1;" fill="none" id="SISTEMA_DISPONIBLE-to-ASISTENCIAS_ABIERTO"/><polygon points="831.06,421.797,822.762,416.492,826.117,421.047,821.562,424.402,831.06,421.797" fill="#181818" style="stroke:#181818;stroke-width:1;stroke-linejoin:miter;stroke-miterlimit:10;"/><text x="644.82" y="406.364" fill="#000" font-size="13" textLength="113.547">abrirAsistencias()</text></g><!--link ASISTENCIAS_ABIERTO to SISTEMA_DISPONIBLE--><g class="link" data-entity-1="ent0023" data-entity-2="ent0004" id="lnk25" data-source-line="38" data-link-type="dependency"><path d="M831.06,440.547 C813.99,441.557 801.32,442.297 801.32,442.297 C801.32,442.297 601.32,442.297 601.32,442.297 C601.32,442.297 592.504,439.61 574.664,434.19" style="stroke:#181818;stroke-width:1;" fill="none" id="ASISTENCIAS_ABIERTO-to-SISTEMA_DISPONIBLE"/><polygon points="569.88,432.737,577.329,439.18,574.664,434.19,579.654,431.526,569.88,432.737" fill="#181818" style="stroke:#181818;stroke-width:1;stroke-linejoin:miter;stroke-miterlimit:10;"/><text x="602.32" y="438.364" fill="#000" font-size="13" textLength="198.809">completarGestionAsistencias()</text></g><!--link ASISTENCIAS_ABIERTO to ASISTENCIAS_ABIERTO--><g class="link" data-entity-1="ent0023" data-entity-2="ent0023" id="lnk26" data-source-line="40" data-link-type="dependency"><path d="M885.27,410.017 C874.32,392.527 886.36,375.297 921.4,375.297 C956.44,375.297 971.143,388.289 960.193,405.779" style="stroke:#181818;stroke-width:1;" fill="none" id="ASISTENCIAS_ABIERTO-to-ASISTENCIAS_ABIERTO"/><polygon points="957.54,410.017,965.706,404.511,960.193,405.779,958.926,400.266,957.54,410.017" fill="#181818" style="stroke:#181818;stroke-width:1;stroke-linejoin:miter;stroke-miterlimit:10;"/><text x="825.4" y="366.364" fill="#000" font-size="13" textLength="192.423">exportarHistorialAsistencias()</text></g><!--link ASISTENCIAS_ABIERTO to SESION_CLASE_ABIERTA--><g class="link" data-entity-1="ent0023" data-entity-2="ent0027" id="lnk28" data-source-line="41" data-link-type="dependency"><path d="M1011.75,421.797 C1028.82,419.207 1041.49,417.297 1041.49,417.297 C1041.49,417.297 1228.49,417.297 1228.49,417.297 C1228.49,417.297 1248.034,418.085 1277.164,419.265" style="stroke:#181818;stroke-width:1;" fill="none" id="ASISTENCIAS_ABIERTO-to-SESION_CLASE_ABIERTA"/><polygon points="1282.16,419.467,1273.329,415.106,1277.164,419.265,1273.005,423.099,1282.16,419.467" fill="#181818" style="stroke:#181818;stroke-width:1;stroke-linejoin:miter;stroke-miterlimit:10;"/><text x="1073.99" y="413.364" fill="#000" font-size="13" textLength="122.199">crearSesionClase()</text></g><!--link SESION_CLASE_ABIERTA to ASISTENCIAS_ABIERTO--><g class="link" data-entity-1="ent0027" data-entity-2="ent0023" id="lnk31" data-source-line="45" data-link-type="dependency"><path d="M1282.16,435.437 C1253.03,439.157 1228.49,442.297 1228.49,442.297 C1228.49,442.297 1041.49,442.297 1041.49,442.297 C1041.49,442.297 1033.811,441.852 1016.741,440.842" style="stroke:#181818;stroke-width:1;" fill="none" id="SESION_CLASE_ABIERTA-to-ASISTENCIAS_ABIERTO"/><polygon points="1011.75,440.547,1020.498,445.071,1016.741,440.842,1020.971,437.085,1011.75,440.547" fill="#181818" style="stroke:#181818;stroke-width:1;stroke-linejoin:miter;stroke-miterlimit:10;"/><text x="1071.49" y="438.364" fill="#000" font-size="13" textLength="127.543">cerrarSesionClase()</text></g><!--link SESION_CLASE_ABIERTA to SESION_CLASE_ABIERTA--><g class="link" data-entity-1="ent0027" data-entity-2="ent0027" id="lnk29" data-source-line="43" data-link-type="dependency"><path d="M1357.59,398.017 C1351.36,380.527 1358.22,363.297 1378.17,363.297 C1398.11,363.297 1406.648,375.817 1400.418,393.307" style="stroke:#181818;stroke-width:1;" fill="none" id="SESION_CLASE_ABIERTA-to-SESION_CLASE_ABIERTA"/><polygon points="1398.74,398.017,1405.528,390.881,1400.418,393.307,1397.992,388.196,1398.74,398.017" fill="#181818" style="stroke:#181818;stroke-width:1;stroke-linejoin:miter;stroke-miterlimit:10;"/><text x="1315.17" y="354.364" fill="#000" font-size="13" textLength="126.667">editarSesionClase()</text></g><!--link SESION_CLASE_ABIERTA to SESION_CLASE_ABIERTA--><g class="link" data-entity-1="ent0027" data-entity-2="ent0027" id="lnk30" data-source-line="44" data-link-type="dependency"><path d="M1346.21,397.997 C1320.49,366.187 1331.14,328.297 1378.17,328.297 C1425.19,328.297 1438.984,362.299 1413.264,394.109" style="stroke:#181818;stroke-width:1;" fill="none" id="SESION_CLASE_ABIERTA-to-SESION_CLASE_ABIERTA-1"/><polygon points="1410.12,397.997,1418.889,393.513,1413.264,394.109,1412.668,388.483,1410.12,397.997" fill="#181818" style="stroke:#181818;stroke-width:1;stroke-linejoin:miter;stroke-miterlimit:10;"/><text x="1294.17" y="319.364" fill="#000" font-size="13" textLength="168.511">registrarTomaAsistencia()</text></g><!--link SISTEMA_DISPONIBLE to DISPENSAS_ABIERTO--><g class="link" data-entity-1="ent0004" data-entity-2="ent0032" id="lnk33" data-source-line="50" data-link-type="dependency"><path d="M535.07,432.747 C566.42,449.097 601.32,467.297 601.32,467.297 C601.32,467.297 738.017,502.422 832.557,526.722" style="stroke:#181818;stroke-width:1;" fill="none" id="SISTEMA_DISPONIBLE-to-DISPENSAS_ABIERTO"/><polygon points="837.4,527.967,829.679,521.852,832.557,526.722,827.688,529.6,837.4,527.967" fill="#181818" style="stroke:#181818;stroke-width:1;stroke-linejoin:miter;stroke-miterlimit:10;"/><text x="647.82" y="463.364" fill="#000" font-size="13" textLength="107.06">abrirDispensas()</text></g><!--link DISPENSAS_ABIERTO to SISTEMA_DISPONIBLE--><g class="link" data-entity-1="ent0032" data-entity-2="ent0004" id="lnk34" data-source-line="51" data-link-type="dependency"><path d="M837.4,547.477 C742.86,545.407 601.32,542.297 601.32,542.297 C601.32,542.297 544.483,475.603 511.163,436.493" style="stroke:#181818;stroke-width:1;" fill="none" id="DISPENSAS_ABIERTO-to-SISTEMA_DISPONIBLE"/><polygon points="507.92,432.687,510.712,442.132,511.163,436.493,516.801,436.944,507.92,432.687" fill="#181818" style="stroke:#181818;stroke-width:1;stroke-linejoin:miter;stroke-miterlimit:10;"/><text x="605.32" y="538.364" fill="#000" font-size="13" textLength="192.321">completarGestionDispensas()</text></g><!--link DISPENSAS_ABIERTO to SOLICITUD_DISPENSA_ABIERTA--><g class="link" data-entity-1="ent0032" data-entity-2="ent0035" id="lnk36" data-source-line="53" data-link-type="dependency"><path d="M1005.44,536.747 C1025.6,533.697 1041.49,531.297 1041.49,531.297 C1041.49,531.297 1228.49,531.297 1228.49,531.297 C1228.49,531.297 1235.794,532.374 1253.274,534.964" style="stroke:#181818;stroke-width:1;" fill="none" id="DISPENSAS_ABIERTO-to-SOLICITUD_DISPENSA_ABIERTA"/><polygon points="1258.22,535.697,1249.903,530.421,1253.274,534.964,1248.731,538.335,1258.22,535.697" fill="#181818" style="stroke:#181818;stroke-width:1;stroke-linejoin:miter;stroke-miterlimit:10;"/><text x="1055.49" y="527.364" fill="#000" font-size="13" textLength="159.345">crearSolicitudDispensa()</text></g><!--link DISPENSAS_ABIERTO to SOLICITUD_DISPENSA_ABIERTA--><g class="link" data-entity-1="ent0032" data-entity-2="ent0035" id="lnk37" data-source-line="54" data-link-type="dependency"><path d="M1005.44,554.177 C1025.6,555.367 1041.49,556.297 1041.49,556.297 C1041.49,556.297 1228.49,556.297 1228.49,556.297 C1228.49,556.297 1235.741,556.147 1253.221,555.797" style="stroke:#181818;stroke-width:1;" fill="none" id="DISPENSAS_ABIERTO-to-SOLICITUD_DISPENSA_ABIERTA-1"/><polygon points="1258.22,555.697,1249.142,551.878,1253.221,555.797,1249.302,559.876,1258.22,555.697" fill="#181818" style="stroke:#181818;stroke-width:1;stroke-linejoin:miter;stroke-miterlimit:10;"/><text x="1042.49" y="552.364" fill="#000" font-size="13" textLength="185.917">consultarSolicitudDispensa()</text></g><!--link SOLICITUD_DISPENSA_ABIERTA to DISPENSAS_ABIERTO--><g class="link" data-entity-1="ent0035" data-entity-2="ent0032" id="lnk39" data-source-line="57" data-link-type="dependency"><path d="M1258.22,575.697 C1240.74,578.987 1228.49,581.297 1228.49,581.297 C1228.49,581.297 1041.49,581.297 1041.49,581.297 C1041.49,581.297 1030.429,578.325 1010.269,572.905" style="stroke:#181818;stroke-width:1;" fill="none" id="SOLICITUD_DISPENSA_ABIERTA-to-DISPENSAS_ABIERTO"/><polygon points="1005.44,571.607,1013.093,577.806,1010.269,572.905,1015.17,570.081,1005.44,571.607" fill="#181818" style="stroke:#181818;stroke-width:1;stroke-linejoin:miter;stroke-miterlimit:10;"/><text x="1081.49" y="577.364" fill="#000" font-size="13" textLength="107.06">abrirDispensas()</text></g><!--link SOLICITUD_DISPENSA_ABIERTA to SOLICITUD_DISPENSA_ABIERTA--><g class="link" data-entity-1="ent0035" data-entity-2="ent0035" id="lnk38" data-source-line="56" data-link-type="dependency"><path d="M1337.02,528.017 C1324.55,510.527 1338.27,493.297 1378.17,493.297 C1418.06,493.297 1434.683,506.456 1422.213,523.946" style="stroke:#181818;stroke-width:1;" fill="none" id="SOLICITUD_DISPENSA_ABIERTA-to-SOLICITUD_DISPENSA_ABIERTA"/><polygon points="1419.31,528.017,1427.792,523.011,1422.213,523.946,1421.278,518.367,1419.31,528.017" fill="#181818" style="stroke:#181818;stroke-width:1;stroke-linejoin:miter;stroke-miterlimit:10;"/><text x="1296.67" y="484.364" fill="#000" font-size="13" textLength="163.814">editarSolicitudDispensa()</text></g><!--link SISTEMA_DISPONIBLE to USUARIOS_ABIERTO--><g class="link" data-entity-1="ent0004" data-entity-2="ent0040" id="lnk41" data-source-line="62" data-link-type="dependency"><path d="M504.01,432.567 C536.27,478.567 601.32,571.297 601.32,571.297 C601.32,571.297 741.396,611.682 835.906,638.932" style="stroke:#181818;stroke-width:1;" fill="none" id="SISTEMA_DISPONIBLE-to-USUARIOS_ABIERTO"/><polygon points="840.71,640.317,833.17,633.98,835.906,638.932,830.954,641.667,840.71,640.317" fill="#181818" style="stroke:#181818;stroke-width:1;stroke-linejoin:miter;stroke-miterlimit:10;"/><text x="653.32" y="567.364" fill="#000" font-size="13" textLength="96.84">abrirUsuarios()</text></g><!--link USUARIOS_ABIERTO to SISTEMA_DISPONIBLE--><g class="link" data-entity-1="ent0040" data-entity-2="ent0004" id="lnk42" data-source-line="63" data-link-type="dependency"><path d="M840.71,660.547 C746.2,657.287 601.32,652.297 601.32,652.297 C601.32,652.297 529.675,499.713 500.285,437.123" style="stroke:#181818;stroke-width:1;" fill="none" id="USUARIOS_ABIERTO-to-SISTEMA_DISPONIBLE"/><polygon points="498.16,432.597,498.365,442.444,500.285,437.123,505.606,439.043,498.16,432.597" fill="#181818" style="stroke:#181818;stroke-width:1;stroke-linejoin:miter;stroke-miterlimit:10;"/><text x="610.32" y="648.364" fill="#000" font-size="13" textLength="182.102">completarGestionUsuarios()</text></g><!--link USUARIOS_ABIERTO to USUARIO_DETALLE_ABIERTO--><g class="link" data-entity-1="ent0040" data-entity-2="ent0043" id="lnk44" data-source-line="65" data-link-type="dependency"><path d="M1002.4,673.327 C1075.92,682.537 1180.619,695.665 1262.349,705.905" style="stroke:#181818;stroke-width:1;" fill="none" id="USUARIOS_ABIERTO-to-USUARIO_DETALLE_ABIERTO"/><polygon points="1267.31,706.527,1258.877,701.439,1262.349,705.905,1257.883,709.377,1267.31,706.527" fill="#181818" style="stroke:#181818;stroke-width:1;stroke-linejoin:miter;stroke-miterlimit:10;"/><text x="1088.49" y="674.364" fill="#000" font-size="13" textLength="93.349">crearUsuario()</text></g><!--link USUARIOS_ABIERTO to USUARIO_DETALLE_ABIERTO--><g class="link" data-entity-1="ent0040" data-entity-2="ent0043" id="lnk45" data-source-line="66" data-link-type="dependency"><path d="M971.87,688.637 C1004.59,705.397 1041.49,724.297 1041.49,724.297 C1041.49,724.297 1228.49,724.297 1228.49,724.297 C1228.49,724.297 1240.072,723.98 1262.162,723.39" style="stroke:#181818;stroke-width:1;" fill="none" id="USUARIOS_ABIERTO-to-USUARIO_DETALLE_ABIERTO-1"/><polygon points="1267.16,723.257,1258.056,719.499,1262.162,723.39,1258.27,727.496,1267.16,723.257" fill="#181818" style="stroke:#181818;stroke-width:1;stroke-linejoin:miter;stroke-miterlimit:10;"/><text x="1075.49" y="720.364" fill="#000" font-size="13" textLength="119.92">consultarUsuario()</text></g><!--link USUARIO_DETALLE_ABIERTO to USUARIOS_ABIERTO--><g class="link" data-entity-1="ent0043" data-entity-2="ent0040" id="lnk47" data-source-line="69" data-link-type="dependency"><path d="M1267.16,741.757 C1245.07,746.067 1228.49,749.297 1228.49,749.297 C1228.49,749.297 1041.49,749.297 1041.49,749.297 C1041.49,749.297 996.673,716.934 961.543,691.564" style="stroke:#181818;stroke-width:1;" fill="none" id="USUARIO_DETALLE_ABIERTO-to-USUARIOS_ABIERTO"/><polygon points="957.49,688.637,962.444,697.149,961.543,691.564,967.128,690.663,957.49,688.637" fill="#181818" style="stroke:#181818;stroke-width:1;stroke-linejoin:miter;stroke-miterlimit:10;"/><text x="1086.99" y="745.364" fill="#000" font-size="13" textLength="96.84">abrirUsuarios()</text></g><!--link USUARIO_DETALLE_ABIERTO to USUARIO_DETALLE_ABIERTO--><g class="link" data-entity-1="ent0043" data-entity-2="ent0043" id="lnk46" data-source-line="68" data-link-type="dependency"><path d="M1337.02,695.017 C1324.55,677.527 1338.27,660.297 1378.17,660.297 C1418.06,660.297 1434.683,673.456 1422.213,690.946" style="stroke:#181818;stroke-width:1;" fill="none" id="USUARIO_DETALLE_ABIERTO-to-USUARIO_DETALLE_ABIERTO"/><polygon points="1419.31,695.017,1427.792,690.011,1422.213,690.946,1421.278,685.367,1419.31,695.017" fill="#181818" style="stroke:#181818;stroke-width:1;stroke-linejoin:miter;stroke-miterlimit:10;"/><text x="1329.67" y="651.364" fill="#000" font-size="13" textLength="97.817">editarUsuario()</text></g><?plantuml-src hPR1Zfim48RlF8LlJIhj2rHg9IzOMoG2Amo7ggeYbxYfLOCZswas3z5J7sbVh0C92Gc69Mbo2yny_ZtpUumLLd8K2BRMh6HenP6lAijVhF8a_s6HLKYBzK-BLaBpmWfLUUQNg3OCmf6nEqWsLel2RalPUID5nUrkmz56oLtzn_E-ll-67Xu-8KfecCHBdwGf3h3dlOEd3yXFuYnD8XGGX7sVq0JDdbC2JuFGXt12qHE9IOeZGkTrWdUEsPD3cf45NWOXVKxYy34Yw0CIbIW4qvGRq3wRUuwWlYh8AxZMDwIP9Y6i6DJgDuD4sD_7oJy8HcZn-ZV8emJXA5_42RqECA3pm5hYnv2aMG92sNSjD9RRib86P5u63DQpKEL6Silq4pUr7Ku89wE_i2WtIaF--DhxPyk0P3YAI2UzK9NPocF-CRqNEcdRjtTdWRFqzO-VH_W-7QfvOOExLBjWzG7RIbOBTeHDRjKPQ8ZarD7sR8eK9s1_cdnHI8KBjkAbADG4n4LJSRV_0UnCIdwKrCNrygwey7ySsAOBiHzYYcRxoG1p2oQQ3skI-NqEyccDdgkDC9PNCEsQG-K8d7wepr23BBSO_h8tosTWA2sOd2ZiC4hhMdNxhNaxXdre4A_rE4D767mbx2NaMeRcQzW5c3XJ9JljQ8paBa_tOZdkw6RFrMqaCRtJ43hIBhqL2BFXbMaQs0-QxAikPeYJH73ZPtcmRD_tpA0aNEbsksffmvf6MUqWSV6yaTGtoGUxER1lK2UL_tQlv3J7QPXGz0N1fnQvZsLQwANat6oP5iqbsmkPx9SEn4qvF7Hz9zHMEUGFQHZ9Rirn8dX3qUEalHbwGiOe8xNy1m00?></g></svg>