<?xml version="1.0" encoding="us-ascii" standalone="no"?><svg xmlns="http://www.w3.org/2000/svg" xmlns:xlink="http://www.w3.org/1999/xlink" contentStyleType="text/css" height="1650px" preserveAspectRatio="none" style="width:874px;height:1650px;background:#FFFFFF;" version="1.1" viewBox="0 0 874 1650" width="874px" zoomAndPan="magnify"><defs/><g><text fill="#000000" font-family="sans-serif" font-size="14" font-weight="bold" lengthAdjust="spacing" textLength="258" x="301" y="24.5332">Diagrama Completo de Casos de Uso</text><!--cluster Usuarios y roles--><g id="cluster_Usuarios y roles"><rect fill="none" height="227" rx="2.5" ry="2.5" style="stroke:#181818;stroke-width:1.0;" width="193" x="675" y="540.6094"/><text fill="#000000" font-family="sans-serif" font-size="14" font-weight="bold" lengthAdjust="spacing" textLength="113" x="715" y="557.1426">Usuarios y roles</text></g><!--cluster M?dulo Alumnos (Secretaria)--><g id="cluster_M&#243;dulo Alumnos (Secretaria)"><rect fill="none" height="162" rx="2.5" ry="2.5" style="stroke:#181818;stroke-width:1.0;" width="219" x="406" y="925.6094"/><text fill="#000000" font-family="sans-serif" font-size="14" font-weight="bold" lengthAdjust="spacing" textLength="203" x="414" y="942.1426">M&#243;dulo Alumnos (Secretaria)</text></g><!--cluster M?dulo Alumnos (Profesor)--><g id="cluster_M&#243;dulo Alumnos (Profesor)"><rect fill="none" height="96" rx="2.5" ry="2.5" style="stroke:#181818;stroke-width:1.0;" width="230" x="115" y="877.6094"/><text fill="#000000" font-family="sans-serif" font-size="14" font-weight="bold" lengthAdjust="spacing" textLength="192" x="134" y="894.1426">M&#243;dulo Alumnos (Profesor)</text></g><!--cluster M?dulo Matr?culas--><g id="cluster_M&#243;dulo Matr&#237;culas"><rect fill="none" height="251" rx="2.5" ry="2.5" style="stroke:#181818;stroke-width:1.0;" width="239" x="396" y="1111.6094"/><text fill="#000000" font-family="sans-serif" font-size="14" font-weight="bold" lengthAdjust="spacing" textLength="130" x="450.5" y="1128.1426">M&#243;dulo Matr&#237;culas</text></g><!--cluster M?dulo Asistencias--><g id="cluster_M&#243;dulo Asistencias"><rect fill="none" height="403" rx="2.5" ry="2.5" style="stroke:#181818;stroke-width:1.0;" width="252" x="104" y="237.6094"/><text fill="#000000" font-family="sans-serif" font-size="14" font-weight="bold" lengthAdjust="spacing" textLength="137" x="161.5" y="254.1426">M&#243;dulo Asistencias</text></g><!--cluster M?dulo Dispensas (Alumno)--><g id="cluster_M&#243;dulo Dispensas (Alumno)"><rect fill="none" height="258" rx="2.5" ry="2.5" style="stroke:#181818;stroke-width:1.0;" width="241" x="395" y="45.6094"/><text fill="#000000" font-family="sans-serif" font-size="14" font-weight="bold" lengthAdjust="spacing" textLength="196" x="417.5" y="62.1426">M&#243;dulo Dispensas (Alumno)</text></g><!--cluster M?dulo Dispensas (Profesor)--><g id="cluster_M&#243;dulo Dispensas (Profesor)"><rect fill="none" height="100" rx="2.5" ry="2.5" style="stroke:#181818;stroke-width:1.0;" width="249" x="105.5" y="664.6094"/><text fill="#000000" font-family="sans-serif" font-size="14" font-weight="bold" lengthAdjust="spacing" textLength="205" x="127.5" y="681.1426">M&#243;dulo Dispensas (Profesor)</text></g><!--cluster M?dulo Dispensas (Director)--><g id="cluster_M&#243;dulo Dispensas (Director)"><rect fill="none" height="183" rx="2.5" ry="2.5" style="stroke:#181818;stroke-width:1.0;" width="263" x="384" y="718.6094"/><text fill="#000000" font-family="sans-serif" font-size="14" font-weight="bold" lengthAdjust="spacing" textLength="201" x="415" y="735.1426">M&#243;dulo Dispensas (Director)</text></g><!--cluster M?dulo Dispensas (Secretaria)--><g id="cluster_M&#243;dulo Dispensas (Secretaria)"><rect fill="none" height="258" rx="2.5" ry="2.5" style="stroke:#181818;stroke-width:1.0;" width="249" x="391" y="1386.6094"/><text fill="#000000" font-family="sans-serif" font-size="14" font-weight="bold" lengthAdjust="spacing" textLength="216" x="407.5" y="1403.1426">M&#243;dulo Dispensas (Secretaria)</text></g><g id="elem_UsuariosCrear"><ellipse cx="771.7113" cy="593.7516" fill="#F1F1F1" rx="71.2113" ry="16.6423" style="stroke:#181818;stroke-width:0.5;"/><text fill="#000000" font-family="sans-serif" font-size="14" lengthAdjust="spacing" textLength="91" x="723.2113" y="598.2682">crearUsuario()</text></g><g id="elem_UsuariosConsultar"><ellipse cx="771.6887" cy="663.6471" fill="#F1F1F1" rx="80.6887" ry="18.5377" style="stroke:#181818;stroke-width:0.5;"/><text fill="#000000" font-family="sans-serif" font-size="14" lengthAdjust="spacing" textLength="116" x="713.0015" y="667.5754">consultarUsuario()</text></g><g id="elem_UsuariosEditar"><ellipse cx="771.2859" cy="734.4666" fill="#F1F1F1" rx="72.2859" ry="16.8572" style="stroke:#181818;stroke-width:0.5;"/><text fill="#000000" font-family="sans-serif" font-size="14" lengthAdjust="spacing" textLength="94" x="721.2859" y="738.9832">editarUsuario()</text></g><g id="elem_AlumnosImportar"><ellipse cx="515.6887" cy="980.6471" fill="#F1F1F1" rx="80.6887" ry="18.5377" style="stroke:#181818;stroke-width:0.5;"/><text fill="#000000" font-family="sans-serif" font-size="14" lengthAdjust="spacing" textLength="116" x="457.0015" y="984.5754">importarAlumnos()</text></g><g id="elem_AlumnosConsultar"><ellipse cx="515.2827" cy="1052.5659" fill="#F1F1F1" rx="80.2827" ry="18.4565" style="stroke:#181818;stroke-width:0.5;"/><text fill="#000000" font-family="sans-serif" font-size="14" lengthAdjust="spacing" textLength="115" x="456.9192" y="1056.5435">consultarAlumno()</text></g><g id="elem_ProfesorConsultarAlumno"><ellipse cx="230.1681" cy="935.843" fill="#F1F1F1" rx="99.1681" ry="22.2336" style="stroke:#181818;stroke-width:0.5;"/><text fill="#000000" font-family="sans-serif" font-size="14" lengthAdjust="spacing" textLength="159" x="150.6681" y="939.5715">consultarDetalleAlumno()</text></g><g id="elem_MatriculasImportar"><ellipse cx="515.3478" cy="1245.4789" fill="#F1F1F1" rx="84.8478" ry="19.3696" style="stroke:#181818;stroke-width:0.5;"/><text fill="#000000" font-family="sans-serif" font-size="14" lengthAdjust="spacing" textLength="126" x="452.3478" y="1249.2075">importarMatriculas()</text></g><g id="elem_MatriculasVerDetalle"><ellipse cx="515.6395" cy="1323.7373" fill="#F1F1F1" rx="103.6395" ry="23.1279" style="stroke:#181818;stroke-width:0.5;"/><text fill="#000000" font-family="sans-serif" font-size="14" lengthAdjust="spacing" textLength="169" x="431.1395" y="1327.4658">consultarDetalleMatricula()</text></g><g id="elem_MatriculasCerrarCiclo"><ellipse cx="515.313" cy="1169.372" fill="#F1F1F1" rx="94.313" ry="21.2626" style="stroke:#181818;stroke-width:0.5;"/><text fill="#000000" font-family="sans-serif" font-size="14" lengthAdjust="spacing" textLength="148" x="441.313" y="1173.1005">cerrarCicloAcademico()</text></g><g id="elem_AsistenciasCrearSesion"><ellipse cx="230.169" cy="292.6432" fill="#F1F1F1" rx="83.169" ry="19.0338" style="stroke:#181818;stroke-width:0.5;"/><text fill="#000000" font-family="sans-serif" font-size="14" lengthAdjust="spacing" textLength="122" x="169.169" y="296.3717">crearSesionClase()</text></g><g id="elem_AsistenciasEditarSesion"><ellipse cx="229.9267" cy="366.3947" fill="#F1F1F1" rx="84.4267" ry="19.2853" style="stroke:#181818;stroke-width:0.5;"/><text fill="#000000" font-family="sans-serif" font-size="14" lengthAdjust="spacing" textLength="125" x="167.4267" y="370.1232">editarSesionClase()</text></g><g id="elem_AsistenciasRegistrarToma"><ellipse cx="229.9506" cy="443.6995" fill="#F1F1F1" rx="100.9506" ry="22.5901" style="stroke:#181818;stroke-width:0.5;"/><text fill="#000000" font-family="sans-serif" font-size="14" lengthAdjust="spacing" textLength="163" x="148.4506" y="447.428">registrarTomaAsistencia()</text></g><g id="elem_AsistenciasCerrarSesion"><ellipse cx="229.7698" cy="520.5633" fill="#F1F1F1" rx="85.2698" ry="19.454" style="stroke:#181818;stroke-width:0.5;"/><text fill="#000000" font-family="sans-serif" font-size="14" lengthAdjust="spacing" textLength="127" x="166.2698" y="524.2918">cerrarSesionClase()</text></g><g id="elem_AsistenciasExportarHistorial"><ellipse cx="229.9781" cy="599.505" fill="#F1F1F1" rx="109.9781" ry="24.3956" style="stroke:#181818;stroke-width:0.5;"/><text fill="#000000" font-family="sans-serif" font-size="14" lengthAdjust="spacing" textLength="183" x="138.4781" y="603.2335">exportarHistorialAsistencias()</text></g><g id="elem_AlumnoCrearDispensa"><ellipse cx="515.3945" cy="182.4883" fill="#F1F1F1" rx="97.3945" ry="21.8789" style="stroke:#181818;stroke-width:0.5;"/><text fill="#000000" font-family="sans-serif" font-size="14" lengthAdjust="spacing" textLength="155" x="437.8945" y="186.2168">crearSolicitudDispensa()</text></g><g id="elem_AlumnoConsultarDispensa"><ellipse cx="515.5397" cy="263.4173" fill="#F1F1F1" rx="104.5397" ry="23.3079" style="stroke:#181818;stroke-width:0.5;"/><text fill="#000000" font-family="sans-serif" font-size="14" lengthAdjust="spacing" textLength="171" x="430.0397" y="267.1458">consultarEstadoDispensa()</text></g><g id="elem_AlumnoEditarDispensa"><ellipse cx="515.7239" cy="103.7542" fill="#F1F1F1" rx="98.7239" ry="22.1448" style="stroke:#181818;stroke-width:0.5;"/><text fill="#000000" font-family="sans-serif" font-size="14" lengthAdjust="spacing" textLength="158" x="436.7239" y="107.4827">editarSolicitudDispensa()</text></g><g id="elem_ProfesorConsultarDispensa"><ellipse cx="230.1128" cy="724.7319" fill="#F1F1F1" rx="108.6128" ry="24.1226" style="stroke:#181818;stroke-width:0.5;"/><text fill="#000000" font-family="sans-serif" font-size="14" lengthAdjust="spacing" textLength="180" x="140.1128" y="728.4605">consultarSolicitudDispensa()</text></g><g id="elem_DirectorConsultarDispensa"><ellipse cx="515.4736" cy="780.6041" fill="#F1F1F1" rx="115.4736" ry="25.4947" style="stroke:#181818;stroke-width:0.5;"/><text fill="#000000" font-family="sans-serif" font-size="14" lengthAdjust="spacing" textLength="195" x="417.9736" y="784.3326">consultarSolicitudesDispensa()</text></g><g id="elem_DirectorEditarDispensa"><ellipse cx="515.7239" cy="863.7542" fill="#F1F1F1" rx="98.7239" ry="22.1448" style="stroke:#181818;stroke-width:0.5;"/><text fill="#000000" font-family="sans-serif" font-size="14" lengthAdjust="spacing" textLength="158" x="436.7239" y="867.4827">editarSolicitudDispensa()</text></g><g id="elem_SecCrearDispensa"><ellipse cx="515.3945" cy="1523.4883" fill="#F1F1F1" rx="97.3945" ry="21.8789" style="stroke:#181818;stroke-width:0.5;"/><text fill="#000000" font-family="sans-serif" font-size="14" lengthAdjust="spacing" textLength="155" x="437.8945" y="1527.2168">crearSolicitudDispensa()</text></g><g id="elem_SecConsultarDispensa"><ellipse cx="515.6128" cy="1604.7319" fill="#F1F1F1" rx="108.6128" ry="24.1226" style="stroke:#181818;stroke-width:0.5;"/><text fill="#000000" font-family="sans-serif" font-size="14" lengthAdjust="spacing" textLength="180" x="425.6128" y="1608.4605">consultarSolicitudDispensa()</text></g><g id="elem_SecEditarDispensa"><ellipse cx="515.7239" cy="1444.7542" fill="#F1F1F1" rx="98.7239" ry="22.1448" style="stroke:#181818;stroke-width:0.5;"/><text fill="#000000" font-family="sans-serif" font-size="14" lengthAdjust="spacing" textLength="158" x="436.7239" y="1448.4827">editarSolicitudDispensa()</text></g><!--entity Alumno--><g id="elem_Alumno"><ellipse cx="230" cy="152.1094" fill="#F1F1F1" rx="8" ry="8" style="stroke:#181818;stroke-width:0.5;"/><path d="M230,160.1094 L230,187.1094 M217,168.1094 L243,168.1094 M230,187.1094 L217,202.1094 M230,187.1094 L243,202.1094 " fill="none" style="stroke:#181818;stroke-width:0.5;"/><text fill="#000000" font-family="sans-serif" font-size="14" lengthAdjust="spacing" textLength="47" x="206.5" y="218.1426">Alumno</text></g><!--entity Profesor--><g id="elem_Profesor"><ellipse cx="33" cy="530.1094" fill="#F1F1F1" rx="8" ry="8" style="stroke:#181818;stroke-width:0.5;"/><path d="M33,538.1094 L33,565.1094 M20,546.1094 L46,546.1094 M33,565.1094 L20,580.1094 M33,565.1094 L46,580.1094 " fill="none" style="stroke:#181818;stroke-width:0.5;"/><text fill="#000000" font-family="sans-serif" font-size="14" lengthAdjust="spacing" textLength="54" x="6" y="596.1426">Profesor</text></g><!--entity DirectorDeGrado--><g id="elem_DirectorDeGrado"><ellipse cx="230" cy="792.1094" fill="#F1F1F1" rx="8" ry="8" style="stroke:#181818;stroke-width:0.5;"/><path d="M230,800.1094 L230,827.1094 M217,808.1094 L243,808.1094 M230,827.1094 L217,842.1094 M230,827.1094 L243,842.1094 " fill="none" style="stroke:#181818;stroke-width:0.5;"/><text fill="#000000" font-family="sans-serif" font-size="14" lengthAdjust="spacing" textLength="108" x="176" y="858.1426">DirectorDeGrado</text></g><!--entity SecretariaAcademica--><g id="elem_SecretariaAcademica"><ellipse cx="230" cy="1215.1094" fill="#F1F1F1" rx="8" ry="8" style="stroke:#181818;stroke-width:0.5;"/><path d="M230,1223.1094 L230,1250.1094 M217,1231.1094 L243,1231.1094 M230,1250.1094 L217,1265.1094 M230,1250.1094 L243,1265.1094 " fill="none" style="stroke:#181818;stroke-width:0.5;"/><text fill="#000000" font-family="sans-serif" font-size="14" lengthAdjust="spacing" textLength="134" x="163" y="1281.1426">SecretariaAcademica</text></g><!--entity Administrador--><g id="elem_Administrador"><ellipse cx="515.5" cy="633.1094" fill="#F1F1F1" rx="8" ry="8" style="stroke:#181818;stroke-width:0.5;"/><path d="M515.5,641.1094 L515.5,668.1094 M502.5,649.1094 L528.5,649.1094 M515.5,668.1094 L502.5,683.1094 M515.5,668.1094 L528.5,683.1094 " fill="none" style="stroke:#181818;stroke-width:0.5;"/><text fill="#000000" font-family="sans-serif" font-size="14" lengthAdjust="spacing" textLength="87" x="472" y="699.1426">Administrador</text></g><!--reverse link Profesor to DirectorDeGrado--><g id="link_Profesor_DirectorDeGrado"><path d="M38.1093,617.7962 C42.6993,662.7262 54.65,718.1594 96,764.6094 C116.77,787.9394 148.62,802.2794 175.95,810.8594 " fill="none" id="Profesor-backto-DirectorDeGrado" style="stroke:#181818;stroke-width:1.0;"/><polygon fill="none" points="36.28,599.8894,32.1404,618.406,44.0783,617.1864,36.28,599.8894" style="stroke:#181818;stroke-width:1.0;"/></g><!--reverse link DirectorDeGrado to Administrador--><g id="link_DirectorDeGrado_Administrador"><path d="M301.1854,803.5147 C327.8654,794.5647 342.04,786.1094 364,764.6094 C373.09,755.7094 367.29,747.8894 376,738.6094 C402.38,710.4894 441.71,690.5894 471.73,678.3894 " fill="none" id="DirectorDeGrado-backto-Administrador" style="stroke:#181818;stroke-width:1.0;"/><polygon fill="none" points="284.12,809.2394,303.0936,809.2031,299.2772,797.8262,284.12,809.2394" style="stroke:#181818;stroke-width:1.0;"/></g><!--reverse link SecretariaAcademica to Administrador--><g id="link_SecretariaAcademica_Administrador"><path d="M265.9312,1191.2913 C297.7012,1140.1713 341.18,1061.9094 364,973.6094 C370.54,948.2994 362.05,760.7194 376,738.6094 C397.37,704.7294 439.64,685.0594 471.89,674.4394 " fill="none" id="SecretariaAcademica-backto-Administrador" style="stroke:#181818;stroke-width:1.0;"/><polygon fill="none" points="256.43,1206.5794,271.0273,1194.4583,260.8352,1188.1242,256.43,1206.5794" style="stroke:#181818;stroke-width:1.0;"/></g><!--reverse link Alumno to Administrador--><g id="link_Alumno_Administrador"><path d="M270.5972,194.8388 C300.4272,204.7188 335.53,220.6494 364,257.6094 C376.89,274.3494 369.53,283.4994 376,303.6094 C414.19,422.3394 470.12,558.8594 497.76,624.4394 " fill="none" id="Alumno-backto-Administrador" style="stroke:#181818;stroke-width:1.0;"/><polygon fill="none" points="253.51,189.1794,268.7107,200.5345,272.4836,189.1431,253.51,189.1794" style="stroke:#181818;stroke-width:1.0;"/></g><!--link Administrador to UsuariosCrear--><g id="link_Administrador_UsuariosCrear"><path d="M559.01,651.8894 C604.91,639.2394 671.9657,620.7638 719.0557,607.7838 " fill="none" id="Administrador-to-UsuariosCrear" style="stroke:#181818;stroke-width:1.0;"/><polygon fill="#181818" points="724.84,606.1894,715.1006,604.7248,720.0198,607.518,717.2265,612.4372,724.84,606.1894" style="stroke:#181818;stroke-width:1.0;"/></g><!--link Administrador to UsuariosConsultar--><g id="link_Administrador_UsuariosConsultar"><path d="M559.01,663.6094 C594.89,663.6094 641.21,663.6094 684.84,663.6094 " fill="none" id="Administrador-to-UsuariosConsultar" style="stroke:#181818;stroke-width:1.0;"/><polygon fill="#181818" points="690.84,663.6094,681.84,659.6094,685.84,663.6094,681.84,667.6094,690.84,663.6094" style="stroke:#181818;stroke-width:1.0;"/></g><!--link Administrador to UsuariosEditar--><g id="link_Administrador_UsuariosEditar"><path d="M559.01,675.4894 C604.63,688.2394 671.0816,706.814 718.1916,719.984 " fill="none" id="Administrador-to-UsuariosEditar" style="stroke:#181818;stroke-width:1.0;"/><polygon fill="#181818" points="723.97,721.5994,716.3793,715.324,719.1546,720.2532,714.2254,723.0286,723.97,721.5994" style="stroke:#181818;stroke-width:1.0;"/></g><!--link Alumno to AlumnoCrearDispensa--><g id="link_Alumno_AlumnoCrearDispensa"><path d="M253.72,182.6094 C289.07,182.6094 353.26,182.6094 411.92,182.6094 " fill="none" id="Alumno-to-AlumnoCrearDispensa" style="stroke:#181818;stroke-width:1.0;"/><polygon fill="#181818" points="417.92,182.6094,408.92,178.6094,412.92,182.6094,408.92,186.6094,417.92,182.6094" style="stroke:#181818;stroke-width:1.0;"/></g><!--link Alumno to AlumnoConsultarDispensa--><g id="link_Alumno_AlumnoConsultarDispensa"><path d="M253.72,189.0994 C295.83,201.1294 381.6409,225.6509 444.2509,243.5409 " fill="none" id="Alumno-to-AlumnoConsultarDispensa" style="stroke:#181818;stroke-width:1.0;"/><polygon fill="#181818" points="450.02,245.1894,442.4653,238.8706,445.2124,243.8157,440.2674,246.5628,450.02,245.1894" style="stroke:#181818;stroke-width:1.0;"/></g><!--link Alumno to AlumnoEditarDispensa--><g id="link_Alumno_AlumnoEditarDispensa"><path d="M253.72,176.2794 C296.56,164.3394 384.7903,139.7601 447.4403,122.3001 " fill="none" id="Alumno-to-AlumnoEditarDispensa" style="stroke:#181818;stroke-width:1.0;"/><polygon fill="#181818" points="453.22,120.6894,443.4765,119.2524,448.4035,122.0317,445.6242,126.9587,453.22,120.6894" style="stroke:#181818;stroke-width:1.0;"/></g><!--link Profesor to ProfesorConsultarAlumno--><g id="link_Profesor_ProfesorConsultarAlumno"><path d="M37.09,599.7694 C43.75,675.0094 61.68,836.0994 96,878.6094 C112.02,898.4494 130.6034,909.4631 154.0134,918.0031 " fill="none" id="Profesor-to-ProfesorConsultarAlumno" style="stroke:#181818;stroke-width:1.0;"/><polygon fill="#181818" points="159.65,920.0594,152.5659,913.2172,154.9528,918.3458,149.8242,920.7328,159.65,920.0594" style="stroke:#181818;stroke-width:1.0;"/></g><!--link Profesor to AsistenciasCrearSesion--><g id="link_Profesor_AsistenciasCrearSesion"><path d="M33.33,521.3694 C34.66,470.2194 44.85,381.2294 96,329.6094 C111.18,314.2894 126.3222,306.6758 147.1022,301.2858 " fill="none" id="Profesor-to-AsistenciasCrearSesion" style="stroke:#181818;stroke-width:1.0;"/><polygon fill="#181818" points="152.91,299.7794,143.194,298.1672,148.0702,301.0348,145.2026,305.9109,152.91,299.7794" style="stroke:#181818;stroke-width:1.0;"/></g><!--link Profesor to AsistenciasEditarSesion--><g id="link_Profesor_AsistenciasEditarSesion"><path d="M39.44,521.4594 C46.43,485.8094 62.03,434.1994 96,403.6094 C111.94,389.2594 127.1874,381.9459 147.8274,376.5159 " fill="none" id="Profesor-to-AsistenciasEditarSesion" style="stroke:#181818;stroke-width:1.0;"/><polygon fill="#181818" points="153.63,374.9894,143.9085,373.4108,148.7945,376.2615,145.9439,381.1476,153.63,374.9894" style="stroke:#181818;stroke-width:1.0;"/></g><!--link Profesor to AsistenciasRegistrarToma--><g id="link_Profesor_AsistenciasRegistrarToma"><path d="M58.25,521.5494 C68.43,507.8794 81.34,493.4794 96,483.6094 C112.9,472.2294 127.3982,465.7507 146.9182,459.8307 " fill="none" id="Profesor-to-AsistenciasRegistrarToma" style="stroke:#181818;stroke-width:1.0;"/><polygon fill="#181818" points="152.66,458.0894,142.8865,456.8736,147.8752,459.5405,145.2083,464.5292,152.66,458.0894" style="stroke:#181818;stroke-width:1.0;"/></g><!--link Profesor to AsistenciasCerrarSesion--><g id="link_Profesor_AsistenciasCerrarSesion"><path d="M60.3,555.2194 C87.22,549.6894 124.2024,542.1051 159.9824,534.7651 " fill="none" id="Profesor-to-AsistenciasCerrarSesion" style="stroke:#181818;stroke-width:1.0;"/><polygon fill="#181818" points="165.86,533.5594,156.2398,531.4496,160.962,534.5642,157.8474,539.2864,165.86,533.5594" style="stroke:#181818;stroke-width:1.0;"/></g><!--link Profesor to AsistenciasExportarHistorial--><g id="link_Profesor_AsistenciasExportarHistorial"><path d="M60.3,565.8694 C82.75,570.3594 110.4064,575.8934 141.6764,582.1434 " fill="none" id="Profesor-to-AsistenciasExportarHistorial" style="stroke:#181818;stroke-width:1.0;"/><polygon fill="#181818" points="147.56,583.3194,139.5185,577.633,142.657,582.3394,137.9506,585.4778,147.56,583.3194" style="stroke:#181818;stroke-width:1.0;"/></g><!--link Profesor to ProfesorConsultarDispensa--><g id="link_Profesor_ProfesorConsultarDispensa"><path d="M60.22,599.9594 C70.44,613.7094 82.86,628.6794 96,640.6094 C123.19,665.3094 153.2777,684.3208 180.6877,699.5808 " fill="none" id="Profesor-to-ProfesorConsultarDispensa" style="stroke:#181818;stroke-width:1.0;"/><polygon fill="#181818" points="185.93,702.4994,180.0122,694.6266,181.5614,700.0672,176.1208,701.6164,185.93,702.4994" style="stroke:#181818;stroke-width:1.0;"/></g><!--link DirectorDeGrado to DirectorConsultarDispensa--><g id="link_DirectorDeGrado_DirectorConsultarDispensa"><path d="M284.32,814.7094 C322.26,809.0894 368.3249,802.2695 413.3049,795.5995 " fill="none" id="DirectorDeGrado-to-DirectorConsultarDispensa" style="stroke:#181818;stroke-width:1.0;"/><polygon fill="#181818" points="419.24,794.7194,409.7506,792.0828,414.2941,795.4528,410.9241,799.9963,419.24,794.7194" style="stroke:#181818;stroke-width:1.0;"/></g><!--link DirectorDeGrado to DirectorEditarDispensa--><g id="link_DirectorDeGrado_DirectorEditarDispensa"><path d="M284.32,830.3194 C326.03,836.3494 378.7918,843.9802 426.4818,850.8802 " fill="none" id="DirectorDeGrado-to-DirectorEditarDispensa" style="stroke:#181818;stroke-width:1.0;"/><polygon fill="#181818" points="432.42,851.7394,424.0855,846.4919,427.4715,851.0234,422.94,854.4094,432.42,851.7394" style="stroke:#181818;stroke-width:1.0;"/></g><!--link SecretariaAcademica to AlumnosImportar--><g id="link_SecretariaAcademica_AlumnosImportar"><path d="M245.21,1206.3594 C265.9,1154.8494 309.28,1065.2894 376,1016.6094 C395.37,1002.4794 413.96,995.2225 436.91,989.9925 " fill="none" id="SecretariaAcademica-to-AlumnosImportar" style="stroke:#181818;stroke-width:1.0;"/><polygon fill="#181818" points="442.76,988.6594,433.0962,986.7591,437.885,989.7703,434.8737,994.5591,442.76,988.6594" style="stroke:#181818;stroke-width:1.0;"/></g><!--link SecretariaAcademica to AlumnosConsultar--><g id="link_SecretariaAcademica_AlumnosConsultar"><path d="M277.02,1206.5694 C304.89,1183.6594 341.6,1154.7594 376,1131.6094 C410.91,1108.1194 447.8899,1087.4816 476.4799,1072.3116 " fill="none" id="SecretariaAcademica-to-AlumnosConsultar" style="stroke:#181818;stroke-width:1.0;"/><polygon fill="#181818" points="481.78,1069.4994,471.955,1070.1844,477.3632,1071.8429,475.7047,1077.2512,481.78,1069.4994" style="stroke:#181818;stroke-width:1.0;"/></g><!--link SecretariaAcademica to MatriculasImportar--><g id="link_SecretariaAcademica_MatriculasImportar"><path d="M297.11,1245.6094 C336.87,1245.6094 381.86,1245.6094 424.46,1245.6094 " fill="none" id="SecretariaAcademica-to-MatriculasImportar" style="stroke:#181818;stroke-width:1.0;"/><polygon fill="#181818" points="430.46,1245.6094,421.46,1241.6094,425.46,1245.6094,421.46,1249.6094,430.46,1245.6094" style="stroke:#181818;stroke-width:1.0;"/></g><!--link SecretariaAcademica to MatriculasVerDetalle--><g id="link_SecretariaAcademica_MatriculasVerDetalle"><path d="M297.11,1263.7994 C343.09,1276.4494 398.2951,1291.6372 443.9651,1304.2072 " fill="none" id="SecretariaAcademica-to-MatriculasVerDetalle" style="stroke:#181818;stroke-width:1.0;"/><polygon fill="#181818" points="449.75,1305.7994,442.1341,1299.5545,444.9293,1304.4725,440.0112,1307.2677,449.75,1305.7994" style="stroke:#181818;stroke-width:1.0;"/></g><!--link SecretariaAcademica to MatriculasCerrarCiclo--><g id="link_SecretariaAcademica_MatriculasCerrarCiclo"><path d="M297.11,1227.8894 C344.4,1215.2094 401.7647,1199.8333 447.8247,1187.4833 " fill="none" id="SecretariaAcademica-to-MatriculasCerrarCiclo" style="stroke:#181818;stroke-width:1.0;"/><polygon fill="#181818" points="453.62,1185.9294,443.8911,1184.3967,448.7906,1187.2243,445.963,1192.1237,453.62,1185.9294" style="stroke:#181818;stroke-width:1.0;"/></g><!--link SecretariaAcademica to SecCrearDispensa--><g id="link_SecretariaAcademica_SecCrearDispensa"><path d="M244.37,1284.9894 C264.48,1338.2694 307.61,1432.6194 376,1484.6094 C392.7,1497.3094 407.5913,1504.2195 427.8013,1509.9995 " fill="none" id="SecretariaAcademica-to-SecCrearDispensa" style="stroke:#181818;stroke-width:1.0;"/><polygon fill="#181818" points="433.57,1511.6494,426.0168,1505.3288,428.7627,1510.2745,423.817,1513.0204,433.57,1511.6494" style="stroke:#181818;stroke-width:1.0;"/></g><!--link SecretariaAcademica to SecConsultarDispensa--><g id="link_SecretariaAcademica_SecConsultarDispensa"><path d="M237.92,1284.6294 C251.86,1351.6394 289.67,1488.5894 376,1563.6094 C390.29,1576.0294 402.507,1582.7948 420.657,1588.8348 " fill="none" id="SecretariaAcademica-to-SecConsultarDispensa" style="stroke:#181818;stroke-width:1.0;"/><polygon fill="#181818" points="426.35,1590.7294,419.0735,1584.0922,421.6058,1589.1506,416.5474,1591.6829,426.35,1590.7294" style="stroke:#181818;stroke-width:1.0;"/></g><!--link SecretariaAcademica to SecEditarDispensa--><g id="link_SecretariaAcademica_SecEditarDispensa"><path d="M276.05,1284.7694 C304.04,1308.3794 341.19,1338.4494 376,1362.6094 C408.94,1385.4694 443.2277,1405.5508 471.6077,1421.3508 " fill="none" id="SecretariaAcademica-to-SecEditarDispensa" style="stroke:#181818;stroke-width:1.0;"/><polygon fill="#181818" points="476.85,1424.2694,470.9322,1416.3966,472.4814,1421.8372,467.0408,1423.3864,476.85,1424.2694" style="stroke:#181818;stroke-width:1.0;"/></g><!--SRC=[fLPBRjim4Dth58HNzi8tA0e4ij5s4Q2ea-u7rCGbGea6IG4DsXwfgnuX5oibaU97fEmWNbcQzzvyoT43qnp9WS5PGWka5ks5enQaGLA34chuywX4nV594_DUilCFJHecaMeckaezi-u2XaikG9_XZ2VzOWG7CtHdZbK5L0j9xdZVTi8-V9NY2PMGzl4mgWbvm4yI6WSw8PMeGJAuez1WooWuhQPb7LDw0CkgScfa_dtulTylL9Dd1ul5Cavpi2aRGXANIM2s8cJpg7eZQOhvGgJWg3RaLpMGUeKKb04Ofo0jQhlRZ8gWYEFLWpbXY4xrN4UiaE7CCGiRfbD70Uiucgi_GUZth_-QdWlRFqMslaAxHHgilGXfR1Ri7TWNNwozaCg4Mh1yBgk1kJ5OXZKxE9Z0EKVlnpXnj3gE8klh7hHy_Kjx3ggO-u1X8yGrSah6lxzI1HlaZBTnUlvtT9X40QK4MJFAXHlUUPXYXTeZypLLPeYnemmAetf2PGv_RQGmoD8v2kYrH-SciQmJonm3TAmZyJmUEFaWMl2CCEz0vrk8pbNlre3g09qazdFgxcU35UQKy81bMnacbgAp_JWmTS5E6UfscivTeIs2CyfqtpZ2bCDybCPkE5jX_8vAczih4l3yUKQp6hQdsI1cZQcLiy2LT6yur5b_kODzgq-tA6xnYIhnwiZlA9MTDgVqjeAjNSzhCpAwDEHRHgHKyO7-dhGdYMM-qLeb-_t7P36ksEVLKSROfUTs-c3AdPQbUP7g0fAauhzK1aXfyKIWmbLQmaJtP0aKNu95T-4DL_ItkBxMK_IbIB_61dZvxAoXqoBdFk5yI_pslOBperC2PZRwTMYmlA-3mprTGY_Ex1fmKTWLS5BN_m00]--></g></svg>