<?plantuml 1.2026.1beta5?><svg xmlns="http://www.w3.org/2000/svg" xmlns:xlink="http://www.w3.org/1999/xlink" contentStyleType="text/css" data-diagram-type="STATE" height="856px" preserveAspectRatio="none" style="width:1821px;height:856px;background:#FFFFFF;" version="1.1" viewBox="0 0 1821 856" width="1821px" zoomAndPan="magnify"><title>Diagrama de contexto: perspectiva del Administrador</title><defs/><g><g class="title" data-source-line="1"><text fill="#000000" font-family="sans-serif" font-size="14" font-weight="bold" lengthAdjust="spacing" textLength="425.0518" x="691.2207" y="22.9951">Diagrama de contexto: perspectiva del Administrador</text></g><ellipse cx="16" cy="451.2969" fill="#222222" rx="10" ry="10" style="stroke:#222222;stroke-width:1;"/><g><rect fill="#F1F1F1" height="50" rx="12.5" ry="12.5" style="stroke:#181818;stroke-width:0.5;" width="147.251" x="87" y="426.2969"/><line style="stroke:#181818;stroke-width:0.5;" x1="87" x2="234.251" y1="452.5938" y2="452.5938"/><text fill="#000000" font-family="sans-serif" font-size="14" lengthAdjust="spacing" textLength="127.251" x="97" y="444.292">SESION_CERRADA</text></g><g><rect fill="#F1F1F1" height="50" rx="12.5" ry="12.5" style="stroke:#181818;stroke-width:0.5;" width="172.0654" x="503.25" y="426.2969"/><line style="stroke:#181818;stroke-width:0.5;" x1="503.25" x2="675.3154" y1="452.5938" y2="452.5938"/><text fill="#000000" font-family="sans-serif" font-size="14" lengthAdjust="spacing" textLength="152.0654" x="513.25" y="444.292">SISTEMA_DISPONIBLE</text></g><g><rect fill="#F1F1F1" height="50" rx="12.5" ry="12.5" style="stroke:#181818;stroke-width:0.5;" width="136.2861" x="957.26" y="105.2969"/><line style="stroke:#181818;stroke-width:0.5;" x1="957.26" x2="1093.5461" y1="131.5938" y2="131.5938"/><text fill="#000000" font-family="sans-serif" font-size="14" lengthAdjust="spacing" textLength="116.2861" x="967.26" y="123.292">LISTAS_ABIERTO</text></g><g><rect fill="#F1F1F1" height="50" rx="12.5" ry="12.5" style="stroke:#181818;stroke-width:0.5;" width="125.957" x="1591.19" y="93.2969"/><line style="stroke:#181818;stroke-width:0.5;" x1="1591.19" x2="1717.147" y1="119.5938" y2="119.5938"/><text fill="#000000" font-family="sans-serif" font-size="14" lengthAdjust="spacing" textLength="105.957" x="1601.19" y="111.292">LISTA_ABIERTA</text></g><g><rect fill="#F1F1F1" height="50" rx="12.5" ry="12.5" style="stroke:#181818;stroke-width:0.5;" width="158.5371" x="946.13" y="235.2969"/><line style="stroke:#181818;stroke-width:0.5;" x1="946.13" x2="1104.6671" y1="261.5938" y2="261.5938"/><text fill="#000000" font-family="sans-serif" font-size="14" lengthAdjust="spacing" textLength="138.5371" x="956.13" y="253.292">ALUMNOS_ABIERTO</text></g><g><rect fill="#F1F1F1" height="50" rx="12.5" ry="12.5" style="stroke:#181818;stroke-width:0.5;" width="149.6504" x="1579.34" y="230.2969"/><line style="stroke:#181818;stroke-width:0.5;" x1="1579.34" x2="1728.9904" y1="256.5938" y2="256.5938"/><text fill="#000000" font-family="sans-serif" font-size="14" lengthAdjust="spacing" textLength="129.6504" x="1589.34" y="248.292">ALUMNO_ABIERTO</text></g><g><rect fill="#F1F1F1" height="50" rx="12.5" ry="12.5" style="stroke:#181818;stroke-width:0.5;" width="178.8057" x="936" y="365.2969"/><line style="stroke:#181818;stroke-width:0.5;" x1="936" x2="1114.8057" y1="391.5938" y2="391.5938"/><text fill="#000000" font-family="sans-serif" font-size="14" lengthAdjust="spacing" textLength="158.8057" x="946" y="383.292">MATRICULAS_ABIERTO</text></g><g><rect fill="#F1F1F1" height="50" rx="12.5" ry="12.5" style="stroke:#181818;stroke-width:0.5;" width="168.4766" x="1569.93" y="322.2969"/><line style="stroke:#181818;stroke-width:0.5;" x1="1569.93" x2="1738.4066" y1="348.5938" y2="348.5938"/><text fill="#000000" font-family="sans-serif" font-size="14" lengthAdjust="spacing" textLength="148.4766" x="1579.93" y="340.292">MATRICULA_ABIERTA</text></g><g><rect fill="#F1F1F1" height="50" rx="12.5" ry="12.5" style="stroke:#181818;stroke-width:0.5;" width="180.1729" x="935.32" y="495.2969"/><line style="stroke:#181818;stroke-width:0.5;" x1="935.32" x2="1115.4929" y1="521.5938" y2="521.5938"/><text fill="#000000" font-family="sans-serif" font-size="14" lengthAdjust="spacing" textLength="160.1729" x="945.32" y="513.292">ASISTENCIAS_ABIERTO</text></g><g><rect fill="#F1F1F1" height="50" rx="12.5" ry="12.5" style="stroke:#181818;stroke-width:0.5;" width="229.084" x="1539.62" y="466.2969"/><line style="stroke:#181818;stroke-width:0.5;" x1="1539.62" x2="1768.704" y1="492.5938" y2="492.5938"/><text fill="#000000" font-family="sans-serif" font-size="14" lengthAdjust="spacing" textLength="209.084" x="1549.62" y="484.292">SESION_ASISTENCIA_ABIERTA</text></g><g><rect fill="#F1F1F1" height="50" rx="12.5" ry="12.5" style="stroke:#181818;stroke-width:0.5;" width="167.3623" x="941.72" y="625.2969"/><line style="stroke:#181818;stroke-width:0.5;" x1="941.72" x2="1109.0823" y1="651.5938" y2="651.5938"/><text fill="#000000" font-family="sans-serif" font-size="14" lengthAdjust="spacing" textLength="147.3623" x="951.72" y="643.292">DISPENSAS_ABIERTO</text></g><g><rect fill="#F1F1F1" height="50" rx="12.5" ry="12.5" style="stroke:#181818;stroke-width:0.5;" width="239.3516" x="1534.49" y="621.2969"/><line style="stroke:#181818;stroke-width:0.5;" x1="1534.49" x2="1773.8416" y1="647.5938" y2="647.5938"/><text fill="#000000" font-family="sans-serif" font-size="14" lengthAdjust="spacing" textLength="219.3516" x="1544.49" y="639.292">SOLICITUD_DISPENSA_ABIERTA</text></g><g><rect fill="#F1F1F1" height="50" rx="12.5" ry="12.5" style="stroke:#181818;stroke-width:0.5;" width="161.1758" x="944.81" y="739.2969"/><line style="stroke:#181818;stroke-width:0.5;" x1="944.81" x2="1105.9858" y1="765.5938" y2="765.5938"/><text fill="#000000" font-family="sans-serif" font-size="14" lengthAdjust="spacing" textLength="141.1758" x="954.81" y="757.292">USUARIOS_ABIERTO</text></g><g><rect fill="#F1F1F1" height="50" rx="12.5" ry="12.5" style="stroke:#181818;stroke-width:0.5;" width="152.2891" x="1578.02" y="792.2969"/><line style="stroke:#181818;stroke-width:0.5;" x1="1578.02" x2="1730.3091" y1="818.5938" y2="818.5938"/><text fill="#000000" font-family="sans-serif" font-size="14" lengthAdjust="spacing" textLength="132.2891" x="1588.02" y="810.292">USUARIO_ABIERTO</text></g><!--link *start* to SESION_CERRADA--><g class="link" data-entity-1="ent0002" data-entity-2="ent0003" data-link-type="dependency" data-source-line="5" id="lnk4"><path d="M26.36,451.2969 C39,451.2969 56.73,451.2969 80.69,451.2969" fill="none" id="*start*-to-SESION_CERRADA" style="stroke:#181818;stroke-width:1;"/><polygon fill="#181818" points="86.69,451.2969,77.69,447.2969,81.69,451.2969,77.69,455.2969,86.69,451.2969" style="stroke:#181818;stroke-width:1;"/></g><!--link SESION_CERRADA to SISTEMA_DISPONIBLE--><g class="link" data-entity-1="ent0003" data-entity-2="ent0005" data-link-type="dependency" data-source-line="7" id="lnk6"><path d="M234.49,451.2969 C308.86,451.2969 418.25,451.2969 496.87,451.2969" fill="none" id="SESION_CERRADA-to-SISTEMA_DISPONIBLE" style="stroke:#181818;stroke-width:1;"/><polygon fill="#181818" points="502.87,451.2969,493.87,447.2969,497.87,451.2969,493.87,455.2969,502.87,451.2969" style="stroke:#181818;stroke-width:1;"/><text fill="#000000" font-family="sans-serif" font-size="13" lengthAdjust="spacing" textLength="92.5044" x="322.75" y="447.3638">iniciarSesion()</text></g><!--link SISTEMA_DISPONIBLE to SESION_CERRADA--><g class="link" data-entity-1="ent0005" data-entity-2="ent0003" data-link-type="dependency" data-source-line="8" id="lnk7"><path d="M502.87,469.8569 C485.93,473.5369 473.25,476.2969 473.25,476.2969 C473.25,476.2969 264.25,476.2969 264.25,476.2969 C264.25,476.2969 257.1096,474.5568 240.3996,470.4868" fill="none" id="SISTEMA_DISPONIBLE-to-SESION_CERRADA" style="stroke:#181818;stroke-width:1;"/><polygon fill="#181818" points="234.57,469.0669,242.3678,475.0831,239.428,470.2501,244.261,467.3103,234.57,469.0669" style="stroke:#181818;stroke-width:1;"/><text fill="#000000" font-family="sans-serif" font-size="13" lengthAdjust="spacing" textLength="207.8096" x="265.25" y="472.3638">cerrarSesion() / sesionInactiva()</text></g><!--link SISTEMA_DISPONIBLE to LISTAS_ABIERTO--><g class="link" data-entity-1="ent0005" data-entity-2="ent0008" data-link-type="dependency" data-source-line="13" id="lnk9"><path d="M600.69,425.9569 C629.01,357.0269 705.32,171.2969 705.32,171.2969 C705.32,171.2969 857.5589,151.7317 951.1689,139.7017" fill="none" id="SISTEMA_DISPONIBLE-to-LISTAS_ABIERTO" style="stroke:#181818;stroke-width:1;"/><polygon fill="#181818" points="957.12,138.9369,947.6836,136.1167,952.1608,139.5742,948.7033,144.0514,957.12,138.9369" style="stroke:#181818;stroke-width:1;"/><text fill="#000000" font-family="sans-serif" font-size="13" lengthAdjust="spacing" textLength="134.5005" x="738.32" y="142.3638">abrirListasAlumnos()</text></g><!--link LISTAS_ABIERTO to SISTEMA_DISPONIBLE--><g class="link" data-entity-1="ent0008" data-entity-2="ent0005" data-link-type="dependency" data-source-line="14" id="lnk10"><path d="M971.81,155.6869 C952.52,164.9969 935.32,173.2969 935.32,173.2969 C935.32,173.2969 905.32,196.2969 905.32,196.2969 C905.32,196.2969 705.32,247.2969 705.32,247.2969 C705.32,247.2969 638.4071,365.9606 607.5671,420.6506" fill="none" id="LISTAS_ABIERTO-to-SISTEMA_DISPONIBLE" style="stroke:#181818;stroke-width:1;"/><polygon fill="#181818" points="604.62,425.8769,612.5249,420.0022,607.076,421.5216,605.5565,416.0726,604.62,425.8769" style="stroke:#181818;stroke-width:1;"/><text fill="#000000" font-family="sans-serif" font-size="13" lengthAdjust="spacing" textLength="163.3887" x="723.82" y="192.3638">completarGestionListas()</text></g><!--link LISTAS_ABIERTO to LISTAS_ABIERTO--><g class="link" data-entity-1="ent0008" data-entity-2="ent0008" data-link-type="dependency" data-source-line="17" id="lnk11"><path d="M988.17,105.0169 C976.88,87.5269 989.29,70.2969 1025.4,70.2969 C1061.51,70.2969 1077.172,82.4846 1065.892,99.9746" fill="none" id="LISTAS_ABIERTO-to-LISTAS_ABIERTO" style="stroke:#181818;stroke-width:1;"/><polygon fill="#181818" points="1062.64,105.0169,1070.8795,99.6214,1065.35,100.815,1064.1564,95.2855,1062.64,105.0169" style="stroke:#181818;stroke-width:1;"/><text fill="#000000" font-family="sans-serif" font-size="13" lengthAdjust="spacing" textLength="160.2148" x="945.4" y="61.3638">importarListasAlumnos()</text></g><!--link LISTAS_ABIERTO to LISTA_ABIERTA--><g class="link" data-entity-1="ent0008" data-entity-2="ent0012" data-link-type="dependency" data-source-line="20" id="lnk13"><path d="M1093.77,129.0069 C1215.97,126.6669 1466.4511,121.8719 1584.8411,119.6019" fill="none" id="LISTAS_ABIERTO-to-LISTA_ABIERTA" style="stroke:#181818;stroke-width:1;"/><polygon fill="#181818" points="1590.84,119.4869,1581.765,115.6601,1585.8409,119.5827,1581.9183,123.6587,1590.84,119.4869" style="stroke:#181818;stroke-width:1;"/><text fill="#000000" font-family="sans-serif" font-size="13" lengthAdjust="spacing" textLength="157.5806" x="1246.49" y="117.3638">consultarListaAlumnos()</text></g><!--link LISTA_ABIERTA to LISTAS_ABIERTO--><g class="link" data-entity-1="ent0012" data-entity-2="ent0008" data-link-type="dependency" data-source-line="21" id="lnk14"><path d="M1590.97,132.9369 C1550.23,142.5269 1504.49,153.2969 1504.49,153.2969 C1504.49,153.2969 1145.49,153.2969 1145.49,153.2969 C1145.49,153.2969 1126.7212,149.6743 1099.8412,144.4843" fill="none" id="LISTA_ABIERTA-to-LISTAS_ABIERTO" style="stroke:#181818;stroke-width:1;"/><polygon fill="#181818" points="1093.95,143.3469,1102.0285,148.9805,1098.8593,144.2948,1103.5451,141.1256,1093.95,143.3469" style="stroke:#181818;stroke-width:1;"/><text fill="#000000" font-family="sans-serif" font-size="13" lengthAdjust="spacing" textLength="79.9805" x="1285.49" y="149.3638">cerrarLista()</text></g><!--link SISTEMA_DISPONIBLE to ALUMNOS_ABIERTO--><g class="link" data-entity-1="ent0005" data-entity-2="ent0015" data-link-type="dependency" data-source-line="26" id="lnk16"><path d="M608.26,426.1369 C640.61,380.8569 705.32,290.2969 705.32,290.2969 C705.32,290.2969 845.4863,277.1183 939.9663,268.2383" fill="none" id="SISTEMA_DISPONIBLE-to-ALUMNOS_ABIERTO" style="stroke:#181818;stroke-width:1;"/><polygon fill="#181818" points="945.94,267.6769,936.6052,264.5366,940.9619,268.1448,937.3538,272.5015,945.94,267.6769" style="stroke:#181818;stroke-width:1;"/><text fill="#000000" font-family="sans-serif" font-size="13" lengthAdjust="spacing" textLength="97.0366" x="756.82" y="268.3638">abrirAlumnos()</text></g><!--link ALUMNOS_ABIERTO to SISTEMA_DISPONIBLE--><g class="link" data-entity-1="ent0015" data-entity-2="ent0005" data-link-type="dependency" data-source-line="27" id="lnk17"><path d="M969.39,285.7069 C938.19,300.1169 905.32,315.2969 905.32,315.2969 C905.32,315.2969 705.32,370.2969 705.32,370.2969 C705.32,370.2969 665.0059,398.6825 631.2759,422.4325" fill="none" id="ALUMNOS_ABIERTO-to-SISTEMA_DISPONIBLE" style="stroke:#181818;stroke-width:1;"/><polygon fill="#181818" points="626.37,425.8869,636.0317,423.976,630.4582,423.0083,631.4259,417.4348,626.37,425.8869" style="stroke:#181818;stroke-width:1;"/><text fill="#000000" font-family="sans-serif" font-size="13" lengthAdjust="spacing" textLength="182.2983" x="714.32" y="311.3638">completarGestionAlumnos()</text></g><!--link ALUMNOS_ABIERTO to ALUMNOS_ABIERTO--><g class="link" data-entity-1="ent0015" data-entity-2="ent0015" data-link-type="dependency" data-source-line="29" id="lnk18"><path d="M988.17,235.0169 C976.88,217.5269 989.29,200.2969 1025.4,200.2969 C1061.51,200.2969 1077.172,212.4846 1065.892,229.9746" fill="none" id="ALUMNOS_ABIERTO-to-ALUMNOS_ABIERTO" style="stroke:#181818;stroke-width:1;"/><polygon fill="#181818" points="1062.64,235.0169,1070.8795,229.6214,1065.35,230.815,1064.1564,225.2855,1062.64,235.0169" style="stroke:#181818;stroke-width:1;"/><text fill="#000000" font-family="sans-serif" font-size="13" lengthAdjust="spacing" textLength="122.751" x="964.4" y="191.3638">importarAlumnos()</text></g><!--link ALUMNOS_ABIERTO to ALUMNO_ABIERTO--><g class="link" data-entity-1="ent0015" data-entity-2="ent0019" data-link-type="dependency" data-source-line="30" id="lnk20"><path d="M1104.84,253.7069 C1127.14,251.8369 1145.49,250.2969 1145.49,250.2969 C1145.49,250.2969 1504.49,250.2969 1504.49,250.2969 C1504.49,250.2969 1535.9534,251.356 1573.2634,252.606" fill="none" id="ALUMNOS_ABIERTO-to-ALUMNO_ABIERTO" style="stroke:#181818;stroke-width:1;"/><polygon fill="#181818" points="1579.26,252.8069,1570.399,248.5078,1574.2628,252.6395,1570.1311,256.5033,1579.26,252.8069" style="stroke:#181818;stroke-width:1;"/><text fill="#000000" font-family="sans-serif" font-size="13" lengthAdjust="spacing" textLength="127.0737" x="1261.49" y="246.3638">verDetalleAlumno()</text></g><!--link ALUMNO_ABIERTO to ALUMNOS_ABIERTO--><g class="link" data-entity-1="ent0019" data-entity-2="ent0015" data-link-type="dependency" data-source-line="32" id="lnk21"><path d="M1579.26,265.2369 C1541.95,270.2569 1504.49,275.2969 1504.49,275.2969 C1504.49,275.2969 1145.49,275.2969 1145.49,275.2969 C1145.49,275.2969 1133.0929,273.737 1110.7929,270.927" fill="none" id="ALUMNO_ABIERTO-to-ALUMNOS_ABIERTO" style="stroke:#181818;stroke-width:1;"/><polygon fill="#181818" points="1104.84,270.1769,1113.2693,275.2707,1109.8008,270.802,1114.2695,267.3334,1104.84,270.1769" style="stroke:#181818;stroke-width:1;"/><text fill="#000000" font-family="sans-serif" font-size="13" lengthAdjust="spacing" textLength="145.1836" x="1252.49" y="271.3638">cerrarDetalleAlumno()</text></g><!--link SISTEMA_DISPONIBLE to MATRICULAS_ABIERTO--><g class="link" data-entity-1="ent0005" data-entity-2="ent0022" data-link-type="dependency" data-source-line="37" id="lnk23"><path d="M652.51,425.8669 C679.62,414.7969 705.32,404.2969 705.32,404.2969 C705.32,404.2969 835.1058,398.5997 929.5258,394.4597" fill="none" id="SISTEMA_DISPONIBLE-to-MATRICULAS_ABIERTO" style="stroke:#181818;stroke-width:1;"/><polygon fill="#181818" points="935.52,394.1969,926.3534,390.595,930.5248,394.4159,926.7039,398.5873,935.52,394.1969" style="stroke:#181818;stroke-width:1;"/><text fill="#000000" font-family="sans-serif" font-size="13" lengthAdjust="spacing" textLength="107.6372" x="751.82" y="391.3638">abrirMatriculas()</text></g><!--link MATRICULAS_ABIERTO to SISTEMA_DISPONIBLE--><g class="link" data-entity-1="ent0022" data-entity-2="ent0005" data-link-type="dependency" data-source-line="38" id="lnk24"><path d="M946.63,415.7669 C924.04,423.1669 905.32,429.2969 905.32,429.2969 C905.32,429.2969 774.8154,438.4086 681.5254,444.9286" fill="none" id="MATRICULAS_ABIERTO-to-SISTEMA_DISPONIBLE" style="stroke:#181818;stroke-width:1;"/><polygon fill="#181818" points="675.54,445.3469,684.797,448.7097,680.5278,444.9983,684.2392,440.7291,675.54,445.3469" style="stroke:#181818;stroke-width:1;"/><text fill="#000000" font-family="sans-serif" font-size="13" lengthAdjust="spacing" textLength="192.8989" x="709.32" y="425.3638">completarGestionMatriculas()</text></g><!--link MATRICULAS_ABIERTO to MATRICULAS_ABIERTO--><g class="link" data-entity-1="ent0022" data-entity-2="ent0022" data-link-type="dependency" data-source-line="40" id="lnk25"><path d="M988.17,365.0169 C976.88,347.5269 989.29,330.2969 1025.4,330.2969 C1061.51,330.2969 1077.172,342.4846 1065.892,359.9746" fill="none" id="MATRICULAS_ABIERTO-to-MATRICULAS_ABIERTO" style="stroke:#181818;stroke-width:1;"/><polygon fill="#181818" points="1062.64,365.0169,1070.8795,359.6214,1065.35,360.815,1064.1564,355.2855,1062.64,365.0169" style="stroke:#181818;stroke-width:1;"/><text fill="#000000" font-family="sans-serif" font-size="13" lengthAdjust="spacing" textLength="133.3516" x="958.9" y="321.3638">importarMatriculas()</text></g><!--link MATRICULAS_ABIERTO to MATRICULA_ABIERTA--><g class="link" data-entity-1="ent0022" data-entity-2="ent0026" data-link-type="dependency" data-source-line="41" id="lnk27"><path d="M1115.13,382.0969 C1132.51,380.4969 1145.49,379.2969 1145.49,379.2969 C1145.49,379.2969 1419.5219,362.0242 1563.6319,352.9442" fill="none" id="MATRICULAS_ABIERTO-to-MATRICULA_ABIERTA" style="stroke:#181818;stroke-width:1;"/><polygon fill="#181818" points="1569.62,352.5669,1560.3863,349.1407,1564.6299,352.8813,1560.8893,357.1249,1569.62,352.5669" style="stroke:#181818;stroke-width:1;"/><text fill="#000000" font-family="sans-serif" font-size="13" lengthAdjust="spacing" textLength="137.6743" x="1256.49" y="353.3638">verDetalleMatricula()</text></g><!--link MATRICULA_ABIERTA to MATRICULAS_ABIERTO--><g class="link" data-entity-1="ent0026" data-entity-2="ent0022" data-link-type="dependency" data-source-line="43" id="lnk28"><path d="M1586.65,372.7969 C1547.07,387.9769 1504.49,404.2969 1504.49,404.2969 C1504.49,404.2969 1145.49,404.2969 1145.49,404.2969 C1145.49,404.2969 1138.4691,403.4663 1121.0891,401.4263" fill="none" id="MATRICULA_ABIERTA-to-MATRICULAS_ABIERTO" style="stroke:#181818;stroke-width:1;"/><polygon fill="#181818" points="1115.13,400.7269,1123.6023,405.7488,1120.0959,401.3098,1124.5349,397.8033,1115.13,400.7269" style="stroke:#181818;stroke-width:1;"/><text fill="#000000" font-family="sans-serif" font-size="13" lengthAdjust="spacing" textLength="155.7842" x="1247.49" y="400.3638">cerrarDetalleMatricula()</text></g><!--link SISTEMA_DISPONIBLE to ASISTENCIAS_ABIERTO--><g class="link" data-entity-1="ent0005" data-entity-2="ent0029" data-link-type="dependency" data-source-line="48" id="lnk30"><path d="M675.79,464.8869 C750.64,476.7869 853.0644,493.0648 929.0444,505.1448" fill="none" id="SISTEMA_DISPONIBLE-to-ASISTENCIAS_ABIERTO" style="stroke:#181818;stroke-width:1;"/><polygon fill="#181818" points="934.97,506.0869,926.7097,500.7233,930.032,505.3018,925.4536,508.6241,934.97,506.0869" style="stroke:#181818;stroke-width:1;"/><text fill="#000000" font-family="sans-serif" font-size="13" lengthAdjust="spacing" textLength="113.5469" x="748.82" y="465.3638">abrirAsistencias()</text></g><!--link ASISTENCIAS_ABIERTO to SISTEMA_DISPONIBLE--><g class="link" data-entity-1="ent0029" data-entity-2="ent0005" data-link-type="dependency" data-source-line="49" id="lnk31"><path d="M935.06,523.2969 C917.99,523.8669 905.32,524.2969 905.32,524.2969 C905.32,524.2969 705.32,524.2969 705.32,524.2969 C705.32,524.2969 668.4865,500.9209 635.2565,479.8409" fill="none" id="ASISTENCIAS_ABIERTO-to-SISTEMA_DISPONIBLE" style="stroke:#181818;stroke-width:1;"/><polygon fill="#181818" points="630.19,476.6269,635.6471,484.8256,634.4121,479.3052,639.9325,478.0702,630.19,476.6269" style="stroke:#181818;stroke-width:1;"/><text fill="#000000" font-family="sans-serif" font-size="13" lengthAdjust="spacing" textLength="198.8086" x="706.32" y="520.3638">completarGestionAsistencias()</text></g><!--link ASISTENCIAS_ABIERTO to ASISTENCIAS_ABIERTO--><g class="link" data-entity-1="ent0029" data-entity-2="ent0029" data-link-type="dependency" data-source-line="51" id="lnk32"><path d="M988.17,495.0169 C976.88,477.5269 989.29,460.2969 1025.4,460.2969 C1061.51,460.2969 1077.172,472.4846 1065.892,489.9746" fill="none" id="ASISTENCIAS_ABIERTO-to-ASISTENCIAS_ABIERTO" style="stroke:#181818;stroke-width:1;"/><polygon fill="#181818" points="1062.64,495.0169,1070.8795,489.6214,1065.35,490.815,1064.1564,485.2855,1062.64,495.0169" style="stroke:#181818;stroke-width:1;"/><text fill="#000000" font-family="sans-serif" font-size="13" lengthAdjust="spacing" textLength="192.4229" x="929.4" y="451.3638">exportarHistorialAsistencias()</text></g><!--link ASISTENCIAS_ABIERTO to SESION_ASISTENCIA_ABIERTA--><g class="link" data-entity-1="ent0029" data-entity-2="ent0033" data-link-type="dependency" data-source-line="52" id="lnk34"><path d="M1115.75,509.7969 C1132.82,507.7869 1145.49,506.2969 1145.49,506.2969 C1145.49,506.2969 1383.5526,499.264 1533.2326,494.844" fill="none" id="ASISTENCIAS_ABIERTO-to-SESION_ASISTENCIA_ABIERTA" style="stroke:#181818;stroke-width:1;"/><polygon fill="#181818" points="1539.23,494.6669,1530.1159,490.9343,1534.2322,494.8145,1530.352,498.9308,1539.23,494.6669" style="stroke:#181818;stroke-width:1;"/><text fill="#000000" font-family="sans-serif" font-size="13" lengthAdjust="spacing" textLength="253.7603" x="1198.49" y="491.3638">crearSesionClase() / abrirSesionClase()</text></g><!--link SESION_ASISTENCIA_ABIERTA to ASISTENCIAS_ABIERTO--><g class="link" data-entity-1="ent0033" data-entity-2="ent0029" data-link-type="dependency" data-source-line="55" id="lnk36"><path d="M1558.59,516.7469 C1529.26,524.6269 1504.49,531.2969 1504.49,531.2969 C1504.49,531.2969 1145.49,531.2969 1145.49,531.2969 C1145.49,531.2969 1138.7945,530.6799 1121.7245,529.0999" fill="none" id="SESION_ASISTENCIA_ABIERTA-to-ASISTENCIAS_ABIERTO" style="stroke:#181818;stroke-width:1;"/><polygon fill="#181818" points="1115.75,528.5469,1124.343,533.3593,1120.7287,529.0077,1125.0804,525.3934,1115.75,528.5469" style="stroke:#181818;stroke-width:1;"/><text fill="#000000" font-family="sans-serif" font-size="13" lengthAdjust="spacing" textLength="127.5435" x="1261.49" y="527.3638">cerrarSesionClase()</text></g><!--link SESION_ASISTENCIA_ABIERTA to SESION_ASISTENCIA_ABIERTA--><g class="link" data-entity-1="ent0033" data-entity-2="ent0033" data-link-type="dependency" data-source-line="54" id="lnk35"><path d="M1598.47,466.0169 C1581.6,448.5269 1600.16,431.2969 1654.17,431.2969 C1708.17,431.2969 1730.8954,444.2084 1714.0254,461.6984" fill="none" id="SESION_ASISTENCIA_ABIERTA-to-SESION_ASISTENCIA_ABIERTA" style="stroke:#181818;stroke-width:1;"/><polygon fill="#181818" points="1709.86,466.0169,1718.9871,462.3161,1713.3312,462.4181,1713.2291,456.7622,1709.86,466.0169" style="stroke:#181818;stroke-width:1;"/><text fill="#000000" font-family="sans-serif" font-size="13" lengthAdjust="spacing" textLength="307.8232" x="1500.67" y="422.3638">editarSesionClase() / registrarTomaAsistencia()</text></g><!--link SISTEMA_DISPONIBLE to DISPENSAS_ABIERTO--><g class="link" data-entity-1="ent0005" data-entity-2="ent0037" data-link-type="dependency" data-source-line="60" id="lnk38"><path d="M620.21,476.7869 C654.29,505.8269 705.32,549.2969 705.32,549.2969 C705.32,549.2969 843.6397,593.0761 938.1597,622.9961" fill="none" id="SISTEMA_DISPONIBLE-to-DISPENSAS_ABIERTO" style="stroke:#181818;stroke-width:1;"/><polygon fill="#181818" points="943.88,624.8069,936.5068,618.2773,939.1131,623.2979,934.0925,625.9043,943.88,624.8069" style="stroke:#181818;stroke-width:1;"/><text fill="#000000" font-family="sans-serif" font-size="13" lengthAdjust="spacing" textLength="107.0596" x="751.82" y="545.3638">abrirDispensas()</text></g><!--link DISPENSAS_ABIERTO to SISTEMA_DISPONIBLE--><g class="link" data-entity-1="ent0037" data-entity-2="ent0005" data-link-type="dependency" data-source-line="61" id="lnk39"><path d="M941.4,646.6569 C846.86,642.5069 705.32,636.2969 705.32,636.2969 C705.32,636.2969 640.7082,532.3922 609.2082,481.7322" fill="none" id="DISPENSAS_ABIERTO-to-SISTEMA_DISPONIBLE" style="stroke:#181818;stroke-width:1;"/><polygon fill="#181818" points="606.04,476.6369,607.3955,486.392,608.6802,480.883,614.1892,482.1677,606.04,476.6369" style="stroke:#181818;stroke-width:1;"/><text fill="#000000" font-family="sans-serif" font-size="13" lengthAdjust="spacing" textLength="192.3213" x="709.32" y="632.3638">completarGestionDispensas()</text></g><!--link DISPENSAS_ABIERTO to SOLICITUD_DISPENSA_ABIERTA--><g class="link" data-entity-1="ent0037" data-entity-2="ent0040" data-link-type="dependency" data-source-line="63" id="lnk41"><path d="M1109.44,634.9569 C1129.6,631.2269 1145.49,628.2969 1145.49,628.2969 C1145.49,628.2969 1504.49,628.2969 1504.49,628.2969 C1504.49,628.2969 1510.7836,629.0545 1528.2636,631.1745" fill="none" id="DISPENSAS_ABIERTO-to-SOLICITUD_DISPENSA_ABIERTA" style="stroke:#181818;stroke-width:1;"/><polygon fill="#181818" points="1534.22,631.8969,1525.7671,626.8424,1529.2564,631.2949,1524.8039,634.7842,1534.22,631.8969" style="stroke:#181818;stroke-width:1;"/><text fill="#000000" font-family="sans-serif" font-size="13" lengthAdjust="spacing" textLength="357.9063" x="1146.49" y="624.3638">crearSolicitudDispensa() / consultarSolicitudDispensa()</text></g><!--link SOLICITUD_DISPENSA_ABIERTA to DISPENSAS_ABIERTO--><g class="link" data-entity-1="ent0040" data-entity-2="ent0037" data-link-type="dependency" data-source-line="67" id="lnk44"><path d="M1534.22,651.8969 C1516.74,652.7169 1504.49,653.2969 1504.49,653.2969 C1504.49,653.2969 1145.49,653.2969 1145.49,653.2969 C1145.49,653.2969 1135.5981,653.0486 1115.4381,652.5386" fill="none" id="SOLICITUD_DISPENSA_ABIERTA-to-DISPENSAS_ABIERTO" style="stroke:#181818;stroke-width:1;"/><polygon fill="#181818" points="1109.44,652.3869,1118.336,656.6132,1114.4384,652.5133,1118.5383,648.6158,1109.44,652.3869" style="stroke:#181818;stroke-width:1;"/><text fill="#000000" font-family="sans-serif" font-size="13" lengthAdjust="spacing" textLength="117.2856" x="1266.49" y="649.3638">guardarSolicitud()</text></g><!--link SOLICITUD_DISPENSA_ABIERTA to DISPENSAS_ABIERTO--><g class="link" data-entity-1="ent0040" data-entity-2="ent0037" data-link-type="dependency" data-source-line="68" id="lnk45"><path d="M1534.93,671.7469 C1517.08,675.5869 1504.49,678.2969 1504.49,678.2969 C1504.49,678.2969 1145.49,678.2969 1145.49,678.2969 C1145.49,678.2969 1135.4407,675.9301 1115.2807,671.1901" fill="none" id="SOLICITUD_DISPENSA_ABIERTA-to-DISPENSAS_ABIERTO-1" style="stroke:#181818;stroke-width:1;"/><polygon fill="#181818" points="1109.44,669.8169,1117.2856,675.7706,1114.3073,670.9613,1119.1166,667.983,1109.44,669.8169" style="stroke:#181818;stroke-width:1;"/><text fill="#000000" font-family="sans-serif" font-size="13" lengthAdjust="spacing" textLength="105.0664" x="1272.49" y="674.3638">cerrarSolicitud()</text></g><!--link DISPENSAS_ABIERTO to DISPENSAS_ABIERTO--><g class="link" data-entity-1="ent0037" data-entity-2="ent0037" data-link-type="dependency" data-source-line="64" id="lnk42"><path d="M988.17,625.0169 C976.88,607.5269 989.29,590.2969 1025.4,590.2969 C1061.51,590.2969 1077.172,602.4846 1065.892,619.9746" fill="none" id="DISPENSAS_ABIERTO-to-DISPENSAS_ABIERTO" style="stroke:#181818;stroke-width:1;"/><polygon fill="#181818" points="1062.64,625.0169,1070.8795,619.6214,1065.35,620.815,1064.1564,615.2855,1062.64,625.0169" style="stroke:#181818;stroke-width:1;"/><text fill="#000000" font-family="sans-serif" font-size="13" lengthAdjust="spacing" textLength="132.1899" x="959.4" y="581.3638">exportarDispensas()</text></g><!--link SOLICITUD_DISPENSA_ABIERTA to SOLICITUD_DISPENSA_ABIERTA--><g class="link" data-entity-1="ent0040" data-entity-2="ent0040" data-link-type="dependency" data-source-line="66" id="lnk43"><path d="M1598.47,621.0169 C1581.6,603.5269 1600.16,586.2969 1654.17,586.2969 C1708.17,586.2969 1730.8954,599.2084 1714.0254,616.6984" fill="none" id="SOLICITUD_DISPENSA_ABIERTA-to-SOLICITUD_DISPENSA_ABIERTA" style="stroke:#181818;stroke-width:1;"/><polygon fill="#181818" points="1709.86,621.0169,1718.9871,617.3161,1713.3312,617.4181,1713.2291,611.7622,1709.86,621.0169" style="stroke:#181818;stroke-width:1;"/><text fill="#000000" font-family="sans-serif" font-size="13" lengthAdjust="spacing" textLength="163.814" x="1572.67" y="577.3638">editarSolicitudDispensa()</text></g><!--link SISTEMA_DISPONIBLE to USUARIOS_ABIERTO--><g class="link" data-entity-1="ent0005" data-entity-2="ent0046" data-link-type="dependency" data-source-line="73" id="lnk47"><path d="M603.7,476.7269 C634.05,534.2369 705.32,669.2969 705.32,669.2969 C705.32,669.2969 844.4495,710.7147 938.9595,738.8547" fill="none" id="SISTEMA_DISPONIBLE-to-USUARIOS_ABIERTO" style="stroke:#181818;stroke-width:1;"/><polygon fill="#181818" points="944.71,740.5669,937.2257,734.1649,939.9179,739.14,934.9428,741.8323,944.71,740.5669" style="stroke:#181818;stroke-width:1;"/><text fill="#000000" font-family="sans-serif" font-size="13" lengthAdjust="spacing" textLength="96.8398" x="757.32" y="665.3638">abrirUsuarios()</text></g><!--link USUARIOS_ABIERTO to SISTEMA_DISPONIBLE--><g class="link" data-entity-1="ent0046" data-entity-2="ent0005" data-link-type="dependency" data-source-line="74" id="lnk48"><path d="M944.71,761.2969 C850.2,757.7469 705.32,752.2969 705.32,752.2969 C705.32,752.2969 629.8723,554.8714 602.1323,482.3014" fill="none" id="USUARIOS_ABIERTO-to-SISTEMA_DISPONIBLE" style="stroke:#181818;stroke-width:1;"/><polygon fill="#181818" points="599.99,476.6969,599.4672,486.5318,601.7753,481.3673,606.9398,483.6754,599.99,476.6969" style="stroke:#181818;stroke-width:1;"/><text fill="#000000" font-family="sans-serif" font-size="13" lengthAdjust="spacing" textLength="182.1016" x="714.32" y="748.3638">completarGestionUsuarios()</text></g><!--link USUARIOS_ABIERTO to USUARIO_ABIERTO--><g class="link" data-entity-1="ent0046" data-entity-2="ent0049" data-link-type="dependency" data-source-line="76" id="lnk50"><path d="M1106.42,770.1569 C1242.52,780.1169 1504.49,799.2969 1504.49,799.2969 C1504.49,799.2969 1535.1234,803.0065 1572.0034,807.4665" fill="none" id="USUARIOS_ABIERTO-to-USUARIO_ABIERTO" style="stroke:#181818;stroke-width:1;"/><polygon fill="#181818" points="1577.96,808.1869,1569.5053,803.1353,1572.9962,807.5866,1568.5449,811.0774,1577.96,808.1869" style="stroke:#181818;stroke-width:1;"/><text fill="#000000" font-family="sans-serif" font-size="13" lengthAdjust="spacing" textLength="225.9131" x="1212.49" y="769.3638">crearUsuario() / consultarUsuario()</text></g><!--link USUARIO_ABIERTO to USUARIOS_ABIERTO--><g class="link" data-entity-1="ent0049" data-entity-2="ent0046" data-link-type="dependency" data-source-line="79" id="lnk52"><path d="M1577.96,820.8369 C1541.08,822.5769 1504.49,824.2969 1504.49,824.2969 C1504.49,824.2969 1145.49,824.2969 1145.49,824.2969 C1145.49,824.2969 1114.7183,808.7967 1082.2683,792.4467" fill="none" id="USUARIO_ABIERTO-to-USUARIOS_ABIERTO" style="stroke:#181818;stroke-width:1;"/><polygon fill="#181818" points="1076.91,789.7469,1083.1476,797.3687,1081.3752,791.9967,1086.7473,790.2244,1076.91,789.7469" style="stroke:#181818;stroke-width:1;"/><text fill="#000000" font-family="sans-serif" font-size="13" lengthAdjust="spacing" textLength="110.9126" x="1269.99" y="820.3638">guardarUsuario()</text></g><!--link USUARIO_ABIERTO to USUARIOS_ABIERTO--><g class="link" data-entity-1="ent0049" data-entity-2="ent0046" data-link-type="dependency" data-source-line="80" id="lnk53"><path d="M1577.96,833.4869 C1541.08,841.4169 1504.49,849.2969 1504.49,849.2969 C1504.49,849.2969 1145.49,849.2969 1145.49,849.2969 C1145.49,849.2969 1101.7932,818.1133 1066.6932,793.0533" fill="none" id="USUARIO_ABIERTO-to-USUARIOS_ABIERTO-1" style="stroke:#181818;stroke-width:1;"/><polygon fill="#181818" points="1061.81,789.5669,1066.8105,798.0519,1065.8793,792.4722,1071.459,791.541,1061.81,789.5669" style="stroke:#181818;stroke-width:1;"/><text fill="#000000" font-family="sans-serif" font-size="13" lengthAdjust="spacing" textLength="98.6934" x="1275.99" y="845.3638">cerrarUsuario()</text></g><!--link USUARIO_ABIERTO to USUARIO_ABIERTO--><g class="link" data-entity-1="ent0049" data-entity-2="ent0049" data-link-type="dependency" data-source-line="78" id="lnk51"><path d="M1598.47,792.0169 C1581.6,774.5269 1600.16,757.2969 1654.17,757.2969 C1708.17,757.2969 1730.8954,770.2084 1714.0254,787.6984" fill="none" id="USUARIO_ABIERTO-to-USUARIO_ABIERTO" style="stroke:#181818;stroke-width:1;"/><polygon fill="#181818" points="1709.86,792.0169,1718.9871,788.3161,1713.3312,788.4181,1713.2291,782.7622,1709.86,792.0169" style="stroke:#181818;stroke-width:1;"/><text fill="#000000" font-family="sans-serif" font-size="13" lengthAdjust="spacing" textLength="97.8174" x="1605.67" y="748.3638">editarUsuario()</text></g><?plantuml-src lLPBRjim4Dth5BDBqYBeFa0BA9RG2f2jGh8MHH4OhCIwH6dH8EcWEKHNFKgFa8jrHFr_jk8O5M308cVU6yvx5AcPvXGSHhQIx0Ya51AHQVfBYplOKwdsDD7iCP_WOASxbZ6b9Kc5j3Zzha4Ba6pxGqFAP1ufCalzPDcU81fmbb7zjAUm5_mfVx6ihsyUuFRs0qHkv0MhpS8DGzknBQlxNeHuqTfTsXl7Ypu7A-_UT-4Ea3zXH4PK8TNrZJKID8J7l8HAsQJ1Er3chvSHipn4igxUptwiAu3bynydzWFmiG8x0iS5su-Ngo22QoMu0BRR2wc9XBTvHzM1QtBp8ew9fHLy6_lUSyDrW4iZtoIJFif2bCqFkqmeN4qlQhAVYTZjESKoFrALgrVWc7Q0Lwr0YvGeuFdFJACP51e57Q7mdQ9jq2zKPcACTb1lrPX-oSYuA1ibS-mKo-BeJMGwPAIWBdlBqMe7IMuc-SeHeto5QVXw7QhZHYijJ6FoNc6GKLiaxFbl1a-NjKR9rFT6i-P-m6nRj5GQmnWILo8Vvox6MccFL3g5x4LYGtY2hv1ga7kcP4jx7Jx_NiI-_JzaozayGzPNRacqPCc1cnqv4ZPRlmxG5D9e7PMGSqgfXrlRhr6qHkYKqDc1enLqfEs0dBiXJSjM2y-EBhBh6hZ1pZFVnmnFBBC3HWBdxy0Er2JMs7ZvtE5Nkj3o4q89oGYVMLznc3RJxQ-hfDMnka1lK7EschLt1ki3VWJa50LDcHvoIBerDn6v5ZlIh2E_4XnbccnGzuvGrtscnt8jtLLq6OVLO7r_EGplPvaowWs3Pdkh3JE54_ZUmbl7pgQQ7vX0SBoQwKDQeHcPwjDtP7g2QZWwT72duYErdIozDDT8SITGZrMvFH2Pjb1VXrRQiWLshYdZABP33wyYNo0CV1VFDjjPUYkq2DwIW_0YXrd5qRTghB0fpDm41Y6pZTe26KSf1zkdH-xDCg_ho7gmnZeA1RLRciGZUIqbQqEyFB7Glixx1m00?></g></svg>
