<svg xmlns="http://www.w3.org/2000/svg" xmlns:xlink="http://www.w3.org/1999/xlink" version="1.1" data-diagram-type="DESCRIPTION" style="width:597px;height:248px;background:#FFFFFF;" width="597px" height="248px" viewBox="0 0 597 248" zoomAndPan="magnify" preserveAspectRatio="none" contentStyleType="text/css"><?plantuml 1.2026.7beta3?><defs/><g><g class="title" data-source-line="1"><text x="167.3737" y="22.9951" fill="#000000" font-size="14" lengthAdjust="spacing" textLength="256.1426" font-weight="700" font-family="sans-serif">Casos de Uso: Director de Grado</text></g><!--cluster Módulo Dispensas--><g class="cluster" data-qualified-name="M.dulo Dispensas" id="ent0004" data-source-line="11"><polygon points="286.5,43.2969,435.6787,43.2969,442.6787,65.5938,572.89,65.5938,572.89,233.2969,286.5,233.2969,286.5,43.2969" fill="none" style="stroke:#000000;stroke-width:1.5;stroke-linejoin:miter;stroke-miterlimit:10;"/><line x1="286.5" y1="65.5938" x2="442.6787" y2="65.5938" style="stroke:#000000;stroke-width:1.5;"/><text x="290.5" y="58.292" fill="#000000" font-size="14" lengthAdjust="spacing" textLength="143.1787" font-weight="700" font-family="sans-serif">Módulo Dispensas</text></g><!--entity ConsultarSolicitudesDispensa--><g class="entity" data-qualified-name="M.dulo Dispensas.ConsultarSolicitudesDispensa" id="ent0005" data-source-line="12"><ellipse cx="429.6947" cy="189.2958" rx="127.1947" ry="27.8389" fill="#F1F1F1" style="stroke:#181818;stroke-width:0.5;"/><text x="312.3729" y="193.9443" fill="#000000" font-size="14" lengthAdjust="spacing" textLength="234.6436" font-family="sans-serif">Consultar solicitudes de dispensa</text></g><!--entity EditarSolicitudDispensa--><g class="entity" data-qualified-name="M.dulo Dispensas.EditarSolicitudDispensa" id="ent0006" data-source-line="13"><ellipse cx="429.6886" cy="102.2946" rx="107.7886" ry="23.9577" fill="#F1F1F1" style="stroke:#181818;stroke-width:0.5;"/><text x="333.1447" y="106.943" fill="#000000" font-size="14" lengthAdjust="spacing" textLength="193.0879" font-family="sans-serif">Editar solicitud de dispensa</text></g><!--entity Profesor--><g class="entity" data-qualified-name="Profesor" id="ent0001" data-source-line="5"><ellipse cx="34.9604" cy="116.6469" rx="8" ry="8" fill="#F1F1F1" style="stroke:#181818;stroke-width:0.5;"/><path d="M34.9604,124.6469 L34.9604,151.6469 M21.9604,132.6469 L47.9604,132.6469 M34.9604,151.6469 L21.9604,166.6469 M34.9604,151.6469 L47.9604,166.6469" style="stroke:#181818;stroke-width:0.5;" fill="none"/><text x="6" y="181.142" fill="#000000" font-size="14" lengthAdjust="spacing" textLength="57.9209" font-family="sans-serif">Profesor</text></g><!--entity DirectorDeGrado--><g class="entity" data-qualified-name="DirectorDeGrado" id="ent0002" data-source-line="6"><ellipse cx="183.2081" cy="116.6469" rx="8" ry="8" fill="#F1F1F1" style="stroke:#181818;stroke-width:0.5;"/><path d="M183.2081,124.6469 L183.2081,151.6469 M170.2081,132.6469 L196.2081,132.6469 M183.2081,151.6469 L170.2081,166.6469 M183.2081,151.6469 L196.2081,166.6469" style="stroke:#181818;stroke-width:0.5;" fill="none"/><text x="123.92" y="181.142" fill="#000000" font-size="14" lengthAdjust="spacing" textLength="118.5762" font-family="sans-serif">DirectorDeGrado</text></g><!--reverse link Profesor to DirectorDeGrado--><g class="link" data-entity-1="ent0001" data-entity-2="ent0002" id="lnk3" data-source-line="9" data-link-type="extension"><path d="M82.16,146.2969 C99.01,146.2969 103.05,146.2969 123.53,146.2969" style="stroke:#181818;stroke-width:1;" fill="none" id="Profesor-backto-DirectorDeGrado"/><polygon points="64.16,146.2969,82.16,152.2969,82.16,140.2969,64.16,146.2969" fill="none" style="stroke:#181818;stroke-width:1;stroke-linejoin:miter;stroke-miterlimit:10;"/></g><!--link DirectorDeGrado to ConsultarSolicitudesDispensa--><g class="link" data-entity-1="ent0002" data-entity-2="ent0005" id="lnk7" data-source-line="16" data-link-type="dependency"><path d="M242.77,156.5969 C268.76,161.1669 295.1555,165.8113 324.6255,170.9913" style="stroke:#181818;stroke-width:1;" fill="none" id="DirectorDeGrado-to-ConsultarSolicitudesDispensa"/><polygon points="329.55,171.8569,321.3784,166.3592,324.6255,170.9913,319.9934,174.2384,329.55,171.8569" fill="#181818" style="stroke:#181818;stroke-width:1;stroke-linejoin:miter;stroke-miterlimit:10;"/></g><!--link DirectorDeGrado to EditarSolicitudDispensa--><g class="link" data-entity-1="ent0002" data-entity-2="ent0006" id="lnk8" data-source-line="17" data-link-type="dependency"><path d="M242.77,135.7569 C273.28,130.2669 306.2192,124.3434 339.7992,118.2934" style="stroke:#181818;stroke-width:1;" fill="none" id="DirectorDeGrado-to-EditarSolicitudDispensa"/><polygon points="344.72,117.4069,335.1534,115.0661,339.7992,118.2934,336.5719,122.9393,344.72,117.4069" fill="#181818" style="stroke:#181818;stroke-width:1;stroke-linejoin:miter;stroke-miterlimit:10;"/></g><?plantuml-src VSzBJWCn30RWVKvXTSDgBb0XDcq56oIamW6in6sjfkEHxI0Xu5GSWOiHffqPbGBPvFNdi_F8dWaMQ6AG29vCvh1afUYYtmUtYab2fes32oXlTmwflsTfW-svxL3n0EOlrJ5NZbuEEGJiXGUL3PdeQJl8IpgwuGhkIAcDZ20TAJe_unnMUUfXL-yJGgxznQ7BObAdFEd30gxVckQoIeTnZrk2sVtdHofPQi8wQWrj1gy1wYX6LQ-9XRHMigE2IUR8NXBrDTFfoGpGO4ojfz1Wddkhn6VO1NKCZCwel8Vmun_GD3V_L_xjmH_-5m00?></g></svg>