<svg xmlns="http://www.w3.org/2000/svg" xmlns:xlink="http://www.w3.org/1999/xlink" version="1.1" data-diagram-type="DESCRIPTION" style="width:409px;height:711px;background:#FFFFFF;" width="409px" height="711px" viewBox="0 0 409 711" zoomAndPan="magnify" preserveAspectRatio="none" contentStyleType="text/css"><?plantuml 1.2026.7beta3?><defs/><g><g class="title" data-source-line="1"><text x="110.3414" y="22.9951" fill="#000000" font-size="14" lengthAdjust="spacing" textLength="182.2871" font-weight="700" font-family="sans-serif">Casos de Uso: Profesor</text></g><!--cluster Módulo Alumnos --><g class="cluster" data-qualified-name="M.dulo Alumnos " id="ent0002" data-source-line="7"><polygon points="153.27,43.2969,295.0796,43.2969,302.0796,65.5938,339.62,65.5938,339.62,130.2969,153.27,130.2969,153.27,43.2969" fill="none" style="stroke:#000000;stroke-width:1.5;stroke-linejoin:miter;stroke-miterlimit:10;"/><line x1="153.27" y1="65.5938" x2="302.0796" y2="65.5938" style="stroke:#000000;stroke-width:1.5;"/><text x="157.27" y="58.292" fill="#000000" font-size="14" lengthAdjust="spacing" textLength="130.9355" font-weight="700" font-family="sans-serif">Módulo Alumnos</text></g><!--cluster Módulo Asistencias--><g class="cluster" data-qualified-name="M.dulo Asistencias" id="ent0004" data-source-line="11"><polygon points="107.92,154.2969,266.0811,154.2969,273.0811,176.5938,384.97,176.5938,384.97,569.2969,107.92,569.2969,107.92,154.2969" fill="none" style="stroke:#000000;stroke-width:1.5;stroke-linejoin:miter;stroke-miterlimit:10;"/><line x1="107.92" y1="176.5938" x2="273.0811" y2="176.5938" style="stroke:#000000;stroke-width:1.5;"/><text x="111.92" y="169.292" fill="#000000" font-size="14" lengthAdjust="spacing" textLength="152.1611" font-weight="700" font-family="sans-serif">Módulo Asistencias</text></g><!--cluster Módulo Dispensas--><g class="cluster" data-qualified-name="M.dulo Dispensas" id="ent0010" data-source-line="19"><polygon points="110.73,593.2969,259.9087,593.2969,266.9087,615.5938,382.16,615.5938,382.16,696.2969,110.73,696.2969,110.73,593.2969" fill="none" style="stroke:#000000;stroke-width:1.5;stroke-linejoin:miter;stroke-miterlimit:10;"/><line x1="110.73" y1="615.5938" x2="266.9087" y2="615.5938" style="stroke:#000000;stroke-width:1.5;"/><text x="114.73" y="608.292" fill="#000000" font-size="14" lengthAdjust="spacing" textLength="143.1787" font-weight="700" font-family="sans-serif">Módulo Dispensas</text></g><!--entity AlumnosConsultar--><g class="entity" data-qualified-name="M.dulo Alumnos .AlumnosConsultar" id="ent0003" data-source-line="8"><ellipse cx="246.4429" cy="96.3015" rx="77.1729" ry="17.8346" fill="#F1F1F1" style="stroke:#181818;stroke-width:0.5;"/><text x="184.4615" y="100.9499" fill="#000000" font-size="14" lengthAdjust="spacing" textLength="123.9629" font-family="sans-serif">Consultar alumno</text></g><!--entity AsistenciasCrearSesion--><g class="entity" data-qualified-name="M.dulo Asistencias.AsistenciasCrearSesion" id="ent0005" data-source-line="12"><ellipse cx="246.4422" cy="533.3013" rx="88.3222" ry="20.0644" fill="#F1F1F1" style="stroke:#181818;stroke-width:0.5;"/><text x="171.4759" y="537.9497" fill="#000000" font-size="14" lengthAdjust="spacing" textLength="149.9326" font-family="sans-serif">Crear sesión de clase</text></g><!--entity AsistenciasEditarSesion--><g class="entity" data-qualified-name="M.dulo Asistencias.AsistenciasEditarSesion" id="ent0006" data-source-line="13"><ellipse cx="246.4384" cy="458.2926" rx="89.6284" ry="20.3257" fill="#F1F1F1" style="stroke:#181818;stroke-width:0.5;"/><text x="169.9887" y="462.941" fill="#000000" font-size="14" lengthAdjust="spacing" textLength="152.8994" font-family="sans-serif">Editar sesión de clase</text></g><!--entity AsistenciasRegistrarToma--><g class="entity" data-qualified-name="M.dulo Asistencias.AsistenciasRegistrarToma" id="ent0007" data-source-line="14"><ellipse cx="246.4387" cy="378.2946" rx="111.5887" ry="24.7177" fill="#F1F1F1" style="stroke:#181818;stroke-width:0.5;"/><text x="145.7829" y="382.9431" fill="#000000" font-size="14" lengthAdjust="spacing" textLength="201.3115" font-family="sans-serif">Registrar toma de asistencia</text></g><!--entity AsistenciasCerrarSesion--><g class="entity" data-qualified-name="M.dulo Asistencias.AsistenciasCerrarSesion" id="ent0008" data-source-line="15"><ellipse cx="246.4415" cy="298.2992" rx="90.8615" ry="20.5723" fill="#F1F1F1" style="stroke:#181818;stroke-width:0.5;"/><text x="168.5973" y="302.9476" fill="#000000" font-size="14" lengthAdjust="spacing" textLength="155.6885" font-family="sans-serif">Cerrar sesión de clase</text></g><!--entity AsistenciasExportarHistorial--><g class="entity" data-qualified-name="M.dulo Asistencias.AsistenciasExportarHistorial" id="ent0009" data-source-line="16"><ellipse cx="246.444" cy="216.3017" rx="122.524" ry="26.9048" fill="#F1F1F1" style="stroke:#181818;stroke-width:0.5;"/><text x="134.0783" y="220.9501" fill="#000000" font-size="14" lengthAdjust="spacing" textLength="224.7314" font-family="sans-serif">Exportar historial de asistencias</text></g><!--entity DispensasConsultar--><g class="entity" data-qualified-name="M.dulo Dispensas.DispensasConsultar" id="ent0011" data-source-line="20"><ellipse cx="246.4404" cy="654.299" rx="119.7104" ry="26.3421" fill="#F1F1F1" style="stroke:#181818;stroke-width:0.5;"/><text x="137.0723" y="658.9474" fill="#000000" font-size="14" lengthAdjust="spacing" textLength="218.7363" font-family="sans-serif">Consultar solicitud de dispensa</text></g><!--entity Profesor--><g class="entity" data-qualified-name="Profesor" id="ent0001" data-source-line="5"><ellipse cx="34.9604" cy="348.6469" rx="8" ry="8" fill="#F1F1F1" style="stroke:#181818;stroke-width:0.5;"/><path d="M34.9604,356.6469 L34.9604,383.6469 M21.9604,364.6469 L47.9604,364.6469 M34.9604,383.6469 L21.9604,398.6469 M34.9604,383.6469 L47.9604,398.6469" style="stroke:#181818;stroke-width:0.5;" fill="none"/><text x="6" y="413.142" fill="#000000" font-size="14" lengthAdjust="spacing" textLength="57.9209" font-family="sans-serif">Profesor</text></g><!--link Profesor to AlumnosConsultar--><g class="link" data-entity-1="ent0001" data-entity-2="ent0003" id="lnk12" data-source-line="23" data-link-type="dependency"><path d="M39.2,339.7569 C44.77,295.1369 59.77,221.6169 99.92,173.2969 C125.4,142.6269 161.6467,124.268 193.6067,112.318" style="stroke:#181818;stroke-width:1;" fill="none" id="Profesor-to-AlumnosConsultar"/><polygon points="198.29,110.5669,188.4591,109.9722,193.6067,112.318,191.2609,117.4656,198.29,110.5669" fill="#181818" style="stroke:#181818;stroke-width:1;stroke-linejoin:miter;stroke-miterlimit:10;"/></g><!--link Profesor to AsistenciasCrearSesion--><g class="link" data-entity-1="ent0001" data-entity-2="ent0005" id="lnk13" data-source-line="25" data-link-type="dependency"><path d="M47.6,416.6769 C57.46,442.8469 74.18,476.2569 99.92,496.2969 C118.64,510.8669 137.5735,518.6093 160.4735,524.0093" style="stroke:#181818;stroke-width:1;" fill="none" id="Profesor-to-AsistenciasCrearSesion"/><polygon points="165.34,525.1569,157.4983,519.198,160.4735,524.0093,155.6622,526.9845,165.34,525.1569" fill="#181818" style="stroke:#181818;stroke-width:1;stroke-linejoin:miter;stroke-miterlimit:10;"/></g><!--link Profesor to AsistenciasEditarSesion--><g class="link" data-entity-1="ent0001" data-entity-2="ent0006" id="lnk14" data-source-line="26" data-link-type="dependency"><path d="M64.11,399.6369 C74.87,407.0069 87.54,414.7969 99.92,420.2969 C124.14,431.0569 147.1689,438.0966 172.0089,444.0766" style="stroke:#181818;stroke-width:1;" fill="none" id="Profesor-to-AsistenciasEditarSesion"/><polygon points="176.87,445.2469,169.0562,439.2515,172.0089,444.0766,167.1838,447.0293,176.87,445.2469" fill="#181818" style="stroke:#181818;stroke-width:1;stroke-linejoin:miter;stroke-miterlimit:10;"/></g><!--link Profesor to AsistenciasRegistrarToma--><g class="link" data-entity-1="ent0001" data-entity-2="ent0007" id="lnk15" data-source-line="27" data-link-type="dependency"><path d="M64.21,378.2969 C82.75,378.2969 103.32,378.2969 129.41,378.2969" style="stroke:#181818;stroke-width:1;" fill="none" id="Profesor-to-AsistenciasRegistrarToma"/><polygon points="134.41,378.2969,125.41,374.2969,129.41,378.2969,125.41,382.2969,134.41,378.2969" fill="#181818" style="stroke:#181818;stroke-width:1;stroke-linejoin:miter;stroke-miterlimit:10;"/></g><!--link Profesor to AsistenciasCerrarSesion--><g class="link" data-entity-1="ent0001" data-entity-2="ent0008" id="lnk16" data-source-line="28" data-link-type="dependency"><path d="M64.11,356.9569 C74.87,349.5869 87.54,341.7969 99.92,336.2969 C123.78,325.6869 146.351,318.756 170.911,312.796" style="stroke:#181818;stroke-width:1;" fill="none" id="Profesor-to-AsistenciasCerrarSesion"/><polygon points="175.77,311.6169,166.0805,309.8521,170.911,312.796,167.9671,317.6265,175.77,311.6169" fill="#181818" style="stroke:#181818;stroke-width:1;stroke-linejoin:miter;stroke-miterlimit:10;"/></g><!--link Profesor to AsistenciasExportarHistorial--><g class="link" data-entity-1="ent0001" data-entity-2="ent0009" id="lnk17" data-source-line="29" data-link-type="dependency"><path d="M48.1,339.7069 C58.12,313.7869 74.81,280.7569 99.92,260.2969 C114.55,248.3769 127.642,241.3322 145.712,234.9922" style="stroke:#181818;stroke-width:1;" fill="none" id="Profesor-to-AsistenciasExportarHistorial"/><polygon points="150.43,233.3369,140.6133,232.5421,145.712,234.9922,143.2618,240.0909,150.43,233.3369" fill="#181818" style="stroke:#181818;stroke-width:1;stroke-linejoin:miter;stroke-miterlimit:10;"/></g><!--link Profesor to DispensasConsultar--><g class="link" data-entity-1="ent0001" data-entity-2="ent0011" id="lnk18" data-source-line="31" data-link-type="dependency"><path d="M40.66,416.5669 C47.47,458.1269 63.52,524.5269 99.92,569.2969 C122.25,596.7669 151.475,615.1086 180.835,629.0786" style="stroke:#181818;stroke-width:1;" fill="none" id="Profesor-to-DispensasConsultar"/><polygon points="185.35,631.2269,178.9417,623.748,180.835,629.0786,175.5044,630.9719,185.35,631.2269" fill="#181818" style="stroke:#181818;stroke-width:1;stroke-linejoin:miter;stroke-miterlimit:10;"/></g><?plantuml-src ZP91QiD034NtSmgHVIxGHQ6aXMuAfKqE8COJHsGyCf8CBQMdoX5oiOwTnAbZ6-Abv_sl-Vgp9ei1LgYiK0JOA3_0k_0sA8kBOMjW34Bbpg0W2Tw8azCzfHe5Ar3xpd8r8MzD5Pr3RonN1rUZtsCPOF5sF1HDP7YAJPNoi0NyECXVey6ZPc35IPjeA80TiW3K2zsVkTyfIoMra3oXZbqbP4SDIiT3QXFwcF-VlA-oZlhCK0utaByKP7VeJzYKmKSeCoNPmxZ2rW1xsQrBpwupUXCZYDoJeyCcWtpLB6sKNOPP2EFmBZgAT1QyNlZ9rJ-JrY7frEBxEfKZURAcQ2SMPq4thbSF-hqy7bWk7ySFuEPukiCvPj3J73IiONRS_rNFpXijSOYE5_07?></g></svg>