<svg xmlns="http://www.w3.org/2000/svg" xmlns:xlink="http://www.w3.org/1999/xlink" contentStyleType="text/css" data-diagram-type="DESCRIPTION" height="779px" preserveAspectRatio="none" style="width:360px;height:779px;background:#FFFFFF;" version="1.1" viewBox="0 0 360 779" width="360px" zoomAndPan="magnify"><defs/><g><!--cluster Listas--><g class="cluster" data-entity="Listas" data-source-line="6" data-uid="ent0003" id="cluster_Listas"><rect fill="none" height="96" rx="2.5" ry="2.5" style="stroke:#181818;stroke-width:1;" width="223" x="117" y="7"/><text fill="#000000" font-family="sans-serif" font-size="14" font-weight="bold" lengthAdjust="spacing" textLength="40.4619" x="208.269" y="23.5332">Listas</text></g><!--cluster Alumnos--><g class="cluster" data-entity="Alumnos" data-source-line="10" data-uid="ent0005" id="cluster_Alumnos"><rect fill="none" height="96" rx="2.5" ry="2.5" style="stroke:#181818;stroke-width:1;" width="229" x="114" y="127"/><text fill="#000000" font-family="sans-serif" font-size="14" font-weight="bold" lengthAdjust="spacing" textLength="59.8896" x="198.5552" y="143.5332">Alumnos</text></g><!--cluster Asistencias--><g class="cluster" data-entity="Asistencias" data-source-line="14" data-uid="ent0007" id="cluster_Asistencias"><rect fill="none" height="402" rx="2.5" ry="2.5" style="stroke:#181818;stroke-width:1;" width="251" x="103" y="247"/><text fill="#000000" font-family="sans-serif" font-size="14" font-weight="bold" lengthAdjust="spacing" textLength="77.8203" x="189.5898" y="263.5332">Asistencias</text></g><!--cluster Dispensas--><g class="cluster" data-entity="Dispensas" data-source-line="22" data-uid="ent0013" id="cluster_Dispensas"><rect fill="none" height="100" rx="2.5" ry="2.5" style="stroke:#181818;stroke-width:1;" width="247" x="105" y="673"/><text fill="#000000" font-family="sans-serif" font-size="14" font-weight="bold" lengthAdjust="spacing" textLength="70.0342" x="193.4829" y="689.5332">Dispensas</text></g><g class="entity" data-entity="ListasConsultarLista" data-source-line="7" data-uid="ent0004" id="entity_ListasConsultarLista"><ellipse cx="228.2659" cy="64.9532" fill="#F1F1F1" rx="95.2659" ry="21.4532" style="stroke:#181818;stroke-width:0.5;"/><text fill="#000000" font-family="sans-serif" font-size="14" lengthAdjust="spacing" textLength="150.1719" x="153.1799" y="68.6817">consultarListaAlumnos()</text></g><g class="entity" data-entity="AlumnosConsultarDetalle" data-source-line="11" data-uid="ent0006" id="entity_AlumnosConsultarDetalle"><ellipse cx="228.3594" cy="185.0719" fill="#F1F1F1" rx="98.3594" ry="22.0719" style="stroke:#181818;stroke-width:0.5;"/><text fill="#000000" font-family="sans-serif" font-size="14" lengthAdjust="spacing" textLength="157.1787" x="149.7701" y="188.8004">consultarDetalleAlumno()</text></g><g class="entity" data-entity="AsistenciasCrearSesion" data-source-line="15" data-uid="ent0008" id="entity_AsistenciasCrearSesion"><ellipse cx="228.2604" cy="301.8521" fill="#F1F1F1" rx="82.2604" ry="18.8521" style="stroke:#181818;stroke-width:0.5;"/><text fill="#000000" font-family="sans-serif" font-size="14" lengthAdjust="spacing" textLength="119.8203" x="168.3202" y="305.5896">crearSesionClase()</text></g><g class="entity" data-entity="AsistenciasEditarSesion" data-source-line="16" data-uid="ent0009" id="entity_AsistenciasEditarSesion"><ellipse cx="228.564" cy="375.1128" fill="#F1F1F1" rx="83.564" ry="19.1128" style="stroke:#181818;stroke-width:0.5;"/><text fill="#000000" font-family="sans-serif" font-size="14" lengthAdjust="spacing" textLength="122.9443" x="167.0918" y="378.8413">editarSesionClase()</text></g><g class="entity" data-entity="AsistenciasRegistrarToma" data-source-line="17" data-uid="ent0010" id="entity_AsistenciasRegistrarToma"><ellipse cx="228.7295" cy="451.8459" fill="#F1F1F1" rx="99.7295" ry="22.3459" style="stroke:#181818;stroke-width:0.5;"/><text fill="#000000" font-family="sans-serif" font-size="14" lengthAdjust="spacing" textLength="160.2617" x="148.5986" y="455.5744">registrarTomaAsistencia()</text></g><g class="entity" data-entity="AsistenciasCerrarSesion" data-source-line="18" data-uid="ent0011" id="entity_AsistenciasCerrarSesion"><ellipse cx="228.7091" cy="529.2418" fill="#F1F1F1" rx="84.2091" ry="19.2418" style="stroke:#181818;stroke-width:0.5;"/><text fill="#000000" font-family="sans-serif" font-size="14" lengthAdjust="spacing" textLength="124.4824" x="166.4679" y="532.9703">cerrarSesionClase()</text></g><g class="entity" data-entity="AsistenciasExportarHistorial" data-source-line="19" data-uid="ent0012" id="entity_AsistenciasExportarHistorial"><ellipse cx="228.5475" cy="607.8095" fill="#F1F1F1" rx="109.5475" ry="24.3095" style="stroke:#181818;stroke-width:0.5;"/><text fill="#000000" font-family="sans-serif" font-size="14" lengthAdjust="spacing" textLength="182.0547" x="137.5202" y="611.538">exportarHistorialAsistencias()</text></g><g class="entity" data-entity="DispensasConsultar" data-source-line="23" data-uid="ent0014" id="entity_DispensasConsultar"><ellipse cx="228.4385" cy="732.8877" fill="#F1F1F1" rx="107.4385" ry="23.8877" style="stroke:#181818;stroke-width:0.5;"/><text fill="#000000" font-family="sans-serif" font-size="14" lengthAdjust="spacing" textLength="177.4131" x="139.7319" y="736.6162">consultarSolicitudDispensa()</text></g><!--entity Profesor--><g class="entity" data-entity="Profesor" data-source-line="4" data-uid="ent0002" id="entity_Profesor"><ellipse cx="32.4551" cy="383.5" fill="#F1F1F1" rx="8" ry="8" style="stroke:#181818;stroke-width:0.5;"/><path d="M32.4551,391.5 L32.4551,418.5 M19.4551,399.5 L45.4551,399.5 M32.4551,418.5 L19.4551,433.5 M32.4551,418.5 L45.4551,433.5" fill="none" style="stroke:#181818;stroke-width:0.5;"/><text fill="#000000" font-family="sans-serif" font-size="14" lengthAdjust="spacing" textLength="52.9102" x="6" y="449.5332">Profesor</text></g><!--link Profesor to ListasConsultarLista--><g class="link" data-entity-1="Profesor" data-entity-2="ListasConsultarLista" data-source-line="26" data-uid="lnk15" id="link_Profesor_ListasConsultarLista"><path d="M33.39,374.85 C35.11,319.18 45.42,216.22 95,147 C115.87,117.86 145.1962,99.4645 173.8762,86.0345" fill="none" id="Profesor-to-ListasConsultarLista" style="stroke:#181818;stroke-width:1;"/><polygon fill="#181818" points="179.31,83.49,169.4631,83.6842,174.7819,85.6104,172.8557,90.9292,179.31,83.49" style="stroke:#181818;stroke-width:1;"/></g><!--link Profesor to AlumnosConsultarDetalle--><g class="link" data-entity-1="Profesor" data-entity-2="AlumnosConsultarDetalle" data-source-line="28" data-uid="lnk16" id="link_Profesor_AlumnosConsultarDetalle"><path d="M42.73,374.86 C51.8,343.01 68.24,298.36 95,267 C118.44,239.53 148.0916,221.0696 176.2416,207.1496" fill="none" id="Profesor-to-AlumnosConsultarDetalle" style="stroke:#181818;stroke-width:1;"/><polygon fill="#181818" points="181.62,204.49,171.7794,204.8938,177.138,206.7063,175.3255,212.0649,181.62,204.49" style="stroke:#181818;stroke-width:1;"/></g><!--link Profesor to AsistenciasCrearSesion--><g class="link" data-entity-1="Profesor" data-entity-2="AsistenciasCrearSesion" data-source-line="30" data-uid="lnk17" id="link_Profesor_AsistenciasCrearSesion"><path d="M57.75,374.85 C67.79,361.44 80.5,347.46 95,338 C113.87,325.7 131.0382,319.0214 152.5382,313.6614" fill="none" id="Profesor-to-AsistenciasCrearSesion" style="stroke:#181818;stroke-width:1;"/><polygon fill="#181818" points="158.36,312.21,148.6597,310.5059,153.5085,313.4195,150.5949,318.2683,158.36,312.21" style="stroke:#181818;stroke-width:1;"/></g><!--link Profesor to AsistenciasEditarSesion--><g class="link" data-entity-1="Profesor" data-entity-2="AsistenciasEditarSesion" data-source-line="31" data-uid="lnk18" id="link_Profesor_AsistenciasEditarSesion"><path d="M59.26,408.82 C86.16,403.41 123.4776,395.9121 159.3576,388.7021" fill="none" id="Profesor-to-AsistenciasEditarSesion" style="stroke:#181818;stroke-width:1;"/><polygon fill="#181818" points="165.24,387.52,155.6283,385.3715,160.338,388.505,157.2044,393.2147,165.24,387.52" style="stroke:#181818;stroke-width:1;"/></g><!--link Profesor to AsistenciasRegistrarToma--><g class="link" data-entity-1="Profesor" data-entity-2="AsistenciasRegistrarToma" data-source-line="32" data-uid="lnk19" id="link_Profesor_AsistenciasRegistrarToma"><path d="M59.26,419.05 C83.07,423.71 113.752,429.7163 146.722,436.1763" fill="none" id="Profesor-to-AsistenciasRegistrarToma" style="stroke:#181818;stroke-width:1;"/><polygon fill="#181818" points="152.61,437.33,144.5471,431.6741,147.7033,436.3686,143.0088,439.5248,152.61,437.33" style="stroke:#181818;stroke-width:1;"/></g><!--link Profesor to AsistenciasCerrarSesion--><g class="link" data-entity-1="Profesor" data-entity-2="AsistenciasCerrarSesion" data-source-line="33" data-uid="lnk20" id="link_Profesor_AsistenciasCerrarSesion"><path d="M57.01,453.32 C67.13,467.32 80.07,482.06 95,492 C113.88,504.58 131.1862,511.4369 152.7862,516.9469" fill="none" id="Profesor-to-AsistenciasCerrarSesion" style="stroke:#181818;stroke-width:1;"/><polygon fill="#181818" points="158.6,518.43,150.868,512.3295,153.7551,517.1941,148.8906,520.0813,158.6,518.43" style="stroke:#181818;stroke-width:1;"/></g><!--link Profesor to AsistenciasExportarHistorial--><g class="link" data-entity-1="Profesor" data-entity-2="AsistenciasExportarHistorial" data-source-line="34" data-uid="lnk21" id="link_Profesor_AsistenciasExportarHistorial"><path d="M39.88,453.01 C47.4,487.02 63.18,535.42 95,565 C108.37,577.43 119.7386,584.2269 137.0786,590.5069" fill="none" id="Profesor-to-AsistenciasExportarHistorial" style="stroke:#181818;stroke-width:1;"/><polygon fill="#181818" points="142.72,592.55,135.62,585.7243,138.0188,590.8474,132.8958,593.2462,142.72,592.55" style="stroke:#181818;stroke-width:1;"/></g><!--link Profesor to DispensasConsultar--><g class="link" data-entity-1="Profesor" data-entity-2="DispensasConsultar" data-source-line="36" data-uid="lnk22" id="link_Profesor_DispensasConsultar"><path d="M35.1,453.08 C38.93,502.98 51.84,589.91 95,649 C115.48,677.04 143.0638,695.3059 170.9738,709.2659" fill="none" id="Profesor-to-DispensasConsultar" style="stroke:#181818;stroke-width:1;"/><polygon fill="#181818" points="176.34,711.95,170.0801,704.3465,171.8682,709.7133,166.5014,711.5014,176.34,711.95" style="stroke:#181818;stroke-width:1;"/></g><!--SRC=[ZP9DJiGm38NtFKKqArZC5P1G1ua52qJd0bRgAT6aIMMd4WXnTzA_QTeaG9R9zzwpOskyEE6i8DMyEr4hGkcKDGLVbUc0e1KTo2iqMBbFZM9u1jDeB0gGpf9u9Nj1jbGKmf-P5OSNnGxu8Bx6w-7qZ1BOFqbhkDSEQ6GUTTyQotVt1m4i9bcv8KQ7xvt_BFizu8GEjCQ97HA6Y5bPxg1q2li2q4YLQuKGg4Bs7rPgVpDcB6V8MlNbYiO-M2kNDThwF0LeR4JOU9A0phQ5LJNPROtUGZJH6XBziwGoG1EzVNIMVCdFdhUaG0VAUUfXUtiwEPUJuWuD_xLWbTLAAjVN2p_dtUIt9GXJbeqMn-D3UY5ZBBTK2JA_4Zak6daEZ4UQZTwFB9iTpIF64zzP_000]--></g></svg>