<svg xmlns="http://www.w3.org/2000/svg" xmlns:xlink="http://www.w3.org/1999/xlink" version="1.1" data-diagram-type="DESCRIPTION" style="width:409px;height:847px;background:#FFFFFF;" width="409px" height="847px" viewBox="0 0 409 847" zoomAndPan="magnify" preserveAspectRatio="none" contentStyleType="text/css"><?plantuml 1.2026.7beta8?><defs/><g font-family="sans-serif" lengthAdjust="spacing"><g class="title" data-source-line="1"><text x="110.341" y="22.995" fill="#000" font-size="14" textLength="182.287" font-weight="700">Casos de Uso: Profesor</text></g><!--cluster Módulo Alumnos --><g class="cluster" data-qualified-name="M.dulo Alumnos " id="ent0002" data-source-line="7"><polygon points="153.27,43.297,295.08,43.297,302.08,65.594,339.62,65.594,339.62,197.297,153.27,197.297,153.27,43.297" fill="none" style="stroke:#000;stroke-width:1.5;stroke-linejoin:miter;stroke-miterlimit:10;"/><line x1="153.27" y1="65.594" x2="302.08" y2="65.594" style="stroke:#000;stroke-width:1.5;"/><text x="157.27" y="58.292" fill="#000" font-size="14" textLength="130.936" font-weight="700">Módulo Alumnos</text></g><!--cluster Módulo Asistencias--><g class="cluster" data-qualified-name="M.dulo Asistencias" id="ent0005" data-source-line="12"><polygon points="107.92,221.297,266.081,221.297,273.081,243.594,384.97,243.594,384.97,636.297,107.92,636.297,107.92,221.297" fill="none" style="stroke:#000;stroke-width:1.5;stroke-linejoin:miter;stroke-miterlimit:10;"/><line x1="107.92" y1="243.594" x2="273.081" y2="243.594" style="stroke:#000;stroke-width:1.5;"/><text x="111.92" y="236.292" fill="#000" font-size="14" textLength="152.161" font-weight="700">Módulo Asistencias</text></g><!--cluster Módulo Dispensas--><g class="cluster" data-qualified-name="M.dulo Dispensas" id="ent0011" data-source-line="20"><polygon points="110.73,660.297,259.909,660.297,266.909,682.594,382.16,682.594,382.16,832.297,110.73,832.297,110.73,660.297" fill="none" style="stroke:#000;stroke-width:1.5;stroke-linejoin:miter;stroke-miterlimit:10;"/><line x1="110.73" y1="682.594" x2="266.909" y2="682.594" style="stroke:#000;stroke-width:1.5;"/><text x="114.73" y="675.292" fill="#000" font-size="14" textLength="143.179" font-weight="700">Módulo Dispensas</text></g><!--entity AlumnosAbrir--><g class="entity" data-qualified-name="M.dulo Alumnos .AlumnosAbrir" id="ent0003" data-source-line="8"><ellipse cx="246.436" cy="165.294" rx="66.736" ry="15.747" fill="#F1F1F1" style="stroke:#181818;stroke-width:0.5;"/><text x="197.422" y="169.942" fill="#000" font-size="14" textLength="98.027">Abrir alumnos</text></g><!--entity AlumnosConsultar--><g class="entity" data-qualified-name="M.dulo Alumnos .AlumnosConsultar" id="ent0004" data-source-line="9"><ellipse cx="246.443" cy="96.301" rx="77.173" ry="17.835" fill="#F1F1F1" style="stroke:#181818;stroke-width:0.5;"/><text x="184.461" y="100.95" fill="#000" font-size="14" textLength="123.963">Consultar alumno</text></g><!--entity AsistenciasCrearSesion--><g class="entity" data-qualified-name="M.dulo Asistencias.AsistenciasCrearSesion" id="ent0006" data-source-line="13"><ellipse cx="246.442" cy="600.301" rx="88.322" ry="20.064" fill="#F1F1F1" style="stroke:#181818;stroke-width:0.5;"/><text x="171.476" y="604.95" fill="#000" font-size="14" textLength="149.933">Crear sesión de clase</text></g><!--entity AsistenciasEditarSesion--><g class="entity" data-qualified-name="M.dulo Asistencias.AsistenciasEditarSesion" id="ent0007" data-source-line="14"><ellipse cx="246.438" cy="525.293" rx="89.628" ry="20.326" fill="#F1F1F1" style="stroke:#181818;stroke-width:0.5;"/><text x="169.989" y="529.941" fill="#000" font-size="14" textLength="152.899">Editar sesión de clase</text></g><!--entity AsistenciasRegistrarToma--><g class="entity" data-qualified-name="M.dulo Asistencias.AsistenciasRegistrarToma" id="ent0008" data-source-line="15"><ellipse cx="246.439" cy="445.295" rx="111.589" ry="24.718" fill="#F1F1F1" style="stroke:#181818;stroke-width:0.5;"/><text x="145.783" y="449.943" fill="#000" font-size="14" textLength="201.312">Registrar toma de asistencia</text></g><!--entity AsistenciasCerrarSesion--><g class="entity" data-qualified-name="M.dulo Asistencias.AsistenciasCerrarSesion" id="ent0009" data-source-line="16"><ellipse cx="246.442" cy="365.299" rx="90.862" ry="20.572" fill="#F1F1F1" style="stroke:#181818;stroke-width:0.5;"/><text x="168.597" y="369.948" fill="#000" font-size="14" textLength="155.688">Cerrar sesión de clase</text></g><!--entity AsistenciasExportarHistorial--><g class="entity" data-qualified-name="M.dulo Asistencias.AsistenciasExportarHistorial" id="ent0010" data-source-line="17"><ellipse cx="246.444" cy="283.302" rx="122.524" ry="26.905" fill="#F1F1F1" style="stroke:#181818;stroke-width:0.5;"/><text x="134.078" y="287.95" fill="#000" font-size="14" textLength="224.731">Exportar historial de asistencias</text></g><!--entity DispensasAbrir--><g class="entity" data-qualified-name="M.dulo Dispensas.DispensasAbrir" id="ent0012" data-source-line="21"><ellipse cx="246.436" cy="799.3" rx="70.616" ry="16.523" fill="#F1F1F1" style="stroke:#181818;stroke-width:0.5;"/><text x="192.473" y="803.949" fill="#000" font-size="14" textLength="107.926">Abrir dispensas</text></g><!--entity DispensasConsultar--><g class="entity" data-qualified-name="M.dulo Dispensas.DispensasConsultar" id="ent0013" data-source-line="22"><ellipse cx="246.44" cy="721.299" rx="119.71" ry="26.342" fill="#F1F1F1" style="stroke:#181818;stroke-width:0.5;"/><text x="137.072" y="725.947" fill="#000" font-size="14" textLength="218.736">Consultar solicitud de dispensa</text></g><!--entity Profesor--><g class="entity" data-qualified-name="Profesor" id="ent0001" data-source-line="5"><ellipse cx="34.96" cy="415.647" rx="8" ry="8" fill="#F1F1F1" style="stroke:#181818;stroke-width:0.5;"/><path d="M34.96,423.647 L34.96,450.647 M21.96,431.647 L47.96,431.647 M34.96,450.647 L21.96,465.647 M34.96,450.647 L47.96,465.647" style="stroke:#181818;stroke-width:0.5;" fill="none"/><text x="6" y="480.142" fill="#000" font-size="14" textLength="57.921">Profesor</text></g><!--link Profesor to AlumnosAbrir--><g class="link" data-entity-1="ent0001" data-entity-2="ent0003" id="lnk14" data-source-line="25" data-link-type="dependency"><path d="M39.11,406.677 C44.59,361.987 59.51,288.397 99.92,240.297 C126.52,208.627 165.167,190.377 197.657,179.097" style="stroke:#181818;stroke-width:1;" fill="none" id="Profesor-to-AlumnosAbrir"/><polygon points="202.38,177.457,192.566,176.63,197.657,179.097,195.19,184.187,202.38,177.457" fill="#181818" style="stroke:#181818;stroke-width:1;stroke-linejoin:miter;stroke-miterlimit:10;"/></g><!--link Profesor to AlumnosConsultar--><g class="link" data-entity-1="ent0001" data-entity-2="ent0004" id="lnk15" data-source-line="26" data-link-type="dependency"><path d="M38.77,406.807 C45.01,332.087 62.52,171.257 99.92,132.297 C118.12,113.337 139.703,104.633 165.103,99.953" style="stroke:#181818;stroke-width:1;" fill="none" id="Profesor-to-AlumnosConsultar"/><polygon points="170.02,99.047,160.444,96.744,165.103,99.953,161.894,104.611,170.02,99.047" fill="#181818" style="stroke:#181818;stroke-width:1;stroke-linejoin:miter;stroke-miterlimit:10;"/></g><!--link Profesor to AsistenciasCrearSesion--><g class="link" data-entity-1="ent0001" data-entity-2="ent0006" id="lnk16" data-source-line="28" data-link-type="dependency"><path d="M47.6,483.677 C57.46,509.847 74.18,543.257 99.92,563.297 C118.64,577.867 137.573,585.609 160.473,591.009" style="stroke:#181818;stroke-width:1;" fill="none" id="Profesor-to-AsistenciasCrearSesion"/><polygon points="165.34,592.157,157.498,586.198,160.473,591.009,155.662,593.984,165.34,592.157" fill="#181818" style="stroke:#181818;stroke-width:1;stroke-linejoin:miter;stroke-miterlimit:10;"/></g><!--link Profesor to AsistenciasEditarSesion--><g class="link" data-entity-1="ent0001" data-entity-2="ent0007" id="lnk17" data-source-line="29" data-link-type="dependency"><path d="M64.11,466.637 C74.87,474.007 87.54,481.797 99.92,487.297 C124.14,498.057 147.169,505.097 172.009,511.077" style="stroke:#181818;stroke-width:1;" fill="none" id="Profesor-to-AsistenciasEditarSesion"/><polygon points="176.87,512.247,169.056,506.251,172.009,511.077,167.184,514.029,176.87,512.247" fill="#181818" style="stroke:#181818;stroke-width:1;stroke-linejoin:miter;stroke-miterlimit:10;"/></g><!--link Profesor to AsistenciasRegistrarToma--><g class="link" data-entity-1="ent0001" data-entity-2="ent0008" id="lnk18" data-source-line="30" data-link-type="dependency"><path d="M64.21,445.297 C82.75,445.297 103.32,445.297 129.41,445.297" style="stroke:#181818;stroke-width:1;" fill="none" id="Profesor-to-AsistenciasRegistrarToma"/><polygon points="134.41,445.297,125.41,441.297,129.41,445.297,125.41,449.297,134.41,445.297" fill="#181818" style="stroke:#181818;stroke-width:1;stroke-linejoin:miter;stroke-miterlimit:10;"/></g><!--link Profesor to AsistenciasCerrarSesion--><g class="link" data-entity-1="ent0001" data-entity-2="ent0009" id="lnk19" data-source-line="31" data-link-type="dependency"><path d="M64.11,423.957 C74.87,416.587 87.54,408.797 99.92,403.297 C123.78,392.687 146.351,385.756 170.911,379.796" style="stroke:#181818;stroke-width:1;" fill="none" id="Profesor-to-AsistenciasCerrarSesion"/><polygon points="175.77,378.617,166.081,376.852,170.911,379.796,167.967,384.626,175.77,378.617" fill="#181818" style="stroke:#181818;stroke-width:1;stroke-linejoin:miter;stroke-miterlimit:10;"/></g><!--link Profesor to AsistenciasExportarHistorial--><g class="link" data-entity-1="ent0001" data-entity-2="ent0010" id="lnk20" data-source-line="32" data-link-type="dependency"><path d="M48.1,406.707 C58.12,380.787 74.81,347.757 99.92,327.297 C114.55,315.377 127.642,308.332 145.712,301.992" style="stroke:#181818;stroke-width:1;" fill="none" id="Profesor-to-AsistenciasExportarHistorial"/><polygon points="150.43,300.337,140.613,299.542,145.712,301.992,143.262,307.091,150.43,300.337" fill="#181818" style="stroke:#181818;stroke-width:1;stroke-linejoin:miter;stroke-miterlimit:10;"/></g><!--link Profesor to DispensasAbrir--><g class="link" data-entity-1="ent0001" data-entity-2="ent0012" id="lnk21" data-source-line="34" data-link-type="dependency"><path d="M38.53,483.797 C44.41,559.867 61.4,725.507 99.92,765.297 C119.5,785.517 143.681,793.997 170.741,797.877" style="stroke:#181818;stroke-width:1;" fill="none" id="Profesor-to-DispensasAbrir"/><polygon points="175.69,798.587,167.349,793.35,170.741,797.877,166.213,801.269,175.69,798.587" fill="#181818" style="stroke:#181818;stroke-width:1;stroke-linejoin:miter;stroke-miterlimit:10;"/></g><!--link Profesor to DispensasConsultar--><g class="link" data-entity-1="ent0001" data-entity-2="ent0013" id="lnk22" data-source-line="35" data-link-type="dependency"><path d="M40.66,483.567 C47.47,525.127 63.52,591.527 99.92,636.297 C122.25,663.767 151.475,682.109 180.835,696.079" style="stroke:#181818;stroke-width:1;" fill="none" id="Profesor-to-DispensasConsultar"/><polygon points="185.35,698.227,178.942,690.748,180.835,696.079,175.504,697.972,185.35,698.227" fill="#181818" style="stroke:#181818;stroke-width:1;stroke-linejoin:miter;stroke-miterlimit:10;"/></g><?plantuml-src ZP9DJiCm48NtESMe-rw01L9LaDWW8IW761ot7TMnevc914ASgaVenN0QajIfWvfbtlVUU7usfCx26YK8b1RU9Tp12uUjbS25iri53S2qsokKnDOe1L_8WNoDZ1M8VaMxA9FHfd95WKO3Zmb5ZUQ0EmkBvzEnR5o0bMig7uijuBk0-3LY3Ke4LXzC3DZ92q3fqREGiklWfN6AFN-93rhnaoil96gz8PIh5wpPnaInGgUZRwTXNFpVPO-sC_KMeJY8nFvOajxWxx1SmAlTHOfZXeOAsm0SRDEKWTr4TDA6PRwbZpEMRUIp3josiezmO4ANlaMkMlepFFLyTlGF9BNraXbyj_for6FyGF-xVWcE36bJjY_i0r9_SW_zOS9oUP_ULquPhHCvVmrpJBBnEIXTw6ovowNDrhjQHufEHflNXjv_0G00?></g></svg>