<?xml version="1.0" encoding="us-ascii" standalone="no"?><svg xmlns="http://www.w3.org/2000/svg" xmlns:xlink="http://www.w3.org/1999/xlink" contentStyleType="text/css" height="708px" preserveAspectRatio="none" style="width:389px;height:708px;background:#FFFFFF;" version="1.1" viewBox="0 0 389 708" width="389px" zoomAndPan="magnify"><defs/><g><text fill="#000000" font-family="sans-serif" font-size="14" font-weight="bold" lengthAdjust="spacing" textLength="165" x="105" y="24.5332">Casos de Uso: Profesor</text><!--cluster M?dulo Alumnos --><g id="cluster_M&#243;dulo Alumnos "><polygon fill="none" points="143.5,44.6094,270.5,44.6094,277.5,68.2188,332.5,68.2188,332.5,132.6094,143.5,132.6094,143.5,44.6094" style="stroke:#000000;stroke-width:1.5;"/><line style="stroke:#000000;stroke-width:1.5;" x1="143.5" x2="277.5" y1="68.2188" y2="68.2188"/><text fill="#000000" font-family="sans-serif" font-size="14" font-weight="bold" lengthAdjust="spacing" textLength="117" x="147.5" y="61.1426">M&#243;dulo Alumnos</text></g><!--cluster M?dulo Asistencias--><g id="cluster_M&#243;dulo Asistencias"><polygon fill="none" points="104,156.6094,247,156.6094,254,180.2188,372,180.2188,372,573.6094,104,573.6094,104,156.6094" style="stroke:#000000;stroke-width:1.5;"/><line style="stroke:#000000;stroke-width:1.5;" x1="104" x2="254" y1="180.2188" y2="180.2188"/><text fill="#000000" font-family="sans-serif" font-size="14" font-weight="bold" lengthAdjust="spacing" textLength="137" x="108" y="173.1426">M&#243;dulo Asistencias</text></g><!--cluster M?dulo Dispensas--><g id="cluster_M&#243;dulo Dispensas"><polygon fill="none" points="105.5,597.6094,241.5,597.6094,248.5,621.2188,370.5,621.2188,370.5,701.6094,105.5,701.6094,105.5,597.6094" style="stroke:#000000;stroke-width:1.5;"/><line style="stroke:#000000;stroke-width:1.5;" x1="105.5" x2="248.5" y1="621.2188" y2="621.2188"/><text fill="#000000" font-family="sans-serif" font-size="14" font-weight="bold" lengthAdjust="spacing" textLength="130" x="109.5" y="614.1426">M&#243;dulo Dispensas</text></g><g id="elem_AlumnosConsultar"><ellipse cx="238.1819" cy="98.7458" fill="#F1F1F1" rx="78.6819" ry="18.1364" style="stroke:#181818;stroke-width:0.5;"/><text fill="#000000" font-family="sans-serif" font-size="14" lengthAdjust="spacing" textLength="111" x="181.0947" y="102.9177">Consultar alumno</text></g><g id="elem_AsistenciasCrearSesion"><ellipse cx="237.9659" cy="213.5025" fill="#F1F1F1" rx="89.9659" ry="20.3932" style="stroke:#181818;stroke-width:0.5;"/><text fill="#000000" font-family="sans-serif" font-size="14" lengthAdjust="spacing" textLength="138" x="168.9659" y="217.2311">Crear sesi&#243;n de clase</text></g><g id="elem_AsistenciasEditarSesion"><ellipse cx="237.8974" cy="289.5889" fill="#F1F1F1" rx="90.3974" ry="20.4795" style="stroke:#181818;stroke-width:0.5;"/><text fill="#000000" font-family="sans-serif" font-size="14" lengthAdjust="spacing" textLength="139" x="168.3974" y="293.3174">Editar sesi&#243;n de clase</text></g><g id="elem_AsistenciasRegistrarToma"><ellipse cx="238.1128" cy="369.7319" fill="#F1F1F1" rx="108.6128" ry="24.1226" style="stroke:#181818;stroke-width:0.5;"/><text fill="#000000" font-family="sans-serif" font-size="14" lengthAdjust="spacing" textLength="180" x="148.1128" y="373.4605">Registrar toma de asistencia</text></g><g id="elem_AsistenciasCerrarSesion"><ellipse cx="238.1309" cy="449.4356" fill="#F1F1F1" rx="92.1309" ry="20.8262" style="stroke:#181818;stroke-width:0.5;"/><text fill="#000000" font-family="sans-serif" font-size="14" lengthAdjust="spacing" textLength="143" x="166.6309" y="453.1641">Cerrar sesi&#243;n de clase</text></g><g id="elem_AsistenciasExportarHistorial"><ellipse cx="237.7783" cy="531.565" fill="#F1F1F1" rx="117.7783" ry="25.9557" style="stroke:#181818;stroke-width:0.5;"/><text fill="#000000" font-family="sans-serif" font-size="14" lengthAdjust="spacing" textLength="200" x="137.7783" y="535.2936">Exportar historial de asistencias</text></g><g id="elem_DispensasConsultar"><ellipse cx="237.8945" cy="659.7883" fill="#F1F1F1" rx="116.3945" ry="25.6789" style="stroke:#181818;stroke-width:0.5;"/><text fill="#000000" font-family="sans-serif" font-size="14" lengthAdjust="spacing" textLength="197" x="139.3945" y="663.5168">Consultar solicitud de dispensa</text></g><!--entity Profesor--><g id="elem_Profesor"><ellipse cx="33" cy="339.1094" fill="#F1F1F1" rx="8" ry="8" style="stroke:#181818;stroke-width:0.5;"/><path d="M33,347.1094 L33,374.1094 M20,355.1094 L46,355.1094 M33,374.1094 L20,389.1094 M33,374.1094 L46,389.1094 " fill="none" style="stroke:#181818;stroke-width:0.5;"/><text fill="#000000" font-family="sans-serif" font-size="14" lengthAdjust="spacing" textLength="54" x="6" y="405.1426">Profesor</text></g><!--link Profesor to AlumnosConsultar--><g id="link_Profesor_AlumnosConsultar"><path d="M38.01,330.4094 C44.12,288.2694 59.23,221.3294 96,176.6094 C120.96,146.2494 155.4244,127.9359 186.4644,115.5959 " fill="none" id="Profesor-to-AlumnosConsultar" style="stroke:#181818;stroke-width:1.0;"/><polygon fill="#181818" points="192.04,113.3794,182.199,112.9872,187.3937,115.2265,185.1544,120.4213,192.04,113.3794" style="stroke:#181818;stroke-width:1.0;"/></g><!--link Profesor to AsistenciasCrearSesion--><g id="link_Profesor_AsistenciasCrearSesion"><path d="M45.38,330.5094 C54.89,304.5394 70.98,271.6394 96,251.6094 C113.61,237.5094 130.2097,230.1161 151.9497,224.5161 " fill="none" id="Profesor-to-AsistenciasCrearSesion" style="stroke:#181818;stroke-width:1.0;"/><polygon fill="#181818" points="157.76,223.0194,148.0467,221.3908,152.9181,224.2666,150.0423,229.138,157.76,223.0194" style="stroke:#181818;stroke-width:1.0;"/></g><!--link Profesor to AsistenciasEditarSesion--><g id="link_Profesor_AsistenciasEditarSesion"><path d="M60.01,349.1594 C70.69,341.5294 83.47,333.3494 96,327.6094 C119.05,317.0594 139.7896,310.4063 163.5996,304.4463 " fill="none" id="Profesor-to-AsistenciasEditarSesion" style="stroke:#181818;stroke-width:1.0;"/><polygon fill="#181818" points="169.42,302.9894,159.7181,301.2945,164.5696,304.2035,161.6607,309.0551,169.42,302.9894" style="stroke:#181818;stroke-width:1.0;"/></g><!--link Profesor to AsistenciasRegistrarToma--><g id="link_Profesor_AsistenciasRegistrarToma"><path d="M60.12,369.6094 C78.11,369.6094 97.34,369.6094 123.12,369.6094 " fill="none" id="Profesor-to-AsistenciasRegistrarToma" style="stroke:#181818;stroke-width:1.0;"/><polygon fill="#181818" points="129.12,369.6094,120.12,365.6094,124.12,369.6094,120.12,373.6094,129.12,369.6094" style="stroke:#181818;stroke-width:1.0;"/></g><!--link Profesor to AsistenciasCerrarSesion--><g id="link_Profesor_AsistenciasCerrarSesion"><path d="M60.09,389.5094 C70.78,396.9394 83.55,404.9394 96,410.6094 C119.12,421.1294 139.8808,427.8783 163.6808,434.0283 " fill="none" id="Profesor-to-AsistenciasCerrarSesion" style="stroke:#181818;stroke-width:1.0;"/><polygon fill="#181818" points="169.49,435.5294,161.777,429.4049,164.649,434.2784,159.7755,437.1505,169.49,435.5294" style="stroke:#181818;stroke-width:1.0;"/></g><!--link Profesor to AsistenciasExportarHistorial--><g id="link_Profesor_AsistenciasExportarHistorial"><path d="M45.74,408.6794 C55.37,434.4694 71.47,467.1694 96,487.6094 C110.58,499.7594 122.8492,506.5705 140.9792,512.9405 " fill="none" id="Profesor-to-AsistenciasExportarHistorial" style="stroke:#181818;stroke-width:1.0;"/><polygon fill="#181818" points="146.64,514.9294,139.4748,508.1722,141.9227,513.2719,136.8229,515.7198,146.64,514.9294" style="stroke:#181818;stroke-width:1.0;"/></g><!--link Profesor to DispensasConsultar--><g id="link_Profesor_DispensasConsultar"><path d="M37.54,408.7194 C43.29,452.8194 58.14,524.7394 96,573.6094 C117.86,601.8294 146.4214,620.3006 175.5214,634.5506 " fill="none" id="Profesor-to-DispensasConsultar" style="stroke:#181818;stroke-width:1.0;"/><polygon fill="#181818" points="180.91,637.1894,174.5863,629.6389,176.4195,634.9904,171.0679,636.8237,180.91,637.1894" style="stroke:#181818;stroke-width:1.0;"/></g><!--SRC=[ZP91QiD034NtSmgHVIxGHQ6aXMuAfKqE8COJHsGyCf8CBQMdoX5oiOwTnAbZ6-Abv_sl-Vgp9ei1LgYiK0JOA3_0k_0sA8kBOMjW34Bbpg0W2Tw8azCzfHe5Ar3xpd8r8MzD5Pr3RonN1rUZtsCPOF5sF1HDP7YAJPNoi0NyECXVey6ZPc35IPjeA80TiW3K2zsVkTyfIoMra3oXZbqbP4SDIiT3QXFwcF-VlA-oZlhCK0utaByKP7VeJzYKmKSeCoNPmxZ2rW1xsQrBpwupUXCZYDoJeyCcWtpLB6sKNOPP2EFmBZgAT1QyNlZ9rJ-JrY7frEBxEfKZURAcQ2SMPq4thbSF-hqy7bWk7ySFuEPukiCvPj3J73IiONRS_rNFpXijSOYE5_07]--></g></svg>