<svg xmlns="http://www.w3.org/2000/svg" xmlns:xlink="http://www.w3.org/1999/xlink" version="1.1" data-diagram-type="DESCRIPTION" style="width:495px;height:786px;background:#FFFFFF;" width="495px" height="786px" viewBox="0 0 495 786" zoomAndPan="magnify" preserveAspectRatio="none" contentStyleType="text/css"><?plantuml 1.2026.7beta3?><defs/><g><g class="title" data-source-line="1"><text x="100.8533" y="22.9951" fill="#000000" font-size="14" lengthAdjust="spacing" textLength="286.7334" font-weight="700" font-family="sans-serif">Casos de Uso: Secretaría Académica</text></g><!--cluster Módulo Alumnos--><g class="cluster" data-qualified-name="M.dulo Alumnos" id="ent0002" data-source-line="7"><polygon points="241.14,43.2969,378.0755,43.2969,385.0755,65.5938,428.32,65.5938,428.32,201.2969,241.14,201.2969,241.14,43.2969" fill="none" style="stroke:#000000;stroke-width:1.5;stroke-linejoin:miter;stroke-miterlimit:10;"/><line x1="241.14" y1="65.5938" x2="385.0755" y2="65.5938" style="stroke:#000000;stroke-width:1.5;"/><text x="245.14" y="58.292" fill="#000000" font-size="14" lengthAdjust="spacing" textLength="130.9355" font-weight="700" font-family="sans-serif">Módulo Alumnos</text></g><!--cluster Módulo Matrículas--><g class="cluster" data-qualified-name="M.dulo Matr.culas" id="ent0005" data-source-line="12"><polygon points="202.03,225.2969,353.4782,225.2969,360.4782,247.5938,467.43,247.5938,467.43,478.2969,202.03,478.2969,202.03,225.2969" fill="none" style="stroke:#000000;stroke-width:1.5;stroke-linejoin:miter;stroke-miterlimit:10;"/><line x1="202.03" y1="247.5938" x2="360.4782" y2="247.5938" style="stroke:#000000;stroke-width:1.5;"/><text x="206.03" y="240.292" fill="#000000" font-size="14" lengthAdjust="spacing" textLength="145.4482" font-weight="700" font-family="sans-serif">Módulo Matrículas</text></g><!--cluster Módulo Dispensas--><g class="cluster" data-qualified-name="M.dulo Dispensas" id="ent0009" data-source-line="18"><polygon points="199.02,502.2969,348.1987,502.2969,355.1987,524.5938,470.44,524.5938,470.44,771.2969,199.02,771.2969,199.02,502.2969" fill="none" style="stroke:#000000;stroke-width:1.5;stroke-linejoin:miter;stroke-miterlimit:10;"/><line x1="199.02" y1="524.5938" x2="355.1987" y2="524.5938" style="stroke:#000000;stroke-width:1.5;"/><text x="203.02" y="517.292" fill="#000000" font-size="14" lengthAdjust="spacing" textLength="143.1787" font-weight="700" font-family="sans-serif">Módulo Dispensas</text></g><!--entity AlumnosImportar--><g class="entity" data-qualified-name="M.dulo Alumnos.AlumnosImportar" id="ent0003" data-source-line="8"><ellipse cx="334.7304" cy="167.295" rx="77.5904" ry="17.9181" fill="#F1F1F1" style="stroke:#181818;stroke-width:0.5;"/><text x="272.25" y="171.9434" fill="#000000" font-size="14" lengthAdjust="spacing" textLength="124.9609" font-family="sans-serif">Importar alumnos</text></g><!--entity AlumnosConsultar--><g class="entity" data-qualified-name="M.dulo Alumnos.AlumnosConsultar" id="ent0004" data-source-line="9"><ellipse cx="334.7329" cy="96.3015" rx="77.1729" ry="17.8346" fill="#F1F1F1" style="stroke:#181818;stroke-width:0.5;"/><text x="272.7515" y="100.9499" fill="#000000" font-size="14" lengthAdjust="spacing" textLength="123.9629" font-family="sans-serif">Consultar alumno</text></g><!--entity MatriculasImportar--><g class="entity" data-qualified-name="M.dulo Matr.culas.MatriculasImportar" id="ent0006" data-source-line="13"><ellipse cx="334.733" cy="443.2935" rx="83.533" ry="19.1066" fill="#F1F1F1" style="stroke:#181818;stroke-width:0.5;"/><text x="265.2662" y="447.9419" fill="#000000" font-size="14" lengthAdjust="spacing" textLength="138.9336" font-family="sans-serif">Importar matrículas</text></g><!--entity MatriculasVerDetalle--><g class="entity" data-qualified-name="M.dulo Matr.culas.MatriculasVerDetalle" id="ent0007" data-source-line="14"><ellipse cx="334.7288" cy="363.2966" rx="116.6988" ry="25.7398" fill="#F1F1F1" style="stroke:#181818;stroke-width:0.5;"/><text x="228.5804" y="367.9451" fill="#000000" font-size="14" lengthAdjust="spacing" textLength="212.2969" font-family="sans-serif">Consultar detalle de matrícula</text></g><!--entity MatriculasCerrarCiclo--><g class="entity" data-qualified-name="M.dulo Matr.culas.MatriculasCerrarCiclo" id="ent0008" data-source-line="15"><ellipse cx="334.7321" cy="281.2933" rx="93.2321" ry="21.0464" fill="#F1F1F1" style="stroke:#181818;stroke-width:0.5;"/><text x="254.2218" y="285.9417" fill="#000000" font-size="14" lengthAdjust="spacing" textLength="161.0205" font-family="sans-serif">Cerrar ciclo académico</text></g><!--entity DispensasCrear--><g class="entity" data-qualified-name="M.dulo Dispensas.DispensasCrear" id="ent0010" data-source-line="19"><ellipse cx="334.7336" cy="731.3016" rx="106.4236" ry="23.6847" fill="#F1F1F1" style="stroke:#181818;stroke-width:0.5;"/><text x="239.673" y="735.95" fill="#000000" font-size="14" lengthAdjust="spacing" textLength="190.1211" font-family="sans-serif">Crear solicitud de dispensa</text></g><!--entity DispensasConsultar--><g class="entity" data-qualified-name="M.dulo Dispensas.DispensasConsultar" id="ent0011" data-source-line="20"><ellipse cx="334.7304" cy="646.299" rx="119.7104" ry="26.3421" fill="#F1F1F1" style="stroke:#181818;stroke-width:0.5;"/><text x="225.3623" y="650.9474" fill="#000000" font-size="14" lengthAdjust="spacing" textLength="218.7363" font-family="sans-serif">Consultar solicitud de dispensa</text></g><!--entity DispensasEditar--><g class="entity" data-qualified-name="M.dulo Dispensas.DispensasEditar" id="ent0012" data-source-line="21"><ellipse cx="334.7286" cy="561.2946" rx="107.7886" ry="23.9577" fill="#F1F1F1" style="stroke:#181818;stroke-width:0.5;"/><text x="238.1847" y="565.943" fill="#000000" font-size="14" lengthAdjust="spacing" textLength="193.0879" font-family="sans-serif">Editar solicitud de dispensa</text></g><!--entity SecretariaAcademica--><g class="entity" data-qualified-name="SecretariaAcademica" id="ent0001" data-source-line="5"><ellipse cx="80.5083" cy="373.6469" rx="8" ry="8" fill="#F1F1F1" style="stroke:#181818;stroke-width:0.5;"/><path d="M80.5083,381.6469 L80.5083,408.6469 M67.5083,389.6469 L93.5083,389.6469 M80.5083,408.6469 L67.5083,423.6469 M80.5083,408.6469 L93.5083,423.6469" style="stroke:#181818;stroke-width:0.5;" fill="none"/><text x="6" y="438.142" fill="#000000" font-size="14" lengthAdjust="spacing" textLength="149.0166" font-family="sans-serif">SecretariaAcademica</text></g><!--link SecretariaAcademica to AlumnosImportar--><g class="link" data-entity-1="ent0001" data-entity-2="ent0003" id="lnk13" data-source-line="24" data-link-type="dependency"><path d="M101.14,364.7769 C120.36,329.9569 152.35,278.9869 191.02,244.2969 C221.4,217.0369 258.5594,197.9383 289.0494,184.7783" style="stroke:#181818;stroke-width:1;" fill="none" id="SecretariaAcademica-to-AlumnosImportar"/><polygon points="293.64,182.7969,283.7917,182.6909,289.0494,184.7783,286.962,190.0359,293.64,182.7969" fill="#181818" style="stroke:#181818;stroke-width:1;stroke-linejoin:miter;stroke-miterlimit:10;"/></g><!--link SecretariaAcademica to AlumnosConsultar--><g class="link" data-entity-1="ent0001" data-entity-2="ent0004" id="lnk14" data-source-line="25" data-link-type="dependency"><path d="M85.99,365.1269 C94.99,306.1869 120.82,193.4769 191.02,132.2969 C210.18,115.5869 231.1101,107.4325 255.5201,102.4725" style="stroke:#181818;stroke-width:1;" fill="none" id="SecretariaAcademica-to-AlumnosConsultar"/><polygon points="260.42,101.4769,250.8037,99.3491,255.5201,102.4725,252.3967,107.1889,260.42,101.4769" fill="#181818" style="stroke:#181818;stroke-width:1;stroke-linejoin:miter;stroke-miterlimit:10;"/></g><!--link SecretariaAcademica to MatriculasImportar--><g class="link" data-entity-1="ent0001" data-entity-2="ent0006" id="lnk15" data-source-line="27" data-link-type="dependency"><path d="M155.48,415.0269 C190.07,420.5169 226.0817,426.2236 260.0017,431.6036" style="stroke:#181818;stroke-width:1;" fill="none" id="SecretariaAcademica-to-MatriculasImportar"/><polygon points="264.94,432.3869,256.6777,427.0264,260.0017,431.6036,255.4245,434.9276,264.94,432.3869" fill="#181818" style="stroke:#181818;stroke-width:1;stroke-linejoin:miter;stroke-miterlimit:10;"/></g><!--link SecretariaAcademica to MatriculasVerDetalle--><g class="link" data-entity-1="ent0001" data-entity-2="ent0007" id="lnk16" data-source-line="28" data-link-type="dependency"><path d="M155.48,391.5669 C181.64,387.4169 206.5016,383.4694 234.1416,379.0894" style="stroke:#181818;stroke-width:1;" fill="none" id="SecretariaAcademica-to-MatriculasVerDetalle"/><polygon points="239.08,378.3069,229.5649,375.7648,234.1416,379.0894,230.817,383.6662,239.08,378.3069" fill="#181818" style="stroke:#181818;stroke-width:1;stroke-linejoin:miter;stroke-miterlimit:10;"/></g><!--link SecretariaAcademica to MatriculasCerrarCiclo--><g class="link" data-entity-1="ent0001" data-entity-2="ent0008" id="lnk17" data-source-line="29" data-link-type="dependency"><path d="M124.24,364.8369 C143.52,349.1569 167.26,331.9969 191.02,320.2969 C213.37,309.2869 234.4258,302.2652 257.9758,296.2452" style="stroke:#181818;stroke-width:1;" fill="none" id="SecretariaAcademica-to-MatriculasCerrarCiclo"/><polygon points="262.82,295.0069,253.1097,293.3605,257.9758,296.2452,255.091,301.1112,262.82,295.0069" fill="#181818" style="stroke:#181818;stroke-width:1;stroke-linejoin:miter;stroke-miterlimit:10;"/></g><!--link SecretariaAcademica to DispensasCrear--><g class="link" data-entity-1="ent0001" data-entity-2="ent0010" id="lnk18" data-source-line="31" data-link-type="dependency"><path d="M85.34,441.8769 C93.53,503.3969 118.36,623.5469 191.02,690.2969 C205.63,703.7269 219.6082,711.2621 238.6582,717.3621" style="stroke:#181818;stroke-width:1;" fill="none" id="SecretariaAcademica-to-DispensasCrear"/><polygon points="243.42,718.8869,236.0685,712.3328,238.6582,717.3621,233.6289,719.9517,243.42,718.8869" fill="#181818" style="stroke:#181818;stroke-width:1;stroke-linejoin:miter;stroke-miterlimit:10;"/></g><!--link SecretariaAcademica to DispensasConsultar--><g class="link" data-entity-1="ent0001" data-entity-2="ent0011" id="lnk19" data-source-line="32" data-link-type="dependency"><path d="M92.81,441.6469 C107.98,486.5369 139.19,560.0869 191.02,602.2969 C205.69,614.2469 218.8816,621.3025 236.9916,627.6525" style="stroke:#181818;stroke-width:1;" fill="none" id="SecretariaAcademica-to-DispensasConsultar"/><polygon points="241.71,629.3069,234.5405,622.5542,236.9916,627.6525,231.8934,630.1036,241.71,629.3069" fill="#181818" style="stroke:#181818;stroke-width:1;stroke-linejoin:miter;stroke-miterlimit:10;"/></g><!--link SecretariaAcademica to DispensasEditar--><g class="link" data-entity-1="ent0001" data-entity-2="ent0012" id="lnk20" data-source-line="33" data-link-type="dependency"><path d="M136.13,441.8669 C153.5,453.8169 172.9,466.8469 191.02,478.2969 C224.94,499.7369 260.0856,520.0895 288.9156,536.3595" style="stroke:#181818;stroke-width:1;" fill="none" id="SecretariaAcademica-to-DispensasEditar"/><polygon points="293.27,538.8169,287.3979,530.91,288.9156,536.3595,283.4661,537.8771,293.27,538.8169" fill="#181818" style="stroke:#181818;stroke-width:1;stroke-linejoin:miter;stroke-miterlimit:10;"/></g><?plantuml-src ZP8xRiCm44HxdcBXtXT84S2GKwHmbK-_83VEmgGeSCaY27AW5Abo15qib1HzhCYHrH5yCvhPvID7Ir2WU053y2J-1Xv81ueOwY-4dKPJVphMg2ozH8WU0XzV8nWEf2FxKic9ome3Ef3ubiqa1jOnEQiKwkZ3uCVOk55hfYhK9pmIR0xrjqdMmyucLthPmBk2_2KXZPBlxrtbGrO3zW1A3_Ttvuh2bvBiA9agXZlriP3XW36tridYFpdS5ChEZOZRureSawTWyuJoe4UJcSSpXNs7pLmeX6oXMUUSs6_5pzGTLJJGOi4zIqMbBDGh0cLxyPOrnsIQZEONRlynA5lmKiDhzCC6pZpk35zfq95DlOM71TljxP_NiSADYIwI2pjUHoUhN8Udcxk8pvQmZWtDLj5kgZy0?></g></svg>