<?xml version="1.0" encoding="us-ascii" standalone="no"?><svg xmlns="http://www.w3.org/2000/svg" xmlns:xlink="http://www.w3.org/1999/xlink" contentStyleType="text/css" height="778px" preserveAspectRatio="none" style="width:466px;height:778px;background:#FFFFFF;" version="1.1" viewBox="0 0 466 778" width="466px" zoomAndPan="magnify"><defs/><g><text fill="#000000" font-family="sans-serif" font-size="14" font-weight="bold" lengthAdjust="spacing" textLength="255" x="98.5" y="24.5332">Casos de Uso: Secretar&#237;a Acad&#233;mica</text><!--cluster M?dulo Alumnos--><g id="cluster_M&#243;dulo Alumnos"><polygon fill="none" points="222,44.6094,345,44.6094,352,68.2188,411,68.2188,411,203.6094,222,203.6094,222,44.6094" style="stroke:#000000;stroke-width:1.5;"/><line style="stroke:#000000;stroke-width:1.5;" x1="222" x2="352" y1="68.2188" y2="68.2188"/><text fill="#000000" font-family="sans-serif" font-size="14" font-weight="bold" lengthAdjust="spacing" textLength="117" x="226" y="61.1426">M&#243;dulo Alumnos</text></g><!--cluster M?dulo Matr?culas--><g id="cluster_M&#243;dulo Matr&#237;culas"><polygon fill="none" points="188,227.6094,324,227.6094,331,251.2188,445,251.2188,445,479.6094,188,479.6094,188,227.6094" style="stroke:#000000;stroke-width:1.5;"/><line style="stroke:#000000;stroke-width:1.5;" x1="188" x2="331" y1="251.2188" y2="251.2188"/><text fill="#000000" font-family="sans-serif" font-size="14" font-weight="bold" lengthAdjust="spacing" textLength="130" x="192" y="244.1426">M&#243;dulo Matr&#237;culas</text></g><!--cluster M?dulo Dispensas--><g id="cluster_M&#243;dulo Dispensas"><polygon fill="none" points="184,503.6094,320,503.6094,327,527.2188,449,527.2188,449,771.6094,184,771.6094,184,503.6094" style="stroke:#000000;stroke-width:1.5;"/><line style="stroke:#000000;stroke-width:1.5;" x1="184" x2="327" y1="527.2188" y2="527.2188"/><text fill="#000000" font-family="sans-serif" font-size="14" font-weight="bold" lengthAdjust="spacing" textLength="130" x="188" y="520.1426">M&#243;dulo Dispensas</text></g><g id="elem_AlumnosImportar"><ellipse cx="316.396" cy="98.5886" fill="#F1F1F1" rx="77.896" ry="17.9792" style="stroke:#181818;stroke-width:0.5;"/><text fill="#000000" font-family="sans-serif" font-size="14" lengthAdjust="spacing" textLength="109" x="259.9355" y="102.856">Importar alumnos</text></g><g id="elem_AlumnosConsultar"><ellipse cx="316.6819" cy="169.7458" fill="#F1F1F1" rx="78.6819" ry="18.1364" style="stroke:#181818;stroke-width:0.5;"/><text fill="#000000" font-family="sans-serif" font-size="14" lengthAdjust="spacing" textLength="111" x="259.5947" y="173.9177">Consultar alumno</text></g><g id="elem_MatriculasImportar"><ellipse cx="316.3351" cy="282.4764" fill="#F1F1F1" rx="82.3351" ry="18.867" style="stroke:#181818;stroke-width:0.5;"/><text fill="#000000" font-family="sans-serif" font-size="14" lengthAdjust="spacing" textLength="120" x="256.3351" y="286.2049">Importar matr&#237;culas</text></g><g id="elem_MatriculasVerDetalle"><ellipse cx="316.2614" cy="361.4617" fill="#F1F1F1" rx="112.2614" ry="24.8523" style="stroke:#181818;stroke-width:0.5;"/><text fill="#000000" font-family="sans-serif" font-size="14" lengthAdjust="spacing" textLength="188" x="222.2614" y="365.1902">Consultar detalle de matr&#237;cula</text></g><g id="elem_MatriculasCerrarCiclo"><ellipse cx="316.5017" cy="442.6097" fill="#F1F1F1" rx="93.0017" ry="21.0003" style="stroke:#181818;stroke-width:0.5;"/><text fill="#000000" font-family="sans-serif" font-size="14" lengthAdjust="spacing" textLength="145" x="244.0017" y="446.3382">Cerrar ciclo acad&#233;mico</text></g><g id="elem_DispensasCrear"><ellipse cx="316.4905" cy="563.5075" fill="#F1F1F1" rx="104.9905" ry="23.3981" style="stroke:#181818;stroke-width:0.5;"/><text fill="#000000" font-family="sans-serif" font-size="14" lengthAdjust="spacing" textLength="172" x="230.4905" y="567.236">Crear solicitud de dispensa</text></g><g id="elem_DispensasConsultar"><ellipse cx="316.3945" cy="647.7883" fill="#F1F1F1" rx="116.3945" ry="25.6789" style="stroke:#181818;stroke-width:0.5;"/><text fill="#000000" font-family="sans-serif" font-size="14" lengthAdjust="spacing" textLength="197" x="217.8945" y="651.5168">Consultar solicitud de dispensa</text></g><g id="elem_DispensasEditar"><ellipse cx="316.4418" cy="731.5977" fill="#F1F1F1" rx="105.4418" ry="23.4884" style="stroke:#181818;stroke-width:0.5;"/><text fill="#000000" font-family="sans-serif" font-size="14" lengthAdjust="spacing" textLength="173" x="229.9418" y="735.3262">Editar solicitud de dispensa</text></g><!--entity SecretariaAcademica--><g id="elem_SecretariaAcademica"><ellipse cx="73" cy="372.1094" fill="#F1F1F1" rx="8" ry="8" style="stroke:#181818;stroke-width:0.5;"/><path d="M73,380.1094 L73,407.1094 M60,388.1094 L86,388.1094 M73,407.1094 L60,422.1094 M73,407.1094 L86,422.1094 " fill="none" style="stroke:#181818;stroke-width:0.5;"/><text fill="#000000" font-family="sans-serif" font-size="14" lengthAdjust="spacing" textLength="134" x="6" y="438.1426">SecretariaAcademica</text></g><!--link SecretariaAcademica to AlumnosImportar--><g id="link_SecretariaAcademica_AlumnosImportar"><path d="M77.62,363.3194 C85.18,304.4994 108.09,194.0294 176,133.6094 C194,117.5894 212.3786,109.9148 235.6186,105.0248 " fill="none" id="SecretariaAcademica-to-AlumnosImportar" style="stroke:#181818;stroke-width:1.0;"/><polygon fill="#181818" points="241.49,103.7894,231.8592,101.7282,236.5971,104.8189,233.5065,109.5568,241.49,103.7894" style="stroke:#181818;stroke-width:1.0;"/></g><!--link SecretariaAcademica to AlumnosConsultar--><g id="link_SecretariaAcademica_AlumnosConsultar"><path d="M92.9,363.4994 C110.72,329.6694 140.03,281.0694 176,247.6094 C205.66,220.0194 241.3824,200.9781 271.3124,187.5981 " fill="none" id="SecretariaAcademica-to-AlumnosConsultar" style="stroke:#181818;stroke-width:1.0;"/><polygon fill="#181818" points="276.79,185.1494,266.9412,185.1707,272.2254,187.19,270.2061,192.4742,276.79,185.1494" style="stroke:#181818;stroke-width:1.0;"/></g><!--link SecretariaAcademica to MatriculasImportar--><g id="link_SecretariaAcademica_MatriculasImportar"><path d="M113.26,363.4094 C131.12,347.4894 153.31,330.1594 176,318.6094 C198.51,307.1494 219.1347,300.4832 242.9247,294.9732 " fill="none" id="SecretariaAcademica-to-MatriculasImportar" style="stroke:#181818;stroke-width:1.0;"/><polygon fill="#181818" points="248.77,293.6194,239.0995,291.7533,243.8989,294.7476,240.9046,299.547,248.77,293.6194" style="stroke:#181818;stroke-width:1.0;"/></g><!--link SecretariaAcademica to MatriculasVerDetalle--><g id="link_SecretariaAcademica_MatriculasVerDetalle"><path d="M140.31,391.3494 C166.98,386.8194 192.2149,382.5452 220.7949,377.6852 " fill="none" id="SecretariaAcademica-to-MatriculasVerDetalle" style="stroke:#181818;stroke-width:1.0;"/><polygon fill="#181818" points="226.71,376.6794,217.1668,374.2448,221.7808,377.5176,218.5079,382.1315,226.71,376.6794" style="stroke:#181818;stroke-width:1.0;"/></g><!--link SecretariaAcademica to MatriculasCerrarCiclo--><g id="link_SecretariaAcademica_MatriculasCerrarCiclo"><path d="M140.31,413.5894 C171.45,418.7494 202.7806,423.939 234.9006,429.259 " fill="none" id="SecretariaAcademica-to-MatriculasCerrarCiclo" style="stroke:#181818;stroke-width:1.0;"/><polygon fill="#181818" points="240.82,430.2394,232.5946,424.8225,235.8872,429.4224,231.2874,432.715,240.82,430.2394" style="stroke:#181818;stroke-width:1.0;"/></g><!--link SecretariaAcademica to DispensasCrear--><g id="link_SecretariaAcademica_DispensasCrear"><path d="M123.56,441.6594 C139.99,454.1594 158.54,467.8094 176,479.6094 C209.14,502.0094 243.0728,522.3113 271.4328,538.6713 " fill="none" id="SecretariaAcademica-to-DispensasCrear" style="stroke:#181818;stroke-width:1.0;"/><polygon fill="#181818" points="276.63,541.6694,270.8329,533.7074,272.299,539.1709,266.8354,540.637,276.63,541.6694" style="stroke:#181818;stroke-width:1.0;"/></g><!--link SecretariaAcademica to DispensasConsultar--><g id="link_SecretariaAcademica_DispensasConsultar"><path d="M83.76,441.8994 C97.06,487.4694 125.27,561.7794 176,604.6094 C190.23,616.6294 202.1275,623.3054 219.9375,629.5454 " fill="none" id="SecretariaAcademica-to-DispensasConsultar" style="stroke:#181818;stroke-width:1.0;"/><polygon fill="#181818" points="225.6,631.5294,218.4289,624.7785,220.8812,629.8761,215.7836,632.3285,225.6,631.5294" style="stroke:#181818;stroke-width:1.0;"/></g><!--link SecretariaAcademica to DispensasEditar--><g id="link_SecretariaAcademica_DispensasEditar"><path d="M76.8,441.7094 C83.33,503.4294 104.94,623.3194 176,690.6094 C190.11,703.9694 202.6585,711.1405 221.2685,717.2405 " fill="none" id="SecretariaAcademica-to-DispensasEditar" style="stroke:#181818;stroke-width:1.0;"/><polygon fill="#181818" points="226.97,719.1094,219.6636,712.5051,222.2187,717.552,217.1718,720.1071,226.97,719.1094" style="stroke:#181818;stroke-width:1.0;"/></g><!--SRC=[ZP8xRiCm44HxdcBXtXT84S2GKwHmbK-_83VEmgGeSCaY27AW5Abo15qib1HzhCYHrH5yCvhPvID7Ir2WU053y2J-1Xv81ueOwY-4dKPJVphMg2ozH8WU0XzV8nWEf2FxKic9ome3Ef3ubiqa1jOnEQiKwkZ3uCVOk55hfYhK9pmIR0xrjqdMmyucLthPmBk2_2KXZPBlxrtbGrO3zW1A3_Ttvuh2bvBiA9agXZlriP3XW36tridYFpdS5ChEZOZRureSawTWyuJoe4UJcSSpXNs7pLmeX6oXMUUSs6_5pzGTLJJGOi4zIqMbBDGh0cLxyPOrnsIQZEONRlynA5lmKiDhzCC6pZpk35zfq95DlOM71TljxP_NiSADYIwI2pjUHoUhN8Udcxk8pvQmZWtDLj5kgZy0]--></g></svg>