<svg xmlns="http://www.w3.org/2000/svg" xmlns:xlink="http://www.w3.org/1999/xlink" version="1.1" data-diagram-type="DESCRIPTION" style="width:495px;height:990px;background:#FFFFFF;" width="495px" height="990px" viewBox="0 0 495 990" zoomAndPan="magnify" preserveAspectRatio="none" contentStyleType="text/css"><?plantuml 1.2026.7beta8?><defs/><g font-family="sans-serif" lengthAdjust="spacing"><g class="title" data-source-line="1"><text x="100.853" y="22.995" fill="#000" font-size="14" textLength="286.733" font-weight="700">Casos de Uso: Secretaría Académica</text></g><!--cluster Módulo Alumnos--><g class="cluster" data-qualified-name="M.dulo Alumnos" id="ent0002" data-source-line="7"><polygon points="241.14,43.297,378.076,43.297,385.076,65.594,428.32,65.594,428.32,268.297,241.14,268.297,241.14,43.297" fill="none" style="stroke:#000;stroke-width:1.5;stroke-linejoin:miter;stroke-miterlimit:10;"/><line x1="241.14" y1="65.594" x2="385.076" y2="65.594" style="stroke:#000;stroke-width:1.5;"/><text x="245.14" y="58.292" fill="#000" font-size="14" textLength="130.936" font-weight="700">Módulo Alumnos</text></g><!--cluster Módulo Matrículas--><g class="cluster" data-qualified-name="M.dulo Matr.culas" id="ent0006" data-source-line="13"><polygon points="202.03,292.297,353.478,292.297,360.478,314.594,467.43,314.594,467.43,614.297,202.03,614.297,202.03,292.297" fill="none" style="stroke:#000;stroke-width:1.5;stroke-linejoin:miter;stroke-miterlimit:10;"/><line x1="202.03" y1="314.594" x2="360.478" y2="314.594" style="stroke:#000;stroke-width:1.5;"/><text x="206.03" y="307.292" fill="#000" font-size="14" textLength="145.448" font-weight="700">Módulo Matrículas</text></g><!--cluster Módulo Dispensas--><g class="cluster" data-qualified-name="M.dulo Dispensas" id="ent0011" data-source-line="20"><polygon points="199.02,638.297,348.199,638.297,355.199,660.594,470.44,660.594,470.44,975.297,199.02,975.297,199.02,638.297" fill="none" style="stroke:#000;stroke-width:1.5;stroke-linejoin:miter;stroke-miterlimit:10;"/><line x1="199.02" y1="660.594" x2="355.199" y2="660.594" style="stroke:#000;stroke-width:1.5;"/><text x="203.02" y="653.292" fill="#000" font-size="14" textLength="143.179" font-weight="700">Módulo Dispensas</text></g><!--entity AlumnosAbrir--><g class="entity" data-qualified-name="M.dulo Alumnos.AlumnosAbrir" id="ent0003" data-source-line="8"><ellipse cx="334.726" cy="236.294" rx="66.736" ry="15.747" fill="#F1F1F1" style="stroke:#181818;stroke-width:0.5;"/><text x="285.712" y="240.942" fill="#000" font-size="14" textLength="98.027">Abrir alumnos</text></g><!--entity AlumnosImportar--><g class="entity" data-qualified-name="M.dulo Alumnos.AlumnosImportar" id="ent0004" data-source-line="9"><ellipse cx="334.73" cy="167.295" rx="77.59" ry="17.918" fill="#F1F1F1" style="stroke:#181818;stroke-width:0.5;"/><text x="272.25" y="171.943" fill="#000" font-size="14" textLength="124.961">Importar alumnos</text></g><!--entity AlumnosConsultar--><g class="entity" data-qualified-name="M.dulo Alumnos.AlumnosConsultar" id="ent0005" data-source-line="10"><ellipse cx="334.733" cy="96.301" rx="77.173" ry="17.835" fill="#F1F1F1" style="stroke:#181818;stroke-width:0.5;"/><text x="272.751" y="100.95" fill="#000" font-size="14" textLength="123.963">Consultar alumno</text></g><!--entity MatriculasAbrir--><g class="entity" data-qualified-name="M.dulo Matr.culas.MatriculasAbrir" id="ent0007" data-source-line="14"><ellipse cx="334.733" cy="581.297" rx="72.253" ry="16.851" fill="#F1F1F1" style="stroke:#181818;stroke-width:0.5;"/><text x="278.733" y="585.946" fill="#000" font-size="14" textLength="112">Abrir matrículas</text></g><!--entity MatriculasImportar--><g class="entity" data-qualified-name="M.dulo Matr.culas.MatriculasImportar" id="ent0008" data-source-line="15"><ellipse cx="334.733" cy="510.293" rx="83.533" ry="19.107" fill="#F1F1F1" style="stroke:#181818;stroke-width:0.5;"/><text x="265.266" y="514.942" fill="#000" font-size="14" textLength="138.934">Importar matrículas</text></g><!--entity MatriculasVerDetalle--><g class="entity" data-qualified-name="M.dulo Matr.culas.MatriculasVerDetalle" id="ent0009" data-source-line="16"><ellipse cx="334.729" cy="430.297" rx="116.699" ry="25.74" fill="#F1F1F1" style="stroke:#181818;stroke-width:0.5;"/><text x="228.58" y="434.945" fill="#000" font-size="14" textLength="212.297">Consultar detalle de matrícula</text></g><!--entity MatriculasCerrarCiclo--><g class="entity" data-qualified-name="M.dulo Matr.culas.MatriculasCerrarCiclo" id="ent0010" data-source-line="17"><ellipse cx="334.732" cy="348.293" rx="93.232" ry="21.046" fill="#F1F1F1" style="stroke:#181818;stroke-width:0.5;"/><text x="254.222" y="352.942" fill="#000" font-size="14" textLength="161.021">Cerrar ciclo académico</text></g><!--entity DispensasAbrir--><g class="entity" data-qualified-name="M.dulo Dispensas.DispensasAbrir" id="ent0012" data-source-line="21"><ellipse cx="334.726" cy="942.3" rx="70.616" ry="16.523" fill="#F1F1F1" style="stroke:#181818;stroke-width:0.5;"/><text x="280.763" y="946.949" fill="#000" font-size="14" textLength="107.926">Abrir dispensas</text></g><!--entity DispensasCrear--><g class="entity" data-qualified-name="M.dulo Dispensas.DispensasCrear" id="ent0013" data-source-line="22"><ellipse cx="334.734" cy="867.302" rx="106.424" ry="23.685" fill="#F1F1F1" style="stroke:#181818;stroke-width:0.5;"/><text x="239.673" y="871.95" fill="#000" font-size="14" textLength="190.121">Crear solicitud de dispensa</text></g><!--entity DispensasConsultar--><g class="entity" data-qualified-name="M.dulo Dispensas.DispensasConsultar" id="ent0014" data-source-line="23"><ellipse cx="334.73" cy="782.299" rx="119.71" ry="26.342" fill="#F1F1F1" style="stroke:#181818;stroke-width:0.5;"/><text x="225.362" y="786.947" fill="#000" font-size="14" textLength="218.736">Consultar solicitud de dispensa</text></g><!--entity DispensasEditar--><g class="entity" data-qualified-name="M.dulo Dispensas.DispensasEditar" id="ent0015" data-source-line="24"><ellipse cx="334.729" cy="697.295" rx="107.789" ry="23.958" fill="#F1F1F1" style="stroke:#181818;stroke-width:0.5;"/><text x="238.185" y="701.943" fill="#000" font-size="14" textLength="193.088">Editar solicitud de dispensa</text></g><!--entity SecretariaAcademica--><g class="entity" data-qualified-name="SecretariaAcademica" id="ent0001" data-source-line="5"><ellipse cx="80.508" cy="480.647" rx="8" ry="8" fill="#F1F1F1" style="stroke:#181818;stroke-width:0.5;"/><path d="M80.508,488.647 L80.508,515.647 M67.508,496.647 L93.508,496.647 M80.508,515.647 L67.508,530.647 M80.508,515.647 L93.508,530.647" style="stroke:#181818;stroke-width:0.5;" fill="none"/><text x="6" y="545.142" fill="#000" font-size="14" textLength="149.017">SecretariaAcademica</text></g><!--link SecretariaAcademica to AlumnosAbrir--><g class="link" data-entity-1="ent0001" data-entity-2="ent0003" id="lnk16" data-source-line="27" data-link-type="dependency"><path d="M94.82,471.977 C111.53,428.467 143.86,357.557 191.02,311.297 C220.79,282.097 259.591,263.292 290.721,251.162" style="stroke:#181818;stroke-width:1;" fill="none" id="SecretariaAcademica-to-AlumnosAbrir"/><polygon points="295.38,249.347,285.542,248.887,290.721,251.162,288.446,256.342,295.38,249.347" fill="#181818" style="stroke:#181818;stroke-width:1;stroke-linejoin:miter;stroke-miterlimit:10;"/></g><!--link SecretariaAcademica to AlumnosImportar--><g class="link" data-entity-1="ent0001" data-entity-2="ent0004" id="lnk17" data-source-line="28" data-link-type="dependency"><path d="M83.94,471.707 C90.19,406.527 112.39,274.747 191.02,203.297 C209.74,186.287 230.42,178.039 254.76,173.109" style="stroke:#181818;stroke-width:1;" fill="none" id="SecretariaAcademica-to-AlumnosImportar"/><polygon points="259.66,172.117,250.045,169.983,254.76,173.109,251.633,177.824,259.66,172.117" fill="#181818" style="stroke:#181818;stroke-width:1;stroke-linejoin:miter;stroke-miterlimit:10;"/></g><!--link SecretariaAcademica to AlumnosConsultar--><g class="link" data-entity-1="ent0001" data-entity-2="ent0005" id="lnk18" data-source-line="29" data-link-type="dependency"><path d="M80.87,471.907 C81.81,395.727 95.18,224.847 191.02,132.297 C209.31,114.637 230.036,106.24 254.536,101.38" style="stroke:#181818;stroke-width:1;" fill="none" id="SecretariaAcademica-to-AlumnosConsultar"/><polygon points="259.44,100.407,249.834,98.235,254.536,101.38,251.39,106.082,259.44,100.407" fill="#181818" style="stroke:#181818;stroke-width:1;stroke-linejoin:miter;stroke-miterlimit:10;"/></g><!--link SecretariaAcademica to MatriculasAbrir--><g class="link" data-entity-1="ent0001" data-entity-2="ent0007" id="lnk19" data-source-line="31" data-link-type="dependency"><path d="M155.44,536.307 C167.28,540.167 179.44,543.967 191.02,547.297 C220.39,555.737 248.704,562.631 275.684,568.751" style="stroke:#181818;stroke-width:1;" fill="none" id="SecretariaAcademica-to-MatriculasAbrir"/><polygon points="280.56,569.857,272.668,563.965,275.684,568.751,270.898,571.767,280.56,569.857" fill="#181818" style="stroke:#181818;stroke-width:1;stroke-linejoin:miter;stroke-miterlimit:10;"/></g><!--link SecretariaAcademica to MatriculasImportar--><g class="link" data-entity-1="ent0001" data-entity-2="ent0008" id="lnk20" data-source-line="32" data-link-type="dependency"><path d="M155.48,510.297 C185.42,510.297 215.12,510.297 245.91,510.297" style="stroke:#181818;stroke-width:1;" fill="none" id="SecretariaAcademica-to-MatriculasImportar"/><polygon points="250.91,510.297,241.91,506.297,245.91,510.297,241.91,514.297,250.91,510.297" fill="#181818" style="stroke:#181818;stroke-width:1;stroke-linejoin:miter;stroke-miterlimit:10;"/></g><!--link SecretariaAcademica to MatriculasVerDetalle--><g class="link" data-entity-1="ent0001" data-entity-2="ent0009" id="lnk21" data-source-line="33" data-link-type="dependency"><path d="M155.32,484.987 C167.24,481.007 179.45,476.987 191.02,473.297 C214.43,465.817 235.331,459.405 258.381,452.485" style="stroke:#181818;stroke-width:1;" fill="none" id="SecretariaAcademica-to-MatriculasVerDetalle"/><polygon points="263.17,451.047,253.4,449.804,258.381,452.485,255.7,457.466,263.17,451.047" fill="#181818" style="stroke:#181818;stroke-width:1;stroke-linejoin:miter;stroke-miterlimit:10;"/></g><!--link SecretariaAcademica to MatriculasCerrarCiclo--><g class="link" data-entity-1="ent0001" data-entity-2="ent0010" id="lnk22" data-source-line="34" data-link-type="dependency"><path d="M106.58,471.867 C126.38,444.447 156.39,408.767 191.02,387.297 C211.1,374.847 230.338,367.555 252.948,361.725" style="stroke:#181818;stroke-width:1;" fill="none" id="SecretariaAcademica-to-MatriculasCerrarCiclo"/><polygon points="257.79,360.477,248.076,358.851,252.948,361.725,250.074,366.597,257.79,360.477" fill="#181818" style="stroke:#181818;stroke-width:1;stroke-linejoin:miter;stroke-miterlimit:10;"/></g><!--link SecretariaAcademica to DispensasAbrir--><g class="link" data-entity-1="ent0001" data-entity-2="ent0012" id="lnk23" data-source-line="36" data-link-type="dependency"><path d="M87.07,548.907 C100.78,638.737 138.89,857.947 191.02,908.297 C210.43,927.057 233.303,935.313 259.223,939.483" style="stroke:#181818;stroke-width:1;" fill="none" id="SecretariaAcademica-to-DispensasAbrir"/><polygon points="264.16,940.277,255.91,934.898,259.223,939.483,254.639,942.797,264.16,940.277" fill="#181818" style="stroke:#181818;stroke-width:1;stroke-linejoin:miter;stroke-miterlimit:10;"/></g><!--link SecretariaAcademica to DispensasCrear--><g class="link" data-entity-1="ent0001" data-entity-2="ent0013" id="lnk24" data-source-line="37" data-link-type="dependency"><path d="M83.76,548.917 C89.75,615.267 111.57,751.017 191.02,826.297 C205.33,839.857 219.073,847.437 237.983,853.557" style="stroke:#181818;stroke-width:1;" fill="none" id="SecretariaAcademica-to-DispensasCrear"/><polygon points="242.74,855.097,235.409,848.52,237.983,853.557,232.946,856.131,242.74,855.097" fill="#181818" style="stroke:#181818;stroke-width:1;stroke-linejoin:miter;stroke-miterlimit:10;"/></g><!--link SecretariaAcademica to DispensasConsultar--><g class="link" data-entity-1="ent0001" data-entity-2="ent0014" id="lnk25" data-source-line="38" data-link-type="dependency"><path d="M89.86,548.837 C102.83,599.507 132.63,687.997 191.02,738.297 C205.16,750.477 217.932,757.603 235.742,763.973" style="stroke:#181818;stroke-width:1;" fill="none" id="SecretariaAcademica-to-DispensasConsultar"/><polygon points="240.45,765.657,233.323,758.86,235.742,763.973,230.629,766.392,240.45,765.657" fill="#181818" style="stroke:#181818;stroke-width:1;stroke-linejoin:miter;stroke-miterlimit:10;"/></g><!--link SecretariaAcademica to DispensasEditar--><g class="link" data-entity-1="ent0001" data-entity-2="ent0015" id="lnk26" data-source-line="39" data-link-type="dependency"><path d="M117.59,548.687 C138.07,569.387 164.79,594.637 191.02,614.297 C222.21,637.677 256.125,657.289 285.195,672.749" style="stroke:#181818;stroke-width:1;" fill="none" id="SecretariaAcademica-to-DispensasEditar"/><polygon points="289.61,675.097,283.542,667.339,285.195,672.749,279.786,674.403,289.61,675.097" fill="#181818" style="stroke:#181818;stroke-width:1;stroke-linejoin:miter;stroke-miterlimit:10;"/></g><?plantuml-src ZP8nRiCm34LtdOB8dWjqA10u7JfaQfkTbTIKY6mPf3GKHG_KeLEFa8jLjc4xDkmgtWo-_qL-yfc2ir2WU05ZuKNy7JnPpJOWNtuGTXhDvRiaZShPjm310zFfFO0XjZgGhvISgQgHiGG97ybC0fCEiNHAeGwU1p_2nissPgf6VSQJXStXyckYyx1piQoyRE1JGVgYM8sIwhjN9WRigoWzsHQcx6DPUqulBU5zRQeeV2NHZP9hnL1JNmlz7Z2aX7HqkDPpUKqasqP1xUz_hQ-hSXEO5B9B2qXx74rc7aVB-mwRkLZcPA59fz6mNxgVgJkgQA35JFOajQraDH4prfFlG2_4KR1DxOXtf2b4qypKYwVQ5bnBv1RziEI9nuEX6mqwiebZuSvXkxsVtci66dQSuSQsLydvkUMvxEEBTvI7hyzc5PzTGnRh5f_7Xg2oQBV9Fm00?></g></svg>