<svg xmlns="http://www.w3.org/2000/svg" xmlns:xlink="http://www.w3.org/1999/xlink" version="1.1" data-diagram-type="SEQUENCE" style="width:1201px;height:524px;background:#FFFFFF;" width="1201px" height="524px" viewBox="0 0 1201 524" zoomAndPan="magnify" preserveAspectRatio="none" contentStyleType="text/css"><?plantuml 1.2026.7beta8?><defs/><g font-family="sans-serif" lengthAdjust="spacing"><g class="title" data-source-line="1"><text x="296.875" y="27.995" fill="#000" font-size="14" textLength="605.37" font-weight="700">Diagrama de Secuencia - Cerrar Ciclo Académico (Vue 3 + Express + Prisma)</text></g><g><title>Secretaria</title><rect x="48.079" y="139.891" width="8" height="281.328" fill="#000" fill-opacity="0"/><line x1="51.579" y1="139.891" x2="51.579" y2="421.219" style="stroke:#181818;stroke-width:0.5;stroke-dasharray:5,5;"/></g><g><title>Frontend</title><rect x="308.597" y="139.891" width="8" height="281.328" fill="#000" fill-opacity="0"/><line x1="312.097" y1="139.891" x2="312.097" y2="421.219" style="stroke:#181818;stroke-width:0.5;stroke-dasharray:5,5;"/></g><g><title></title><rect x="307.097" y="169.023" width="10" height="234.195" fill="#FFF" style="stroke:#181818;stroke-width:1;"/></g><g><title>MatriculaController</title><rect x="553.982" y="139.891" width="8" height="281.328" fill="#000" fill-opacity="0"/><line x1="557.482" y1="139.891" x2="557.482" y2="421.219" style="stroke:#181818;stroke-width:0.5;stroke-dasharray:5,5;"/></g><g><title></title><rect x="552.482" y="198.156" width="10" height="160.797" fill="#FFF" style="stroke:#181818;stroke-width:1;"/></g><g><title>MatriculaService</title><rect x="826.978" y="139.891" width="8" height="281.328" fill="#000" fill-opacity="0"/><line x1="830.478" y1="139.891" x2="830.478" y2="421.219" style="stroke:#181818;stroke-width:0.5;stroke-dasharray:5,5;"/></g><g><title></title><rect x="825.478" y="227.289" width="10" height="102.531" fill="#FFF" style="stroke:#181818;stroke-width:1;"/></g><g><title>Base de Datos</title><rect x="1133.021" y="139.891" width="8" height="281.328" fill="#000" fill-opacity="0"/><line x1="1136.521" y1="139.891" x2="1136.521" y2="421.219" style="stroke:#181818;stroke-width:0.5;stroke-dasharray:5,5;"/></g><g><title></title><rect x="1131.521" y="271.555" width="10" height="29.133" fill="#FFF" style="stroke:#181818;stroke-width:1;"/></g><text x="12.649" y="120.292" fill="#000" font-size="14" textLength="71.859">Secretaria</text><text x="10" y="136.589" fill="#000" font-size="14" textLength="77.157">Academica</text><ellipse cx="51.579" cy="55.797" rx="8" ry="8" fill="#E2E2F0" style="stroke:#181818;stroke-width:0.5;"/><path d="M51.579,63.797 L51.579,90.797 M38.579,71.797 L64.579,71.797 M51.579,90.797 L38.579,105.797 M51.579,90.797 L64.579,105.797" style="stroke:#181818;stroke-width:0.5;" fill="none"/><rect x="273.542" y="92.297" width="77.109" height="46.594" fill="#E2E2F0" style="stroke:#181818;stroke-width:0.5;" rx="2.5" ry="2.5"/><text x="280.542" y="112.292" fill="#000" font-size="14" textLength="63.109">Frontend</text><text x="286.424" y="128.589" fill="#000" font-size="14" textLength="51.345">(Vue 3)</text><rect x="483.479" y="108.594" width="148.005" height="30.297" fill="#E2E2F0" style="stroke:#181818;stroke-width:0.5;" rx="2.5" ry="2.5"/><text x="490.479" y="128.589" fill="#000" font-size="14" textLength="134.005">MatriculaController</text><rect x="765.191" y="108.594" width="130.573" height="30.297" fill="#E2E2F0" style="stroke:#181818;stroke-width:0.5;" rx="2.5" ry="2.5"/><text x="772.191" y="128.589" fill="#000" font-size="14" textLength="116.573">MatriculaService</text><text x="1082.921" y="120.292" fill="#000" font-size="14" textLength="101.199">Base de Datos</text><text x="1087.683" y="136.589" fill="#000" font-size="14" textLength="91.677">(PostgreSQL)</text><path d="M1118.521,71.297 C1118.521,61.297 1136.521,61.297 1136.521,61.297 C1136.521,61.297 1154.521,61.297 1154.521,71.297 L1154.521,97.297 C1154.521,107.297 1136.521,107.297 1136.521,107.297 C1136.521,107.297 1118.521,107.297 1118.521,97.297 L1118.521,71.297" style="stroke:#181818;stroke-width:0.5;" fill="#E2E2F0"/><path d="M1118.521,71.297 C1118.521,81.297 1136.521,81.297 1136.521,81.297 C1136.521,81.297 1154.521,81.297 1154.521,71.297" style="stroke:#181818;stroke-width:0.5;" fill="none"/><text x="12.649" y="434.214" fill="#000" font-size="14" textLength="71.859">Secretaria</text><text x="10" y="450.511" fill="#000" font-size="14" textLength="77.157">Academica</text><ellipse cx="51.579" cy="462.313" rx="8" ry="8" fill="#E2E2F0" style="stroke:#181818;stroke-width:0.5;"/><path d="M51.579,470.313 L51.579,497.313 M38.579,478.313 L64.579,478.313 M51.579,497.313 L38.579,512.313 M51.579,497.313 L64.579,512.313" style="stroke:#181818;stroke-width:0.5;" fill="none"/><rect x="273.542" y="421.219" width="77.109" height="46.594" fill="#E2E2F0" style="stroke:#181818;stroke-width:0.5;" rx="2.5" ry="2.5"/><text x="280.542" y="441.214" fill="#000" font-size="14" textLength="63.109">Frontend</text><text x="286.424" y="457.511" fill="#000" font-size="14" textLength="51.345">(Vue 3)</text><rect x="483.479" y="421.219" width="148.005" height="30.297" fill="#E2E2F0" style="stroke:#181818;stroke-width:0.5;" rx="2.5" ry="2.5"/><text x="490.479" y="441.214" fill="#000" font-size="14" textLength="134.005">MatriculaController</text><rect x="765.191" y="421.219" width="130.573" height="30.297" fill="#E2E2F0" style="stroke:#181818;stroke-width:0.5;" rx="2.5" ry="2.5"/><text x="772.191" y="441.214" fill="#000" font-size="14" textLength="116.573">MatriculaService</text><text x="1082.921" y="434.214" fill="#000" font-size="14" textLength="101.199">Base de Datos</text><text x="1087.683" y="450.511" fill="#000" font-size="14" textLength="91.677">(PostgreSQL)</text><path d="M1118.521,463.813 C1118.521,453.813 1136.521,453.813 1136.521,453.813 C1136.521,453.813 1154.521,453.813 1154.521,463.813 L1154.521,489.813 C1154.521,499.813 1136.521,499.813 1136.521,499.813 C1136.521,499.813 1118.521,499.813 1118.521,489.813 L1118.521,463.813" style="stroke:#181818;stroke-width:0.5;" fill="#E2E2F0"/><path d="M1118.521,463.813 C1118.521,473.813 1136.521,473.813 1136.521,473.813 C1136.521,473.813 1154.521,473.813 1154.521,463.813" style="stroke:#181818;stroke-width:0.5;" fill="none"/><polygon points="295.097,165.023,305.097,169.023,295.097,173.023,299.097,169.023" fill="#181818" style="stroke:#181818;stroke-width:1;stroke-linejoin:miter;stroke-miterlimit:10;"/><line x1="51.579" y1="169.023" x2="301.097" y2="169.023" style="stroke:#181818;stroke-width:1;"/><text x="58.579" y="163.958" fill="#000" font-size="13" textLength="231.518">confirma cierre del ciclo académico</text><polygon points="540.482,194.156,550.482,198.156,540.482,202.156,544.482,198.156" fill="#181818" style="stroke:#181818;stroke-width:1;stroke-linejoin:miter;stroke-miterlimit:10;"/><line x1="317.097" y1="198.156" x2="546.482" y2="198.156" style="stroke:#181818;stroke-width:1;"/><text x="324.097" y="193.09" fill="#000" font-size="13" textLength="216.385">POST /api/secretaria/ciclos/cerrar</text><polygon points="813.478,223.289,823.478,227.289,813.478,231.289,817.478,227.289" fill="#181818" style="stroke:#181818;stroke-width:1;stroke-linejoin:miter;stroke-miterlimit:10;"/><line x1="562.482" y1="227.289" x2="819.478" y2="227.289" style="stroke:#181818;stroke-width:1;"/><text x="569.482" y="222.223" fill="#000" font-size="13" textLength="152.325">cerrarCicloAcademico()</text><polygon points="1119.521,267.555,1129.521,271.555,1119.521,275.555,1123.521,271.555" fill="#181818" style="stroke:#181818;stroke-width:1;stroke-linejoin:miter;stroke-miterlimit:10;"/><line x1="835.478" y1="271.555" x2="1125.521" y2="271.555" style="stroke:#181818;stroke-width:1;"/><text x="842.478" y="251.356" fill="#000" font-size="13" textLength="277.043">UPDATE Matricula SET estado = 'Historica'</text><text x="842.478" y="266.489" fill="#000" font-size="13" textLength="172.656">WHERE estado = 'Vigente'</text><polygon points="846.478,296.688,836.478,300.688,846.478,304.688,842.478,300.688" fill="#181818" style="stroke:#181818;stroke-width:1;stroke-linejoin:miter;stroke-miterlimit:10;"/><line x1="840.478" y1="300.688" x2="1130.521" y2="300.688" style="stroke:#181818;stroke-width:1;stroke-dasharray:2,2;"/><text x="852.478" y="295.622" fill="#000" font-size="13" textLength="210.177">matriculasActualizadas : Integer</text><polygon points="573.482,325.82,563.482,329.82,573.482,333.82,569.482,329.82" fill="#181818" style="stroke:#181818;stroke-width:1;stroke-linejoin:miter;stroke-miterlimit:10;"/><line x1="567.482" y1="329.82" x2="824.478" y2="329.82" style="stroke:#181818;stroke-width:1;stroke-dasharray:2,2;"/><text x="579.482" y="324.754" fill="#000" font-size="13" textLength="238.996">resultado : { matriculasArchivadas }</text><polygon points="328.097,354.953,318.097,358.953,328.097,362.953,324.097,358.953" fill="#181818" style="stroke:#181818;stroke-width:1;stroke-linejoin:miter;stroke-miterlimit:10;"/><line x1="322.097" y1="358.953" x2="551.482" y2="358.953" style="stroke:#181818;stroke-width:1;stroke-dasharray:2,2;"/><text x="334.097" y="353.887" fill="#000" font-size="13" textLength="137.877">200 OK { resultado }</text><polygon points="62.579,399.219,52.579,403.219,62.579,407.219,58.579,403.219" fill="#181818" style="stroke:#181818;stroke-width:1;stroke-linejoin:miter;stroke-miterlimit:10;"/><line x1="56.579" y1="403.219" x2="306.097" y2="403.219" style="stroke:#181818;stroke-width:1;stroke-dasharray:2,2;"/><text x="68.579" y="383.02" fill="#000" font-size="13" textLength="204.629">muestra confirmación de cierre</text><text x="68.579" y="398.153" fill="#000" font-size="13" textLength="167.515">(N matrículas archivadas)</text><?plantuml-src TPB1RjD048RlVefHBcc4ebJb5Wca93PgLQ01XtB9PReUqf4SRpIxhX281-B0YKV8Yp7UrBiEKY_Hnhl_D__yCvvzJP0pxWJt21L1IQQbnZ3255OaWW8hDhM5XS7g-7lFniB5VKlm6bv1yVqWv9oUri9kZvCiG-Ejm4WnGXw5STjqIb8XZW0Tf9liWEBPy04R3wDtOXjFJRLjJlX9UDr_FN_x0RsmQMjSwQtOkYO9hzFV5zwN94ziwDb8E6SLUdn0Hp1QTh-QGOxUElMnjixlXCfFxqzcycMM9VimVHljmHoCRRwnQ8Y6DRQEK-knImvZSbqw_8IUKbzPH2Wk-LVW-gxSm0mFF7EnvYmGtSo4oIJSeF5i057aSvUTmQ09m-mdOYycYT7daVKILUTB5NvPvujD0J54A8iDaFDOMNW3usjsEd8TxtZRVBqkFXU3ktlUaNOtJbKqGuLEpvpjUx9R6DzYpJ-mqhZdSAFQdVPKqL2V3FuVcIvZMuVQS_Wvn8fvL7a7_JM4nPQ7cPsFzUho4kvkbPROPuXXyccKeRsuADfXgva8nYKnVFpRTAjsMXRTjO_1xl5Fy0iO3K-6nVe2_m00?></g></svg>