<svg xmlns="http://www.w3.org/2000/svg" xmlns:xlink="http://www.w3.org/1999/xlink" contentStyleType="text/css" data-diagram-type="STATE" height="840px" preserveAspectRatio="none" style="width:622px;height:840px;background:#FFFFFF;" version="1.1" viewBox="0 0 622 840" width="622px" zoomAndPan="magnify"><title>Registrar Toma Asistencia</title><defs/><g><text fill="#000000" font-family="sans-serif" font-size="14" font-weight="bold" lengthAdjust="spacing" textLength="176.6201" x="215.9399" y="24.5332">Registrar Toma Asistencia</text><g id="SESION_ACTUAL_INICIAL"><rect fill="#F1F1F1" height="50" rx="12.5" ry="12.5" style="stroke:#181818;stroke-width:0.5;" width="231.6201" x="111.5" y="125.6094"/><line style="stroke:#181818;stroke-width:0.5;" x1="111.5" x2="343.1201" y1="153.2188" y2="153.2188"/><text fill="#000000" font-family="sans-serif" font-size="14" lengthAdjust="spacing" textLength="211.6201" x="121.5" y="145.1426">SESION_ASISTENCIA_ABIERTA</text></g><path d="M19.5,338.6094 L435,338.6094 A12.5,12.5 0 0 1 447.5,351.1094 L447.5,366.2188 L7,366.2188 L7,351.1094 A12.5,12.5 0 0 1 19.5,338.6094" fill="#F1F1F1" style="stroke:#F1F1F1;stroke-width:1;"/><rect fill="none" height="349.6094" rx="12.5" ry="12.5" style="stroke:#181818;stroke-width:0.5;" width="440.5" x="7" y="338.6094"/><line style="stroke:#181818;stroke-width:0.5;" x1="7" x2="447.5" y1="366.2188" y2="366.2188"/><text fill="#000000" font-family="sans-serif" font-size="14" lengthAdjust="spacing" textLength="211.6201" x="121.4399" y="358.1426">SESION_ASISTENCIA_ABIERTA</text><g id="PROCESO_TOMA_COMP.VisualizacionListado"><rect fill="#F1F1F1" height="50" rx="12.5" ry="12.5" style="stroke:#181818;stroke-width:0.5;" width="146.8545" x="19" y="469.2188"/><line style="stroke:#181818;stroke-width:0.5;" x1="19" x2="165.8545" y1="496.8281" y2="496.8281"/><text fill="#000000" font-family="sans-serif" font-size="14" lengthAdjust="spacing" textLength="126.8545" x="29" y="488.752">VisualizacionListado</text></g><ellipse cx="92.5" cy="387.2188" fill="#222222" rx="10" ry="10" style="stroke:#222222;stroke-width:1;"/><ellipse cx="92.5" cy="667.2188" fill="none" rx="11" ry="11" style="stroke:#222222;stroke-width:1;"/><ellipse cx="92.5" cy="667.2188" fill="#222222" rx="6" ry="6" style="stroke:#222222;stroke-width:1;"/><!--link *start*PROCESO_TOMA_COMP to VisualizacionListado--><g class="link" data-entity-1="*start*PROCESO_TOMA_COMP" data-entity-2="VisualizacionListado" data-source-line="22" data-uid="lnk6" id="link_*start*PROCESO_TOMA_COMP_VisualizacionListado"><path d="M92.5,397.5388 C92.5,413.3988 92.5,440.1287 92.5,462.8588" fill="none" id="*start*PROCESO_TOMA_COMP-to-VisualizacionListado" style="stroke:#008000;stroke-width:1;"/><polygon fill="#008000" points="92.5,468.8588,96.5,459.8588,92.5,463.8588,88.5,459.8588,92.5,468.8588" style="stroke:#008000;stroke-width:1;"/><path d="M97.5,420.2188 L97.5,446.2188 L425.5,446.2188 L425.5,430.2188 L415.5,420.2188 L97.5,420.2188" fill="#FEFFDD" style="stroke:#181818;stroke-width:0.5;"/><path d="M415.5,420.2188 L415.5,430.2188 L425.5,430.2188 L415.5,420.2188" fill="#FEFFDD" style="stroke:#181818;stroke-width:0.5;"/><text fill="#000000" font-family="sans-serif" font-size="13" font-weight="bold" lengthAdjust="spacing" textLength="49.8608" x="103.5" y="438.7139">Sistema</text><text fill="#000000" font-family="sans-serif" font-size="13" lengthAdjust="spacing" textLength="253.6206" x="156.9727" y="438.7139">muestra el listado de alumnos matriculados.</text></g><!--link VisualizacionListado to *end*PROCESO_TOMA_COMP--><g class="link" data-entity-1="VisualizacionListado" data-entity-2="*end*PROCESO_TOMA_COMP" data-source-line="27" data-uid="lnk8" id="link_VisualizacionListado_*end*PROCESO_TOMA_COMP"><path d="M92.5,519.3588 C92.5,557.2887 92.5,623.2688 92.5,649.9388" fill="none" id="VisualizacionListado-to-*end*PROCESO_TOMA_COMP" style="stroke:#008000;stroke-width:1;"/><polygon fill="#008000" points="92.5,655.9388,96.5,646.9388,92.5,650.9388,88.5,646.9388,92.5,655.9388" style="stroke:#008000;stroke-width:1;"/><path d="M97.5,542.2188 L97.5,633.2188 L438.5,633.2188 L438.5,552.2188 L428.5,542.2188 L97.5,542.2188" fill="#FEFFDD" style="stroke:#181818;stroke-width:0.5;"/><path d="M428.5,542.2188 L428.5,552.2188 L438.5,552.2188 L428.5,542.2188" fill="#FEFFDD" style="stroke:#181818;stroke-width:0.5;"/><text fill="#000000" font-family="sans-serif" font-size="13" font-weight="bold" lengthAdjust="spacing" textLength="164.709" x="103.5" y="560.7139">Sistema permite introducir</text><text fill="#000000" font-family="sans-serif" font-size="13" lengthAdjust="spacing" textLength="152.4961" x="271.8208" y="560.7139">el estado de cada alumno.</text><text fill="#000000" font-family="sans-serif" font-size="13" lengthAdjust="spacing" textLength="3.6118" x="103.5" y="577.0654">&#160;</text><text fill="#000000" font-family="sans-serif" font-size="13" font-weight="bold" lengthAdjust="spacing" textLength="116.2954" x="103.5" y="593.417">Profesor introduce</text><text fill="#000000" font-family="sans-serif" font-size="13" lengthAdjust="spacing" textLength="138.728" x="223.4072" y="593.417">los cambios necesarios:</text><text fill="#000000" font-family="sans-serif" font-size="13" lengthAdjust="spacing" textLength="164.2583" x="103.5" y="609.7686">&#8226; Presente / Ausente / Tarde</text><text fill="#000000" font-family="sans-serif" font-size="13" lengthAdjust="spacing" textLength="138.9375" x="103.5" y="626.1201">&#8226; Justificaci&#243;n (si aplica)</text></g><g id="SESION_ACTUAL_FINAL"><rect fill="#F1F1F1" height="50" rx="12.5" ry="12.5" style="stroke:#181818;stroke-width:0.5;" width="231.6201" x="111.5" y="784.6094"/><line style="stroke:#181818;stroke-width:0.5;" x1="111.5" x2="343.1201" y1="812.2188" y2="812.2188"/><text fill="#000000" font-family="sans-serif" font-size="14" lengthAdjust="spacing" textLength="211.6201" x="121.5" y="804.1426">SESION_ASISTENCIA_ABIERTA</text></g><ellipse cx="227.5" cy="54.6094" fill="#222222" rx="10" ry="10" style="stroke:#222222;stroke-width:1;"/><!--link *start* to SESION_ACTUAL_INICIAL--><g class="link" data-entity-1="*start*" data-entity-2="SESION_ACTUAL_INICIAL" data-source-line="8" data-uid="lnk3" id="link_*start*_SESION_ACTUAL_INICIAL"><path d="M227.5,64.6194 C227.5,78.4994 227.5,99.5794 227.5,119.4494" fill="none" id="*start*-to-SESION_ACTUAL_INICIAL" style="stroke:#008000;stroke-width:1;"/><polygon fill="#008000" points="227.5,125.4494,231.5,116.4494,227.5,120.4494,223.5,116.4494,227.5,125.4494" style="stroke:#008000;stroke-width:1;"/></g><!--link SESION_ACTUAL_INICIAL to PROCESO_TOMA_COMP--><g class="link" data-entity-1="SESION_ACTUAL_INICIAL" data-entity-2="PROCESO_TOMA_COMP" data-source-line="10" data-uid="lnk4" id="link_SESION_ACTUAL_INICIAL_PROCESO_TOMA_COMP"><path d="M227.5,175.8594 C227.5,209.8494 227.5,268.6694 227.5,332.4394" fill="none" id="SESION_ACTUAL_INICIAL-to-PROCESO_TOMA_COMP" style="stroke:#008000;stroke-width:1;"/><polygon fill="#008000" points="227.5,338.4394,231.5,329.4394,227.5,333.4394,223.5,329.4394,227.5,338.4394" style="stroke:#008000;stroke-width:1;"/><text fill="#000000" font-family="sans-serif" font-size="13" lengthAdjust="spacing" textLength="148.8145" x="297.5803" y="220.1045">registrarTomaAsistencia()</text><path d="M232.5,228.9609 L232.5,303.9609 L510.5,303.9609 L510.5,238.9609 L500.5,228.9609 L232.5,228.9609" fill="#FEFFDD" style="stroke:#181818;stroke-width:0.5;"/><path d="M500.5,228.9609 L500.5,238.9609 L510.5,238.9609 L500.5,228.9609" fill="#FEFFDD" style="stroke:#181818;stroke-width:0.5;"/><text fill="#000000" font-family="sans-serif" font-size="13" font-weight="bold" lengthAdjust="spacing" textLength="53.46" x="238.5" y="247.4561">Profesor</text><text fill="#000000" font-family="sans-serif" font-size="13" lengthAdjust="spacing" textLength="190.0679" x="295.5718" y="247.4561">se encuentra en una clase activa</text><text fill="#000000" font-family="sans-serif" font-size="13" lengthAdjust="spacing" textLength="6.5" x="238.5" y="263.8076">y</text><text fill="#000000" font-family="sans-serif" font-size="13" font-weight="bold" lengthAdjust="spacing" textLength="44.7954" x="248.6118" y="263.8076">solicita</text><text fill="#000000" font-family="sans-serif" font-size="13" lengthAdjust="spacing" textLength="146.6816" x="297.019" y="263.8076">pasar lista a los alumnos.</text><text fill="#000000" font-family="sans-serif" font-size="13" lengthAdjust="spacing" textLength="3.6118" x="238.5" y="280.1592">&#160;</text><text fill="#000000" font-family="sans-serif" font-size="13" font-weight="bold" lengthAdjust="spacing" textLength="107.6626" x="238.5" y="296.5107">Sistema presenta</text><text fill="#000000" font-family="sans-serif" font-size="13" lengthAdjust="spacing" textLength="146.7007" x="349.7744" y="296.5107">el listado para su edici&#243;n.</text></g><!--link PROCESO_TOMA_COMP to SESION_ACTUAL_FINAL--><g class="link" data-entity-1="PROCESO_TOMA_COMP" data-entity-2="SESION_ACTUAL_FINAL" data-source-line="37" data-uid="lnk9" id="link_PROCESO_TOMA_COMP_SESION_ACTUAL_FINAL"><path d="M227.5,689.0294 C227.5,726.8694 227.5,756.1894 227.5,778.4894" fill="none" id="PROCESO_TOMA_COMP-to-SESION_ACTUAL_FINAL" style="stroke:#008000;stroke-width:1;"/><polygon fill="#008000" points="227.5,784.4894,231.5,775.4894,227.5,779.4894,223.5,775.4894,227.5,784.4894" style="stroke:#008000;stroke-width:1;"/><path d="M232.5,723.6094 L232.5,749.6094 L615.5,749.6094 L615.5,733.6094 L605.5,723.6094 L232.5,723.6094" fill="#FEFFDD" style="stroke:#181818;stroke-width:0.5;"/><path d="M605.5,723.6094 L605.5,733.6094 L615.5,733.6094 L605.5,723.6094" fill="#FEFFDD" style="stroke:#181818;stroke-width:0.5;"/><text fill="#000000" font-family="sans-serif" font-size="13" font-weight="bold" lengthAdjust="spacing" textLength="104.0508" x="238.5" y="742.1045">Sistema muestra</text><text fill="#000000" font-family="sans-serif" font-size="13" lengthAdjust="spacing" textLength="254.376" x="346.1626" y="742.1045">nuevamente la vista de la clase actualizada.</text></g><!--SRC=[ZLDHQXin4FtNAORq9od4-G_1i3KkR71iuzts9mGpraw2Y5PQf9N1AOMUfLVe4NgJdgGZhTUEQuVKFnv9ysRUl3VRgbOJBEX9-TQXWzBM29dd4ncfKFXdPHfqM8DMXjfDGz1OlOa78NoBBK4nBlBPT9cDoY_PP9bFyr6UJG0zdFKlHLwKuobVBxDF-NXHPcTRw7mn6usBsRAStMNBqUnk3l7tNz33hf_pAVTy5ohkFpx0vVs79qTa7Yw7fxaBSNgary1ZvjVWUXMZY7iDpo-4iSpOcgZXixXP3UVEFfAtxkPgDGHFm7c134CvWc0Gf4Q-HjcgDOeDCCHRhQHgCK4QzEoLvWu82DfwG1rgO_r0nF95RCq-Deuyb-qmf3j0PI4Q2Zu0LLpozoyp46GgY2J5cyPy4o9wqpr_LJwWLYyebJMJhcht_g_09pDZue4ayMBFEz6j0_aao9vsHVsOK6Fhb0oQhtdc2DzF44-dsXxmOfxlqO26NAtuMR4pjWfIkLv8sX6IME6MrK3q1NfxTqXAmEYJn7gb-D-G9FQGm-k4-lFZ9ymxkmYk80jzLAAhQ9To6toh7fN4v1kSUmNOy6BWnQ48tuKujl3jnK-Vpz6MzZfihKWpc41hh1CtZR1E6rYbUBUodV0Lljgglm00]--></g></svg>