<svg xmlns="http://www.w3.org/2000/svg" xmlns:xlink="http://www.w3.org/1999/xlink" contentStyleType="text/css" data-diagram-type="DESCRIPTION" height="435px" preserveAspectRatio="none" style="width:1191px;height:435px;background:#FFFFFF;" version="1.1" viewBox="0 0 1191 435" width="1191px" zoomAndPan="magnify"><?plantuml 1.2026.5?><defs/><g><!--cluster consultarDetalleAlumno--><g class="cluster" data-qualified-name="consultarDetalleAlumno" data-source-line="7" id="ent0004"><path d="M8.5,106.3 L212.4453,106.3 A3.75,3.75 0 0 1 214.9453,108.8 L221.9453,128.5969 L600.5,128.5969 A2.5,2.5 0 0 1 603,131.0969 L603,417.69 A2.5,2.5 0 0 1 600.5,420.19 L8.5,420.19 A2.5,2.5 0 0 1 6,417.69 L6,108.8 A2.5,2.5 0 0 1 8.5,106.3" fill="none" style="stroke:#000000;stroke-width:1.5;"/><line style="stroke:#000000;stroke-width:1.5;" x1="6" x2="221.9453" y1="128.5969" y2="128.5969"/><text fill="#000000" font-family="sans-serif" font-size="14" font-weight="700" lengthAdjust="spacing" textLength="202.9453" x="10" y="121.2951">consultarDetalleAlumno()</text></g><!--entity DetalleAlumnoView--><g class="entity" data-qualified-name="consultarDetalleAlumno.DetalleAlumnoView" data-source-line="8" id="ent0005"><rect fill="#629EF9" height="36.2969" rx="2.5" ry="2.5" style="stroke:#181818;stroke-width:0.5;" width="156.8008" x="430.6" y="141.3"/><text fill="#000000" font-family="sans-serif" font-size="14" lengthAdjust="spacing" textLength="136.8008" x="440.6" y="164.2951">DetalleAlumnoView</text></g><!--entity AlumnoController--><g class="entity" data-qualified-name="consultarDetalleAlumno.AlumnoController" data-source-line="9" id="ent0006"><rect fill="#B5BD68" height="36.2969" rx="2.5" ry="2.5" style="stroke:#181818;stroke-width:0.5;" width="142.5889" x="249.71" y="254.6"/><text fill="#000000" font-family="sans-serif" font-size="14" lengthAdjust="spacing" textLength="122.5889" x="259.71" y="277.5951">AlumnoController</text></g><!--entity AlumnoRepository--><g class="entity" data-qualified-name="consultarDetalleAlumno.AlumnoRepository" data-source-line="10" id="ent0007"><rect fill="#F2AC4E" height="36.2969" rx="2.5" ry="2.5" style="stroke:#181818;stroke-width:0.5;" width="148.4883" x="21.76" y="367.89"/><text fill="#000000" font-family="sans-serif" font-size="14" lengthAdjust="spacing" textLength="128.4883" x="31.76" y="390.8851">AlumnoRepository</text></g><!--entity AsistenciaRepository--><g class="entity" data-qualified-name="consultarDetalleAlumno.AsistenciaRepository" data-source-line="11" id="ent0008"><rect fill="#F2AC4E" height="36.2969" rx="2.5" ry="2.5" style="stroke:#181818;stroke-width:0.5;" width="166.2686" x="237.87" y="367.89"/><text fill="#000000" font-family="sans-serif" font-size="14" lengthAdjust="spacing" textLength="146.2686" x="247.87" y="390.8851">AsistenciaRepository</text></g><!--entity ListaMostrada--><g class="entity" data-qualified-name="ListaMostrada" data-source-line="3" id="ent0001"><rect fill="#CDEBA5" height="36.2969" rx="2.5" ry="2.5" style="stroke:#181818;stroke-width:0.5;" width="227.9424" x="395.03" y="7"/><text fill="#000000" font-family="sans-serif" font-size="14" lengthAdjust="spacing" textLength="207.9424" x="405.03" y="29.9951">:LISTA_ALUMNOS_MOSTRADA</text></g><!--entity HistorialDetallado--><g class="entity" data-qualified-name="HistorialDetallado" data-source-line="4" id="ent0002"><rect fill="#CDEBA5" height="36.2969" rx="2.5" ry="2.5" style="stroke:#181818;stroke-width:0.5;" width="258.9912" x="618.5" y="254.6"/><text fill="#000000" font-family="sans-serif" font-size="14" lengthAdjust="spacing" textLength="238.9912" x="628.5" y="277.5951">:HISTORIAL_ALUMNO_DETALLADO</text></g><!--entity CompletarGestion--><g class="entity" data-qualified-name="CompletarGestion" data-source-line="5" id="ent0003"><rect fill="#CDEBA5" height="36.2969" rx="2.5" ry="2.5" style="stroke:#181818;stroke-width:0.5;" width="249.2363" x="912.38" y="254.6"/><text fill="#000000" font-family="sans-serif" font-size="14" lengthAdjust="spacing" textLength="229.2363" x="922.38" y="277.5951">:Collaboration CompletarGestion</text></g><!--link ListaMostrada to DetalleAlumnoView--><g class="link" data-entity-1="ent0001" data-entity-2="ent0005" data-link-type="dependency" data-source-line="14" id="lnk9"><path d="M509,43.72 C509,69.02 509,110.46 509,135.81" fill="none" id="ListaMostrada-to-DetalleAlumnoView" style="stroke:#181818;stroke-width:1;"/><polygon fill="#181818" points="509,140.81,513,131.81,509,135.81,505,131.81,509,140.81" style="stroke:#181818;stroke-width:1;stroke-linejoin:miter;stroke-miterlimit:10;"/><text fill="#000000" font-family="sans-serif" font-size="13" lengthAdjust="spacing" textLength="166.4102" x="510" y="86.3669">consultarDetalleAlumno()</text></g><!--link DetalleAlumnoView to AlumnoController--><g class="link" data-entity-1="ent0005" data-entity-2="ent0006" data-link-type="dependency" data-source-line="16" id="lnk10"><path d="M479.21,178.08 C444.01,198.92 390.0927,230.8431 354.9527,251.6431" fill="none" id="DetalleAlumnoView-to-AlumnoController" style="stroke:#181818;stroke-width:1;"/><polygon fill="#181818" points="350.65,254.19,360.4324,253.0478,354.9527,251.6431,356.3574,246.1635,350.65,254.19" style="stroke:#181818;stroke-width:1;stroke-linejoin:miter;stroke-miterlimit:10;"/><text fill="#000000" font-family="sans-serif" font-size="13" lengthAdjust="spacing" textLength="218.8481" x="428" y="220.6669">obtenerFichaCompleta(alumnoId)</text></g><!--link AlumnoController to AlumnoRepository--><g class="link" data-entity-1="ent0006" data-entity-2="ent0007" data-link-type="dependency" data-source-line="17" id="lnk11"><path d="M249.5,288.28 C181.33,302.13 89,320.89 89,320.89 C89,320.89 89,337.89 89,337.89 C89,337.89 90.6661,349.1342 92.6561,362.5442" fill="none" id="AlumnoController-to-AlumnoRepository" style="stroke:#181818;stroke-width:1;"/><polygon fill="#181818" points="93.39,367.49,96.0256,358.0003,92.6561,362.5442,88.1122,359.1746,93.39,367.49" style="stroke:#181818;stroke-width:1;stroke-linejoin:miter;stroke-miterlimit:10;"/><text fill="#000000" font-family="sans-serif" font-size="13" lengthAdjust="spacing" textLength="222.9233" x="90" y="333.9569">buscarDatosPersonales(alumnoId)</text></g><!--link AlumnoController to AsistenciaRepository--><g class="link" data-entity-1="ent0006" data-entity-2="ent0008" data-link-type="dependency" data-source-line="18" id="lnk12"><path d="M321,291.13 C321,311.92 321,341.51 321,362.41" fill="none" id="AlumnoController-to-AsistenciaRepository" style="stroke:#181818;stroke-width:1;"/><polygon fill="#181818" points="321,367.41,325,358.41,321,362.41,317,358.41,321,367.41" style="stroke:#181818;stroke-width:1;stroke-linejoin:miter;stroke-miterlimit:10;"/><text fill="#000000" font-family="sans-serif" font-size="13" lengthAdjust="spacing" textLength="264.0181" x="322" y="333.9569">calcularPorcentajeAsistencias(alumnoId)</text></g><!--link DetalleAlumnoView to HistorialDetallado--><g class="link" data-entity-1="ent0005" data-entity-2="ent0002" data-link-type="dependency" data-source-line="20" id="lnk13"><path d="M563.37,178 C604.87,191.41 655,207.6 655,207.6 C655,207.6 690.9344,232.3806 718.4744,251.3806" fill="none" id="DetalleAlumnoView-to-HistorialDetallado" style="stroke:#181818;stroke-width:1;stroke-dasharray:7,7;"/><polygon fill="#181818" points="722.59,254.22,717.4534,245.8167,718.4744,251.3806,712.9105,252.4016,722.59,254.22" style="stroke:#181818;stroke-width:1;stroke-linejoin:miter;stroke-miterlimit:10;"/><text fill="#000000" font-family="sans-serif" font-size="13" lengthAdjust="spacing" textLength="109.6367" x="678" y="220.6669">&#171;include&#187; [&#233;xito]</text></g><!--link DetalleAlumnoView to CompletarGestion--><g class="link" data-entity-1="ent0005" data-entity-2="ent0003" data-link-type="dependency" data-source-line="21" id="lnk14"><path d="M587.8,173.39 C672.77,187.35 796,207.6 796,207.6 C796,207.6 894.6482,233.854 965.9982,252.844" fill="none" id="DetalleAlumnoView-to-CompletarGestion" style="stroke:#181818;stroke-width:1;stroke-dasharray:7,7;"/><polygon fill="#181818" points="970.83,254.13,963.1616,247.9498,965.9982,252.844,961.104,255.6806,970.83,254.13" style="stroke:#181818;stroke-width:1;stroke-linejoin:miter;stroke-miterlimit:10;"/><text fill="#000000" font-family="sans-serif" font-size="13" lengthAdjust="spacing" textLength="320.7344" x="855" y="220.6669">&#171;include&#187; completarGestion() [cancelaci&#243;n/error]</text></g><?plantuml-src XPB1QXin48RlUeh1kTW79n2Qq2p1eExQZM5T1zlD9GGpgnrIDR9caRIqfkI1UkuZvCKgEmcnDskYcpJV_yy_W_o3jXKwN87HbiAw8gZOh3SN8HofWFRU41obsV2BF8DEae_d2xcK-VV9j-byEPdE5pEPoGwWXrpxW1FsmM69hUAhA9xEnZ9_CLXcmuNCSvbDjmPNqO2THfDHG6Emv5QNb6EjO8T1iuMKLvM9lFjAVlEmTMe-2b6XUi1x0iNMroPMddkGDFNAyaRJQIzrUntu8o2UdIpdfnV3qGNiWJUQVZMvugmepp_3Cv2o3Ivc9zV4HgSo_JHymMPKiTTn4Uj3c8zx8giqxg2FGkpj7_hzmVjy2HmQKeXtCFJBwD7CdW0NiJkvaLO_y7NHNTnYux8dce9jakPe2HIrLp451lRNv3nRDEG_j6aPFSw4HjK6tJKxHJRWJthZTYrRHZm-7hHykmGkBxLLfYvfC83Rfx-_OwUx0_BcNziNgqQrsuDRXLQHGQMV_jaJSexTtNy0?></g></svg>