<svg xmlns="http://www.w3.org/2000/svg" xmlns:xlink="http://www.w3.org/1999/xlink" version="1.1" data-diagram-type="DESCRIPTION" style="width:1187px;height:432px;background:#FFFFFF;" width="1187px" height="432px" viewBox="0 0 1187 432" zoomAndPan="magnify" preserveAspectRatio="none" contentStyleType="text/css"><?plantuml 1.2026.7beta8?><defs/><g font-family="sans-serif" lengthAdjust="spacing"><!--cluster editarSesionClase--><g class="cluster" data-qualified-name="editarSesionClase" id="ent0002" data-source-line="5"><path d="M193.84,6 L349.64,6 A3.75,3.75 0 0 1 352.14,8.5 L359.14,28.297 L1169.84,28.297 A2.5,2.5 0 0 1 1172.34,30.797 L1172.34,414.69 A2.5,2.5 0 0 1 1169.84,417.19 L193.84,417.19 A2.5,2.5 0 0 1 191.34,414.69 L191.34,8.5 A2.5,2.5 0 0 1 193.84,6" style="stroke:#000;stroke-width:1.5;" fill="none"/><line x1="191.34" y1="28.297" x2="359.14" y2="28.297" style="stroke:#000;stroke-width:1.5;"/><text x="195.34" y="20.995" fill="#000" font-size="14" textLength="154.8" font-weight="700">editarSesionClase()</text></g><!--entity EditarSesionClaseView--><g class="entity" data-qualified-name="editarSesionClase.EditarSesionClaseView" id="ent0003" data-source-line="6"><rect x="344.72" y="41" width="179.25" height="36.297" fill="#629EF9" style="stroke:#181818;stroke-width:0.5;" rx="2.5" ry="2.5"/><text x="354.72" y="63.995" fill="#000" font-size="14" textLength="159.25">EditarSesionClaseView</text></g><!--entity SesionClaseController--><g class="entity" data-qualified-name="editarSesionClase.SesionClaseController" id="ent0004" data-source-line="7"><rect x="372.62" y="154.3" width="173.446" height="36.297" fill="#B5BD68" style="stroke:#181818;stroke-width:0.5;" rx="2.5" ry="2.5"/><text x="382.62" y="177.295" fill="#000" font-size="14" textLength="153.446">SesionClaseController</text></g><!--entity AsignaturaRepository--><g class="entity" data-qualified-name="editarSesionClase.AsignaturaRepository" id="ent0005" data-source-line="8"><rect x="206.91" y="267.6" width="170.869" height="36.297" fill="#F2AC4E" style="stroke:#181818;stroke-width:0.5;" rx="2.5" ry="2.5"/><text x="216.91" y="290.595" fill="#000" font-size="14" textLength="150.869">AsignaturaRepository</text></g><!--entity SesionClaseRepository--><g class="entity" data-qualified-name="editarSesionClase.SesionClaseRepository" id="ent0006" data-source-line="9"><rect x="479.67" y="267.6" width="179.346" height="36.297" fill="#F2AC4E" style="stroke:#181818;stroke-width:0.5;" rx="2.5" ry="2.5"/><text x="489.67" y="290.595" fill="#000" font-size="14" textLength="159.346">SesionClaseRepository</text></g><!--entity Asignatura--><g class="entity" data-qualified-name="editarSesionClase.Asignatura" id="ent0007" data-source-line="10"><rect x="244.44" y="364.89" width="95.797" height="36.297" fill="#F2AC4E" style="stroke:#181818;stroke-width:0.5;" rx="2.5" ry="2.5"/><text x="254.44" y="387.885" fill="#000" font-size="14" textLength="75.797">Asignatura</text></g><!--entity SesionDeClase--><g class="entity" data-qualified-name="editarSesionClase.SesionDeClase" id="ent0008" data-source-line="11"><rect x="507.51" y="364.89" width="123.667" height="36.297" fill="#F2AC4E" style="stroke:#181818;stroke-width:0.5;" rx="2.5" ry="2.5"/><text x="517.51" y="387.885" fill="#000" font-size="14" textLength="103.667">SesionDeClase</text></g><!--entity SesionClaseAbierta--><g class="entity" data-qualified-name="SesionClaseAbierta" id="ent0001" data-source-line="3"><rect x="7" y="41" width="168.682" height="36.297" fill="#CDEBA5" style="stroke:#181818;stroke-width:0.5;" rx="2.5" ry="2.5"/><text x="17" y="63.995" fill="#000" font-size="14" textLength="148.682">:Sesion Clase Abierta</text></g><!--link SesionClaseAbierta to EditarSesionClaseView--><g class="link" data-entity-1="ent0001" data-entity-2="ent0003" id="lnk9" data-source-line="14" data-link-type="dependency"><path d="M176.13,59.15 C227.21,59.15 287.22,59.15 339.23,59.15" style="stroke:#181818;stroke-width:1;" fill="none" id="SesionClaseAbierta-to-EditarSesionClaseView"/><polygon points="344.23,59.15,335.23,55.15,339.23,59.15,335.23,63.15,344.23,59.15" fill="#181818" style="stroke:#181818;stroke-width:1;stroke-linejoin:miter;stroke-miterlimit:10;"/><text x="197.2" y="52.217" fill="#000" font-size="13" textLength="126.667">editarSesionClase()</text></g><!--link EditarSesionClaseView to SesionClaseController--><g class="link" data-entity-1="ent0003" data-entity-2="ent0004" id="lnk10" data-source-line="15" data-link-type="dependency"><path d="M361.45,77.77 C306.07,91.17 239.34,107.3 239.34,107.3 C239.34,107.3 239.34,124.3 239.34,124.3 C239.34,124.3 309.731,139.382 372.221,152.772" style="stroke:#181818;stroke-width:1;" fill="none" id="EditarSesionClaseView-to-SesionClaseController"/><polygon points="377.11,153.82,369.148,148.023,372.221,152.772,367.472,155.846,377.11,153.82" fill="#181818" style="stroke:#181818;stroke-width:1;stroke-linejoin:miter;stroke-miterlimit:10;"/><text x="240.34" y="120.367" fill="#000" font-size="13" textLength="157.289">obtenerSesion(sesionId)</text></g><!--link EditarSesionClaseView to SesionClaseController--><g class="link" data-entity-1="ent0003" data-entity-2="ent0004" id="lnk13" data-source-line="18" data-link-type="dependency"><path d="M435.43,77.68 C436.62,96.67 438.34,124.3 438.34,124.3 C438.34,124.3 443.515,135.923 449.485,149.323" style="stroke:#181818;stroke-width:1;" fill="none" id="EditarSesionClaseView-to-SesionClaseController-1"/><polygon points="451.52,153.89,451.511,144.041,449.485,149.323,444.204,147.297,451.52,153.89" fill="#181818" style="stroke:#181818;stroke-width:1;stroke-linejoin:miter;stroke-miterlimit:10;"/><text x="439.34" y="120.367" fill="#000" font-size="13" textLength="195.603">cargarAsignaturas(profesorId)</text></g><!--link EditarSesionClaseView to SesionClaseController--><g class="link" data-entity-1="ent0003" data-entity-2="ent0004" id="lnk16" data-source-line="21" data-link-type="dependency"><path d="M510.97,77.77 C569.19,91.17 639.34,107.3 639.34,107.3 C639.34,107.3 639.34,124.3 639.34,124.3 C639.34,124.3 582.587,139.163 531.457,152.553" style="stroke:#181818;stroke-width:1;" fill="none" id="EditarSesionClaseView-to-SesionClaseController-2"/><polygon points="526.62,153.82,536.34,155.409,531.457,152.553,534.313,147.67,526.62,153.82" fill="#181818" style="stroke:#181818;stroke-width:1;stroke-linejoin:miter;stroke-miterlimit:10;"/><text x="640.34" y="120.367" fill="#000" font-size="13" textLength="476.544">editarSesionClase(sesionId, asignaturaId, fecha, horaInicio, horaFin, tipo)</text></g><!--link SesionClaseController to SesionClaseRepository--><g class="link" data-entity-1="ent0004" data-entity-2="ent0006" id="lnk11" data-source-line="16" data-link-type="dependency"><path d="M463.71,190.98 C468.45,209.97 475.34,237.6 475.34,237.6 C475.34,237.6 503.141,251.538 529.871,264.948" style="stroke:#181818;stroke-width:1;" fill="none" id="SesionClaseController-to-SesionClaseRepository"/><polygon points="534.34,267.19,528.089,259.579,529.871,264.948,524.502,266.73,534.34,267.19" fill="#181818" style="stroke:#181818;stroke-width:1;stroke-linejoin:miter;stroke-miterlimit:10;"/><text x="476.34" y="233.667" fill="#000" font-size="13" textLength="116.956">findById(sesionId)</text></g><!--link SesionClaseController to SesionClaseRepository--><g class="link" data-entity-1="ent0004" data-entity-2="ent0006" id="lnk17" data-source-line="22" data-link-type="dependency"><path d="M510.73,191 C549.96,204.41 597.34,220.6 597.34,220.6 C597.34,220.6 597.34,237.6 597.34,237.6 C597.34,237.6 590.282,249.48 582.322,262.89" style="stroke:#181818;stroke-width:1;" fill="none" id="SesionClaseController-to-SesionClaseRepository-1"/><polygon points="579.77,267.19,587.804,261.492,582.322,262.89,580.924,257.409,579.77,267.19" fill="#181818" style="stroke:#181818;stroke-width:1;stroke-linejoin:miter;stroke-miterlimit:10;"/><text x="598.34" y="233.667" fill="#000" font-size="13" textLength="153.689">update(sesionId, datos)</text></g><!--link SesionClaseRepository to SesionDeClase--><g class="link" data-entity-1="ent0006" data-entity-2="ent0008" id="lnk12" data-source-line="17" data-link-type="association"><path d="M569.34,304.22 C569.34,321.42 569.34,347.52 569.34,364.67" style="stroke:#181818;stroke-width:1;" fill="none" id="SesionClaseRepository-SesionDeClase"/></g><!--link SesionClaseController to AsignaturaRepository--><g class="link" data-entity-1="ent0004" data-entity-2="ent0005" id="lnk14" data-source-line="19" data-link-type="dependency"><path d="M396.41,191 C348.36,204.41 290.34,220.6 290.34,220.6 C290.34,220.6 290.34,237.6 290.34,237.6 C290.34,237.6 290.818,248.785 291.388,262.195" style="stroke:#181818;stroke-width:1;" fill="none" id="SesionClaseController-to-AsignaturaRepository"/><polygon points="291.6,267.19,295.214,258.028,291.388,262.195,287.221,258.368,291.6,267.19" fill="#181818" style="stroke:#181818;stroke-width:1;stroke-linejoin:miter;stroke-miterlimit:10;"/><text x="291.34" y="233.667" fill="#000" font-size="13" textLength="171.501">findByProfesor(profesorId)</text></g><!--link AsignaturaRepository to Asignatura--><g class="link" data-entity-1="ent0005" data-entity-2="ent0007" id="lnk15" data-source-line="20" data-link-type="association"><path d="M292.34,304.22 C292.34,321.42 292.34,347.52 292.34,364.67" style="stroke:#181818;stroke-width:1;" fill="none" id="AsignaturaRepository-Asignatura"/></g><?plantuml-src dPDDRuCm38Rl-HKMkxHIkLHhjNAOH2b8lKsRjBiXBetAaYX9DQ5f_ttG3q5frgdZ4cnUFx5V2xiJKgF13wY495Th0gsgkWqOCrGub6L5y92iqcKyWo1w8okKXAH2In3dWep30D32ySCXVqepfh7OOKb0N3WqFKLR45nbH-C0lXWqJ-_c-NIHPWj8X-9tGPz3RJxB-VoftqgYf3EggiWCjTaqJXvJYAqe9RgzmLVIoWgdJFsBj8VzKzjXRy9MTC2nRyQk_OFGXC_-mIFmcCUyKWXvG_5Q4e7A7KawbOpiuLZpCVFA8Rm4TIP4i16IB-irzpCwPSCOZ7v_qmMQ4atdi1rfepPabRdTkc_LvyvVJeGBbA-W7Q2ttFkxlrxSsR99yrUSmMsqeMAB4zYg9fIY4EhudWav0IUq-iUQzfgZwz_OXCgEVm00?></g></svg>