<svg xmlns="http://www.w3.org/2000/svg" xmlns:xlink="http://www.w3.org/1999/xlink" version="1.1" data-diagram-type="DESCRIPTION" style="width:1882px;height:432px;background:#FFFFFF;" width="1882px" height="432px" viewBox="0 0 1882 432" zoomAndPan="magnify" preserveAspectRatio="none" contentStyleType="text/css"><?plantuml 1.2026.7beta3?><defs/><g><!--cluster editarSesionClase--><g class="cluster" data-qualified-name="editarSesionClase" id="ent0002" data-source-line="5"><path d="M243.76,6 L399.5598,6 A3.75,3.75 0 0 1 402.0598,8.5 L409.0598,28.2969 L1864.76,28.2969 A2.5,2.5 0 0 1 1867.26,30.7969 L1867.26,414.69 A2.5,2.5 0 0 1 1864.76,417.19 L243.76,417.19 A2.5,2.5 0 0 1 241.26,414.69 L241.26,8.5 A2.5,2.5 0 0 1 243.76,6" style="stroke:#000000;stroke-width:1.5;" fill="none"/><line x1="241.26" y1="28.2969" x2="409.0598" y2="28.2969" style="stroke:#000000;stroke-width:1.5;"/><text x="245.26" y="20.9951" fill="#000000" font-size="14" lengthAdjust="spacing" textLength="154.7998" font-weight="700" font-family="sans-serif">editarSesionClase()</text></g><!--entity EditarSesionClaseView--><g class="entity" data-qualified-name="editarSesionClase.EditarSesionClaseView" id="ent0003" data-source-line="6"><rect x="510.63" y="41" width="179.25" height="36.2969" fill="#629EF9" style="stroke:#181818;stroke-width:0.5;" rx="2.5" ry="2.5"/><text x="520.63" y="63.9951" fill="#000000" font-size="14" lengthAdjust="spacing" textLength="159.25" font-family="sans-serif">EditarSesionClaseView</text></g><!--entity SesionClaseController--><g class="entity" data-qualified-name="editarSesionClase.SesionClaseController" id="ent0004" data-source-line="7"><rect x="752.53" y="154.3" width="173.4463" height="36.2969" fill="#B5BD68" style="stroke:#181818;stroke-width:0.5;" rx="2.5" ry="2.5"/><text x="762.53" y="177.2951" fill="#000000" font-size="14" lengthAdjust="spacing" textLength="153.4463" font-family="sans-serif">SesionClaseController</text></g><!--entity AsignaturaRepository--><g class="entity" data-qualified-name="editarSesionClase.AsignaturaRepository" id="ent0005" data-source-line="8"><rect x="382.82" y="267.6" width="170.8691" height="36.2969" fill="#F2AC4E" style="stroke:#181818;stroke-width:0.5;" rx="2.5" ry="2.5"/><text x="392.82" y="290.5951" fill="#000000" font-size="14" lengthAdjust="spacing" textLength="150.8691" font-family="sans-serif">AsignaturaRepository</text></g><!--entity SesionClaseRepository--><g class="entity" data-qualified-name="editarSesionClase.SesionClaseRepository" id="ent0006" data-source-line="9"><rect x="898.58" y="267.6" width="179.3457" height="36.2969" fill="#F2AC4E" style="stroke:#181818;stroke-width:0.5;" rx="2.5" ry="2.5"/><text x="908.58" y="290.5951" fill="#000000" font-size="14" lengthAdjust="spacing" textLength="159.3457" font-family="sans-serif">SesionClaseRepository</text></g><!--entity Asignatura--><g class="entity" data-qualified-name="editarSesionClase.Asignatura" id="ent0007" data-source-line="10"><rect x="420.36" y="364.89" width="95.7969" height="36.2969" fill="#F2AC4E" style="stroke:#181818;stroke-width:0.5;" rx="2.5" ry="2.5"/><text x="430.36" y="387.8851" fill="#000000" font-size="14" lengthAdjust="spacing" textLength="75.7969" font-family="sans-serif">Asignatura</text></g><!--entity SesionDeClase--><g class="entity" data-qualified-name="editarSesionClase.SesionDeClase" id="ent0008" data-source-line="11"><rect x="926.42" y="364.89" width="123.667" height="36.2969" fill="#F2AC4E" style="stroke:#181818;stroke-width:0.5;" rx="2.5" ry="2.5"/><text x="936.42" y="387.8851" fill="#000000" font-size="14" lengthAdjust="spacing" textLength="103.667" font-family="sans-serif">SesionDeClase</text></g><!--entity DashboardProfesorAbierto--><g class="entity" data-qualified-name="DashboardProfesorAbierto" id="ent0001" data-source-line="3"><rect x="7" y="41" width="218.5156" height="36.2969" fill="#CDEBA5" style="stroke:#181818;stroke-width:0.5;" rx="2.5" ry="2.5"/><text x="17" y="63.9951" fill="#000000" font-size="14" lengthAdjust="spacing" textLength="198.5156" font-family="sans-serif">:Dashboard Profesor Abierto</text></g><!--link DashboardProfesorAbierto to EditarSesionClaseView--><g class="link" data-entity-1="ent0001" data-entity-2="ent0003" id="lnk9" data-source-line="14" data-link-type="dependency"><path d="M225.78,59.15 C311.67,59.15 424.74,59.15 505.19,59.15" style="stroke:#181818;stroke-width:1;" fill="none" id="DashboardProfesorAbierto-to-EditarSesionClaseView"/><polygon points="510.19,59.15,501.19,55.15,505.19,59.15,501.19,63.15,510.19,59.15" fill="#181818" style="stroke:#181818;stroke-width:1;stroke-linejoin:miter;stroke-miterlimit:10;"/><text x="305.07" y="52.2169" fill="#000000" font-size="13" lengthAdjust="spacing" textLength="126.6675" font-family="sans-serif">editarSesionClase()</text></g><!--link EditarSesionClaseView to SesionClaseController--><g class="link" data-entity-1="ent0003" data-entity-2="ent0004" id="lnk10" data-source-line="16" data-link-type="dependency"><path d="M510.3,73.79 C418.45,87.71 289.26,107.3 289.26,107.3 C289.26,107.3 289.26,124.3 289.26,124.3 C289.26,124.3 592.0383,150.2528 747.1283,163.5528" style="stroke:#181818;stroke-width:1;" fill="none" id="EditarSesionClaseView-to-SesionClaseController"/><polygon points="752.11,163.98,743.4847,159.2256,747.1283,163.5528,742.8011,167.1964,752.11,163.98" fill="#181818" style="stroke:#181818;stroke-width:1;stroke-linejoin:miter;stroke-miterlimit:10;"/><text x="290.26" y="120.3669" fill="#000000" font-size="13" lengthAdjust="spacing" textLength="266.1953" font-family="sans-serif">obtenerSesion(sesionId) : SesionDeClase</text></g><!--link EditarSesionClaseView to SesionClaseController--><g class="link" data-entity-1="ent0003" data-entity-2="ent0004" id="lnk13" data-source-line="22" data-link-type="dependency"><path d="M599.14,77.71 C598.29,91.11 597.26,107.3 597.26,107.3 C597.26,107.3 597.26,124.3 597.26,124.3 C597.26,124.3 677.9422,140.0243 747.3222,153.5343" style="stroke:#181818;stroke-width:1;" fill="none" id="EditarSesionClaseView-to-SesionClaseController-1"/><polygon points="752.23,154.49,744.1605,148.8435,747.3222,153.5343,742.6314,156.696,752.23,154.49" fill="#181818" style="stroke:#181818;stroke-width:1;stroke-linejoin:miter;stroke-miterlimit:10;"/><text x="598.26" y="120.3669" fill="#000000" font-size="13" lengthAdjust="spacing" textLength="323.1401" font-family="sans-serif">cargarAsignaturas(profesorId) : List&lt;Asignatura></text></g><!--link EditarSesionClaseView to SesionClaseController--><g class="link" data-entity-1="ent0003" data-entity-2="ent0004" id="lnk16" data-source-line="28" data-link-type="dependency"><path d="M690.2,73.16 C786.7,87.11 926.26,107.3 926.26,107.3 C926.26,107.3 926.26,124.3 926.26,124.3 C926.26,124.3 900.7865,138.1087 876.0465,151.5087" style="stroke:#181818;stroke-width:1;" fill="none" id="EditarSesionClaseView-to-SesionClaseController-2"/><polygon points="871.65,153.89,881.4688,153.1209,876.0465,151.5087,877.6587,146.0864,871.65,153.89" fill="#181818" style="stroke:#181818;stroke-width:1;stroke-linejoin:miter;stroke-miterlimit:10;"/><text x="927.26" y="120.3669" fill="#000000" font-size="13" lengthAdjust="spacing" textLength="318.792" font-family="sans-serif">validarDatos(asignaturaId, fecha, aula) : boolean</text></g><!--link EditarSesionClaseView to SesionClaseController--><g class="link" data-entity-1="ent0003" data-entity-2="ent0004" id="lnk17" data-source-line="30" data-link-type="dependency"><path d="M690.16,66.63 C869.43,79.56 1254.26,107.3 1254.26,107.3 C1254.26,107.3 1254.26,124.3 1254.26,124.3 C1254.26,124.3 1052.9181,147.1758 931.2281,160.9958" style="stroke:#181818;stroke-width:1;" fill="none" id="EditarSesionClaseView-to-SesionClaseController-3"/><polygon points="926.26,161.56,935.6539,164.5189,931.2281,160.9958,934.7511,156.57,926.26,161.56" fill="#181818" style="stroke:#181818;stroke-width:1;stroke-linejoin:miter;stroke-miterlimit:10;"/><text x="1255.26" y="120.3669" fill="#000000" font-size="13" lengthAdjust="spacing" textLength="524.0752" font-family="sans-serif">editarSesionClase(sesionId, asignaturaId, fecha, aula, duracion) : SesionDeClase</text></g><!--link SesionClaseController to SesionClaseRepository--><g class="link" data-entity-1="ent0004" data-entity-2="ent0006" id="lnk11" data-source-line="18" data-link-type="dependency"><path d="M838.14,191 C837.29,204.41 836.26,220.6 836.26,220.6 C836.26,220.6 836.26,237.6 836.26,237.6 C836.26,237.6 883.6646,252.2983 926.8846,265.7083" style="stroke:#181818;stroke-width:1;" fill="none" id="SesionClaseController-to-SesionClaseRepository"/><polygon points="931.66,267.19,924.2496,260.7026,926.8846,265.7083,921.8789,268.3433,931.66,267.19" fill="#181818" style="stroke:#181818;stroke-width:1;stroke-linejoin:miter;stroke-miterlimit:10;"/><text x="837.26" y="233.6669" fill="#000000" font-size="13" lengthAdjust="spacing" textLength="256.5913" font-family="sans-serif">obtenerPorId(sesionId) : SesionDeClase</text></g><!--link SesionClaseController to SesionClaseRepository--><g class="link" data-entity-1="ent0004" data-entity-2="ent0006" id="lnk18" data-source-line="32" data-link-type="dependency"><path d="M926.22,189.28 C1001.46,202.98 1098.26,220.6 1098.26,220.6 C1098.26,220.6 1098.26,237.6 1098.26,237.6 C1098.26,237.6 1065.0853,251.8093 1033.8153,265.2193" style="stroke:#181818;stroke-width:1;" fill="none" id="SesionClaseController-to-SesionClaseRepository-1"/><polygon points="1029.22,267.19,1039.068,267.319,1033.8153,265.2193,1035.915,259.9666,1029.22,267.19" fill="#181818" style="stroke:#181818;stroke-width:1;stroke-linejoin:miter;stroke-miterlimit:10;"/><text x="1099.26" y="233.6669" fill="#000000" font-size="13" lengthAdjust="spacing" textLength="471.3262" font-family="sans-serif">actualizar(sesionId, asignaturaId, fecha, aula, duracion) : SesionDeClase</text></g><!--link SesionClaseRepository to SesionDeClase--><g class="link" data-entity-1="ent0006" data-entity-2="ent0008" id="lnk12" data-source-line="20" data-link-type="association"><path d="M988.26,304.22 C988.26,321.42 988.26,347.52 988.26,364.67" style="stroke:#181818;stroke-width:1;" fill="none" id="SesionClaseRepository-SesionDeClase"/></g><!--link SesionClaseController to AsignaturaRepository--><g class="link" data-entity-1="ent0004" data-entity-2="ent0005" id="lnk14" data-source-line="24" data-link-type="dependency"><path d="M752.07,185.47 C650.75,199.44 497.26,220.6 497.26,220.6 C497.26,220.6 486.8298,243.664 478.2398,262.664" style="stroke:#181818;stroke-width:1;" fill="none" id="SesionClaseController-to-AsignaturaRepository"/><polygon points="476.18,267.22,483.5324,260.667,478.2398,262.664,476.2428,257.3713,476.18,267.22" fill="#181818" style="stroke:#181818;stroke-width:1;stroke-linejoin:miter;stroke-miterlimit:10;"/><text x="498.26" y="233.6669" fill="#000000" font-size="13" lengthAdjust="spacing" textLength="329.7671" font-family="sans-serif">obtenerPorProfesor(profesorId) : List&lt;Asignatura></text></g><!--link AsignaturaRepository to Asignatura--><g class="link" data-entity-1="ent0005" data-entity-2="ent0007" id="lnk15" data-source-line="26" data-link-type="association"><path d="M468.26,304.22 C468.26,321.42 468.26,347.52 468.26,364.67" style="stroke:#181818;stroke-width:1;" fill="none" id="AsignaturaRepository-Asignatura"/></g><?plantuml-src hP9DQy9048Rl-ok6zA9WBbAbbI9O4q7eGLheVP8TTN6R3RDhYotzxqsicZGcsgzSbkoyyyoyisDNAacHyGcqIiXjKeBKw4t-8mHJx31PQ8ABSH3UZdhW3GAqoyWWIvYncPCr3AD84JlZ0LeuXFVHNL285ECLBWX8AeVyG5QPPApHKfxc7TsssXwy2SY-KXVzxdKukOQmAdvKz5BLHhr8zg-Wf1gRnB7HchYgdNH7uyiGHbOj4dHhndjAZLNEyAP1MiAUrHROax20jZZnBaJJ5C5dVrXlVm0r8nIYLWk-p32ranc0YHmbj4jfsUqnbMqOLDeKjVdWVoKNmpcGPuQdyflW8Zq3LtK_znOZBv2Bzx2jT3VWpqRkb7KtHNXuocJTifGzxf_kR8awKEwsj3PDLfkTFgDM4Zb0PsmB3wIfxC2SuYLs0DSQyuOYOpHXyeiQnmktVzICtbIo0pAxZ3FPVwmKncwTENr5_cFj3m00?></g></svg>