<svg xmlns="http://www.w3.org/2000/svg" xmlns:xlink="http://www.w3.org/1999/xlink" version="1.1" data-diagram-type="SEQUENCE" style="width:1286px;height:729px;background:#FFFFFF;" width="1286px" height="729px" viewBox="0 0 1286 729" zoomAndPan="magnify" preserveAspectRatio="none" contentStyleType="text/css"><?plantuml 1.2026.7beta8?><defs/><g font-family="sans-serif" lengthAdjust="spacing"><g class="title" data-source-line="1"><text x="319.577" y="27.995" fill="#000" font-size="14" textLength="645.162" font-weight="700">Diagrama de Secuencia - Editar Solicitud de Dispensa (Vue 3 + Express + Prisma)</text></g><g><title>Usuario</title><rect x="36.102" y="125.891" width="8" height="514.391" fill="#000" fill-opacity="0"/><line x1="39.602" y1="125.891" x2="39.602" y2="640.281" style="stroke:#181818;stroke-width:0.5;stroke-dasharray:5,5;"/></g><g><title>Frontend</title><rect x="391.149" y="125.891" width="8" height="514.391" fill="#000" fill-opacity="0"/><line x1="394.649" y1="125.891" x2="394.649" y2="640.281" style="stroke:#181818;stroke-width:0.5;stroke-dasharray:5,5;"/></g><g><title></title><rect x="389.649" y="155.023" width="10" height="467.258" fill="#FFF" style="stroke:#181818;stroke-width:1;"/></g><g><title>DispensaController</title><rect x="622.449" y="125.891" width="8" height="514.391" fill="#000" fill-opacity="0"/><line x1="625.949" y1="125.891" x2="625.949" y2="640.281" style="stroke:#181818;stroke-width:0.5;stroke-dasharray:5,5;"/></g><g><title></title><rect x="620.949" y="184.156" width="10" height="145.664" fill="#FFF" style="stroke:#181818;stroke-width:1;"/></g><g><title></title><rect x="620.949" y="432.352" width="10" height="160.797" fill="#FFF" style="stroke:#181818;stroke-width:1;"/></g><g><title>DispensaService</title><rect x="929.521" y="125.891" width="8" height="514.391" fill="#000" fill-opacity="0"/><line x1="933.021" y1="125.891" x2="933.021" y2="640.281" style="stroke:#181818;stroke-width:0.5;stroke-dasharray:5,5;"/></g><g><title></title><rect x="928.021" y="213.289" width="10" height="87.398" fill="#FFF" style="stroke:#181818;stroke-width:1;"/></g><g><title></title><rect x="928.021" y="461.484" width="10" height="102.531" fill="#FFF" style="stroke:#181818;stroke-width:1;"/></g><g><title>Base de Datos</title><rect x="1218.216" y="125.891" width="8" height="514.391" fill="#000" fill-opacity="0"/><line x1="1221.716" y1="125.891" x2="1221.716" y2="640.281" style="stroke:#181818;stroke-width:0.5;stroke-dasharray:5,5;"/></g><g><title></title><rect x="1216.716" y="242.422" width="10" height="29.133" fill="#FFF" style="stroke:#181818;stroke-width:1;"/></g><g><title></title><rect x="1216.716" y="505.75" width="10" height="29.133" fill="#FFF" style="stroke:#181818;stroke-width:1;"/></g><text x="10" y="122.589" fill="#000" font-size="14" textLength="53.204">Usuario</text><ellipse cx="39.602" cy="58.094" rx="8" ry="8" fill="#E2E2F0" style="stroke:#181818;stroke-width:0.5;"/><path d="M39.602,66.094 L39.602,93.094 M26.602,74.094 L52.602,74.094 M39.602,93.094 L26.602,108.094 M39.602,93.094 L52.602,108.094" style="stroke:#181818;stroke-width:0.5;" fill="none"/><rect x="356.095" y="78.297" width="77.109" height="46.594" fill="#E2E2F0" style="stroke:#181818;stroke-width:0.5;" rx="2.5" ry="2.5"/><text x="363.095" y="98.292" fill="#000" font-size="14" textLength="63.109">Frontend</text><text x="368.977" y="114.589" fill="#000" font-size="14" textLength="51.345">(Vue 3)</text><rect x="552.258" y="94.594" width="147.383" height="30.297" fill="#E2E2F0" style="stroke:#181818;stroke-width:0.5;" rx="2.5" ry="2.5"/><text x="559.258" y="114.589" fill="#000" font-size="14" textLength="133.383">DispensaController</text><rect x="868.045" y="94.594" width="129.951" height="30.297" fill="#E2E2F0" style="stroke:#181818;stroke-width:0.5;" rx="2.5" ry="2.5"/><text x="875.045" y="114.589" fill="#000" font-size="14" textLength="115.951">DispensaService</text><text x="1168.117" y="106.292" fill="#000" font-size="14" textLength="101.199">Base de Datos</text><text x="1172.878" y="122.589" fill="#000" font-size="14" textLength="91.677">(PostgreSQL)</text><path d="M1203.716,57.297 C1203.716,47.297 1221.716,47.297 1221.716,47.297 C1221.716,47.297 1239.716,47.297 1239.716,57.297 L1239.716,83.297 C1239.716,93.297 1221.716,93.297 1221.716,93.297 C1221.716,93.297 1203.716,93.297 1203.716,83.297 L1203.716,57.297" style="stroke:#181818;stroke-width:0.5;" fill="#E2E2F0"/><path d="M1203.716,57.297 C1203.716,67.297 1221.716,67.297 1221.716,67.297 C1221.716,67.297 1239.716,67.297 1239.716,57.297" style="stroke:#181818;stroke-width:0.5;" fill="none"/><text x="10" y="653.276" fill="#000" font-size="14" textLength="53.204">Usuario</text><ellipse cx="39.602" cy="665.078" rx="8" ry="8" fill="#E2E2F0" style="stroke:#181818;stroke-width:0.5;"/><path d="M39.602,673.078 L39.602,700.078 M26.602,681.078 L52.602,681.078 M39.602,700.078 L26.602,715.078 M39.602,700.078 L52.602,715.078" style="stroke:#181818;stroke-width:0.5;" fill="none"/><rect x="356.095" y="640.281" width="77.109" height="46.594" fill="#E2E2F0" style="stroke:#181818;stroke-width:0.5;" rx="2.5" ry="2.5"/><text x="363.095" y="660.276" fill="#000" font-size="14" textLength="63.109">Frontend</text><text x="368.977" y="676.573" fill="#000" font-size="14" textLength="51.345">(Vue 3)</text><rect x="552.258" y="640.281" width="147.383" height="30.297" fill="#E2E2F0" style="stroke:#181818;stroke-width:0.5;" rx="2.5" ry="2.5"/><text x="559.258" y="660.276" fill="#000" font-size="14" textLength="133.383">DispensaController</text><rect x="868.045" y="640.281" width="129.951" height="30.297" fill="#E2E2F0" style="stroke:#181818;stroke-width:0.5;" rx="2.5" ry="2.5"/><text x="875.045" y="660.276" fill="#000" font-size="14" textLength="115.951">DispensaService</text><text x="1168.117" y="653.276" fill="#000" font-size="14" textLength="101.199">Base de Datos</text><text x="1172.878" y="669.573" fill="#000" font-size="14" textLength="91.677">(PostgreSQL)</text><path d="M1203.716,682.875 C1203.716,672.875 1221.716,672.875 1221.716,672.875 C1221.716,672.875 1239.716,672.875 1239.716,682.875 L1239.716,708.875 C1239.716,718.875 1221.716,718.875 1221.716,718.875 C1221.716,718.875 1203.716,718.875 1203.716,708.875 L1203.716,682.875" style="stroke:#181818;stroke-width:0.5;" fill="#E2E2F0"/><path d="M1203.716,682.875 C1203.716,692.875 1221.716,692.875 1221.716,692.875 C1221.716,692.875 1239.716,692.875 1239.716,682.875" style="stroke:#181818;stroke-width:0.5;" fill="none"/><polygon points="377.649,151.023,387.649,155.023,377.649,159.023,381.649,155.023" fill="#181818" style="stroke:#181818;stroke-width:1;stroke-linejoin:miter;stroke-miterlimit:10;"/><line x1="39.602" y1="155.023" x2="383.649" y2="155.023" style="stroke:#181818;stroke-width:1;"/><text x="46.602" y="149.958" fill="#000" font-size="13" textLength="326.047">accede a editar solicitud de dispensa (dispensaId)</text><polygon points="608.949,180.156,618.949,184.156,608.949,188.156,612.949,184.156" fill="#181818" style="stroke:#181818;stroke-width:1;stroke-linejoin:miter;stroke-miterlimit:10;"/><line x1="399.649" y1="184.156" x2="614.949" y2="184.156" style="stroke:#181818;stroke-width:1;"/><text x="406.649" y="179.09" fill="#000" font-size="13" textLength="202.3">GET /api/dispensas/:dispensaId</text><polygon points="916.021,209.289,926.021,213.289,916.021,217.289,920.021,213.289" fill="#181818" style="stroke:#181818;stroke-width:1;stroke-linejoin:miter;stroke-miterlimit:10;"/><line x1="630.949" y1="213.289" x2="922.021" y2="213.289" style="stroke:#181818;stroke-width:1;"/><text x="637.949" y="208.223" fill="#000" font-size="13" textLength="161.065">getDispensa(dispensaId)</text><polygon points="1204.716,238.422,1214.716,242.422,1204.716,246.422,1208.716,242.422" fill="#181818" style="stroke:#181818;stroke-width:1;stroke-linejoin:miter;stroke-miterlimit:10;"/><line x1="938.021" y1="242.422" x2="1210.716" y2="242.422" style="stroke:#181818;stroke-width:1;"/><text x="945.021" y="237.356" fill="#000" font-size="13" textLength="259.695">SELECT * FROM Dispensa WHERE id = ?</text><polygon points="949.021,267.555,939.021,271.555,949.021,275.555,945.021,271.555" fill="#181818" style="stroke:#181818;stroke-width:1;stroke-linejoin:miter;stroke-miterlimit:10;"/><line x1="943.021" y1="271.555" x2="1215.716" y2="271.555" style="stroke:#181818;stroke-width:1;stroke-dasharray:2,2;"/><text x="955.021" y="266.489" fill="#000" font-size="13" textLength="130.133">dispensa : Dispensa</text><polygon points="641.949,296.688,631.949,300.688,641.949,304.688,637.949,300.688" fill="#181818" style="stroke:#181818;stroke-width:1;stroke-linejoin:miter;stroke-miterlimit:10;"/><line x1="635.949" y1="300.688" x2="927.021" y2="300.688" style="stroke:#181818;stroke-width:1;stroke-dasharray:2,2;"/><text x="647.949" y="295.622" fill="#000" font-size="13" textLength="130.133">dispensa : Dispensa</text><polygon points="410.649,325.82,400.649,329.82,410.649,333.82,406.649,329.82" fill="#181818" style="stroke:#181818;stroke-width:1;stroke-linejoin:miter;stroke-miterlimit:10;"/><line x1="404.649" y1="329.82" x2="619.949" y2="329.82" style="stroke:#181818;stroke-width:1;stroke-dasharray:2,2;"/><text x="416.649" y="324.754" fill="#000" font-size="13" textLength="134.507">200 OK { dispensa }</text><polygon points="50.602,354.953,40.602,358.953,50.602,362.953,46.602,358.953" fill="#181818" style="stroke:#181818;stroke-width:1;stroke-linejoin:miter;stroke-miterlimit:10;"/><line x1="44.602" y1="358.953" x2="388.649" y2="358.953" style="stroke:#181818;stroke-width:1;stroke-dasharray:2,2;"/><text x="56.602" y="353.887" fill="#000" font-size="13" textLength="252.059">muestra formulario con datos actuales</text><polygon points="377.649,384.086,387.649,388.086,377.649,392.086,381.649,388.086" fill="#181818" style="stroke:#181818;stroke-width:1;stroke-linejoin:miter;stroke-miterlimit:10;"/><line x1="39.602" y1="388.086" x2="383.649" y2="388.086" style="stroke:#181818;stroke-width:1;"/><text x="46.602" y="383.02" fill="#000" font-size="13" textLength="169.419">modifica datos y confirma</text><polygon points="608.949,428.352,618.949,432.352,608.949,436.352,612.949,432.352" fill="#181818" style="stroke:#181818;stroke-width:1;stroke-linejoin:miter;stroke-miterlimit:10;"/><line x1="399.649" y1="432.352" x2="614.949" y2="432.352" style="stroke:#181818;stroke-width:1;"/><text x="406.649" y="412.153" fill="#000" font-size="13" textLength="201.367">PUT /api/dispensas/:dispensaId</text><text x="406.649" y="427.286" fill="#000" font-size="13" textLength="60.849">{ datos }</text><polygon points="916.021,457.484,926.021,461.484,916.021,465.484,920.021,461.484" fill="#181818" style="stroke:#181818;stroke-width:1;stroke-linejoin:miter;stroke-miterlimit:10;"/><line x1="630.949" y1="461.484" x2="922.021" y2="461.484" style="stroke:#181818;stroke-width:1;"/><text x="637.949" y="456.418" fill="#000" font-size="13" textLength="278.072">editarSolicitudDispensa(dispensaId, datos)</text><polygon points="1204.716,501.75,1214.716,505.75,1204.716,509.75,1208.716,505.75" fill="#181818" style="stroke:#181818;stroke-width:1;stroke-linejoin:miter;stroke-miterlimit:10;"/><line x1="938.021" y1="505.75" x2="1210.716" y2="505.75" style="stroke:#181818;stroke-width:1;"/><text x="945.021" y="485.551" fill="#000" font-size="13" textLength="161.237">UPDATE Dispensa SET ...</text><text x="945.021" y="500.684" fill="#000" font-size="13" textLength="90.143">WHERE id = ?</text><polygon points="949.021,530.883,939.021,534.883,949.021,538.883,945.021,534.883" fill="#181818" style="stroke:#181818;stroke-width:1;stroke-linejoin:miter;stroke-miterlimit:10;"/><line x1="943.021" y1="534.883" x2="1215.716" y2="534.883" style="stroke:#181818;stroke-width:1;stroke-dasharray:2,2;"/><text x="955.021" y="529.817" fill="#000" font-size="13" textLength="130.133">dispensa : Dispensa</text><polygon points="641.949,560.016,631.949,564.016,641.949,568.016,637.949,564.016" fill="#181818" style="stroke:#181818;stroke-width:1;stroke-linejoin:miter;stroke-miterlimit:10;"/><line x1="635.949" y1="564.016" x2="927.021" y2="564.016" style="stroke:#181818;stroke-width:1;stroke-dasharray:2,2;"/><text x="647.949" y="558.95" fill="#000" font-size="13" textLength="130.133">dispensa : Dispensa</text><polygon points="410.649,589.148,400.649,593.148,410.649,597.148,406.649,593.148" fill="#181818" style="stroke:#181818;stroke-width:1;stroke-linejoin:miter;stroke-miterlimit:10;"/><line x1="404.649" y1="593.148" x2="619.949" y2="593.148" style="stroke:#181818;stroke-width:1;stroke-dasharray:2,2;"/><text x="416.649" y="588.083" fill="#000" font-size="13" textLength="134.507">200 OK { dispensa }</text><polygon points="50.602,618.281,40.602,622.281,50.602,626.281,46.602,622.281" fill="#181818" style="stroke:#181818;stroke-width:1;stroke-linejoin:miter;stroke-miterlimit:10;"/><line x1="44.602" y1="622.281" x2="388.649" y2="622.281" style="stroke:#181818;stroke-width:1;stroke-dasharray:2,2;"/><text x="56.602" y="617.215" fill="#000" font-size="13" textLength="233.207">solicitud actualizada correctamente</text><?plantuml-src vPDFRzD04CNl-ob6EH4WIGMtI50rjGk8eeOwePTSXjr9j9AzQ-skAw3gT-yu_hDE5Gezzn9jx7c_dNdp77J82HADEuS5WYB8I5Paf4QOGAfqG0UPpRNKeLBr-qJxaen7UFMZ8dWFRo3zLJhodazBfts1Oo5G1kjWjFOLEcr7W1xQioZH1QQLQ0ACBfmrWOpQc8OstfTsJmzhkulF-QMpUKvkNnp_7Y_FoDrgIVlQzYmK1lo9dc2qg7_hgJ1OprqihGyxHzdtowQLP254spbCFlQTmHnGIc8X0ZKc-Q59gZUfEtrHuzeLVOk1ue2Y1p8yJiBuJ-aAPbZgMGVmitbaHTHWV340CAuTbbax2fqRn_lfV16TXkN9WfLPUfcUh-0rN5nVVOkhl_cSNgUW5No0qqXXhrWqERYwDsBUguMYeIJU-TY2VsZxfeTZ7-xetSa9N7s5kuYw7nA6tiL5CABR-1oAYdnm25lhYYhVFvJMWAhZmX485URa_nQHmYgzrHBRyj-rTAjTWK_iVRb-QkyRSzV2xfyNWIQa_OTy90vl6_3_f6AzJCvMQOn3nbcTJgSRyt9o4R_s9WJw3oha_Jf7Cc11h1aIEye3?></g></svg>