<svg xmlns="http://www.w3.org/2000/svg" xmlns:xlink="http://www.w3.org/1999/xlink" contentStyleType="text/css" data-diagram-type="DESCRIPTION" height="435px" preserveAspectRatio="none" style="width:966px;height:435px;background:#FFFFFF;" version="1.1" viewBox="0 0 966 435" width="966px" zoomAndPan="magnify"><?plantuml 1.2026.5?><defs/><g><!--cluster consultarListaAlumnos--><g class="cluster" data-qualified-name="consultarListaAlumnos" data-source-line="7" id="ent0004"><path d="M8.5,106.3 L202.6221,106.3 A3.75,3.75 0 0 1 205.1221,108.8 L212.1221,128.5969 L413.5,128.5969 A2.5,2.5 0 0 1 416,131.0969 L416,417.69 A2.5,2.5 0 0 1 413.5,420.19 L8.5,420.19 A2.5,2.5 0 0 1 6,417.69 L6,108.8 A2.5,2.5 0 0 1 8.5,106.3" fill="none" style="stroke:#000000;stroke-width:1.5;"/><line style="stroke:#000000;stroke-width:1.5;" x1="6" x2="212.1221" y1="128.5969" y2="128.5969"/><text fill="#000000" font-family="sans-serif" font-size="14" font-weight="700" lengthAdjust="spacing" textLength="193.1221" x="10" y="121.2951">consultarListaAlumnos()</text></g><!--entity ListaAlumnosView--><g class="entity" data-qualified-name="consultarListaAlumnos.ListaAlumnosView" data-source-line="8" id="ent0005"><rect fill="#629EF9" height="36.2969" rx="2.5" ry="2.5" style="stroke:#181818;stroke-width:0.5;" width="147.292" x="252.35" y="141.3"/><text fill="#000000" font-family="sans-serif" font-size="14" lengthAdjust="spacing" textLength="127.292" x="262.35" y="164.2951">ListaAlumnosView</text></g><!--entity GrupoController--><g class="entity" data-qualified-name="consultarListaAlumnos.GrupoController" data-source-line="9" id="ent0006"><rect fill="#B5BD68" height="36.2969" rx="2.5" ry="2.5" style="stroke:#181818;stroke-width:0.5;" width="132.1025" x="21.95" y="254.6"/><text fill="#000000" font-family="sans-serif" font-size="14" lengthAdjust="spacing" textLength="112.1025" x="31.95" y="277.5951">GrupoController</text></g><!--entity AlumnoRepository--><g class="entity" data-qualified-name="consultarListaAlumnos.AlumnoRepository" data-source-line="10" id="ent0007"><rect fill="#F2AC4E" height="36.2969" rx="2.5" ry="2.5" style="stroke:#181818;stroke-width:0.5;" width="148.4883" x="21.76" y="367.89"/><text fill="#000000" font-family="sans-serif" font-size="14" lengthAdjust="spacing" textLength="128.4883" x="31.76" y="390.8851">AlumnoRepository</text></g><!--entity PanelProfesor--><g class="entity" data-qualified-name="PanelProfesor" data-source-line="3" id="ent0001"><rect fill="#CDEBA5" height="36.2969" rx="2.5" ry="2.5" style="stroke:#181818;stroke-width:0.5;" width="152.5762" x="249.71" y="7"/><text fill="#000000" font-family="sans-serif" font-size="14" lengthAdjust="spacing" textLength="132.5762" x="259.71" y="29.9951">:PANEL_PROFESOR</text></g><!--entity ListaMostrada--><g class="entity" data-qualified-name="ListaMostrada" data-source-line="4" id="ent0002"><rect fill="#CDEBA5" height="36.2969" rx="2.5" ry="2.5" style="stroke:#181818;stroke-width:0.5;" width="227.9424" x="432.03" y="254.6"/><text fill="#000000" font-family="sans-serif" font-size="14" lengthAdjust="spacing" textLength="207.9424" x="442.03" y="277.5951">:LISTA_ALUMNOS_MOSTRADA</text></g><!--entity CompletarGestion--><g class="entity" data-qualified-name="CompletarGestion" data-source-line="5" id="ent0003"><rect fill="#CDEBA5" height="36.2969" rx="2.5" ry="2.5" style="stroke:#181818;stroke-width:0.5;" width="249.2363" x="695.38" y="254.6"/><text fill="#000000" font-family="sans-serif" font-size="14" lengthAdjust="spacing" textLength="229.2363" x="705.38" y="277.5951">:Collaboration CompletarGestion</text></g><!--link PanelProfesor to ListaAlumnosView--><g class="link" data-entity-1="ent0001" data-entity-2="ent0005" data-link-type="dependency" data-source-line="13" id="lnk8"><path d="M326,43.72 C326,69.02 326,110.46 326,135.81" fill="none" id="PanelProfesor-to-ListaAlumnosView" style="stroke:#181818;stroke-width:1;"/><polygon fill="#181818" points="326,140.81,330,131.81,326,135.81,322,131.81,326,140.81" style="stroke:#181818;stroke-width:1;stroke-linejoin:miter;stroke-miterlimit:10;"/><text fill="#000000" font-family="sans-serif" font-size="13" lengthAdjust="spacing" textLength="157.5806" x="327" y="86.3669">consultarListaAlumnos()</text></g><!--link ListaAlumnosView to GrupoController--><g class="link" data-entity-1="ent0005" data-entity-2="ent0006" data-link-type="dependency" data-source-line="15" id="lnk9"><path d="M252.19,174.15 C177.2,188.07 72,207.6 72,207.6 C72,207.6 72,224.6 72,224.6 C72,224.6 75.8835,236.0451 80.4335,249.4551" fill="none" id="ListaAlumnosView-to-GrupoController" style="stroke:#181818;stroke-width:1;"/><polygon fill="#181818" points="82.04,254.19,82.9361,244.382,80.4335,249.4551,75.3603,246.9525,82.04,254.19" style="stroke:#181818;stroke-width:1;stroke-linejoin:miter;stroke-miterlimit:10;"/><text fill="#000000" font-family="sans-serif" font-size="13" lengthAdjust="spacing" textLength="341.6943" x="73" y="220.6669">buscarAlumnosPorAsignatura(asignaturaId, grupoId)</text></g><!--link GrupoController to AlumnoRepository--><g class="link" data-entity-1="ent0006" data-entity-2="ent0007" data-link-type="dependency" data-source-line="16" id="lnk10"><path d="M89.25,291.13 C90.74,311.92 92.8721,341.5228 94.3721,362.4228" fill="none" id="GrupoController-to-AlumnoRepository" style="stroke:#181818;stroke-width:1;"/><polygon fill="#181818" points="94.73,367.41,98.0755,358.1467,94.3721,362.4228,90.096,358.7194,94.73,367.41" style="stroke:#181818;stroke-width:1;stroke-linejoin:miter;stroke-miterlimit:10;"/><text fill="#000000" font-family="sans-serif" font-size="13" lengthAdjust="spacing" textLength="324.9556" x="94" y="333.9569">filtrarPorGrupoYAsignatura(asignaturaId, grupoId)</text></g><!--link ListaAlumnosView to ListaMostrada--><g class="link" data-entity-1="ent0005" data-entity-2="ent0002" data-link-type="dependency" data-source-line="18" id="lnk11"><path d="M360.86,178.08 C402.05,198.92 465.7183,231.1331 506.8383,251.9331" fill="none" id="ListaAlumnosView-to-ListaMostrada" style="stroke:#181818;stroke-width:1;stroke-dasharray:7,7;"/><polygon fill="#181818" points="511.3,254.19,505.0745,246.5583,506.8383,251.9331,501.4635,253.697,511.3,254.19" style="stroke:#181818;stroke-width:1;stroke-linejoin:miter;stroke-miterlimit:10;"/><text fill="#000000" font-family="sans-serif" font-size="13" lengthAdjust="spacing" textLength="109.6367" x="451" y="220.6669">&#171;include&#187; [&#233;xito]</text></g><!--link ListaAlumnosView to CompletarGestion--><g class="link" data-entity-1="ent0005" data-entity-2="ent0003" data-link-type="dependency" data-source-line="19" id="lnk12"><path d="M399.9,174.79 C471.39,188.66 569,207.6 569,207.6 C569,207.6 671.9357,233.9019 746.2357,252.8919" fill="none" id="ListaAlumnosView-to-CompletarGestion" style="stroke:#181818;stroke-width:1;stroke-dasharray:7,7;"/><polygon fill="#181818" points="751.08,254.13,743.3508,248.0259,746.2357,252.8919,741.3698,255.7768,751.08,254.13" style="stroke:#181818;stroke-width:1;stroke-linejoin:miter;stroke-miterlimit:10;"/><text fill="#000000" font-family="sans-serif" font-size="13" lengthAdjust="spacing" textLength="320.7344" x="630" y="220.6669">&#171;include&#187; completarGestion() [cancelaci&#243;n/error]</text></g><?plantuml-src XPBHIWCn44NVynL3VMd1LYWgkaWXRhTIQEtIgY2bb6asbc2QB9CiMiGFyjbFyCVShY9jh9YdPEQUEvSaxb6P70bNe9MHVfrBoArURmwCaHGUpL9BE8YxoIK_WLgKykjaC4_7eruo6OrhW0vID5AdP1-aixGN6lGdDtpE1xV3wz5aFXnDRiQyoojue9p7eNMUCCEzS6orneKbzCeQYEqgrz8ZNKctALGcOP6n7CKZBYK8QroXoqurX-jYPQpR8BMzdNgZ1YyCohMLvBHzdlJEOLjtf-HJA5kSBBBJCxYY8hUnDPxAt992LQ_Du-C4ldp6ChTEUKjhzihOpZr2izdvDJA2Fr8p5agXcPK6GPW85eKJID-wr19tQcdG5uHr_DdsiqDORiX-rc21HPKhJ1_1WzBb2rBfMEdl__VzdRZLwkn-XmWkBfGHkiXafmFJZxVdSjfiFnX-WLrM1Drw0wO2ZP0QXVfuDqUIoDBi4m00?></g></svg>