<svg xmlns="http://www.w3.org/2000/svg" xmlns:xlink="http://www.w3.org/1999/xlink" contentStyleType="text/css" data-diagram-type="STATE" height="1496px" preserveAspectRatio="none" style="width:1241px;height:1496px;background:#FFFFFF;" version="1.1" viewBox="0 0 1241 1496" width="1241px" zoomAndPan="magnify"><title>Crear solicitud de dispensa</title><defs/><g><g class="title" data-source-line="1"><text fill="#000000" font-family="sans-serif" font-size="14" font-weight="bold" lengthAdjust="spacing" textLength="214.9082" x="506.2126" y="32.9951">Crear solicitud de dispensa</text></g><g id="DISPENSAS_ABIERTO_INICIAL"><rect fill="#F1F1F1" height="76.2969" rx="12.5" ry="12.5" style="stroke:#181818;stroke-width:0.5;" width="187.3623" x="659" y="203.2969"/><line style="stroke:#181818;stroke-width:0.5;" x1="659" x2="846.3623" y1="249.5938" y2="249.5938"/><text fill="#000000" font-family="sans-serif" font-size="14" lengthAdjust="spacing" textLength="147.3623" x="679" y="231.292">DISPENSAS_ABIERTO</text></g><path d="M404,399.2969 L1101.4521,399.2969 A12.5,12.5 0 0 1 1113.9521,411.7969 L1113.9521,445.5938 L391.5,445.5938 L391.5,411.7969 A12.5,12.5 0 0 1 404,399.2969" fill="#F1F1F1"/><rect fill="none" height="511.2969" rx="12.5" ry="12.5" style="stroke:#181818;stroke-width:0.5;" width="722.4521" x="391.5" y="399.2969"/><line style="stroke:#181818;stroke-width:0.5;" x1="391.5" x2="1113.9521" y1="445.5938" y2="445.5938"/><text fill="#000000" font-family="sans-serif" font-size="14" lengthAdjust="spacing" textLength="208.0586" x="648.6968" y="427.292">SOLICITUD_DISPENSA_NUEVA</text><g id="SOLICITUD_DISPENSA_NUEVA_COMP.CapturaDatos"><rect fill="#F1F1F1" height="76.2969" rx="12.5" ry="12.5" style="stroke:#181818;stroke-width:0.5;" width="163.0469" x="665.5" y="520.0938"/><line style="stroke:#181818;stroke-width:0.5;" x1="665.5" x2="828.5469" y1="566.3906" y2="566.3906"/><text fill="#000000" font-family="sans-serif" font-size="14" lengthAdjust="spacing" textLength="123.0469" x="685.5" y="548.0889">Captura de Datos</text></g><g id="SOLICITUD_DISPENSA_NUEVA_COMP.ValidarDatos"><rect fill="#F1F1F1" height="76.2969" rx="12.5" ry="12.5" style="stroke:#181818;stroke-width:0.5;" width="179.5352" x="657" y="647.0938"/><line style="stroke:#181818;stroke-width:0.5;" x1="657" x2="836.5352" y1="693.3906" y2="693.3906"/><text fill="#000000" font-family="sans-serif" font-size="14" lengthAdjust="spacing" textLength="139.5352" x="677" y="675.0889">Validaci&#243;n de Datos</text></g><g id="SOLICITUD_DISPENSA_NUEVA_COMP.CreacionExitosa"><rect fill="#F1F1F1" height="76.2969" rx="12.5" ry="12.5" style="stroke:#181818;stroke-width:0.5;" width="154.707" x="669.5" y="766.5938"/><line style="stroke:#181818;stroke-width:0.5;" x1="669.5" x2="824.207" y1="812.8906" y2="812.8906"/><text fill="#000000" font-family="sans-serif" font-size="14" lengthAdjust="spacing" textLength="114.707" x="689.5" y="794.5889">Solicitud Creada</text></g><ellipse cx="747" cy="466.5938" fill="#222222" rx="10" ry="10" style="stroke:#222222;stroke-width:1;"/><ellipse cx="747" cy="889.5938" fill="none" rx="11" ry="11" style="stroke:#222222;stroke-width:1;"/><ellipse cx="747" cy="889.5938" fill="#222222" rx="6" ry="6" style="stroke:#222222;stroke-width:1;"/><g class="entity" data-entity="GMN5" data-source-line="35" data-uid="ent0006" id="entity_GMN5"><path d="M847,512.5938 L847,554.5938 L828.66,558.5938 L847,562.5938 L847,603.125 A0,0 0 0 0 847,603.125 L1089.1318,603.125 A0,0 0 0 0 1089.1318,603.125 L1089.1318,522.5938 L1079.1318,512.5938 L847,512.5938 A0,0 0 0 0 847,512.5938" fill="#FEFFDD" style="stroke:#181818;stroke-width:0.5;"/><path d="M1079.1318,512.5938 L1079.1318,522.5938 L1089.1318,522.5938 L1079.1318,512.5938" fill="#FEFFDD" style="stroke:#181818;stroke-width:0.5;"/><text fill="#000000" font-family="sans-serif" font-size="13" font-weight="bold" lengthAdjust="spacing" textLength="120.999" x="863" y="539.6606">Sistema permite</text><text fill="#000000" font-family="sans-serif" font-size="13" lengthAdjust="spacing" textLength="76.0005" x="988.1313" y="539.6606">ingresar los</text><text fill="#000000" font-family="sans-serif" font-size="13" lengthAdjust="spacing" textLength="134.9448" x="863" y="554.7935">datos de la solicitud:</text><text fill="#000000" font-family="sans-serif" font-size="13" lengthAdjust="spacing" textLength="152.0137" x="863" y="569.9263">Nombre/ID, asignatura,</text><text fill="#000000" font-family="sans-serif" font-size="13" lengthAdjust="spacing" textLength="196.3457" x="863" y="585.0591">motivo, documentos y fechas.</text></g><g class="entity" data-entity="GMN8" data-source-line="44" data-uid="ent0009" id="entity_GMN8"><path d="M425,655.0938 L425,715.3594 A0,0 0 0 0 425,715.3594 L638.6245,715.3594 A0,0 0 0 0 638.6245,715.3594 L638.6245,689.5938 L656.79,685.5938 L638.6245,681.5938 L638.6245,665.0938 L628.6245,655.0938 L425,655.0938 A0,0 0 0 0 425,655.0938" fill="#FEFFDD" style="stroke:#181818;stroke-width:0.5;"/><path d="M628.6245,655.0938 L628.6245,665.0938 L638.6245,665.0938 L628.6245,655.0938" fill="#FEFFDD" style="stroke:#181818;stroke-width:0.5;"/><text fill="#000000" font-family="sans-serif" font-size="13" font-weight="bold" lengthAdjust="spacing" textLength="112.7598" x="441" y="682.1606">Alumno solicita</text><text fill="#000000" font-family="sans-serif" font-size="13" lengthAdjust="spacing" textLength="55.7324" x="557.8921" y="682.1606">registrar</text><text fill="#000000" font-family="sans-serif" font-size="13" lengthAdjust="spacing" textLength="165.6865" x="441" y="697.2935">la informaci&#243;n ingresada.</text></g><g class="entity" data-entity="GMN11" data-source-line="51" data-uid="ent0012" id="entity_GMN11"><path d="M855,639.5938 L855,681.5938 L837.08,685.5938 L855,689.5938 L855,730.125 A0,0 0 0 0 855,730.125 L1104.9521,730.125 A0,0 0 0 0 1104.9521,730.125 L1104.9521,649.5938 L1094.9521,639.5938 L855,639.5938 A0,0 0 0 0 855,639.5938" fill="#FEFFDD" style="stroke:#181818;stroke-width:0.5;"/><path d="M1094.9521,639.5938 L1094.9521,649.5938 L1104.9521,649.5938 L1094.9521,639.5938" fill="#FEFFDD" style="stroke:#181818;stroke-width:0.5;"/><text fill="#000000" font-family="sans-serif" font-size="13" font-weight="bold" lengthAdjust="spacing" textLength="107.6689" x="871" y="666.6606">Sistema valida</text><text fill="#000000" font-family="sans-serif" font-size="13" lengthAdjust="spacing" textLength="97.1509" x="982.8013" y="666.6606">la informaci&#243;n.</text><text fill="#000000" font-family="sans-serif" font-size="13" font-weight="bold" lengthAdjust="spacing" textLength="91.5522" x="871" y="681.7935">Si hay error:</text><text fill="#000000" font-family="sans-serif" font-size="13" lengthAdjust="spacing" textLength="165.4961" x="871" y="696.9263">informa inconsistencias y</text><text fill="#000000" font-family="sans-serif" font-size="13" lengthAdjust="spacing" textLength="121.9258" x="871" y="712.0591">solicita correcci&#243;n.</text></g><g class="entity" data-entity="GMN14" data-source-line="60" data-uid="ent0015" id="entity_GMN14"><path d="M402.5,767.0938 L402.5,842.4922 A0,0 0 0 0 402.5,842.4922 L651.2969,842.4922 A0,0 0 0 0 651.2969,842.4922 L651.2969,808.5938 L669.29,804.5938 L651.2969,800.5938 L651.2969,777.0938 L641.2969,767.0938 L402.5,767.0938 A0,0 0 0 0 402.5,767.0938" fill="#FEFFDD" style="stroke:#181818;stroke-width:0.5;"/><path d="M641.2969,767.0938 L641.2969,777.0938 L651.2969,777.0938 L641.2969,767.0938" fill="#FEFFDD" style="stroke:#181818;stroke-width:0.5;"/><text fill="#000000" font-family="sans-serif" font-size="13" font-weight="bold" lengthAdjust="spacing" textLength="107.6689" x="418.5" y="794.1606">Sistema valida</text><text fill="#000000" font-family="sans-serif" font-size="13" lengthAdjust="spacing" textLength="95.9956" x="530.3013" y="794.1606">correctamente</text><text fill="#000000" font-family="sans-serif" font-size="13" lengthAdjust="spacing" textLength="177.0679" x="418.5" y="809.2935">los datos y crea la solicitud</text><text fill="#000000" font-family="sans-serif" font-size="13" lengthAdjust="spacing" textLength="82.3799" x="418.5" y="824.4263">de dispensa.</text></g><g class="entity" data-entity="GMN17" data-source-line="68" data-uid="ent0018" id="entity_GMN17"><path d="M843,774.5938 L843,800.5938 L824.52,804.5938 L843,808.5938 L843,834.8594 A0,0 0 0 0 843,834.8594 L1089.1753,834.8594 A0,0 0 0 0 1089.1753,834.8594 L1089.1753,784.5938 L1079.1753,774.5938 L843,774.5938 A0,0 0 0 0 843,774.5938" fill="#FEFFDD" style="stroke:#181818;stroke-width:0.5;"/><path d="M1079.1753,774.5938 L1079.1753,784.5938 L1089.1753,784.5938 L1079.1753,774.5938" fill="#FEFFDD" style="stroke:#181818;stroke-width:0.5;"/><text fill="#000000" font-family="sans-serif" font-size="13" font-weight="bold" lengthAdjust="spacing" textLength="128.1655" x="859" y="801.6606">Sistema confirma</text><text fill="#000000" font-family="sans-serif" font-size="13" lengthAdjust="spacing" textLength="71.1191" x="991.2979" y="801.6606">la creaci&#243;n</text><text fill="#000000" font-family="sans-serif" font-size="13" lengthAdjust="spacing" textLength="205.1753" x="859" y="816.7935">y muestra el detalle registrado.</text></g><!--link *start*SOLICITUD_DISPENSA_NUEVA_COMP to CapturaDatos--><g class="link" data-entity-1=".start.SOLICITUD_DISPENSA_NUEVA_COMP" data-entity-2="CapturaDatos" data-source-line="32" data-uid="lnk6" id="link_.start.SOLICITUD_DISPENSA_NUEVA_COMP_CapturaDatos"><path d="M747,476.7338 C747,487.1538 747,498.0338 747,513.7238" fill="none" id="*start*SOLICITUD_DISPENSA_NUEVA_COMP-to-CapturaDatos" style="stroke:#008000;stroke-width:1;"/><polygon fill="#008000" points="747,519.7238,751,510.7238,747,514.7238,743,510.7238,747,519.7238" style="stroke:#008000;stroke-width:1;"/></g><!--link CapturaDatos to ValidarDatos--><g class="link" data-entity-1="CapturaDatos" data-entity-2="ValidarDatos" data-source-line="41" data-uid="lnk7" id="link_CapturaDatos_ValidarDatos"><path d="M719.83,596.1938 C719.83,612.2738 719.83,624.9438 719.83,641.0138" fill="none" id="CapturaDatos-to-ValidarDatos" style="stroke:#008000;stroke-width:1;"/><polygon fill="#008000" points="719.83,647.0138,723.83,638.0138,719.83,642.0138,715.83,638.0138,719.83,647.0138" style="stroke:#008000;stroke-width:1;"/></g><!--link ValidarDatos to CapturaDatos--><g class="link" data-entity-1="ValidarDatos" data-entity-2="CapturaDatos" data-source-line="48" data-uid="lnk8" id="link_ValidarDatos_CapturaDatos"><path d="M774.17,646.9938 C774.17,630.9137 774.17,618.2438 774.17,602.1737" fill="none" id="ValidarDatos-to-CapturaDatos" style="stroke:#FF0000;stroke-width:1;"/><polygon fill="#FF0000" points="774.17,596.1737,770.17,605.1737,774.17,601.1737,778.17,605.1737,774.17,596.1737" style="stroke:#FF0000;stroke-width:1;"/></g><!--link ValidarDatos to CreacionExitosa--><g class="link" data-entity-1="ValidarDatos" data-entity-2="CreacionExitosa" data-source-line="57" data-uid="lnk9" id="link_ValidarDatos_CreacionExitosa"><path d="M747,723.2338 C747,737.0338 747,746.6038 747,760.4038" fill="none" id="ValidarDatos-to-CreacionExitosa" style="stroke:#008000;stroke-width:1;"/><polygon fill="#008000" points="747,766.4038,751,757.4038,747,761.4038,743,757.4038,747,766.4038" style="stroke:#008000;stroke-width:1;"/></g><!--link CreacionExitosa to *end*SOLICITUD_DISPENSA_NUEVA_COMP--><g class="link" data-entity-1="CreacionExitosa" data-entity-2=".end.SOLICITUD_DISPENSA_NUEVA_COMP" data-source-line="65" data-uid="lnk11" id="link_CreacionExitosa_.end.SOLICITUD_DISPENSA_NUEVA_COMP"><path d="M747,842.6138 C747,855.7038 747,863.3538 747,872.5538" fill="none" id="CreacionExitosa-to-*end*SOLICITUD_DISPENSA_NUEVA_COMP" style="stroke:#008000;stroke-width:1;"/><polygon fill="#008000" points="747,878.5538,751,869.5538,747,873.5538,743,869.5538,747,878.5538" style="stroke:#008000;stroke-width:1;"/></g><g id="DISPENSAS_ABIERTO_FINAL"><rect fill="#F1F1F1" height="76.2969" rx="12.5" ry="12.5" style="stroke:#181818;stroke-width:0.5;" width="187.3623" x="659" y="1272.2969"/><line style="stroke:#181818;stroke-width:0.5;" x1="659" x2="846.3623" y1="1318.5938" y2="1318.5938"/><text fill="#000000" font-family="sans-serif" font-size="14" lengthAdjust="spacing" textLength="147.3623" x="679" y="1300.292">DISPENSAS_ABIERTO</text></g><ellipse cx="752.5" cy="73.2969" fill="#222222" rx="10" ry="10" style="stroke:#222222;stroke-width:1;"/><ellipse cx="752.5" cy="1479.2969" fill="none" rx="11" ry="11" style="stroke:#222222;stroke-width:1;"/><ellipse cx="752.5" cy="1479.2969" fill="#222222" rx="6" ry="6" style="stroke:#222222;stroke-width:1;"/><g class="entity" data-entity="GMN2" data-source-line="19" data-uid="ent0003" id="entity_GMN2"><path d="M6,609.2969 L6,699.8281 A0,0 0 0 0 6,699.8281 L270.5391,699.8281 A0,0 0 0 0 270.5391,699.8281 L270.5391,659.2969 L391.46,655.2969 L270.5391,651.2969 L270.5391,619.2969 L260.5391,609.2969 L6,609.2969 A0,0 0 0 0 6,609.2969" fill="#FEFFDD" style="stroke:#181818;stroke-width:0.5;"/><path d="M260.5391,609.2969 L260.5391,619.2969 L270.5391,619.2969 L260.5391,609.2969" fill="#FEFFDD" style="stroke:#181818;stroke-width:0.5;"/><text fill="#000000" font-family="sans-serif" font-size="13" font-weight="bold" lengthAdjust="spacing" textLength="112.7598" x="22" y="636.3638">Alumno solicita</text><text fill="#000000" font-family="sans-serif" font-size="13" lengthAdjust="spacing" textLength="106.647" x="138.8921" y="636.3638">crear una nueva</text><text fill="#000000" font-family="sans-serif" font-size="13" lengthAdjust="spacing" textLength="140.8101" x="22" y="651.4966">solicitud de dispensa.</text><text fill="#000000" font-family="sans-serif" font-size="13" font-weight="bold" lengthAdjust="spacing" textLength="120.999" x="22" y="666.6294">Sistema permite</text><text fill="#000000" font-family="sans-serif" font-size="13" lengthAdjust="spacing" textLength="67.5645" x="147.1313" y="666.6294">acceder al</text><text fill="#000000" font-family="sans-serif" font-size="13" lengthAdjust="spacing" textLength="146.2881" x="22" y="681.7622">formulario de registro.</text></g><g class="entity" data-entity="GMN20" data-source-line="76" data-uid="ent0021" id="entity_GMN20"><path d="M308.5,1280.2969 L308.5,1340.5625 A0,0 0 0 0 308.5,1340.5625 L538.1523,1340.5625 A0,0 0 0 0 538.1523,1340.5625 L538.1523,1314.2969 L658.95,1310.2969 L538.1523,1306.2969 L538.1523,1290.2969 L528.1523,1280.2969 L308.5,1280.2969 A0,0 0 0 0 308.5,1280.2969" fill="#FEFFDD" style="stroke:#181818;stroke-width:0.5;"/><path d="M528.1523,1280.2969 L528.1523,1290.2969 L538.1523,1290.2969 L528.1523,1280.2969" fill="#FEFFDD" style="stroke:#181818;stroke-width:0.5;"/><text fill="#000000" font-family="sans-serif" font-size="13" font-weight="bold" lengthAdjust="spacing" textLength="112.7598" x="324.5" y="1307.3638">Alumno solicita</text><text fill="#000000" font-family="sans-serif" font-size="13" lengthAdjust="spacing" textLength="61.8389" x="441.3921" y="1307.3638">continuar</text><text fill="#000000" font-family="sans-serif" font-size="13" lengthAdjust="spacing" textLength="188.6523" x="324.5" y="1322.4966">con la edici&#243;n de la solicitud.</text></g><g class="entity" data-entity="GMN23" data-source-line="84" data-uid="ent0024" id="entity_GMN23"><path d="M966.5,1272.7969 L966.5,1306.2969 L846.22,1310.2969 L966.5,1314.2969 L966.5,1348.1953 A0,0 0 0 0 966.5,1348.1953 L1234.3335,1348.1953 A0,0 0 0 0 1234.3335,1348.1953 L1234.3335,1282.7969 L1224.3335,1272.7969 L966.5,1272.7969 A0,0 0 0 0 966.5,1272.7969" fill="#FEFFDD" style="stroke:#181818;stroke-width:0.5;"/><path d="M1224.3335,1272.7969 L1224.3335,1282.7969 L1234.3335,1282.7969 L1224.3335,1272.7969" fill="#FEFFDD" style="stroke:#181818;stroke-width:0.5;"/><text fill="#000000" font-family="sans-serif" font-size="13" font-weight="bold" lengthAdjust="spacing" textLength="112.7598" x="982.5" y="1299.8638">Alumno solicita</text><text fill="#000000" font-family="sans-serif" font-size="13" lengthAdjust="spacing" textLength="109.9414" x="1099.3921" y="1299.8638">salir del registro.</text><text fill="#000000" font-family="sans-serif" font-size="13" font-weight="bold" lengthAdjust="spacing" textLength="120.999" x="982.5" y="1314.9966">Sistema permite</text><text fill="#000000" font-family="sans-serif" font-size="13" lengthAdjust="spacing" textLength="51.7524" x="1107.6313" y="1314.9966">finalizar</text><text fill="#000000" font-family="sans-serif" font-size="13" lengthAdjust="spacing" textLength="71.2969" x="982.5" y="1330.1294">el proceso.</text></g><!--link *start* to DISPENSAS_ABIERTO_INICIAL--><g class="link" data-entity-1=".start." data-entity-2="DISPENSAS_ABIERTO_INICIAL" data-source-line="14" data-uid="lnk3" id="link_.start._DISPENSAS_ABIERTO_INICIAL"><path d="M752.5,83.3069 C752.5,106.3269 752.5,158.0869 752.5,197.0069" fill="none" id="*start*-to-DISPENSAS_ABIERTO_INICIAL" style="stroke:#008000;stroke-width:1;"/><polygon fill="#008000" points="752.5,203.0069,756.5,194.0069,752.5,198.0069,748.5,194.0069,752.5,203.0069" style="stroke:#008000;stroke-width:1;"/></g><!--link DISPENSAS_ABIERTO_INICIAL to SOLICITUD_DISPENSA_NUEVA_COMP--><g class="link" data-entity-1="DISPENSAS_ABIERTO_INICIAL" data-entity-2="SOLICITUD_DISPENSA_NUEVA_COMP" data-source-line="16" data-uid="lnk4" id="link_DISPENSAS_ABIERTO_INICIAL_SOLICITUD_DISPENSA_NUEVA_COMP"><path d="M752.5,279.4569 C752.5,308.7469 752.5,346.0069 752.5,392.8369" fill="none" id="DISPENSAS_ABIERTO_INICIAL-to-SOLICITUD_DISPENSA_NUEVA_COMP" style="stroke:#008000;stroke-width:1;"/><polygon fill="#008000" points="752.5,398.8369,756.5,389.8369,752.5,393.8369,748.5,389.8369,752.5,398.8369" style="stroke:#008000;stroke-width:1;"/><text fill="#000000" font-family="sans-serif" font-size="13" lengthAdjust="spacing" textLength="159.3452" x="582.5" y="325.2138">crearSolicitudDispensa()</text></g><!--link SOLICITUD_DISPENSA_NUEVA_COMP to DISPENSAS_ABIERTO_FINAL--><g class="link" data-entity-1="SOLICITUD_DISPENSA_NUEVA_COMP" data-entity-2="DISPENSAS_ABIERTO_FINAL" data-source-line="73" data-uid="lnk12" id="link_SOLICITUD_DISPENSA_NUEVA_COMP_DISPENSAS_ABIERTO_FINAL"><path d="M721.33,910.5769 C721.33,1047.4669 721.33,1195.9669 721.33,1266.0669" fill="none" id="SOLICITUD_DISPENSA_NUEVA_COMP-to-DISPENSAS_ABIERTO_FINAL" style="stroke:#008000;stroke-width:1;"/><polygon fill="#008000" points="721.33,1272.0669,725.33,1263.0669,721.33,1267.0669,717.33,1263.0669,721.33,1272.0669" style="stroke:#008000;stroke-width:1;"/><text fill="#000000" font-family="sans-serif" font-size="13" lengthAdjust="spacing" textLength="163.814" x="547.33" y="1077.3938">editarSolicitudDispensa()</text></g><!--link SOLICITUD_DISPENSA_NUEVA_COMP to DISPENSAS_ABIERTO_FINAL--><g class="link" data-entity-1="SOLICITUD_DISPENSA_NUEVA_COMP" data-entity-2="DISPENSAS_ABIERTO_FINAL" data-source-line="81" data-uid="lnk13" id="link_SOLICITUD_DISPENSA_NUEVA_COMP_DISPENSAS_ABIERTO_FINAL"><path d="M783.67,910.5769 C783.67,1047.4669 783.67,1195.9669 783.67,1266.0669" fill="none" id="SOLICITUD_DISPENSA_NUEVA_COMP-to-DISPENSAS_ABIERTO_FINAL-1" style="stroke:#008000;stroke-width:1;"/><polygon fill="#008000" points="783.67,1272.0669,787.67,1263.0669,783.67,1267.0669,779.67,1263.0669,783.67,1272.0669" style="stroke:#008000;stroke-width:1;"/><text fill="#000000" font-family="sans-serif" font-size="13" lengthAdjust="spacing" textLength="164.6899" x="608.67" y="1114.3938">cerrarSolicitudDispensa()</text></g><!--link DISPENSAS_ABIERTO_FINAL to *end*--><g class="link" data-entity-1="DISPENSAS_ABIERTO_FINAL" data-entity-2=".end." data-source-line="90" data-uid="lnk15" id="link_DISPENSAS_ABIERTO_FINAL_.end."><path d="M752.5,1348.6469 C752.5,1387.2069 752.5,1438.2769 752.5,1462.1569" fill="none" id="DISPENSAS_ABIERTO_FINAL-to-*end*" style="stroke:#0000FF;stroke-width:1;"/><polygon fill="#0000FF" points="752.5,1468.1569,756.5,1459.1569,752.5,1463.1569,748.5,1459.1569,752.5,1468.1569" style="stroke:#0000FF;stroke-width:1;"/></g><!--SRC=[hLLBRjim4Dtp50DtqG_Y9EtI20AujbC8IEqWJh890cDCZcqY4cbGL52tw2bwb1uX5okfdoN5KeEYsGJcl1dEc_SuijA612D3Q23MeUJI9W84WP3nbbICZBs5VhyFezdq8lXoUpqS1S-_fZ2Um6H-4rpEV92n-56gBHgCG6b1CMtXuwVJogb1zVZoD9IAx6vBe8tTw4hW2eMGQWqVJrrfYvPW7Col9jFvSBuOVWucrpUpHJ0DHi7m4j8_ZA7t0jBBS-UpImUzkHql2iXYUZkv6ov6iwzNMMuRfDTw_KKmBIvllPxTVtY0_lsRjI5I3_tpTXQCjHEi5kYcCW3kXPmNEevp3T-zPqnfHoEabGMzwYx3FAEpvVamJ2Ab2rVWsSdoFAiFYK9G2JrX2Zrec-EYobp6bYA4BPb8Magh8ESao026AMgbJPI4QAJs5GojNOhHnuoK0DysOwyIyWVBsacX8zpQnE0OhOuBXV8pVqbwtglWxp2K0aqDdvrn-VnR7SpnhuPBhIRVf8jWPgHo63ugi9SrrJH2jRqCaUfZv7gJ2bIB5ovhcQPxA8PY9qjOmOgKYEiwnBr0Wp8yrT7Iq4amFd9ToxL2VzjH6OwqbK_w28JcIKJAbzh1YlW6uqpOlJJ-LstOLPhLgLPe5ZQiXIii3paljmMQ4kYOIUMzaqkKpq7WeHPh-heM3OdNwD3MOQ73KnfF6soqSro7mmPtGCPeC_3eCfYdkFzSgzXNLLmw8-rAH345uDeOufNYtGptNglRz80EJKGtqQmFYzuOj5V3smqpf_WjKJFUtfRD3T4mKkD5LMcu9tJmfVozTpVPbNH3BcJYQOeROmdUGPIGTnTGw7gq68Rb8aAX6wt-PAnx4-tRxXzS-jctOm0adAwlMDSj5JeNjLPMgYH_BkwN9-xkAxTPLPxQglq_rBZpUXUrKhz_u1OxBnh78QnyAphsuqegb_0z7uNBsXhDAQv_ODgOEBxBCA7SW7y0]--></g></svg>