<svg xmlns="http://www.w3.org/2000/svg" xmlns:xlink="http://www.w3.org/1999/xlink" contentStyleType="text/css" data-diagram-type="STATE" height="1593px" preserveAspectRatio="none" style="width:1295px;height:1593px;background:#FFFFFF;" version="1.1" viewBox="0 0 1295 1593" width="1295px" zoomAndPan="magnify"><title>Importar lista de alumnos</title><defs/><g><g class="title" data-source-line="1"><text fill="#000000" font-family="sans-serif" font-size="14" font-weight="bold" lengthAdjust="spacing" textLength="204.3125" x="538.5505" y="32.9951">Importar lista de alumnos</text></g><g id="LISTAS_ABIERTO_INICIAL"><rect fill="#F1F1F1" height="76.2969" rx="12.5" ry="12.5" style="stroke:#181818;stroke-width:0.5;" width="156.2861" x="666" y="203.2969"/><line style="stroke:#181818;stroke-width:0.5;" x1="666" x2="822.2861" y1="249.5938" y2="249.5938"/><text fill="#000000" font-family="sans-serif" font-size="14" lengthAdjust="spacing" textLength="116.2861" x="686" y="231.292">LISTAS_ABIERTO</text></g><path d="M393,399.2969 L1095.4346,399.2969 A12.5,12.5 0 0 1 1107.9346,411.7969 L1107.9346,445.5938 L380.5,445.5938 L380.5,411.7969 A12.5,12.5 0 0 1 393,399.2969" fill="#F1F1F1"/><rect fill="none" height="608.2969" rx="12.5" ry="12.5" style="stroke:#181818;stroke-width:0.5;" width="727.4346" x="380.5" y="399.2969"/><line style="stroke:#181818;stroke-width:0.5;" x1="380.5" x2="1107.9346" y1="445.5938" y2="445.5938"/><text fill="#000000" font-family="sans-serif" font-size="14" lengthAdjust="spacing" textLength="220.3086" x="634.063" y="427.292">EXPORTAR_LISTADO_ALUMNOS</text><g id="EXPORTAR_LISTADO_COMP.SolicitudFiltros"><rect fill="#F1F1F1" height="76.2969" rx="12.5" ry="12.5" style="stroke:#181818;stroke-width:0.5;" width="176.0625" x="663" y="512.5938"/><line style="stroke:#181818;stroke-width:0.5;" x1="663" x2="839.0625" y1="558.8906" y2="558.8906"/><text fill="#000000" font-family="sans-serif" font-size="14" lengthAdjust="spacing" textLength="136.0625" x="683" y="540.5889">Selecci&#243;n de Filtros</text></g><g id="EXPORTAR_LISTADO_COMP.ValidarFiltros"><rect fill="#F1F1F1" height="76.2969" rx="12.5" ry="12.5" style="stroke:#181818;stroke-width:0.5;" width="181.7637" x="660" y="632.0938"/><line style="stroke:#181818;stroke-width:0.5;" x1="660" x2="841.7637" y1="678.3906" y2="678.3906"/><text fill="#000000" font-family="sans-serif" font-size="14" lengthAdjust="spacing" textLength="141.7637" x="680" y="660.0889">Validaci&#243;n de Filtros</text></g><g id="EXPORTAR_LISTADO_COMP.SeleccionFormato"><rect fill="#F1F1F1" height="76.2969" rx="12.5" ry="12.5" style="stroke:#181818;stroke-width:0.5;" width="191.7715" x="655" y="751.5938"/><line style="stroke:#181818;stroke-width:0.5;" x1="655" x2="846.7715" y1="797.8906" y2="797.8906"/><text fill="#000000" font-family="sans-serif" font-size="14" lengthAdjust="spacing" textLength="151.7715" x="675" y="779.5889">Selecci&#243;n de Formato</text></g><g id="EXPORTAR_LISTADO_COMP.Descarga"><rect fill="#F1F1F1" height="76.2969" rx="12.5" ry="12.5" style="stroke:#181818;stroke-width:0.5;" width="185.2295" x="658.5" y="863.5938"/><line style="stroke:#181818;stroke-width:0.5;" x1="658.5" x2="843.7295" y1="909.8906" y2="909.8906"/><text fill="#000000" font-family="sans-serif" font-size="14" lengthAdjust="spacing" textLength="145.2295" x="678.5" y="891.5889">Descarga de Archivo</text></g><ellipse cx="751" cy="466.5938" fill="#222222" rx="10" ry="10" style="stroke:#222222;stroke-width:1;"/><ellipse cx="751" cy="986.5938" fill="none" rx="11" ry="11" style="stroke:#222222;stroke-width:1;"/><ellipse cx="751" cy="986.5938" fill="#222222" rx="6" ry="6" style="stroke:#222222;stroke-width:1;"/><g class="entity" data-entity="GMN5" data-source-line="38" data-uid="ent0006" id="entity_GMN5"><path d="M857.5,513.0938 L857.5,546.5938 L839.21,550.5938 L857.5,554.5938 L857.5,588.4922 A0,0 0 0 0 857.5,588.4922 L1084.7466,588.4922 A0,0 0 0 0 1084.7466,588.4922 L1084.7466,523.0938 L1074.7466,513.0938 L857.5,513.0938 A0,0 0 0 0 857.5,513.0938" fill="#FEFFDD" style="stroke:#181818;stroke-width:0.5;"/><path d="M1074.7466,513.0938 L1074.7466,523.0938 L1084.7466,523.0938 L1074.7466,513.0938" fill="#FEFFDD" style="stroke:#181818;stroke-width:0.5;"/><text fill="#000000" font-family="sans-serif" font-size="13" font-weight="bold" lengthAdjust="spacing" textLength="124.1855" x="873.5" y="540.1606">Sistema muestra</text><text fill="#000000" font-family="sans-serif" font-size="13" lengthAdjust="spacing" textLength="57.9287" x="1001.8179" y="540.1606">opciones</text><text fill="#000000" font-family="sans-serif" font-size="13" lengthAdjust="spacing" textLength="132.0693" x="873.5" y="555.2935">de filtrado por curso</text><text fill="#000000" font-family="sans-serif" font-size="13" lengthAdjust="spacing" textLength="85.4141" x="873.5" y="570.4263">y asignatura.</text></g><g class="entity" data-entity="GMN8" data-source-line="46" data-uid="ent0009" id="entity_GMN8"><path d="M426,640.0938 L426,700.3594 A0,0 0 0 0 426,700.3594 L642.043,700.3594 A0,0 0 0 0 642.043,700.3594 L642.043,674.5938 L659.95,670.5938 L642.043,666.5938 L642.043,650.0938 L632.043,640.0938 L426,640.0938 A0,0 0 0 0 426,640.0938" fill="#FEFFDD" style="stroke:#181818;stroke-width:0.5;"/><path d="M632.043,640.0938 L632.043,650.0938 L642.043,650.0938 L632.043,640.0938" fill="#FEFFDD" style="stroke:#181818;stroke-width:0.5;"/><text fill="#000000" font-family="sans-serif" font-size="13" font-weight="bold" lengthAdjust="spacing" textLength="112.7598" x="442" y="667.1606">Alumno solicita</text><text fill="#000000" font-family="sans-serif" font-size="13" lengthAdjust="spacing" textLength="43.9004" x="558.8921" y="667.1606">aplicar</text><text fill="#000000" font-family="sans-serif" font-size="13" lengthAdjust="spacing" textLength="175.043" x="442" y="682.2935">los criterios seleccionados.</text></g><g class="entity" data-entity="GMN11" data-source-line="54" data-uid="ent0012" id="entity_GMN11"><path d="M860,624.5938 L860,666.5938 L842.08,670.5938 L860,674.5938 L860,715.125 A0,0 0 0 0 860,715.125 L1076.373,715.125 A0,0 0 0 0 1076.373,715.125 L1076.373,634.5938 L1066.373,624.5938 L860,624.5938 A0,0 0 0 0 860,624.5938" fill="#FEFFDD" style="stroke:#181818;stroke-width:0.5;"/><path d="M1066.373,624.5938 L1066.373,634.5938 L1076.373,634.5938 L1066.373,624.5938" fill="#FEFFDD" style="stroke:#181818;stroke-width:0.5;"/><text fill="#000000" font-family="sans-serif" font-size="13" font-weight="bold" lengthAdjust="spacing" textLength="107.6689" x="876" y="651.6606">Sistema valida</text><text fill="#000000" font-family="sans-serif" font-size="13" lengthAdjust="spacing" textLength="63.5718" x="987.8013" y="651.6606">los filtros.</text><text fill="#000000" font-family="sans-serif" font-size="13" font-weight="bold" lengthAdjust="spacing" textLength="91.5522" x="876" y="666.7935">Si hay error:</text><text fill="#000000" font-family="sans-serif" font-size="13" lengthAdjust="spacing" textLength="165.4961" x="876" y="681.9263">informa inconsistencias y</text><text fill="#000000" font-family="sans-serif" font-size="13" lengthAdjust="spacing" textLength="121.9258" x="876" y="697.0591">solicita correcci&#243;n.</text></g><g class="entity" data-entity="GMN14" data-source-line="64" data-uid="ent0015" id="entity_GMN14"><path d="M407.5,752.0938 L407.5,827.4922 A0,0 0 0 0 407.5,827.4922 L636.0923,827.4922 A0,0 0 0 0 636.0923,827.4922 L636.0923,793.5938 L654.84,789.5938 L636.0923,785.5938 L636.0923,762.0938 L626.0923,752.0938 L407.5,752.0938 A0,0 0 0 0 407.5,752.0938" fill="#FEFFDD" style="stroke:#181818;stroke-width:0.5;"/><path d="M626.0923,752.0938 L626.0923,762.0938 L636.0923,762.0938 L626.0923,752.0938" fill="#FEFFDD" style="stroke:#181818;stroke-width:0.5;"/><text fill="#000000" font-family="sans-serif" font-size="13" font-weight="bold" lengthAdjust="spacing" textLength="116.1621" x="423.5" y="779.1606">Sistema solicita</text><text fill="#000000" font-family="sans-serif" font-size="13" lengthAdjust="spacing" textLength="67.2979" x="543.7944" y="779.1606">el formato</text><text fill="#000000" font-family="sans-serif" font-size="13" lengthAdjust="spacing" textLength="165.293" x="423.5" y="794.2935">de salida (PDF, CSV, etc.)</text><text fill="#000000" font-family="sans-serif" font-size="13" lengthAdjust="spacing" textLength="158.2344" x="423.5" y="809.4263">y el nombre del archivo.</text></g><g class="entity" data-entity="GMN17" data-source-line="72" data-uid="ent0018" id="entity_GMN17"><path d="M861.5,864.0938 L861.5,897.5938 L843.81,901.5938 L861.5,905.5938 L861.5,939.4922 A0,0 0 0 0 861.5,939.4922 L1098.9346,939.4922 A0,0 0 0 0 1098.9346,939.4922 L1098.9346,874.0938 L1088.9346,864.0938 L861.5,864.0938 A0,0 0 0 0 861.5,864.0938" fill="#FEFFDD" style="stroke:#181818;stroke-width:0.5;"/><path d="M1088.9346,864.0938 L1088.9346,874.0938 L1098.9346,874.0938 L1088.9346,864.0938" fill="#FEFFDD" style="stroke:#181818;stroke-width:0.5;"/><text fill="#000000" font-family="sans-serif" font-size="13" font-weight="bold" lengthAdjust="spacing" textLength="112.7598" x="877.5" y="891.1606">Alumno solicita</text><text fill="#000000" font-family="sans-serif" font-size="13" lengthAdjust="spacing" textLength="79.5425" x="994.3921" y="891.1606">la descarga.</text><text fill="#000000" font-family="sans-serif" font-size="13" font-weight="bold" lengthAdjust="spacing" textLength="120.999" x="877.5" y="906.2935">Sistema permite</text><text fill="#000000" font-family="sans-serif" font-size="13" lengthAdjust="spacing" textLength="51.1431" x="1002.6313" y="906.2935">generar</text><text fill="#000000" font-family="sans-serif" font-size="13" lengthAdjust="spacing" textLength="178.166" x="877.5" y="921.4263">el archivo correspondiente.</text></g><g class="entity" data-entity="GMN20" data-source-line="80" data-uid="ent0021" id="entity_GMN20"><path d="M391.5,871.5938 L391.5,931.8594 A0,0 0 0 0 391.5,931.8594 L640.208,931.8594 A0,0 0 0 0 640.208,931.8594 L640.208,905.5938 L658.39,901.5938 L640.208,897.5938 L640.208,881.5938 L630.208,871.5938 L391.5,871.5938 A0,0 0 0 0 391.5,871.5938" fill="#FEFFDD" style="stroke:#181818;stroke-width:0.5;"/><path d="M630.208,871.5938 L630.208,881.5938 L640.208,881.5938 L630.208,871.5938" fill="#FEFFDD" style="stroke:#181818;stroke-width:0.5;"/><text fill="#000000" font-family="sans-serif" font-size="13" font-weight="bold" lengthAdjust="spacing" textLength="128.1655" x="407.5" y="898.6606">Sistema confirma</text><text fill="#000000" font-family="sans-serif" font-size="13" lengthAdjust="spacing" textLength="75.4102" x="539.7979" y="898.6606">la descarga</text><text fill="#000000" font-family="sans-serif" font-size="13" lengthAdjust="spacing" textLength="137.5283" x="407.5" y="913.7935">del listado generado.</text></g><!--link *start*EXPORTAR_LISTADO_COMP to SolicitudFiltros--><g class="link" data-entity-1=".start.EXPORTAR_LISTADO_COMP" data-entity-2="SolicitudFiltros" data-source-line="35" data-uid="lnk6" id="link_.start.EXPORTAR_LISTADO_COMP_SolicitudFiltros"><path d="M751,476.8937 C751,485.8338 751,493.3438 751,506.3738" fill="none" id="*start*EXPORTAR_LISTADO_COMP-to-SolicitudFiltros" style="stroke:#008000;stroke-width:1;"/><polygon fill="#008000" points="751,512.3738,755,503.3738,751,507.3738,747,503.3738,751,512.3738" style="stroke:#008000;stroke-width:1;"/></g><!--link SolicitudFiltros to ValidarFiltros--><g class="link" data-entity-1="SolicitudFiltros" data-entity-2="ValidarFiltros" data-source-line="43" data-uid="lnk7" id="link_SolicitudFiltros_ValidarFiltros"><path d="M721.67,588.7338 C721.67,602.5338 721.67,612.1038 721.67,625.9038" fill="none" id="SolicitudFiltros-to-ValidarFiltros" style="stroke:#008000;stroke-width:1;"/><polygon fill="#008000" points="721.67,631.9038,725.67,622.9038,721.67,626.9038,717.67,622.9038,721.67,631.9038" style="stroke:#008000;stroke-width:1;"/></g><!--link ValidarFiltros to SolicitudFiltros--><g class="link" data-entity-1="ValidarFiltros" data-entity-2="SolicitudFiltros" data-source-line="51" data-uid="lnk8" id="link_ValidarFiltros_SolicitudFiltros"><path d="M780.33,631.9538 C780.33,618.1538 780.33,608.5838 780.33,594.7838" fill="none" id="ValidarFiltros-to-SolicitudFiltros" style="stroke:#FF0000;stroke-width:1;"/><polygon fill="#FF0000" points="780.33,588.7838,776.33,597.7838,780.33,593.7838,784.33,597.7838,780.33,588.7838" style="stroke:#FF0000;stroke-width:1;"/></g><!--link ValidarFiltros to SeleccionFormato--><g class="link" data-entity-1="ValidarFiltros" data-entity-2="SeleccionFormato" data-source-line="61" data-uid="lnk9" id="link_ValidarFiltros_SeleccionFormato"><path d="M751,708.2338 C751,722.0338 751,731.6038 751,745.4038" fill="none" id="ValidarFiltros-to-SeleccionFormato" style="stroke:#008000;stroke-width:1;"/><polygon fill="#008000" points="751,751.4038,755,742.4038,751,746.4038,747,742.4038,751,751.4038" style="stroke:#008000;stroke-width:1;"/></g><!--link SeleccionFormato to Descarga--><g class="link" data-entity-1="SeleccionFormato" data-entity-2="Descarga" data-source-line="69" data-uid="lnk10" id="link_SeleccionFormato_Descarga"><path d="M751,827.8238 C751,839.3538 751,846.0138 751,857.5338" fill="none" id="SeleccionFormato-to-Descarga" style="stroke:#008000;stroke-width:1;"/><polygon fill="#008000" points="751,863.5338,755,854.5338,751,858.5338,747,854.5338,751,863.5338" style="stroke:#008000;stroke-width:1;"/></g><!--link Descarga to *end*EXPORTAR_LISTADO_COMP--><g class="link" data-entity-1="Descarga" data-entity-2=".end.EXPORTAR_LISTADO_COMP" data-source-line="77" data-uid="lnk12" id="link_Descarga_.end.EXPORTAR_LISTADO_COMP"><path d="M751,939.6138 C751,952.7038 751,960.3538 751,969.5538" fill="none" id="Descarga-to-*end*EXPORTAR_LISTADO_COMP" style="stroke:#008000;stroke-width:1;"/><polygon fill="#008000" points="751,975.5538,755,966.5538,751,970.5538,747,966.5538,751,975.5538" style="stroke:#008000;stroke-width:1;"/></g><g id="LISTA_ABIERTA_FINAL"><rect fill="#F1F1F1" height="76.2969" rx="12.5" ry="12.5" style="stroke:#181818;stroke-width:0.5;" width="145.957" x="533" y="1369.2969"/><line style="stroke:#181818;stroke-width:0.5;" x1="533" x2="678.957" y1="1415.5938" y2="1415.5938"/><text fill="#000000" font-family="sans-serif" font-size="14" lengthAdjust="spacing" textLength="105.957" x="553" y="1397.292">LISTA_ABIERTA</text></g><g id="LISTAS_ABIERTO_FINAL"><rect fill="#F1F1F1" height="76.2969" rx="12.5" ry="12.5" style="stroke:#181818;stroke-width:0.5;" width="156.2861" x="799" y="1369.2969"/><line style="stroke:#181818;stroke-width:0.5;" x1="799" x2="955.2861" y1="1415.5938" y2="1415.5938"/><text fill="#000000" font-family="sans-serif" font-size="14" lengthAdjust="spacing" textLength="116.2861" x="819" y="1397.292">LISTAS_ABIERTO</text></g><ellipse cx="744" cy="73.2969" fill="#222222" rx="10" ry="10" style="stroke:#222222;stroke-width:1;"/><ellipse cx="877" cy="1576.2969" fill="none" rx="11" ry="11" style="stroke:#222222;stroke-width:1;"/><ellipse cx="877" cy="1576.2969" fill="#222222" rx="6" ry="6" style="stroke:#222222;stroke-width:1;"/><g class="entity" data-entity="GMN2" data-source-line="21" data-uid="ent0003" id="entity_GMN2"><path d="M6,657.7969 L6,748.3281 A0,0 0 0 0 6,748.3281 L260.2432,748.3281 A0,0 0 0 0 260.2432,748.3281 L260.2432,707.2969 L380.46,703.2969 L260.2432,699.2969 L260.2432,667.7969 L250.2432,657.7969 L6,657.7969 A0,0 0 0 0 6,657.7969" fill="#FEFFDD" style="stroke:#181818;stroke-width:0.5;"/><path d="M250.2432,657.7969 L250.2432,667.7969 L260.2432,667.7969 L250.2432,657.7969" fill="#FEFFDD" style="stroke:#181818;stroke-width:0.5;"/><text fill="#000000" font-family="sans-serif" font-size="13" font-weight="bold" lengthAdjust="spacing" textLength="112.7598" x="22" y="684.8638">Alumno solicita</text><text fill="#000000" font-family="sans-serif" font-size="13" lengthAdjust="spacing" textLength="55.6499" x="138.8921" y="684.8638">exportar</text><text fill="#000000" font-family="sans-serif" font-size="13" lengthAdjust="spacing" textLength="213.2432" x="22" y="699.9966">un listado de alumnos por curso.</text><text fill="#000000" font-family="sans-serif" font-size="13" font-weight="bold" lengthAdjust="spacing" textLength="120.999" x="22" y="715.1294">Sistema permite</text><text fill="#000000" font-family="sans-serif" font-size="13" lengthAdjust="spacing" textLength="41.6343" x="147.1313" y="715.1294">definir</text><text fill="#000000" font-family="sans-serif" font-size="13" lengthAdjust="spacing" textLength="171.3105" x="22" y="730.2622">filtros y formato de salida.</text></g><g class="entity" data-entity="GMN23" data-source-line="90" data-uid="ent0024" id="entity_GMN23"><path d="M157.5,1377.2969 L157.5,1437.5625 A0,0 0 0 0 157.5,1437.5625 L412.2446,1437.5625 A0,0 0 0 0 412.2446,1437.5625 L412.2446,1411.2969 L532.7,1407.2969 L412.2446,1403.2969 L412.2446,1387.2969 L402.2446,1377.2969 L157.5,1377.2969 A0,0 0 0 0 157.5,1377.2969" fill="#FEFFDD" style="stroke:#181818;stroke-width:0.5;"/><path d="M402.2446,1377.2969 L402.2446,1387.2969 L412.2446,1387.2969 L402.2446,1377.2969" fill="#FEFFDD" style="stroke:#181818;stroke-width:0.5;"/><text fill="#000000" font-family="sans-serif" font-size="13" font-weight="bold" lengthAdjust="spacing" textLength="112.7598" x="173.5" y="1404.3638">Alumno solicita</text><text fill="#000000" font-family="sans-serif" font-size="13" lengthAdjust="spacing" textLength="60.3726" x="290.3921" y="1404.3638">consultar</text><text fill="#000000" font-family="sans-serif" font-size="13" lengthAdjust="spacing" textLength="213.7446" x="173.5" y="1419.4966">el listado de alumnos exportado.</text></g><g class="entity" data-entity="GMN26" data-source-line="98" data-uid="ent0027" id="entity_GMN26"><path d="M1075.5,1377.2969 L1075.5,1403.2969 L955.15,1407.2969 L1075.5,1411.2969 L1075.5,1437.5625 A0,0 0 0 0 1075.5,1437.5625 L1288.4136,1437.5625 A0,0 0 0 0 1288.4136,1437.5625 L1288.4136,1387.2969 L1278.4136,1377.2969 L1075.5,1377.2969 A0,0 0 0 0 1075.5,1377.2969" fill="#FEFFDD" style="stroke:#181818;stroke-width:0.5;"/><path d="M1278.4136,1377.2969 L1278.4136,1387.2969 L1288.4136,1387.2969 L1278.4136,1377.2969" fill="#FEFFDD" style="stroke:#181818;stroke-width:0.5;"/><text fill="#000000" font-family="sans-serif" font-size="13" font-weight="bold" lengthAdjust="spacing" textLength="112.7598" x="1091.5" y="1404.3638">Alumno solicita</text><text fill="#000000" font-family="sans-serif" font-size="13" lengthAdjust="spacing" textLength="55.0215" x="1208.3921" y="1404.3638">regresar</text><text fill="#000000" font-family="sans-serif" font-size="13" lengthAdjust="spacing" textLength="126.8643" x="1091.5" y="1419.4966">al m&#243;dulo de listas.</text></g><!--link *start* to LISTAS_ABIERTO_INICIAL--><g class="link" data-entity-1=".start." data-entity-2="LISTAS_ABIERTO_INICIAL" data-source-line="15" data-uid="lnk3" id="link_.start._LISTAS_ABIERTO_INICIAL"><path d="M744,83.3069 C744,106.3269 744,158.0869 744,197.0069" fill="none" id="*start*-to-LISTAS_ABIERTO_INICIAL" style="stroke:#008000;stroke-width:1;"/><polygon fill="#008000" points="744,203.0069,748,194.0069,744,198.0069,740,194.0069,744,203.0069" style="stroke:#008000;stroke-width:1;"/></g><!--link LISTAS_ABIERTO_INICIAL to EXPORTAR_LISTADO_COMP--><g class="link" data-entity-1="LISTAS_ABIERTO_INICIAL" data-entity-2="EXPORTAR_LISTADO_COMP" data-source-line="18" data-uid="lnk4" id="link_LISTAS_ABIERTO_INICIAL_EXPORTAR_LISTADO_COMP"><path d="M744,279.4969 C744,308.5769 744,345.6169 744,393.2869" fill="none" id="LISTAS_ABIERTO_INICIAL-to-EXPORTAR_LISTADO_COMP" style="stroke:#008000;stroke-width:1;"/><polygon fill="#008000" points="744,399.2869,748,390.2869,744,394.2869,740,390.2869,744,399.2869" style="stroke:#008000;stroke-width:1;"/><text fill="#000000" font-family="sans-serif" font-size="13" lengthAdjust="spacing" textLength="153.4419" x="580" y="325.4638">importarListaAlumnos()</text></g><!--link EXPORTAR_LISTADO_COMP to LISTA_ABIERTA_FINAL--><g class="link" data-entity-1="EXPORTAR_LISTADO_COMP" data-entity-2="LISTA_ABIERTA_FINAL" data-source-line="87" data-uid="lnk13" id="link_EXPORTAR_LISTADO_COMP_LISTA_ABIERTA_FINAL"><path d="M606,1007.4769 C606,1148.6069 606,1294.1769 606,1363.1769" fill="none" id="EXPORTAR_LISTADO_COMP-to-LISTA_ABIERTA_FINAL" style="stroke:#008000;stroke-width:1;"/><polygon fill="#008000" points="606,1369.1769,610,1360.1769,606,1364.1769,602,1360.1769,606,1369.1769" style="stroke:#008000;stroke-width:1;"/><text fill="#000000" font-family="sans-serif" font-size="13" lengthAdjust="spacing" textLength="157.5806" x="438" y="1174.3938">consultarListaAlumnos()</text></g><!--link EXPORTAR_LISTADO_COMP to LISTAS_ABIERTO_FINAL--><g class="link" data-entity-1="EXPORTAR_LISTADO_COMP" data-entity-2="LISTAS_ABIERTO_FINAL" data-source-line="95" data-uid="lnk14" id="link_EXPORTAR_LISTADO_COMP_LISTAS_ABIERTO_FINAL"><path d="M877,1007.4769 C877,1148.6069 877,1294.1769 877,1363.1769" fill="none" id="EXPORTAR_LISTADO_COMP-to-LISTAS_ABIERTO_FINAL" style="stroke:#008000;stroke-width:1;"/><polygon fill="#008000" points="877,1369.1769,881,1360.1769,877,1364.1769,873,1360.1769,877,1369.1769" style="stroke:#008000;stroke-width:1;"/></g><!--link LISTAS_ABIERTO_FINAL to *end*--><g class="link" data-entity-1="LISTAS_ABIERTO_FINAL" data-entity-2=".end." data-source-line="103" data-uid="lnk16" id="link_LISTAS_ABIERTO_FINAL_.end."><path d="M877,1445.6469 C877,1484.2069 877,1535.2769 877,1559.1569" fill="none" id="LISTAS_ABIERTO_FINAL-to-*end*" style="stroke:#0000FF;stroke-width:1;"/><polygon fill="#0000FF" points="877,1565.1569,881,1556.1569,877,1560.1569,873,1556.1569,877,1565.1569" style="stroke:#0000FF;stroke-width:1;"/></g><!--SRC=[ZLPPZjiu4FtNAGhEHnR4dcG-6q43YfU10CTkjBg3045Wq1BjPaAH1YarnWZc57E2d257yCLIN2JJCjk9VcofjbVr7fUQrPn2Lksagea2pdHDeAH0U5C9gPFaEGo7GnWl5xFid_lRT9mT_b_0P0hJ_2wRBuqnIVGt9dP4aGg4BAccEtZxzvlWgoBYs_bNpWIjzpiAMFf11eORKfPCRE7j6qnTavh2FCllqdoLli-cjtVBLRR8nbaw1m2YON1g7FYGwQURvUrTUhkoviboDLv-kF4HPxPqVlzXiSm7OJcVC5tDieMj5LHhROCulYuY1Y_v_EeB33y_sofAnPVXzHFDcSbFHQr8IP0CA8YMXfT6o-I9QOGvuzrV0VD4pmtFgUFunSia4HAxu7HJWzp4WnFJpxlrjGi2BJahM4tU_RM-1lglosfz6k5KLCf0Hu0EK3HAor6RA4SdMX7OKLMncjf49TqmmLoU3UErmiWzRAIgI6tJQS9PIKO95IKOp4boaUxlYKtbN787kIbdFhFZ9wUS5WKx_1IcWBSDWhYFjgOwHhauz_bIeCyinSmt42teR67SXEg2g2s1usFYkiyObQhYWJrYb0thAwhVgVEo72ksVR0ad_cqfG9ggePgLA2bHkvC9_JeXoWiHOReZjtEkaV8R2j8tIZYA3zIPjxEo0ZndquyGDygjESGG8_9a-pmnQlJF1pB5GerfnZ-qorBs8YEGNqECzvybIXbZC2ESEvNG9N2dgbePMezUqh1bXGj_vIGftjgwNYq7hObquAlF3frXGUoT-YkZ6TdPC8k8_mjfD0ceoWOochVURGpWq8gvHLwQHxhmm_D2fn5kr8V3pyGu9EpECgpjouY19-vHCPnkWNnTfi81Ugs2tXnCvczXd7-yJNGkXYz35IASK9MQqNHdGDnooegsFvY3ZjgbsQCryxs6vLoix2TwoZMRhXFRgcWAb3q4ReZJ- -aA1aLDOsrqcqaOGkuXqHuY85l0Q6EDWndqKSV4C2xey0XBlkZ_Q-zOEJfF9kaETuivZ1EywMvOjpd_duHtzoFw8VjATexiwyCHjtmtnruaTXBnrsNDF6pZvnt_aWq3GTdrHytqhjBUBoTfg8-5n0hYWMq1uotYUhmisou1MonwnEKqTiCWbppXdgf_080]--></g></svg>