<svg xmlns="http://www.w3.org/2000/svg" xmlns:xlink="http://www.w3.org/1999/xlink" contentStyleType="text/css" data-diagram-type="DESCRIPTION" height="435px" preserveAspectRatio="none" style="width:1133px;height:435px;background:#FFFFFF;" version="1.1" viewBox="0 0 1133 435" width="1133px" zoomAndPan="magnify"><?plantuml 1.2026.5?><defs/><g><!--cluster crearSolicitudDispensa--><g class="cluster" data-qualified-name="crearSolicitudDispensa" data-source-line="7" id="ent0004"><path d="M8.5,106.3 L204.4404,106.3 A3.75,3.75 0 0 1 206.9404,108.8 L213.9404,128.5969 L504.5,128.5969 A2.5,2.5 0 0 1 507,131.0969 L507,417.69 A2.5,2.5 0 0 1 504.5,420.19 L8.5,420.19 A2.5,2.5 0 0 1 6,417.69 L6,108.8 A2.5,2.5 0 0 1 8.5,106.3" fill="none" style="stroke:#000000;stroke-width:1.5;"/><line style="stroke:#000000;stroke-width:1.5;" x1="6" x2="213.9404" y1="128.5969" y2="128.5969"/><text fill="#000000" font-family="sans-serif" font-size="14" font-weight="700" lengthAdjust="spacing" textLength="194.9404" x="10" y="121.2951">crearSolicitudDispensa()</text></g><!--entity CrearDispensaView--><g class="entity" data-qualified-name="crearSolicitudDispensa.CrearDispensaView" data-source-line="8" id="ent0005"><rect fill="#629EF9" height="36.2969" rx="2.5" ry="2.5" style="stroke:#181818;stroke-width:0.5;" width="156.2197" x="334.89" y="141.3"/><text fill="#000000" font-family="sans-serif" font-size="14" lengthAdjust="spacing" textLength="136.2197" x="344.89" y="164.2951">CrearDispensaView</text></g><!--entity DispensaController--><g class="entity" data-qualified-name="crearSolicitudDispensa.DispensaController" data-source-line="9" id="ent0006"><rect fill="#B5BD68" height="36.2969" rx="2.5" ry="2.5" style="stroke:#181818;stroke-width:0.5;" width="153.3828" x="126.31" y="254.6"/><text fill="#000000" font-family="sans-serif" font-size="14" lengthAdjust="spacing" textLength="133.3828" x="136.31" y="277.5951">DispensaController</text></g><!--entity SolicitudDispensaRepository--><g class="entity" data-qualified-name="crearSolicitudDispensa.SolicitudDispensaRepository" data-source-line="10" id="ent0007"><rect fill="#F2AC4E" height="36.2969" rx="2.5" ry="2.5" style="stroke:#181818;stroke-width:0.5;" width="219.3496" x="22.33" y="367.89"/><text fill="#000000" font-family="sans-serif" font-size="14" lengthAdjust="spacing" textLength="199.3496" x="32.33" y="390.8851">SolicitudDispensaRepository</text></g><!--entity AlumnoRepository--><g class="entity" data-qualified-name="crearSolicitudDispensa.AlumnoRepository" data-source-line="11" id="ent0008"><rect fill="#F2AC4E" height="36.2969" rx="2.5" ry="2.5" style="stroke:#181818;stroke-width:0.5;" width="148.4883" x="276.76" y="367.89"/><text fill="#000000" font-family="sans-serif" font-size="14" lengthAdjust="spacing" textLength="128.4883" x="286.76" y="390.8851">AlumnoRepository</text></g><!--entity PanelAlumno--><g class="entity" data-qualified-name="PanelAlumno" data-source-line="3" id="ent0001"><rect fill="#CDEBA5" height="36.2969" rx="2.5" ry="2.5" style="stroke:#181818;stroke-width:0.5;" width="138.0498" x="343.98" y="7"/><text fill="#000000" font-family="sans-serif" font-size="14" lengthAdjust="spacing" textLength="118.0498" x="353.98" y="29.9951">:PANEL_ALUMNO</text></g><!--entity SolicitudRegistrada--><g class="entity" data-qualified-name="SolicitudRegistrada" data-source-line="4" id="ent0002"><rect fill="#CDEBA5" height="36.2969" rx="2.5" ry="2.5" style="stroke:#181818;stroke-width:0.5;" width="274.707" x="522.65" y="254.6"/><text fill="#000000" font-family="sans-serif" font-size="14" lengthAdjust="spacing" textLength="254.707" x="532.65" y="277.5951">:SOLICITUD_DISPENSA_REGISTRADA</text></g><!--entity CompletarGestion--><g class="entity" data-qualified-name="CompletarGestion" data-source-line="5" id="ent0003"><rect fill="#CDEBA5" height="36.2969" rx="2.5" ry="2.5" style="stroke:#181818;stroke-width:0.5;" width="249.2363" x="832.38" y="254.6"/><text fill="#000000" font-family="sans-serif" font-size="14" lengthAdjust="spacing" textLength="229.2363" x="842.38" y="277.5951">:Collaboration CompletarGestion</text></g><!--link PanelAlumno to CrearDispensaView--><g class="link" data-entity-1="ent0001" data-entity-2="ent0005" data-link-type="dependency" data-source-line="14" id="lnk9"><path d="M413,43.72 C413,69.02 413,110.46 413,135.81" fill="none" id="PanelAlumno-to-CrearDispensaView" style="stroke:#181818;stroke-width:1;"/><polygon fill="#181818" points="413,140.81,417,131.81,413,135.81,409,131.81,413,140.81" style="stroke:#181818;stroke-width:1;stroke-linejoin:miter;stroke-miterlimit:10;"/><text fill="#000000" font-family="sans-serif" font-size="13" lengthAdjust="spacing" textLength="159.3452" x="414" y="86.3669">crearSolicitudDispensa()</text></g><!--link CrearDispensaView to DispensaController--><g class="link" data-entity-1="ent0005" data-entity-2="ent0006" data-link-type="dependency" data-source-line="16" id="lnk10"><path d="M379.72,178.08 C340.4,198.92 279.788,231.0488 240.538,251.8488" fill="none" id="CrearDispensaView-to-DispensaController" style="stroke:#181818;stroke-width:1;"/><polygon fill="#181818" points="236.12,254.19,245.9454,253.5101,240.538,251.8488,242.1994,246.4414,236.12,254.19" style="stroke:#181818;stroke-width:1;stroke-linejoin:miter;stroke-miterlimit:10;"/><text fill="#000000" font-family="sans-serif" font-size="13" lengthAdjust="spacing" textLength="286.3428" x="322" y="220.6669">registrarSolicitud(datosDispensa, alumnoId)</text></g><!--link DispensaController to AlumnoRepository--><g class="link" data-entity-1="ent0006" data-entity-2="ent0008" data-link-type="dependency" data-source-line="17" id="lnk11"><path d="M226.45,291.38 C254.16,312.22 295.994,343.6747 323.664,364.4847" fill="none" id="DispensaController-to-AlumnoRepository" style="stroke:#181818;stroke-width:1;"/><polygon fill="#181818" points="327.66,367.49,322.8714,358.8836,323.664,364.4847,318.0629,365.2772,327.66,367.49" style="stroke:#181818;stroke-width:1;stroke-linejoin:miter;stroke-miterlimit:10;"/><text fill="#000000" font-family="sans-serif" font-size="13" lengthAdjust="spacing" textLength="219.8066" x="287" y="333.9569">validarEstadoMatricula(alumnoId)</text></g><!--link DispensaController to SolicitudDispensaRepository--><g class="link" data-entity-1="ent0006" data-entity-2="ent0007" data-link-type="dependency" data-source-line="18" id="lnk12"><path d="M147.52,291.3 C105.16,304.71 54,320.89 54,320.89 C54,320.89 54,337.89 54,337.89 C54,337.89 76.5012,351.4931 98.6812,364.9031" fill="none" id="DispensaController-to-SolicitudDispensaRepository" style="stroke:#181818;stroke-width:1;"/><polygon fill="#181818" points="102.96,367.49,97.3278,359.4105,98.6812,364.9031,93.1887,366.2565,102.96,367.49" style="stroke:#181818;stroke-width:1;stroke-linejoin:miter;stroke-miterlimit:10;"/><text fill="#000000" font-family="sans-serif" font-size="13" lengthAdjust="spacing" textLength="171.5835" x="55" y="333.9569">guardarSolicitud(solicitud)</text></g><!--link CrearDispensaView to SolicitudRegistrada--><g class="link" data-entity-1="ent0005" data-entity-2="ent0002" data-link-type="dependency" data-source-line="20" id="lnk13"><path d="M489.25,178.07 C547.2,191.46 617,207.6 617,207.6 C617,207.6 632.7369,231.0662 645.4669,250.0662" fill="none" id="CrearDispensaView-to-SolicitudRegistrada" style="stroke:#181818;stroke-width:1;stroke-dasharray:7,7;"/><polygon fill="#181818" points="648.25,254.22,646.5635,244.5166,645.4669,250.0662,639.9174,248.9695,648.25,254.22" style="stroke:#181818;stroke-width:1;stroke-linejoin:miter;stroke-miterlimit:10;"/><text fill="#000000" font-family="sans-serif" font-size="13" lengthAdjust="spacing" textLength="109.6367" x="628" y="220.6669">&#171;include&#187; [&#233;xito]</text></g><!--link CrearDispensaView to CompletarGestion--><g class="link" data-entity-1="ent0005" data-entity-2="ent0003" data-link-type="dependency" data-source-line="21" id="lnk14"><path d="M491.49,171.56 C589.94,185.5 746,207.6 746,207.6 C746,207.6 831.8162,233.6856 894.2762,252.6756" fill="none" id="CrearDispensaView-to-CompletarGestion" style="stroke:#181818;stroke-width:1;stroke-dasharray:7,7;"/><polygon fill="#181818" points="899.06,254.13,891.6127,247.685,894.2762,252.6756,889.2856,255.339,899.06,254.13" style="stroke:#181818;stroke-width:1;stroke-linejoin:miter;stroke-miterlimit:10;"/><text fill="#000000" font-family="sans-serif" font-size="13" lengthAdjust="spacing" textLength="320.7344" x="797" y="220.6669">&#171;include&#187; completarGestion() [cancelaci&#243;n/error]</text></g><?plantuml-src XLB1IWCn4BtdAuPwQS4gY8ekKbXtLrcejNJLYqYP9aC9ficIPDKYVf1dFw4_vhPIhRjRpIcPUU_DcvcuHwbpj3W39JNvUKwG6pLVFXYpn3tggIBOYUBaF3o2LZ0C1qb_7FPlhmRNBK07GzIaGbNCj6aaPDVzD4flRkDnd6R3P925ur5ocMOtep0ELmgPKP9BNuWHJQNp5WKsAaL6APmOYruQ3P6PvOeysajooy1AgXfaB4V-Y5C2RWdjTwLOkfoqmoMdrPngTrhmog0y6rwE3qwJYrE8bemry4xISnKtEPg8unDOGoAZlItTawq2Bmx2w321MlKHvSP9R-ny2-DhuXkmDyOsLW7TRgzkCu1jlJ9M0qDNb1hr5eBIpTUUVeJQ0hrnQ-mkuCf4AZgipbzPgzeFu0cL56WJvr6OA_HMya9X-r-bFqONmBH0ApPzklMjiUEzlLxJRmpWx4nghWf1lHxSBzvVIlc7BVpg5_nDvfLikmFt73KdXLmkFlG-MMlimoS0?></g></svg>