<svg xmlns="http://www.w3.org/2000/svg" xmlns:xlink="http://www.w3.org/1999/xlink" version="1.1" data-diagram-type="SEQUENCE" style="width:1688px;height:775px;background:#FFFFFF;" width="1688px" height="775px" viewBox="0 0 1688 775" zoomAndPan="magnify" preserveAspectRatio="none" contentStyleType="text/css"><?plantuml 1.2026.7beta8?><defs/><g font-family="sans-serif" lengthAdjust="spacing"><g class="title" data-source-line="1"><text x="522.697" y="27.995" fill="#000" font-size="14" textLength="640.76" font-weight="700">Diagrama de Secuencia - Crear Solicitud de Dispensa (Vue 3 + Express + Prisma)</text></g><g><title>Usuario</title><rect x="36.102" y="125.891" width="8" height="559.789" fill="#000" fill-opacity="0"/><line x1="39.602" y1="125.891" x2="39.602" y2="685.68" style="stroke:#181818;stroke-width:0.5;stroke-dasharray:5,5;"/></g><g><title>Frontend</title><rect x="391.359" y="125.891" width="8" height="559.789" fill="#000" fill-opacity="0"/><line x1="394.859" y1="125.891" x2="394.859" y2="685.68" style="stroke:#181818;stroke-width:0.5;stroke-dasharray:5,5;"/></g><g><title></title><rect x="389.859" y="155.023" width="10" height="512.656" fill="#FFF" style="stroke:#181818;stroke-width:1;"/></g><g><title>DispensaController</title><rect x="761.279" y="125.891" width="8" height="559.789" fill="#000" fill-opacity="0"/><line x1="764.779" y1="125.891" x2="764.779" y2="685.68" style="stroke:#181818;stroke-width:0.5;stroke-dasharray:5,5;"/></g><g><title></title><rect x="759.779" y="184.156" width="10" height="160.797" fill="#FFF" style="stroke:#181818;stroke-width:1;"/></g><g><title></title><rect x="759.779" y="462.617" width="10" height="175.93" fill="#FFF" style="stroke:#181818;stroke-width:1;"/></g><g><title>DispensaService</title><rect x="1265.737" y="125.891" width="8" height="559.789" fill="#000" fill-opacity="0"/><line x1="1269.237" y1="125.891" x2="1269.237" y2="685.68" style="stroke:#181818;stroke-width:0.5;stroke-dasharray:5,5;"/></g><g><title></title><rect x="1264.237" y="213.289" width="10" height="102.531" fill="#FFF" style="stroke:#181818;stroke-width:1;"/></g><g><title></title><rect x="1264.237" y="491.75" width="10" height="117.664" fill="#FFF" style="stroke:#181818;stroke-width:1;"/></g><g><title>Base de Datos</title><rect x="1620.055" y="125.891" width="8" height="559.789" fill="#000" fill-opacity="0"/><line x1="1623.555" y1="125.891" x2="1623.555" y2="685.68" style="stroke:#181818;stroke-width:0.5;stroke-dasharray:5,5;"/></g><g><title></title><rect x="1618.555" y="257.555" width="10" height="29.133" fill="#FFF" style="stroke:#181818;stroke-width:1;"/></g><g><title></title><rect x="1618.555" y="551.148" width="10" height="29.133" fill="#FFF" style="stroke:#181818;stroke-width:1;"/></g><text x="10" y="122.589" fill="#000" font-size="14" textLength="53.204">Usuario</text><ellipse cx="39.602" cy="58.094" rx="8" ry="8" fill="#E2E2F0" style="stroke:#181818;stroke-width:0.5;"/><path d="M39.602,66.094 L39.602,93.094 M26.602,74.094 L52.602,74.094 M39.602,93.094 L26.602,108.094 M39.602,93.094 L52.602,108.094" style="stroke:#181818;stroke-width:0.5;" fill="none"/><rect x="356.304" y="78.297" width="77.109" height="46.594" fill="#E2E2F0" style="stroke:#181818;stroke-width:0.5;" rx="2.5" ry="2.5"/><text x="363.304" y="98.292" fill="#000" font-size="14" textLength="63.109">Frontend</text><text x="369.187" y="114.589" fill="#000" font-size="14" textLength="51.345">(Vue 3)</text><rect x="691.087" y="94.594" width="147.383" height="30.297" fill="#E2E2F0" style="stroke:#181818;stroke-width:0.5;" rx="2.5" ry="2.5"/><text x="698.087" y="114.589" fill="#000" font-size="14" textLength="133.383">DispensaController</text><rect x="1204.262" y="94.594" width="129.951" height="30.297" fill="#E2E2F0" style="stroke:#181818;stroke-width:0.5;" rx="2.5" ry="2.5"/><text x="1211.262" y="114.589" fill="#000" font-size="14" textLength="115.951">DispensaService</text><text x="1569.955" y="106.292" fill="#000" font-size="14" textLength="101.199">Base de Datos</text><text x="1574.716" y="122.589" fill="#000" font-size="14" textLength="91.677">(PostgreSQL)</text><path d="M1605.555,57.297 C1605.555,47.297 1623.555,47.297 1623.555,47.297 C1623.555,47.297 1641.555,47.297 1641.555,57.297 L1641.555,83.297 C1641.555,93.297 1623.555,93.297 1623.555,93.297 C1623.555,93.297 1605.555,93.297 1605.555,83.297 L1605.555,57.297" style="stroke:#181818;stroke-width:0.5;" fill="#E2E2F0"/><path d="M1605.555,57.297 C1605.555,67.297 1623.555,67.297 1623.555,67.297 C1623.555,67.297 1641.555,67.297 1641.555,57.297" style="stroke:#181818;stroke-width:0.5;" fill="none"/><text x="10" y="698.675" fill="#000" font-size="14" textLength="53.204">Usuario</text><ellipse cx="39.602" cy="710.477" rx="8" ry="8" fill="#E2E2F0" style="stroke:#181818;stroke-width:0.5;"/><path d="M39.602,718.477 L39.602,745.477 M26.602,726.477 L52.602,726.477 M39.602,745.477 L26.602,760.477 M39.602,745.477 L52.602,760.477" style="stroke:#181818;stroke-width:0.5;" fill="none"/><rect x="356.304" y="685.68" width="77.109" height="46.594" fill="#E2E2F0" style="stroke:#181818;stroke-width:0.5;" rx="2.5" ry="2.5"/><text x="363.304" y="705.675" fill="#000" font-size="14" textLength="63.109">Frontend</text><text x="369.187" y="721.972" fill="#000" font-size="14" textLength="51.345">(Vue 3)</text><rect x="691.087" y="685.68" width="147.383" height="30.297" fill="#E2E2F0" style="stroke:#181818;stroke-width:0.5;" rx="2.5" ry="2.5"/><text x="698.087" y="705.675" fill="#000" font-size="14" textLength="133.383">DispensaController</text><rect x="1204.262" y="685.68" width="129.951" height="30.297" fill="#E2E2F0" style="stroke:#181818;stroke-width:0.5;" rx="2.5" ry="2.5"/><text x="1211.262" y="705.675" fill="#000" font-size="14" textLength="115.951">DispensaService</text><text x="1569.955" y="698.675" fill="#000" font-size="14" textLength="101.199">Base de Datos</text><text x="1574.716" y="714.972" fill="#000" font-size="14" textLength="91.677">(PostgreSQL)</text><path d="M1605.555,728.273 C1605.555,718.273 1623.555,718.273 1623.555,718.273 C1623.555,718.273 1641.555,718.273 1641.555,728.273 L1641.555,754.273 C1641.555,764.273 1623.555,764.273 1623.555,764.273 C1623.555,764.273 1605.555,764.273 1605.555,754.273 L1605.555,728.273" style="stroke:#181818;stroke-width:0.5;" fill="#E2E2F0"/><path d="M1605.555,728.273 C1605.555,738.273 1623.555,738.273 1623.555,738.273 C1623.555,738.273 1641.555,738.273 1641.555,728.273" style="stroke:#181818;stroke-width:0.5;" fill="none"/><polygon points="377.859,151.023,387.859,155.023,377.859,159.023,381.859,155.023" fill="#181818" style="stroke:#181818;stroke-width:1;stroke-linejoin:miter;stroke-miterlimit:10;"/><line x1="39.602" y1="155.023" x2="383.859" y2="155.023" style="stroke:#181818;stroke-width:1;"/><text x="46.602" y="149.958" fill="#000" font-size="13" textLength="237.352">accede a crear solicitud de dispensa</text><polygon points="747.779,180.156,757.779,184.156,747.779,188.156,751.779,184.156" fill="#181818" style="stroke:#181818;stroke-width:1;stroke-linejoin:miter;stroke-miterlimit:10;"/><line x1="399.859" y1="184.156" x2="753.779" y2="184.156" style="stroke:#181818;stroke-width:1;"/><text x="406.859" y="179.09" fill="#000" font-size="13" textLength="164.011">GET /api/dispensas/datos</text><polygon points="1252.237,209.289,1262.237,213.289,1252.237,217.289,1256.237,213.289" fill="#181818" style="stroke:#181818;stroke-width:1;stroke-linejoin:miter;stroke-miterlimit:10;"/><line x1="769.779" y1="213.289" x2="1258.237" y2="213.289" style="stroke:#181818;stroke-width:1;"/><text x="776.779" y="208.223" fill="#000" font-size="13" textLength="250.034">getDatosCrearDispensa(usuarioId, rol)</text><polygon points="1606.555,253.555,1616.555,257.555,1606.555,261.555,1610.555,257.555" fill="#181818" style="stroke:#181818;stroke-width:1;stroke-linejoin:miter;stroke-miterlimit:10;"/><line x1="1274.237" y1="257.555" x2="1612.555" y2="257.555" style="stroke:#181818;stroke-width:1;"/><text x="1281.237" y="237.356" fill="#000" font-size="13" textLength="176.179">SELECT * FROM Asignatura</text><text x="1281.237" y="252.489" fill="#000" font-size="13" textLength="184.749">(y Alumno si rol=Secretaria)</text><polygon points="1285.237,282.688,1275.237,286.688,1285.237,290.688,1281.237,286.688" fill="#181818" style="stroke:#181818;stroke-width:1;stroke-linejoin:miter;stroke-miterlimit:10;"/><line x1="1279.237" y1="286.688" x2="1617.555" y2="286.688" style="stroke:#181818;stroke-width:1;stroke-dasharray:2,2;"/><text x="1291.237" y="281.622" fill="#000" font-size="13" textLength="36.042">datos</text><polygon points="780.779,311.82,770.779,315.82,780.779,319.82,776.779,315.82" fill="#181818" style="stroke:#181818;stroke-width:1;stroke-linejoin:miter;stroke-miterlimit:10;"/><line x1="774.779" y1="315.82" x2="1263.237" y2="315.82" style="stroke:#181818;stroke-width:1;stroke-dasharray:2,2;"/><text x="786.779" y="310.754" fill="#000" font-size="13" textLength="36.042">datos</text><polygon points="410.859,340.953,400.859,344.953,410.859,348.953,406.859,344.953" fill="#181818" style="stroke:#181818;stroke-width:1;stroke-linejoin:miter;stroke-miterlimit:10;"/><line x1="404.859" y1="344.953" x2="758.779" y2="344.953" style="stroke:#181818;stroke-width:1;stroke-dasharray:2,2;"/><text x="416.859" y="339.887" fill="#000" font-size="13" textLength="112.684">200 OK { datos }</text><polygon points="50.602,370.086,40.602,374.086,50.602,378.086,46.602,374.086" fill="#181818" style="stroke:#181818;stroke-width:1;stroke-linejoin:miter;stroke-miterlimit:10;"/><line x1="44.602" y1="374.086" x2="388.859" y2="374.086" style="stroke:#181818;stroke-width:1;stroke-dasharray:2,2;"/><text x="56.602" y="369.02" fill="#000" font-size="13" textLength="125.48">muestra formulario</text><polygon points="377.859,414.352,387.859,418.352,377.859,422.352,381.859,418.352" fill="#181818" style="stroke:#181818;stroke-width:1;stroke-linejoin:miter;stroke-miterlimit:10;"/><line x1="39.602" y1="418.352" x2="383.859" y2="418.352" style="stroke:#181818;stroke-width:1;"/><text x="46.602" y="398.153" fill="#000" font-size="13" textLength="136.411">rellena datos y envía</text><text x="46.602" y="413.286" fill="#000" font-size="13" textLength="326.257">(alumnoId, asignaturaId, periodo, horario, motivo)</text><polygon points="747.779,458.617,757.779,462.617,747.779,466.617,751.779,462.617" fill="#181818" style="stroke:#181818;stroke-width:1;stroke-linejoin:miter;stroke-miterlimit:10;"/><line x1="399.859" y1="462.617" x2="753.779" y2="462.617" style="stroke:#181818;stroke-width:1;"/><text x="406.859" y="442.418" fill="#000" font-size="13" textLength="131.625">POST /api/dispensas</text><text x="406.859" y="457.551" fill="#000" font-size="13" textLength="340.92">{ alumnoId, asignaturaId, periodo, horario, motivo }</text><polygon points="1252.237,487.75,1262.237,491.75,1252.237,495.75,1256.237,491.75" fill="#181818" style="stroke:#181818;stroke-width:1;stroke-linejoin:miter;stroke-miterlimit:10;"/><line x1="769.779" y1="491.75" x2="1258.237" y2="491.75" style="stroke:#181818;stroke-width:1;"/><text x="776.779" y="486.684" fill="#000" font-size="13" textLength="475.458">crearSolicitudDispensa(alumnoId, asignaturaId, periodo, horario, motivo)</text><polygon points="1606.555,547.148,1616.555,551.148,1606.555,555.148,1610.555,551.148" fill="#181818" style="stroke:#181818;stroke-width:1;stroke-linejoin:miter;stroke-miterlimit:10;"/><line x1="1274.237" y1="551.148" x2="1612.555" y2="551.148" style="stroke:#181818;stroke-width:1;"/><text x="1281.237" y="515.817" fill="#000" font-size="13" textLength="146.618">INSERT INTO Dispensa</text><text x="1281.237" y="530.95" fill="#000" font-size="13" textLength="325.317">(alumnoId, asignaturaId, periodo, horario, motivo,</text><text x="1281.237" y="546.083" fill="#000" font-size="13" textLength="140.867">estado='PENDIENTE')</text><polygon points="1285.237,576.281,1275.237,580.281,1285.237,584.281,1281.237,580.281" fill="#181818" style="stroke:#181818;stroke-width:1;stroke-linejoin:miter;stroke-miterlimit:10;"/><line x1="1279.237" y1="580.281" x2="1617.555" y2="580.281" style="stroke:#181818;stroke-width:1;stroke-dasharray:2,2;"/><text x="1291.237" y="575.215" fill="#000" font-size="13" textLength="130.133">dispensa : Dispensa</text><polygon points="780.779,605.414,770.779,609.414,780.779,613.414,776.779,609.414" fill="#181818" style="stroke:#181818;stroke-width:1;stroke-linejoin:miter;stroke-miterlimit:10;"/><line x1="774.779" y1="609.414" x2="1263.237" y2="609.414" style="stroke:#181818;stroke-width:1;stroke-dasharray:2,2;"/><text x="786.779" y="604.348" fill="#000" font-size="13" textLength="130.133">dispensa : Dispensa</text><polygon points="410.859,634.547,400.859,638.547,410.859,642.547,406.859,638.547" fill="#181818" style="stroke:#181818;stroke-width:1;stroke-linejoin:miter;stroke-miterlimit:10;"/><line x1="404.859" y1="638.547" x2="758.779" y2="638.547" style="stroke:#181818;stroke-width:1;stroke-dasharray:2,2;"/><text x="416.859" y="633.481" fill="#000" font-size="13" textLength="167.483">201 Created { dispensa }</text><polygon points="50.602,663.68,40.602,667.68,50.602,671.68,46.602,667.68" fill="#181818" style="stroke:#181818;stroke-width:1;stroke-linejoin:miter;stroke-miterlimit:10;"/><line x1="44.602" y1="667.68" x2="388.859" y2="667.68" style="stroke:#181818;stroke-width:1;stroke-dasharray:2,2;"/><text x="56.602" y="662.614" fill="#000" font-size="13" textLength="203.233">solicitud creada correctamente</text><?plantuml-src dPJFRjD04CRlVefHBcqWKGhS8XMfYLqKKP9G6qwv3DuXh6JlMhlhYAhYaNWANenP_q-1jk6IhEEPtynyysMTT1b1A75lC4SG136b9QbK8anXQGWDn3gJgNIbyAz3QGjI5k7ySqdm1bv2zBqmP2sVjaRQ7CT1WAdJ1aQVR8b6wX6WXUOS56WSqmfK3aRNHYj7IknKJHjNeUslnx5juIM_D3hBo5J1_UFVmsCo1vbI5TkS0u4Elw0b62tyfvyAdRRSnLPRjpSKVxofMmaNGT1q3jEtNMSm1qnJuaI4jDB83ZKIJMslWpoWetwae4Cmhk-TWU-Y16POo5cRRMV2TzL31gC6WrG6DOCnPK-kcgNQNAl1ULcFi18JuAHnZsmL2Le2my85S-Be9becy0AkRpSVuChAlK9N6cIDxk0gAtEbmKfFksJ367BCnm6OXMFEzAYtUXn1mw2-y4Cz_eZkUXtEVhoKrnSNi7aFztKo_1Yc3zNhby3vxNxda9TadK7ugarUPfLT_x5zGmnIsDIv0rA7Np-zE5X9uuN6JZF_L113X9x0DsqyRmAvviRq-157R3VnGqlir3sSMe9bECb2bQ6x_tpdeTCdUzfbgtKStIRybMowY-K_H9pi52yEXRuysqRhS1Mja-ZiAJEszzYyg_nyQpwU-ooZlgekLqV2kxNbdMhO_jRnInDy6MbZA7MO4uSFOItWDm00?></g></svg>