<svg xmlns="http://www.w3.org/2000/svg" xmlns:xlink="http://www.w3.org/1999/xlink" version="1.1" data-diagram-type="SEQUENCE" style="width:1086px;height:775px;background:#FFFFFF;" width="1086px" height="775px" viewBox="0 0 1086 775" zoomAndPan="magnify" preserveAspectRatio="none" contentStyleType="text/css"><?plantuml 1.2026.7beta8?><defs/><g font-family="sans-serif" lengthAdjust="spacing"><g class="title" data-source-line="1"><text x="267.403" y="27.995" fill="#000" font-size="14" textLength="549.459" font-weight="700">Diagrama de Secuencia - Abrir Matrículas (Vue 3 + Express + Prisma)</text></g><g><title>Secretaria</title><rect x="45.43" y="125.891" width="8" height="559.523" fill="#000" fill-opacity="0"/><line x1="48.93" y1="125.891" x2="48.93" y2="685.414" style="stroke:#181818;stroke-width:0.5;stroke-dasharray:5,5;"/></g><g><title>Frontend</title><rect x="320.903" y="125.891" width="8" height="559.523" fill="#000" fill-opacity="0"/><line x1="324.403" y1="125.891" x2="324.403" y2="685.414" style="stroke:#181818;stroke-width:0.5;stroke-dasharray:5,5;"/></g><g><title></title><rect x="319.403" y="155.023" width="10" height="520.391" fill="#FFF" style="stroke:#181818;stroke-width:1;"/></g><g><title>MatriculaController</title><rect x="544.433" y="125.891" width="8" height="559.523" fill="#000" fill-opacity="0"/><line x1="547.933" y1="125.891" x2="547.933" y2="685.414" style="stroke:#181818;stroke-width:0.5;stroke-dasharray:5,5;"/></g><g><title></title><rect x="542.933" y="184.156" width="10" height="160.797" fill="#FFF" style="stroke:#181818;stroke-width:1;"/></g><g><title></title><rect x="542.933" y="478.617" width="10" height="145.664" fill="#FFF" style="stroke:#181818;stroke-width:1;"/></g><g><title>MatriculaService</title><rect x="729.844" y="125.891" width="8" height="559.523" fill="#000" fill-opacity="0"/><line x1="733.344" y1="125.891" x2="733.344" y2="685.414" style="stroke:#181818;stroke-width:0.5;stroke-dasharray:5,5;"/></g><g><title></title><rect x="728.344" y="213.289" width="10" height="102.531" fill="#FFF" style="stroke:#181818;stroke-width:1;"/></g><g><title></title><rect x="728.344" y="507.75" width="10" height="87.398" fill="#FFF" style="stroke:#181818;stroke-width:1;"/></g><g><title>Base de Datos</title><rect x="1018.165" y="125.891" width="8" height="559.523" fill="#000" fill-opacity="0"/><line x1="1021.665" y1="125.891" x2="1021.665" y2="685.414" style="stroke:#181818;stroke-width:0.5;stroke-dasharray:5,5;"/></g><g><title></title><rect x="1016.665" y="257.555" width="10" height="29.133" fill="#FFF" style="stroke:#181818;stroke-width:1;"/></g><g><title></title><rect x="1016.665" y="536.883" width="10" height="29.133" fill="#FFF" style="stroke:#181818;stroke-width:1;"/></g><text x="10" y="122.589" fill="#000" font-size="14" textLength="71.859">Secretaria</text><ellipse cx="48.93" cy="58.094" rx="8" ry="8" fill="#E2E2F0" style="stroke:#181818;stroke-width:0.5;"/><path d="M48.93,66.094 L48.93,93.094 M35.93,74.094 L61.93,74.094 M48.93,93.094 L35.93,108.094 M48.93,93.094 L61.93,108.094" style="stroke:#181818;stroke-width:0.5;" fill="none"/><rect x="285.848" y="78.297" width="77.109" height="46.594" fill="#E2E2F0" style="stroke:#181818;stroke-width:0.5;" rx="2.5" ry="2.5"/><text x="292.848" y="98.292" fill="#000" font-size="14" textLength="63.109">Frontend</text><text x="298.73" y="114.589" fill="#000" font-size="14" textLength="51.345">(Vue 3)</text><rect x="473.931" y="94.594" width="148.005" height="30.297" fill="#E2E2F0" style="stroke:#181818;stroke-width:0.5;" rx="2.5" ry="2.5"/><text x="480.931" y="114.589" fill="#000" font-size="14" textLength="134.005">MatriculaController</text><rect x="668.057" y="94.594" width="130.573" height="30.297" fill="#E2E2F0" style="stroke:#181818;stroke-width:0.5;" rx="2.5" ry="2.5"/><text x="675.057" y="114.589" fill="#000" font-size="14" textLength="116.573">MatriculaService</text><text x="968.065" y="106.292" fill="#000" font-size="14" textLength="101.199">Base de Datos</text><text x="972.826" y="122.589" fill="#000" font-size="14" textLength="91.677">(PostgreSQL)</text><path d="M1003.665,57.297 C1003.665,47.297 1021.665,47.297 1021.665,47.297 C1021.665,47.297 1039.665,47.297 1039.665,57.297 L1039.665,83.297 C1039.665,93.297 1021.665,93.297 1021.665,93.297 C1021.665,93.297 1003.665,93.297 1003.665,83.297 L1003.665,57.297" style="stroke:#181818;stroke-width:0.5;" fill="#E2E2F0"/><path d="M1003.665,57.297 C1003.665,67.297 1021.665,67.297 1021.665,67.297 C1021.665,67.297 1039.665,67.297 1039.665,57.297" style="stroke:#181818;stroke-width:0.5;" fill="none"/><text x="10" y="698.409" fill="#000" font-size="14" textLength="71.859">Secretaria</text><ellipse cx="48.93" cy="710.211" rx="8" ry="8" fill="#E2E2F0" style="stroke:#181818;stroke-width:0.5;"/><path d="M48.93,718.211 L48.93,745.211 M35.93,726.211 L61.93,726.211 M48.93,745.211 L35.93,760.211 M48.93,745.211 L61.93,760.211" style="stroke:#181818;stroke-width:0.5;" fill="none"/><rect x="285.848" y="685.414" width="77.109" height="46.594" fill="#E2E2F0" style="stroke:#181818;stroke-width:0.5;" rx="2.5" ry="2.5"/><text x="292.848" y="705.409" fill="#000" font-size="14" textLength="63.109">Frontend</text><text x="298.73" y="721.706" fill="#000" font-size="14" textLength="51.345">(Vue 3)</text><rect x="473.931" y="685.414" width="148.005" height="30.297" fill="#E2E2F0" style="stroke:#181818;stroke-width:0.5;" rx="2.5" ry="2.5"/><text x="480.931" y="705.409" fill="#000" font-size="14" textLength="134.005">MatriculaController</text><rect x="668.057" y="685.414" width="130.573" height="30.297" fill="#E2E2F0" style="stroke:#181818;stroke-width:0.5;" rx="2.5" ry="2.5"/><text x="675.057" y="705.409" fill="#000" font-size="14" textLength="116.573">MatriculaService</text><text x="968.065" y="698.409" fill="#000" font-size="14" textLength="101.199">Base de Datos</text><text x="972.826" y="714.706" fill="#000" font-size="14" textLength="91.677">(PostgreSQL)</text><path d="M1003.665,728.008 C1003.665,718.008 1021.665,718.008 1021.665,718.008 C1021.665,718.008 1039.665,718.008 1039.665,728.008 L1039.665,754.008 C1039.665,764.008 1021.665,764.008 1021.665,764.008 C1021.665,764.008 1003.665,764.008 1003.665,754.008 L1003.665,728.008" style="stroke:#181818;stroke-width:0.5;" fill="#E2E2F0"/><path d="M1003.665,728.008 C1003.665,738.008 1021.665,738.008 1021.665,738.008 C1021.665,738.008 1039.665,738.008 1039.665,728.008" style="stroke:#181818;stroke-width:0.5;" fill="none"/><polygon points="307.403,151.023,317.403,155.023,307.403,159.023,311.403,155.023" fill="#181818" style="stroke:#181818;stroke-width:1;stroke-linejoin:miter;stroke-miterlimit:10;"/><line x1="48.93" y1="155.023" x2="313.403" y2="155.023" style="stroke:#181818;stroke-width:1;"/><text x="55.93" y="149.958" fill="#000" font-size="13" textLength="207.962">accede al módulo de matrículas</text><polygon points="530.933,180.156,540.933,184.156,530.933,188.156,534.933,184.156" fill="#181818" style="stroke:#181818;stroke-width:1;stroke-linejoin:miter;stroke-miterlimit:10;"/><line x1="329.403" y1="184.156" x2="536.933" y2="184.156" style="stroke:#181818;stroke-width:1;"/><text x="336.403" y="179.09" fill="#000" font-size="13" textLength="127.372">GET /api/matriculas</text><polygon points="716.344,209.289,726.344,213.289,716.344,217.289,720.344,213.289" fill="#181818" style="stroke:#181818;stroke-width:1;stroke-linejoin:miter;stroke-miterlimit:10;"/><line x1="552.933" y1="213.289" x2="722.344" y2="213.289" style="stroke:#181818;stroke-width:1;"/><text x="559.933" y="208.223" fill="#000" font-size="13" textLength="135.434">getMatriculas(filtros)</text><polygon points="1004.665,253.555,1014.665,257.555,1004.665,261.555,1008.665,257.555" fill="#181818" style="stroke:#181818;stroke-width:1;stroke-linejoin:miter;stroke-miterlimit:10;"/><line x1="738.344" y1="257.555" x2="1010.665" y2="257.555" style="stroke:#181818;stroke-width:1;"/><text x="745.344" y="237.356" fill="#000" font-size="13" textLength="165.998">SELECT * FROM Matricula</text><text x="745.344" y="252.489" fill="#000" font-size="13" textLength="194.917">INCLUDE alumno, asignaturas</text><polygon points="749.344,282.688,739.344,286.688,749.344,290.688,745.344,286.688" fill="#181818" style="stroke:#181818;stroke-width:1;stroke-linejoin:miter;stroke-miterlimit:10;"/><line x1="743.344" y1="286.688" x2="1015.665" y2="286.688" style="stroke:#181818;stroke-width:1;stroke-dasharray:2,2;"/><text x="755.344" y="281.622" fill="#000" font-size="13" textLength="151.411">matriculas : Matricula[]</text><polygon points="563.933,311.82,553.933,315.82,563.933,319.82,559.933,315.82" fill="#181818" style="stroke:#181818;stroke-width:1;stroke-linejoin:miter;stroke-miterlimit:10;"/><line x1="557.933" y1="315.82" x2="727.344" y2="315.82" style="stroke:#181818;stroke-width:1;stroke-dasharray:2,2;"/><text x="569.933" y="310.754" fill="#000" font-size="13" textLength="151.411">matriculas : Matricula[]</text><polygon points="340.403,340.953,330.403,344.953,340.403,348.953,336.403,344.953" fill="#181818" style="stroke:#181818;stroke-width:1;stroke-linejoin:miter;stroke-miterlimit:10;"/><line x1="334.403" y1="344.953" x2="541.933" y2="344.953" style="stroke:#181818;stroke-width:1;stroke-dasharray:2,2;"/><text x="346.403" y="339.887" fill="#000" font-size="13" textLength="145.063">200 OK { matriculas }</text><polygon points="59.93,385.219,49.93,389.219,59.93,393.219,55.93,389.219" fill="#181818" style="stroke:#181818;stroke-width:1;stroke-linejoin:miter;stroke-miterlimit:10;"/><line x1="53.93" y1="389.219" x2="318.403" y2="389.219" style="stroke:#181818;stroke-width:1;stroke-dasharray:2,2;"/><text x="65.93" y="369.02" fill="#000" font-size="13" textLength="178.21">muestra lista de matrículas</text><text x="65.93" y="384.153" fill="#000" font-size="13" textLength="246.473">(alumno, asignatura, periodo, estado)</text><path d="M32.93,401.219 L102.381,401.219 L102.381,408.352 L92.381,418.352 L32.93,418.352 L32.93,401.219" style="stroke:#000;stroke-width:1.5;" fill="#EEE"/><rect x="32.93" y="401.219" width="1009.735" height="260.195" fill="none" style="stroke:#000;stroke-width:1.5;"/><text x="47.93" y="414.286" fill="#000" font-size="13" textLength="24.451" font-weight="700">opt</text><text x="117.381" y="413.429" fill="#000" font-size="11" textLength="76.511" font-weight="700">[filtrar lista]</text><polygon points="307.403,445.484,317.403,449.484,307.403,453.484,311.403,449.484" fill="#181818" style="stroke:#181818;stroke-width:1;stroke-linejoin:miter;stroke-miterlimit:10;"/><line x1="48.93" y1="449.484" x2="313.403" y2="449.484" style="stroke:#181818;stroke-width:1;"/><text x="55.93" y="444.418" fill="#000" font-size="13" textLength="79.657">aplica filtros</text><polygon points="530.933,474.617,540.933,478.617,530.933,482.617,534.933,478.617" fill="#181818" style="stroke:#181818;stroke-width:1;stroke-linejoin:miter;stroke-miterlimit:10;"/><line x1="329.403" y1="478.617" x2="536.933" y2="478.617" style="stroke:#181818;stroke-width:1;"/><text x="336.403" y="473.551" fill="#000" font-size="13" textLength="194.53">GET /api/matriculas?filtros=...</text><polygon points="716.344,503.75,726.344,507.75,716.344,511.75,720.344,507.75" fill="#181818" style="stroke:#181818;stroke-width:1;stroke-linejoin:miter;stroke-miterlimit:10;"/><line x1="552.933" y1="507.75" x2="722.344" y2="507.75" style="stroke:#181818;stroke-width:1;"/><text x="559.933" y="502.684" fill="#000" font-size="13" textLength="135.434">getMatriculas(filtros)</text><polygon points="1004.665,532.883,1014.665,536.883,1004.665,540.883,1008.665,536.883" fill="#181818" style="stroke:#181818;stroke-width:1;stroke-linejoin:miter;stroke-miterlimit:10;"/><line x1="738.344" y1="536.883" x2="1010.665" y2="536.883" style="stroke:#181818;stroke-width:1;"/><text x="745.344" y="531.817" fill="#000" font-size="13" textLength="259.321">SELECT * FROM Matricula WHERE filtros</text><polygon points="749.344,562.016,739.344,566.016,749.344,570.016,745.344,566.016" fill="#181818" style="stroke:#181818;stroke-width:1;stroke-linejoin:miter;stroke-miterlimit:10;"/><line x1="743.344" y1="566.016" x2="1015.665" y2="566.016" style="stroke:#181818;stroke-width:1;stroke-dasharray:2,2;"/><text x="755.344" y="560.95" fill="#000" font-size="13" textLength="151.411">matriculas : Matricula[]</text><polygon points="563.933,591.148,553.933,595.148,563.933,599.148,559.933,595.148" fill="#181818" style="stroke:#181818;stroke-width:1;stroke-linejoin:miter;stroke-miterlimit:10;"/><line x1="557.933" y1="595.148" x2="727.344" y2="595.148" style="stroke:#181818;stroke-width:1;stroke-dasharray:2,2;"/><text x="569.933" y="590.083" fill="#000" font-size="13" textLength="151.411">matriculas : Matricula[]</text><polygon points="340.403,620.281,330.403,624.281,340.403,628.281,336.403,624.281" fill="#181818" style="stroke:#181818;stroke-width:1;stroke-linejoin:miter;stroke-miterlimit:10;"/><line x1="334.403" y1="624.281" x2="541.933" y2="624.281" style="stroke:#181818;stroke-width:1;stroke-dasharray:2,2;"/><text x="346.403" y="619.215" fill="#000" font-size="13" textLength="145.063">200 OK { matriculas }</text><polygon points="59.93,649.414,49.93,653.414,59.93,657.414,55.93,653.414" fill="#181818" style="stroke:#181818;stroke-width:1;stroke-linejoin:miter;stroke-miterlimit:10;"/><line x1="53.93" y1="653.414" x2="318.403" y2="653.414" style="stroke:#181818;stroke-width:1;stroke-dasharray:2,2;"/><text x="65.93" y="648.348" fill="#000" font-size="13" textLength="135.833">muestra lista filtrada</text><?plantuml-src bLJDRjD06BplKunoQg19AxWXKKHY5n0f_Kc10-NmTRr4AzbUQtTT8Q4-4YSUeI_6PoVshWkLd8lbjRyPpSmtjjS-LqWqRImLX4nXhMIjIga9CxozjThYZBnz-2thd1mEljGAB_4SwS_AAkVuxi9gLz1K29BUM4oOm2fFLjC4Z0X7KP7rMkgAIe_9gJMbLsLsKsuvf-rqztGusoZGZO0blxKcpvLjfyFnYVcridTQgfsGzbvavEcMdC9aqLpPSaBUEDPnOPpVMBM-N6t590iXWdpCJdfvU0MIKZ6MSXGFVx8wDmrJ4Q9guj1tv5Nm97euKmNjJFOklSOHLVgew9H7-CYbY53CiRF411lbUzFku8VEUSfD0qTdNdGGHYSB1gxJLRgynZESNfsVeUUuAJzyMgu-9oaRh8lI778UUbEIhsqiZHDYbjb0Ih30XvxmstUHgHWNb3mEOmn1xoSEPBYW5yV7EF-8Np7VVSmHvnesqthfTyvgQkMy9UJQUNgqO-xCl_4Seb9McumVCf8omv-6gJpQfP3T4WdWwMPLkPQ4tH9vSf_QlDd1Ni_dSuR-poomPuiYcYvtO6IHyFLzUfL6Pk8E0EFR0mpx4oaONQ01Hx2oRuS6D8DWnzPesuMCHFjRYDWwWhy0?></g></svg>