<svg xmlns="http://www.w3.org/2000/svg" xmlns:xlink="http://www.w3.org/1999/xlink" version="1.1" data-diagram-type="SEQUENCE" style="width:1223px;height:717px;background:#FFFFFF;" width="1223px" height="717px" viewBox="0 0 1223 717" zoomAndPan="magnify" preserveAspectRatio="none" contentStyleType="text/css"><?plantuml 1.2026.7beta8?><defs/><g font-family="sans-serif" lengthAdjust="spacing"><g class="title" data-source-line="1"><text x="298.342" y="27.995" fill="#000" font-size="14" textLength="624.374" font-weight="700">Diagrama de Secuencia - Consultar Detalle Alumno (Vue 3 + Express + Prisma)</text></g><g><title>Profesor</title><rect x="38.46" y="125.891" width="8" height="501.523" fill="#000" fill-opacity="0"/><line x1="41.96" y1="125.891" x2="41.96" y2="627.414" style="stroke:#181818;stroke-width:0.5;stroke-dasharray:5,5;"/></g><g><title>Frontend</title><rect x="276.609" y="125.891" width="8" height="501.523" fill="#000" fill-opacity="0"/><line x1="280.109" y1="125.891" x2="280.109" y2="627.414" style="stroke:#181818;stroke-width:0.5;stroke-dasharray:5,5;"/></g><g><title></title><rect x="275.109" y="155.023" width="10" height="454.391" fill="#FFF" style="stroke:#181818;stroke-width:1;"/></g><g><title>AcademicController</title><rect x="553.257" y="125.891" width="8" height="501.523" fill="#000" fill-opacity="0"/><line x1="556.757" y1="125.891" x2="556.757" y2="627.414" style="stroke:#181818;stroke-width:0.5;stroke-dasharray:5,5;"/></g><g><title></title><rect x="551.757" y="184.156" width="10" height="175.93" fill="#FFF" style="stroke:#181818;stroke-width:1;"/></g><g><title></title><rect x="551.757" y="389.219" width="10" height="175.93" fill="#FFF" style="stroke:#181818;stroke-width:1;"/></g><g><title>AcademicService</title><rect x="822.046" y="125.891" width="8" height="501.523" fill="#000" fill-opacity="0"/><line x1="825.546" y1="125.891" x2="825.546" y2="627.414" style="stroke:#181818;stroke-width:0.5;stroke-dasharray:5,5;"/></g><g><title></title><rect x="820.546" y="213.289" width="10" height="117.664" fill="#FFF" style="stroke:#181818;stroke-width:1;"/></g><g><title></title><rect x="820.546" y="418.352" width="10" height="117.664" fill="#FFF" style="stroke:#181818;stroke-width:1;"/></g><g><title>Base de Datos</title><rect x="1154.959" y="125.891" width="8" height="501.523" fill="#000" fill-opacity="0"/><line x1="1158.459" y1="125.891" x2="1158.459" y2="627.414" style="stroke:#181818;stroke-width:0.5;stroke-dasharray:5,5;"/></g><g><title></title><rect x="1153.459" y="272.688" width="10" height="29.133" fill="#FFF" style="stroke:#181818;stroke-width:1;"/></g><g><title></title><rect x="1153.459" y="477.75" width="10" height="29.133" fill="#FFF" style="stroke:#181818;stroke-width:1;"/></g><text x="10" y="122.589" fill="#000" font-size="14" textLength="57.921">Profesor</text><ellipse cx="41.96" cy="58.094" rx="8" ry="8" fill="#E2E2F0" style="stroke:#181818;stroke-width:0.5;"/><path d="M41.96,66.094 L41.96,93.094 M28.96,74.094 L54.96,74.094 M41.96,93.094 L28.96,108.094 M41.96,93.094 L54.96,108.094" style="stroke:#181818;stroke-width:0.5;" fill="none"/><rect x="241.555" y="78.297" width="77.109" height="46.594" fill="#E2E2F0" style="stroke:#181818;stroke-width:0.5;" rx="2.5" ry="2.5"/><text x="248.555" y="98.292" fill="#000" font-size="14" textLength="63.109">Frontend</text><text x="254.437" y="114.589" fill="#000" font-size="14" textLength="51.345">(Vue 3)</text><rect x="480.881" y="94.594" width="151.751" height="30.297" fill="#E2E2F0" style="stroke:#181818;stroke-width:0.5;" rx="2.5" ry="2.5"/><text x="487.881" y="114.589" fill="#000" font-size="14" textLength="137.751">AcademicController</text><rect x="758.386" y="94.594" width="134.319" height="30.297" fill="#E2E2F0" style="stroke:#181818;stroke-width:0.5;" rx="2.5" ry="2.5"/><text x="765.386" y="114.589" fill="#000" font-size="14" textLength="120.319">AcademicService</text><text x="1104.859" y="106.292" fill="#000" font-size="14" textLength="101.199">Base de Datos</text><text x="1109.621" y="122.589" fill="#000" font-size="14" textLength="91.677">(PostgreSQL)</text><path d="M1140.459,57.297 C1140.459,47.297 1158.459,47.297 1158.459,47.297 C1158.459,47.297 1176.459,47.297 1176.459,57.297 L1176.459,83.297 C1176.459,93.297 1158.459,93.297 1158.459,93.297 C1158.459,93.297 1140.459,93.297 1140.459,83.297 L1140.459,57.297" style="stroke:#181818;stroke-width:0.5;" fill="#E2E2F0"/><path d="M1140.459,57.297 C1140.459,67.297 1158.459,67.297 1158.459,67.297 C1158.459,67.297 1176.459,67.297 1176.459,57.297" style="stroke:#181818;stroke-width:0.5;" fill="none"/><text x="10" y="640.409" fill="#000" font-size="14" textLength="57.921">Profesor</text><ellipse cx="41.96" cy="652.211" rx="8" ry="8" fill="#E2E2F0" style="stroke:#181818;stroke-width:0.5;"/><path d="M41.96,660.211 L41.96,687.211 M28.96,668.211 L54.96,668.211 M41.96,687.211 L28.96,702.211 M41.96,687.211 L54.96,702.211" style="stroke:#181818;stroke-width:0.5;" fill="none"/><rect x="241.555" y="627.414" width="77.109" height="46.594" fill="#E2E2F0" style="stroke:#181818;stroke-width:0.5;" rx="2.5" ry="2.5"/><text x="248.555" y="647.409" fill="#000" font-size="14" textLength="63.109">Frontend</text><text x="254.437" y="663.706" fill="#000" font-size="14" textLength="51.345">(Vue 3)</text><rect x="480.881" y="627.414" width="151.751" height="30.297" fill="#E2E2F0" style="stroke:#181818;stroke-width:0.5;" rx="2.5" ry="2.5"/><text x="487.881" y="647.409" fill="#000" font-size="14" textLength="137.751">AcademicController</text><rect x="758.386" y="627.414" width="134.319" height="30.297" fill="#E2E2F0" style="stroke:#181818;stroke-width:0.5;" rx="2.5" ry="2.5"/><text x="765.386" y="647.409" fill="#000" font-size="14" textLength="120.319">AcademicService</text><text x="1104.859" y="640.409" fill="#000" font-size="14" textLength="101.199">Base de Datos</text><text x="1109.621" y="656.706" fill="#000" font-size="14" textLength="91.677">(PostgreSQL)</text><path d="M1140.459,670.008 C1140.459,660.008 1158.459,660.008 1158.459,660.008 C1158.459,660.008 1176.459,660.008 1176.459,670.008 L1176.459,696.008 C1176.459,706.008 1158.459,706.008 1158.459,706.008 C1158.459,706.008 1140.459,706.008 1140.459,696.008 L1140.459,670.008" style="stroke:#181818;stroke-width:0.5;" fill="#E2E2F0"/><path d="M1140.459,670.008 C1140.459,680.008 1158.459,680.008 1158.459,680.008 C1158.459,680.008 1176.459,680.008 1176.459,670.008" style="stroke:#181818;stroke-width:0.5;" fill="none"/><polygon points="263.109,151.023,273.109,155.023,263.109,159.023,267.109,155.023" fill="#181818" style="stroke:#181818;stroke-width:1;stroke-linejoin:miter;stroke-miterlimit:10;"/><line x1="41.96" y1="155.023" x2="269.109" y2="155.023" style="stroke:#181818;stroke-width:1;"/><text x="48.96" y="149.958" fill="#000" font-size="13" textLength="209.149">selecciona un alumno de la lista</text><polygon points="539.757,180.156,549.757,184.156,539.757,188.156,543.757,184.156" fill="#181818" style="stroke:#181818;stroke-width:1;stroke-linejoin:miter;stroke-miterlimit:10;"/><line x1="285.109" y1="184.156" x2="545.757" y2="184.156" style="stroke:#181818;stroke-width:1;"/><text x="292.109" y="179.09" fill="#000" font-size="13" textLength="244.277">GET /api/academic/alumno/:alumnoId</text><polygon points="808.546,209.289,818.546,213.289,808.546,217.289,812.546,213.289" fill="#181818" style="stroke:#181818;stroke-width:1;stroke-linejoin:miter;stroke-miterlimit:10;"/><line x1="561.757" y1="213.289" x2="814.546" y2="213.289" style="stroke:#181818;stroke-width:1;"/><text x="568.757" y="208.223" fill="#000" font-size="13" textLength="239.789">getAsignaturaAlumnos(asignaturaId)</text><polygon points="1141.459,268.688,1151.459,272.688,1141.459,276.688,1145.459,272.688" fill="#181818" style="stroke:#181818;stroke-width:1;stroke-linejoin:miter;stroke-miterlimit:10;"/><line x1="830.546" y1="272.688" x2="1147.459" y2="272.688" style="stroke:#181818;stroke-width:1;"/><text x="837.546" y="237.356" fill="#000" font-size="13" textLength="280.535">SELECT id, nombre, numeroRegistro, email</text><text x="837.546" y="252.489" fill="#000" font-size="13" textLength="91.692">FROM Alumno</text><text x="837.546" y="267.622" fill="#000" font-size="13" textLength="90.143">WHERE id = ?</text><polygon points="841.546,297.82,831.546,301.82,841.546,305.82,837.546,301.82" fill="#181818" style="stroke:#181818;stroke-width:1;stroke-linejoin:miter;stroke-miterlimit:10;"/><line x1="835.546" y1="301.82" x2="1152.459" y2="301.82" style="stroke:#181818;stroke-width:1;stroke-dasharray:2,2;"/><text x="847.546" y="296.754" fill="#000" font-size="13" textLength="110.919">alumno : Alumno</text><polygon points="572.757,326.953,562.757,330.953,572.757,334.953,568.757,330.953" fill="#181818" style="stroke:#181818;stroke-width:1;stroke-linejoin:miter;stroke-miterlimit:10;"/><line x1="566.757" y1="330.953" x2="819.546" y2="330.953" style="stroke:#181818;stroke-width:1;stroke-dasharray:2,2;"/><text x="578.757" y="325.887" fill="#000" font-size="13" textLength="110.919">alumno : Alumno</text><polygon points="296.109,356.086,286.109,360.086,296.109,364.086,292.109,360.086" fill="#181818" style="stroke:#181818;stroke-width:1;stroke-linejoin:miter;stroke-miterlimit:10;"/><line x1="290.109" y1="360.086" x2="550.757" y2="360.086" style="stroke:#181818;stroke-width:1;stroke-dasharray:2,2;"/><text x="302.109" y="355.02" fill="#000" font-size="13" textLength="125.315">200 OK { alumno }</text><polygon points="539.757,385.219,549.757,389.219,539.757,393.219,543.757,389.219" fill="#181818" style="stroke:#181818;stroke-width:1;stroke-linejoin:miter;stroke-miterlimit:10;"/><line x1="285.109" y1="389.219" x2="545.757" y2="389.219" style="stroke:#181818;stroke-width:1;"/><text x="292.109" y="384.153" fill="#000" font-size="13" textLength="247.647">GET /api/attendance/session/:sesionId</text><polygon points="808.546,414.352,818.546,418.352,808.546,422.352,812.546,418.352" fill="#181818" style="stroke:#181818;stroke-width:1;stroke-linejoin:miter;stroke-miterlimit:10;"/><line x1="561.757" y1="418.352" x2="814.546" y2="418.352" style="stroke:#181818;stroke-width:1;"/><text x="568.757" y="413.286" fill="#000" font-size="13" textLength="226.065">getAttendanceBySession(sesionId)</text><polygon points="1141.459,473.75,1151.459,477.75,1141.459,481.75,1145.459,477.75" fill="#181818" style="stroke:#181818;stroke-width:1;stroke-linejoin:miter;stroke-miterlimit:10;"/><line x1="830.546" y1="477.75" x2="1147.459" y2="477.75" style="stroke:#181818;stroke-width:1;"/><text x="837.546" y="442.418" fill="#000" font-size="13" textLength="171.907">SELECT * FROM Asistencia</text><text x="837.546" y="457.551" fill="#000" font-size="13" textLength="131.714">WHERE sesionId = ?</text><text x="837.546" y="472.684" fill="#000" font-size="13" textLength="303.913">INCLUDE alumno(id, nombre, numeroRegistro)</text><polygon points="841.546,502.883,831.546,506.883,841.546,510.883,837.546,506.883" fill="#181818" style="stroke:#181818;stroke-width:1;stroke-linejoin:miter;stroke-miterlimit:10;"/><line x1="835.546" y1="506.883" x2="1152.459" y2="506.883" style="stroke:#181818;stroke-width:1;stroke-dasharray:2,2;"/><text x="847.546" y="501.817" fill="#000" font-size="13" textLength="160.856">asistencias : Asistencia[]</text><polygon points="572.757,532.016,562.757,536.016,572.757,540.016,568.757,536.016" fill="#181818" style="stroke:#181818;stroke-width:1;stroke-linejoin:miter;stroke-miterlimit:10;"/><line x1="566.757" y1="536.016" x2="819.546" y2="536.016" style="stroke:#181818;stroke-width:1;stroke-dasharray:2,2;"/><text x="578.757" y="530.95" fill="#000" font-size="13" textLength="160.856">asistencias : Asistencia[]</text><polygon points="296.109,561.148,286.109,565.148,296.109,569.148,292.109,565.148" fill="#181818" style="stroke:#181818;stroke-width:1;stroke-linejoin:miter;stroke-miterlimit:10;"/><line x1="290.109" y1="565.148" x2="550.757" y2="565.148" style="stroke:#181818;stroke-width:1;stroke-dasharray:2,2;"/><text x="302.109" y="560.083" fill="#000" font-size="13" textLength="148.599">200 OK { asistencias }</text><polygon points="52.96,605.414,42.96,609.414,52.96,613.414,48.96,609.414" fill="#181818" style="stroke:#181818;stroke-width:1;stroke-linejoin:miter;stroke-miterlimit:10;"/><line x1="46.96" y1="609.414" x2="274.109" y2="609.414" style="stroke:#181818;stroke-width:1;stroke-dasharray:2,2;"/><text x="58.96" y="589.215" fill="#000" font-size="13" textLength="179.55">muestra detalle del alumno</text><text x="58.96" y="604.348" fill="#000" font-size="13" textLength="179.651">y su historial de asistencias</text><?plantuml-src dPHDZzCm48Rl_XMZdbhOAYkuLGBKDbceA6nf5ZWG3hFE42mbTcKxArQ8_ywapbSH7rqkiPtCF9vvtzXU-P8WLbXOh11oWfHaJLegX3ciZNPrwT52J1vBZboMTQKDJ3_K14_XCIJV3fQSuzdEAbVXJ0YKtbYOxApvGixO2Q23RY4EQBsIwe3Qm-JA6kr9vvaElDanjdjx6hkKc5Eb99VahU5I0dXO_Zuy9Nkd91rZsxd8qUCjEeB9gdbopp5wuxYAdN6-i9I-suPIufKGNUamVzwN1WjmL9AKocY4MWC6MHXL8fJAUMnaK7VeQUX7zEcC6WfdsCla1Y8yg0ZRigC0Z1PXtEG3RjIn644OsVR7l8Byqgb2ewyj1ilS5Fitctmsy3fLH9VEf7Z5a3JP9kiRKFa5Q5FTMkAnhiYQFHNSeJKNG1MgCjDN--itxP-HwO-ladt2MV0CNWoxi98CdPzKsOgsQ5D5JkFmePvVrVfBNj_CM9bJuvvSNiBrQ_ZUONwCyyVYdk6MRxwZbXGvFWJyCqGBdl3uFuRriDLz6cZJ3lO0knv1SCEnHSTZt3dIiHfVChrvkzw-ZvDMXEcVJPxzmyD-7zSOqgy-VJxVphCG3t9sH3p3NgRqXtm1LKtSTtCLXXilfx9LATFtu6huod1Z5PRDSHzjDTweW_y4?></g></svg>